<?xml version="1.0" encoding="UTF-8"?>
<!DOCTYPE svg PUBLIC "-//W3C//DTD SVG 1.1//EN" "http://www.w3.org/Graphics/SVG/1.1/DTD/svg11.dtd">
<!-- Creator: CorelDRAW 2021 (64 Bit) -->
<svg xmlns="http://www.w3.org/2000/svg" xml:space="preserve" width="231.757mm" height="231.815mm" version="1.1" style="shape-rendering:geometricPrecision; text-rendering:geometricPrecision; image-rendering:optimizeQuality; fill-rule:evenodd; clip-rule:evenodd"
viewBox="0 0 10056.97 10059.48"
 xmlns:xlink="http://www.w3.org/1999/xlink"
 xmlns:xodm="http://www.corel.com/coreldraw/odm/2003">
 <defs>
  <style type="text/css">
   <![CDATA[
    .str1 {stroke:black;stroke-width:344.38;stroke-miterlimit:22.9256}
    .str0 {stroke:black;stroke-width:459.18;stroke-miterlimit:22.9256}
    .fil0 {fill:none}
    .fil1 {fill:none;fill-rule:nonzero}
   ]]>
  </style>
 </defs>
 <g id="Camada_x0020_1">
  <metadata id="CorelCorpID_0Corel-Layer"/>
  <circle class="fil0 str0" cx="5018.43" cy="5055.44" r="2089.14"/>
  <circle class="fil0 str0" cx="2125.48" cy="7858.62" r="767.95"/>
  <circle class="fil0 str0" cx="997.54" cy="5055.89" r="767.95"/>
  <circle class="fil0 str0" cx="2176.65" cy="2200.86" r="767.95"/>
  <circle class="fil0 str0" cx="5095.18" cy="997.54" r="767.95"/>
  <circle class="fil0 str0" cx="7936.96" cy="2277.61" r="767.95"/>
  <circle class="fil0 str0" cx="9059.43" cy="4975.49" r="767.95"/>
  <circle class="fil0 str0" cx="7860.22" cy="7910.01" r="767.95"/>
  <circle class="fil0 str0" cx="4916.1" cy="9061.94" r="767.95"/>
  <line class="fil0 str0" x1="1765.72" y1="5055.89" x2="2929.3" y2= "5055.44" />
  <line class="fil0 str0" x1="2719.15" y1="2773.51" x2="3530.5" y2= "3569.55" />
  <line class="fil0 str0" x1="5095.18" y1="1765.72" x2="5073.94" y2= "2942.54" />
  <line class="fil0 str0" x1="7386.47" y1="2819.2" x2="6537.43" y2= "3621.18" />
  <line class="fil0 str0" x1="8274.8" y1="5055.44" x2="7107.34" y2= "5055.44" />
  <line class="fil0 str0" x1="7342.39" y1="7325.94" x2="6531.04" y2= "6529.66" />
  <line class="fil0 str0" x1="4967.04" y1="8293.3" x2="5018.43" y2= "7144.34" />
  <line class="fil0 str0" x1="2675.06" y1="7280.25" x2="3498.98" y2= "6497.23" />
  <circle class="fil1 str0" cx="5023.46" cy="4173.96" r="767.95"/>
  <path class="fil1 str0" d="M4204.8 5264.67l1683.23 0c158.07,0 287.35,129.28 287.35,287.35l0 1018.3 -2257.94 0 0 -1018.3c0,-158.07 129.29,-287.35 287.35,-287.35z"/>
  <line class="fil1 str1" x1="5699.13" y1="6531.72" x2="5699.13" y2= "5809.91" />
  <line class="fil1 str1" x1="4454.92" y1="6570.33" x2="4454.92" y2= "5848.29" />
 </g>
</svg>
