<?xml version="1.0" encoding="UTF-8"?>
<!DOCTYPE svg PUBLIC "-//W3C//DTD SVG 1.1//EN" "http://www.w3.org/Graphics/SVG/1.1/DTD/svg11.dtd">
<!-- Creator: CorelDRAW 2021 (64 Bit) -->
<svg xmlns="http://www.w3.org/2000/svg" xml:space="preserve" width="63.6986mm" height="63.6356mm" version="1.1" style="shape-rendering:geometricPrecision; text-rendering:geometricPrecision; image-rendering:optimizeQuality; fill-rule:evenodd; clip-rule:evenodd"
viewBox="0 0 722.86 722.15"
 xmlns:xlink="http://www.w3.org/1999/xlink"
 xmlns:xodm="http://www.corel.com/coreldraw/odm/2003">
 <defs>
  <style type="text/css">
   <![CDATA[
    .str2 {stroke:#ADADAD;stroke-width:0.96;stroke-miterlimit:22.9256}
    .str0 {stroke:#B8B4B6;stroke-width:48.04;stroke-miterlimit:22.9256}
    .str1 {stroke:#030303;stroke-width:0.86;stroke-miterlimit:22.9256}
    .fil8 {fill:none}
    .fil4 {fill:#146A94}
    .fil1 {fill:#242021}
    .fil2 {fill:#4F4D4E}
    .fil10 {fill:#653B25}
    .fil11 {fill:#A19E9E}
    .fil12 {fill:#DEDADA}
    .fil5 {fill:#E8472E}
    .fil6 {fill:#E98C56}
    .fil7 {fill:#EFC19A}
    .fil3 {fill:#F2AE75}
    .fil9 {fill:#F59E6E}
    .fil0 {fill:white}
   ]]>
  </style>
 </defs>
 <g id="Camada_x0020_1">
  <metadata id="CorelCorpID_0Corel-Layer"/>
  <g id="_1896311706368">
   <path class="fil0 str0" d="M54.32 24.02l614.94 0c16.34,-0 29.58,15.12 29.58,33.76l0 606.58c0,18.64 -13.25,33.76 -29.58,33.76l-614.94 0c-16.33,-0 -29.58,-15.12 -29.58,-33.77 0,-72.87 -1.07,-587.48 -0.6,-613.9 0.26,-14.59 17.98,-26.44 30.18,-26.44z"/>
   <g>
    <path class="fil1" d="M198.49 453.8c-48.62,15.47 -52.55,38.99 -53.25,82.72l-7.03 91.99c93.11,-0.57 354.94,0.66 448.2,0.31 -1.31,-13.55 -1.53,-34.31 -4.62,-91.6 0.46,-37.78 -6.19,-64.28 -46.65,-78.82 0,0 -48.5,-17.21 -83.74,-30.07 0.15,13.28 -2.01,31.15 -1.55,33.89 0,0 -12.57,14.08 -22.23,24.51 5.06,7.96 10.19,15.84 15.17,23.85l0 0c-27.09,30.74 -55.56,61.52 -82.58,92.42 -16.73,-15.1 -69.92,-74.76 -84.62,-92.74 2.82,-4.12 13.11,-18.86 14.67,-21.93 -1.35,-1.34 -19.98,-19.91 -21.59,-23.59 -0.18,-10.7 0.18,-34.95 0.18,-34.95 -14.61,3.6 -49.37,15.69 -70.36,24.01z"/>
    <path class="fil1 str1" d="M338.69 326.38c22.48,-0.15 24.83,-0.06 46.25,0 10.65,-0.2 10.14,4.15 4.09,14.31 -9.69,18.67 -43.03,22.81 -59.12,1.47 -2.88,-3.4 -8.83,-16.1 0.3,-15.65 0.75,-0.15 8.48,-0.13 8.48,-0.13zm48.81 -6.85c-2.15,-0.16 -48.1,-0.62 -50.95,-0.37 -12.57,3.26 -20.68,5.03 -30.84,4.75 -15.01,-0.62 -23.93,-8.03 -28.24,-22.54 -0.33,-1.12 -6.85,-11.85 -3.5,-17.18 0.83,-1.31 1.44,-1.54 3.14,-0.97 10.08,7.76 30.05,5.19 41.82,2.74 15.21,-3.17 25.79,-15.44 27.32,-30.71 1.86,-17.24 3.24,-14.78 3.61,-16.23 3.62,-3.72 12.57,-3.06 16.74,0.3 0.42,1.62 1.01,-1.29 3.09,15.73 1.22,9.98 5.43,19.63 12.82,24.89 18.51,14.33 38.46,11.43 53.11,6.79 5.81,-2.89 7.17,-4.8 8.87,-6.68 0.86,-1.16 4.43,-0.39 4.5,1.05 0.05,0.95 -1.02,9.79 -5.72,21.02 -7.36,14.3 -9.21,19.42 -13.49,20.37 -17.19,2.38 -37.2,1.33 -42.3,-2.95zm11.3 -93.48c12.52,-1.14 32.92,-2.58 43.17,6.42 2.02,1.93 3.97,5.11 5.52,10.11 4.27,14.54 -1.8,29.55 -6.88,33.11 -3.7,3.57 -8.46,6.74 -14.23,7.71 -16.89,1.78 -31.04,1.8 -42.26,-9.9 -5.07,-7.78 -9.23,-13.54 -10.52,-23.14 -0.71,-5.25 -1.13,-11.26 1.91,-14.51 5.63,-6.01 14.21,-8.97 23.28,-9.79zm-85.56 55.89c-7.73,1.39 -25.99,2.07 -33.18,-3.05 -10.65,-7.57 -15.84,-19.71 -13.3,-32.67 1.29,-6.08 4.05,-14.13 10.16,-16.84 4.92,-2.08 6.65,-2.34 14.06,-3.22 15.54,-2.62 36.4,1.04 38.4,2.03 2.43,0.32 10.91,3.3 13.91,11.87 0.71,3.3 -1.02,16.05 -2.4,19.75 -1.15,2.84 -11.25,19.38 -27.66,22.12zm8.02 -111.56c10.68,5.12 9.11,7.4 22.77,10.92 2.77,0.71 13.18,5.43 15.98,6.69 3.27,1.47 9.19,1.22 12.71,1.76 4.7,0.71 8.25,2.37 12.48,2.72 4.38,0.36 9.96,0.19 14.42,0.12 10,-0.99 17.86,-2.51 24.79,-4.96 3.33,-1.53 11.11,-7.13 20.17,-8.35 5.51,1.11 11.55,13.41 12.04,20.86 1.23,5.57 1.74,12.3 -0.77,20.48 -0.72,3.96 -1.42,5.44 -5.25,6.21 -3.1,0.62 -8.56,-4.72 -14.46,-4.36 -22.76,-2.53 -44.29,-0.92 -49.3,0.17 -6.05,0.89 -12.16,5.19 -13.51,7.09 -1.58,0.9 -5.93,0.05 -6.81,-0 -4.38,-0.25 -11.87,-0.22 -16.92,-0.12 -1.92,0.29 -5.53,1.07 -6.88,0.12 -0.69,-0.18 -5.07,-3.15 -9.71,-5.04 -4.43,-1.98 -13.71,-3.63 -15.71,-3.9 -22.14,-4.19 -38.2,6.26 -50.12,5.33 -4.8,-8.16 -0.13,-33.86 4.9,-41.74 5.03,-7.89 10.81,-14.15 19.7,-17.8 5.3,-2.13 12.45,-2.99 16.87,-1.94 2.95,0.63 10.79,4.51 12.61,5.76zm-25.12 -80.92c-29.46,18.59 -46.09,44.76 -49.2,86.87 -0.92,12.48 -1.04,43.14 0.14,54.95 1.48,14.83 8.87,45.26 13.01,59.7 8,27.21 6.92,100.86 99.16,115.21 74.99,-18.58 76.38,-32.93 97.42,-114.51 0.8,-11.42 -1.11,-4.26 6.1,-14.72 2.36,-3.43 2.35,-4.05 3.97,-8.34 2.53,-6.68 1.96,-10.22 3.12,-16.01 0.86,-4.27 1.52,-3.93 2.5,-5.03 0.43,-7.14 1.18,-14.48 1.33,-22.24 0.32,-16.43 -0.68,-44.07 -7.6,-58.66 -2.45,-2.26 -2.14,-6.27 -1.24,-9.39 2.99,-10.4 6.21,-16.35 7.48,-29.57 1.66,-17.29 -4.83,-18.84 -9.59,-16.99 -2.87,0.36 -3.59,3.22 -5.14,5.89 -4.64,2.49 -9.95,0.72 -15.67,-3.69 -12.03,-7.42 -25.3,-16.62 -35.61,-26.06 -4.21,-3.37 -14.15,-9.26 -20.62,-11.74 -7.26,-3.59 -22.72,-6.61 -34.11,-6.48 -32.77,0.38 -49.53,16.36 -55.44,20.8z"/>
    <path class="fil2" d="M451.45 428.11c-12.33,-4.89 -25.35,-9.82 -36.8,-15.38 -3.67,-1.64 -9.42,-5.14 -9.42,-5.14 -0.22,1.13 -0.99,5.03 -0.99,5.03 0.74,0.74 11.72,8.19 16.11,11.4 0,0 -30.47,81.52 -45.66,121.87l-7 25.56c-2.91,7.78 -4.85,19.48 -7.81,26.47 -6.85,-21.19 -12.39,-39.72 -16.14,-53.46 -14.03,-36.86 -27.27,-74.06 -42.25,-120.81 3.59,-1.96 14.74,-9.75 14.74,-9.75 0.17,-1.86 0.38,-4.51 0.37,-6.16 -22.34,12.18 -43.21,19.95 -48.69,22.49 1,10.99 0.72,23.44 0.77,34.52 2.94,5.15 18.02,19.87 21.59,23.59 0.03,0.07 -11.99,17.96 -14.67,21.93 5.97,7.53 65.18,75.37 84.62,92.74 27.18,-31.09 54.9,-61.77 82.58,-92.42l-0.08 -0.13c-0.83,-1.33 -11.96,-18.79 -15.09,-23.72 4.95,-4.95 22.23,-24.51 22.23,-24.51 0.85,-5.56 0.05,-28.52 1.61,-34.1z"/>
    <path class="fil3" d="M267.23 195.41c-3.78,14.37 -3.4,18.35 -1.88,26.95 0.43,3.53 -0.18,4.63 5.4,4.11 4.99,-0.46 13.64,-2.79 19.46,-4.28 7.1,-1.72 19.24,-3.95 35,0.73 4.24,1.38 8.47,2.76 12.7,4.14 2.73,2.72 5.33,3.92 7.41,4.2 2.07,0.29 3.62,-0.33 4.22,-1.22 5.26,-0.06 11.93,0.11 16.95,0.11 3.37,3.07 7.89,-0.55 9.71,-2.17 5.51,-4.86 18.88,-6.45 37.19,-6.44 6.66,0 14.18,0.5 20.38,1.1 10.58,1.03 11.99,5.1 16.86,4.58 10.83,-1.16 7.15,-21.69 7.15,-22.54 -0.05,-0.99 -1.37,-20.67 -13.06,-25.93 -3.93,-1.77 -17.52,6.77 -20.48,8.44 -2.04,1.15 -10.19,2.38 -18.6,3.31 -8.41,0.93 -15.47,1.92 -20.23,1.54 -4.76,-0.38 -10.06,-2.67 -12.67,-2.71 -8.74,-1.18 -13.13,-1.51 -16.49,-3.49 -7.26,-3.71 -14.85,-5.79 -17.56,-6.64 -9.79,-4.92 -19.23,-10.44 -24.53,-13.15 -4.05,-1.85 -7.87,-3.04 -13.04,-2.16 -15.29,1.3 -29.13,13.82 -33.89,31.52z"/>
    <path class="fil4" d="M343.74 544.45c4.21,16.63 13.4,45.73 16.14,53.46 5.57,-16.84 10.1,-34.86 14.81,-52.03 -2.27,-17.23 -3.97,-42.02 -5.4,-59.38 0.73,-1.16 8.26,-17.75 9.04,-19.29 -5.28,-4.63 -12.41,-9.44 -18.37,-14.57 -5.15,5.1 -12.54,9.78 -18.16,15.65 -0.57,1.2 8.73,18.12 8.73,18.12 0.01,7.06 -2.07,16.54 -2.72,23.85 -1.66,15.38 -3.98,32.66 -4.07,34.19z"/>
    <path class="fil3" d="M316.02 390.3c-0.04,2.75 0.47,16.25 0.6,18.3 -0.01,2.65 -0.27,4.9 -0.39,5.3 6.85,5.92 40.88,37.69 43.74,38.75l44.21 -39.73c1.22,-5.78 3.23,-24.55 3.05,-24.46 -15.43,7.44 -29.33,13.08 -44.49,13.21 -12.87,0.11 -34.32,-2.12 -46.72,-11.37z"/>
    <path class="fil3" d="M284.77 316.05c0.74,0.69 9.9,9.01 20.01,8.2 1.11,0.12 13.33,0.39 18.24,-1.52 4.65,-0.56 13.84,-3.39 21.03,-3.23 4.89,0.1 39.09,0.42 42.48,0.49 0.33,0.01 0.63,-0.03 0.88,0.06 0.53,0.19 2.31,1.99 10.1,3.26 9.3,1.52 21.98,1.1 27.34,0.43 3.65,-0.45 7.67,0.21 10.68,-5.74 1.37,-1.87 13.23,-23.16 13.86,-36.21 0.15,-3.07 -3.18,-4.83 -5.53,-1.79 -1.64,2.13 -7.46,7.31 -19.39,9 -14.55,2.06 -33.6,-3.16 -42.7,-10.17 -10.69,-8.23 -11.92,-27.28 -12.72,-31.93 -0.31,-2.27 -0.74,-6.61 -1.55,-7.24 -1.2,-3 -5.39,-3.6 -9.44,-3.72 -4.12,-0.12 -7.65,1.29 -9.26,3.73 -0.69,0.93 -1.73,5.45 -1.9,7.22 -1.66,9 -0.26,18.17 -12.91,31.22 -6.93,5.09 -16.42,8.11 -25.63,9.11 -10.76,1.17 -19.29,0.57 -25.56,-1.43 -1.61,-0.72 -3.36,-1.35 -5.49,-3 -2,-0.79 -2.78,-0.13 -3.65,0.96 -4.92,6.15 9.16,31.06 11.09,32.28z"/>
    <path class="fil5" d="M325.1 333.69c0.19,1.31 3.53,9.14 11.55,15.28 15.53,12.9 37.48,10.94 48.89,-2.03 3.61,-3.78 4.54,-6.16 6.69,-12.32l-0.13 0.31c-8.97,12.6 -27.57,15.75 -31.07,15.99 -7.81,0.54 -24.38,-1.95 -33.11,-14.5l-2.82 -2.74z"/>
    <path class="fil2" d="M330.2 326.14l-0.7 2.81c19.05,0.09 41.59,-0.61 60.63,-0.18l1.39 -2.76c-11.13,-0.84 -49.93,-1.21 -61.32,0.13z"/>
    <path class="fil3" d="M350.91 242.51l0.21 0.67c-0.2,2.96 0.01,5.15 0.01,8.14 0,0.94 -0.11,3 0.07,3.86 1.04,4.87 0.01,1.25 1.61,3.18 4.08,-5.68 -1.36,-5.23 4.56,-10.86l0.64 -5.23c-2.61,-1.11 -2.84,-0.08 -7.11,0.25z"/>
    <path class="fil6" d="M453.41 297.5c0.62,1.9 2.48,3.15 4.25,3.24 1.67,0.15 3.1,0.06 5.13,-1.53 0.42,-3 1.8,-6.31 1.8,-6.31 1.19,-4.72 -0.88,-10.15 2.15,-14.61 2.67,-3.93 3.15,-7.16 3.98,-10.61 0.62,-2.58 3.52,-6.56 3.58,-6.7 -0.27,-4.04 1.14,-9.06 0.87,-13.1 -0.15,-0.73 -2.48,-7.13 -7.22,1.55 -1.02,1.73 -5.24,20.1 -6.26,21.83 -1.32,1.68 -2.75,3.41 -3.94,4.61 -1.1,1.11 -1.12,2.1 -0.74,6.93 0.04,0.47 -1.08,3.55 -1.24,5.23 -0.06,0.59 -1.28,3.31 -2.35,9.47z"/>
    <path class="fil7" d="M329.5 328.95c0.23,-0.94 0.47,-1.87 0.7,-2.81 -7.31,-1.03 -6.24,6.75 -3.93,9.31 1.11,1.23 5.31,6.6 11.75,10.25 12.02,6.82 31.34,7.9 45.37,-2.16 4.75,-3.41 8.35,-6.72 8.97,-9.23 2.25,-3.3 2.43,-5.96 1.06,-6.77 -1.77,-1.04 -2.06,-1.22 -2.46,-1.57l-1.01 2.37c-1.76,3.08 -3.02,10.16 -6.51,11.14 -4.68,1.33 -18.15,1.2 -26.49,1.15 -10.44,-0.06 -22.67,0.33 -24.26,-1.06 -1.18,-1.03 -2.69,-6.02 -3.2,-10.62z"/>
    <path class="fil8 str2" d="M360.84 283.22c16.98,-1.19 19.46,3.59 18.87,10.25 -0.63,6.13 -4.51,7.15 -11.11,7.14l-27.78 0.79c-5.21,-0.37 -8.19,-4.49 -7.94,-10.32 1.73,-5.38 6.18,-8.88 17.46,-7.94l2.93 -17.96"/>
    <path class="fil3" d="M283.71 226.73c-3.68,0.62 -7.82,2.54 -8.99,3.35 -5.48,3.7 -10.49,15.91 -8.85,26.19 -0.67,7.31 6.93,18.36 13.35,22.84 6.65,3.82 11.84,3.9 17.03,4.15 18.66,1.27 25.87,-3.72 29.41,-5.86 7.29,-4.75 12.7,-12.41 13.74,-14.08 2.94,-4 3.64,-10.52 3.94,-12.51 1.91,-8.05 0.76,-15.03 -7.15,-20.17 -3.71,-2.52 -7.72,-3.48 -13.15,-4.25 -9.48,-1.51 -27.1,-3.45 -39.34,0.35z"/>
    <path class="fil7" d="M465.97 291.17c0.31,1.69 -2.35,8.73 -3.18,8.04 0.47,-2.31 0.56,-6.15 0.86,-7.31 0.15,-2.77 0.83,-6.67 1.47,-9.09 -0.43,-2.86 1.08,-3.63 2.23,-5.48 0.39,-0.62 1.57,-3.5 1.97,-4.22 0.97,-3.03 0.68,-7.96 4.98,-12.14 0.71,0.45 1.67,4.1 0.66,5.65l-0.72 5.38c-0.16,0.33 -1.26,5.06 -1.26,5.07 -0.03,0.07 -1.81,3.97 -3.08,5.11 -1.33,0.72 -2.41,3.77 -3.05,4.7 -0.85,1.24 -0.57,2.81 -0.87,4.28z"/>
    <path class="fil6" d="M265.79 295.88c-0.62,1.9 -2.48,3.15 -4.25,3.24 -1.67,0.15 -3.1,0.06 -5.13,-1.53 -0.42,-3 -1.8,-6.31 -1.8,-6.31 -1.19,-4.72 0.88,-10.15 -2.15,-14.61 -2.67,-3.93 -3.15,-7.16 -3.98,-10.61 -0.62,-2.58 -3.52,-6.56 -3.58,-6.7 0.27,-4.04 -1.14,-9.06 -0.87,-13.1 0.15,-0.73 2.48,-7.13 7.22,1.55 1.02,1.73 5.24,20.1 6.26,21.83 1.32,1.68 2.75,3.41 3.94,4.61 1.1,1.11 1.12,2.1 0.74,6.93 -0.04,0.47 1.08,3.55 1.24,5.23 0.06,0.59 1.28,3.31 2.35,9.47z"/>
    <g>
     <ellipse class="fil9" cx="305.14" cy="253.89" rx="29.11" ry="13.05"/>
     <circle class="fil10" cx="312.06" cy="254" r="12.01"/>
     <circle class="fil11" cx="312.06" cy="254" r="7.21"/>
     <circle class="fil12" cx="313.55" cy="252.43" r="3.6"/>
    </g>
    <path class="fil3" d="M431.1 226.52c3.68,0.62 8.1,3.3 9.27,4.12 5.84,3.55 10.01,15.62 8.74,26.62 -1.11,6.93 -2.82,16.49 -13.5,22.96 -6.51,4.11 -11.93,4.05 -17.12,4.3 -18.66,1.27 -24.62,-2.91 -29.44,-6.15 -7.01,-4.75 -9.89,-11.75 -10.93,-13.42 -2.03,-2.27 -4.86,-11.52 -5,-14.68 -1.41,-8.11 -1.49,-13.87 6.85,-18.89 3.71,-2.52 6.59,-3.67 11.97,-4.92 9.48,-1.51 26.48,-3.37 39.16,0.06z"/>
    <g>
     <ellipse class="fil9" cx="410.88" cy="254.66" rx="29.11" ry="13.05"/>
     <circle class="fil10" cx="403.95" cy="254.77" r="12.01"/>
     <circle class="fil11" cx="403.95" cy="254.77" r="7.21"/>
     <circle class="fil12" cx="402.47" cy="253.2" r="3.6"/>
    </g>
   </g>
  </g>
 </g>
</svg>
