<?xml version="1.0" encoding="UTF-8"?>
<!DOCTYPE svg PUBLIC "-//W3C//DTD SVG 1.1//EN" "http://www.w3.org/Graphics/SVG/1.1/DTD/svg11.dtd">
<!-- Creator: CorelDRAW 2021 (64 Bit) -->
<svg xmlns="http://www.w3.org/2000/svg" xml:space="preserve" width="8.4667mm" height="8.4667mm" version="1.1" style="shape-rendering:geometricPrecision; text-rendering:geometricPrecision; image-rendering:optimizeQuality; fill-rule:evenodd; clip-rule:evenodd"
viewBox="0 0 89.12 89.12"
 xmlns:xlink="http://www.w3.org/1999/xlink"
 xmlns:xodm="http://www.corel.com/coreldraw/odm/2003">
 <defs>
  <style type="text/css">
   <![CDATA[
    .fil1 {fill:black}
    .fil2 {fill:green}
    .fil3 {fill:lime}
    .fil0 {fill:#7F7F7F}
    .fil6 {fill:maroon}
    .fil4 {fill:#BFBFBF}
    .fil5 {fill:white}
   ]]>
  </style>
 </defs>
 <g id="Camada_x0020_1">
  <metadata id="CorelCorpID_0Corel-Layer"/>
  <g id="_2474586556944">
   <path class="fil0" d="M61.14 70.21c1.13,-4.77 -2.21,-2.59 3.61,-2.98l-3.61 2.98zm-35.51 -2.35c-1.77,-3.16 1.4,0.47 1.43,0.51 2.16,2.98 -1.01,0.23 -1.43,-0.51zm-4.57 0.1c2.85,3.07 2.64,5.55 8.57,5.55l-9.88 1.41c-1.5,-6.45 -0.29,-5.07 -5.64,-5.66l1.41 -9.9c0,5.13 -0.46,2.63 1.73,5.33 0.52,0.65 1.95,1.48 2.37,1.87l1.44 1.38zm35.37 4.14c-3.68,-2.56 -2.81,-0.08 -2.82,-5.65 1.45,-0.59 1.79,-0.04 4.23,-1.41 -0.12,5.55 0.39,3.32 -1.41,7.07zm10.34 -10.38l3.77 -0.93c-1.32,2.26 -1.11,1.76 -1.89,3.32l-1.88 -2.39zm-3.29 -2.35l0 4.24 -2.82 0c0.11,-3.94 0.49,-2.62 2.82,-4.24zm-43.5 2.83c-1.12,-1.49 1.35,0.6 1.42,0.67 2.5,2.75 -0.87,0.07 -1.42,-0.67zm57.61 -31.1c4.33,3.18 2.28,-0.91 2.82,5.66 -4.36,-3.04 -2.3,0.66 -2.82,-5.66zm-64.66 7.31c-0.8,0.79 -2.22,-1.76 -1.84,5.35 0.35,6.76 -0.16,2.87 1.84,4.31l0 -9.66 1.41 -2.49 0.82 1.55 3.18 -0.71c-0.78,-3.7 -1.54,-2.6 -0.49,-4.91 1.91,-4.2 -0.53,-0.76 3.32,-2.16 3.15,6.93 1.25,1.62 -1.41,7.07l1.41 0.12 2.11 0 2.12 -2.94c1.39,-2.91 5.56,-7.09 8.47,-8.48l2.82 -2.83 0 -1.41c-4.54,-2.34 1.81,2.4 -8.47,0l-1.41 1.41 -1.41 -2.83 2.82 0c3.35,-1.25 1.85,0.85 2.88,-3l5.59 1.59 0 -1.41 0 -1.41 0 -1.41c2.7,-0.9 6.01,-1.48 9.93,-1.18 3.6,0.27 6.36,0.31 5.59,2.59l0 2.83c2.98,-1.43 1.27,-1.04 5.64,-1.41l0 5.66 -4.23 0 0.01 -2.83c-0.02,3.48 0.48,-0.17 -1.42,1.41l0 1.41 1.41 0 1.41 2.83c2.18,1.08 2.79,1.55 4.23,2.83l0.37 -1.22c0.05,-0.1 0.14,-0.53 0.21,-0.64 1.52,-2.55 0.73,-1.6 3.65,-2.39 -1.49,3.61 0.17,2.82 -2.82,5.66 1.28,1.45 1.74,2.06 2.82,4.24l1.41 0 7.05 -2.83c-1.22,3.25 -3.66,4.62 -4.23,5.66 3.45,-0.08 5.76,-1.08 6.82,-1.41 1.35,4.47 1.77,9.4 0.79,16.04l-1.97 0.91 -5.64 0c1.79,3.31 0.75,-0.78 4.23,4.24 -2.98,1.43 -1.27,1.04 -5.64,1.41l0 -5.66 -2.71 0.94c-1.4,3.31 -0.45,1.2 -2.55,3.66l-7.91 6.83 -0.94 4.13 0 5.65 -0.71 2.12c-4.23,0.51 -10.2,0.91 -13.91,-0.45 -2.04,-0.75 -1.28,-0.9 -2.32,-1.67l0 -1.41 1.41 -1.41 0 -1.41 0 -1.41 -2.12 1.41c0.48,1.42 -0.57,1.29 0.71,2.83l-4.23 0 0.07 -5.44 2.75 -1.63 0 -1.41c-4.63,-2.26 -0.33,0.32 -5.06,-4.69l-3.4 -3.79 -1.41 0c-0.23,0.24 -0.48,0.65 -0.64,0.77l-1.54 1.28c-0.26,0.13 -0.71,0.33 -0.98,0.43 -1.49,0.58 -2.34,0.3 -3.89,0.34 0.33,-3.89 0.13,-3.07 1.41,-5.66l-2.82 0c-2.59,0.79 -1.12,-0.79 -2.82,-2.83l-2.82 -1.41c0.19,8.69 3.69,6.15 -1.41,9.9 0,-10.54 -1.89,-9.88 -1.94,-16.27 -0.04,-4.94 -1.02,-8.8 3.35,-12.01 6.57,4.82 0.09,2.4 3.06,8.72zm53.38 -12.25c-0.62,-1.37 1,-0.85 2.31,0.74l-2.31 -0.74zm-45.15 2.12l-1.41 -2.83 2.82 0c4.3,-1.01 3.41,-1.69 7.05,0 -3.36,4.59 -0.62,2.92 -7.05,1.41l-1.41 1.41zm-9.88 -1.41c-1.88,1.07 -1.51,0.91 -4.23,1.41 -0.03,0.03 -2.79,2.79 -2.82,2.83 -0.41,10.01 0.61,16.32 1.17,24.74l0.24 4.95c6.71,1.44 6.49,4.3 4.23,9.9l-1.41 -0.35c1.1,2.26 0.14,2.44 1.41,0.35l2.82 1.41c3.93,2.24 2.96,1.52 4.23,4.24l1.41 1.41 7.1 0.32 2.43 3.2 0.35 0.72 2.82 1.77 26.81 -0.35c0,-2.03 -0.45,-1.41 1.76,-1.41 1.28,-6.11 1.42,-3.97 6.72,-5.49 0.38,-0.11 0.79,-0.14 1.16,-0.26 0.36,-0.11 0.76,-0.2 1.1,-0.33 0.33,-0.13 0.7,-0.27 1.01,-0.42 3.52,-1.72 5.42,-4.52 6.51,-7.86 1.28,-3.93 -0.85,-1.22 1.6,-5.36 4.92,-8.29 6.1,7.67 5.53,-31.18l-1.41 -2.83 -0.71 -0.35c-2.31,-1.46 -2.25,-1.06 -3.45,-1.77l0.16 -7.07 -1.65 -2.12c-3.16,-0.84 -3.01,0.63 -4.23,-4.24l-2.82 -1.41 -6.35 0c-0.51,-0.91 -1.19,-2.4 -1.56,-3.34 -3.17,-8.02 1.39,6.8 -0.55,-2.31 -5.94,0 -2.29,0.53 -3.54,-2.12l-26.09 0.47c-0.24,0.26 -0.55,0.65 -0.7,0.81 -0.15,0.16 -0.56,0.63 -0.71,0.79 -0.2,0.21 -1.07,1.14 -1.41,1.46l-1.37 4.07 -7.1 -1.24 -4.23 2.47c0,5.27 0.4,2.08 -1.41,3.18l-4.23 4.24 1.17 5.66c0.22,-0.29 0.46,-0.72 0.57,-0.93 5.17,-10.29 0.27,-1.31 8.13,-10.38 2.44,-1.85 -3.44,-1.38 3.9,-1.21 0.73,0.02 2.35,0.67 4.56,1.21 -8.9,7.75 -5.01,3.39 -10.93,11.67 -0.93,1.31 -1.77,-3.33 -1.77,3.88l-4.23 -2.83zm49.39 -6.37c-0.48,-0.28 -0.65,-0.06 1.63,-0.04 3,0.02 0.65,1.36 -1.63,0.04zm-1.42 -6.36c10.27,0.4 6.48,-1.2 15.52,7.07l-1.41 8.48c0,-5.94 -2.48,-5.73 -5.54,-8.59 -0.21,-0.2 -0.51,-0.49 -0.71,-0.7l-1.28 -1.55c-3.52,-3.84 -1.65,-3.31 -6.58,-3.31l0 -1.41zm-28.22 -7.07l26.81 1.41c-3.71,5.07 -2.25,0.63 -11.82,2.22 -4.61,0.77 -11.36,1.72 -14.99,2.02l0 -5.66z"/>
   <path class="fil1" d="M27.86 41.7l-0.35 -5.66c4.26,-1.66 0.23,0.41 2.88,-1.35 3.73,-2.48 1.31,-2.82 6.29,-5.01l1.41 -1.41 4.23 0 1.41 0 1.41 0 1.41 0c3.88,0.09 2.93,-0.53 6.01,0.91 2.67,1.25 3.83,3.74 5.58,5.89 2.75,3.38 3.57,2.25 0.99,12.85 -0.67,2.75 -1.49,5 -3.9,7.42 -4.14,4.15 -8.45,3.74 -14.58,5.35l-2.57 0.79c-9.13,-6.09 -10.35,-11.31 -10.23,-19.78zm-2.47 -7.77l0 8.48 0 2.83 0 9.9 3.4 3.79c4.74,5.01 0.43,2.43 5.06,4.69l7.05 0 1.41 -0.24 4.7 0.59 6.12 -0.23 7.91 -6.83c2.1,-2.45 1.14,-0.35 2.55,-3.66l0.23 -6.13 -0.58 -4.71 0.24 -1.41 0 -7.07c-1.08,-2.18 -1.55,-2.79 -2.82,-4.24l-1.41 -1.41c-1.45,-1.28 -2.06,-1.75 -4.23,-2.83l-7.05 0 -2.35 -0.35 -1.88 0.35 -9.87 0c-2.91,1.4 -7.07,5.57 -8.47,8.48z"/>
   <path class="fil1" d="M83.24 31.1c0.57,38.86 -0.6,22.89 -5.53,31.18 -2.45,4.14 -0.32,1.43 -1.6,5.36 -1.09,3.34 -2.99,6.14 -6.51,7.86 -0.31,0.15 -0.68,0.29 -1.01,0.42 -0.34,0.13 -0.74,0.22 -1.1,0.33 -0.37,0.12 -0.78,0.15 -1.16,0.26 -5.31,1.52 -5.44,-0.62 -6.72,5.49l-1.76 1.41 -26.81 0.35c-3.74,7.89 16.91,4.48 25.41,5.3 5.27,-7.85 5.44,-4.24 11.29,-7.06 4,-1.86 0.36,-0.24 3.44,-3.6l4.87 -5.06c0.21,-0.21 0.47,-0.53 0.68,-0.73 0.21,-0.21 0.5,-0.51 0.72,-0.71 8.3,-7.57 4.44,-2.33 5.38,-8.64 1.33,-8.91 -0.52,0.57 4.7,-6.5 0.3,-0.41 5.37,-29.74 -4.29,-25.66z"/>
   <path class="fil2" d="M36.68 57.96c0.17,-6.26 4.82,-3.58 2.89,-1.14 -2.32,2.95 -0.07,0.38 -2.89,1.14zm18.01 -18.04c-2.33,-2.34 0.76,-2.52 3.16,-3.16 -0.64,2.4 -0.82,5.5 -3.16,3.16zm-22.24 2.49c-4.95,0.26 -1.8,0.81 -4.59,-0.71 -0.12,8.47 1.11,13.7 10.23,19.78l2.57 -0.79c6.12,-1.61 10.43,-1.2 14.58,-5.35 2.41,-2.42 3.23,-4.67 3.9,-7.42 2.57,-10.61 1.75,-9.47 -0.99,-12.85 -1.75,-2.15 -2.9,-4.64 -5.58,-5.89 -3.08,-1.44 -2.13,-0.82 -6.01,-0.91l0 1.41 1.41 2.83c3.07,-1.53 0.5,-0.42 4.23,-1.41 -1.11,4.18 -0.57,2.29 -2.82,5.66 -0.11,-0.19 -0.15,-0.57 -0.19,-0.63l-1.2 -1.2c-2.86,0.36 -3.82,1.53 -1.43,3.24 3.2,-1.14 -2.26,-1.27 1.94,0.92 4.47,2.33 -2.9,1.24 5.11,1.91 -0.47,5.59 -0.95,4.69 -4.48,8.23 -3.53,3.54 -2.64,4.02 -8.22,4.49 -0.32,-3.89 -0.14,-3.08 -1.41,-5.66 -1.27,0.27 -3.73,0.59 -3.73,0.59 -0.1,0.03 -0.43,0.16 -0.51,0.2l-0.58 0.62c-0.08,0.08 1.72,1.39 -3.65,2.82 0,-5.95 -0.59,-5.71 1.41,-9.9z"/>
   <path class="fil3" d="M47.97 32.52c-2.07,2.62 -1.26,1.54 -2.83,4.13l-7.05 0.35 -1.34 0.24c-1.38,3.26 -1.77,3.05 -4.31,5.18 -2,4.19 -1.41,3.95 -1.41,9.9 5.37,-1.44 3.57,-2.74 3.65,-2.82l0.58 -0.62c0.08,-0.04 0.41,-0.17 0.51,-0.2 0,0 2.46,-0.32 3.73,-0.59 1.28,2.58 1.09,1.77 1.41,5.66 5.58,-0.47 4.68,-0.95 8.22,-4.49 3.53,-3.54 4.02,-2.64 4.48,-8.23 -8.01,-0.67 -0.64,0.42 -5.11,-1.91 -4.21,-2.19 1.26,-2.06 -1.94,-0.92 -2.39,-1.71 -1.43,-2.89 1.43,-3.24l1.2 1.2c0.03,0.06 0.08,0.44 0.19,0.63 2.25,-3.36 1.71,-1.47 2.82,-5.66 -3.73,0.99 -1.16,-0.11 -4.23,1.41z"/>
   <path class="fil1" d="M-0 59.39c2.25,-0.41 1.81,-0.26 3.22,-1.1 0.55,-0.32 1.24,-0.38 1.55,-1.5 0.14,-0.49 0.41,-0.64 0.63,-0.95 -0.56,-8.42 -1.59,-14.74 -1.17,-24.74 -1.59,-1.48 2.53,-1.42 -4.23,-1.43l0 29.71z"/>
   <path class="fil1" d="M31.04 4l26.09 -0.47 2.13 0.73 0.01 -4.27 -29.65 0c0.01,7.23 -0.23,2.5 1.42,4z"/>
   <path class="fil4" d="M12.7 49.48l0.23 -1.41c-2,-1.43 -1.49,2.45 -1.84,-4.31 -0.37,-7.12 1.04,-4.56 1.84,-5.35 -2.96,-6.31 3.51,-3.9 -3.06,-8.72 -4.37,3.21 -3.39,7.07 -3.35,12.01 0.05,6.39 1.94,5.73 1.94,16.27 5.1,-3.75 1.6,-1.21 1.41,-9.9l2.82 1.41z"/>
   <path class="fil4" d="M15.42 20.92c0.43,2.18 -1.32,2.66 -1.31,0.29 0,-2.57 0.96,-2.1 1.31,-0.29zm4.33 -6.78l2.82 1.41c-4.67,0.01 -1.92,0.44 -2.82,-1.41zm-8.7 11.31l0.23 1.41 4.23 2.83c0,-7.21 0.83,-2.57 1.77,-3.88 5.92,-8.28 2.03,-3.92 10.93,-11.67 -2.21,-0.53 -3.83,-1.19 -4.56,-1.21 -7.34,-0.18 -1.46,-0.64 -3.9,1.21 -7.86,9.07 -2.96,0.09 -8.13,10.38 -0.11,0.22 -0.35,0.64 -0.57,0.93z"/>
   <path class="fil4" d="M31.04 12.72c3.62,-0.3 10.37,-1.26 14.99,-2.02 9.57,-1.59 8.11,2.85 11.82,-2.22l-26.81 -1.41 0 5.66z"/>
   <path class="fil0" d="M36.68 29.69c-4.98,2.19 -2.57,2.54 -6.29,5.01 -2.64,1.75 1.39,-0.31 -2.88,1.35l0.35 5.66c2.78,1.52 -0.36,0.97 4.59,0.71l-1.58 -5.6c5.56,1.09 1.09,0.25 3.91,0.18 3.22,-0.07 -1.59,-2.22 1.98,0.24l1.34 -0.24 -1.41 -5.89c0.45,-0.22 2.91,-1.21 2.99,-1.25 3.26,-1.57 1.17,-0.54 2.66,-1.58l-4.23 0 -1.41 1.41z"/>
   <path class="fil4" d="M59.26 15.55c4.92,0 3.06,-0.54 6.58,3.31l1.28 1.55c0.2,0.21 0.5,0.5 0.71,0.7 3.06,2.86 5.54,2.65 5.54,8.59l1.41 -8.48c-9.04,-8.27 -5.25,-6.66 -15.52,-7.07l0 1.41z"/>
   <path class="fil4" d="M38.09 32.52c3.07,-1.69 4.67,-1.11 7.05,0 -2.99,1.11 3.48,0.92 -4.08,0.83 -2.67,-0.03 -2.11,-0.5 -2.98,-0.83zm0 -4.24l-1.41 1.41 1.41 -1.41zm0 8.72l7.05 -0.35c1.56,-2.59 0.76,-1.51 2.83,-4.13l-3.03 -0.07 1.62 -2.76 0 -1.41 -1.41 0 -1.41 0 -1.41 0c-1.49,1.04 0.6,0.01 -2.66,1.58 -0.08,0.04 -2.54,1.03 -2.99,1.25l1.41 5.89z"/>
   <path class="fil4" d="M14.11 69.27c5.35,0.59 4.14,-0.8 5.64,5.66l9.88 -1.41c-5.92,0 -5.72,-2.48 -8.57,-5.55l-1.44 -1.38c-0.42,-0.39 -1.85,-1.22 -2.37,-1.87 -2.19,-2.7 -1.73,-0.21 -1.73,-5.33l-1.41 9.9z"/>
   <path class="fil1" d="M12.93 38.41l0 9.66 -0.23 1.41c1.7,2.04 0.24,3.62 2.82,2.83 0.91,-2.57 0.66,-1.79 1.41,-5.65l-0.24 -2.83 0.24 -1.41 0 -1.41c-0.82,-4.45 1.03,-1.24 -1.77,-3.53l-0.82 -1.55 -1.41 2.49z"/>
   <path class="fil1" d="M35.27 73.51c1.04,0.77 0.28,0.92 2.32,1.67 3.71,1.36 9.67,0.96 13.91,0.45l0.71 -2.12c-2.58,-1.28 -1.77,-1.08 -5.64,-1.41l-1.41 0.24 -1.41 0 -1.41 -0.24c-3.77,0.72 -3.69,0.78 -7.06,1.41z"/>
   <path class="fil1" d="M71.95 42.41l0.24 2.83 -0.24 1.41c0.33,3.88 0.13,3.07 1.41,5.65l1.97 -0.91c0.97,-6.64 0.56,-11.57 -0.79,-16.04 -2.85,4.49 -1.53,1.38 -2.58,7.06z"/>
   <path class="fil0" d="M40.91 21.21l0 1.41 2.82 2.83 1.88 -0.35 2.35 -1.06 0 -2.83 0 -1.41c-0.92,-2.88 -0.77,-2.43 -2.12,-4.59l-2.82 0c-1.35,2.16 -1.2,1.72 -2.12,4.59 5.48,2.83 -1.74,-0.99 3.26,-0.23 1.07,0.16 0.79,-3.69 2.39,3.06 -3.88,-0.33 -3.07,-0.14 -5.64,-1.41z"/>
   <path class="fil1" d="M69.13 11.31c1.17,-2.07 0.68,-1.48 1.41,-4.24 -5.13,-1.91 -5.39,-0.52 -9.88,-1.41 1.95,9.11 -2.62,-5.7 0.55,2.31 0.37,0.95 1.05,2.43 1.56,3.34l6.35 0z"/>
   <path class="fil1" d="M81.11 27.92l0.71 0.35c1.27,-4.62 1.71,-5.28 0,-9.9l-4 0.7 -0.16 7.07c1.2,0.7 1.13,0.3 3.45,1.77z"/>
   <path class="fil1" d="M8.47 70.33l1.41 0.35c2.26,-5.59 2.48,-8.45 -4.23,-9.9l0.38 7.03 2.44 2.51z"/>
   <path class="fil1" d="M7.05 28.27c2.73,-0.5 2.35,-0.34 4.23,-1.41l-0.23 -1.41 -1.17 -5.66 -2.75 -1.63c-1.78,4.83 -1.34,5.49 -0.07,10.11z"/>
   <path class="fil1" d="M28.22 82l-0.35 -0.72 -2.43 -3.2 -7.1 -0.32c0.7,2.87 0.9,3.22 2.16,5.36l7.72 -1.12z"/>
   <path class="fil1" d="M19.75 9.9l7.1 1.24 1.37 -4.07c-4.61,-1.71 -5.26,-1.27 -9.88,0l1.41 2.83z"/>
   <path class="fil0" d="M19.75 41l-2.82 0 0 1.41 2.75 1.53 0.07 -2.95zm-2.82 5.66l2.82 1.41c1.58,-1.9 -2.06,-1.4 1.41,-1.42 -1.96,-1.5 -3.04,-1.91 -4.47,-2.82l0.24 2.83zm7.05 1.41l1.41 -2.83 0 -2.83 -2.82 -1.41 -1.41 0c1.15,2.05 0.68,1.5 1.41,4.24l-1.41 2.83 2.82 0z"/>
   <path class="fil0" d="M72.19 45.24l-0.24 -2.83 -2.82 -1.41c-1.21,2.35 -0.31,0.8 -0.23,1.81 0.2,2.55 0.73,0.58 0.23,2.43l1.18 1.65 1.88 -1.65zm-8.94 -2.83l0.58 4.71 3.88 0.94 1.41 0 -2.75 -1.63c0.3,-4.17 -0.09,-2.46 1.34,-5.44 -2.79,0.52 -2.39,0.36 -4.47,1.41z"/>
   <path class="fil1" d="M36.68 15.55l6.35 -0.35 2.82 0 6.35 0.35c0.77,-2.28 -1.99,-2.32 -5.59,-2.59 -3.93,-0.3 -7.23,0.28 -9.93,1.18l0 1.41z"/>
   <path class="fil4" d="M23.98 55.14l-1.41 -2.38 -1.41 0 -2.82 -0.45c-1.28,2.58 -1.08,1.77 -1.41,5.66 1.56,-0.03 2.41,0.24 3.89,-0.34 0.27,-0.11 0.72,-0.3 0.98,-0.43l1.54 -1.28c0.16,-0.13 0.41,-0.53 0.64,-0.77z"/>
   <polygon class="fil4" points="40.91,67.86 40.91,69.27 43.97,69.51 42.33,70.69 42.33,72.1 43.74,72.34 45.15,72.34 46.56,72.1 46.56,70.69 46.51,69.27 46.79,64.8 "/>
   <path class="fil4" d="M28.22 19.79l0 1.41 -1.41 1.41 1.41 -1.41c10.28,2.4 3.93,-2.34 8.47,0l0 -1.41 0 -1.41 -5.59 -1.59c-1.03,3.85 0.47,1.75 -2.88,3z"/>
   <path class="fil4" d="M35.27 72.1c-1.28,-1.53 -0.23,-1.4 -0.71,-2.83l2.12 -1.41 -0.26 -1.41 -2.56 -1.41 -2.75 1.63 -0.07 5.44 4.23 0zm1.41 -2.83l0 1.41 0 -1.41z"/>
   <path class="fil4" d="M53.61 22.62l4.23 0 -0 -5.66c-4.37,0.37 -2.67,-0.02 -5.64,1.41l0 1.41 0 1.41c1.89,-1.59 1.4,2.06 1.42,-1.41l-0.01 2.83z"/>
   <path class="fil4" d="M18.34 36.75l1.41 0c2.66,-5.45 4.56,-0.14 1.41,-7.07 -3.85,1.4 -1.41,-2.04 -3.32,2.16 -1.05,2.31 -0.29,1.21 0.49,4.91z"/>
   <path class="fil2" d="M36.68 70.69l-1.41 1.41 0 1.41c3.37,-0.63 3.28,-0.7 7.06,-1.41l0 -1.41 -1.41 -1.41 0 -1.41c-3.45,1.48 -0.78,1.48 -4.23,0l0 1.41 0 1.41z"/>
   <path class="fil3" d="M47.97 67.86c3.45,1.48 0.78,1.48 4.23,0l0.94 -4.13 -6.12 0.23 -0.23 0.83 1.18 3.06z"/>
   <path class="fil2" d="M67.72 36.76c1.48,3.46 1.48,0.78 0,4.24l1.41 0 2.82 1.41c1.05,-5.68 -0.27,-2.57 2.58,-7.06 -1.06,0.33 -3.37,1.32 -6.82,1.41z"/>
   <path class="fil2" d="M47.97 19.79l0 1.41 4.23 -2.83 0 -2.83 -6.35 -0.35c1.35,2.16 1.2,1.72 2.12,4.59zm4.23 1.41l0 -1.41 0 1.41z"/>
   <path class="fil3" d="M63.6 53.25l2.71 -0.94 1.41 0c1.48,-3.46 1.48,-0.78 0,-4.24l-3.88 -0.94 -0.23 6.13z"/>
   <path class="fil2" d="M46.56 70.69l0 1.41c3.88,0.33 3.07,0.13 5.64,1.41l0 -5.65c-3.45,1.48 -0.78,1.48 -4.23,0l-1.41 2.83z"/>
   <path class="fil4" d="M53.61 66.45c0.01,5.57 -0.85,3.09 2.82,5.65 1.8,-3.75 1.29,-1.51 1.41,-7.07 -2.44,1.37 -2.78,0.82 -4.23,1.41z"/>
   <path class="fil2" d="M15.52 52.31l2.82 0 2.82 0.45c-1.18,-3.34 -1.28,-1.69 0,-4.69l-1.41 0 -2.82 -1.41c-0.75,3.86 -0.51,3.08 -1.41,5.65z"/>
   <path class="fil0" d="M40.91 65.03l0 2.83 5.88 -3.06 -0.28 4.47 0.05 1.42 1.41 -2.83 -1.18 -3.06 0.23 -0.83 -4.7 -0.59 -1.41 1.65zm2.82 7.31l1.41 0 -1.41 0zm-2.82 -3.06l1.41 1.41 1.64 -1.18 -3.06 -0.24z"/>
   <path class="fil4" d="M67.72 52.31l-1.41 0 0 5.66c4.37,-0.37 2.67,0.02 5.64,-1.41 -3.48,-5.02 -2.44,-0.93 -4.23,-4.24z"/>
   <path class="fil2" d="M40.91 21.21l0 -1.41c0.92,-2.88 0.77,-2.43 2.12,-4.59l-6.35 0.35 0 1.41c0.22,0.25 0.53,0.34 0.63,0.78 0.14,0.62 1.09,1.26 1.33,1.49 2.04,2.01 0.5,0.66 2.27,1.96zm-4.23 0l0 -1.41 0 1.41z"/>
   <path class="fil2" d="M69.13 48.07l-1.41 0c1.48,3.46 1.48,0.78 0,4.24l5.64 0c-1.28,-2.58 -1.08,-1.77 -1.41,-5.65l-2.82 1.41z"/>
   <path class="fil4" d="M16.93 42.41l-0.24 1.41c1.43,0.91 2.51,1.32 4.47,2.82 -3.47,0.02 0.17,-0.48 -1.41,1.42l1.41 0 1.41 -2.83c-0.73,-2.75 -0.26,-2.19 -1.41,-4.24l-1.41 0 -0.07 2.95 -2.75 -1.53z"/>
   <path class="fil4" d="M32.45 42.41c2.54,-2.14 2.92,-1.92 4.31,-5.18 -3.58,-2.46 1.24,-0.31 -1.98,-0.24 -2.82,0.07 1.65,0.91 -3.91,-0.18l1.58 5.6z"/>
   <path class="fil2" d="M33.86 25.45l9.87 0 -2.82 -2.83c-6.31,1.51 -2.43,0.9 -4.23,0l-2.82 2.83z"/>
   <path class="fil4" d="M69.13 41l-1.41 0c-1.43,2.98 -1.04,1.28 -1.34,5.44l2.75 1.63 2.82 -1.41 0.24 -1.41 -1.88 1.65 -1.18 -1.65c0.5,-1.85 -0.03,0.12 -0.23,-2.43 -0.08,-1.01 -0.98,0.54 0.23,-1.81z"/>
   <path class="fil4" d="M22.57 25.45l0 1.41 -1.41 1.41 1.41 -1.41c6.43,1.5 3.69,3.18 7.05,-1.41 -3.65,-1.69 -2.75,-1.01 -7.05,0z"/>
   <path class="fil2" d="M23.98 48.07c-1.15,2.03 -0.93,1.6 -1.41,4.69l1.41 2.38 1.41 0 0 -9.9 -1.41 2.83z"/>
   <path class="fil4" d="M64.9 33.93l1.41 2.83 1.41 0c0.57,-1.03 3.01,-2.41 4.23,-5.66l-7.05 2.83z"/>
   <path class="fil2" d="M16.93 41l2.82 0 1.41 0c-1.54,-3.61 -1.59,-0.62 0,-4.12l-1.41 -0.12 -1.41 -0 -3.18 0.71c2.79,2.29 0.94,-0.92 1.77,3.53z"/>
   <path class="fil2" d="M36.42 66.45c2.93,-0.49 2.53,-0.29 4.49,-1.41l0 -1.41 -7.05 0 0 1.41 2.56 1.41z"/>
   <path class="fil3" d="M47.97 21.21l0 2.83 -2.35 1.06 2.35 0.35 0 -1.41c1.88,-1.07 1.51,-0.91 4.23,-1.41l0 -1.41 0 -1.41 0 -1.41 -4.23 2.83z"/>
   <path class="fil2" d="M47.97 24.03l0 1.41 7.05 0 -1.41 -2.83 -1.41 0c-2.73,0.5 -2.35,0.34 -4.23,1.41z"/>
   <path class="fil3" d="M36.68 19.79l0 1.41 0 1.41c1.81,0.9 -2.07,1.51 4.23,0l0 -1.41c-1.77,-1.3 -0.23,0.04 -2.27,-1.96 -0.24,-0.23 -1.19,-0.87 -1.33,-1.49 -0.1,-0.44 -0.41,-0.53 -0.63,-0.78l0 1.41 0 1.41z"/>
   <path class="fil2" d="M23.28 36.87c0.01,0.73 -0.11,1.64 -0.7,4.12l2.82 1.41 0 -8.48 -2.12 2.94z"/>
   <path class="fil2" d="M63.49 41c3.03,-2.11 1.86,-0.21 2.82,-4.24l-1.41 -2.83 -1.41 0 0 7.07z"/>
   <path class="fil1" d="M76.18 16.97l0 -4.24 -4.24 0c1.22,4.87 1.08,3.4 4.23,4.24z"/>
   <path class="fil3" d="M63.49 41l-0.24 1.41c2.08,-1.06 1.68,-0.9 4.47,-1.41 1.48,-3.46 1.48,-0.78 0,-4.24l-1.41 0c-0.97,4.03 0.21,2.13 -2.82,4.24z"/>
   <path class="fil4" d="M40.91 19.79l0 1.41c2.58,1.28 1.77,1.08 5.64,1.41 -1.6,-6.74 -1.32,-2.89 -2.39,-3.06 -4.99,-0.76 2.22,3.06 -3.26,0.23zm7.05 0l0 1.41 0 -1.41z"/>
   <path class="fil4" d="M59.26 28.27l1.41 1.41c2.99,-2.84 1.33,-2.05 2.82,-5.66 -2.92,0.78 -2.13,-0.17 -3.65,2.39 -0.06,0.11 -0.16,0.54 -0.21,0.64l-0.37 1.22z"/>
   <path class="fil3" d="M36.42 66.45l0.26 1.41c3.45,1.48 0.78,1.48 4.23,0l0 -2.83 1.41 -1.65 -1.41 0.24 0 1.41c-1.96,1.12 -1.56,0.92 -4.49,1.41z"/>
   <path class="fil1" d="M16.93 76.34c-1.27,-2.73 -0.31,-2 -4.23,-4.24 0.24,5.01 -2.94,3.28 4.23,4.24z"/>
   <path class="fil3" d="M21.16 52.75l1.41 0c0.48,-3.09 0.26,-2.66 1.41,-4.69l-2.82 0c-1.28,3 -1.18,1.35 0,4.69z"/>
   <path class="fil4" d="M80.42 36.76c-0.55,-6.57 1.51,-2.47 -2.82,-5.66 0.52,6.32 -1.54,2.62 2.82,5.66z"/>
   <path class="fil3" d="M57.84 36.76c-2.4,0.64 -5.49,0.82 -3.16,3.16 2.33,2.34 2.51,-0.76 3.16,-3.16z"/>
   <path class="fil3" d="M21.16 41l1.41 0c0.59,-2.48 0.72,-3.39 0.7,-4.12l-2.11 0c-1.59,3.51 -1.54,0.52 0,4.12z"/>
   <path class="fil3" d="M36.68 57.96c2.82,-0.76 0.57,1.81 2.89,-1.14 1.93,-2.44 -2.72,-5.12 -2.89,1.14z"/>
   <path class="fil5" d="M38.09 32.52c0.87,0.32 0.31,0.79 2.98,0.83 7.56,0.1 1.09,0.28 4.08,-0.83 -2.39,-1.11 -3.99,-1.69 -7.05,0z"/>
   <path class="fil4" d="M60.67 63.62l2.82 0 0 -4.24c-2.33,1.63 -2.71,0.3 -2.82,4.24z"/>
   <path class="fil1" d="M14.11 15.55c1.81,-1.1 1.41,2.09 1.41,-3.18 -0.19,0.08 -2.49,0.2 -3.52,1.06 0,5.05 -0.66,-0.21 2.11,2.12z"/>
   <path class="fil1" d="M66.78 61.72l1.88 2.39c0.78,-1.56 0.57,-1.06 1.89,-3.32l-3.77 0.93z"/>
   <polygon class="fil1" points="26.8,22.62 28.22,21.21 28.22,19.79 25.4,19.79 "/>
   <polygon class="fil1" points="21.16,28.27 22.57,26.86 22.57,25.45 19.75,25.45 "/>
   <path class="fil1" d="M61.14 70.21l3.61 -2.98c-5.82,0.38 -2.48,-1.79 -3.61,2.98z"/>
   <path class="fil0" d="M45.15 28.27l-1.41 0 1.41 0zm2.82 4.24l-1.41 -2.83 -1.62 2.76 3.03 0.07z"/>
   <path class="fil5" d="M14.11 21.21c-0,2.38 1.74,1.89 1.31,-0.29 -0.36,-1.81 -1.31,-2.29 -1.31,0.29z"/>
   <path class="fil1" d="M25.63 67.86c0.41,0.73 3.58,3.48 1.43,0.51 -0.03,-0.04 -3.2,-3.66 -1.43,-0.51z"/>
   <path class="fil5" d="M19.75 14.14c0.9,1.86 -1.84,1.42 2.82,1.41l-2.82 -1.41z"/>
   <path class="fil1" d="M66.31 26.15l2.31 0.74c-1.31,-1.58 -2.93,-2.11 -2.31,-0.74z"/>
   <path class="fil6" d="M60.67 20.49c2.28,1.32 4.63,-0.02 1.63,-0.04 -2.28,-0.02 -2.11,-0.24 -1.63,0.04z"/>
   <path class="fil1" d="M19.99 62.2c0.56,0.75 3.93,3.42 1.42,0.67 -0.07,-0.08 -2.54,-2.17 -1.42,-0.67z"/>
  </g>
 </g>
</svg>
