<?xml version="1.0" encoding="UTF-8"?>
<!DOCTYPE svg PUBLIC "-//W3C//DTD SVG 1.1//EN" "http://www.w3.org/Graphics/SVG/1.1/DTD/svg11.dtd">
<!-- Creator: CorelDRAW 2021 (64 Bit) -->
<svg xmlns="http://www.w3.org/2000/svg" xml:space="preserve" width="7.9682mm" height="7.9586mm" version="1.1" style="shape-rendering:geometricPrecision; text-rendering:geometricPrecision; image-rendering:optimizeQuality; fill-rule:evenodd; clip-rule:evenodd"
viewBox="0 0 63.73 63.66"
 xmlns:xlink="http://www.w3.org/1999/xlink"
 xmlns:xodm="http://www.corel.com/coreldraw/odm/2003">
 <defs>
  <style type="text/css">
   <![CDATA[
    .fil1 {fill:black}
    .fil0 {fill:#7F7F7F}
    .fil2 {fill:maroon}
    .fil4 {fill:#BFBFBF}
    .fil3 {fill:red}
   ]]>
  </style>
 </defs>
 <g id="Camada_x0020_1">
  <metadata id="CorelCorpID_0Corel-Layer"/>
  <g id="_2129382408432">
   <path class="fil0" d="M44.47 50.56c-0.67,-1.73 -3.35,-3.77 2.03,-2.03l-2.03 2.03zm3.58 -6.53c0.76,-0.7 1.76,0.22 2.62,0.66l-2.14 1.81c-0.05,-0.13 -0.16,-0.3 -0.19,-0.37l-0.49 -1.15c-0.08,-0.65 -1,0.15 0.2,-0.95zm-37.9 -1.37l1.35 0c-0.06,2.66 0.19,1.59 -0.68,3.39 3.58,0.96 0.69,1.69 4.74,2.03 0.44,5.26 3.24,2.45 5.42,5.42l-6.77 0c-0.29,-1.37 0.15,-2.84 -1.69,-3.67 -1.32,-0.6 -0.8,-0.36 -2.37,-0.39l-0.27 -4.85c-0.02,-2.08 0.36,1.02 0.27,-1.93zm-5.42 -18.28c0,-2.61 2.29,-2.54 4.06,-3.39 1.03,4.43 -0.08,1.25 -0.58,7.52 -0.62,7.65 -1.91,8.54 0.58,12.12 -5.71,-0.13 -2.41,-1.99 -3.33,-6.28 -0.43,-2.03 -0.74,1.26 -0.74,-1.85l0 -8.13zm32.47 -10.84c1.66,-0.85 2.33,-1.56 4.1,-2.03 0.37,1.59 0.63,2 0.68,4.06 -2.59,0.6 -2.56,0.11 -4.06,0.55l1.69 2.33c3.63,1.16 -0.06,0.18 2.87,2.82 1.95,1.76 1.63,-0.15 2.89,2.43 1.06,1.42 1.51,2.5 3.29,2.59 2.53,0.13 0.23,-0.56 4.82,-0.39 0.53,1.6 1.07,3.45 1.15,5.27 0.01,0.23 0.03,3.97 0.03,3.99 -0.21,1.73 -0.35,1.16 -1.17,2.08l-0.82 0.36c-0.11,0.02 -0.32,0.05 -0.44,0.06l-2.8 -0.45c0.58,1.64 0.42,0.91 1.46,1.97 0.83,0.86 0.6,0.48 1.25,1.45 -0.75,0.36 -3.09,1.46 -3.89,1.06 -0.77,-0.39 -0.96,-0.58 -0.87,-1.69 0.23,-2.76 -0.17,-0.77 1.48,-1.7l-1.46 -0.37 -2.37 1.19c-0.45,4.07 0.16,0.2 -2.78,3.24 -1.84,1.91 -0.59,3.1 -3.32,2.86l-2.03 2.88c0.29,2.27 0.63,3.1 0.85,4.74l-1.19 2.03c-3.73,-0.52 -7.95,0.56 -10.67,-2.03 -0.06,-3.36 1.31,-3.88 -0.97,-6.54 -0.94,-1.1 0.02,0.31 -0.9,-1.08 -2.34,-0.81 -0.27,0.24 -1.65,-1.22 -1.36,-1.43 0.18,-0.11 -1.16,-1.55 -2.71,-2.92 -1.67,0.46 -2.77,-2.81 -1.53,-1.01 0.09,0.16 -1.02,-0.87 -1.26,-1.17 0.13,-0.34 -1,-1.01 -1.87,-1.11 -0.89,-0.85 -3.56,-0.77l-1.61 0.48c-2.59,0.04 -2,-8.57 -1.21,-10.45 0.45,-1.06 0.54,-0.74 0.79,-1.09l4.91 0.47c1.59,-0.37 2.05,-1.94 2.88,-2.67 0.47,-1.87 -0.26,-0.27 1.45,-1.64l2.32 -2.38c1.1,-1.29 -0.33,-0.59 1.31,-1.07 0.14,-0.13 0.36,-0.27 0.47,-0.36 0.1,-0.09 0.33,-0.26 0.45,-0.36 0.47,-0.42 1.93,-1.74 1.19,-2.49 -2.03,1.19 -1.14,0.85 -4.13,0.85l0.68 -4.74c0.71,0.47 1.33,0.84 2,1.38 0.1,0.08 0.27,0.24 0.36,0.32l1.02 1.01c0.75,-1.15 0.04,-2.87 0,-4.06l1.15 -0.21c0.17,-0.03 0.38,-0.07 0.57,-0.1 10.59,-1.53 10.68,0.05 9.76,3.7zm10.19 -1.35c-2.66,-0.62 -3.4,-0.2 -4.74,-2.03l6.09 0c1.43,2.7 1.28,3.26 4.74,4.06l0 6.77c-3.91,-1.58 0.37,-3.17 -3.08,-4.87 -1.74,-0.86 -1.61,2.69 -3.01,-3.93zm-38.6 2.03c2.59,-1.25 1.62,0.14 3.43,-1.99 0.7,-0.82 1.43,-2.37 1.99,-3.43 1.12,0.54 5.19,1.22 6.77,1.35 -1.69,2.31 -1.62,0.39 -3.76,2.33 -0,0 -0.88,1.18 -1.18,1.52 -1.42,1.59 -3.55,2.47 -4.67,4.93l-0.22 0.7c-0.58,1.23 1.04,-0.14 -1,1.35 -0.44,-1.06 -0.76,-4.22 -1.35,-6.77zm13.54 -4.74c-2.27,-5.5 3.11,-4.74 4.06,-4.74l14.22 0.68c0.15,1.86 0.06,1.47 0.68,2.71 -5.29,-0.44 -3.38,-1.27 -6.24,-0.82 -3.29,0.52 -7.5,0.4 -9.59,1.17 -1.61,0.59 -1.62,0.65 -3.13,1zm-2.2 -4.06l-0.85 1.84 -5.92 -0.15c-1.05,1.97 -0.04,0.89 -2.2,2.04 -0.16,1.91 0.37,2.41 -2.03,2.2 -0.95,2.09 0.33,0.04 -1.7,2.2l-0.28 5.42c-0.45,0.6 -0.87,0.9 -1.41,1.35 -2.67,0.55 -1.83,-0.3 -2.37,2.37l-0.11 17.94 1.24 1.61c0.29,0.37 0.67,0.82 0.9,1.1l2.04 0.31 -0.17 5.79c0.98,0.88 1.3,0.99 2.03,2.37 2.22,0.41 2.16,0.25 2.54,2.54l1.53 1.53c2.55,-0.08 4.98,0.19 6.6,0.34l0.17 2.03c1.61,1.15 0.69,0.46 2.03,2.03 4.3,0.46 8.12,-0.47 13.05,-0.39 6.82,0.11 6.33,-1.04 9.46,-4.91l5.87 -0.07c0.75,-3.07 1.33,-3.44 4.29,-4.33 0.28,-2.45 -0.15,-4.75 0.84,-6.49 1.77,-3.11 4.13,-0.5 4.24,-7.47 0.02,-1.54 -0.08,-3.25 -0.09,-4.8 -0.03,-3.51 0.73,-5.76 0.43,-9.45 -1.04,-0.88 -1.06,-1.09 -2.03,-2.2l-2.01 0.21 -0.7 -6.81c-1.17,-1.32 -0.03,-0.18 -1.35,-1.35 -2.3,-0.89 -1.82,-0.41 -2.71,-2.71 -1.47,-1.53 -0.91,-0.63 -2.03,-2.2l-6.03 -0.17 -0.07 -1.86c-0.61,-0.68 -1.09,-1.16 -2.03,-1.86l-18.96 -0.17c-1.13,0.68 -0.39,0.01 -1.32,0.88 -0.98,0.92 -0.17,0.15 -0.88,1.32z"/>
   <path class="fil1" d="M20.02 28.94l0.52 -3.13c4.63,-2.22 3.11,-1.2 5.27,-5.31l7.19 -0.48c1.32,-0.26 3.56,0.04 3.98,0.23 1.24,0.55 1.79,1.85 2.78,2.87l2.62 2.23c0.2,0.21 0.77,0.84 0.85,0.99l-0.84 9.4c-0.36,3.72 -4.03,1.45 -4.48,6.92 -7.74,-1.97 -5.62,1.49 -12.18,0.69 -0.62,-2.32 -3.1,-4.8 -5.33,-5.42l-0.39 -8.98zm-1.4 -5.24l-0.16 15.92c1.1,3.27 0.06,-0.11 2.77,2.81 1.34,1.44 -0.2,0.13 1.16,1.55 1.39,1.46 -0.68,0.42 1.65,1.22l6.77 0 1.69 -0.16 6.44 0.16c2.73,0.24 1.47,-0.95 3.32,-2.86 2.94,-3.04 2.33,0.83 2.78,-3.24 -0.01,-0.32 -0.5,0.2 0.34,-0.51 0,-2.35 -0.53,-5.12 -0.33,-6.1l0.33 -1.35 0 -7.45c-1.26,-2.57 -0.94,-0.67 -2.89,-2.43 -2.92,-2.64 0.76,-1.66 -2.87,-2.82 -0.68,0.27 -15.26,0.29 -15.92,0.16 -1.64,0.48 -0.22,-0.22 -1.31,1.07l-2.32 2.38c-1.71,1.37 -0.97,-0.23 -1.45,1.64z"/>
   <path class="fil1" d="M22.18 60.27l-1.19 1.35c2.47,1.37 0.38,1.37 3.44,1.85l16.21 0.19 2.7 -4.23c9.22,0 5.26,-1.03 8.13,-3.85l0.8 -0.58c4.23,-3.09 1.07,-1.28 3.26,-3.49l2.08 -1.35c0.89,-0.55 1.1,-0.79 1.98,-1.4l-0.16 -5.42 4.23 -2.71c-0.43,-7.62 1.07,-14.92 -1.36,-18.96 -3.13,-0.17 -1.33,0.04 -2.03,0.68 0.3,3.7 -0.46,5.95 -0.43,9.45 0.01,1.56 0.11,3.27 0.09,4.8 -0.11,6.96 -2.47,4.35 -4.24,7.47 -0.99,1.74 -0.56,4.04 -0.84,6.49 -2.96,0.89 -3.53,1.25 -4.29,4.33l-5.87 0.07c-3.14,3.87 -2.64,5.02 -9.46,4.91 -4.93,-0.08 -8.75,0.86 -13.05,0.39z"/>
   <path class="fil2" d="M29.8 37.92c0.16,1.86 0.06,1.47 0.68,2.71 -1.64,0.14 -4.06,1.33 -4.06,-0.68 0,-1.43 0.24,-0.89 0.68,-2.71 1.43,0.69 0.61,0.5 2.71,0.68zm11.51 -8.13c-3.18,-0.67 -3.29,0.75 -3.39,-3.39l3.39 0c-0.27,3.23 -0.85,1.32 0,3.39zm-8.31 -9.78c0.58,1.55 0.04,1.13 1.36,1.74l2.89 1.26c-0.59,2.21 -1.18,2.8 -3.39,3.39 0.89,3.82 1.87,2.88 2.42,3.1 1.07,0.42 0.7,-0.26 1.55,1.05 0.11,0.17 0.63,1.67 0.77,1.95l-1.83 0.91c-0.14,0.07 -0.32,0.16 -0.46,0.23 -1.05,0.56 -0.82,0.24 -1.61,0.99l-0.74 1.27c-0.03,0.08 -0.08,0.28 -0.12,0.37 -0.2,0.51 -0.19,0.34 -0.67,1.65 -5.79,-0.13 -1.54,-1.84 -5.26,-3.11 -1.34,-0.46 -2.45,0.76 -2.46,0.76l-2.44 1.67c-2.04,-3.85 -0.23,-2.97 -1.23,-6.95 -0.6,-1.29 -0.15,-0.82 -1.78,-1.36l0.39 8.98c2.23,0.62 4.71,3.1 5.33,5.42 6.56,0.8 4.44,-2.65 12.18,-0.69 0.45,-5.47 4.12,-3.2 4.48,-6.92l0.84 -9.4c-0.08,-0.14 -0.65,-0.78 -0.85,-0.99l-2.62 -2.23c-1,-1.02 -1.55,-2.32 -2.78,-2.87 -0.41,-0.18 -2.66,-0.49 -3.98,-0.23z"/>
   <path class="fil3" d="M21.8 30.3c1,3.98 -0.81,3.1 1.23,6.95l2.44 -1.67c0.01,-0 1.12,-1.22 2.46,-0.76 3.71,1.27 -0.53,2.98 5.26,3.11 0.48,-1.32 0.47,-1.14 0.67,-1.65 0.03,-0.08 0.08,-0.29 0.12,-0.37l0.74 -1.27c0.79,-0.75 0.56,-0.43 1.61,-0.99 0.14,-0.07 0.32,-0.16 0.46,-0.23l1.83 -0.91c-0.13,-0.28 -0.65,-1.78 -0.77,-1.95 -0.85,-1.3 -0.49,-0.63 -1.55,-1.05 -0.56,-0.22 -1.54,0.72 -2.42,-3.1 2.21,-0.59 2.8,-1.18 3.39,-3.39l-2.89 -1.26c-0.13,4.82 -2.29,4.15 -7.27,3.8l-2.23 3.41c-1.05,0.98 -1.76,1.08 -3.07,1.33z"/>
   <path class="fil2" d="M29.3 13.12c0.9,-0.61 1.7,-0.94 2.53,-1.41 1.15,0.6 1.59,0.65 2.64,1.16l0.07 3.39c-2.17,0.68 -5.83,4.51 -5.24,-3.14zm-3.57 1.11l0.07 1.19c0.74,0.75 -0.72,2.07 -1.19,2.49 -0.12,0.11 -0.35,0.28 -0.45,0.36 -0.11,0.09 -0.32,0.23 -0.47,0.36 0.66,0.13 15.24,0.1 15.92,-0.16l-1.69 -2.33 -0.71 -2.58c0.91,-3.65 0.83,-5.23 -9.76,-3.7 -0.19,0.03 -0.4,0.07 -0.57,0.1l-1.15 0.21c0.04,1.19 0.75,2.91 0,4.06z"/>
   <path class="fil4" d="M20.02 28.94c1.63,0.54 1.17,0.06 1.78,1.36 1.31,-0.25 2.01,-0.35 3.07,-1.33l2.23 -3.41c4.98,0.36 7.15,1.02 7.27,-3.8 -1.31,-0.62 -0.78,-0.2 -1.36,-1.74l-7.19 0.48c-2.16,4.11 -0.64,3.09 -5.27,5.31l-0.52 3.13z"/>
   <path class="fil1" d="M22.35 3.22l18.96 0.17c0.49,-0.57 0.4,-0.15 0.82,-1.17 0.43,-1.04 0.31,-0.59 0.53,-2.21l-21.67 0 1.35 3.22z"/>
   <path class="fil1" d="M-0 42.67c2.01,-0.28 2.58,-0.04 3.27,-2.04l0.11 -17.94 -3.38 -1.36 0 21.34z"/>
   <path class="fil2" d="M45.37 31.15c0.1,-0.12 0.24,-0.3 0.3,-0.37l0.64 -0.73c1.52,-1.68 2.96,-1.32 4.82,-0.59l0.34 1.11c0.69,5.07 -2.74,4.13 -5.08,4.31l-0.98 -1.95c-0.05,-0.27 -0.25,-0.28 -0.37,-0.42 -0.19,0.98 0.33,3.75 0.33,6.1 -0.84,0.7 -0.35,0.19 -0.34,0.51l2.37 -1.19c0.82,-0.84 -1.39,-0.8 2.03,-0.71l2.8 0.45c0.12,-0.01 0.34,-0.04 0.44,-0.06l0.82 -0.36 -1.06 -9.31c0.04,-0.18 0.11,-0.35 0.17,-0.52l0.89 -1.51c-4.59,-0.17 -2.29,0.52 -4.82,0.39 -1.79,-0.09 -2.23,-1.17 -3.29,-2.59l0 7.45z"/>
   <path class="fil4" d="M4.74 24.38l0 8.13c0,3.11 0.3,-0.18 0.74,1.85 0.92,4.29 -2.39,6.15 3.33,6.28 -2.49,-3.58 -1.2,-4.47 -0.58,-12.12 0.51,-6.26 1.61,-3.09 0.58,-7.52 -1.77,0.85 -4.06,0.78 -4.06,3.39z"/>
   <path class="fil2" d="M25.9 52.82c2.75,-1.54 3.93,-0.28 5.8,-0.25 3.28,0.06 2.11,-0.79 6.05,0.25 -0.22,-1.64 -0.56,-2.47 -0.85,-4.74l2.03 -2.88 -6.44 -0.16c1.3,1.47 4.23,4.17 1.04,6.15 -1.05,0.65 1.27,0.46 -1.68,0.44 -4.22,-0.03 -3.05,-3.71 -1.91,-5.38 1.32,-1.95 -0.46,0.94 0.86,-1.05l-6.77 0c0.92,1.38 -0.04,-0.03 0.9,1.08 2.27,2.66 0.91,3.18 0.97,6.54z"/>
   <path class="fil4" d="M22.35 9.48c1.52,-0.35 1.52,-0.42 3.13,-1 2.08,-0.76 6.3,-0.64 9.59,-1.17 2.87,-0.46 0.96,0.38 6.24,0.82 -0.61,-1.23 -0.52,-0.85 -0.68,-2.71l-14.22 -0.68c-0.96,0 -6.34,-0.76 -4.06,4.74z"/>
   <path class="fil4" d="M8.8 14.22c0.6,2.56 0.92,5.71 1.35,6.77 2.04,-1.49 0.41,-0.13 1,-1.35l0.22 -0.7c1.12,-2.45 3.25,-3.34 4.67,-4.93 0.31,-0.35 1.18,-1.52 1.18,-1.52 2.14,-1.94 2.07,-0.02 3.76,-2.33 -1.58,-0.13 -5.65,-0.82 -6.77,-1.35 -0.56,1.06 -1.29,2.6 -1.99,3.43 -1.81,2.13 -0.83,0.75 -3.43,1.99z"/>
   <path class="fil2" d="M10.84 25.9c0.74,2.81 0.25,2.75 0.51,4.91 1.39,-1.05 1.12,-1.62 2.95,-1.95 2.34,-0.42 2.62,-0.06 3.22,1.14 1.65,3.29 -1.57,4.54 -3.97,4.81l-0.68 -0.28 0 2.42c2.68,-0.08 1.69,-0.34 3.56,0.77 1.13,0.67 -0.26,-0.16 1,1.01 1.11,1.03 -0.51,-0.14 1.02,0.87l0.16 -15.92c-0.83,0.73 -1.28,2.31 -2.88,2.67l-4.91 -0.47z"/>
   <path class="fil4" d="M47.4 12.19c1.4,6.62 1.27,3.07 3.01,3.93 3.46,1.7 -0.83,3.3 3.08,4.87l0 -6.77c-3.46,-0.81 -3.31,-1.37 -4.74,-4.06l-6.09 0c1.34,1.83 2.08,1.41 4.74,2.03z"/>
   <path class="fil4" d="M10.84 46.05c0.86,-1.8 0.62,-0.72 0.68,-3.39l-1.35 0c0.08,2.95 -0.29,-0.15 -0.27,1.93l0.27 4.85c1.57,0.04 1.05,-0.21 2.37,0.39 1.84,0.84 1.4,2.3 1.69,3.67l6.77 0c-2.18,-2.97 -4.98,-0.16 -5.42,-5.42 -4.05,-0.34 -1.16,-1.08 -4.74,-2.03z"/>
   <path class="fil0" d="M11.34 30.81c0.19,1.64 -0.17,0.45 0.31,2.08 0.26,0.89 0.56,1.33 0.65,1.53 0.74,0.38 -0.64,0.26 1.25,0.39 2.4,-0.27 5.62,-1.52 3.97,-4.81 -0.6,-1.2 -0.88,-1.56 -3.22,-1.14 -1.82,0.33 -1.55,0.9 -2.95,1.95z"/>
   <path class="fil0" d="M45.37 31.15l-0.33 1.35c0.12,0.14 0.32,0.16 0.37,0.42l0.98 1.95c2.34,-0.18 5.77,0.76 5.08,-4.31l-0.34 -1.11c-1.85,-0.73 -3.29,-1.09 -4.82,0.59l-0.64 0.73c-0.06,0.07 -0.2,0.25 -0.3,0.37z"/>
   <path class="fil0" d="M32.5 45.04l-1.69 0.16c-1.32,1.99 0.46,-0.89 -0.86,1.05 -1.14,1.67 -2.31,5.35 1.91,5.38 2.95,0.02 0.62,0.21 1.68,-0.44 3.19,-1.98 0.27,-4.68 -1.04,-6.15z"/>
   <path class="fil4" d="M29.3 13.12c-0.59,7.64 3.07,3.82 5.24,3.14l-0.07 -3.39c-1.05,-0.51 -1.49,-0.56 -2.64,-1.16 -0.83,0.46 -1.63,0.8 -2.53,1.41z"/>
   <path class="fil1" d="M12.87 36.97l0 -2.42 0.68 0.28c-1.89,-0.13 -0.51,-0.01 -1.25,-0.39 -0.09,-0.2 -0.39,-0.64 -0.65,-1.53 -0.47,-1.64 -0.12,-0.44 -0.31,-2.08 -0.25,-2.16 0.24,-2.1 -0.51,-4.91 -0.25,0.35 -0.35,0.03 -0.79,1.09 -0.79,1.87 -1.37,10.49 1.21,10.45l1.61 -0.48z"/>
   <path class="fil1" d="M55.53 13.54l0.7 6.81 2.01 -0.21 1.36 -1.86c0.05,-0.17 0.58,-6.72 -4.07,-4.74z"/>
   <path class="fil1" d="M25.9 52.82c2.72,2.59 6.94,1.51 10.67,2.03l1.19 -2.03c-3.94,-1.04 -2.77,-0.19 -6.05,-0.25 -1.87,-0.03 -3.05,-1.29 -5.8,0.25z"/>
   <path class="fil1" d="M20.15 58.24l-0.17 -2.03c-1.62,-0.15 -4.05,-0.41 -6.6,-0.34l-0.52 2.37c2.8,1.47 2.34,1.02 5.97,1.21l1.31 -1.21z"/>
   <path class="fil1" d="M43.34 5.25l0.07 1.86 6.03 0.17c2.45,0.29 0.66,0.21 1.19,-0.51 -0.27,-1.67 0.3,-1.43 -1.54,-2.21 -1.44,-0.61 -2.85,-0.43 -4.72,-0.5l-1.02 1.19z"/>
   <path class="fil1" d="M7.28 49.44l0.17 -5.79 -2.04 -0.31c-1.61,1.35 -1.36,1.98 -1.23,3.9 0.02,0.25 0.02,1.96 0.92,2.67 1.77,1.39 1.62,0.74 2.17,-0.47z"/>
   <path class="fil1" d="M5.76 20.31c0.54,-0.45 0.96,-0.76 1.41,-1.35l0.28 -5.42c-2.74,-1.17 -3.24,0.2 -3.24,2.9 0,0.38 0.02,2.29 0.02,2.3 0.45,1.35 -0.49,-0.1 1.53,1.57z"/>
   <path class="fil1" d="M53.5 37.25c0.82,-0.92 0.96,-0.35 1.17,-2.08 0,-0.03 -0.02,-3.76 -0.03,-3.99 -0.08,-1.82 -0.62,-3.67 -1.15,-5.27l-0.89 1.51c-0.06,0.17 -0.13,0.34 -0.17,0.52l1.06 9.31z"/>
   <path class="fil1" d="M13.38 7.11l5.92 0.15 0.85 -1.84 -6.27 -1.14c-1.05,1.9 -1.15,1.15 -0.5,2.83z"/>
   <path class="fil4" d="M37.21 13.54l0.71 2.58c1.5,-0.44 1.48,0.05 4.06,-0.55 -0.05,-2.06 -0.31,-2.47 -0.68,-4.06 -1.77,0.47 -2.44,1.18 -4.1,2.03z"/>
   <path class="fil4" d="M49.44 37.21c-3.42,-0.08 -1.21,-0.12 -2.03,0.71l1.46 0.37c-1.65,0.93 -1.25,-1.06 -1.48,1.7 -0.09,1.12 0.1,1.3 0.87,1.69 0.8,0.4 3.13,-0.7 3.89,-1.06 -0.65,-0.97 -0.42,-0.6 -1.25,-1.45 -1.04,-1.06 -0.88,-0.33 -1.46,-1.97z"/>
   <path class="fil4" d="M25.8 15.41l-0.07 -1.19 -1.02 -1.01c-0.09,-0.08 -0.26,-0.23 -0.36,-0.32 -0.67,-0.55 -1.3,-0.91 -2,-1.38l-0.68 4.74c2.99,0 2.1,0.35 4.13,-0.85z"/>
   <path class="fil3" d="M26.41 39.96c0,2.01 2.43,0.81 4.06,0.68 -0.61,-1.24 -0.52,-0.85 -0.68,-2.71 -2.1,-0.18 -1.28,0.01 -2.71,-0.68 -0.43,1.82 -0.68,1.28 -0.68,2.71z"/>
   <path class="fil3" d="M41.31 29.8c-0.85,-2.06 -0.27,-0.16 0,-3.39l-3.39 0c0.09,4.14 0.2,2.71 3.39,3.39z"/>
   <path class="fil1" d="M51.47 9.48c0.89,2.3 0.41,1.82 2.71,2.71 0.47,-1.12 0.49,-0.15 0.43,-1.43 -0.12,-2.27 -1.73,-1.87 -3.14,-1.28z"/>
   <path class="fil1" d="M11.85 54.34c-0.38,-2.29 -0.32,-2.13 -2.54,-2.54 -1.15,2.4 0.13,3.69 2.54,2.54z"/>
   <path class="fil1" d="M46.5 48.53c-5.38,-1.73 -2.7,0.3 -2.03,2.03l2.03 -2.03z"/>
   <path class="fil1" d="M48.53 46.5l2.14 -1.81c-0.87,-0.44 -1.86,-1.36 -2.62,-0.66 -1.2,1.1 -0.28,0.3 -0.2,0.95l0.49 1.15c0.03,0.07 0.14,0.24 0.19,0.37z"/>
   <path class="fil1" d="M9.15 11.34c2.4,0.22 1.87,-0.28 2.03,-2.2l-2.03 -0.12 -0 2.31z"/>
  </g>
 </g>
</svg>
