<?xml version="1.0" encoding="UTF-8"?>
<!DOCTYPE svg PUBLIC "-//W3C//DTD SVG 1.1//EN" "http://www.w3.org/Graphics/SVG/1.1/DTD/svg11.dtd">
<!-- Creator: CorelDRAW 2021 (64 Bit) -->
<svg xmlns="http://www.w3.org/2000/svg" xml:space="preserve" width="752px" height="752px" version="1.1" style="shape-rendering:geometricPrecision; text-rendering:geometricPrecision; image-rendering:optimizeQuality; fill-rule:evenodd; clip-rule:evenodd"
viewBox="0 0 24.82 24.8"
 xmlns:xlink="http://www.w3.org/1999/xlink"
 xmlns:xodm="http://www.corel.com/coreldraw/odm/2003">
 <defs>
  <style type="text/css">
   <![CDATA[
    .str1 {stroke:black;stroke-width:0.66;stroke-miterlimit:22.9256}
    .str0 {stroke:#B8B4B6;stroke-width:1.65;stroke-miterlimit:22.9256}
    .str4 {stroke:black;stroke-width:0.49;stroke-miterlimit:22.9256}
    .str3 {stroke:black;stroke-width:0.66;stroke-linejoin:round;stroke-miterlimit:22.9256}
    .str2 {stroke:#373435;stroke-width:0.66;stroke-linejoin:round;stroke-miterlimit:22.9256}
    .str5 {stroke:black;stroke-width:0.49;stroke-linejoin:round;stroke-miterlimit:22.9256}
    .fil3 {fill:none}
    .fil2 {fill:#ED3237}
    .fil4 {fill:#00E6FF}
    .fil5 {fill:#51FF00}
    .fil6 {fill:#F4FC05}
    .fil1 {fill:white}
    .fil0 {fill:white}
   ]]>
  </style>
 </defs>
 <g id="Camada_x0020_1">
  <metadata id="CorelCorpID_0Corel-Layer"/>
  <g id="_2262087330800">
   <rect class="fil0" x="0.79" y="0.82" width="23.24" height="23.16"/>
   <path class="fil1 str0" d="M1.87 0.82l21.11 0c0.56,0 1.02,0.52 1.02,1.16l0 20.83c0,0.64 -0.46,1.16 -1.02,1.16l-21.11 0c-0.57,0 -1.02,-0.52 -1.02,-1.16 0,-2.5 -0.04,-20.17 -0.02,-21.08 0.01,-0.5 0.62,-0.91 1.04,-0.91z"/>
   <g>
    <circle class="fil2 str1" cx="12.47" cy="4.49" r="1.28"/>
    <path class="fil3 str2" d="M9.55 11.23c-0.02,-1.71 -0.02,-1.86 0.02,-3.27 0.04,-1.17 5.63,-0.98 5.65,-0.06 0.04,1.62 0.04,1.65 0.07,3.33"/>
    <circle class="fil4 str1" cx="12.42" cy="13.93" r="1.28"/>
    <path class="fil3 str3" d="M9.5 20.67c-0.01,-1.71 -0.02,-1.87 0.02,-3.27 0.04,-1.17 5.63,-0.99 5.66,-0.06 0.04,1.62 0.03,1.64 0.06,3.33"/>
    <ellipse class="fil5 str4" cx="19.61" cy="15.09" rx="0.98" ry="1.05"/>
    <path class="fil3 str5" d="M17.39 20.64c-0.01,-1.4 -0.02,-1.54 0.02,-2.69 0.03,-0.96 4.31,-0.82 4.33,-0.05 0.03,1.34 0.03,1.35 0.05,2.74"/>
    <ellipse class="fil6 str4" cx="5.34" cy="15" rx="0.98" ry="1.05"/>
    <path class="fil3 str5" d="M3 20.68c-0.01,-1.4 -0.01,-1.54 0.02,-2.7 0.03,-0.95 4.31,-0.81 4.33,-0.04 0.04,1.34 0.03,1.35 0.06,2.74"/>
    <g>
     <line class="fil3 str1" x1="2.75" y1="20.98" x2="22.04" y2= "20.91" />
    </g>
    <g>
     <g>
      <line class="fil3 str1" x1="5.16" y1="9.23" x2="7.89" y2= "9.23" />
     </g>
     <g>
      <line class="fil3 str1" x1="5.16" y1="8.9" x2="5.18" y2= "11.99" />
     </g>
    </g>
    <g>
     <g>
      <line class="fil3 str1" x1="19.63" y1="9.23" x2="16.9" y2= "9.23" />
     </g>
     <g>
      <line class="fil3 str1" x1="19.63" y1="8.9" x2="19.61" y2= "11.98" />
     </g>
    </g>
   </g>
  </g>
 </g>
</svg>
