<?xml version="1.0" encoding="UTF-8"?>
<!DOCTYPE svg PUBLIC "-//W3C//DTD SVG 1.1//EN" "http://www.w3.org/Graphics/SVG/1.1/DTD/svg11.dtd">
<!-- Creator: CorelDRAW 2021 (64 Bit) -->
<svg xmlns="http://www.w3.org/2000/svg" xml:space="preserve" width="26.162mm" height="10.8374mm" version="1.1" style="shape-rendering:geometricPrecision; text-rendering:geometricPrecision; image-rendering:optimizeQuality; fill-rule:evenodd; clip-rule:evenodd"
viewBox="0 0 12.79 5.3"
 xmlns:xlink="http://www.w3.org/1999/xlink"
 xmlns:xodm="http://www.corel.com/coreldraw/odm/2003">
 <defs>
  <style type="text/css">
   <![CDATA[
    .str0 {stroke:silver;stroke-width:0.41;stroke-miterlimit:22.9256}
    .str1 {stroke:black;stroke-width:0.04;stroke-miterlimit:22.9256}
    .fil3 {fill:none}
    .fil8 {fill:none;fill-rule:nonzero}
    .fil0 {fill:#FEFEFE}
    .fil2 {fill:#BDBFC1}
    .fil12 {fill:#96989A}
    .fil1 {fill:#848688}
    .fil9 {fill:#FEFEFE;fill-rule:nonzero}
    .fil10 {fill:#FFF212;fill-rule:nonzero}
    .fil11 {fill:#ED3237;fill-rule:nonzero}
    .fil13 {fill:#00A859;fill-rule:nonzero}
    .fil7 {fill:#FFCC99;fill-rule:nonzero}
    .fil6 {fill:url(#id0)}
    .fil14 {fill:url(#id1)}
    .fil18 {fill:url(#id2)}
    .fil4 {fill:url(#id3)}
    .fil19 {fill:url(#id4)}
    .fil5 {fill:url(#id5)}
    .fil15 {fill:url(#id6)}
    .fil16 {fill:url(#id7)}
    .fil17 {fill:url(#id8)}
   ]]>
  </style>
  <linearGradient id="id0" gradientUnits="objectBoundingBox" x1="53.6804%" y1="99.8585%" x2="46.3259%" y2="0.143634%">
   <stop offset="0" style="stop-opacity:1; stop-color:white"/>
   <stop offset="0.309804" style="stop-opacity:1; stop-color:#9ACCFD"/>
   <stop offset="1" style="stop-opacity:1; stop-color:#3598FA"/>
  </linearGradient>
  <linearGradient id="id1" gradientUnits="userSpaceOnUse" x1="6.43" y1="1.25" x2="6.39" y2="0.64">
   <stop offset="0" style="stop-opacity:1; stop-color:white"/>
   <stop offset="0.380392" style="stop-opacity:1; stop-color:#9ACCFD"/>
   <stop offset="1" style="stop-opacity:1; stop-color:#3598FA"/>
  </linearGradient>
  <linearGradient id="id2" gradientUnits="userSpaceOnUse" x1="5.02" y1="3.88" x2="5.45" y2="3.45">
   <stop offset="0" style="stop-opacity:1; stop-color:#00A859"/>
   <stop offset="0.270588" style="stop-opacity:1; stop-color:#7FD3AC"/>
   <stop offset="1" style="stop-opacity:1; stop-color:white"/>
  </linearGradient>
  <linearGradient id="id3" gradientUnits="userSpaceOnUse" x1="4.47" y1="2.56" x2="5.08" y2="2.56">
   <stop offset="0" style="stop-opacity:1; stop-color:#238FFA"/>
   <stop offset="0.619608" style="stop-opacity:1; stop-color:#91C7FC"/>
   <stop offset="1" style="stop-opacity:1; stop-color:white"/>
  </linearGradient>
  <linearGradient id="id4" gradientUnits="userSpaceOnUse" xlink:href="#id2" x1="7.73" y1="1.21" x2="7.31" y2="1.66">
  </linearGradient>
  <linearGradient id="id5" gradientUnits="userSpaceOnUse" x1="7.73" y1="3.89" x2="7.29" y2="3.47">
   <stop offset="0" style="stop-opacity:1; stop-color:#CE8F64"/>
   <stop offset="0.270588" style="stop-opacity:1; stop-color:#E6C7B1"/>
   <stop offset="1" style="stop-opacity:1; stop-color:white"/>
  </linearGradient>
  <linearGradient id="id6" gradientUnits="userSpaceOnUse" x1="8.31" y1="2.58" x2="7.7" y2="2.55">
   <stop offset="0" style="stop-opacity:1; stop-color:#238FFA"/>
   <stop offset="0.568627" style="stop-opacity:1; stop-color:#91C7FC"/>
   <stop offset="1" style="stop-opacity:1; stop-color:white"/>
  </linearGradient>
  <linearGradient id="id7" gradientUnits="userSpaceOnUse" xlink:href="#id1" x1="6.38" y1="3.88" x2="6.43" y2="4.49">
  </linearGradient>
  <linearGradient id="id8" gradientUnits="userSpaceOnUse" xlink:href="#id5" x1="5.02" y1="1.22" x2="5.47" y2="1.63">
  </linearGradient>
 </defs>
 <g id="Camada_x0020_1">
  <metadata id="CorelCorpID_0Corel-Layer"/>
  <rect class="fil0 str0" x="0.21" y="0.21" width="12.37" height="4.88" rx="0.42" ry="0.42"/>
  <g id="_2552002904848">
   <path class="fil1 str1" d="M2.4 2.38c-0.02,0.07 -0.04,0.14 -0.07,0.2 0.15,0.06 0.24,0.11 0.24,0.15 -0,0.04 -0.06,0.07 -0.19,0.13 0.04,0.06 0.08,0.12 0.11,0.18 0.12,-0.06 0.22,-0.08 0.25,-0.05 0.03,0.03 0.02,0.11 -0.01,0.24 -0,0 0,0 0,0 0.03,0.01 0.13,0.03 0.2,0.05 0.02,-0.06 0.03,-0.19 0.11,-0.21 0.08,-0.02 0.13,0.1 0.19,0.16 0.06,-0.03 0.12,-0.06 0.18,-0.1 -0.04,-0.07 -0.1,-0.21 -0.06,-0.24 0.04,-0.03 0.15,-0.02 0.24,0 0.02,-0.06 0.03,-0.13 0.05,-0.19 -0.07,-0.02 -0.21,-0.06 -0.22,-0.12 -0,-0.06 0.11,-0.12 0.18,-0.17l-0.11 -0.18c-0.08,0.05 -0.16,0.12 -0.23,0.07 -0.07,-0.05 -0.01,-0.16 -0,-0.25 -0.07,-0.02 -0.14,-0.03 -0.22,-0.05 -0.03,0.09 -0.07,0.18 -0.12,0.18 -0.05,0 -0.14,-0.06 -0.19,-0.13l-0.17 0.09c0.06,0.12 0.11,0.19 0.08,0.24 -0.03,0.04 -0.12,0.05 -0.26,0z"/>
   <path class="fil2 str1" d="M1.13 3.43c-0.02,0.07 -0.04,0.14 -0.07,0.2 0.15,0.06 0.24,0.11 0.24,0.15 -0,0.04 -0.06,0.07 -0.19,0.13 0.04,0.06 0.08,0.12 0.11,0.18 0.12,-0.06 0.22,-0.08 0.25,-0.05 0.03,0.03 0.02,0.11 -0.01,0.24 -0,0 0,0 0,0 0.03,0.01 0.13,0.03 0.2,0.05 0.02,-0.06 0.03,-0.19 0.11,-0.21 0.08,-0.02 0.13,0.1 0.19,0.16 0.06,-0.03 0.12,-0.06 0.18,-0.1 -0.04,-0.07 -0.1,-0.21 -0.06,-0.24 0.04,-0.03 0.15,-0.02 0.24,0 0.02,-0.06 0.03,-0.13 0.05,-0.19 -0.07,-0.02 -0.21,-0.06 -0.22,-0.12 -0,-0.06 0.11,-0.12 0.18,-0.17l-0.11 -0.18c-0.08,0.05 -0.16,0.12 -0.23,0.07 -0.07,-0.05 -0.01,-0.16 -0,-0.25 -0.07,-0.02 -0.14,-0.03 -0.22,-0.05 -0.03,0.09 -0.07,0.18 -0.12,0.18 -0.05,0 -0.14,-0.06 -0.19,-0.13l-0.17 0.09c0.06,0.12 0.11,0.19 0.08,0.24 -0.03,0.04 -0.12,0.05 -0.26,0z"/>
   <circle class="fil3 str1" cx="6.38" cy="2.56" r="0.83"/>
   <circle class="fil4 str1" cx="4.78" cy="2.56" r="0.31"/>
   <path class="fil5 str1" d="M7.29 3.47c-0.12,0.12 -0.12,0.31 0,0.43 0.12,0.12 0.31,0.12 0.43,-0 0.12,-0.12 0.12,-0.31 -0,-0.43 -0.12,-0.12 -0.31,-0.12 -0.43,0z"/>
   <path class="fil6 str1" d="M6.39 0.64c-0.17,0.01 -0.3,0.16 -0.28,0.33 0.01,0.17 0.16,0.3 0.33,0.28 0.17,-0.01 0.3,-0.16 0.28,-0.33 -0.01,-0.17 -0.16,-0.3 -0.33,-0.28z"/>
   <line class="fil3 str1" x1="5.08" y1="2.56" x2="5.55" y2= "2.56" />
   <line class="fil3 str1" x1="5.46" y1="1.65" x2="5.79" y2= "1.97" />
   <line class="fil3 str1" x1="6.41" y1="1.25" x2="6.4" y2= "1.72" />
   <line class="fil3 str1" x1="7.33" y1="1.67" x2="6.99" y2= "1.99" />
   <line class="fil3 str1" x1="7.68" y1="2.56" x2="7.22" y2= "2.56" />
   <line class="fil3 str1" x1="7.31" y1="3.47" x2="6.99" y2= "3.15" />
   <line class="fil3 str1" x1="5.45" y1="3.45" x2="5.78" y2= "3.14" />
   <circle class="fil7 str1" cx="6.38" cy="2.21" r="0.31"/>
   <path class="fil7 str1" d="M6.06 2.65l0.67 0c0.06,0 0.11,0.05 0.11,0.11l0 0.41 -0.9 0 0 -0.41c0,-0.06 0.05,-0.11 0.11,-0.11z"/>
   <line class="fil8 str1" x1="6.65" y1="3.15" x2="6.65" y2= "2.87" />
   <line class="fil8 str1" x1="6.16" y1="3.17" x2="6.16" y2= "2.88" />
   <g>
    <path class="fil2 str1" d="M10.6 3.52c-0.02,0.07 -0.04,0.14 -0.07,0.2 0.15,0.06 0.24,0.11 0.24,0.15 -0,0.04 -0.06,0.07 -0.19,0.13 0.04,0.06 0.08,0.12 0.11,0.18 0.12,-0.06 0.22,-0.08 0.25,-0.05 0.03,0.03 0.02,0.11 -0.01,0.24 -0,0 0,0 0,0 0.03,0.01 0.13,0.03 0.2,0.05 0.02,-0.06 0.03,-0.19 0.11,-0.21 0.08,-0.02 0.13,0.1 0.19,0.16 0.06,-0.03 0.12,-0.06 0.18,-0.1 -0.04,-0.07 -0.1,-0.21 -0.06,-0.24 0.04,-0.03 0.15,-0.02 0.24,0 0.02,-0.06 0.03,-0.13 0.05,-0.19 -0.07,-0.02 -0.21,-0.06 -0.22,-0.12 -0,-0.06 0.11,-0.12 0.18,-0.17l-0.11 -0.18c-0.08,0.05 -0.16,0.12 -0.23,0.07 -0.07,-0.05 -0.01,-0.16 -0,-0.25 -0.07,-0.02 -0.14,-0.03 -0.22,-0.05 -0.03,0.09 -0.07,0.18 -0.12,0.18 -0.05,0 -0.14,-0.06 -0.19,-0.13l-0.17 0.09c0.06,0.12 0.11,0.19 0.08,0.24 -0.03,0.04 -0.12,0.05 -0.26,0z"/>
    <ellipse class="fil9 str1" transform="matrix(0.0220065 0.0058966 -0.00609091 0.0227317 11.1969 3.78163)" rx="12.66" ry="12.26"/>
    <ellipse class="fil10 str1" transform="matrix(0.0186008 0.00498403 -0.00521121 0.0194486 11.1969 3.78163)" rx="5.29" ry="5.06"/>
   </g>
   <ellipse class="fil9 str1" transform="matrix(0.0220065 0.0058966 -0.00609091 0.0227317 1.71788 3.69278)" rx="12.66" ry="12.26"/>
   <ellipse class="fil10 str1" transform="matrix(0.0186008 0.00498403 -0.00521121 0.0194486 1.71788 3.69278)" rx="5.29" ry="5.06"/>
   <ellipse class="fil9 str1" transform="matrix(0.0220065 0.0058966 -0.00609091 0.0227317 2.99189 2.64267)" rx="12.66" ry="12.26"/>
   <ellipse class="fil11 str1" transform="matrix(0.0186008 0.00498403 -0.00521121 0.0194486 2.99189 2.64267)" rx="5.29" ry="5.06"/>
   <g>
    <path class="fil12 str1" d="M8.95 2.28c-0.02,0.07 -0.04,0.14 -0.07,0.2 0.15,0.06 0.24,0.11 0.24,0.15 -0,0.04 -0.06,0.07 -0.19,0.13 0.04,0.06 0.08,0.12 0.11,0.18 0.12,-0.06 0.22,-0.08 0.25,-0.05 0.03,0.03 0.02,0.11 -0.01,0.24 -0,0 0,0 0,0 0.03,0.01 0.13,0.03 0.2,0.05 0.02,-0.06 0.03,-0.19 0.11,-0.21 0.08,-0.02 0.13,0.1 0.19,0.16 0.06,-0.03 0.12,-0.06 0.18,-0.1 -0.04,-0.07 -0.1,-0.21 -0.06,-0.24 0.04,-0.03 0.15,-0.02 0.24,0 0.02,-0.06 0.03,-0.13 0.05,-0.19 -0.07,-0.02 -0.21,-0.06 -0.22,-0.12 -0,-0.06 0.11,-0.12 0.18,-0.17l-0.11 -0.18c-0.08,0.05 -0.16,0.12 -0.23,0.07 -0.07,-0.05 -0.01,-0.16 -0,-0.25 -0.07,-0.02 -0.14,-0.03 -0.22,-0.05 -0.03,0.09 -0.07,0.18 -0.12,0.18 -0.05,0 -0.14,-0.06 -0.19,-0.13l-0.17 0.09c0.06,0.12 0.11,0.19 0.08,0.24 -0.03,0.04 -0.12,0.05 -0.26,0z"/>
    <ellipse class="fil9 str1" transform="matrix(0.0220065 0.0058966 -0.00609091 0.0227317 9.54417 2.53871)" rx="12.66" ry="12.26"/>
    <ellipse class="fil11 str1" transform="matrix(0.0186008 0.00498403 -0.00521121 0.0194486 9.54417 2.53871)" rx="5.29" ry="5.06"/>
   </g>
   <g>
    <path class="fil2 str1" d="M10.67 1.14c-0.02,0.07 -0.04,0.14 -0.07,0.2 0.15,0.06 0.24,0.11 0.24,0.15 -0,0.04 -0.06,0.07 -0.19,0.13 0.04,0.06 0.08,0.12 0.11,0.18 0.12,-0.06 0.22,-0.08 0.25,-0.05 0.03,0.03 0.02,0.11 -0.01,0.24 -0,0 0,0 0,0 0.03,0.01 0.13,0.03 0.2,0.05 0.02,-0.06 0.03,-0.19 0.11,-0.21 0.08,-0.02 0.13,0.1 0.19,0.16 0.06,-0.03 0.12,-0.06 0.18,-0.1 -0.04,-0.07 -0.1,-0.21 -0.06,-0.24 0.04,-0.03 0.15,-0.02 0.24,0 0.02,-0.06 0.03,-0.13 0.05,-0.19 -0.07,-0.02 -0.21,-0.06 -0.22,-0.12 -0,-0.06 0.11,-0.12 0.18,-0.17l-0.11 -0.18c-0.08,0.05 -0.16,0.12 -0.23,0.07 -0.07,-0.05 -0.01,-0.16 -0,-0.25 -0.07,-0.02 -0.14,-0.03 -0.22,-0.05 -0.03,0.09 -0.07,0.18 -0.12,0.18 -0.05,0 -0.14,-0.06 -0.19,-0.13l-0.17 0.09c0.06,0.12 0.11,0.19 0.08,0.24 -0.03,0.04 -0.12,0.05 -0.26,0z"/>
    <ellipse class="fil9 str1" transform="matrix(0.0220065 0.0058966 -0.00609091 0.0227317 11.2655 1.40271)" rx="12.66" ry="12.26"/>
    <ellipse class="fil13 str1" transform="matrix(0.0186008 0.00498403 -0.00521121 0.0194486 11.2655 1.40271)" rx="5.29" ry="5.06"/>
   </g>
   <g>
    <path class="fil2 str1" d="M1.16 1.14c-0.02,0.07 -0.04,0.14 -0.07,0.2 0.15,0.06 0.24,0.11 0.24,0.15 -0,0.04 -0.06,0.07 -0.19,0.13 0.04,0.06 0.08,0.12 0.11,0.18 0.12,-0.06 0.22,-0.08 0.25,-0.05 0.03,0.03 0.02,0.11 -0.01,0.24 -0,0 0,0 0,0 0.03,0.01 0.13,0.03 0.2,0.05 0.02,-0.06 0.03,-0.19 0.11,-0.21 0.08,-0.02 0.13,0.1 0.19,0.16 0.06,-0.03 0.12,-0.06 0.18,-0.1 -0.04,-0.07 -0.1,-0.21 -0.06,-0.24 0.04,-0.03 0.15,-0.02 0.24,0 0.02,-0.06 0.03,-0.13 0.05,-0.19 -0.07,-0.02 -0.21,-0.06 -0.22,-0.12 -0,-0.06 0.11,-0.12 0.18,-0.17l-0.11 -0.18c-0.08,0.05 -0.16,0.12 -0.23,0.07 -0.07,-0.05 -0.01,-0.16 -0,-0.25 -0.07,-0.02 -0.14,-0.03 -0.22,-0.05 -0.03,0.09 -0.07,0.18 -0.12,0.18 -0.05,0 -0.14,-0.06 -0.19,-0.13l-0.17 0.09c0.06,0.12 0.11,0.19 0.08,0.24 -0.03,0.04 -0.12,0.05 -0.26,0z"/>
    <ellipse class="fil9 str1" transform="matrix(0.0220065 0.0058966 -0.00609091 0.0227317 1.74793 1.40271)" rx="12.66" ry="12.26"/>
    <ellipse class="fil13 str1" transform="matrix(0.0186008 0.00498403 -0.00521121 0.0194486 1.74793 1.40271)" rx="5.29" ry="5.06"/>
   </g>
   <path class="fil6 str1" d="M6.39 0.64c-0.17,0.01 -0.3,0.16 -0.28,0.33 0.01,0.17 0.16,0.3 0.33,0.28 0.17,-0.01 0.3,-0.16 0.28,-0.33 -0.01,-0.17 -0.16,-0.3 -0.33,-0.28z"/>
   <path class="fil14 str1" d="M6.39 0.64c-0.17,0.01 -0.3,0.16 -0.28,0.33 0.01,0.17 0.16,0.3 0.33,0.28 0.17,-0.01 0.3,-0.16 0.28,-0.33 -0.01,-0.17 -0.16,-0.3 -0.33,-0.28z"/>
   <path class="fil15 str1" d="M7.7 2.55c-0.01,0.17 0.12,0.31 0.29,0.32 0.17,0.01 0.31,-0.12 0.32,-0.29 0.01,-0.17 -0.12,-0.31 -0.29,-0.32 -0.17,-0.01 -0.31,0.12 -0.32,0.29z"/>
   <line class="fil3 str1" x1="6.41" y1="3.41" x2="6.4" y2= "3.88" />
   <path class="fil16 str1" d="M6.43 4.49c0.17,-0.02 0.29,-0.17 0.28,-0.33 -0.02,-0.17 -0.17,-0.29 -0.33,-0.28 -0.17,0.02 -0.29,0.17 -0.28,0.33 0.02,0.17 0.17,0.29 0.33,0.28z"/>
   <path class="fil17 str1" d="M5.47 1.63c0.11,-0.13 0.1,-0.32 -0.02,-0.43 -0.13,-0.11 -0.32,-0.1 -0.43,0.02 -0.11,0.13 -0.1,0.32 0.02,0.43 0.13,0.11 0.32,0.1 0.43,-0.02z"/>
   <path class="fil18 str1" d="M5.45 3.45c-0.12,-0.12 -0.31,-0.12 -0.43,-0 -0.12,0.12 -0.12,0.31 -0,0.43 0.12,0.12 0.31,0.12 0.43,0 0.12,-0.12 0.12,-0.31 0,-0.43z"/>
   <path class="fil19 str1" d="M7.31 1.66c0.12,0.12 0.32,0.11 0.43,-0.01 0.12,-0.12 0.11,-0.32 -0.01,-0.43 -0.12,-0.12 -0.32,-0.11 -0.43,0.01 -0.12,0.12 -0.11,0.32 0.01,0.43z"/>
  </g>
 </g>
</svg>
