<?xml version="1.0" encoding="UTF-8"?>
<!DOCTYPE svg PUBLIC "-//W3C//DTD SVG 1.1//EN" "http://www.w3.org/Graphics/SVG/1.1/DTD/svg11.dtd">
<!-- Creator: CorelDRAW 2021 (64 Bit) -->
<svg xmlns="http://www.w3.org/2000/svg" xml:space="preserve" width="133.858mm" height="74.5914mm" version="1.1" style="shape-rendering:geometricPrecision; text-rendering:geometricPrecision; image-rendering:optimizeQuality; fill-rule:evenodd; clip-rule:evenodd"
viewBox="0 0 322.34 179.62"
 xmlns:xlink="http://www.w3.org/1999/xlink"
 xmlns:xodm="http://www.corel.com/coreldraw/odm/2003">
 <defs>
  <style type="text/css">
   <![CDATA[
    .fil2 {fill:black}
    .fil1 {fill:silver}
    .fil0 {fill:white}
   ]]>
  </style>
 </defs>
 <g id="Camada_x0020_1">
  <metadata id="CorelCorpID_0Corel-Layer"/>
  <g id="_2550501134624">
   <path class="fil0" d="M257.95 114.35c0.74,1.71 4.32,6.99 5.57,9.28 -1.68,1.35 -6.07,4.29 -6.45,5.3 2.18,0.98 4.71,2.08 7.38,2.76l-2.62 10.14c-2.77,-0.37 -4.81,-1.13 -7.84,-0.96 0.41,3.51 2.2,5.15 3.17,7.35 -0.58,0.55 -8.5,4.73 -9.5,4.96l-2.37 -3.14c-0.72,-1.08 -1.57,-2.65 -2.92,-2.83 -1.1,1.84 -1.81,4.91 -2.45,7.32 -0.8,-0.02 -7.83,-1.59 -8.63,-1.91 -1.5,-0.61 -1.77,-1.82 -1.37,-3.64 0.34,-1.57 0.65,-3.05 0.65,-4.71 -3.12,0.13 -5.31,2.15 -7.78,2.63 -0.43,-1.19 -2.07,-3.57 -2.83,-4.77 -0.62,-0.98 -2.54,-3.79 -2.8,-4.71 0.73,-0.54 2.47,-1.2 3.39,-1.66 1.23,-0.61 2.25,-1.14 3.27,-1.77 -0.7,-1.17 -6.12,-3.43 -7.97,-3.87l3.33 -10.6c2.61,0.59 5.26,1.84 8.28,1.32 0.03,-1.42 -3.03,-5.94 -3.65,-7.75l8.97 -4.66c1.32,1.57 3.25,4.48 5.61,4.8 0.42,-0.9 1.01,-1.77 1.48,-3.01 0.41,-1.1 0.75,-2.34 1.14,-3.32 2.07,0.46 9.34,1.8 10.65,2.58 -0.06,4.1 -2.1,8.14 -0.45,8.47 1.33,0.26 5.25,-3.03 6.72,-3.6zm-160.09 0.05c0.61,0.61 5.4,8.42 5.75,9.44 -1.01,0.53 -2.12,1.58 -3.29,2.38 -0.57,0.39 -1.23,0.76 -1.7,1.17 -0.57,0.49 -1.04,1.09 -1.47,1.35 1.14,1.08 5.51,2.41 7.38,3l-2.64 10.11c-2.68,-0.46 -4.91,-1.13 -7.82,-0.99 0.4,3.54 2.49,5.7 3.17,7.36 -0.5,0.48 -8.61,4.77 -9.5,4.98 -0.64,-1.02 -1.58,-1.96 -2.35,-3.12 -0.68,-1.01 -1.55,-2.69 -2.94,-2.9 -0.86,1.22 -1.98,5.49 -2.45,7.38 -1.58,-0.24 -7.52,-1.47 -8.74,-1.99 -2.77,-1.16 -0.6,-4.3 -0.61,-8.34 -3.27,0.29 -5.17,2.05 -7.77,2.68 -0.57,-1.72 -5.13,-7.92 -5.63,-9.51 1.94,-1.27 4.98,-1.97 6.6,-3.47 -0.74,-1.37 -6.65,-3.33 -7.91,-3.97l3.34 -10.47c2.49,0.59 5.47,1.93 8.29,1.3 -0.02,-1.7 -3.09,-5.69 -3.67,-7.75l9.11 -4.7c0.81,1.55 3.27,4.44 5.26,4.86 1.84,-1.72 1.68,-4.3 2.85,-6.27 1.43,0.19 9.84,2.03 10.63,2.54 -0.07,4.09 -2.15,8.26 -0.41,8.48 1.11,0.14 5.42,-2.98 6.5,-3.57zm-18.55 -77.5c1.28,-0.95 2.38,-4.32 2.82,-6.36l10.76 2.42c-0.18,3.64 -1.65,7.49 -0.85,8.33 1.08,1.14 4.74,-2.02 6.92,-3.28 0.99,1.43 1.9,2.97 2.86,4.52 0.88,1.41 2.15,3.3 2.84,4.77 -0.03,0.04 -0.08,0.09 -0.11,0.12 -1.22,1.27 -4.68,3.27 -6.25,4.98 1.39,1.67 5.19,1.81 7.33,3.07l-2.59 10.03c-2.58,-0.37 -4.99,-1.18 -7.75,-0.97 -0.37,2.09 2.32,6.03 3.09,7.37 -1.41,0.91 -3.14,1.68 -4.63,2.5 -1.42,0.78 -3.23,1.83 -4.67,2.43 -0.79,-0.6 -1.91,-2.07 -2.59,-3.09 -0.68,-1.02 -1.74,-2.67 -3.04,-2.87 -1.06,2.16 -1.54,4.76 -2.41,7.33 -0.84,-0.06 -8,-1.65 -8.67,-1.95 -2.92,-1.31 -0.5,-4.34 -0.65,-8.33 -2.65,0.16 -5.27,1.8 -7.52,2.64 -0.64,-0.68 -5.64,-8.69 -5.92,-9.58 1.73,-0.6 5.83,-2.4 6.72,-3.52 -3.64,-2.31 -6.87,-3.08 -7.97,-3.85l3.28 -10.43c2.1,0.44 5.94,2 8.13,1.32 0.89,-0.67 -2.64,-5.29 -3.44,-7.68l8.99 -4.67c1.19,1.23 2.55,3.91 5.3,4.75zm84.34 20.45c3.59,0.26 6.88,1.33 9.8,2.65 3.99,1.79 4.72,3.08 7.6,5.03 0.83,-0.43 8.49,-7.94 8.49,-7.94 -0.65,-1.38 -1.23,-2.02 -1.72,-3.9 -3.2,-12.29 12.13,-20.55 20.63,-11.67 6.95,7.26 2.89,19.21 -6.99,20.68 -3.47,0.52 -6.8,-0.69 -8.99,-2.13 -1.36,1.38 -2.97,2.43 -4.28,3.95l-4.21 4.08c1.35,2.46 2.33,2.63 4.38,7.38 1.31,3.04 1.88,5.93 2.27,9.52l11.75 -0.01c0.38,-2.96 1.62,-6.01 3.75,-7.92 8.06,-7.22 19.97,-1.93 20.69,8 0.99,13.65 -17.63,18.23 -23.33,6.06 -0.29,-0.63 -0.4,-1.66 -1.02,-2.05l-11.86 0c-0.34,5.32 -1.92,9.59 -4.51,13.81 -0.52,0.85 -2,3.07 -2.47,3.42l8.44 8.28c2.44,-0.82 4.35,-2.62 9.28,-1.53 3.15,0.69 5.76,2.61 6.98,4.44 1.67,2.51 2.94,4.91 2.5,8.91 -0.4,3.61 -2.17,5.94 -3.95,7.67 -6.62,6.41 -19.29,2.66 -20.4,-7.77 -0.44,-4.16 0.99,-6.28 2.48,-8.86 -0.32,-0.39 -0.6,-0.6 -0.98,-0.99l-3.01 -3.1c-1.17,-1.12 -3.23,-2.88 -4.11,-4.03 -3.15,2.12 -3.23,2.82 -7.83,4.97 -4.94,2.31 -6.95,1.71 -10.22,2.62l-0.51 11.53c5.51,1.16 10.37,6.76 9.31,13.81 -0.88,5.86 -6.19,10.77 -12.97,10.31 -14.26,-0.96 -15.8,-22.15 -0.5,-24.4l0.59 -11.37c-3.75,-0.22 -7.25,-1.23 -10.27,-2.62 -5.07,-2.34 -4.67,-3.04 -7.77,-5.06l-8.38 7.93c1.45,2.78 2.8,4.94 2.18,9.09 -0.47,3.16 -2.38,6.14 -4,7.42 -8.84,6.95 -19.4,1.04 -20.31,-7.96 -0.62,-6.17 3.41,-11.92 9.71,-13.25 4.28,-0.9 6.41,0.42 9.39,1.79 1.19,-1.01 3.25,-2.75 4.22,-3.88 0.77,-0.89 3.45,-3.39 4.28,-3.89 -0.39,-1.64 -6,-6.74 -6.67,-17.26l-11.67 -0.01c-0.91,5.76 -6.17,10.64 -12.97,10.18 -6.23,-0.42 -11.33,-5.66 -11.34,-12.2 -0.01,-14.49 21.3,-17.23 24.34,-2.06l11.62 -0.01c0.57,-5.39 2.39,-11.53 5.77,-15.64 0.52,-0.63 1.04,-1.21 1.4,-1.87l-8.36 -8.2c-2.75,1.49 -5.29,2.52 -9.12,1.81 -3.09,-0.58 -5.96,-2.53 -7.19,-4.21 -8.85,-12.07 5.29,-26.38 17.5,-17.1 1.67,1.27 3.57,4.21 4.07,7.32 0.8,4.95 -1.26,7.01 -2.22,9.43l8.32 7.96c2.8,-1.85 3.72,-3.19 7.89,-4.9 5.93,-2.45 8.68,-1.82 10.37,-2.49l0.3 -11.85c-2.25,-1.19 -4.83,-0.9 -7.97,-5.23 -4.15,-5.74 -2.3,-14.37 4.33,-17.83 6.37,-3.33 14.42,-0.56 17.17,6.53 1.37,3.51 0.88,7.79 -0.99,10.67 -4.18,6.43 -8.2,4.46 -8.49,6.3l-0.19 11.65zm75.78 -20.43c1.02,-1.72 2.07,-3.87 2.61,-6.38l10.76 2.48c-0.18,3.3 -0.52,3.79 -1.02,6.51 -0.94,5.11 5.3,-0.79 7.16,-1.44l5.64 9.22c-1.56,1.69 -5.57,3.8 -6.39,5.08 1.67,1.65 5.27,1.87 7.36,3.09l-2.59 9.96c-2.37,0.04 -4.81,-1.2 -7.78,-0.88 -0.3,2.46 2.38,5.7 3.11,7.43l-9.45 4.88c-0.75,-0.74 -1.71,-2.14 -2.44,-3.16 -0.73,-1.01 -1.52,-2.45 -2.76,-2.82 -1.31,0.96 -2.02,5.41 -2.69,7.37 -1.59,-0.28 -7.47,-1.48 -8.7,-2.02 -0.78,-0.34 -1.03,-0.49 -1.27,-1.4 -0.54,-2.05 0.8,-3.6 0.66,-6.92 -3.11,0.28 -5.92,2.27 -7.58,2.63 -0.92,-1.05 -4.59,-7.41 -5.86,-9.32 1.08,-1.23 5.74,-2.21 6.72,-3.81 -1.1,-0.6 -2.37,-1.41 -3.82,-2.03 -0.9,-0.39 -3.54,-1.26 -4.15,-1.75l3.28 -10.38c2.44,0.16 5.03,1.89 8.11,1.31 0.38,-0.63 -0.04,-1.23 -0.47,-2.07l-2.91 -5.57c0.56,-0.5 8.33,-4.58 9.16,-4.79 0.59,1.44 3.36,4.48 5.3,4.8zm-217.73 -20.23c-3.91,1.13 -5.25,3.62 -5.24,8.39l0 122.74c0,3.96 -0.75,9.42 1.3,12.42 2.34,3.44 5.47,2.98 10.59,2.98l259.13 0c2.83,0 11.22,0.33 13.32,-0.23 4.21,-1.12 5.17,-4.38 5.17,-8.24l-0 -122.74c0,-3.94 0.69,-9.48 -1.15,-12.45 -2.07,-3.34 -5.6,-3.14 -10.61,-3.14l-259.13 0c-2.78,0 -11.31,-0.33 -13.37,0.27z"/>
   <path class="fil1" d="M21.7 16.69c2.06,-0.59 10.6,-0.27 13.37,-0.27l259.13 0c5.01,0 8.55,-0.21 10.61,3.14 1.84,2.97 1.15,8.51 1.15,12.45l0 122.74c0.01,3.86 -0.95,7.12 -5.17,8.24 -2.11,0.56 -10.5,0.23 -13.32,0.23l-259.13 0c-5.11,0 -8.25,0.45 -10.59,-2.98 -2.04,-3 -1.3,-8.45 -1.3,-12.42l-0 -122.74c-0.01,-4.77 1.33,-7.26 5.24,-8.39zm-21.7 8.18l0 129.87c0,3.88 0.59,7.48 1.77,10.26 1.14,2.69 2.83,5.29 4.8,7.43 4.11,4.46 10.83,7.18 17.08,7.18l275.04 0c7.2,0 12.95,-3.04 16.57,-6.68 4.18,-4.2 7.08,-9.81 7.08,-16.36l0 -133.54c0,-12.54 -10.46,-23.04 -24.06,-23.04l-274.42 0c-13.98,0 -23.85,10.71 -23.85,24.87z"/>
   <path class="fil2" d="M151.34 141.09c-0.38,-4.7 3.14,-8.5 7.34,-8.89 4.75,-0.45 8.49,3.08 8.92,7.25 0.5,4.78 -3.09,8.62 -7.34,9.01 -4.81,0.44 -8.57,-3.09 -8.92,-7.38zm46.03 -24.14c4.84,-0.82 8.63,2.71 9.32,6.64 1.89,10.83 -14.42,13.34 -16.12,2.68 -0.77,-4.83 2.76,-8.63 6.81,-9.32zm-76.78 -0.56c10.55,-2.54 14.02,13.53 3.55,15.91 -10.3,2.34 -14.26,-13.34 -3.55,-15.91zm53.04 -7.07c-2.56,2.04 -8.74,3.46 -12.77,3.46 -3.68,0 -10.77,-1.49 -12.81,-3.55l25.58 0.09zm-25.4 -15.12c0,-1.57 0.62,-2.34 2.23,-2.34l21.41 0c1.7,0 2.31,0.64 2.31,2.34 0,2.28 0.14,9.19 -0.08,10.96l-2.17 -0.05 -0.04 -8.04 -4.05 0.06 -0.08 8.03 -12.36 -0.02 -0.04 -7.55 -4.08 0.03 -0.07 7.54 -2.97 -0.01 -0.04 -10.95zm-42.52 -15.12c10.53,-2.15 13.78,13.47 3.55,15.91 -10.8,2.57 -14.19,-13.74 -3.55,-15.91zm38.36 27.47c-0.37,-0.41 -0.86,-0.73 -1.31,-1.17 -2.94,-2.84 -5.31,-6.82 -6.55,-10.79 -4.81,-15.4 6.19,-32.88 24.04,-33.29 21.29,-0.49 32.97,23.12 22.4,39.4 -2.64,4.07 -2.92,3.32 -4.35,5.21 -0.45,-4.88 1.18,-12.95 -1.52,-16.22 -1.55,-1.87 -4.05,-1.91 -7.15,-1.91l-17.74 -0c-3.43,-0 -4.92,0.29 -6.55,2.32 -2.42,3.02 -0.49,12.08 -1.28,16.45zm68.78 -28.54c4.85,-1.12 8.95,2.4 9.74,6.26 1.03,5 -2.34,8.78 -6.13,9.66 -10.58,2.46 -14.27,-13.46 -3.61,-15.92zm-15.03 -35.85c5.02,-1.21 8.9,2.24 9.8,6.08 1.17,5.05 -2.39,8.98 -6.22,9.83 -10.45,2.31 -14.04,-13.38 -3.58,-15.91zm-76.65 -1.01c4.88,-1.22 8.96,2.29 9.82,6.05 1.17,5.09 -2.36,9.01 -6.25,9.86 -4.95,1.08 -8.78,-2.35 -9.67,-6.16 -1.18,-5.05 2.29,-8.8 6.1,-9.75zm39.33 -16.12c10.66,-1.83 13.2,14.08 2.91,16.06 -4.95,0.95 -8.86,-2.56 -9.59,-6.52 -0.94,-5.04 2.64,-8.85 6.69,-9.54zm3.33 20.68c0.3,-1.84 4.32,0.13 8.49,-6.3 1.87,-2.87 2.36,-7.16 0.99,-10.67 -2.76,-7.09 -10.81,-9.86 -17.17,-6.53 -6.63,3.47 -8.49,12.09 -4.33,17.83 3.13,4.33 5.71,4.04 7.97,5.23l-0.3 11.85c-1.69,0.67 -4.44,0.05 -10.37,2.49 -4.16,1.72 -5.08,3.05 -7.89,4.9l-8.32 -7.96c0.96,-2.43 3.02,-4.48 2.22,-9.43 -0.5,-3.11 -2.4,-6.05 -4.07,-7.32 -12.21,-9.29 -26.35,5.03 -17.5,17.1 1.23,1.68 4.1,3.63 7.19,4.21 3.83,0.72 6.37,-0.31 9.12,-1.81l8.36 8.2c-0.36,0.65 -0.88,1.24 -1.4,1.87 -3.38,4.11 -5.2,10.26 -5.77,15.64l-11.62 0.01c-3.04,-15.17 -24.36,-12.43 -24.34,2.06 0.01,6.54 5.12,11.78 11.34,12.2 6.8,0.46 12.06,-4.42 12.97,-10.18l11.67 0.01c0.66,10.52 6.28,15.63 6.67,17.26 -0.83,0.51 -3.51,3.01 -4.28,3.89 -0.97,1.13 -3.03,2.87 -4.22,3.88 -2.98,-1.37 -5.11,-2.7 -9.39,-1.79 -6.3,1.33 -10.33,7.08 -9.71,13.25 0.91,9 11.47,14.91 20.31,7.96 1.63,-1.28 3.53,-4.26 4,-7.42 0.62,-4.15 -0.74,-6.31 -2.18,-9.09l8.38 -7.93c3.09,2.02 2.69,2.72 7.77,5.06 3.01,1.39 6.51,2.4 10.27,2.62l-0.59 11.37c-15.3,2.25 -13.76,23.44 0.5,24.4 6.78,0.46 12.09,-4.45 12.97,-10.31 1.06,-7.05 -3.8,-12.65 -9.31,-13.81l0.51 -11.53c3.27,-0.9 5.28,-0.31 10.22,-2.62 4.6,-2.15 4.68,-2.85 7.83,-4.97 0.88,1.15 2.94,2.91 4.11,4.03l3.01 3.1c0.39,0.39 0.66,0.6 0.98,0.99 -1.49,2.59 -2.92,4.71 -2.48,8.86 1.12,10.44 13.79,14.18 20.4,7.77 1.79,-1.73 3.55,-4.06 3.95,-7.67 0.45,-4.01 -0.83,-6.4 -2.5,-8.91 -1.22,-1.83 -3.83,-3.74 -6.98,-4.44 -4.93,-1.09 -6.83,0.71 -9.28,1.53l-8.44 -8.28c0.47,-0.35 1.95,-2.58 2.47,-3.42 2.59,-4.23 4.17,-8.5 4.51,-13.81l11.86 0c0.62,0.4 0.73,1.43 1.02,2.05 5.71,12.17 24.32,7.59 23.33,-6.06 -0.72,-9.93 -12.63,-15.22 -20.69,-8 -2.13,1.91 -3.37,4.96 -3.75,7.92l-11.75 0.01c-0.4,-3.59 -0.96,-6.48 -2.27,-9.52 -2.05,-4.75 -3.02,-4.92 -4.38,-7.38l4.21 -4.08c1.31,-1.52 2.92,-2.56 4.28,-3.95 2.19,1.44 5.52,2.65 8.99,2.13 9.87,-1.47 13.93,-13.42 6.99,-20.68 -8.5,-8.89 -23.83,-0.62 -20.63,11.67 0.49,1.87 1.07,2.52 1.72,3.9 -0,0 -7.65,7.51 -8.49,7.94 -2.87,-1.94 -3.61,-3.24 -7.6,-5.03 -2.93,-1.31 -6.22,-2.39 -9.8,-2.65l0.19 -11.65z"/>
   <path class="fil2" d="M238.82 123.3c9.62,-2.03 12.85,12.65 3.06,14.79 -9.69,2.11 -13.12,-12.67 -3.06,-14.79zm-7.05 -9.67c1.01,1.12 4.15,4.02 6.99,3.69 2.36,-0.27 4.24,-3.36 4.89,-5.6 0.95,0.14 2.86,0.54 3.58,0.88 -0.8,3.26 -1.33,6.78 1.14,8.47 3.25,2.22 5.57,0.31 8.12,-0.97 0.44,0.37 1.38,2 1.63,2.65l-3.43 2.46c-4.01,3.59 -1.27,7.47 4.85,9.14 -0.14,0.89 -0.43,2.07 -0.81,2.71 -3.05,-0.28 -6.89,-0.9 -8.27,1.46 -1.5,2.57 0.31,5.88 1.09,8.12l-2.61 1.33c-1.17,-0.96 -2.69,-5.2 -6.72,-4.86 -3.06,0.26 -4.64,3.38 -5.13,6.62l-2.91 -0.63c-0.17,-2.96 1.82,-6.03 -1.17,-8.22 -2.63,-1.91 -6.14,0.27 -8.56,0.83 -0.4,-0.97 -1.16,-1.69 -1.44,-2.68 8.83,-3.35 5.26,-9.17 -2.13,-11.33l0.96 -3.19c2.04,0.19 5.26,1.13 7.57,-0.12l1.27 -0.98c2.68,-2.68 -0.65,-6.44 -1.29,-8.6l2.38 -1.19zm-2.96 19.09c0.96,5.6 6.53,10.71 13.46,9.45 5.73,-1.04 10.69,-6.44 9.48,-13.49 -1.33,-7.76 -10.49,-12.43 -17.71,-7.81 -1.2,0.76 -1.78,1.41 -2.7,2.41 -1.96,2.12 -3.16,5.76 -2.53,9.44zm29.15 -18.38c-1.47,0.57 -5.39,3.86 -6.72,3.6 -1.65,-0.32 0.39,-4.36 0.45,-8.47 -1.31,-0.79 -8.58,-2.12 -10.65,-2.58 -0.4,0.98 -0.73,2.22 -1.14,3.32 -0.46,1.24 -1.06,2.11 -1.48,3.01 -2.36,-0.32 -4.29,-3.24 -5.61,-4.8l-8.97 4.66c0.62,1.8 3.68,6.32 3.65,7.75 -3.03,0.52 -5.67,-0.73 -8.28,-1.32l-3.33 10.6c1.85,0.44 7.27,2.7 7.97,3.87 -1.03,0.63 -2.04,1.16 -3.27,1.77 -0.92,0.46 -2.67,1.12 -3.39,1.66 0.26,0.92 2.18,3.73 2.8,4.71 0.76,1.2 2.4,3.58 2.83,4.77 2.46,-0.48 4.66,-2.5 7.78,-2.63 0,1.67 -0.31,3.14 -0.65,4.71 -0.4,1.82 -0.13,3.03 1.37,3.64 0.8,0.32 7.82,1.89 8.63,1.91 0.64,-2.41 1.35,-5.48 2.45,-7.32 1.34,0.18 2.19,1.75 2.92,2.83l2.37 3.14c1,-0.23 8.92,-4.4 9.5,-4.96 -0.97,-2.2 -2.76,-3.84 -3.17,-7.35 3.04,-0.18 5.08,0.59 7.84,0.96l2.62 -10.14c-2.67,-0.68 -5.2,-1.78 -7.38,-2.76 0.39,-1.01 4.77,-3.95 6.45,-5.3 -1.25,-2.28 -4.83,-7.57 -5.57,-9.28z"/>
   <path class="fil0" d="M159.68 63.13c7.03,-0.8 12.66,4.58 13.39,10.69 0.86,7.22 -4.48,12.99 -10.77,13.67 -7.29,0.78 -12.91,-4.5 -13.58,-10.9 -0.75,-7.24 4.6,-12.73 10.96,-13.45zm-15.61 43.41c0.79,-4.38 -1.14,-13.43 1.28,-16.45 1.62,-2.03 3.12,-2.32 6.55,-2.32l17.74 0c3.11,-0 5.6,0.04 7.15,1.91 2.7,3.26 1.07,11.34 1.52,16.22 1.42,-1.9 1.71,-1.15 4.35,-5.21 10.56,-16.28 -1.12,-39.89 -22.4,-39.4 -17.85,0.41 -28.85,17.89 -24.04,33.29 1.24,3.97 3.61,7.95 6.55,10.79 0.45,0.44 0.94,0.76 1.31,1.17z"/>
   <path class="fil2" d="M71.77 113.67c1.25,1.03 3.97,3.9 6.88,3.68 2.57,-0.19 4.38,-3.18 5.09,-5.66l3.57 0.78c-0.55,3.89 -1.7,6.3 1.32,8.7 1.09,0.87 2.74,1.08 4.28,0.69 1.63,-0.42 2.71,-1.43 3.78,-1.76l1.53 2.45c-0.55,0.62 -1.02,0.86 -1.68,1.31 -1.56,1.07 -3.82,3.09 -3.59,5.4 0.17,1.74 1.58,2.78 2.71,3.45 0.81,0.47 3.56,1.45 3.94,1.86l-0.6 2.54c-2.94,-0.31 -7.16,-0.89 -8.44,1.36 -1.72,3.03 0.71,5.97 1.02,8.28l-2.68 1.28c-1.18,-2.32 -3.74,-5.33 -6.89,-4.86 -3.84,0.58 -4.3,5.6 -5,6.57l-2.74 -0.7c0.05,-1.53 0.58,-2.93 0.5,-4.68 -0.32,-7.19 -8.68,-2.96 -10.16,-2.64l-1.46 -2.47 1.95 -1.18c0.57,-0.33 1.48,-0.9 1.85,-1.21 0.85,-0.71 1.91,-2.59 1.13,-4.31 -1.02,-2.24 -4.49,-3.69 -7.06,-4.94l0.92 -3.11c3.48,0.55 7.44,1.2 9.16,-1.42 1.99,-3.03 -0.89,-5.96 -1.6,-8.26l2.28 -1.15zm26.1 0.73c-1.08,0.59 -5.39,3.71 -6.5,3.57 -1.74,-0.23 0.34,-4.39 0.41,-8.48 -0.79,-0.51 -9.2,-2.36 -10.63,-2.54 -1.17,1.97 -1.02,4.55 -2.85,6.27 -1.98,-0.42 -4.44,-3.31 -5.26,-4.86l-9.11 4.7c0.57,2.06 3.64,6.05 3.67,7.75 -2.82,0.64 -5.8,-0.71 -8.29,-1.3l-3.34 10.47c1.26,0.63 7.17,2.6 7.91,3.97 -1.62,1.5 -4.66,2.2 -6.6,3.47 0.5,1.59 5.06,7.79 5.63,9.51 2.61,-0.63 4.51,-2.39 7.77,-2.68 0.01,4.04 -2.17,7.18 0.61,8.34 1.22,0.51 7.16,1.74 8.74,1.99 0.47,-1.89 1.59,-6.16 2.45,-7.38 1.38,0.21 2.26,1.88 2.94,2.9 0.77,1.16 1.71,2.1 2.35,3.12 0.89,-0.21 8.99,-4.5 9.5,-4.98 -0.67,-1.66 -2.77,-3.82 -3.17,-7.36 2.91,-0.14 5.14,0.53 7.82,0.99l2.64 -10.11c-1.87,-0.59 -6.24,-1.92 -7.38,-3 0.43,-0.26 0.9,-0.86 1.47,-1.35 0.47,-0.41 1.13,-0.77 1.7,-1.17 1.16,-0.8 2.27,-1.86 3.29,-2.38 -0.36,-1.02 -5.14,-8.83 -5.75,-9.44z"/>
   <path class="fil2" d="M232.83 37.35c1.06,1.1 4.15,3.93 6.93,3.65 3.25,-0.33 3.77,-3.67 5.1,-5.57 1.04,0.14 2.64,0.35 3.41,0.87 -0.29,1.92 -1.87,6.54 1.16,8.47 3.85,2.45 6.56,-0.49 8.35,-1.04 0.33,1.04 1.11,1.65 1.36,2.75 -3.96,2.48 -8.05,6.2 -2.68,9.81 1.3,0.87 2.75,1.07 4.13,1.84l-0.64 2.66c-2.96,-0.34 -7.07,-0.91 -8.4,1.39 -1.58,2.72 0.39,5.91 1.06,8.22l-2.63 1.32c-1.27,-1.81 -3.39,-5.26 -6.77,-4.9 -3.02,0.32 -4.54,3.45 -5.07,6.63l-2.98 -0.61c0.47,-3.19 1.34,-7.07 -1.29,-8.44 -2.94,-1.53 -5.74,0.38 -8.26,1.02l-1.56 -2.64c8.49,-3.43 5.85,-8.75 -2.1,-11.41l1.07 -3.17c3.14,0.49 7.39,1.1 8.97,-1.3 1.98,-3 -0.55,-6.02 -1.57,-8.34l2.4 -1.19zm6.59 -0.43c-1.94,-0.33 -4.7,-3.36 -5.3,-4.8 -0.83,0.2 -8.6,4.29 -9.16,4.79l2.91 5.57c0.44,0.83 0.86,1.43 0.47,2.07 -3.08,0.59 -5.67,-1.15 -8.11,-1.31l-3.28 10.38c0.61,0.5 3.25,1.36 4.15,1.75 1.45,0.62 2.72,1.43 3.82,2.03 -0.99,1.6 -5.65,2.58 -6.72,3.81 1.28,1.91 4.94,8.27 5.86,9.32 1.66,-0.36 4.47,-2.35 7.58,-2.63 0.14,3.32 -1.2,4.87 -0.66,6.92 0.24,0.91 0.49,1.05 1.27,1.4 1.23,0.54 7.1,1.75 8.7,2.02 0.67,-1.95 1.38,-6.41 2.69,-7.37 1.23,0.36 2.03,1.8 2.76,2.82 0.73,1.02 1.69,2.42 2.44,3.16l9.45 -4.88c-0.73,-1.72 -3.41,-4.97 -3.11,-7.43 2.97,-0.31 5.41,0.93 7.78,0.88l2.59 -9.96c-2.09,-1.22 -5.7,-1.44 -7.36,-3.09 0.82,-1.28 4.83,-3.39 6.39,-5.08l-5.64 -9.22c-1.86,0.65 -8.1,6.54 -7.16,1.44 0.5,-2.71 0.84,-3.2 1.02,-6.51l-10.76 -2.48c-0.54,2.51 -1.59,4.67 -2.61,6.38z"/>
   <path class="fil2" d="M73.06 37.3c0.96,1.19 4.07,4.01 6.85,3.69 2.35,-0.26 4.36,-3.25 4.88,-5.63l3.55 0.76c-0.13,3.57 -2.03,5.95 1.16,8.54 1.17,0.95 2.65,1.3 4.39,0.89 1.73,-0.4 2.49,-1.26 3.86,-1.84l1.5 2.57c-0.44,0.56 -2.69,2.08 -3.37,2.7 -0.81,0.74 -2.05,2.18 -1.85,3.99 0.31,2.83 3.91,4.15 6.71,5.07l-0.67 2.68c-3.08,-0.08 -6.66,-0.97 -8.37,1.4 -1.76,2.44 0.4,6.06 1.04,8.21l-2.62 1.31c-1.13,-1.14 -3.07,-5.32 -6.94,-4.84 -2.96,0.37 -4.28,3.58 -4.94,6.61l-2.97 -0.67c0.46,-3.12 1.19,-6.89 -1.24,-8.35 -2.63,-1.6 -5.99,0.4 -8.34,1 -0.49,-0.8 -1.2,-1.82 -1.52,-2.68 2.36,-0.81 6.36,-3.2 5,-6.5 -0.72,-1.74 -4.75,-4.24 -7.1,-4.84l1.02 -3.18c3.36,0.38 6.99,1.24 8.95,-1.24 2.22,-2.81 -0.64,-6.2 -1.49,-8.47l2.52 -1.18zm6.25 -0.4c-2.76,-0.84 -4.11,-3.52 -5.3,-4.75l-8.99 4.67c0.8,2.39 4.33,7.01 3.44,7.68 -2.19,0.68 -6.03,-0.88 -8.13,-1.32l-3.28 10.43c1.11,0.77 4.33,1.54 7.97,3.85 -0.9,1.12 -4.99,2.91 -6.72,3.52 0.28,0.88 5.29,8.9 5.92,9.58 2.25,-0.84 4.87,-2.48 7.52,-2.64 0.15,3.99 -2.28,7.03 0.65,8.33 0.67,0.3 7.83,1.89 8.67,1.95 0.87,-2.57 1.35,-5.17 2.41,-7.33 1.29,0.2 2.35,1.85 3.04,2.87 0.68,1.01 1.8,2.48 2.59,3.09 1.44,-0.6 3.24,-1.65 4.67,-2.43 1.49,-0.82 3.22,-1.59 4.63,-2.5 -0.77,-1.34 -3.46,-5.28 -3.09,-7.37 2.75,-0.21 5.17,0.61 7.75,0.97l2.59 -10.03c-2.14,-1.26 -5.94,-1.4 -7.33,-3.07 1.57,-1.71 5.03,-3.71 6.25,-4.98 0.02,-0.03 0.07,-0.08 0.11,-0.12 -0.69,-1.47 -1.97,-3.36 -2.84,-4.77 -0.96,-1.55 -1.86,-3.08 -2.86,-4.52 -2.18,1.26 -5.84,4.42 -6.92,3.28 -0.8,-0.84 0.67,-4.7 0.85,-8.33l-10.76 -2.42c-0.44,2.03 -1.54,5.4 -2.82,6.36z"/>
   <path class="fil0" d="M79.18 42.98c7.05,-1.44 12.61,3.5 13.7,9.09 1.37,7.05 -3.45,12.52 -8.97,13.68 -7.03,1.48 -12.61,-3.35 -13.81,-8.81 -0.77,-3.52 0.21,-7.14 1.92,-9.39 1.62,-2.14 3.6,-3.84 7.17,-4.57zm-6.12 -5.68l-2.52 1.18c0.85,2.27 3.71,5.66 1.49,8.47 -1.96,2.48 -5.6,1.62 -8.95,1.24l-1.02 3.18c2.35,0.6 6.39,3.1 7.1,4.84 1.36,3.3 -2.63,5.69 -5,6.5 0.32,0.87 1.03,1.89 1.52,2.68 2.35,-0.6 5.71,-2.6 8.34,-1 2.42,1.47 1.69,5.24 1.24,8.35l2.97 0.67c0.66,-3.04 1.98,-6.24 4.94,-6.61 3.87,-0.49 5.8,3.7 6.94,4.84l2.62 -1.31c-0.65,-2.15 -2.8,-5.78 -1.04,-8.21 1.71,-2.37 5.3,-1.48 8.37,-1.4l0.67 -2.68c-2.8,-0.92 -6.4,-2.24 -6.71,-5.07 -0.2,-1.81 1.04,-3.25 1.85,-3.99 0.68,-0.62 2.93,-2.14 3.37,-2.7l-1.5 -2.57c-1.36,0.58 -2.13,1.43 -3.86,1.84 -1.74,0.4 -3.22,0.06 -4.39,-0.89 -3.19,-2.6 -1.29,-4.97 -1.16,-8.54l-3.55 -0.76c-0.52,2.38 -2.53,5.37 -4.88,5.63 -2.78,0.31 -5.9,-2.5 -6.85,-3.69z"/>
   <path class="fil0" d="M228.81 132.73c-0.63,-3.68 0.57,-7.32 2.53,-9.44 0.92,-1 1.5,-1.64 2.7,-2.41 7.22,-4.62 16.39,0.05 17.71,7.81 1.21,7.06 -3.76,12.45 -9.48,13.49 -6.93,1.26 -12.5,-3.85 -13.46,-9.45zm2.96 -19.09l-2.38 1.19c0.63,2.16 3.97,5.92 1.29,8.6l-1.27 0.98c-2.3,1.25 -5.52,0.32 -7.57,0.12l-0.96 3.19c7.39,2.16 10.96,7.98 2.13,11.33 0.28,1 1.04,1.71 1.44,2.68 2.42,-0.56 5.93,-2.74 8.56,-0.83 2.99,2.18 1,5.26 1.17,8.22l2.91 0.63c0.5,-3.24 2.07,-6.37 5.13,-6.62 4.03,-0.34 5.55,3.89 6.72,4.86l2.61 -1.33c-0.78,-2.24 -2.59,-5.55 -1.09,-8.12 1.38,-2.36 5.22,-1.74 8.27,-1.46 0.38,-0.64 0.67,-1.83 0.81,-2.71 -6.12,-1.67 -8.86,-5.55 -4.85,-9.14l3.43 -2.46c-0.25,-0.65 -1.19,-2.28 -1.63,-2.65 -2.55,1.28 -4.87,3.19 -8.12,0.97 -2.48,-1.69 -1.95,-5.21 -1.14,-8.47 -0.72,-0.34 -2.63,-0.74 -3.58,-0.88 -0.65,2.24 -2.53,5.33 -4.89,5.6 -2.84,0.33 -5.98,-2.57 -6.99,-3.69z"/>
   <path class="fil0" d="M78.85 119.15c6.83,-0.98 12.29,4.18 13.07,9.94 0.93,6.93 -4.1,12.4 -10.01,13.15 -6.91,0.88 -12.29,-4.15 -13.08,-10.06 -0.92,-6.88 4.15,-12.2 10.03,-13.04zm-7.08 -5.49l-2.28 1.15c0.71,2.3 3.59,5.23 1.6,8.26 -1.72,2.62 -5.68,1.97 -9.16,1.42l-0.92 3.11c2.57,1.25 6.04,2.7 7.06,4.94 0.78,1.72 -0.28,3.6 -1.13,4.31 -0.37,0.31 -1.28,0.88 -1.85,1.21l-1.95 1.18 1.46 2.47c1.48,-0.32 9.84,-4.55 10.16,2.64 0.08,1.75 -0.45,3.16 -0.5,4.68l2.74 0.7c0.7,-0.97 1.17,-5.99 5,-6.57 3.15,-0.47 5.71,2.53 6.89,4.86l2.68 -1.28c-0.31,-2.31 -2.74,-5.25 -1.02,-8.28 1.28,-2.25 5.5,-1.67 8.44,-1.36l0.6 -2.54c-0.38,-0.41 -3.14,-1.38 -3.94,-1.86 -1.13,-0.67 -2.54,-1.7 -2.71,-3.45 -0.23,-2.31 2.03,-4.33 3.59,-5.4 0.66,-0.45 1.13,-0.69 1.68,-1.31l-1.53 -2.45c-1.07,0.33 -2.15,1.34 -3.78,1.76 -1.54,0.4 -3.18,0.18 -4.28,-0.69 -3.02,-2.4 -1.87,-4.8 -1.32,-8.7l-3.57 -0.78c-0.71,2.48 -2.52,5.46 -5.09,5.66 -2.91,0.22 -5.63,-2.64 -6.88,-3.68z"/>
   <path class="fil0" d="M239.05 42.99c7.06,-1.58 12.63,3.56 13.72,9.04 1.4,7.01 -3.48,12.57 -9.03,13.74 -6.94,1.46 -12.6,-3.48 -13.76,-8.89 -1.58,-7.34 3.34,-12.61 9.06,-13.89zm-6.22 -5.64l-2.4 1.19c1.02,2.33 3.55,5.34 1.57,8.34 -1.58,2.4 -5.83,1.79 -8.97,1.3l-1.07 3.17c7.96,2.66 10.6,7.99 2.1,11.41l1.56 2.64c2.52,-0.64 5.31,-2.56 8.26,-1.02 2.63,1.37 1.75,5.25 1.29,8.44l2.98 0.61c0.53,-3.17 2.05,-6.3 5.07,-6.63 3.38,-0.36 5.5,3.08 6.77,4.9l2.63 -1.32c-0.67,-2.31 -2.64,-5.5 -1.06,-8.22 1.33,-2.3 5.44,-1.73 8.4,-1.39l0.64 -2.66c-1.38,-0.77 -2.83,-0.97 -4.13,-1.84 -5.37,-3.62 -1.28,-7.33 2.68,-9.81 -0.25,-1.1 -1.03,-1.71 -1.36,-2.75 -1.79,0.55 -4.5,3.48 -8.35,1.04 -3.03,-1.92 -1.45,-6.54 -1.16,-8.47 -0.78,-0.52 -2.37,-0.73 -3.41,-0.87 -1.34,1.9 -1.85,5.24 -5.1,5.57 -2.77,0.28 -5.87,-2.55 -6.93,-3.65z"/>
   <path class="fil0" d="M148.23 94.19l0.04 10.95 2.97 0.01 0.07 -7.54 4.08 -0.03 0.04 7.55 12.36 0.02 0.08 -8.03 4.05 -0.06 0.04 8.04 2.17 0.05c0.22,-1.77 0.08,-8.68 0.08,-10.96 0,-1.69 -0.62,-2.34 -2.31,-2.34l-21.41 0c-1.62,0 -2.23,0.77 -2.23,2.34z"/>
   <path class="fil2" d="M160.05 67.19c4.66,-0.55 8.45,3.01 8.96,7.03 0.62,4.83 -2.98,8.73 -7.12,9.2 -4.84,0.55 -8.69,-3.01 -9.11,-7.23 -0.49,-4.95 2.96,-8.49 7.27,-9zm-0.37 -4.06c-6.36,0.72 -11.71,6.21 -10.96,13.45 0.66,6.4 6.29,11.68 13.58,10.9 6.3,-0.68 11.63,-6.44 10.77,-13.67 -0.72,-6.1 -6.36,-11.48 -13.39,-10.69z"/>
   <path class="fil2" d="M88.91 55.66c-0.59,3.63 -4.23,6.9 -8.64,6.17 -3.75,-0.62 -7.08,-4.21 -6.26,-8.81 1.72,-9.63 16.52,-7.36 14.9,2.64zm-9.73 -12.68c-3.56,0.73 -5.54,2.44 -7.17,4.57 -1.71,2.25 -2.69,5.87 -1.92,9.39 1.19,5.46 6.78,10.29 13.81,8.81 5.53,-1.16 10.34,-6.63 8.97,-13.68 -1.09,-5.6 -6.64,-10.54 -13.7,-9.09z"/>
   <path class="fil2" d="M72.9 131.91c-0.74,-4.47 2.61,-8.11 6.26,-8.69 4.53,-0.72 8.09,2.56 8.68,6.26 1.58,9.97 -13.33,12.14 -14.94,2.43zm5.95 -12.76c-5.88,0.84 -10.95,6.16 -10.03,13.04 0.79,5.91 6.18,10.93 13.08,10.06 5.91,-0.75 10.95,-6.22 10.01,-13.15 -0.78,-5.76 -6.24,-10.91 -13.07,-9.94z"/>
   <path class="fil2" d="M239.59 47.03c4.64,-1.18 8.28,2.06 9.13,5.57 1.14,4.68 -2.07,8.22 -5.56,9.09 -9.47,2.37 -13.54,-12.13 -3.57,-14.67zm-0.54 -4.04c-5.72,1.28 -10.64,6.55 -9.06,13.89 1.16,5.41 6.82,10.35 13.76,8.89 5.54,-1.17 10.43,-6.73 9.03,-13.74 -1.1,-5.48 -6.66,-10.62 -13.72,-9.04z"/>
   <path class="fil0" d="M105.71 79.08c-10.64,2.17 -7.25,18.48 3.55,15.91 10.23,-2.44 6.97,-18.06 -3.55,-15.91z"/>
   <path class="fil0" d="M120.58 116.39c-10.71,2.58 -6.75,18.25 3.55,15.91 10.47,-2.38 7,-18.45 -3.55,-15.91z"/>
   <path class="fil0" d="M212.84 78c-10.66,2.46 -6.96,18.38 3.61,15.92 3.8,-0.88 7.16,-4.66 6.13,-9.66 -0.8,-3.85 -4.9,-7.38 -9.74,-6.26z"/>
   <path class="fil0" d="M160.51 25.02c-4.05,0.69 -7.63,4.51 -6.69,9.54 0.74,3.96 4.65,7.47 9.59,6.52 10.29,-1.98 7.76,-17.89 -2.91,-16.06z"/>
   <path class="fil0" d="M197.37 116.95c-4.04,0.68 -7.58,4.48 -6.81,9.32 1.71,10.66 18.01,8.15 16.12,-2.68 -0.69,-3.93 -4.48,-7.46 -9.32,-6.64z"/>
   <path class="fil0" d="M197.82 42.15c-10.46,2.53 -6.87,18.22 3.58,15.91 3.83,-0.85 7.39,-4.78 6.22,-9.83 -0.89,-3.84 -4.78,-7.29 -9.8,-6.08z"/>
   <path class="fil0" d="M160.05 67.19c-4.31,0.51 -7.76,4.05 -7.27,9 0.42,4.23 4.27,7.79 9.11,7.23 4.14,-0.47 7.73,-4.37 7.12,-9.2 -0.51,-4.02 -4.3,-7.58 -8.96,-7.03z"/>
   <path class="fil0" d="M151.34 141.09c0.35,4.28 4.12,7.82 8.92,7.38 4.25,-0.39 7.84,-4.23 7.34,-9.01 -0.44,-4.17 -4.17,-7.7 -8.92,-7.25 -4.2,0.39 -7.72,4.19 -7.34,8.89z"/>
   <path class="fil0" d="M121.17 41.14c-3.81,0.95 -7.28,4.7 -6.1,9.75 0.89,3.81 4.72,7.24 9.67,6.16 3.89,-0.85 7.42,-4.77 6.25,-9.86 -0.86,-3.76 -4.94,-7.27 -9.82,-6.05z"/>
   <path class="fil0" d="M238.84 125.46c3.46,-0.97 6.1,1.4 6.7,3.92 1.67,6.99 -8.64,9.42 -10.48,2.77 -0.96,-3.46 1.29,-5.99 3.78,-6.69zm-0.02 -2.16c-10.06,2.12 -6.63,16.91 3.06,14.79 9.8,-2.14 6.56,-16.82 -3.06,-14.79z"/>
   <path class="fil0" d="M240.23 49.09c3.19,-0.75 5.84,1.5 6.41,3.98 1.68,7.33 -9.15,9.29 -10.58,2.43 -0.69,-3.29 1.55,-5.79 4.18,-6.41zm-0.65 -2.05c-9.96,2.54 -5.89,17.04 3.57,14.67 3.48,-0.87 6.69,-4.42 5.56,-9.09 -0.85,-3.51 -4.49,-6.76 -9.13,-5.57z"/>
   <path class="fil2" d="M79.39 129.58c2.48,-0.71 2.84,1.41 1.8,2.18 -1.31,0.98 -2.64,-0.48 -1.8,-2.18zm-0.52 -4.08c-6.99,2.06 -3.77,12.4 3.01,10.41 2.44,-0.71 4.64,-3.29 3.74,-6.63 -0.68,-2.51 -3.35,-4.79 -6.75,-3.78z"/>
   <path class="fil0" d="M80.63 48.99c3.16,-0.5 5.75,1.88 6.17,4.46 1.18,7.26 -9.68,8.71 -10.71,1.76 -0.49,-3.31 1.75,-5.78 4.54,-6.21zm8.28 6.66c1.62,-10 -13.18,-12.27 -14.9,-2.64 -0.82,4.6 2.51,8.19 6.26,8.81 4.41,0.73 8.05,-2.54 8.64,-6.17z"/>
   <path class="fil2" d="M81.96 55.61c-2.33,0.35 -2.26,-2.1 -0.92,-2.51 1.4,-0.43 2.64,1.34 0.92,2.51zm-1.33 -6.61c-2.79,0.44 -5.03,2.91 -4.54,6.21 1.03,6.96 11.89,5.5 10.71,-1.76 -0.42,-2.58 -3.01,-4.96 -6.17,-4.46z"/>
   <path class="fil2" d="M241.43 131.58c-1.46,0.92 -3.11,0.09 -2.34,-1.55 0.48,-1.02 3.02,-1.23 2.34,1.55zm-2.59 -6.12c-2.5,0.7 -4.74,3.23 -3.78,6.69 1.84,6.66 12.15,4.22 10.48,-2.77 -0.6,-2.52 -3.25,-4.89 -6.7,-3.92z"/>
   <path class="fil0" d="M78.87 125.5c3.4,-1 6.07,1.27 6.75,3.78 0.9,3.34 -1.3,5.91 -3.74,6.63 -6.78,1.98 -9.99,-8.35 -3.01,-10.41zm-5.97 6.41c1.61,9.72 16.52,7.55 14.94,-2.43 -0.58,-3.7 -4.15,-6.98 -8.68,-6.26 -3.66,0.58 -7,4.22 -6.26,8.69z"/>
   <path class="fil2" d="M240.85 53.2c1.86,-0.82 2.5,1.9 1.07,2.4 -0.85,0.3 -1.53,-0.17 -1.77,-0.73 -0.16,-0.36 -0.18,-0.69 -0.01,-1.07 0.35,-0.8 0.13,-0.34 0.72,-0.6zm-0.61 -4.11c-2.62,0.62 -4.86,3.12 -4.18,6.41 1.44,6.86 12.26,4.9 10.58,-2.43 -0.57,-2.48 -3.22,-4.73 -6.41,-3.98z"/>
   <path class="fil0" d="M173.63 109.32l-25.58 -0.09c2.04,2.06 9.13,3.56 12.81,3.55 4.02,-0 10.21,-1.43 12.77,-3.46z"/>
   <path class="fil0" d="M241.43 131.58c0.69,-2.78 -1.85,-2.57 -2.34,-1.55 -0.77,1.64 0.88,2.47 2.34,1.55z"/>
   <path class="fil0" d="M240.85 53.2c-0.59,0.26 -0.37,-0.2 -0.72,0.6 -0.17,0.38 -0.14,0.71 0.01,1.07 0.25,0.56 0.92,1.03 1.77,0.73 1.43,-0.5 0.79,-3.22 -1.07,-2.4z"/>
   <path class="fil0" d="M79.39 129.58c-0.84,1.7 0.49,3.16 1.8,2.18 1.04,-0.78 0.68,-2.89 -1.8,-2.18z"/>
   <path class="fil0" d="M81.96 55.61c1.72,-1.18 0.48,-2.94 -0.92,-2.51 -1.34,0.41 -1.41,2.86 0.92,2.51z"/>
  </g>
 </g>
</svg>
