<?xml version="1.0" encoding="UTF-8"?>
<!DOCTYPE svg PUBLIC "-//W3C//DTD SVG 1.1//EN" "http://www.w3.org/Graphics/SVG/1.1/DTD/svg11.dtd">
<!-- Creator: CorelDRAW 2021 (64 Bit) -->
<svg xmlns="http://www.w3.org/2000/svg" xml:space="preserve" width="540px" height="532px" version="1.1" style="shape-rendering:geometricPrecision; text-rendering:geometricPrecision; image-rendering:optimizeQuality; fill-rule:evenodd; clip-rule:evenodd"
viewBox="0 0 103.86 102.4"
 xmlns:xlink="http://www.w3.org/1999/xlink"
 xmlns:xodm="http://www.corel.com/coreldraw/odm/2003">
 <defs>
  <style type="text/css">
   <![CDATA[
    .str0 {stroke:#C4C4C4;stroke-width:5.77;stroke-linejoin:round;stroke-miterlimit:22.9256}
    .str1 {stroke:black;stroke-width:6.73;stroke-linecap:round;stroke-linejoin:round;stroke-miterlimit:22.9256}
    .fil1 {fill:none}
    .fil0 {fill:#FEFEFE}
   ]]>
  </style>
 </defs>
 <g id="Camada_x0020_1">
  <metadata id="CorelCorpID_0Corel-Layer"/>
  <rect class="fil0 str0" x="2.88" y="2.88" width="98.09" height="96.63" rx="6.13" ry="6.13"/>
  <g id="_1982820610384">
   <circle class="fil1 str1" cx="51.93" cy="51.2" r="10.27"/>
   <path class="fil1 str1" d="M77.27 61.47c-0.31,0.72 -0.48,1.5 -0.48,2.28 0,1.48 0.58,2.9 1.61,3.96l0.21 0.2c1.28,1.28 2.01,3.03 2.01,4.85 0,1.81 -0.73,3.56 -2.01,4.84 -1.28,1.29 -3.03,2.01 -4.85,2.01 -1.81,0 -3.56,-0.72 -4.84,-2.01l-0.21 -0.2c-1.05,-1.04 -2.47,-1.61 -3.95,-1.61 -0.78,0 -1.56,0.16 -2.28,0.48 -2.07,0.88 -3.42,2.92 -3.43,5.17l0 0.58c0,3.78 -3.06,6.85 -6.84,6.85 -3.79,0 -6.85,-3.07 -6.85,-6.85l0 -0.31c-0.06,-2.32 -1.53,-4.37 -3.7,-5.17 -0.72,-0.32 -1.5,-0.48 -2.28,-0.48 -1.48,0 -2.9,0.58 -3.96,1.61l-0.2 0.21c-1.28,1.28 -3.03,2.01 -4.85,2.01 -1.81,0 -3.56,-0.73 -4.84,-2.01 -1.29,-1.29 -2.01,-3.03 -2.01,-4.85 0,-1.82 0.72,-3.56 2.01,-4.84l0.2 -0.21c1.04,-1.06 1.61,-2.47 1.61,-3.95 0,-0.79 -0.16,-1.56 -0.48,-2.28 -0.88,-2.07 -2.92,-3.42 -5.17,-3.43l-0.58 0c-3.78,0 -6.85,-3.06 -6.85,-6.85 0,-3.78 3.07,-6.85 6.85,-6.85l0.31 0c2.32,-0.05 4.37,-1.52 5.17,-3.69 0.32,-0.72 0.48,-1.5 0.48,-2.29 0,-1.47 -0.58,-2.89 -1.61,-3.95l-0.21 -0.2c-1.28,-1.29 -2,-3.03 -2,-4.85 0,-1.82 0.72,-3.56 2,-4.84 1.29,-1.29 3.03,-2.01 4.85,-2.01 1.82,0 3.56,0.72 4.85,2.01l0.2 0.2c1.06,1.03 2.48,1.61 3.95,1.61 0.79,0 1.57,-0.16 2.28,-0.48l0.28 0c2.07,-0.88 3.41,-2.92 3.42,-5.17l0 -0.58c0,-3.78 3.07,-6.85 6.85,-6.85 3.78,0 6.85,3.07 6.85,6.85l0 0.31c0.01,2.25 1.36,4.28 3.42,5.17 0.72,0.31 1.5,0.48 2.29,0.48 1.47,0 2.89,-0.58 3.95,-1.61l0.2 -0.21c1.29,-1.28 3.03,-2.01 4.85,-2.01 1.82,0 3.56,0.73 4.84,2.01 1.29,1.29 2.01,3.03 2.01,4.85 0,1.81 -0.72,3.56 -2,4.84l-0.21 0.21c-1.03,1.05 -1.61,2.47 -1.61,3.95 0,0.79 0.16,1.56 0.48,2.28l0 0.28c0.89,2.07 2.92,3.41 5.17,3.42l0.58 0c3.78,0 6.85,3.07 6.85,6.85 0,3.78 -3.07,6.85 -6.85,6.85l-0.31 0c-2.25,0.01 -4.28,1.35 -5.17,3.42l0 0z"/>
  </g>
 </g>
</svg>
