<?xml version="1.0" encoding="UTF-8"?>
<!DOCTYPE svg PUBLIC "-//W3C//DTD SVG 1.1//EN" "http://www.w3.org/Graphics/SVG/1.1/DTD/svg11.dtd">
<!-- Creator: CorelDRAW 2021 (64 Bit) -->
<svg xmlns="http://www.w3.org/2000/svg" xml:space="preserve" width="540px" height="532px" version="1.1" style="shape-rendering:geometricPrecision; text-rendering:geometricPrecision; image-rendering:optimizeQuality; fill-rule:evenodd; clip-rule:evenodd"
viewBox="0 0 80.88 79.74"
 xmlns:xlink="http://www.w3.org/1999/xlink"
 xmlns:xodm="http://www.corel.com/coreldraw/odm/2003">
 <defs>
  <style type="text/css">
   <![CDATA[
    .str0 {stroke:#C4C4C4;stroke-width:4.49;stroke-linejoin:round;stroke-miterlimit:22.9256}
    .fil0 {fill:#FEFEFE}
    .fil1 {fill:#012D39}
    .fil6 {fill:#065889}
    .fil5 {fill:#0A9AF1}
    .fil9 {fill:#122B0E}
    .fil10 {fill:#335966}
    .fil3 {fill:#3BA9FE}
    .fil2 {fill:#51797F}
    .fil8 {fill:#E5D64D}
    .fil4 {fill:#F7FAFA}
    .fil7 {fill:#FBD82A}
   ]]>
  </style>
 </defs>
 <g id="Camada_x0020_1">
  <metadata id="CorelCorpID_0Corel-Layer"/>
  <rect class="fil0 str0" x="2.25" y="2.25" width="76.38" height="75.24" rx="4.77" ry="4.77"/>
  <g id="_1982731454816">
   <path class="fil1" d="M51.59 64.25l6.91 -0.05 0.01 2.67 -6.91 -0.01 -0.01 -2.61zm-29.18 -0.03l6.94 -0.01 -0.02 2.61 -6.89 0.05 -0.03 -2.65zm8.34 -10.05l19.34 0.01 3.66 8.26 -26.48 0.09 3.48 -8.36zm6.88 -26.2l1.95 0.21c0.04,0.07 0.18,-0.01 0.28,0.81 0.04,0.31 -0.02,0.65 -0.04,0.95 0.16,0.47 -0.43,0.51 0.64,0.52 1.03,0.01 0.51,-0.06 0.65,-0.52 -0.02,-0.3 -0.07,-0.64 -0.04,-0.95 0.09,-0.91 0.24,-0.75 0.28,-0.81l1.95 -0.21c1.02,-0.64 0.22,-2.36 0.61,-4.67 0.55,0 1.55,0.12 2.03,-0.12 0.72,-0.36 0.14,0.2 0.62,-1.06 0.02,-0.04 0.07,-0.09 0.08,-0.18 0.01,-0.1 0.04,-0.13 0.08,-0.18l11.8 0 -0.04 11.8 -19.96 -0.02c-1.22,0 -1.49,-0.19 -1.93,0.71l0.12 0.89c1.94,0.27 22.04,0.26 23.31,-0.08 0.47,-1.99 0.18,-8.55 0.18,-11.12 0,-3.5 -0.2,-7.67 0.04,-11.08l7.15 0.02 0.01 21.44c0,4.49 0.49,3.55 -1.42,5.54 -2.92,3.04 -2.23,2.62 -4.57,2.6l-42.39 0c-1.88,0.02 -1.56,-0.03 -2.5,-1.03 -0.59,-0.63 -1.08,-1.07 -1.69,-1.69 -1.81,-1.85 -1.31,-1.37 -1.31,-5.91l0.02 -20.97 7.15 -0.01c0.29,4.18 -0.33,20.22 0.22,22.21 0.99,0.27 2.21,0.17 3.43,0.18 1.32,0.01 2.4,0.32 2.5,-0.84 -0.16,-1.3 -1.29,-0.87 -4.42,-0.84l-0.01 -6.8c6.12,-0.03 5.92,-1.57 6.98,-4.97 6.94,-0.05 4.49,-0.29 5.25,1.01 0.32,0.54 -0.46,0.52 2.38,0.5 0.15,0.89 0.11,1.68 0.09,2.58 0,0.3 -0.02,1.16 0.04,1.4 0.15,0.61 0.04,0.45 0.48,0.69zm1.24 -4.67l3.25 0.02 -0.03 3.2 -3.28 -0.01 0.06 -3.21zm-16.47 -1.54l5.21 0.01c-0.25,3.16 -2.05,3.31 -5.17,3.3l-0.04 -3.31zm13.85 -0.12c-0.34,-1.05 -0.3,-3.78 -0.02,-4.89l8.51 -0.02c0.21,1.22 0.29,3.76 -0.05,4.95l-8.44 -0.04zm10.44 -1.56l-0.26 0.04c-0.11,-0.11 -0.68,0.33 -0.25,-1.73 0.34,-0.2 0.29,-0.36 1.5,-0.4 2.18,-0.07 9.85,-0.09 11.06,0.2l0.16 1.77c-1.28,0.39 -11.6,0.4 -12.21,0.12zm-13.69 -1.73l1.53 0 -0.03 1.73 -2.22 0.01 -0.96 0 -2.03 -0.01 0 -1.73 2.27 0 1.44 0zm-10.57 0.01l5.18 0.11 0 1.59 -5.19 -0.01 0.01 -1.69zm6.92 -1.68c-0.33,-5.16 6.7,-4.83 7.56,-1.55 -2.64,0 -1.93,0.22 -2.45,1.05 -0.35,0.55 0.22,0.25 -0.5,0.49l-4.61 0.01zm34.45 40.14c-1.05,0.45 -0.87,0.99 -0.85,2.34 0.01,1.11 0.05,2.24 -0.06,3.35l-7.29 0.01 -3.23 -7.55c-0.25,-0.56 -0.76,-2.2 -1.31,-2.39l-21.2 -0.1c-0.58,0.55 -0.36,0.29 -0.74,1.12l-1.64 3.89c-0.73,1.72 -1.5,3.39 -2.15,5.02l-7.18 0.03c-0.56,-0.29 -0.23,0.26 -0.41,-0.71l0.01 -17.71c3.18,-0.38 44.33,-0.29 45.09,0.08 0.4,0.36 0.36,-0.79 0.34,0.73l-0.02 8.48 0.05 0.49 0.86 0c0.95,-0.39 0.57,-3.42 0.57,-5.35 0,-5.81 -0.86,-3.99 3.6,-8.35 1.28,-1.25 0.84,-2.8 0.84,-5.16 0,-3.26 0.23,-22.15 -0.17,-23.68 -1.24,-0.32 -8.93,-0.32 -10.22,-0.02l-0.2 5.34 -11.53 -0.01c-1.46,-0.24 0.87,-1.58 -3.12,-1.54 -1.72,0.02 -3.44,0 -5.17,0.01 -0.59,-2.91 -2.72,-4.11 -6.16,-3.96 -3.22,0.14 -4.78,2.15 -4.91,5.42l-5.16 0.08 -0.09 -5.34c-1.46,-0.31 -9.05,-0.32 -10.34,0.02 -0.46,1.81 -0.34,27.48 0.1,28.22 0.32,0.54 2.95,2.95 3.61,3.62 0.97,0.98 0.57,4.1 0.57,6.56 0,2.66 -0.31,12.64 0.18,14.34l4.25 0.12 0.08 4.17c1.37,0.33 8.82,0.33 10.05,-0.04l0.2 -4.14 18.86 -0.01 0.07 4.15c1.31,0.37 8.77,0.36 10.04,0.04l0.22 -4.19 4.22 -0.04c0.31,-1.15 0.18,-2.73 0.18,-4.03 0.02,-2.99 0.3,-2.99 -0.84,-3.31z"/>
   <path class="fil2" d="M36.59 34.25l-3.1 0.01 -0.09 0.89c-1.06,0.13 -2.59,0.18 -3.5,-0.12 -0.06,-0.92 -0.32,0 0.16,-0.98 0.43,0.04 0.29,0.12 0.29,-0.37 -0.45,0.06 -0.36,-0.07 -0.29,0.37 -1.24,0.51 -1.65,0.35 -3.22,0.35 -0.1,1.16 -1.18,0.85 -2.5,0.84 -1.22,-0.01 -2.44,0.09 -3.43,-0.18 -0.55,-1.99 0.07,-18.03 -0.22,-22.21l-7.15 0.01 -0.02 20.97c0,4.54 -0.5,4.06 1.31,5.91 0.61,0.62 1.1,1.06 1.69,1.69 0.94,1 0.62,1.05 2.5,1.03l42.39 0c2.34,0.02 1.65,0.44 4.57,-2.6 1.91,-1.99 1.42,-1.05 1.42,-5.54l-0.01 -21.44 -7.15 -0.02c-0.24,3.41 -0.04,7.58 -0.04,11.08 0,2.57 0.29,9.13 -0.18,11.12 -1.27,0.34 -21.37,0.35 -23.31,0.08l-0.12 -0.89z"/>
   <path class="fil3" d="M18.15 62.54l7.18 -0.03c0.65,-1.63 1.42,-3.3 2.15,-5.02l1.64 -3.89c0.38,-0.83 0.16,-0.57 0.74,-1.12l21.2 0.1c0.55,0.19 1.06,1.83 1.31,2.39l3.23 7.55 7.29 -0.01c0.11,-1.11 0.07,-2.24 0.06,-3.35 -0.02,-1.35 -0.2,-1.89 0.85,-2.34 0.01,-1.14 -0.18,-2.2 0.27,-2.92l-0.86 0 -0.05 -0.49 -0.3 -0.98c-0.02,-0.25 0.02,-0.92 0.02,-1.22l-0.04 -7.01 -44.8 0 0.11 18.34z"/>
   <path class="fil4" d="M26.84 34.4c1.57,0 1.98,0.16 3.22,-0.35 -0.07,-0.44 -0.16,-0.31 0.29,-0.37l2.84 -0.1 0.3 0.68 3.1 -0.01c0.44,-0.9 0.71,-0.71 1.93,-0.71l19.96 0.02 0.04 -11.8 -11.8 0c-0.04,0.05 -0.07,0.08 -0.08,0.18 -0.01,0.09 -0.06,0.14 -0.08,0.18 -0.48,1.26 0.1,0.7 -0.62,1.06 -0.48,0.24 -1.48,0.12 -2.03,0.12 -0.39,2.31 0.41,4.03 -0.61,4.67 -0.33,0.34 0.08,0.29 -0.89,0.34 -0.46,0.02 -0.66,-0.06 -1.06,-0.13l0.02 1.07c-0.04,1.17 0,0.39 -0.26,0.69 -0.14,0.46 0.38,0.53 -0.65,0.52 -1.07,-0.01 -0.48,-0.05 -0.64,-0.52 -0.26,-0.35 -0.22,0.53 -0.26,-0.69l0.02 -1.07c-0.68,0.11 -1.62,0.35 -1.95,-0.21 -0.44,-0.24 -0.33,-0.08 -0.48,-0.69 -0.06,-0.24 -0.04,-1.1 -0.04,-1.4 0.02,-0.9 0.06,-1.69 -0.09,-2.58 -2.84,0.02 -2.06,0.04 -2.38,-0.5 -0.76,-1.3 1.69,-1.06 -5.25,-1.01 -1.06,3.4 -0.86,4.94 -6.98,4.97l0.01 6.8c3.13,-0.03 4.26,-0.46 4.42,0.84z"/>
   <path class="fil5" d="M43.97 57.65l-0.05 1.43 -2.26 0.12 -2.4 0.04 -2.31 -0.23 0.08 -1.35c0.55,-0.36 6.12,-0.2 6.94,-0.01zm-16.7 4.88l26.48 -0.09 -3.66 -8.26 -19.34 -0.01 -3.48 8.36z"/>
   <polygon class="fil2" points="36.27,21.41 44.65,21.4 44.64,16.99 36.31,17 "/>
   <path class="fil4" d="M29.35 16.68l4.61 -0.01c0.72,-0.24 0.15,0.06 0.5,-0.49 0.52,-0.83 -0.19,-1.05 2.45,-1.05 -0.86,-3.28 -7.89,-3.61 -7.56,1.55z"/>
   <path class="fil6" d="M18.15 62.54l-0.11 -18.34 44.8 0 0.04 7.01c0,0.3 -0.04,0.97 -0.02,1.22l0.3 0.98 0.02 -8.48c0.02,-1.52 0.06,-0.37 -0.34,-0.73 -0.76,-0.37 -41.91,-0.46 -45.09,-0.08l-0.01 17.71c0.18,0.97 -0.15,0.42 0.41,0.71z"/>
   <polygon class="fil2" points="51.6,66.86 58.51,66.87 58.5,64.2 51.59,64.25 "/>
   <polygon class="fil2" points="22.44,66.87 29.33,66.82 29.35,64.21 22.41,64.22 "/>
   <path class="fil4" d="M22.44 25.07c3.12,0.01 4.92,-0.14 5.17,-3.3l-5.21 -0.01 0.04 3.31z"/>
   <path class="fil7" d="M46.71 19.73c1.19,0.43 10.52,0.23 11.33,0.01l0 -1 -11.07 0.02c-0.05,0.94 0.08,0.34 -0.26,0.97z"/>
   <path class="fil1" d="M37.03 57.66l-0.08 1.35 2.31 0.23 2.4 -0.04 2.26 -0.12 0.05 -1.43c-0.82,-0.19 -6.39,-0.35 -6.94,0.01z"/>
   <polygon class="fil7" points="22.42,20.05 27.61,20.06 27.61,18.47 22.43,18.36 "/>
   <path class="fil8" d="M58.04 18.74l0 1c-0.81,0.22 -10.14,0.42 -11.33,-0.01 0.34,-0.63 0.21,-0.03 0.26,-0.97l11.07 -0.02zm-11.61 1.38l0.26 -0.04 11.81 0 0.03 -1.72 -12.11 -0.01 0.01 1.77z"/>
   <polygon class="fil7" points="39.02,26.27 41.87,26.33 41.85,23.64 39.09,23.59 "/>
   <path class="fil9" d="M46.43 20.12l-0.01 -1.77 12.11 0.01 -0.03 1.72 -11.81 0c0.61,0.28 10.93,0.27 12.21,-0.12l-0.16 -1.77c-1.21,-0.29 -8.88,-0.27 -11.06,-0.2 -1.21,0.04 -1.16,0.2 -1.5,0.4 -0.43,2.06 0.14,1.62 0.25,1.73z"/>
   <path class="fil10" d="M36.31 17l8.33 -0.01 0.01 4.41 -8.38 0.01 0.04 -4.41zm-0.06 4.64l8.44 0.04c0.34,-1.19 0.26,-3.73 0.05,-4.95l-8.51 0.02c-0.28,1.11 -0.32,3.84 0.02,4.89z"/>
   <path class="fil1" d="M30.06 34.05c-0.48,0.98 -0.22,0.06 -0.16,0.98 0.91,0.3 2.44,0.25 3.5,0.12l0.09 -0.89 -0.3 -0.68 -2.84 0.1c0,0.49 0.14,0.41 -0.29,0.37z"/>
   <path class="fil7" d="M29.53 18.87l-0.01 1.04c1.53,-0.16 3.31,0.33 4.7,-0.18 -0.35,-0.66 -0.21,0.02 -0.26,-0.91l-3.85 -0.09c-0.41,0.04 -0.43,0.09 -0.58,0.14z"/>
   <path class="fil8" d="M34.22 19.73c-1.39,0.51 -3.17,0.02 -4.7,0.18l0.01 -1.04c0.15,-0.05 0.17,-0.1 0.58,-0.14l3.85 0.09c0.05,0.93 -0.09,0.25 0.26,0.91zm-4.93 0.35l2.03 0.01 0.96 0 2.22 -0.01 0.03 -1.73 -1.53 0 -1.44 0 -2.27 0 0 1.73z"/>
   <path class="fil8" d="M39.09 23.59l2.76 0.05 0.02 2.69 -2.85 -0.06 0.07 -2.68zm-0.28 2.92l3.28 0.01 0.03 -3.2 -3.25 -0.02 -0.06 3.21z"/>
   <path class="fil2" d="M41.11 29.94c0.26,-0.3 0.22,0.48 0.26,-0.69l-0.02 -1.07c0.4,0.07 0.6,0.15 1.06,0.13 0.97,-0.05 0.56,0 0.89,-0.34l-1.95 0.21c-0.04,0.06 -0.19,-0.1 -0.28,0.81 -0.03,0.31 0.02,0.65 0.04,0.95z"/>
   <path class="fil2" d="M39.58 28.18l-0.02 1.07c0.04,1.22 0,0.34 0.26,0.69 0.02,-0.3 0.08,-0.64 0.04,-0.95 -0.1,-0.82 -0.24,-0.74 -0.28,-0.81l-1.95 -0.21c0.33,0.56 1.27,0.32 1.95,0.21z"/>
  </g>
 </g>
</svg>
