<?xml version="1.0" encoding="UTF-8"?>
<!DOCTYPE svg PUBLIC "-//W3C//DTD SVG 1.1//EN" "http://www.w3.org/Graphics/SVG/1.1/DTD/svg11.dtd">
<!-- Creator: CorelDRAW 2021 (64 Bit) -->
<svg xmlns="http://www.w3.org/2000/svg" xml:space="preserve" width="752px" height="752px" version="1.1" style="shape-rendering:geometricPrecision; text-rendering:geometricPrecision; image-rendering:optimizeQuality; fill-rule:evenodd; clip-rule:evenodd"
viewBox="0 0 32.85 32.82"
 xmlns:xlink="http://www.w3.org/1999/xlink"
 xmlns:xodm="http://www.corel.com/coreldraw/odm/2003">
 <defs>
  <style type="text/css">
   <![CDATA[
    .str3 {stroke:#282829;stroke-width:1.31;stroke-miterlimit:22.9256}
    .str1 {stroke:black;stroke-width:1.75;stroke-miterlimit:22.9256}
    .str0 {stroke:#B8B4B6;stroke-width:2.18;stroke-miterlimit:22.9256}
    .str2 {stroke:red;stroke-width:0.22;stroke-miterlimit:22.9256}
    .fil1 {fill:none}
    .fil2 {fill:red}
    .fil0 {fill:white}
   ]]>
  </style>
 </defs>
 <g id="Camada_x0020_1_0">
  <metadata id="CorelCorpID_0Corel-Layer"/>
  <g id="_2525753978576">
   <path class="fil0 str0" d="M30.38 1.09l-27.94 0c-0.75,0 -1.35,0.69 -1.35,1.54l0 27.56c0,0.85 0.6,1.53 1.35,1.53l27.94 0c0.74,0 1.34,-0.68 1.34,-1.53 0,-3.31 0.05,-26.7 0.03,-27.9 -0.01,-0.66 -0.82,-1.2 -1.37,-1.2z"/>
   <path class="fil1 str1" d="M7.66 8.06l0 -0.45c0,-1.62 1.14,-2.95 2.53,-2.95l0.43 0m-0.22 23.59l14.93 0c1.38,0 2.52,-1.33 2.52,-2.95l0 -17.69c0,-1.62 -1.14,-2.95 -2.52,-2.95l-14.71 0m-0.22 23.59l-0.21 0c-1.39,0 -2.53,-1.33 -2.53,-2.95l0 -3.68"/>
   <path class="fil2 str2" d="M19.89 18.02l-0.53 -0.17c-1.97,-1.24 -4.5,-1.63 -7.64,-1.57l-0.45 1.98 -5.87 -3.86 7.43 -2.78 -0.39 1.69c3.14,0.35 5.94,1.53 7.73,3.52l0.22 0.43 -0.5 0.76z"/>
   <path class="fil1 str3" d="M12.02 13.38c1.79,0.15 5.58,1.08 7.53,3.07 1,0.82 1.69,2.52 2.48,4.62 -3.42,-4.29 -5.91,-4.3 -10.69,-4.7l0.05 -0.23 0.58 -2.57 0.01 -0.01m0 0l0.04 -0.18 0.42 -1.85 -7.63 2.82 6.08 3.99 0.45 -1.97"/>
  </g>
 </g>
</svg>
