<?xml version="1.0" encoding="UTF-8"?>
<!DOCTYPE svg PUBLIC "-//W3C//DTD SVG 1.1//EN" "http://www.w3.org/Graphics/SVG/1.1/DTD/svg11.dtd">
<!-- Creator: CorelDRAW 2021 (64 Bit) -->
<svg xmlns="http://www.w3.org/2000/svg" xml:space="preserve" width="752px" height="752px" version="1.1" style="shape-rendering:geometricPrecision; text-rendering:geometricPrecision; image-rendering:optimizeQuality; fill-rule:evenodd; clip-rule:evenodd"
viewBox="0 0 32.91 32.87"
 xmlns:xlink="http://www.w3.org/1999/xlink"
 xmlns:xodm="http://www.corel.com/coreldraw/odm/2003">
 <defs>
  <style type="text/css">
   <![CDATA[
    .str2 {stroke:#FF7903;stroke-width:1.31;stroke-miterlimit:22.9256}
    .str0 {stroke:#B8B4B6;stroke-width:2.19;stroke-miterlimit:22.9256}
    .str1 {stroke:red;stroke-width:1.09;stroke-miterlimit:22.9256}
    .str3 {stroke:#F7FF00;stroke-width:1.53;stroke-miterlimit:22.9256}
    .str4 {stroke:black;stroke-width:1.97;stroke-miterlimit:22.9256}
    .fil3 {fill:none}
    .fil1 {fill:black}
    .fil2 {fill:black}
    .fil0 {fill:white}
   ]]>
  </style>
 </defs>
 <g id="Camada_x0020_1">
  <metadata id="CorelCorpID_0Corel-Layer"/>
  <g id="_2103620265200">
   <path class="fil0 str0" d="M2.47 1.09l28 0c0.74,0 1.34,0.69 1.34,1.54l0 27.61c0,0.85 -0.6,1.54 -1.34,1.54l-28 0c-0.74,0 -1.34,-0.69 -1.34,-1.54 0,-3.31 -0.05,-26.74 -0.03,-27.94 0.01,-0.67 0.82,-1.21 1.37,-1.21z"/>
   <g>
    <path class="fil1" d="M17.04 20.28c-0.1,0.97 -0.87,0.97 -0.96,-0.02l-0.59 -10.01c-0.23,-1.55 2.29,-1.82 2.25,0.01l-0.7 10.02z"/>
    <circle class="fil2" cx="16.62" cy="22.57" r="1.02"/>
    <circle class="fil3 str1" cx="16.45" cy="16.44" r="8.04"/>
    <circle class="fil3 str2" cx="16.45" cy="16.44" r="9.17"/>
    <circle class="fil3 str3" cx="16.45" cy="16.44" r="10.64"/>
    <circle class="fil3 str4" cx="16.45" cy="16.44" r="12.25"/>
   </g>
  </g>
 </g>
</svg>
