<?xml version="1.0" encoding="UTF-8"?>
<!DOCTYPE svg PUBLIC "-//W3C//DTD SVG 1.1//EN" "http://www.w3.org/Graphics/SVG/1.1/DTD/svg11.dtd">
<!-- Creator: CorelDRAW 2021 (64 Bit) -->
<svg xmlns="http://www.w3.org/2000/svg" xml:space="preserve" width="540px" height="532px" version="1.1" style="shape-rendering:geometricPrecision; text-rendering:geometricPrecision; image-rendering:optimizeQuality; fill-rule:evenodd; clip-rule:evenodd"
viewBox="0 0 82.62 81.45"
 xmlns:xlink="http://www.w3.org/1999/xlink"
 xmlns:xodm="http://www.corel.com/coreldraw/odm/2003">
 <defs>
  <style type="text/css">
   <![CDATA[
    .str0 {stroke:#C4C4C4;stroke-width:4.59;stroke-linejoin:round;stroke-miterlimit:22.9256}
    .fil0 {fill:#FEFEFE}
    .fil5 {fill:#3B96D3}
    .fil10 {fill:#547784}
    .fil3 {fill:#7E8285}
    .fil4 {fill:#86B5CA}
    .fil2 {fill:#A5A5A5}
    .fil9 {fill:#CBA552}
    .fil8 {fill:#E84B37}
    .fil12 {fill:#F0E493}
    .fil1 {fill:#F19B20}
    .fil7 {fill:#F3D45B}
    .fil6 {fill:#F8F9FB}
    .fil11 {fill:#FBEBC6}
   ]]>
  </style>
 </defs>
 <g id="Camada_x0020_1">
  <metadata id="CorelCorpID_0Corel-Layer"/>
  <rect class="fil0 str0" x="2.29" y="2.29" width="78.03" height="76.86" rx="4.88" ry="4.88"/>
  <g id="_1982734671744">
   <path class="fil1" d="M60.86 61.84c0.67,-0.75 3.99,-0.45 4.87,-0.2 0.75,1.65 -0.15,1.97 -2.03,1.97 -0.76,0 -1.87,0.17 -2.51,-0.18 -0.5,-0.27 -0.78,-1.07 -0.33,-1.59zm4.86 -2.79c-2.08,0.67 -6.77,0.2 -4.69,-1.71 0.18,-0.17 6.08,-1.41 4.69,1.71zm2.88 13.31c0.18,-0.27 0.06,-0.18 0.36,-0.51 0.56,-0.62 -0.01,-0.01 0.47,-0.44 -0.45,-1.7 -0.13,-6.84 -0.13,-8.97 0,-1.55 0,-3.11 0,-4.66 0,-1.86 0.33,-3.44 -0.64,-3.66 -6.58,0.05 -13.57,0.07 -20.2,-0.05 -6.6,-0.12 -13.34,0.19 -19.83,0.14 -0.59,0.16 -0.22,-0.51 -0.52,0.64 -0.13,0.5 -0.09,16.33 0.21,17.16 1.21,0.44 4.04,0.25 5.64,0.25 2.76,0.01 3.31,0.49 4.86,-1.04 1.23,-1.2 1.44,-2.2 3.73,-2.22l11.82 0.01c2.64,0.01 2.66,0.63 3.97,1.98 2.64,2.74 5.01,0.47 10.26,1.37z"/>
   <path class="fil2" d="M33.5 21.42c0.88,-0.09 4.39,-0.23 5.27,0l15.25 -0.07c0.73,-0.34 5.96,-0.48 6.68,-0.08 3.2,0.24 6.22,0.36 5.24,-3.74 -0.62,-2.59 -4.71,-1.29 -7.48,-1.74l-0.31 -0.17c-0.24,0.52 0.69,0.35 -0.81,0.42 -0.52,0.03 -0.65,-0.06 -1.11,-0.14 -1.68,-0.02 -3.38,0.01 -5.06,0.01 -0.83,0 -1.66,0.01 -2.49,0.01 -1.11,0.01 -1.66,0.25 -1.39,-0.34 -0.64,0.32 -0.27,0.2 -1.27,0.27 -0.91,0.07 -3.51,0.22 -4.16,-0.33l0.4 -0.18 -0.4 0.18 -2.93 0.33c-1,0.09 -1.99,0.05 -3,0.06 -0.38,0 -1.17,0.04 -1.51,-0.01 -0.89,-0.13 -0.58,0.39 -0.97,-0.48 -0.54,1.76 -6.2,-1.49 -6.47,2.82 -0.28,4.34 3.27,2.71 6.52,3.18z"/>
   <path class="fil3" d="M23.73 48.5l-8.68 -0.02 0.01 18.13c0,2.2 -0.38,4.63 0.56,5.36 0.87,0.66 6.6,0.39 7.81,0.1 0.71,-1.81 0.3,-19.97 0.3,-23.57z"/>
   <path class="fil4" d="M19.55 43.24c1.09,-0.34 2.8,-0.33 3.93,-0.06 0.92,2.81 -2.74,2.26 -3.93,1.56l0 -1.5zm-4.49 1.03c0.16,-1.13 0.39,-1.31 1.65,-1.16 0.66,0.96 0.7,1.43 -0.44,2.05 -1.18,-0.24 -0.71,-0.39 -1.21,-0.89zm8.36 -3.61c-0.8,0.23 -2.02,0.33 -2.97,0.16 -1.02,-0.18 -1.5,-1.12 -0.69,-1.87 0.28,-0.25 4.88,-1.36 3.66,1.71zm-8.26 -0.41c-0.25,-1.8 1.29,-1.77 1.78,-1.3 0.7,0.66 0.28,1.98 -1.36,1.77l-0.42 -0.47zm-0.11 8.23l8.68 0.02c5.21,-0.28 4.35,1.06 4.35,-6.44 0,-1.84 0.29,-4.97 -0.26,-6.41 -1.15,-0.37 -14.95,-0.39 -16.58,-0.06 -0.83,0.51 -0.76,11.67 -0.22,12.4 0.63,0.74 2.74,0.44 4.03,0.49z"/>
   <path class="fil3" d="M33.5 21.42l-0.04 32.23 5.5 0.03c-0.28,-5.2 -0.04,-11.01 -0.04,-16.28 0,-3.35 0.42,-13.43 -0.15,-15.98 -0.88,-0.23 -4.39,-0.09 -5.27,0z"/>
   <path class="fil2" d="M48.65 53.68l17.5 0.07c-0.46,-2.65 0.51,-6.34 -0.54,-8.41 -1.8,-0.47 -3.74,-0.48 -5.07,0.69 -0.55,0.48 -2.55,2.14 -3.39,2.04 -1.86,-0.23 -3.01,-4.15 -8.27,-2.68 -0.45,1.83 -0.18,6.04 -0.23,8.29z"/>
   <path class="fil5" d="M54.03 22.05l0.08 6.81 -2.05 0.24c-0.34,2.04 0.48,2.13 2.45,1.97 1.17,0.12 2.59,0.11 3.78,0.09 1.41,-0.03 2.13,-0.35 3.55,-0.25 1.08,0.02 0.93,-0.22 0.9,-1.48l-0.19 -0.2 -0.34 -0.12c-0.32,-0.02 -0.65,-0.01 -0.97,-0.05 -0.41,-0.05 -0.52,-0.15 -0.57,-0.17 -0.71,-1.25 -0.18,-5.4 -0.31,-7.33 -1.46,-0.47 -3.91,-0.17 -5.64,-0.16l-0.69 0.65z"/>
   <path class="fil1" d="M42.26 15.34l-0.4 0.18c0.65,0.55 3.25,0.4 4.16,0.33 1,-0.07 0.63,0.05 1.27,-0.27 1.77,-0.86 2.82,-2.3 4.52,-3.32 2.8,-1.67 3.71,-0.22 4.31,2.3 0.15,0.22 0.18,0.18 0.4,0.62 0.02,0.06 0.11,0.36 0.14,0.44l1.49 0 0.03 -0.7c0.42,-4 -3.16,-6.81 -7.2,-4.72 -1.4,0.72 -2.65,2.1 -3.89,2.99 -1.29,0.92 -2.93,1.79 -4.83,2.15z"/>
   <path class="fil3" d="M33.45 15.42c0.39,0.87 0.08,0.35 0.97,0.48 0.34,0.05 1.13,0.01 1.51,0.01 1.01,-0.01 2,0.03 3,-0.06 -0.04,-3.16 0.85,-6.35 -2.51,-6.46 -3.85,-0.12 -2.76,2.87 -2.97,6.03z"/>
   <path class="fil6" d="M47.29 15.58c-0.27,0.59 0.28,0.35 1.39,0.34 0.83,0 1.66,-0.01 2.49,-0.01 1.68,0 3.38,-0.03 5.06,-0.01l-0.11 -1.34c-0.6,-2.52 -1.51,-3.97 -4.31,-2.3 -1.7,1.02 -2.75,2.46 -4.52,3.32z"/>
   <path class="fil7" d="M62.65 41.13c0.62,0.34 0.81,0.55 1.78,0.71 -0.05,-0.42 -0.12,-0.3 0.32,-0.2 -0.11,-0.44 -0.19,-0.35 0.25,-0.24 -0.11,-0.44 -0.18,-0.35 0.26,-0.23 -0.1,-0.44 -0.15,-0.32 0.31,-0.19 -0.12,-0.44 -0.2,-0.36 0.24,-0.26 -0.13,-0.44 -0.25,-0.39 0.18,-0.3 -0.1,-0.43 -0.15,-0.31 0.3,-0.19 -0.11,-0.46 -0.21,-0.4 0.24,-0.25 -0.14,-0.41 -0.22,-0.31 0.2,-0.34 0.26,-0.57 0.61,-0.93 1.18,-1.2 -0.01,-0.44 -0.11,-0.36 0.31,-0.21 -0.17,-0.48 -0.21,-0.35 0.29,-0.21 -0.13,-0.44 -0.21,-0.35 0.24,-0.25 -0.12,-0.44 -0.23,-0.38 0.21,-0.28 -0.11,-0.43 -0.21,-0.36 0.21,-0.29 -0.09,-0.4 -0.18,-0.33 0.23,-0.25 -0.09,-0.42 -0.14,-0.3 0.3,-0.18 -0.09,-0.44 -0.16,-0.34 0.29,-0.21 -0.12,-0.46 -0.21,-0.39 0.23,-0.25 -0.13,-0.5 -0.27,-0.46 0.21,-0.29 -0.16,-0.43 -0.22,-0.33 0.25,-0.27l0.11 -0.37c0.28,-0.53 0.02,0.07 0.27,-0.43 0.31,-0.63 0.2,-0.5 0.28,-1.23 -0.49,0.12 -0.36,0.18 -0.21,-0.32 -0.9,0.16 -0.37,0.18 -0.58,-0.3 -1.64,0.74 -3.1,2.59 -4.2,3.76 -0.99,1.04 -3.28,2.87 -3.7,4.27z"/>
   <path class="fil7" d="M43.41 34.8c0.83,1.46 2.55,2.5 3.59,3.77 0.41,0 0.33,-0.1 0.25,0.29 0.41,-0.11 0.3,-0.17 0.22,0.27 0.4,-0.08 0.34,-0.18 0.29,0.2 0.39,-0.07 0.29,-0.13 0.22,0.27 0.38,-0.06 0.31,-0.15 0.29,0.22 0.38,-0.08 0.32,-0.18 0.28,0.19 0.35,-0.02 0.27,-0.11 0.25,0.25 0.37,-0.05 0.29,-0.13 0.22,0.25 0.39,-0.02 0.32,-0.12 0.26,0.24 0.37,-0.05 0.29,-0.13 0.26,0.24 0.38,-0.05 0.3,-0.14 0.25,0.24 0.4,-0.06 0.33,-0.15 0.24,0.24 0.39,-0.06 0.29,-0.13 0.26,0.27l1.07 0.06c-0.04,-0.43 -0.1,-0.29 0.36,-0.17l0.12 -0.41 0.02 -0.81c-0.45,0.06 -0.31,0.11 -0.14,-0.35 -0.48,0.13 -0.33,0.16 -0.18,-0.33 -0.44,0.11 -0.36,0.2 -0.28,-0.23 -0.44,0.17 -0.39,0.27 -0.26,-0.18 -0.41,-0.04 -0.34,0.07 -0.19,-0.31 -0.51,0.17 -0.45,0.28 -0.29,-0.23 -0.51,0.16 -0.39,0.22 -0.23,-0.29 -0.4,0.16 -0.28,0.2 -0.25,-0.25 -0.48,0.15 -0.42,0.25 -0.24,-0.22 -0.49,0.16 -0.41,0.25 -0.25,-0.24 -0.48,0.19 -0.37,0.23 -0.22,-0.27 -0.47,0.14 -0.41,0.25 -0.28,-0.21 -0.48,0.14 -0.44,0.27 -0.3,-0.19 -0.47,0.14 -0.33,0.18 -0.18,-0.3 -0.48,0.13 -0.4,0.22 -0.25,-0.25 -0.45,0.14 -0.34,0.19 -0.22,-0.28 -0.46,0.13 -0.38,0.22 -0.25,-0.24 -0.48,0.14 -0.44,0.28 -0.3,-0.19 -0.47,0.14 -0.36,0.19 -0.21,-0.28 -0.46,0.18 -0.37,0.24 -0.23,-0.24 -0.46,0.06 -0.41,0.18 -0.25,-0.25 -0.5,0.18 -0.43,0.28 -0.28,-0.22 -0.5,0.15 -0.38,0.2 -0.22,-0.3 -0.41,0.16 -0.3,0.21 -0.27,-0.23 -0.52,-0.2 -0.05,0.04 -0.48,-0.23 -0.03,-0.02 -2.38,-2 -2.2,0.7z"/>
   <path class="fil8" d="M58.28 35.85l-0.24 -0.17 -0.17 -0.25 -1.06 0.04c-0.88,1.28 -0.61,8.11 -0.37,9.2 2.27,1.38 2.01,-0.68 2.01,-2.85 -0.01,-1.74 0.2,-4.49 -0.17,-5.97z"/>
   <path class="fil7" d="M62.72 37.65c1.26,-0.45 2.11,-2.43 2.79,-3.61 0.88,-1.51 2.25,-2.45 0.89,-3.92 -1.29,0.05 -1.3,0.38 -1.81,1.28 -1.79,3.17 -4.03,5.17 -1.87,6.25z"/>
   <path class="fil9" d="M28.63 54.21c6.49,0.05 13.23,-0.26 19.83,-0.14 6.63,0.12 13.62,0.1 20.2,0.05 -0.25,-0.17 -0.11,-0.13 -0.57,-0.25 -0.36,-0.1 -0.32,-0.07 -0.69,-0.1 -0.34,-0.03 -0.86,0 -1.25,-0.02l-17.5 -0.07 -9.69 0 -5.5 -0.03c-0.62,0.22 -1.65,0.14 -2.45,0.13 -0.35,-0.01 -1.17,-0.03 -1.48,0.03 -1.16,0.2 -0.51,0 -0.9,0.4z"/>
   <path class="fil7" d="M47.7 30.49l0.35 1.47 0.25 0.47 0.49 0.73 0.17 0.4c0.32,0.82 0.97,1.68 1.5,2.57 1.52,2.56 2.8,1.22 2.31,-0.29l-2.07 -3.37c-0.59,0 -0.44,0.12 -0.28,-0.49l-0.42 -0.81 -0.47 -0.19 0.02 -0.56c-0.43,0.09 -0.37,0.2 -0.27,-0.21 -0.77,-0.06 -1.08,0.06 -1.58,0.28z"/>
   <path class="fil4" d="M56.81 35.47l1.06 -0.04 0.17 0.25 0.24 0.17 -0.24 -0.17 -0.17 -0.25 2.11 -4.26c0.77,-0.04 1.39,0.12 1.86,-0.26 -1.42,-0.1 -2.14,0.22 -3.55,0.25 -1.19,0.02 -2.61,0.03 -3.78,-0.09 0.65,0.81 1.83,3.31 2.3,4.4z"/>
   <path class="fil8" d="M65.72 59.05c1.39,-3.12 -4.51,-1.88 -4.69,-1.71 -2.08,1.91 2.61,2.38 4.69,1.71z"/>
   <path class="fil7" d="M63.7 63.61c1.88,0 2.78,-0.32 2.03,-1.97 -0.88,-0.25 -4.2,-0.55 -4.87,0.2 -0.45,0.52 -0.17,1.32 0.33,1.59 0.64,0.35 1.75,0.18 2.51,0.18z"/>
   <path class="fil10" d="M23.42 40.66c1.22,-3.07 -3.38,-1.96 -3.66,-1.71 -0.81,0.75 -0.33,1.69 0.69,1.87 0.95,0.17 2.17,0.07 2.97,-0.16z"/>
   <path class="fil10" d="M19.55 44.74c1.19,0.7 4.85,1.25 3.93,-1.56 -1.13,-0.27 -2.84,-0.28 -3.93,0.06l0 1.5z"/>
   <path class="fil11" d="M43.41 34.8c-0.18,-2.7 2.17,-0.72 2.2,-0.7 0.43,0.27 -0.04,0.03 0.48,0.23 -0.03,0.44 -0.14,0.39 0.27,0.23 -0.16,0.5 -0.28,0.45 0.22,0.3 -0.15,0.5 -0.22,0.4 0.28,0.22 -0.16,0.43 -0.21,0.31 0.25,0.25 -0.14,0.48 -0.23,0.42 0.23,0.24 -0.15,0.47 -0.26,0.42 0.21,0.28 -0.14,0.47 -0.18,0.33 0.3,0.19 -0.13,0.46 -0.21,0.37 0.25,0.24 -0.12,0.47 -0.23,0.42 0.22,0.28 -0.15,0.47 -0.23,0.38 0.25,0.25 -0.15,0.48 -0.29,0.44 0.18,0.3 -0.14,0.46 -0.18,0.33 0.3,0.19 -0.13,0.46 -0.19,0.35 0.28,0.21 -0.15,0.5 -0.26,0.46 0.22,0.27 -0.16,0.49 -0.24,0.4 0.25,0.24 -0.18,0.47 -0.24,0.37 0.24,0.22 -0.03,0.45 -0.15,0.41 0.25,0.25 -0.16,0.51 -0.28,0.45 0.23,0.29 -0.16,0.51 -0.22,0.4 0.29,0.23 -0.15,0.38 -0.22,0.27 0.19,0.31 -0.13,0.45 -0.18,0.35 0.26,0.18 -0.08,0.43 -0.16,0.34 0.28,0.23 -0.15,0.49 -0.3,0.46 0.18,0.33 -0.17,0.46 -0.31,0.41 0.14,0.35l-0.02 0.81 -0.12 0.41c-0.46,-0.12 -0.4,-0.26 -0.36,0.17l-1.07 -0.06c0.03,-0.4 0.13,-0.33 -0.26,-0.27 0.09,-0.39 0.16,-0.3 -0.24,-0.24 0.05,-0.38 0.13,-0.29 -0.25,-0.24 0.03,-0.37 0.11,-0.29 -0.26,-0.24 0.06,-0.36 0.13,-0.26 -0.26,-0.24 0.07,-0.38 0.15,-0.3 -0.22,-0.25 0.02,-0.36 0.1,-0.27 -0.25,-0.25 0.04,-0.37 0.1,-0.27 -0.28,-0.19 0.02,-0.37 0.09,-0.28 -0.29,-0.22 0.07,-0.4 0.17,-0.34 -0.22,-0.27 0.05,-0.38 0.11,-0.28 -0.29,-0.2 0.08,-0.44 0.19,-0.38 -0.22,-0.27 0.08,-0.39 0.16,-0.29 -0.25,-0.29 -0.04,0.46 -0.16,0.41 0.25,0.29 -0.07,0.41 -0.17,0.35 0.22,0.27 -0.11,0.39 -0.15,0.26 0.29,0.2 -0.04,0.38 -0.14,0.33 0.22,0.27 -0.09,0.41 -0.15,0.29 0.29,0.22l0.28 0.19c-0.04,0.39 -0.13,0.3 0.25,0.25l0.22 0.25c-0.07,0.39 -0.14,0.29 0.26,0.24 -0.06,0.39 -0.13,0.3 0.26,0.24 -0.03,0.37 -0.12,0.3 0.25,0.24 -0.06,0.38 -0.14,0.3 0.24,0.24 -0.1,0.48 -0.2,0.4 0.26,0.27l0.55 0.4 0.52 -0.34c0.54,0.14 0.54,0.33 0.36,-0.17 0.49,0.19 0.27,0.16 0.12,-0.41l0.37 -0.37 -0.35 -0.44c0.15,-0.51 0.33,-0.5 -0.14,-0.35 0.16,-0.51 0.31,-0.47 -0.18,-0.33 0.16,-0.51 0.23,-0.41 -0.28,-0.23l-0.26 -0.18c0.12,-0.53 0.28,-0.53 -0.19,-0.31 0.16,-0.49 0.21,-0.37 -0.29,-0.23 0.14,-0.49 0.26,-0.44 -0.23,-0.29 0.19,-0.49 0.26,-0.39 -0.25,-0.25 0.04,-0.43 0.15,-0.39 -0.24,-0.22 0.18,-0.5 0.26,-0.41 -0.25,-0.24 0.16,-0.49 0.27,-0.43 -0.22,-0.27 0.17,-0.48 0.21,-0.36 -0.28,-0.21 0.13,-0.44 0.16,-0.31 -0.3,-0.19 0.12,-0.48 0.26,-0.46 -0.18,-0.3 0.17,-0.47 0.24,-0.38 -0.25,-0.25 0.14,-0.47 0.25,-0.41 -0.22,-0.28 0.13,-0.47 0.22,-0.39 -0.25,-0.24 0.14,-0.43 0.17,-0.3 -0.3,-0.19 0.11,-0.5 0.26,-0.49 -0.21,-0.28 0.17,-0.41 0.22,-0.3 -0.23,-0.24 0.15,-0.51 0.24,-0.44 -0.25,-0.25 0.15,-0.46 0.2,-0.35 -0.28,-0.22 0.14,-0.5 0.27,-0.46 -0.22,-0.3 0.19,-0.48 0.24,-0.37 -0.27,-0.23 -0.61,-0.79 -1.02,-1.32 -2.25,-1.24 -0.38,0.42 -0.45,0.5 -0.84,1.12 0.11,1.22 -0.06,0.1 0.41,0.59z"/>
   <path class="fil4" d="M54.03 22.05l0.69 -0.65c1.73,-0.01 4.18,-0.31 5.64,0.16 0.13,1.93 -0.4,6.08 0.31,7.33 0.05,0.02 0.16,0.12 0.57,0.17 0.32,0.04 0.65,0.03 0.97,0.05l0.34 0.12 0.19 0.2 -0.19 -0.2 -0.34 -0.12c-0.46,-0.5 -0.93,-0.29 -1.54,-0.22l0.03 -7.62c-0.72,-0.4 -5.95,-0.26 -6.68,0.08l0.01 0.7z"/>
   <path class="fil11" d="M71.13 33.4c-0.15,0.5 -0.28,0.44 0.21,0.32 -0.08,0.73 0.03,0.6 -0.28,1.23 -0.25,0.5 0.01,-0.1 -0.27,0.43l-0.11 0.37c-0.47,-0.06 -0.41,-0.16 -0.25,0.27 -0.48,-0.17 -0.34,-0.21 -0.21,0.29 -0.44,-0.14 -0.35,-0.21 -0.23,0.25 -0.45,-0.13 -0.38,-0.23 -0.29,0.21 -0.44,-0.12 -0.39,-0.24 -0.3,0.18 -0.41,-0.08 -0.32,-0.15 -0.23,0.25 -0.42,-0.07 -0.32,-0.14 -0.21,0.29 -0.44,-0.1 -0.33,-0.16 -0.21,0.28 -0.45,-0.1 -0.37,-0.19 -0.24,0.25 -0.5,-0.14 -0.46,-0.27 -0.29,0.21 -0.42,-0.15 -0.32,-0.23 -0.31,0.21 -0.57,0.27 -0.92,0.63 -1.18,1.2 -0.42,0.03 -0.34,-0.07 -0.2,0.34 -0.45,-0.15 -0.35,-0.21 -0.24,0.25 -0.45,-0.12 -0.4,-0.24 -0.3,0.19 -0.43,-0.09 -0.31,-0.14 -0.18,0.3 -0.44,-0.1 -0.36,-0.18 -0.24,0.26 -0.46,-0.13 -0.41,-0.25 -0.31,0.19 -0.44,-0.12 -0.37,-0.21 -0.26,0.23 -0.44,-0.11 -0.36,-0.2 -0.25,0.24 -0.44,-0.1 -0.37,-0.22 -0.32,0.2 -0.97,-0.16 -1.16,-0.37 -1.78,-0.71 0.2,0.42 0.24,0.69 0.69,0.9 0.33,0.16 0.26,0.14 0.58,0.09 1.13,-0.16 0.09,0.06 0.51,-0.28 0.49,0.14 0.44,0.27 0.32,-0.2 0.43,0.1 0.36,0.19 0.25,-0.24 0.43,0.11 0.35,0.2 0.26,-0.23 0.48,0.12 0.44,0.25 0.31,-0.19 0.46,0.13 0.38,0.21 0.24,-0.26 0.4,0.13 0.27,0.15 0.18,-0.3 0.45,0.08 0.42,0.21 0.3,-0.19 0.47,0.14 0.39,0.22 0.24,-0.25 0.48,0.19 0.3,0.19 0.2,-0.34 0.78,-0.39 0.79,-0.41 1.18,-1.2 0.51,0.1 0.49,0.25 0.31,-0.21 0.48,0.13 0.44,0.26 0.29,-0.21 0.47,0.15 0.38,0.22 0.24,-0.25 0.43,0.11 0.32,0.16 0.21,-0.28 0.41,0.11 0.29,0.15 0.21,-0.29 0.39,0.08 0.3,0.15 0.23,-0.25 0.42,0.08 0.39,0.2 0.3,-0.18 0.47,0.12 0.42,0.24 0.29,-0.21 0.46,0.13 0.38,0.21 0.23,-0.25 0.47,0.15 0.35,0.19 0.21,-0.29 0.48,0.16 0.38,0.22 0.25,-0.27 0.43,-0.22 0.6,-0.26 0.81,-0.67 0.05,-0.11 0.18,-0.52 0.18,-0.63 0.01,-1.32 -0.17,-0.59 -0.33,-0.73 0.19,-0.56 0.34,-0.54 -0.21,-0.32 -0.14,-0.38 0.68,-0.42 -0.58,-0.3 0.21,0.48 -0.32,0.46 0.58,0.3z"/>
   <path class="fil10" d="M15.16 40.25l0.42 0.47c1.64,0.21 2.06,-1.11 1.36,-1.77 -0.49,-0.47 -2.03,-0.5 -1.78,1.3z"/>
   <path class="fil10" d="M15.06 44.27c0.5,0.5 0.03,0.65 1.21,0.89 1.14,-0.62 1.1,-1.09 0.44,-2.05 -1.26,-0.15 -1.49,0.03 -1.65,1.16z"/>
   <path class="fil12" d="M47.7 30.49c-0.04,0.05 -0.43,-0.4 -0.24,0.73 0.11,0.64 0.37,0.57 0.59,0.74 -0.04,0.72 -0.14,0.32 0.25,0.47 0.31,1.21 -0.31,-0.2 0.11,0.37 0.24,0.32 0.13,0.18 0.38,0.36 -0.14,0.48 -0.28,0.4 0.17,0.4l-0.17 -0.4 -0.49 -0.73 -0.25 -0.47 -0.35 -1.47c0.5,-0.22 0.81,-0.34 1.58,-0.28 -0.1,0.41 -0.16,0.3 0.27,0.21l-0.02 0.56 0.47 0.19 0.42 0.81c-0.16,0.61 -0.31,0.49 0.28,0.49 -0.02,-0.59 0.17,-0.51 -0.28,-0.49l-0.42 -0.81c-0.14,-0.52 0.34,0.36 -0.11,-0.35 -0.21,-0.32 -0.21,-0.27 -0.34,-0.4 0.09,-0.45 0.16,-0.35 -0.27,-0.21 -0.01,0 0.31,-0.46 -0.82,-0.35 -0.98,0.09 -0.63,0.35 -0.76,0.63z"/>
   <path class="fil9" d="M56.23 15.9c0.46,0.08 0.59,0.17 1.11,0.14 1.5,-0.07 0.57,0.1 0.81,-0.42l0.31 0.17c-0.06,-0.88 0.06,-0.47 -0.28,-0.87l-0.03 0.7 -1.49 0c-0.03,-0.08 -0.12,-0.38 -0.14,-0.44 -0.22,-0.44 -0.25,-0.4 -0.4,-0.62l0.11 1.34z"/>
   <path class="fil11" d="M68.6 72.36c0.62,-0.16 0.71,0.22 0.83,-0.95 -0.48,0.43 0.09,-0.18 -0.47,0.44 -0.3,0.33 -0.18,0.24 -0.36,0.51z"/>
  </g>
 </g>
</svg>
