<?xml version="1.0" encoding="UTF-8"?>
<!DOCTYPE svg PUBLIC "-//W3C//DTD SVG 1.1//EN" "http://www.w3.org/Graphics/SVG/1.1/DTD/svg11.dtd">
<!-- Creator: CorelDRAW 2021 (64 Bit) -->
<svg xmlns="http://www.w3.org/2000/svg" xml:space="preserve" width="3087px" height="2743px" version="1.1" style="shape-rendering:geometricPrecision; text-rendering:geometricPrecision; image-rendering:optimizeQuality; fill-rule:evenodd; clip-rule:evenodd"
viewBox="0 0 1543.5 1371.11"
 xmlns:xlink="http://www.w3.org/1999/xlink"
 xmlns:xodm="http://www.corel.com/coreldraw/odm/2003">
 <defs>
  <style type="text/css">
   <![CDATA[
    .str0 {stroke:#373435;stroke-width:62.49;stroke-miterlimit:22.9256}
    .fil0 {fill:none}
    .fil1 {fill:#FEFEFE}
   ]]>
  </style>
 </defs>
 <g id="Camada_x0020_1">
  <metadata id="CorelCorpID_0Corel-Layer"/>
  <g id="_2909080615184">
   <path class="fil0" d="M70.99 1371.11l1401.52 0c39.05,0 70.99,-31.94 70.99,-70.98l0 -1229.14c0,-39.05 -31.94,-70.99 -70.99,-70.99l-1401.52 0c-39.05,0 -70.99,31.94 -70.99,70.99l0 1229.14c0,39.04 31.94,70.98 70.99,70.98z"/>
   <path class="fil1 str0" d="M365.18 752.81c0.24,26.43 2.2,68.2 2.63,129.74 0.93,134.3 4.59,324.41 4.86,324.41 53.26,0.59 650.57,4.48 806.4,5.05 0,-153.46 0,-306.92 0,-460.37 58.2,0.12 116.42,0.23 174.63,0.37 7.74,0.02 5.63,0.02 0.27,-5.52 -87.33,-90.22 -174.65,-180.46 -261.96,-270.69 0.44,-78.21 0.9,-156.42 1.35,-234.63 -46.45,-0.96 -91.18,-1.75 -137.7,-1.39 -2.25,0.01 -1.58,0 -1.95,27.33 -0.26,20.09 -0.85,47.08 -0.55,66.32 0.05,2.21 -21.69,-22.25 -51.93,-52.33 -33.29,-33.08 -75.8,-74.2 -101.97,-99.49 -14.68,-14.16 -23.07,-24.47 -25.5,-22.19 -5.61,5.26 -24.68,18.69 -44.86,42.05 -77.76,89.96 -457.38,461.53 -544.03,548.23 -1.38,1.36 7.33,0.3 19.08,0.62 28.44,0.79 86.58,0.57 125.33,0.41 21.82,-0.08 35.87,-0.4 35.9,2.08z"/>
  </g>
 </g>
</svg>
