<?xml version="1.0" encoding="UTF-8"?>
<!DOCTYPE svg PUBLIC "-//W3C//DTD SVG 1.1//EN" "http://www.w3.org/Graphics/SVG/1.1/DTD/svg11.dtd">
<!-- Creator: CorelDRAW 2021 (64 Bit) -->
<svg xmlns="http://www.w3.org/2000/svg" xml:space="preserve" width="51.3544mm" height="44.3769mm" version="1.1" style="shape-rendering:geometricPrecision; text-rendering:geometricPrecision; image-rendering:optimizeQuality; fill-rule:evenodd; clip-rule:evenodd"
viewBox="0 0 2239.15 1934.91"
 xmlns:xlink="http://www.w3.org/1999/xlink"
 xmlns:xodm="http://www.corel.com/coreldraw/odm/2003">
 <defs>
  <style type="text/css">
   <![CDATA[
    .fil0 {fill:#2A2A2A}
   ]]>
  </style>
 </defs>
 <g id="Camada_x0020_1">
  <metadata id="CorelCorpID_0Corel-Layer"/>
  <g id="_2550047617568">
   <path class="fil0" d="M1143.91 1042.5c174.11,0 311,-68.01 412.84,-191.56 9.58,-11.62 29.56,-37.54 33.36,-51.82 -18.22,-8.74 -34.96,-14.93 -52.73,-24.34 -3.71,13.86 -5.25,10.52 -14.46,22.05 -45.89,57.42 -63.31,83.42 -136.94,122.67 -136.78,72.91 -268.31,91.37 -417.68,26.84 -98.28,-42.46 -182.34,-120.81 -230.07,-216.13 -153.67,-306.87 66.37,-673.42 421.92,-673.42 228.24,0 450.26,207.38 450.26,425.92 0,80.44 -2.03,72.88 -8.12,146.03 22.78,0.51 41.04,11.95 56.8,20.29 0.38,-17.25 5.87,-35.85 7.79,-53.06 16.02,-143.67 -8.38,-269.38 -94.09,-383.92 -99.6,-133.12 -243.84,-205.5 -394.6,-212.05l-44.31 0c-96.12,4.03 -193.37,34.66 -282.04,93.28 -83.68,55.32 -132.68,128.37 -175.79,213.63 -22.2,43.89 -35.8,102.08 -42.18,152.53 -1.46,11.54 -0.54,20.06 -1.09,31.36 -1.78,36.41 -6.87,0.93 -0.58,57.41 4.17,37.48 -3.87,22.5 10.42,86.96 20.47,92.33 71.22,186.97 137.21,252.21 45.1,44.6 91.67,81.64 151.98,107.63 56.85,24.51 132.75,47.49 212.12,47.49z"/>
   <path class="fil0" d="M977.6 243.39l0 28.4c0,29.26 48.68,-4.93 48.68,24.34l0 385.36c0,60.76 -128.7,86.59 -146.03,12.17 112.17,-2.5 85.96,-125.75 20.28,-125.75l-20.28 0c-87.42,0 -123.47,123.85 -29.47,199.84 24.68,19.94 82.24,41.76 125.14,37.86 98.76,-9 167.99,-64.86 167.99,-164.68l0 -352.91 57.12 -1.23c8.76,-0.29 -1.86,-0.25 9.01,0.24 7.37,0.34 15.63,0.55 23.03,0.95 102.61,5.54 84.51,132.12 57.03,170.57 -41.19,57.65 -109.99,34.02 -121.5,73.91 -7.94,27.53 -0.83,23.27 36.15,23.27 64.02,0 115.17,-9.34 156.59,-34.06 69.34,-41.38 89.41,-140.89 54.23,-209.21 -25.32,-49.17 -83.01,-81.24 -145.91,-81.24l-279.89 0c-9.35,0 -12.17,2.82 -12.17,12.17z"/>
   <path class="fil0" d="M795.06 1825.39l1.21 1.21c-0.08,-0.08 -1.62,-0.81 -1.21,-1.21zm39.03 109.52l-34.47 0c-4.95,-0.55 -10.8,-1.73 -20.79,-4.06 -10.02,-42.98 4.83,-96.16 -48.68,-97.35l0 101.41 -44.09 0c-11.7,-1.68 -16.76,-7.38 -16.76,-24.34l0 -267.72c0,-22.93 60.7,-11.1 70.94,-6.04 8.73,4.31 7.02,5.07 12.18,12.16 12.06,16.58 8.61,17.99 14.24,10.11l-16.23 -28.4c119.02,9.9 93.67,163.24 52.74,190.65 15.25,6.75 -15.78,-0.04 5.44,-0.71 9.36,-0.3 4.23,-7.84 11.45,7.61 3.29,7.04 6.48,21.12 8.62,32.49 4.07,21.54 6.94,45.66 6.94,74.19l-1.53 0zm-79.6 -158.2l-24.34 0 0 -85.18c30.21,0 48.68,-6.35 48.68,52.74 0,14.82 -11.2,32.45 -24.34,32.45z"/>
   <path class="fil0" d="M697.71 1367.02l-32.46 0 0 -73.02c33.94,0 24.96,2.42 44.63,4.05l0 60.85c31.93,0 36.08,-9.57 48.68,-28.39l4.73 3.37c0,1.36 -2.23,1.63 -2.49,2.91 -2.5,11.97 -30.06,30.22 -63.08,30.22zm-16.23 -133.86l-16.23 0c0,-24.63 4.06,-32.51 4.06,-52.74 36.32,8.46 36.51,-5.09 36.51,36.51 0,12.47 -11.88,16.23 -24.34,16.23zm-77.07 -40.57l0 219.05c0,20.6 37.26,12.17 93.3,12.17 33.26,0 73.02,-33.52 73.02,-64.91 0,-116.28 -17.01,-65.45 -18.54,-97.35 -0.85,-17.75 14.48,-17.33 14.48,-64.91 0,-64 -76.53,-90.12 -112.69,-64.02 -17.3,12.49 -49.57,37.22 -49.57,59.96z"/>
   <path class="fil0" d="M2186.41 1829.45c0.64,-1.19 5.24,-0.72 5.68,-0.7 1.34,0.06 10.61,-10.25 3.37,0.65 -5.46,8.21 -11.58,4.82 -9.05,0.05zm52.74 -112.66l0 25.24c-3.59,36.19 -21.47,69.24 -36.51,79.3 15.25,6.75 -15.78,-0.05 5.44,-0.71 9.34,-0.3 4.26,-7.84 11.44,7.63 2.33,5.02 6.53,20.2 8.46,28.6l7.11 78.06 -44.62 0c-31.36,0 3.23,-101.41 -52.74,-101.41 -14.79,0 -8.11,70.57 -8.11,101.41l-44.09 0c-11.7,-1.68 -16.76,-7.38 -16.76,-24.34l0 -255.55c0,-30.39 16.34,-24.34 52.74,-24.34 38.89,0 33.9,43.39 44.62,28.4 -3.34,-3.85 -5.64,-6.1 -8.26,-12.02 -3.24,-7.31 -2.99,-5.37 -3.91,-16.38 58.74,13.69 81.25,49.18 85.18,86.11zm-89.24 59.92l-20.28 0 0 -85.18c50.6,0 48.68,3.31 48.68,56.79 0,18.94 -9.46,28.4 -28.4,28.4z"/>
   <path class="fil0" d="M1110.79 1314.96l16.65 -13.09c43.13,-47.29 37.38,-176.05 -60.6,-178.23 3.32,12.41 0.26,3.38 6.25,14.03l6.6 19.09c-0.68,-0.67 -15.69,-21.67 -18.09,-23.83 -9.67,-8.72 -75.88,-20.45 -75.88,2.88l0 275.83c0,18.02 18.94,12.17 60.85,12.17l0 -97.35c33.89,0 34.94,11.11 39.56,37.52 12.29,70.36 -13.58,59.84 65.91,59.84 0,-45.86 -11.92,-77.69 -20.28,-113.58 -11.19,2.61 -9.14,1.96 -16.23,8.12l-4.73 -3.38zm-48 -45.29l-16.23 0 0 -85.18c52.35,0 44.62,-1.16 44.62,64.9 0,13.12 -14.72,20.29 -28.39,20.29z"/>
   <path class="fil0" d="M381.31 1269.66l-12.17 0 0 -85.18c48.86,0 44.62,2.39 44.62,60.85 0,13.14 -17.63,24.34 -32.45,24.34zm-44.63 -146.03c-19.73,0 -28.39,-2.75 -28.39,12.17l0 275.83c0,18.02 18.93,12.17 60.85,12.17l0 -97.35c66.44,0 20.64,97.35 56.79,97.35l48.68 0 -20.28 -109.52 -16.23 0c27.49,-41.06 36.51,-41.59 36.51,-101.41 0,-41.59 -31.08,-88.03 -85.18,-89.24 2.37,10.15 0.31,4.38 4.02,12.2 3.12,6.58 4.11,7.49 8.15,12.13 -15.84,22.16 16.71,-24.34 -64.91,-24.34z"/>
   <path class="fil0" d="M1472.48 1285.88l-40.57 0c0,-37.35 -3.2,-66.17 4.06,-97.35 11.28,-5.41 7.86,-4.05 24.34,-4.05 -1.61,-19.42 -7.69,-24.02 -20.28,-32.46l3.37 -4.73c1.03,0.32 22.12,27.98 24.48,33.66 16.42,39.39 5.32,78.67 4.59,104.93zm-101.41 -48.68l0 174.43c0,18.02 18.94,12.17 60.85,12.17l0 -77.07 40.57 0c0,92.43 -14.11,77.07 60.85,77.07l0 -227.16c0,-25.82 -31.76,-73.02 -68.96,-73.02 -27.76,0 -61.53,11.52 -73.87,27.54 -15.82,20.55 -19.43,51.01 -19.43,86.03z"/>
   <path class="fil0" d="M1606.34 1792.94l-36.51 0c0,-88.85 -9.39,-100.66 24.34,-101.41 -1.61,-19.42 -7.69,-24.02 -20.28,-32.45l3.37 -4.74c1.03,0.33 22.12,27.98 24.48,33.66 16.42,39.39 5.32,78.67 4.59,104.94zm60.85 141.97l-52.17 0c-14.37,-3.75 -8.67,-20.13 -8.67,-81.13l-40.57 0c8.21,17.11 4.06,53.09 4.06,77.07 -4.4,1.02 -12.42,2.84 -21.21,4.06l-28.26 0c-6.76,-1.71 -11.38,-5.37 -11.38,-12.17l0 -206.88c0,-32.98 8,-43.03 25.21,-59.97 56.23,-55.37 132.99,-8.2 132.99,51.86l0 227.16z"/>
   <path class="fil0" d="M1663.13 1391.36c-3.6,15.47 -8.56,16.97 -12.17,32.45 93.81,-7.8 77.07,-109.82 77.07,-198.77 0,-28.57 -6.14,-52.72 -18.41,-70.83 -22.52,-33.22 -48.7,-30.58 -87.05,-30.58 -4,0 -64.91,42.69 -64.91,68.96l0 219.05c0,17.31 15.57,12.17 52.74,12.17 39.46,0 42.7,-27.91 52.73,-32.45zm-12.17 -28.4l-32.45 0c0,-65.81 4.06,-117.01 4.06,-182.54 9.47,4.55 28.34,5.27 40.56,8.11 11.28,48.43 10.04,70.77 4.68,122.32 -2.17,20.84 4.76,52.11 -16.85,52.11z"/>
   <path class="fil0" d="M1277.77 1395.41c10.32,8.96 -1.2,-1.28 -8.11,28.4 98.3,-8.18 77.07,-119.78 77.07,-223.11 0,-61.48 -51.89,-77.07 -105.46,-77.07 -11.5,0 -23.91,17.87 -31.38,25.41 -6.58,6.62 -7.4,7.34 -15.13,13.27 -7.46,5.74 -14.34,6.59 -14.34,18.11l0 231.22c0,24.58 71.24,9.22 78.58,5.56 17.57,-8.75 10.47,-10.62 18.77,-21.79zm-4.06 -32.45l-32.45 0 0 -182.54c33.22,15.94 48.68,-26.02 48.68,68.96 0,24.76 -0.43,43.07 -2.94,61.96 -2.85,21.45 6.44,51.62 -13.29,51.62z"/>
   <path class="fil0" d="M855.23 1400.14l20.39 -13.41c7.98,-8.18 8.33,-8.39 8.67,-23.78 -12.36,-0.27 -14.79,-1.83 -24.34,-4.06 0,-40.56 0.09,-81.13 -0,-121.7 -0.13,-55.62 2.46,-63.16 32.46,-89.23 15.81,11.29 -15.4,-0.71 -16.23,36.51 13,0.29 20.28,-1.33 20.28,12.17l0 166.31c0,11.93 -26.38,31.76 -36.51,40.57l-4.73 -3.38zm-56.12 -187.27c0,56.45 -9.41,151.27 19.12,183.71 43.99,50.02 139.08,27.38 139.08,-41.73l0 -162.26c0,-85.68 -158.2,-105.1 -158.2,20.28z"/>
   <path class="fil0" d="M571.96 1874.07c-12.36,-0.27 -14.79,-1.83 -24.34,-4.06 -8.64,-37.07 -4.06,-101.27 -4.06,-141.97 0,-49.38 18.42,-46 36.51,-73.02 14.21,10.14 -11.93,0.69 -20.28,36.51 26.41,0.59 28.4,13.03 28.4,77.07 0,48.19 5.61,125.59 -40.57,137.91 10.78,-9.37 17.29,-19.12 24.34,-32.45zm-89.24 -133.86c0,47.33 -5.79,126.01 17.81,160.68 33.64,49.43 107.45,42.98 135.11,-11.82 13.94,-27.61 15.6,-170.13 0.82,-209.31 -18.5,-49.07 -91.22,-71.35 -134.23,-17.41 -15.2,19.05 -19.51,44.89 -19.51,77.85z"/>
   <path class="fil0" d="M1809.16 1403.53c11.96,-16.32 25.91,-10.69 28.4,-40.57 -14.72,-0.33 -24.34,-1.78 -24.34,-16.23l0 -129.8c0,-46.65 15.47,-43.6 32.45,-68.96 10.86,7.76 1.14,1.51 -9.11,15.23 -5.44,7.28 -6.19,10.21 -7.11,21.28 24.63,0.55 22.69,4.62 24.92,27.8 3.92,40.82 8.24,112.12 -4.95,150.37 -8,23.18 -20.01,31.69 -40.26,40.88zm-56.79 -182.54c0,53.98 -8.83,140.05 19.18,171.46 54.95,61.61 143.08,34.7 143.08,-70.06 0,-106.81 20.33,-198.76 -93.3,-198.76 -32.66,0 -68.96,40.41 -68.96,97.35z"/>
   <path class="fil0" d="M1354.85 786.94l137.91 0 0 -48.68c-46,0 -66.94,-8.86 -92.79,-41.07 -134.41,-167.54 -87.83,-137.41 -235.78,-137.41 4.84,18.12 113.83,162.51 129.22,183.13 15.23,20.39 26.68,44.03 61.43,44.03z"/>
   <path class="fil0" d="M1062.79 1853.79c9.47,-10.83 -1.04,-0.38 18.81,9.58 7.26,3.65 16.88,5.89 25.81,6.64l0 -64.9 64.91 0 0 -60.85 -64.91 0 0 -52.74 89.24 0 0 -60.85c-170.49,0 -150.09,-7.28 -150.09,235.28 0,52.8 32.38,66.11 75.05,68.96l75.04 0 0 -60.85c-78.69,0 -85.4,13.4 -133.86,-20.28z"/>
   <path class="fil0" d="M16.23 1849.73c11.83,-13.18 -6.63,8.35 44.62,20.28l0 -64.9 64.91 0 0 -60.85 -64.91 0 0 -52.74 93.29 0 0 -60.85c-137.75,0 -152.83,-3.8 -154.14,120.84l0 86.04c0,80.91 29.34,95.27 79.65,97.35l58.27 0c22.35,0 16.22,-29.95 16.22,-60.85l-89.24 0c-31.01,0 -31.13,-12.14 -48.68,-24.34z"/>
   <path class="fil0" d="M1906.52 1849.73c11.83,-13.18 -6.62,8.35 44.63,20.28l0 -64.9c34.93,0 39.73,2.75 68.96,-4.06 0,-64.53 9.7,-56.79 -68.96,-56.79l0 -52.74 93.29 0 0 -60.85c-50.28,0 -125.7,-8.52 -142.7,31.72 -6.35,15.03 -11.59,90.03 -11.67,106.15 -0.14,24.68 3.79,31.58 4.42,52.65 1.02,34.44 -13.53,113.71 64.77,113.71l85.18 0 0 -60.85c-35.35,0 -95.65,6.46 -118.54,-7.21 -14.64,-8.74 -8.03,-10.32 -19.38,-17.13z"/>
   <path class="fil0" d="M1801.05 1890.3c-5.69,21.34 -23.22,25.23 -28.4,44.62 88.76,-1.98 141.92,-88.72 49.29,-162.86 -47.07,-37.67 -62.25,-46.35 -53.34,-84.58 26.89,0 23.12,2.66 32.45,20.29 8.76,-2.04 16.13,-3.25 26.56,-5.9 12.24,-3.11 13.24,-5.2 26.18,-6.27 -2.76,-33.23 -25.16,-48.41 -48.68,-60.85 -12.43,8.31 -22.81,17.29 -32.46,28.39 2.87,-10.74 14.02,-23.09 20.29,-32.45 -74.41,0 -103.37,66.29 -79.26,115.75 33.23,68.15 91.42,53.48 91.42,123.58 -54.96,14.58 -39.89,-32.45 -56.8,-32.45 -10.05,0 -36.68,9.37 -48.68,12.17 0,30.33 36.67,112.05 88.29,55.84l13.12 -15.27z"/>
   <path class="fil0" d="M2040.38 1387.3l4.74 3.38c-0.63,0.72 -12.18,13.58 -14.07,15.67 -8.97,9.91 -7.29,3.77 -10.94,17.45 70.4,0 93.29,-35.55 93.29,-97.35 0,-47.73 -105.46,-92.25 -105.46,-129.8 0,-16.82 29.17,-27.49 36.51,0 21.96,-0.49 38.81,-7.98 56.79,-12.17 -4,-15.01 -33.75,-89.06 -77.86,-37.3 -0.54,0.63 -1.32,1.62 -1.83,2.23l-5.5 6.68c3.58,-13.39 0.72,-4.71 8.99,-15.36 7.05,-9.08 5.61,-6.34 11.3,-17.09 -51.12,0 -85.18,27.11 -85.18,77.07 0,40.23 34.21,68.72 55.71,90.32 13.16,13.23 28.26,20.83 38.46,34.67 12.18,16.53 16.49,37.27 -13.05,37.27 -23.52,0 -28,-20.42 -36.51,-36.51 -13.78,3.21 -41.4,10.78 -52.74,16.23 3.32,39.79 51.42,113.22 97.35,44.62zm4.06 -8.11l1.21 1.21c-0.08,-0.08 -1.61,-0.81 -1.21,-1.21z"/>
   <path class="fil0" d="M352.91 1906.52c0.63,-1.19 5.23,-0.72 5.67,-0.7 1.34,0.06 10.61,-10.25 3.37,0.65 -5.46,8.22 -11.58,4.82 -9.05,0.05zm15.55 -7.43l9.65 -11.98c3.39,-5.1 4.66,-8.14 7.25,-13.03 -54.76,0 -40.56,-46.95 -40.56,-141.97 0,-49.87 18.91,-50.79 36.51,-77.07 15.81,11.29 -15.4,-0.7 -16.23,36.51 32.73,0 25.69,7.61 44.62,20.28 20.69,-4.82 34.45,-13.21 44.63,-28.39 -7.07,-13.36 -12.53,-23.46 -24.15,-32.64 -63.35,-50.07 -146.22,-11.35 -146.22,105.66 0,63.45 -10.35,148.57 60.14,171.12 20.8,6.65 46.33,7.92 68.59,-1.82 26.67,-11.67 29.28,-20.2 41.64,-43.56 -10.22,-15.26 -23.6,-27.84 -48.68,-28.39 -5.32,22.85 -21.33,32.06 -32.46,48.68l-4.73 -3.38z"/>
   <path class="fil0" d="M864.02 1642.85c0,58.55 -5.66,48.68 52.74,48.68 -9.86,20.54 -3.92,147.03 -4.06,190.66 -0.14,44.92 -5.37,51.86 17.4,52.73l27.22 0c9.5,0 16.23,-6.73 16.23,-16.23l0 -227.16 44.62 0 0 -60.85 -141.97 0c-9.35,0 -12.17,2.82 -12.17,12.17z"/>
   <path class="fil0" d="M1346.73 1853.79c9.48,-10.83 -1.03,-0.38 18.81,9.58 7.26,3.65 16.88,5.89 25.82,6.64l0 -235.27c-13.49,-3.14 -60.85,-13.69 -60.85,8.11l0 223.11c0,52.8 32.38,66.11 75.05,68.96l75.03 0 0 -60.85c-65.72,0 -103.27,9.64 -133.86,-20.28z"/>
   <path class="fil0" d="M267.72 1334.56c-16.46,61.64 -137.92,4.79 -137.92,40.57 0,60.56 -14.19,48.68 81.13,48.68 46.84,0 68.96,-22.11 68.96,-68.96l0 -231.22c-41.91,0 -60.85,-5.86 -60.85,12.17l0 210.93c0,16.43 13.66,12.13 23.81,8.29 15.4,-5.83 16.57,-10.9 24.87,-20.46z"/>
   <path class="fil0" d="M1541.44 709.88c0,42.89 27.71,66.01 59.46,63.33 83.13,-7.04 72.15,-120.12 1.39,-120.12 -34.25,0 -60.85,22.31 -60.85,56.8z"/>
  </g>
 </g>
</svg>
