<?xml version="1.0" encoding="UTF-8"?>
<!DOCTYPE svg PUBLIC "-//W3C//DTD SVG 1.1//EN" "http://www.w3.org/Graphics/SVG/1.1/DTD/svg11.dtd">
<!-- Creator: CorelDRAW 2021 (64 Bit) -->
<svg xmlns="http://www.w3.org/2000/svg" xml:space="preserve" width="12.7mm" height="12.6974mm" version="1.1" style="shape-rendering:geometricPrecision; text-rendering:geometricPrecision; image-rendering:optimizeQuality; fill-rule:evenodd; clip-rule:evenodd"
viewBox="0 0 6.97 6.97"
 xmlns:xlink="http://www.w3.org/1999/xlink"
 xmlns:xodm="http://www.corel.com/coreldraw/odm/2003">
 <defs>
  <style type="text/css">
   <![CDATA[
    .str0 {stroke:#A8A1A1;stroke-width:0.44;stroke-miterlimit:22.9256}
    .str1 {stroke:black;stroke-width:0.16;stroke-miterlimit:22.9256}
    .fil1 {fill:red}
    .fil0 {fill:white}
   ]]>
  </style>
 </defs>
 <g id="Camada_x0020_1">
  <metadata id="CorelCorpID_0Corel-Layer"/>
  <path class="fil0 str0" d="M1.31 0.22l4.35 0c0.6,0 1.09,0.55 1.09,1.22l0 4.1c0,0.67 -0.49,1.22 -1.09,1.22l-4.35 0c-0.6,-0 -1.09,-0.55 -1.09,-1.22l-0 -4.1c0,-0.67 0.49,-1.22 1.09,-1.22z"/>
  <path class="fil1 str1" d="M2.03 1.73c-0.27,-0.03 -0.48,0.17 -0.51,0.42 -0.04,0.29 0.17,0.52 0.41,0.55 0.27,0.03 0.5,-0.18 0.52,-0.43 0.03,-0.29 -0.17,-0.51 -0.42,-0.54zm0.78 -0.42c-0.14,-0.02 -0.26,0.09 -0.28,0.21 -0.03,0.15 0.08,0.27 0.2,0.3 0.33,0.07 0.4,-0.46 0.08,-0.51zm-0.13 -0.06c0.06,0.02 0.14,0.04 0.21,0.06 0.07,0.02 0.14,0.06 0.2,0.08 0.12,0.08 0.19,0.1 0.27,0.2 -0.01,0.05 -0.04,0.07 -0.07,0.09 -0.03,0.03 -0.05,0.05 -0.08,0.08 0.03,0.05 0.1,0.1 0.14,0.16 0.02,0.03 0.04,0.05 0.07,0.08 0.21,0.3 0.33,0.67 0.24,1.05 -0.01,0.04 -0.05,0.21 -0.06,0.23 -0.03,0.05 -0.09,0.12 -0.11,0.2 0.09,0.09 0.18,0.18 0.27,0.27l0.26 0.28c0.05,0.05 0.09,0.09 0.14,0.13 0.04,0.04 0.1,0.09 0.14,0.13l0.66 0.68c0.04,0.05 0.09,0.09 0.13,0.14 0.17,0.16 0.31,0.32 0.47,0.48 0.03,0.03 0.05,0.04 0.06,0.07 -0.08,0.1 -0.36,0.25 -0.55,0.18 -0.02,-0.01 -0.17,-0.17 -0.19,-0.2 -0.04,-0.06 -0.03,-0.05 -0.1,-0.08l-0.4 -0.17c-0.21,-0.09 -0.19,-0.05 -0.22,-0.16 -0.06,-0.19 -0.14,-0.41 -0.19,-0.59l-0.56 -0.05c-0.08,-0.01 -0.13,0 -0.17,-0.04l-0.27 -0.35c-0.02,-0.03 -0.06,-0.09 -0.09,-0.11 -0.4,0.2 -0.82,0.22 -1.22,0.01 -0.14,-0.07 -0.3,-0.25 -0.4,-0.38 -0.27,-0.35 -0.34,-0.82 -0.28,-1.26 0.02,-0.16 0.18,-0.43 0.25,-0.53 0.1,-0.14 0.26,-0.28 0.42,-0.36 0.27,-0.14 0.4,-0.09 0.62,-0.14 0.03,-0.1 -0,-0.13 -0.01,-0.24l0.04 -0.01c0.06,0.01 0.12,0 0.19,0.01 0.06,0.01 0.11,0.02 0.17,0.03z"/>
 </g>
</svg>
