<?xml version="1.0" encoding="UTF-8"?>
<!DOCTYPE svg PUBLIC "-//W3C//DTD SVG 1.1//EN" "http://www.w3.org/Graphics/SVG/1.1/DTD/svg11.dtd">
<!-- Creator: CorelDRAW 2021 (64 Bit) -->
<svg xmlns="http://www.w3.org/2000/svg" xml:space="preserve" width="28.0131mm" height="14.0069mm" version="1.1" style="shape-rendering:geometricPrecision; text-rendering:geometricPrecision; image-rendering:optimizeQuality; fill-rule:evenodd; clip-rule:evenodd"
viewBox="0 0 69.48 34.74"
 xmlns:xlink="http://www.w3.org/1999/xlink"
 xmlns:xodm="http://www.corel.com/coreldraw/odm/2003">
 <defs>
  <style type="text/css">
   <![CDATA[
    .fil3 {fill:black}
    .fil5 {fill:#53331D}
    .fil8 {fill:#7BFF00}
    .fil2 {fill:#86B0C0}
    .fil7 {fill:#9D720B}
    .fil6 {fill:#B8E3E9}
    .fil0 {fill:#E2A610}
    .fil4 {fill:#FCD532}
    .fil1 {fill:white}
   ]]>
  </style>
 </defs>
 <g id="Camada_x0020_1">
  <metadata id="CorelCorpID_0Corel-Layer"/>
  <path class="fil0" d="M56.32 22.98l0.08 -0.04c0.27,-0.06 0.44,-0.14 0.77,-0.14 0.31,0 0.54,0.1 0.79,0.13 0.92,0.21 1.53,0.77 1.66,1.72 0.14,1.03 -0.66,1.64 -1.41,1.9 0.06,0.2 0.57,1.18 0.71,1.48 0.22,0.47 0.46,0.97 0.7,1.43 0.08,0.15 0.32,0.59 0.36,0.74 0.11,0.4 -0.25,0.44 -0.61,0.44 -1.36,-0.01 -3.28,0.04 -4.51,-0 -0.39,-0.02 -0.59,-0.15 -0.41,-0.53 0.12,-0.24 0.23,-0.47 0.35,-0.72 0.37,-0.76 1.03,-2.22 1.39,-2.88 -0.45,-0.21 -0.59,-0.22 -0.97,-0.66 -1.15,-1.34 0.21,-2.8 1.09,-2.86zm13.12 -6.79c-0.13,1.11 -0.91,1.65 -1.78,2.06 -3.86,1.82 -13.35,1.67 -17.52,0.87 -1.01,-0.19 -2.17,-0.48 -2.98,-0.9 -0.47,-0.24 -0.84,-0.49 -1.12,-0.8 -0.23,-0.25 -0.43,-0.5 -0.53,-0.86 -0.03,-0.12 -0.04,-0.27 -0.11,-0.36 -0.07,0.14 -0.07,3.59 -0.07,3.69 -0.01,1.24 -0.03,2.48 -0.04,3.72 -0.02,2.47 -0.05,4.94 -0.08,7.4 -0.01,0.91 -0.18,0.82 0.51,1.41 0.27,0.23 0.82,0.54 1.24,0.72 0.93,0.4 1.96,0.68 3.05,0.91 4.63,0.96 9.91,0.93 14.55,-0.02 1.02,-0.21 2.19,-0.5 3.06,-0.89 0.48,-0.21 0.9,-0.42 1.27,-0.69 0.74,-0.55 0.57,-0.59 0.57,-1.32 0,-2.49 0,-4.98 0,-7.47 0,-0.11 0.05,-7.28 -0.03,-7.45z"/>
  <path class="fil1" d="M14.36 14.95c0.24,0.27 0.39,0.47 0.86,0.65 0.45,0.18 0.98,0.22 1.52,0.22 0.69,0 1.14,-0.22 1.62,-0.54l0.72 -0.53c0.24,0.17 0.3,0.4 0.69,0.51 -0.14,0.44 -0.82,0.84 -1.24,1.05 -1.12,0.57 -2.61,0.68 -3.77,0.14 -0.55,-0.26 -0.99,-0.57 -1.26,-0.98 0.12,-0.2 0.51,-0.48 0.74,-0.63l0.11 0.1zm-1.22 -4.87c0.66,-0.15 1.26,0.16 1.38,0.65 0.16,0.63 -0.26,1.15 -0.76,1.28 -1.42,0.37 -2.09,-1.6 -0.62,-1.92zm5.81 -0c0.67,-0.15 1.26,0.16 1.38,0.65 0.16,0.62 -0.27,1.15 -0.76,1.27 -1.41,0.37 -2.1,-1.6 -0.62,-1.92zm4.8 0.89c0.19,-1.31 0.89,-2.32 -0.99,-3.51 -0.56,-0.35 -0.84,-0.37 -1.24,-0.1 -0.37,0.25 -0.63,0.48 -1.02,0.71 -1.15,0.69 -2.47,1.22 -3.94,1.24 -2.23,0.03 -3.7,-1.12 -4.95,-1.97 -0.45,-0.31 -0.88,-0.16 -1.38,0.04 -0.47,0.18 -0.73,0.34 -0.85,0.84 -0.08,0.36 -0.29,1.05 -0.26,1.38 0.03,0.47 0.25,0.96 0.2,1.43 -0.26,0.12 -0.9,0.13 -1.23,0.19 -0.25,0.84 0.09,1.36 0.31,2.11 0.29,0.96 0.56,0.92 1.68,0.97 0.09,0.13 0.13,0.36 0.2,0.51 0.37,0.94 1.33,2.11 2.07,2.69 0.26,0.21 0.49,0.39 0.83,0.58 0.3,0.16 0.61,0.3 0.98,0.41 0.77,0.24 1.62,0.3 2.48,0.32 1.85,0.03 3.16,-0.55 4.24,-1.35 0.64,-0.47 0.63,-0.5 1.1,-0.99 0.94,-1 1.08,-1.94 1.21,-2.16 0.68,-0.05 1.06,0.15 1.44,-0.33 0.27,-0.34 0.21,-0.88 0.35,-1.3 0.12,-0.36 0.46,-0.99 0.11,-1.29 -0.13,-0.11 -1.11,-0.36 -1.33,-0.41z"/>
  <path class="fil2" d="M53.31 3.89c-0.17,0.87 -0.67,0.82 -1.24,1.6 -0.77,1.05 -1.29,2.71 -1.62,3.98 -0.09,0.34 -0.16,0.87 -0.45,0.97 -0.24,0.09 -0.37,-0.12 -0.42,-0.28 -0.06,-0.19 -0.05,-0.45 -0.05,-0.65 -0.02,-2.31 0.17,-4.87 2.17,-6.21 0.98,-0.66 1.76,-0.23 1.6,0.58zm-4.42 10.84l0.01 2.75c0.04,0.1 0.01,0.06 0.12,0.13 0.37,0.27 1.03,0.5 1.49,0.55 0.9,0.1 1.6,-0.19 2.28,-0.57 0.2,-0.12 0.16,-0.13 0.16,-0.39 0,-0.37 0.01,-0.74 0.02,-1.11 0.01,-0.67 -0.02,-1.49 0.04,-2.14 -0.06,-1.18 0.05,-3.56 0.08,-4.95 0.01,-0.68 0,-0.87 0.23,-1.48 1.07,-2.77 4.01,-4.12 6.75,-2.94 1.59,0.68 2.91,2.48 2.91,4.03 -0,1.13 0,2.25 0,3.38 0.51,0.24 1.14,0.44 1.82,0.44 0.59,0.01 1.48,-0.19 1.85,-0.46 0,-0.88 0.05,-1.75 0.06,-2.63 0.02,-1.93 -1.02,-4.56 -2.28,-5.9 -0.61,-0.65 -0.75,-0.8 -1.45,-1.33 -0.48,-0.37 -1.11,-0.74 -1.75,-1.05 -2.26,-1.06 -4.63,-1.08 -7.02,-0.16 -0.64,0.25 -1.31,0.54 -1.8,0.99 -0.59,0.54 -0.82,0.63 -1.4,1.37 -0.25,0.32 -0.34,0.4 -0.59,0.77 -0.19,0.29 -0.35,0.55 -0.52,0.87 -0.67,1.29 -1.03,2.78 -1.02,4.42 0.01,1.77 0.07,3.62 0.01,5.38z"/>
  <path class="fil3" d="M23.75 10.96c0.22,0.05 1.2,0.29 1.33,0.41 0.35,0.3 0.01,0.93 -0.11,1.29 -0.14,0.42 -0.08,0.97 -0.35,1.3 -0.38,0.48 -0.76,0.28 -1.44,0.33 -0.14,0.23 -0.27,1.17 -1.21,2.16 -0.46,0.49 -0.45,0.52 -1.1,0.99 -1.09,0.79 -2.4,1.38 -4.24,1.35 -0.86,-0.02 -1.71,-0.08 -2.48,-0.32 -0.37,-0.11 -0.68,-0.25 -0.98,-0.41 -0.35,-0.19 -0.57,-0.37 -0.83,-0.58 -0.73,-0.59 -1.7,-1.75 -2.07,-2.69 -0.06,-0.16 -0.1,-0.39 -0.2,-0.51 -1.13,-0.04 -1.4,-0 -1.68,-0.97 -0.22,-0.75 -0.55,-1.27 -0.31,-2.11 0.33,-0.06 0.97,-0.07 1.23,-0.19 0.04,-0.47 -0.17,-0.96 -0.2,-1.43 -0.02,-0.33 0.18,-1.03 0.26,-1.38 0.12,-0.5 0.38,-0.66 0.85,-0.84 0.5,-0.19 0.93,-0.34 1.38,-0.04 1.25,0.85 2.72,2 4.95,1.97 1.47,-0.02 2.79,-0.56 3.94,-1.24 0.39,-0.23 0.65,-0.46 1.02,-0.71 0.4,-0.27 0.69,-0.25 1.24,0.1 1.88,1.19 1.18,2.2 0.99,3.51zm-10.16 -10.52c0.04,0.2 0.22,0.78 0.32,0.9 2.28,-0.82 5.7,-0.38 7.42,1.25 0.47,0.45 0.28,0.08 1.1,0.99 0.15,0.17 0.3,0.38 0.45,0.59 0.47,0.66 1.09,1.96 1.16,2.95 -0.52,-0.25 -1.04,-0.69 -1.7,-0.91 -0.62,-0.21 -0.94,-0 -1.41,0.36 -0.15,0.11 -0.23,0.16 -0.37,0.28 -0.34,0.28 -1.14,0.74 -1.65,0.96 -2.1,0.89 -3.85,0.63 -5.66,-0.57l-1.19 -0.8c-0.36,-0.23 -0.47,-0.32 -1.02,-0.28 -0.39,0.03 -0.72,0.12 -1.05,0.26 -0.24,0.1 -0.73,0.39 -0.92,0.43 0.06,-1.53 1.26,-2.65 1.34,-3.01 -0.2,-0.16 -0.48,-0.42 -0.88,-0.49l-0.83 1.31c-0.67,1.21 -0.69,2.25 -0.69,3.61 -0,0.73 0.17,1.27 0.19,1.94 -0.62,0.12 -0.88,0.29 -1.05,0.83 -0.18,0.54 -0.11,1.09 0.01,1.62 0.26,1.09 0.5,1.93 1.36,2.35 0.61,0.3 0.85,0.11 1.17,0.72 0.3,0.57 0.41,0.89 0.92,1.4 0.52,0.53 0.53,0.59 1.18,1.16 0.24,0.21 0.45,0.26 0.58,0.35 0,0.52 0.01,1.04 0.01,1.55 -0,0.55 0.13,1.07 -0.49,1.13 -1.04,0.11 -1.95,0.28 -2.96,0.44 -1.55,0.25 -4.26,0.62 -5.61,1.16 -1.28,0.52 -2.1,1.22 -2.67,2.27 -0.84,1.58 -0.58,2.22 -0.58,4.24 0,0.5 -0.03,2.89 0.01,3.18 0.19,0.02 0.46,0.02 0.65,0.02 0.28,-0.01 0.36,-0.03 0.41,-0.27 0.04,-0.22 -0,-3.42 -0,-3.83 0,-1.98 0.08,-3 1.32,-3.98 0.58,-0.46 1,-0.68 1.76,-0.92 1.35,-0.44 3.2,-0.63 4.64,-0.88 0.74,-0.13 1.67,-0.34 2.44,-0.33 0.01,0.71 0.22,1.31 0.55,1.82 1,1.53 2.92,2.5 4.88,2.51 0.27,-1.86 -0.28,-0.29 -2.7,-1.73 -0.71,-0.42 -1.82,-1.51 -1.75,-2.78 0.43,-0.31 0.99,-0.28 1.07,-1.01 0.07,-0.59 -0.01,-1.43 -0.01,-2.06 0.23,0.07 0.48,0.2 0.73,0.28 0.25,0.09 0.51,0.15 0.78,0.21 0.6,0.12 1.22,0.16 1.86,0.14 2.8,-0.1 5.6,-1.56 6.9,-3.87 0.12,-0.2 0.19,-0.49 0.29,-0.66 1.83,-0.04 1.81,-1.38 2.08,-2.27 0.12,-0.43 0.51,-0.87 0.24,-1.69 -0.28,-0.81 -0.93,-0.89 -1.16,-1.03 -0.12,-1.82 0.5,-2.53 -0.37,-4.84 -0.64,-1.72 -1.5,-2.84 -3.03,-3.88 -0.28,-0.19 -0.56,-0.37 -0.87,-0.54 -0.61,-0.33 -1.29,-0.62 -2.04,-0.81 -1.11,-0.28 -2.79,-0.28 -3.97,-0.09 -0.46,0.07 -0.76,0.22 -1.13,0.3z"/>
  <path class="fil4" d="M63.89 15.6c0.89,-0.11 1.84,0.11 2.24,0.61 0.31,0.38 0.01,0.73 -0.25,0.92 -1.38,0.98 -4.65,-0.04 -3.11,-1.17 0.29,-0.21 0.69,-0.31 1.12,-0.36zm-10.88 -1.65c-0.06,0.65 -0.03,1.47 -0.04,2.14 -0.01,0.37 -0.02,0.74 -0.02,1.11 -0,0.26 0.04,0.28 -0.16,0.39 -0.67,0.38 -1.38,0.67 -2.28,0.57 -0.46,-0.05 -1.12,-0.29 -1.49,-0.55 -0.1,-0.08 -0.08,-0.03 -0.12,-0.13l-0.01 -2.75c-0.64,0.1 -2.23,0.59 -2.83,0.9 -0.61,0.31 -0.45,0.32 -0.66,0.56 0.08,0.1 0.08,0.25 0.11,0.36 0.1,0.36 0.3,0.61 0.53,0.86 0.28,0.31 0.65,0.55 1.12,0.8 0.81,0.42 1.97,0.71 2.98,0.9 4.16,0.79 13.66,0.95 17.52,-0.87 0.87,-0.41 1.65,-0.95 1.78,-2.06 -0.06,-0.19 -0.12,-0.27 -0.25,-0.35 -0.1,-0.07 -0.23,-0.15 -0.36,-0.22 -0.26,-0.14 -0.55,-0.25 -0.85,-0.36 -2.65,-0.99 -7.6,-1.72 -10.46,-1.67 -1.6,0.03 -2.96,0.18 -4.5,0.37z"/>
  <path class="fil3" d="M24.92 16.94c-0.15,0.08 -0.33,0.24 -0.46,0.35 -1.08,0.87 -1.66,2.49 -1.76,3.85 -0.03,0.5 -0.03,1.01 0.08,1.48 0.2,0.82 0.42,0.86 0.11,1.14 -0.63,0.58 -1.03,0.99 -1.68,1.56l-1.68 1.59c-0.35,0.33 -4.9,4.59 -4.98,4.73 0.31,0.19 0.51,0.36 0.8,0.58 0.86,0.67 2.18,1.02 3.22,0.64 0.64,-0.23 0.86,-0.92 1.55,-1.16l2.15 -0.6c0.03,-0.05 -0.01,0.04 0.04,-0.08 0.03,-0.06 0,0 0.03,-0.08 0.17,-0.62 0.6,-1.62 0.85,-2.29 0.78,0 2.02,0.08 2.61,-0.29 0.27,-0.17 0.48,-0.45 0.7,-0.71 0.22,-0.25 0.54,-0.53 0.64,-0.72 1.14,0.31 1.6,0.46 2.99,0.28 0.9,-0.12 1.89,-0.46 2.48,-0.88 0.68,-0.47 1.23,-0.92 1.69,-1.62 0.44,-0.68 0.79,-1.34 0.99,-2.28 0.2,-0.99 0.14,-1.95 -0.16,-2.87 -0.3,-0.9 -0.73,-1.49 -1.23,-2.05l-0.87 -0.78c-0.83,-0.62 -1.96,-1.05 -3.05,-1.15 -0.13,-0.01 -0.65,-0.07 -0.76,-0l0.16 0.05c-0.02,0.39 -0.15,0.49 -0.03,0.86 0.91,0.18 1.43,-0.02 2.55,0.5 0.64,0.29 1.29,0.79 1.7,1.3 0.3,0.37 0.94,1.33 1.04,1.91 0.28,1.59 -0.02,3.29 -1.13,4.54 -0.4,0.45 -1.06,1.11 -1.64,1.36 -1.66,0.73 -3.38,0.68 -5.01,-0.05 -0.12,0.08 -0.28,0.27 -0.39,0.39l-1.11 1.26c-0.15,0.13 -0.36,0.1 -0.68,0.13l-2.29 0.19c-0.18,0.65 -0.53,1.43 -0.76,2.11 -0.13,0.37 -0.02,0.24 -0.89,0.56l-1.62 0.6c-0.31,0.11 -0.26,0.07 -0.43,0.3 -0.06,0.08 -0.69,0.68 -0.77,0.7 -0.78,0.23 -1.95,-0.28 -2.27,-0.65 0.06,-0.12 0.13,-0.15 0.26,-0.26 0.66,-0.56 1.23,-1.13 1.92,-1.72 0.19,-0.17 0.38,-0.3 0.55,-0.49l2.72 -2.46c0.15,-0.16 0.39,-0.34 0.56,-0.48 0.2,-0.17 0.37,-0.31 0.56,-0.48l1.08 -1.01c0.38,-0.33 0.75,-0.63 1.11,-0.97 -0.06,-0.27 -0.32,-0.51 -0.43,-0.7 -0.06,-0.1 -0.21,-0.69 -0.25,-0.84 -0.37,-1.38 0.13,-2.71 0.99,-3.77 0.09,-0.11 0.18,-0.2 0.27,-0.31 0.16,-0.21 0.42,-0.39 0.55,-0.58 -0.11,-0.09 -0.19,-0.17 -0.32,-0.28 -0.11,-0.09 -0.24,-0.15 -0.27,-0.33z"/>
  <path class="fil5" d="M56.4 22.94l-0.08 0.04c-0.24,0.25 -0.94,0.47 -0.9,1.57 0.03,0.66 0.5,1.34 1.01,1.48 -0.16,0.65 -1.35,3.09 -1.31,3.49 0.17,0.26 0.59,0.19 0.97,0.19l2.35 -0c1.01,0.01 0.92,-0.06 0.46,-1.17l-0.66 -1.61c-0.09,-0.22 -0.27,-0.6 -0.32,-0.81 0.37,-0.29 1.06,-0.51 1.03,-1.57 -0.02,-0.72 -0.31,-1.17 -0.89,-1.53 -0.01,-0 -0.02,-0.01 -0.02,-0.01l-0.09 -0.07c-0.24,-0.02 -0.47,-0.12 -0.79,-0.13 -0.33,-0 -0.5,0.07 -0.77,0.14z"/>
  <path class="fil6" d="M53.31 3.89c0.16,-0.81 -0.62,-1.24 -1.6,-0.58 -2,1.34 -2.19,3.9 -2.17,6.21 0,0.2 -0.01,0.46 0.05,0.65 0.05,0.15 0.17,0.36 0.42,0.28 0.3,-0.11 0.36,-0.63 0.45,-0.97 0.33,-1.27 0.85,-2.94 1.62,-3.98 0.57,-0.78 1.07,-0.74 1.24,-1.6z"/>
  <path class="fil7" d="M57.96 22.93l0.09 0.07c0.01,0 0.02,0.01 0.02,0.01 0.58,0.36 0.87,0.81 0.89,1.53 0.03,1.06 -0.66,1.27 -1.03,1.57 0.05,0.21 0.23,0.59 0.32,0.81l0.66 1.61c0.46,1.11 0.55,1.18 -0.46,1.17l-2.35 0c-0.38,0 -0.8,0.08 -0.97,-0.19 -0.04,-0.4 1.15,-2.84 1.31,-3.49 -0.51,-0.15 -0.99,-0.82 -1.01,-1.48 -0.04,-1.09 0.66,-1.32 0.9,-1.57l0.08 -0.04 -0.08 0.04c-0.89,0.06 -2.24,1.52 -1.09,2.86 0.38,0.44 0.52,0.44 0.97,0.66 -0.36,0.66 -1.02,2.12 -1.39,2.88 -0.12,0.24 -0.23,0.47 -0.35,0.72 -0.18,0.38 0.02,0.51 0.41,0.53 1.23,0.05 3.15,-0.01 4.51,0 0.36,0 0.72,-0.04 0.61,-0.44 -0.04,-0.15 -0.28,-0.59 -0.36,-0.74 -0.24,-0.46 -0.48,-0.96 -0.7,-1.43 -0.14,-0.29 -0.65,-1.27 -0.71,-1.48 0.75,-0.25 1.55,-0.87 1.41,-1.9 -0.13,-0.95 -0.74,-1.51 -1.66,-1.72z"/>
  <path class="fil1" d="M30.31 17.73c-2.21,0.34 -1.6,3.22 0.5,2.92 0.8,-0.11 1.51,-0.82 1.34,-1.73 -0.14,-0.7 -0.89,-1.33 -1.83,-1.19z"/>
  <path class="fil3" d="M14.24 14.84c-0.23,0.15 -0.62,0.43 -0.74,0.63 0.27,0.41 0.71,0.72 1.26,0.98 1.16,0.54 2.65,0.43 3.77,-0.14 0.41,-0.21 1.1,-0.62 1.24,-1.05 -0.39,-0.11 -0.45,-0.34 -0.69,-0.51l-0.72 0.53c-0.48,0.32 -0.93,0.55 -1.62,0.54 -0.53,-0 -1.06,-0.05 -1.52,-0.22 -0.47,-0.18 -0.62,-0.38 -0.86,-0.65l-0.11 -0.1z"/>
  <path class="fil7" d="M63.89 15.6c-0.43,0.05 -0.84,0.15 -1.12,0.36 -1.54,1.12 1.73,2.15 3.11,1.17 0.27,-0.19 0.56,-0.54 0.25,-0.92 -0.4,-0.5 -1.34,-0.72 -2.24,-0.61z"/>
  <polygon class="fil3" points="4.51,32.63 5.46,32.63 5.46,28.74 4.49,28.74 "/>
  <path class="fil5" d="M13.14 10.07c-1.47,0.33 -0.79,2.29 0.62,1.92 0.5,-0.13 0.92,-0.65 0.76,-1.28 -0.12,-0.49 -0.72,-0.79 -1.38,-0.65z"/>
  <polygon class="fil3" points="32.07,32.54 33.04,32.53 33.03,28.83 32.07,28.83 "/>
  <path class="fil5" d="M18.95 10.07c-1.47,0.32 -0.79,2.29 0.62,1.92 0.48,-0.13 0.91,-0.66 0.76,-1.27 -0.12,-0.49 -0.72,-0.79 -1.38,-0.65z"/>
  <path class="fil3" d="M30.31 17.73c0.94,-0.14 1.69,0.49 1.83,1.19 0.18,0.91 -0.54,1.62 -1.34,1.73 -2.09,0.3 -2.71,-2.59 -0.5,-2.92zm0.03 -0.28c-0.99,0.1 -1.83,0.9 -1.71,1.94 0.1,0.9 1.04,1.67 2.14,1.55 0.97,-0.11 1.84,-0.94 1.67,-1.98 -0.14,-0.88 -1.01,-1.61 -2.11,-1.5z"/>
  <path class="fil5" d="M27.15 15.93c-1.29,0.17 -1.03,2.06 0.35,1.83 0.48,-0.08 0.92,-0.51 0.81,-1.06 -0.09,-0.46 -0.57,-0.84 -1.16,-0.76z"/>
  <path class="fil3" d="M11.73 1.31c-1.34,0.19 -1.02,1.96 0.38,1.72 1.24,-0.21 1,-1.91 -0.38,-1.72z"/>
  <path class="fil3" d="M26.04 16.22c0.25,-0.07 0.53,-0.2 0.81,-0.28 0.25,-0.07 0.61,-0.14 0.84,-0.22 -0.49,-0.45 -1.55,-0.14 -1.65,0.5z"/>
  <path class="fil8" d="M30.34 17.44c1.1,-0.11 1.97,0.63 2.11,1.5 0.16,1.04 -0.71,1.88 -1.67,1.98 -1.11,0.12 -2.04,-0.65 -2.14,-1.55 -0.12,-1.04 0.72,-1.84 1.71,-1.94zm-3.19 -1.51c0.59,-0.08 1.07,0.31 1.16,0.76 0.11,0.55 -0.33,0.98 -0.81,1.06 -1.37,0.24 -1.63,-1.66 -0.35,-1.83zm0.55 -0.21c-0.23,0.08 -0.59,0.15 -0.84,0.22 -0.28,0.08 -0.56,0.21 -0.81,0.28 -0.5,0.27 -0.77,0.35 -1.12,0.71 0.03,0.18 0.16,0.24 0.27,0.33 0.13,0.11 0.21,0.2 0.32,0.28 -0.14,0.19 -0.39,0.37 -0.55,0.58 -0.08,0.11 -0.17,0.19 -0.27,0.31 -0.87,1.07 -1.36,2.4 -0.99,3.77 0.04,0.15 0.2,0.74 0.25,0.84 0.11,0.19 0.38,0.44 0.43,0.7 -0.36,0.34 -0.72,0.64 -1.11,0.97l-1.08 1.01c-0.2,0.17 -0.37,0.31 -0.56,0.48 -0.17,0.15 -0.41,0.33 -0.56,0.48l-2.72 2.46c-0.17,0.2 -0.36,0.33 -0.55,0.49 -0.69,0.59 -1.26,1.16 -1.92,1.72 -0.13,0.11 -0.19,0.14 -0.26,0.26 0.32,0.37 1.49,0.88 2.27,0.65 0.08,-0.02 0.71,-0.62 0.77,-0.7 0.16,-0.22 0.12,-0.18 0.43,-0.3l1.62 -0.6c0.87,-0.32 0.77,-0.19 0.89,-0.56 0.23,-0.68 0.57,-1.46 0.76,-2.11l2.29 -0.19c0.32,-0.03 0.54,0 0.68,-0.13l1.11 -1.26c0.1,-0.12 0.26,-0.31 0.39,-0.39 1.64,0.73 3.36,0.78 5.01,0.05 0.57,-0.25 1.24,-0.91 1.64,-1.36 1.11,-1.26 1.41,-2.95 1.13,-4.54 -0.1,-0.58 -0.75,-1.54 -1.04,-1.91 -0.41,-0.51 -1.07,-1 -1.7,-1.3 -1.12,-0.52 -1.65,-0.32 -2.55,-0.5 -0.12,-0.37 0.01,-0.47 0.03,-0.86l-0.16 -0.05c-0.26,0.02 -0.51,0.01 -0.79,0.04 -0.24,0.03 -0.46,0.08 -0.7,0.1z"/>
 </g>
</svg>
