<?xml version="1.0" encoding="UTF-8"?>
<!DOCTYPE svg PUBLIC "-//W3C//DTD SVG 1.1//EN" "http://www.w3.org/Graphics/SVG/1.1/DTD/svg11.dtd">
<!-- Creator: CorelDRAW 2021 (64 Bit) -->
<svg xmlns="http://www.w3.org/2000/svg" xml:space="preserve" width="8.3641mm" height="8.342mm" version="1.1" style="shape-rendering:geometricPrecision; text-rendering:geometricPrecision; image-rendering:optimizeQuality; fill-rule:evenodd; clip-rule:evenodd"
viewBox="0 0 2.99 2.98"
 xmlns:xlink="http://www.w3.org/1999/xlink"
 xmlns:xodm="http://www.corel.com/coreldraw/odm/2003">
 <defs>
  <style type="text/css">
   <![CDATA[
    .str0 {stroke:black;stroke-width:0.11;stroke-miterlimit:22.9256}
    .fil0 {fill:red}
   ]]>
  </style>
 </defs>
 <g id="Camada_x0020_1">
  <metadata id="CorelCorpID_0Corel-Layer"/>
  <path class="fil0 str0" d="M0.71 0.37c-0.17,-0.02 -0.3,0.11 -0.32,0.26 -0.02,0.18 0.11,0.32 0.25,0.34 0.17,0.02 0.31,-0.11 0.32,-0.27 0.02,-0.18 -0.11,-0.32 -0.26,-0.33zm0.48 -0.26c-0.09,-0.01 -0.16,0.05 -0.17,0.13 -0.02,0.1 0.05,0.17 0.12,0.18 0.21,0.04 0.25,-0.28 0.05,-0.31zm-0.08 -0.04c0.04,0.01 0.09,0.03 0.13,0.04 0.04,0.01 0.08,0.04 0.12,0.05 0.07,0.05 0.12,0.06 0.17,0.12 -0,0.03 -0.02,0.04 -0.04,0.06 -0.02,0.02 -0.03,0.03 -0.05,0.05 0.02,0.03 0.06,0.06 0.08,0.1 0.01,0.02 0.03,0.03 0.04,0.05 0.13,0.18 0.2,0.41 0.15,0.65 -0.01,0.03 -0.03,0.13 -0.04,0.14 -0.02,0.03 -0.06,0.08 -0.06,0.12 0.05,0.06 0.11,0.11 0.17,0.17l0.16 0.17c0.03,0.03 0.06,0.05 0.08,0.08 0.03,0.03 0.06,0.06 0.08,0.08l0.41 0.42c0.03,0.03 0.05,0.06 0.08,0.08 0.1,0.1 0.19,0.2 0.29,0.3 0.02,0.02 0.03,0.02 0.04,0.04 -0.05,0.06 -0.22,0.15 -0.34,0.11 -0.01,-0 -0.11,-0.11 -0.12,-0.12 -0.02,-0.04 -0.02,-0.03 -0.06,-0.05l-0.24 -0.1c-0.13,-0.06 -0.12,-0.03 -0.13,-0.1 -0.03,-0.12 -0.09,-0.25 -0.11,-0.36l-0.35 -0.03c-0.05,-0 -0.08,0 -0.1,-0.02l-0.17 -0.22c-0.02,-0.02 -0.04,-0.05 -0.06,-0.07 -0.25,0.13 -0.51,0.13 -0.75,0.01 -0.09,-0.04 -0.19,-0.16 -0.25,-0.23 -0.17,-0.22 -0.21,-0.51 -0.17,-0.78 0.02,-0.1 0.11,-0.26 0.16,-0.33 0.06,-0.09 0.16,-0.17 0.26,-0.22 0.17,-0.09 0.25,-0.05 0.38,-0.09 0.02,-0.06 -0,-0.08 -0,-0.15l0.02 -0.01c0.04,0 0.08,0 0.12,0.01 0.04,0 0.07,0.01 0.11,0.02z"/>
 </g>
</svg>
