<?xml version="1.0" encoding="UTF-8"?>
<!DOCTYPE svg PUBLIC "-//W3C//DTD SVG 1.1//EN" "http://www.w3.org/Graphics/SVG/1.1/DTD/svg11.dtd">
<!-- Creator: CorelDRAW 2021 (64 Bit) -->
<svg xmlns="http://www.w3.org/2000/svg" xml:space="preserve" width="12.7mm" height="6.7733mm" version="1.1" style="shape-rendering:geometricPrecision; text-rendering:geometricPrecision; image-rendering:optimizeQuality; fill-rule:evenodd; clip-rule:evenodd"
viewBox="0 0 6.87 3.66"
 xmlns:xlink="http://www.w3.org/1999/xlink"
 xmlns:xodm="http://www.corel.com/coreldraw/odm/2003">
 <defs>
  <style type="text/css">
   <![CDATA[
    .fil4 {fill:black}
    .fil6 {fill:#52331D}
    .fil2 {fill:#86B0C0}
    .fil8 {fill:#9F740B}
    .fil7 {fill:#B8E3E9}
    .fil1 {fill:#E2A610}
    .fil5 {fill:#FCD532}
    .fil3 {fill:red}
    .fil0 {fill:white}
   ]]>
  </style>
   <clipPath id="id0">
    <rect width="6.87" height="3.66"/>
   </clipPath>
 </defs>
 <g id="Camada_x0020_1">
  <metadata id="CorelCorpID_0Corel-Layer"/>
  <g style="clip-path:url(#id0)">
   <image id="login0.png" x="-0" y="0" width="6.87" height="3.66" />
  </g>
  <g id="_2551214867792">
   <path class="fil0" d="M0.92 2.78l0.01 -0 0.07 0 0 0.33 -0.08 -0 0 -0.33zm2.27 0.01l0.08 0 0 0.32 -0.08 0 -0 -0.32zm-0.59 -1.02c0.02,-0.03 0.05,-0.04 0.09,-0.06 0.01,-0.05 0.1,-0.08 0.14,-0.04 0.02,-0 0.04,-0.01 0.06,-0.01 0.02,-0 0.04,-0 0.06,-0 0.01,-0.01 0.11,0.01 0.12,0.01 0.07,0.01 0.14,0.05 0.19,0.09 0.01,0 0.01,0.01 0.02,0.01 0.04,0.03 0.01,0 0.04,0.03 0.1,0.11 0.17,0.25 0.13,0.44 -0.05,0.26 -0.27,0.44 -0.55,0.41 -0.07,-0.01 -0.08,-0.02 -0.12,-0.03 -0.01,0.01 -0.09,0.11 -0.11,0.12 -0.05,0.03 -0.15,0.02 -0.21,0.02l-0.04 0.1c-0.01,0.03 -0.03,0.07 -0.03,0.11l-0.18 0.05c-0.06,0.02 -0.07,0.07 -0.13,0.1 -0.06,0.02 -0.14,0.01 -0.19,-0.01 -0.03,-0.01 -0.05,-0.03 -0.07,-0.04 -0.01,-0.01 -0.02,-0.02 -0.03,-0.03 -0.01,-0.01 -0.03,-0.02 -0.03,-0.02 0.01,-0.01 0.28,-0.27 0.31,-0.3 0.01,-0.01 0.02,-0.02 0.04,-0.03 0.11,-0.11 0.23,-0.23 0.34,-0.34 0.03,-0.02 0.01,-0.02 -0.01,-0.1 -0.01,-0.04 -0.01,-0.08 -0.01,-0.13 0.01,-0.08 0.03,-0.15 0.06,-0.21 0.03,-0.06 0.08,-0.12 0.13,-0.15zm2.31 -0.25c0.29,-0.04 0.45,-0.05 0.75,-0 0.11,0.02 0.5,0.09 0.59,0.17 0.01,0.01 0.01,0.01 0.02,0.03 0,0.05 0,0.58 0,0.64 0,0.21 0,0.43 0,0.64 0,0.07 0.01,0.06 -0.05,0.11 -0.02,0.02 -0.07,0.05 -0.1,0.06 -0.23,0.1 -0.59,0.14 -0.85,0.14 -0.2,0 -0.41,-0.02 -0.6,-0.06 -0.08,-0.02 -0.18,-0.04 -0.25,-0.08 -0.04,-0.02 -0.12,-0.06 -0.14,-0.1 -0.01,-0.01 -0,-0.06 -0,-0.08 0,-0.42 0.01,-0.85 0.01,-1.27l0.01 -0c0.01,-0.02 0.03,-0.03 0.05,-0.05 0.06,-0.03 0.17,-0.06 0.23,-0.08 0,-0.07 0,-0.16 -0,-0.23 -0,-0.23 -0.02,-0.4 0.08,-0.61 0.03,-0.06 0.06,-0.1 0.09,-0.14 0.11,-0.14 0.25,-0.22 0.45,-0.25 0.15,-0.02 0.28,0.01 0.39,0.06 0.22,0.11 0.36,0.28 0.42,0.51 0.05,0.17 0.03,0.25 0.03,0.42 -0.11,0.06 -0.2,0.05 -0.3,0 0,-0.1 -0,-0.19 0,-0.29 0,-0.08 -0.04,-0.16 -0.08,-0.21 -0.04,-0.06 -0.08,-0.09 -0.16,-0.13 -0.07,-0.03 -0.17,-0.05 -0.25,-0.03 -0.16,0.03 -0.26,0.14 -0.31,0.28 -0.02,0.05 -0.02,0.07 -0.02,0.13 -0,0.13 -0.01,0.29 -0.01,0.42zm-3.4 -1.08c0.11,-0.02 0.14,0.12 0.04,0.15 -0.11,0.02 -0.15,-0.12 -0.04,-0.15zm0.16 -0.08c0.09,-0.03 0.1,-0.03 0.2,-0.04 0.15,-0.01 0.26,0.01 0.39,0.08 0.03,0.02 0.05,0.03 0.07,0.05 0.13,0.1 0.19,0.16 0.25,0.33 0.02,0.06 0.04,0.12 0.04,0.19 0,0.07 -0.01,0.16 -0.01,0.22 0.04,0.02 0.07,0.02 0.09,0.09 0.02,0.07 -0.01,0.11 -0.02,0.15 -0.02,0.08 -0.02,0.19 -0.17,0.19 -0.02,0.07 -0.07,0.14 -0.13,0.19 -0.05,0.05 -0.12,0.09 -0.2,0.13 -0.15,0.06 -0.33,0.09 -0.48,0.03 -0.02,-0.01 -0.04,-0.02 -0.06,-0.02 0,0.05 0.01,0.12 0,0.17 -0,0.05 -0.04,0.07 -0.09,0.09 -0.01,0.15 0.15,0.27 0.28,0.29 0.02,0 0.07,0 0.08,0.01 0.02,0.01 0.01,0.06 -0,0.08 -0.11,0.01 -0.24,-0.06 -0.3,-0.11 -0.06,-0.05 -0.14,-0.14 -0.14,-0.26 -0.07,0 -0.14,0.02 -0.2,0.03 -0.13,0.02 -0.26,0.04 -0.38,0.07 -0.11,0.03 -0.2,0.1 -0.24,0.21 -0.02,0.06 -0.02,0.14 -0.02,0.2l0 0.33c-0,0.02 -0.01,0.03 -0.03,0.03 -0.02,0 -0.04,-0 -0.06,-0 0,-0.09 0,-0.18 0,-0.27 0,-0.07 -0.01,-0.21 0.01,-0.27 0.01,-0.04 0.02,-0.07 0.04,-0.1 0.05,-0.09 0.11,-0.15 0.22,-0.2 0.07,-0.03 0.14,-0.04 0.22,-0.06 0.11,-0.02 0.38,-0.07 0.48,-0.08 0.05,-0 0.04,-0.04 0.04,-0.09 0,-0.04 0,-0.09 -0,-0.14 -0.02,-0.02 -0.02,-0 -0.09,-0.07 -0.07,-0.07 -0.08,-0.08 -0.13,-0.18 -0.03,-0.05 -0.05,-0.04 -0.1,-0.06 -0.07,-0.03 -0.09,-0.11 -0.11,-0.2 -0.01,-0.05 -0.02,-0.09 -0,-0.14 0.01,-0.04 0.04,-0.06 0.09,-0.07 0,-0.03 -0.02,-0.09 -0.02,-0.17 0,-0.12 0,-0.21 0.06,-0.31 0.01,-0.02 0.06,-0.1 0.07,-0.11 0.03,0.01 0.06,0.03 0.07,0.05 -0.01,0.02 -0.04,0.06 -0.07,0.11 -0.02,0.04 -0.04,0.09 -0.04,0.14 0.02,-0 0.05,-0.03 0.07,-0.04 0.03,-0.01 0.05,-0.02 0.09,-0.02 0.07,-0.01 0.09,0.03 0.15,0.07 0.08,0.06 0.18,0.12 0.32,0.12 0.06,-0 0.12,-0.02 0.17,-0.04 0.03,-0.01 0.05,-0.02 0.07,-0.04 0.05,-0.03 0.08,-0.06 0.13,-0.09 0.06,-0.04 0.1,-0.01 0.16,0.03 0.02,0.01 0.05,0.03 0.07,0.04 -0,-0.08 -0.06,-0.19 -0.09,-0.25 -0.02,-0.04 -0.05,-0.07 -0.08,-0.09l-0.1 -0.08c-0.09,-0.06 -0.14,-0.08 -0.25,-0.1 -0.12,-0.02 -0.2,-0.01 -0.31,0.03 -0.01,-0.01 -0.02,-0.06 -0.03,-0.08zm-1.25 -0.12c-0.08,0.01 -0.14,0.07 -0.16,0.14 -0.02,0.06 -0.01,0.22 -0.01,0.28l0 2.34c0,0.07 -0.01,0.23 0.01,0.28 0.02,0.07 0.08,0.12 0.16,0.14 0.04,0.01 0.55,0 0.6,0l5.28 0c0.04,0 0.11,0 0.15,-0 0.08,-0.01 0.14,-0.07 0.16,-0.13 0.02,-0.05 0.01,-0.22 0.01,-0.29l0 -2.34c0,-0.07 0.01,-0.23 -0.01,-0.28 -0.02,-0.07 -0.08,-0.12 -0.16,-0.14 -0.04,-0.01 -0.55,-0 -0.6,-0 -1.76,0 -3.52,0 -5.28,0 -0.04,0 -0.11,-0 -0.15,0z"/>
   <path class="fil1" d="M5.18 2.29c0.02,-0 0.04,-0.01 0.07,-0.01 0.03,0 0.04,0.01 0.07,0.01 0.13,0.02 0.2,0.2 0.07,0.28 -0.01,0.01 -0.04,0.02 -0.05,0.03l0.12 0.25c0.02,0.04 0.07,0.1 -0.02,0.1 -0.06,-0 -0.12,-0 -0.19,-0 -0.06,0 -0.12,0 -0.18,0 -0.07,-0 -0.04,-0.05 -0.01,-0.11l0.11 -0.25c-0.01,-0 -0.01,-0.01 -0.02,-0.01 -0.01,-0 -0.01,-0.01 -0.02,-0.01 -0.1,-0.07 -0.1,-0.23 0.06,-0.28zm1.08 -0.57c-0,0.01 -0.01,0.02 -0.01,0.03 -0,0.01 -0.01,0.02 -0.01,0.03 -0.05,0.11 -0.26,0.17 -0.38,0.19 -0.19,0.03 -0.4,0.05 -0.6,0.05 -0.19,0 -0.42,-0.01 -0.6,-0.05 -0.14,-0.03 -0.37,-0.08 -0.39,-0.25l-0.01 0c-0,0.42 -0.01,0.85 -0.01,1.27 -0,0.02 -0,0.06 0,0.08 0.03,0.04 0.1,0.08 0.14,0.1 0.07,0.03 0.16,0.06 0.25,0.08 0.19,0.04 0.4,0.06 0.6,0.06 0.25,-0 0.62,-0.04 0.85,-0.14 0.03,-0.01 0.08,-0.04 0.1,-0.06 0.06,-0.05 0.05,-0.04 0.05,-0.11 0,-0.21 0,-0.43 0,-0.64 0,-0.06 0,-0.59 -0,-0.64z"/>
   <path class="fil0" d="M1.66 1.65c0.01,-0.01 0.05,-0.05 0.07,-0.06 0.01,0.02 0.05,0.05 0.08,0.07 0.04,0.02 0.08,0.02 0.12,0.02 0.07,0 0.1,-0.03 0.15,-0.06 0.01,-0.01 0.03,-0.02 0.04,-0.03 0.01,0.02 0.03,0.04 0.05,0.04 -0.01,0.04 -0.06,0.07 -0.1,0.09 -0.09,0.05 -0.22,0.06 -0.31,0.01 -0.02,-0.01 -0.04,-0.02 -0.06,-0.03 -0.02,-0.02 -0.04,-0.04 -0.05,-0.05zm0.45 -0.46c0.05,-0.01 0.11,0.01 0.12,0.05 0.01,0.05 -0.02,0.1 -0.06,0.11 -0.11,0.03 -0.18,-0.13 -0.06,-0.16zm-0.48 0c0.05,-0.01 0.11,0.01 0.12,0.05 0.01,0.05 -0.02,0.1 -0.06,0.11 -0.11,0.03 -0.18,-0.13 -0.06,-0.16zm-0.31 0.08c-0.02,0 -0.03,0.01 -0.05,0.01 -0.02,0 -0.04,0 -0.05,0.01 -0.02,0.09 -0,0.08 0.03,0.18 0.02,0.08 0.05,0.08 0.14,0.08 0.01,0.06 0.05,0.11 0.07,0.15 0.03,0.05 0.07,0.08 0.11,0.12 0.09,0.09 0.23,0.11 0.35,0.11 0.15,0 0.26,-0.05 0.35,-0.11 0.06,-0.05 0.17,-0.16 0.19,-0.27 0.05,0 0.1,0.01 0.12,-0.02 0.02,-0.04 0.02,-0.07 0.03,-0.11 0.03,-0.09 0.04,-0.11 -0.04,-0.13 -0.02,-0 -0.04,-0.01 -0.06,-0.02 0,-0.02 0.02,-0.07 0.02,-0.12 0,-0.05 -0,-0.08 -0.03,-0.11 -0.02,-0.03 -0.04,-0.05 -0.07,-0.07 -0.07,-0.04 -0.08,-0.03 -0.14,0.02 -0.17,0.13 -0.39,0.19 -0.6,0.08 -0.09,-0.05 -0.11,-0.07 -0.17,-0.11 -0.04,-0.02 -0.07,-0.01 -0.11,0 -0.04,0.02 -0.06,0.03 -0.07,0.07 -0.05,0.2 -0.01,0.12 -0,0.24z"/>
   <path class="fil2" d="M4.86 0.58c0.09,-0.02 0.08,0.09 0.05,0.13 -0.03,0.04 -0.05,0.03 -0.11,0.13 -0.03,0.05 -0.05,0.11 -0.07,0.17 -0.01,0.03 -0.02,0.06 -0.03,0.09 -0.01,0.02 -0.02,0.08 -0.03,0.09 -0.02,0.04 -0.05,0.02 -0.06,-0.03 -0.01,-0.1 0,-0.23 0.03,-0.33 0.01,-0.06 0.04,-0.12 0.07,-0.16 0.02,-0.03 0.08,-0.09 0.14,-0.1zm-0.29 1l0 0.24c0.04,0.03 0.1,0.06 0.17,0.06 0.06,-0 0.13,-0.03 0.16,-0.06l0.01 -0.3c-0,-0.13 0,-0.29 0.01,-0.42 0,-0.06 -0,-0.07 0.02,-0.13 0.05,-0.14 0.15,-0.24 0.31,-0.28 0.08,-0.02 0.18,-0.01 0.25,0.03 0.08,0.04 0.12,0.07 0.16,0.13 0.04,0.05 0.08,0.13 0.08,0.21 -0,0.1 0,0.19 0,0.29 0.11,0.05 0.2,0.06 0.3,-0 0,-0.17 0.02,-0.25 -0.03,-0.42 -0.06,-0.23 -0.2,-0.4 -0.42,-0.51 -0.11,-0.06 -0.25,-0.09 -0.39,-0.06 -0.2,0.03 -0.34,0.11 -0.45,0.25 -0.03,0.04 -0.06,0.09 -0.09,0.14 -0.1,0.21 -0.08,0.38 -0.08,0.61 0,0.07 0,0.16 0,0.23z"/>
   <path class="fil3" d="M3.04 1.82c0.09,-0.01 0.17,0.05 0.18,0.13 0.01,0.09 -0.06,0.16 -0.14,0.17 -0.09,0.01 -0.17,-0.05 -0.18,-0.13 -0.01,-0.09 0.06,-0.16 0.14,-0.17zm-0.27 -0.13c0.11,-0.03 0.15,0.13 0.04,0.15 -0.05,0.01 -0.09,-0.02 -0.1,-0.06 -0.01,-0.02 -0,-0.05 0.01,-0.07 0.01,-0.02 0.02,-0.02 0.05,-0.03zm0.05 -0.02c-0.02,0.01 -0.05,0.01 -0.07,0.02 -0.02,0.01 -0.04,0.02 -0.06,0.02 -0.04,0.02 -0.07,0.03 -0.09,0.06 0,0.03 0.04,0.03 0.05,0.05 -0.1,0.11 -0.19,0.23 -0.15,0.4 0.03,0.11 0.02,0.05 0.06,0.13 -0.01,0.02 -0.07,0.07 -0.09,0.08 -0.01,0.01 -0.01,0.01 -0.02,0.02 -0.01,0.01 -0.01,0.01 -0.02,0.02 -0.02,0.01 -0.03,0.03 -0.05,0.04l-0.14 0.13c-0.02,0.01 -0.03,0.03 -0.04,0.04 -0.06,0.06 -0.12,0.11 -0.18,0.17l-0.11 0.11c-0.02,0.02 -0.06,0.05 -0.07,0.07 0.02,0.01 0.05,0.03 0.08,0.04 0.03,0.01 0.08,0.02 0.11,0.01l0.06 -0.06c0.01,-0.02 0.01,-0.01 0.04,-0.02l0.13 -0.05c0.07,-0.03 0.06,-0.02 0.07,-0.05l0.06 -0.18c0.04,-0 0.08,-0.01 0.13,-0.01 0.02,-0 0.1,-0 0.12,-0.02 0.01,-0.01 0.01,-0.01 0.01,-0.02 0.02,-0.02 0.1,-0.12 0.11,-0.12 0.14,0.06 0.28,0.07 0.41,0 0.05,-0.02 0.1,-0.08 0.13,-0.12 0.09,-0.11 0.12,-0.24 0.09,-0.39 -0.01,-0.05 -0.06,-0.13 -0.09,-0.16 -0.03,-0.05 -0.08,-0.08 -0.14,-0.11 -0.08,-0.04 -0.16,-0.03 -0.21,-0.04 -0.01,-0.02 -0,-0.05 0,-0.07l-0.01 -0.01c-0.02,0 -0.04,0 -0.06,0 -0.02,0 -0.04,0.01 -0.06,0.01z"/>
   <path class="fil4" d="M1.31 1.27c-0,-0.13 -0.04,-0.05 0,-0.24 0.01,-0.04 0.03,-0.06 0.07,-0.07 0.04,-0.02 0.07,-0.03 0.11,-0 0.06,0.04 0.08,0.07 0.17,0.11 0.21,0.11 0.43,0.05 0.6,-0.08 0.06,-0.05 0.08,-0.06 0.14,-0.02 0.03,0.02 0.05,0.04 0.07,0.07 0.02,0.03 0.03,0.06 0.03,0.11 -0,0.05 -0.02,0.1 -0.02,0.12 0.02,0.01 0.04,0.01 0.06,0.02 0.09,0.02 0.07,0.04 0.04,0.13 -0.01,0.04 -0.01,0.08 -0.03,0.11 -0.02,0.03 -0.07,0.03 -0.12,0.02 -0.02,0.11 -0.12,0.22 -0.19,0.27 -0.09,0.07 -0.2,0.12 -0.35,0.11 -0.13,-0 -0.26,-0.02 -0.35,-0.11 -0.04,-0.04 -0.08,-0.07 -0.11,-0.12 -0.03,-0.04 -0.06,-0.09 -0.07,-0.15 -0.09,-0 -0.12,0 -0.14,-0.08 -0.03,-0.1 -0.04,-0.09 -0.03,-0.18 0.02,-0 0.04,-0 0.05,-0.01 0.02,-0 0.03,-0.01 0.05,-0.01zm-0.68 1.49c0,-0.07 -0,-0.14 0.02,-0.2 0.04,-0.11 0.13,-0.18 0.24,-0.21 0.12,-0.04 0.25,-0.05 0.38,-0.07 0.06,-0.01 0.13,-0.03 0.2,-0.03 0,0.13 0.08,0.21 0.14,0.26 0.06,0.05 0.19,0.11 0.3,0.11 0.01,-0.02 0.02,-0.07 0,-0.08 -0.01,-0.01 -0.06,-0.01 -0.08,-0.01 -0.13,-0.02 -0.29,-0.14 -0.28,-0.29 0.05,-0.02 0.08,-0.04 0.09,-0.09 0,-0.05 -0,-0.12 -0,-0.17 0.02,0.01 0.04,0.02 0.06,0.02 0.16,0.05 0.34,0.03 0.48,-0.03 0.08,-0.03 0.15,-0.08 0.2,-0.13 0.06,-0.05 0.1,-0.12 0.13,-0.19 0.15,-0 0.15,-0.12 0.17,-0.19 0.01,-0.04 0.04,-0.08 0.02,-0.15 -0.02,-0.06 -0.06,-0.07 -0.09,-0.09 -0.01,-0.07 0.01,-0.15 0.01,-0.22 -0,-0.07 -0.02,-0.13 -0.04,-0.19 -0.06,-0.17 -0.12,-0.23 -0.25,-0.33 -0.02,-0.02 -0.05,-0.03 -0.07,-0.05 -0.13,-0.07 -0.24,-0.09 -0.39,-0.08 -0.1,0 -0.11,0.01 -0.2,0.04 0,0.02 0.02,0.06 0.03,0.08 0.11,-0.04 0.19,-0.04 0.31,-0.03 0.11,0.02 0.17,0.04 0.25,0.1l0.1 0.08c0.03,0.03 0.05,0.06 0.08,0.09 0.04,0.06 0.09,0.17 0.09,0.25 -0.02,-0.01 -0.05,-0.03 -0.07,-0.04 -0.05,-0.03 -0.1,-0.06 -0.16,-0.03 -0.05,0.04 -0.08,0.06 -0.13,0.09 -0.02,0.01 -0.04,0.02 -0.07,0.04 -0.05,0.02 -0.11,0.04 -0.17,0.04 -0.14,0 -0.24,-0.06 -0.32,-0.12 -0.06,-0.04 -0.08,-0.07 -0.15,-0.07 -0.03,0 -0.06,0.01 -0.09,0.02 -0.02,0.01 -0.06,0.03 -0.07,0.04 0,-0.05 0.02,-0.1 0.04,-0.14 0.03,-0.05 0.06,-0.09 0.07,-0.11 -0.01,-0.02 -0.04,-0.04 -0.07,-0.05 -0.01,0.01 -0.06,0.09 -0.07,0.11 -0.06,0.1 -0.06,0.19 -0.06,0.31 -0,0.07 0.02,0.13 0.02,0.17 -0.05,0.01 -0.07,0.03 -0.09,0.07 -0.01,0.05 -0.01,0.09 0,0.14 0.02,0.09 0.04,0.17 0.11,0.2 0.05,0.03 0.07,0.01 0.1,0.06 0.05,0.1 0.06,0.11 0.13,0.18 0.06,0.06 0.06,0.05 0.09,0.07 0,0.04 0,0.09 0,0.14 -0,0.05 0.01,0.09 -0.04,0.09 -0.1,0.01 -0.37,0.06 -0.48,0.08 -0.08,0.01 -0.15,0.03 -0.22,0.06 -0.11,0.04 -0.17,0.1 -0.22,0.2 -0.02,0.03 -0.03,0.06 -0.04,0.1 -0.02,0.06 -0.01,0.2 -0.01,0.27 0,0.09 0,0.18 0,0.27 0.02,0 0.04,0 0.06,0 0.02,-0 0.03,-0.01 0.03,-0.03l-0 -0.33z"/>
   <path class="fil5" d="M5.8 1.66c0.07,-0.01 0.15,0.01 0.19,0.05 0.05,0.07 -0.07,0.14 -0.22,0.11 -0.13,-0.03 -0.12,-0.13 0.03,-0.16zm-0.89 -0.14l-0.01 0.3c-0.03,0.03 -0.1,0.06 -0.16,0.06 -0.07,0 -0.13,-0.02 -0.17,-0.06l-0 -0.24c-0.07,0.01 -0.17,0.05 -0.23,0.08 -0.03,0.01 -0.04,0.02 -0.05,0.05 0.02,0.17 0.24,0.22 0.39,0.25 0.18,0.04 0.41,0.05 0.6,0.05 0.2,-0 0.41,-0.02 0.6,-0.05 0.12,-0.02 0.32,-0.07 0.38,-0.19 0,-0.01 0.01,-0.02 0.01,-0.03 0,-0.01 0,-0.03 0.01,-0.03 -0.01,-0.02 -0.01,-0.02 -0.02,-0.03 -0.09,-0.08 -0.48,-0.15 -0.59,-0.17 -0.3,-0.04 -0.46,-0.03 -0.75,0z"/>
   <path class="fil4" d="M2.6 1.77c-0.04,0.02 -0.1,0.09 -0.13,0.15 -0.03,0.06 -0.05,0.13 -0.06,0.21 -0,0.04 -0,0.09 0.01,0.13 0.02,0.08 0.03,0.07 0.01,0.1 -0.11,0.1 -0.23,0.23 -0.34,0.34 -0.01,0.01 -0.02,0.02 -0.04,0.03 -0.03,0.03 -0.3,0.29 -0.31,0.3 0,0 0.02,0.02 0.03,0.02 0.01,0.01 0.02,0.02 0.03,0.03 0.02,0.02 0.04,0.03 0.07,0.04 0.05,0.02 0.14,0.03 0.19,0.01 0.06,-0.02 0.07,-0.08 0.13,-0.1l0.18 -0.05c0,-0.03 0.02,-0.08 0.03,-0.11l0.04 -0.1c0.06,-0.01 0.16,0.01 0.21,-0.02 0.02,-0.01 0.1,-0.11 0.11,-0.12 0.04,0.01 0.04,0.02 0.12,0.03 0.28,0.02 0.5,-0.15 0.55,-0.41 0.04,-0.19 -0.04,-0.33 -0.13,-0.44 -0.03,-0.03 -0,-0.01 -0.04,-0.03 -0.01,-0 -0.01,-0.01 -0.02,-0.01 -0.05,-0.04 -0.12,-0.07 -0.19,-0.09 -0.01,-0 -0.11,-0.02 -0.12,-0.01l0.01 0.01c-0,0.03 -0.01,0.05 -0,0.07 0.05,0.01 0.13,0 0.21,0.04 0.06,0.03 0.1,0.07 0.14,0.11 0.03,0.04 0.08,0.11 0.09,0.16 0.02,0.14 -0,0.27 -0.09,0.39 -0.03,0.04 -0.08,0.09 -0.13,0.12 -0.14,0.07 -0.28,0.05 -0.41,-0 -0.01,0 -0.09,0.1 -0.11,0.12 -0.01,0.01 -0.01,0.01 -0.01,0.02 -0.01,0.01 -0.1,0.01 -0.12,0.02 -0.04,0 -0.08,0.01 -0.13,0.01l-0.06 0.18c-0.01,0.03 -0,0.02 -0.07,0.05l-0.13 0.05c-0.03,0.01 -0.02,0.01 -0.04,0.02l-0.06 0.06c-0.03,0.01 -0.08,0 -0.11,-0.01 -0.03,-0.01 -0.06,-0.03 -0.08,-0.04 0.01,-0.02 0.05,-0.05 0.07,-0.07l0.11 -0.11c0.06,-0.06 0.12,-0.11 0.18,-0.17 0.02,-0.01 0.03,-0.03 0.04,-0.04l0.14 -0.13c0.01,-0.02 0.03,-0.03 0.05,-0.04 0.01,-0.01 0.01,-0.01 0.02,-0.02 0.01,-0.01 0.01,-0.01 0.02,-0.02 0.02,-0.02 0.08,-0.07 0.09,-0.08 -0.04,-0.07 -0.03,-0.02 -0.06,-0.13 -0.04,-0.17 0.05,-0.29 0.15,-0.4 -0.01,-0.02 -0.04,-0.03 -0.05,-0.05z"/>
   <path class="fil6" d="M5.18 2.29c-0.01,0.01 -0.03,0.02 -0.06,0.05 -0.04,0.06 -0.02,0.15 0.03,0.19 0.01,0.01 0.02,0.01 0.03,0.02l-0.08 0.22c-0.04,0.11 -0.04,0.09 0.16,0.09 0.03,-0 0.06,-0 0.09,0 0.03,0 0.07,0.01 0.06,-0.03 -0,-0.02 -0.02,-0.05 -0.03,-0.07 -0.02,-0.06 -0.06,-0.14 -0.08,-0.2 0.01,-0.01 0.04,-0.02 0.06,-0.05 0.05,-0.06 0.02,-0.16 -0.02,-0.2 -0.01,-0 -0.01,-0.01 -0.02,-0.01l-0.02 -0.01c-0.02,-0 -0.04,-0.01 -0.07,-0.01 -0.03,-0 -0.04,0.01 -0.07,0.01z"/>
   <path class="fil7" d="M4.86 0.58c-0.05,0.01 -0.11,0.07 -0.14,0.1 -0.03,0.04 -0.06,0.1 -0.07,0.16 -0.02,0.09 -0.03,0.23 -0.03,0.33 0,0.04 0.03,0.06 0.06,0.03 0.01,-0.01 0.02,-0.07 0.03,-0.09 0.01,-0.03 0.02,-0.06 0.03,-0.09 0.02,-0.06 0.04,-0.12 0.07,-0.17 0.05,-0.1 0.08,-0.09 0.11,-0.13 0.04,-0.04 0.05,-0.15 -0.05,-0.13z"/>
   <path class="fil8" d="M5.32 2.29l0.02 0.01c0.01,0 0.01,0.01 0.02,0.01 0.04,0.04 0.07,0.13 0.02,0.2 -0.02,0.03 -0.05,0.03 -0.06,0.05 0.02,0.06 0.05,0.14 0.08,0.2 0.01,0.02 0.02,0.05 0.03,0.07 0.01,0.04 -0.03,0.03 -0.06,0.03 -0.03,-0 -0.06,-0 -0.09,-0 -0.2,0 -0.2,0.02 -0.16,-0.09l0.08 -0.22c-0.01,-0.01 -0.02,-0.01 -0.03,-0.02 -0.05,-0.04 -0.07,-0.13 -0.03,-0.19 0.02,-0.03 0.04,-0.04 0.06,-0.05 -0.16,0.05 -0.16,0.21 -0.06,0.28 0.01,0 0.01,0.01 0.02,0.01 0.01,0 0.02,0.01 0.02,0.01l-0.11 0.25c-0.03,0.06 -0.06,0.1 0.01,0.11 0.06,0 0.12,-0 0.18,-0 0.06,-0 0.12,0 0.19,0 0.09,0 0.04,-0.06 0.02,-0.1l-0.12 -0.25c0.01,-0.01 0.03,-0.02 0.05,-0.03 0.13,-0.09 0.06,-0.26 -0.07,-0.28z"/>
   <path class="fil0" d="M2.93 1.98c0.01,0.06 0.07,0.12 0.15,0.11 0.07,-0.01 0.13,-0.07 0.11,-0.15 -0.01,-0.06 -0.07,-0.12 -0.15,-0.11 -0.07,0.01 -0.13,0.07 -0.11,0.14z"/>
   <path class="fil4" d="M1.66 1.65c0,0 0.02,0.03 0.05,0.05 0.01,0.01 0.04,0.03 0.06,0.03 0.09,0.04 0.22,0.04 0.31,-0.01 0.04,-0.02 0.09,-0.05 0.1,-0.09 -0.03,-0.01 -0.04,-0.02 -0.05,-0.04 -0.02,0.01 -0.03,0.02 -0.04,0.03 -0.05,0.03 -0.08,0.06 -0.15,0.06 -0.04,-0 -0.09,-0 -0.12,-0.02 -0.03,-0.01 -0.07,-0.04 -0.08,-0.07 -0.02,0 -0.06,0.04 -0.07,0.06z"/>
   <path class="fil8" d="M5.8 1.66c-0.15,0.02 -0.16,0.12 -0.03,0.16 0.14,0.03 0.27,-0.04 0.22,-0.11 -0.03,-0.04 -0.12,-0.06 -0.19,-0.05z"/>
   <polygon class="fil4" points="0.92,3.11 1,3.11 1,2.78 0.93,2.78 0.92,2.78 "/>
   <polygon class="fil4" points="3.19,3.1 3.26,3.1 3.26,2.79 3.18,2.79 "/>
   <path class="fil6" d="M1.62 1.19c-0.12,0.03 -0.06,0.2 0.06,0.16 0.04,-0.01 0.07,-0.06 0.06,-0.11 -0.01,-0.04 -0.06,-0.07 -0.12,-0.05z"/>
   <path class="fil6" d="M2.1 1.19c-0.12,0.03 -0.06,0.2 0.06,0.16 0.04,-0.01 0.07,-0.06 0.06,-0.11 -0.01,-0.04 -0.06,-0.07 -0.12,-0.05z"/>
   <path class="fil4" d="M2.93 1.98c-0.01,-0.08 0.05,-0.13 0.11,-0.14 0.08,-0.01 0.14,0.04 0.15,0.11 0.01,0.08 -0.05,0.14 -0.11,0.15 -0.08,0.01 -0.14,-0.04 -0.15,-0.11zm0.11 -0.17c-0.08,0.01 -0.15,0.08 -0.14,0.17 0.01,0.08 0.09,0.14 0.18,0.13 0.08,-0.01 0.15,-0.08 0.14,-0.17 -0.01,-0.08 -0.08,-0.14 -0.18,-0.13z"/>
   <path class="fil6" d="M2.77 1.69c-0.03,0.01 -0.04,0.02 -0.05,0.03 -0.01,0.02 -0.02,0.04 -0.01,0.07 0.01,0.04 0.05,0.07 0.1,0.06 0.11,-0.03 0.06,-0.18 -0.04,-0.15z"/>
   <path class="fil4" d="M1.51 0.44c-0.11,0.02 -0.07,0.17 0.04,0.15 0.1,-0.02 0.07,-0.17 -0.04,-0.15z"/>
   <path class="fil4" d="M2.69 1.71c0.02,-0.01 0.04,-0.02 0.06,-0.02 0.02,-0.01 0.05,-0.01 0.07,-0.02 -0.04,-0.04 -0.13,-0.01 -0.14,0.04z"/>
  </g>
 </g>
</svg>
