<?xml version="1.0" encoding="UTF-8"?>
<!DOCTYPE svg PUBLIC "-//W3C//DTD SVG 1.1//EN" "http://www.w3.org/Graphics/SVG/1.1/DTD/svg11.dtd">
<!-- Creator: CorelDRAW 2021 (64 Bit) -->
<svg xmlns="http://www.w3.org/2000/svg" xml:space="preserve" width="8.8111mm" height="8.7889mm" version="1.1" style="shape-rendering:geometricPrecision; text-rendering:geometricPrecision; image-rendering:optimizeQuality; fill-rule:evenodd; clip-rule:evenodd"
viewBox="0 0 3.54 3.53"
 xmlns:xlink="http://www.w3.org/1999/xlink"
 xmlns:xodm="http://www.corel.com/coreldraw/odm/2003">
 <defs>
  <style type="text/css">
   <![CDATA[
    .str0 {stroke:black;stroke-width:0.12;stroke-miterlimit:22.9256}
    .fil0 {fill:#7BFF00}
   ]]>
  </style>
 </defs>
 <g id="Camada_x0020_1">
  <metadata id="CorelCorpID_0Corel-Layer"/>
  <path class="fil0 str0" d="M0.84 0.44c-0.2,-0.02 -0.35,0.13 -0.38,0.31 -0.03,0.21 0.13,0.38 0.3,0.4 0.2,0.03 0.36,-0.13 0.38,-0.31 0.02,-0.21 -0.13,-0.37 -0.31,-0.39zm0.57 -0.31c-0.1,-0.02 -0.19,0.06 -0.21,0.16 -0.02,0.11 0.06,0.2 0.15,0.22 0.24,0.05 0.29,-0.34 0.06,-0.37zm-0.1 -0.04c0.04,0.02 0.11,0.03 0.15,0.05 0.05,0.02 0.1,0.04 0.15,0.06 0.09,0.06 0.14,0.07 0.2,0.15 -0.01,0.04 -0.03,0.05 -0.05,0.07 -0.02,0.02 -0.04,0.04 -0.06,0.06 0.02,0.04 0.07,0.08 0.1,0.12 0.02,0.02 0.03,0.04 0.05,0.06 0.16,0.22 0.24,0.49 0.18,0.77 -0.01,0.03 -0.03,0.15 -0.05,0.17 -0.02,0.04 -0.07,0.09 -0.08,0.14 0.06,0.07 0.13,0.13 0.2,0.2l0.19 0.2c0.03,0.03 0.07,0.06 0.1,0.1 0.03,0.03 0.07,0.07 0.1,0.1l0.49 0.5c0.03,0.04 0.06,0.07 0.1,0.1 0.12,0.12 0.22,0.23 0.34,0.35 0.02,0.02 0.03,0.03 0.05,0.05 -0.06,0.08 -0.27,0.18 -0.41,0.13 -0.02,-0.01 -0.13,-0.13 -0.14,-0.14 -0.03,-0.05 -0.02,-0.04 -0.08,-0.06l-0.29 -0.12c-0.16,-0.07 -0.14,-0.04 -0.16,-0.11 -0.04,-0.14 -0.1,-0.3 -0.14,-0.43l-0.41 -0.04c-0.06,-0.01 -0.1,0 -0.12,-0.03l-0.2 -0.26c-0.02,-0.02 -0.05,-0.06 -0.07,-0.08 -0.29,0.15 -0.6,0.16 -0.89,0.01 -0.1,-0.05 -0.22,-0.18 -0.29,-0.28 -0.2,-0.26 -0.25,-0.6 -0.2,-0.92 0.02,-0.12 0.13,-0.31 0.19,-0.39 0.07,-0.1 0.19,-0.2 0.3,-0.26 0.2,-0.11 0.29,-0.06 0.46,-0.1 0.02,-0.08 -0,-0.1 -0.01,-0.17l0.03 -0.01c0.05,0 0.09,0 0.14,0.01 0.04,0.01 0.08,0.02 0.13,0.02z"/>
 </g>
</svg>
