<?xml version="1.0" encoding="UTF-8"?>
<!DOCTYPE svg PUBLIC "-//W3C//DTD SVG 1.1//EN" "http://www.w3.org/Graphics/SVG/1.1/DTD/svg11.dtd">
<!-- Creator: CorelDRAW 2021 (64 Bit) -->
<svg xmlns="http://www.w3.org/2000/svg" xml:space="preserve" width="8.8111mm" height="8.7889mm" version="1.1" style="shape-rendering:geometricPrecision; text-rendering:geometricPrecision; image-rendering:optimizeQuality; fill-rule:evenodd; clip-rule:evenodd"
viewBox="0 0 3.32 3.31"
 xmlns:xlink="http://www.w3.org/1999/xlink"
 xmlns:xodm="http://www.corel.com/coreldraw/odm/2003">
 <defs>
  <style type="text/css">
   <![CDATA[
    .str0 {stroke:black;stroke-width:0.11;stroke-miterlimit:22.9256}
    .fil0 {fill:#E2A610}
   ]]>
  </style>
 </defs>
 <g id="Camada_x0020_1">
  <metadata id="CorelCorpID_0Corel-Layer"/>
  <path class="fil0 str0" d="M0.79 0.41c-0.18,-0.02 -0.33,0.12 -0.35,0.29 -0.03,0.2 0.12,0.36 0.28,0.38 0.19,0.02 0.34,-0.12 0.36,-0.29 0.02,-0.2 -0.12,-0.35 -0.29,-0.37zm0.53 -0.29c-0.1,-0.01 -0.18,0.06 -0.19,0.15 -0.02,0.11 0.06,0.19 0.14,0.2 0.23,0.05 0.27,-0.32 0.06,-0.35zm-0.09 -0.04c0.04,0.02 0.1,0.03 0.14,0.04 0.05,0.02 0.09,0.04 0.14,0.05 0.08,0.05 0.13,0.07 0.19,0.14 -0,0.03 -0.03,0.05 -0.05,0.06 -0.02,0.02 -0.03,0.04 -0.05,0.05 0.02,0.04 0.07,0.07 0.09,0.11 0.01,0.02 0.03,0.04 0.04,0.06 0.15,0.2 0.23,0.46 0.17,0.72 -0.01,0.03 -0.03,0.14 -0.04,0.16 -0.02,0.04 -0.06,0.08 -0.07,0.13 0.06,0.06 0.12,0.12 0.19,0.18l0.18 0.19c0.03,0.03 0.06,0.06 0.09,0.09 0.03,0.03 0.07,0.06 0.09,0.09l0.46 0.47c0.03,0.04 0.06,0.06 0.09,0.09 0.12,0.11 0.21,0.22 0.32,0.33 0.02,0.02 0.03,0.03 0.04,0.05 -0.05,0.07 -0.25,0.17 -0.38,0.12 -0.01,-0 -0.12,-0.12 -0.13,-0.13 -0.03,-0.04 -0.02,-0.04 -0.07,-0.06l-0.27 -0.12c-0.15,-0.06 -0.13,-0.04 -0.15,-0.11 -0.04,-0.13 -0.1,-0.28 -0.13,-0.4l-0.38 -0.04c-0.05,-0 -0.09,0 -0.11,-0.02l-0.19 -0.24c-0.02,-0.02 -0.04,-0.06 -0.06,-0.07 -0.27,0.14 -0.56,0.15 -0.84,0.01 -0.1,-0.05 -0.21,-0.17 -0.27,-0.26 -0.19,-0.24 -0.24,-0.56 -0.19,-0.87 0.02,-0.11 0.13,-0.29 0.17,-0.36 0.07,-0.1 0.18,-0.19 0.28,-0.25 0.19,-0.1 0.28,-0.06 0.43,-0.1 0.02,-0.07 -0,-0.09 -0.01,-0.16l0.03 -0.01c0.04,0 0.09,0 0.13,0.01 0.04,0.01 0.08,0.01 0.12,0.02z"/>
 </g>
</svg>
