<?xml version="1.0" encoding="UTF-8"?>
<!DOCTYPE svg PUBLIC "-//W3C//DTD SVG 1.1//EN" "http://www.w3.org/Graphics/SVG/1.1/DTD/svg11.dtd">
<!-- Creator: CorelDRAW 2021 (64 Bit) -->
<svg xmlns="http://www.w3.org/2000/svg" xml:space="preserve" width="28.0131mm" height="14.0069mm" version="1.1" style="shape-rendering:geometricPrecision; text-rendering:geometricPrecision; image-rendering:optimizeQuality; fill-rule:evenodd; clip-rule:evenodd"
viewBox="0 0 69.77 34.89"
 xmlns:xlink="http://www.w3.org/1999/xlink"
 xmlns:xodm="http://www.corel.com/coreldraw/odm/2003">
 <defs>
  <style type="text/css">
   <![CDATA[
    .fil3 {fill:black}
    .fil5 {fill:#53331D}
    .fil2 {fill:#86B0C0}
    .fil7 {fill:#9D720B}
    .fil6 {fill:#B8E3E9}
    .fil0 {fill:#E2A610}
    .fil4 {fill:#FCD532}
    .fil1 {fill:white}
   ]]>
  </style>
 </defs>
 <g id="Camada_x0020_1">
  <metadata id="CorelCorpID_0Corel-Layer"/>
  <path class="fil0" d="M56.55 23.07l0.08 -0.04c0.28,-0.06 0.45,-0.14 0.78,-0.14 0.32,0 0.54,0.11 0.79,0.13 0.92,0.21 1.54,0.78 1.67,1.73 0.14,1.03 -0.66,1.65 -1.42,1.9 0.06,0.2 0.57,1.19 0.71,1.48 0.22,0.47 0.47,0.97 0.71,1.43 0.08,0.15 0.32,0.59 0.36,0.74 0.11,0.4 -0.25,0.44 -0.62,0.44 -1.37,-0.01 -3.29,0.04 -4.53,-0 -0.39,-0.02 -0.6,-0.15 -0.42,-0.53 0.12,-0.25 0.23,-0.47 0.35,-0.72 0.38,-0.77 1.04,-2.23 1.4,-2.9 -0.45,-0.21 -0.59,-0.22 -0.97,-0.66 -1.16,-1.34 0.21,-2.81 1.1,-2.87zm13.17 -6.82c-0.13,1.11 -0.91,1.65 -1.78,2.06 -3.87,1.83 -13.41,1.67 -17.59,0.88 -1.01,-0.19 -2.18,-0.48 -2.99,-0.91 -0.47,-0.24 -0.85,-0.49 -1.13,-0.8 -0.23,-0.26 -0.43,-0.5 -0.53,-0.86 -0.03,-0.12 -0.04,-0.27 -0.11,-0.36 -0.07,0.14 -0.07,3.6 -0.07,3.71 -0.01,1.24 -0.03,2.49 -0.04,3.74 -0.02,2.48 -0.05,4.96 -0.08,7.44 -0.01,0.92 -0.18,0.82 0.51,1.41 0.27,0.23 0.82,0.54 1.25,0.72 0.94,0.4 1.96,0.69 3.06,0.91 4.65,0.96 9.95,0.93 14.61,-0.02 1.02,-0.21 2.2,-0.5 3.08,-0.89 0.48,-0.21 0.91,-0.43 1.27,-0.7 0.75,-0.55 0.57,-0.59 0.57,-1.32 0,-2.5 0,-5 0,-7.51 0,-0.11 0.05,-7.31 -0.04,-7.48z"/>
  <path class="fil1" d="M14.42 15.01c0.24,0.27 0.39,0.47 0.87,0.66 0.45,0.18 0.99,0.22 1.52,0.22 0.69,0 1.14,-0.22 1.63,-0.54l0.72 -0.54c0.25,0.17 0.3,0.4 0.7,0.51 -0.14,0.44 -0.83,0.85 -1.24,1.06 -1.12,0.57 -2.62,0.69 -3.79,0.14 -0.55,-0.26 -0.99,-0.58 -1.26,-0.98 0.13,-0.2 0.52,-0.48 0.74,-0.63l0.11 0.1zm-1.22 -4.89c0.67,-0.15 1.27,0.16 1.39,0.65 0.16,0.63 -0.26,1.15 -0.76,1.28 -1.42,0.37 -2.1,-1.6 -0.63,-1.93zm5.83 -0c0.67,-0.15 1.26,0.16 1.39,0.65 0.16,0.62 -0.28,1.15 -0.76,1.28 -1.42,0.37 -2.1,-1.61 -0.63,-1.93zm4.82 0.89c0.19,-1.32 0.89,-2.33 -1,-3.53 -0.56,-0.35 -0.84,-0.38 -1.25,-0.11 -0.38,0.25 -0.64,0.48 -1.03,0.72 -1.15,0.69 -2.48,1.23 -3.96,1.25 -2.24,0.03 -3.71,-1.12 -4.97,-1.98 -0.45,-0.31 -0.89,-0.16 -1.39,0.04 -0.47,0.18 -0.73,0.34 -0.85,0.85 -0.08,0.36 -0.29,1.06 -0.26,1.39 0.03,0.47 0.25,0.96 0.2,1.43 -0.27,0.13 -0.91,0.13 -1.24,0.19 -0.25,0.84 0.09,1.36 0.31,2.12 0.29,0.97 0.56,0.93 1.69,0.97 0.09,0.13 0.13,0.36 0.2,0.52 0.37,0.94 1.34,2.11 2.08,2.7 0.26,0.21 0.49,0.39 0.84,0.58 0.3,0.16 0.61,0.3 0.98,0.41 0.77,0.24 1.63,0.3 2.49,0.32 1.85,0.03 3.17,-0.56 4.26,-1.35 0.65,-0.47 0.63,-0.5 1.1,-1 0.94,-1 1.08,-1.95 1.22,-2.17 0.68,-0.05 1.06,0.15 1.44,-0.33 0.27,-0.34 0.21,-0.89 0.35,-1.31 0.12,-0.36 0.46,-0.99 0.11,-1.3 -0.13,-0.11 -1.12,-0.36 -1.33,-0.41z"/>
  <path class="fil2" d="M53.54 3.91c-0.17,0.87 -0.67,0.83 -1.25,1.61 -0.77,1.05 -1.3,2.72 -1.62,4 -0.09,0.35 -0.16,0.87 -0.45,0.98 -0.25,0.09 -0.37,-0.12 -0.42,-0.28 -0.06,-0.19 -0.05,-0.45 -0.05,-0.65 -0.02,-2.32 0.17,-4.89 2.18,-6.24 0.99,-0.66 1.77,-0.23 1.61,0.58zm-4.44 10.88l0.01 2.77c0.04,0.11 0.01,0.06 0.12,0.13 0.37,0.27 1.03,0.5 1.5,0.56 0.9,0.1 1.61,-0.19 2.28,-0.58 0.2,-0.12 0.16,-0.13 0.16,-0.39 0,-0.37 0.01,-0.75 0.02,-1.12 0.01,-0.67 -0.02,-1.49 0.04,-2.15 -0.06,-1.18 0.05,-3.57 0.08,-4.97 0.01,-0.68 0,-0.88 0.23,-1.48 1.07,-2.78 4.03,-4.13 6.78,-2.95 1.59,0.69 2.93,2.49 2.92,4.05 -0,1.13 0,2.26 0,3.39 0.51,0.24 1.14,0.44 1.83,0.45 0.59,0.01 1.48,-0.19 1.85,-0.47 0,-0.88 0.05,-1.76 0.06,-2.64 0.02,-1.93 -1.02,-4.58 -2.29,-5.93 -0.61,-0.65 -0.76,-0.8 -1.45,-1.33 -0.48,-0.37 -1.11,-0.75 -1.75,-1.05 -2.26,-1.07 -4.65,-1.08 -7.05,-0.16 -0.64,0.25 -1.31,0.55 -1.81,1 -0.59,0.54 -0.82,0.64 -1.41,1.38 -0.25,0.32 -0.34,0.41 -0.59,0.78 -0.19,0.29 -0.35,0.55 -0.52,0.88 -0.67,1.3 -1.03,2.79 -1.03,4.44 0.01,1.78 0.07,3.64 0.01,5.4z"/>
  <path class="fil0" d="M30.47 17.51c1.1,-0.11 1.98,0.63 2.12,1.51 0.16,1.04 -0.71,1.88 -1.68,1.99 -1.11,0.12 -2.05,-0.65 -2.15,-1.55 -0.12,-1.05 0.72,-1.85 1.72,-1.95zm-3.21 -1.52c0.59,-0.08 1.08,0.31 1.16,0.77 0.11,0.56 -0.33,0.99 -0.82,1.07 -1.38,0.24 -1.64,-1.66 -0.35,-1.84zm0.55 -0.21c-0.23,0.08 -0.59,0.15 -0.84,0.22 -0.28,0.08 -0.57,0.21 -0.82,0.28 -0.5,0.27 -0.77,0.35 -1.12,0.72 0.03,0.18 0.16,0.24 0.27,0.34 0.13,0.11 0.21,0.2 0.32,0.28 -0.14,0.19 -0.39,0.37 -0.56,0.58 -0.08,0.11 -0.18,0.19 -0.27,0.31 -0.87,1.07 -1.37,2.41 -1,3.79 0.04,0.15 0.2,0.74 0.25,0.84 0.11,0.19 0.38,0.44 0.43,0.71 -0.36,0.34 -0.73,0.65 -1.11,0.97l-1.09 1.01c-0.2,0.17 -0.37,0.32 -0.57,0.48 -0.18,0.15 -0.41,0.33 -0.56,0.49l-2.73 2.47c-0.17,0.2 -0.36,0.33 -0.55,0.49 -0.69,0.59 -1.26,1.16 -1.93,1.73 -0.13,0.11 -0.19,0.14 -0.26,0.26 0.32,0.37 1.49,0.89 2.28,0.66 0.08,-0.02 0.72,-0.62 0.78,-0.71 0.16,-0.22 0.12,-0.18 0.43,-0.3l1.63 -0.61c0.88,-0.32 0.77,-0.19 0.9,-0.56 0.23,-0.68 0.58,-1.46 0.76,-2.11l2.3 -0.19c0.32,-0.03 0.54,0 0.69,-0.13l1.11 -1.26c0.1,-0.12 0.26,-0.32 0.39,-0.39 1.64,0.74 3.37,0.78 5.03,0.05 0.58,-0.25 1.24,-0.91 1.64,-1.36 1.12,-1.26 1.41,-2.96 1.14,-4.56 -0.1,-0.58 -0.75,-1.55 -1.05,-1.92 -0.42,-0.51 -1.07,-1.01 -1.71,-1.3 -1.13,-0.52 -1.65,-0.32 -2.56,-0.5 -0.12,-0.37 0.01,-0.47 0.03,-0.86l-0.16 -0.05c-0.26,0.02 -0.51,0.01 -0.79,0.04 -0.24,0.03 -0.46,0.08 -0.71,0.1z"/>
  <path class="fil3" d="M23.85 11.01c0.22,0.05 1.2,0.3 1.33,0.41 0.35,0.31 0.01,0.94 -0.11,1.3 -0.14,0.42 -0.09,0.97 -0.35,1.31 -0.38,0.48 -0.76,0.28 -1.44,0.33 -0.14,0.23 -0.28,1.17 -1.22,2.17 -0.47,0.49 -0.45,0.53 -1.1,1 -1.09,0.8 -2.41,1.39 -4.26,1.35 -0.86,-0.02 -1.72,-0.08 -2.49,-0.32 -0.37,-0.11 -0.68,-0.25 -0.98,-0.41 -0.35,-0.19 -0.58,-0.37 -0.84,-0.58 -0.74,-0.59 -1.71,-1.76 -2.08,-2.7 -0.06,-0.16 -0.1,-0.39 -0.2,-0.52 -1.13,-0.04 -1.4,-0 -1.69,-0.97 -0.22,-0.75 -0.56,-1.27 -0.31,-2.12 0.33,-0.06 0.97,-0.07 1.24,-0.19 0.04,-0.47 -0.17,-0.96 -0.2,-1.43 -0.02,-0.33 0.18,-1.03 0.26,-1.39 0.12,-0.5 0.38,-0.66 0.85,-0.85 0.5,-0.2 0.94,-0.34 1.39,-0.04 1.25,0.86 2.73,2.01 4.97,1.98 1.47,-0.02 2.81,-0.56 3.96,-1.25 0.39,-0.23 0.65,-0.47 1.03,-0.72 0.41,-0.27 0.69,-0.25 1.25,0.11 1.89,1.2 1.18,2.21 1,3.53zm-10.2 -10.57c0.04,0.21 0.22,0.78 0.32,0.91 2.29,-0.83 5.72,-0.38 7.45,1.26 0.47,0.45 0.28,0.08 1.1,1 0.15,0.17 0.3,0.39 0.45,0.59 0.47,0.66 1.1,1.97 1.16,2.96 -0.52,-0.25 -1.04,-0.69 -1.71,-0.92 -0.62,-0.21 -0.94,-0 -1.42,0.36 -0.15,0.11 -0.23,0.16 -0.37,0.28 -0.34,0.28 -1.15,0.74 -1.66,0.96 -2.11,0.9 -3.87,0.63 -5.69,-0.57l-1.19 -0.81c-0.37,-0.23 -0.47,-0.32 -1.03,-0.28 -0.39,0.03 -0.72,0.12 -1.06,0.26 -0.24,0.1 -0.73,0.39 -0.92,0.43 0.06,-1.53 1.26,-2.66 1.34,-3.02 -0.2,-0.16 -0.48,-0.42 -0.89,-0.5l-0.83 1.31c-0.68,1.21 -0.69,2.26 -0.7,3.63 -0,0.73 0.17,1.28 0.19,1.94 -0.63,0.12 -0.88,0.29 -1.05,0.83 -0.18,0.55 -0.11,1.1 0.01,1.63 0.26,1.09 0.51,1.94 1.36,2.36 0.62,0.3 0.86,0.11 1.17,0.72 0.3,0.57 0.41,0.89 0.92,1.41 0.52,0.54 0.53,0.59 1.18,1.17 0.24,0.21 0.46,0.27 0.59,0.35 0,0.52 0.01,1.04 0.01,1.56 -0,0.55 0.13,1.07 -0.49,1.13 -1.04,0.11 -1.96,0.28 -2.97,0.45 -1.56,0.25 -4.28,0.62 -5.63,1.17 -1.29,0.52 -2.11,1.22 -2.68,2.28 -0.85,1.59 -0.59,2.23 -0.59,4.25 0,0.51 -0.03,2.9 0.01,3.19 0.19,0.02 0.46,0.02 0.65,0.02 0.28,-0.01 0.37,-0.03 0.41,-0.27 0.04,-0.22 -0,-3.44 -0,-3.84 0,-1.98 0.08,-3.01 1.33,-4 0.59,-0.46 1,-0.68 1.77,-0.93 1.35,-0.44 3.21,-0.64 4.65,-0.89 0.75,-0.13 1.68,-0.34 2.45,-0.34 0.01,0.71 0.22,1.32 0.55,1.83 1.01,1.54 2.93,2.51 4.9,2.52 0.28,-1.86 -0.29,-0.29 -2.71,-1.74 -0.71,-0.42 -1.83,-1.52 -1.76,-2.79 0.43,-0.31 0.99,-0.28 1.08,-1.01 0.07,-0.6 -0.01,-1.44 -0.01,-2.07 0.23,0.07 0.49,0.2 0.73,0.28 0.26,0.09 0.51,0.15 0.78,0.21 0.61,0.12 1.22,0.17 1.87,0.14 2.82,-0.11 5.62,-1.57 6.93,-3.89 0.12,-0.2 0.19,-0.49 0.3,-0.66 1.84,-0.04 1.82,-1.38 2.08,-2.28 0.12,-0.43 0.52,-0.88 0.24,-1.69 -0.28,-0.81 -0.94,-0.89 -1.17,-1.03 -0.12,-1.83 0.5,-2.54 -0.37,-4.86 -0.65,-1.72 -1.51,-2.85 -3.05,-3.89 -0.28,-0.19 -0.56,-0.37 -0.88,-0.54 -0.61,-0.33 -1.29,-0.62 -2.05,-0.81 -1.11,-0.28 -2.8,-0.28 -3.99,-0.09 -0.46,0.07 -0.76,0.22 -1.14,0.3z"/>
  <path class="fil4" d="M64.16 15.67c0.9,-0.11 1.85,0.11 2.25,0.61 0.31,0.38 0.01,0.74 -0.25,0.93 -1.38,0.99 -4.67,-0.04 -3.12,-1.17 0.29,-0.21 0.7,-0.31 1.13,-0.37zm-10.93 -1.65c-0.06,0.65 -0.03,1.48 -0.04,2.15 -0.01,0.37 -0.02,0.75 -0.02,1.12 -0,0.27 0.04,0.28 -0.16,0.39 -0.67,0.39 -1.38,0.68 -2.28,0.58 -0.46,-0.05 -1.12,-0.29 -1.5,-0.56 -0.1,-0.08 -0.08,-0.03 -0.12,-0.13l-0.01 -2.77c-0.65,0.1 -2.24,0.59 -2.85,0.9 -0.61,0.31 -0.45,0.32 -0.67,0.57 0.08,0.1 0.08,0.25 0.11,0.36 0.1,0.36 0.3,0.61 0.53,0.86 0.28,0.31 0.65,0.55 1.13,0.8 0.81,0.42 1.98,0.71 2.99,0.91 4.18,0.8 13.72,0.95 17.59,-0.88 0.87,-0.41 1.65,-0.95 1.78,-2.06 -0.06,-0.19 -0.12,-0.27 -0.25,-0.35 -0.1,-0.07 -0.23,-0.15 -0.36,-0.22 -0.26,-0.14 -0.55,-0.25 -0.85,-0.36 -2.66,-0.99 -7.63,-1.73 -10.51,-1.68 -1.61,0.03 -2.97,0.18 -4.52,0.37z"/>
  <path class="fil3" d="M25.03 17.01c-0.15,0.08 -0.33,0.25 -0.47,0.35 -1.08,0.87 -1.67,2.5 -1.77,3.86 -0.03,0.5 -0.03,1.01 0.08,1.49 0.2,0.83 0.42,0.86 0.11,1.14 -0.64,0.58 -1.03,0.99 -1.69,1.56l-1.69 1.6c-0.35,0.33 -4.92,4.61 -5.01,4.75 0.31,0.2 0.51,0.36 0.8,0.58 0.86,0.68 2.19,1.03 3.24,0.64 0.64,-0.24 0.87,-0.92 1.56,-1.16l2.16 -0.6c0.03,-0.05 -0.01,0.04 0.04,-0.08 0.03,-0.06 0,0 0.03,-0.08 0.17,-0.62 0.6,-1.63 0.85,-2.3 0.78,0 2.03,0.08 2.62,-0.29 0.27,-0.17 0.48,-0.45 0.7,-0.71 0.22,-0.25 0.54,-0.53 0.64,-0.72 1.15,0.31 1.61,0.46 3,0.28 0.9,-0.12 1.9,-0.47 2.49,-0.88 0.68,-0.48 1.24,-0.93 1.69,-1.63 0.45,-0.68 0.8,-1.35 0.99,-2.29 0.2,-1 0.14,-1.96 -0.17,-2.88 -0.3,-0.91 -0.74,-1.49 -1.23,-2.06l-0.88 -0.78c-0.84,-0.62 -1.96,-1.05 -3.06,-1.16 -0.13,-0.01 -0.66,-0.07 -0.76,-0l0.16 0.05c-0.02,0.39 -0.15,0.49 -0.03,0.86 0.91,0.18 1.44,-0.02 2.56,0.5 0.64,0.3 1.29,0.79 1.71,1.3 0.3,0.37 0.95,1.34 1.05,1.92 0.28,1.6 -0.02,3.3 -1.14,4.56 -0.4,0.45 -1.07,1.11 -1.64,1.36 -1.66,0.73 -3.39,0.69 -5.03,-0.05 -0.12,0.08 -0.29,0.27 -0.39,0.39l-1.11 1.26c-0.15,0.13 -0.36,0.1 -0.69,0.13l-2.3 0.19c-0.19,0.65 -0.53,1.43 -0.76,2.11 -0.13,0.37 -0.02,0.24 -0.9,0.56l-1.63 0.61c-0.31,0.11 -0.27,0.07 -0.43,0.3 -0.06,0.08 -0.69,0.68 -0.78,0.71 -0.79,0.23 -1.96,-0.28 -2.28,-0.66 0.07,-0.12 0.13,-0.15 0.26,-0.26 0.66,-0.57 1.24,-1.14 1.93,-1.73 0.2,-0.17 0.39,-0.3 0.55,-0.49l2.73 -2.47c0.15,-0.16 0.39,-0.34 0.56,-0.49 0.2,-0.17 0.37,-0.31 0.57,-0.48l1.09 -1.01c0.39,-0.33 0.75,-0.64 1.11,-0.97 -0.06,-0.27 -0.32,-0.51 -0.43,-0.71 -0.06,-0.1 -0.21,-0.69 -0.25,-0.84 -0.37,-1.38 0.13,-2.72 1,-3.79 0.09,-0.12 0.18,-0.2 0.27,-0.31 0.16,-0.21 0.42,-0.4 0.56,-0.58 -0.11,-0.09 -0.19,-0.17 -0.32,-0.28 -0.11,-0.09 -0.24,-0.15 -0.27,-0.34z"/>
  <path class="fil5" d="M56.63 23.04l-0.08 0.04c-0.24,0.25 -0.95,0.47 -0.9,1.57 0.03,0.66 0.5,1.34 1.02,1.49 -0.16,0.65 -1.36,3.1 -1.31,3.5 0.17,0.26 0.59,0.19 0.98,0.19l2.36 -0c1.02,0.01 0.93,-0.06 0.46,-1.17l-0.66 -1.62c-0.09,-0.22 -0.27,-0.6 -0.32,-0.81 0.37,-0.3 1.07,-0.51 1.04,-1.57 -0.02,-0.72 -0.31,-1.18 -0.89,-1.54 -0.01,-0 -0.02,-0.01 -0.02,-0.01l-0.09 -0.07c-0.24,-0.02 -0.47,-0.12 -0.79,-0.13 -0.33,-0 -0.5,0.07 -0.78,0.14z"/>
  <path class="fil6" d="M53.54 3.91c0.16,-0.81 -0.62,-1.24 -1.61,-0.58 -2.01,1.34 -2.2,3.91 -2.18,6.24 0,0.21 -0.01,0.46 0.05,0.65 0.05,0.15 0.17,0.36 0.42,0.28 0.3,-0.11 0.37,-0.63 0.45,-0.98 0.33,-1.28 0.85,-2.95 1.62,-4 0.57,-0.78 1.08,-0.74 1.25,-1.61z"/>
  <path class="fil7" d="M58.2 23.02l0.09 0.07c0.01,0 0.02,0.01 0.02,0.01 0.58,0.36 0.87,0.82 0.89,1.54 0.03,1.06 -0.67,1.28 -1.04,1.57 0.05,0.21 0.23,0.59 0.32,0.81l0.66 1.62c0.47,1.11 0.56,1.19 -0.46,1.17l-2.36 0c-0.38,0 -0.8,0.08 -0.98,-0.19 -0.04,-0.4 1.15,-2.85 1.31,-3.5 -0.51,-0.15 -0.99,-0.82 -1.02,-1.49 -0.04,-1.1 0.66,-1.32 0.9,-1.57l0.08 -0.04 -0.08 0.04c-0.89,0.06 -2.25,1.53 -1.1,2.87 0.38,0.44 0.52,0.45 0.97,0.66 -0.36,0.66 -1.02,2.13 -1.4,2.9 -0.12,0.24 -0.23,0.47 -0.35,0.72 -0.18,0.38 0.02,0.52 0.42,0.53 1.23,0.05 3.16,-0.01 4.53,0 0.36,0 0.72,-0.04 0.62,-0.44 -0.04,-0.15 -0.28,-0.59 -0.36,-0.74 -0.24,-0.46 -0.48,-0.96 -0.71,-1.43 -0.14,-0.29 -0.65,-1.28 -0.71,-1.48 0.76,-0.25 1.56,-0.87 1.42,-1.9 -0.13,-0.95 -0.75,-1.52 -1.67,-1.73z"/>
  <path class="fil1" d="M30.44 17.8c-2.22,0.34 -1.6,3.24 0.5,2.93 0.8,-0.12 1.52,-0.83 1.34,-1.74 -0.14,-0.71 -0.9,-1.34 -1.84,-1.2z"/>
  <path class="fil3" d="M14.3 14.9c-0.23,0.15 -0.62,0.43 -0.74,0.63 0.27,0.41 0.71,0.73 1.26,0.98 1.16,0.55 2.66,0.43 3.79,-0.14 0.42,-0.21 1.1,-0.62 1.24,-1.06 -0.39,-0.11 -0.45,-0.34 -0.7,-0.51l-0.72 0.54c-0.48,0.32 -0.94,0.55 -1.63,0.54 -0.54,-0 -1.07,-0.05 -1.52,-0.22 -0.48,-0.18 -0.63,-0.38 -0.87,-0.66l-0.11 -0.1z"/>
  <path class="fil7" d="M64.16 15.67c-0.43,0.06 -0.84,0.15 -1.13,0.37 -1.54,1.13 1.74,2.16 3.12,1.17 0.27,-0.19 0.56,-0.54 0.25,-0.93 -0.4,-0.5 -1.35,-0.72 -2.25,-0.61z"/>
  <polygon class="fil3" points="4.53,32.76 5.48,32.76 5.48,28.86 4.51,28.86 "/>
  <path class="fil5" d="M13.2 10.12c-1.47,0.33 -0.8,2.3 0.63,1.93 0.5,-0.13 0.92,-0.65 0.76,-1.28 -0.12,-0.49 -0.72,-0.8 -1.39,-0.65z"/>
  <polygon class="fil3" points="32.2,32.67 33.17,32.66 33.16,28.95 32.2,28.95 "/>
  <path class="fil5" d="M19.03 10.12c-1.48,0.32 -0.79,2.3 0.63,1.93 0.49,-0.13 0.92,-0.66 0.76,-1.28 -0.12,-0.49 -0.72,-0.8 -1.39,-0.65z"/>
  <path class="fil3" d="M30.44 17.8c0.94,-0.14 1.7,0.49 1.84,1.2 0.18,0.91 -0.54,1.62 -1.34,1.74 -2.1,0.3 -2.72,-2.6 -0.5,-2.93zm0.03 -0.28c-1,0.1 -1.84,0.9 -1.72,1.95 0.1,0.9 1.04,1.68 2.15,1.55 0.97,-0.11 1.85,-0.95 1.68,-1.99 -0.14,-0.88 -1.02,-1.62 -2.12,-1.51z"/>
  <path class="fil5" d="M27.26 16c-1.29,0.17 -1.03,2.07 0.35,1.84 0.49,-0.08 0.93,-0.51 0.82,-1.07 -0.09,-0.46 -0.57,-0.84 -1.16,-0.77z"/>
  <path class="fil3" d="M11.78 1.32c-1.35,0.19 -1.02,1.97 0.38,1.73 1.25,-0.21 1,-1.92 -0.38,-1.73z"/>
  <path class="fil3" d="M26.15 16.29c0.25,-0.07 0.54,-0.2 0.82,-0.28 0.25,-0.07 0.61,-0.14 0.84,-0.22 -0.49,-0.46 -1.56,-0.14 -1.66,0.5z"/>
 </g>
</svg>
