<?xml version="1.0" encoding="UTF-8"?>
<!DOCTYPE svg PUBLIC "-//W3C//DTD SVG 1.1//EN" "http://www.w3.org/Graphics/SVG/1.1/DTD/svg11.dtd">
<!-- Creator: CorelDRAW 2021 (64 Bit) -->
<svg xmlns="http://www.w3.org/2000/svg" xml:space="preserve" width="11.8533mm" height="5.9267mm" version="1.1" style="shape-rendering:geometricPrecision; text-rendering:geometricPrecision; image-rendering:optimizeQuality; fill-rule:evenodd; clip-rule:evenodd"
viewBox="0 0 12.49 6.25"
 xmlns:xlink="http://www.w3.org/1999/xlink"
 xmlns:xodm="http://www.corel.com/coreldraw/odm/2003">
 <defs>
  <style type="text/css">
   <![CDATA[
    .fil3 {fill:black}
    .fil5 {fill:#53331D}
    .fil2 {fill:#86B0C0}
    .fil7 {fill:#9D720B}
    .fil6 {fill:#B8E3E9}
    .fil0 {fill:#E2A610}
    .fil4 {fill:#FCD532}
    .fil1 {fill:white}
   ]]>
  </style>
 </defs>
 <g id="Camada_x0020_1">
  <metadata id="CorelCorpID_0Corel-Layer"/>
  <path class="fil0" d="M10.12 4.13l0.01 -0.01c0.05,-0.01 0.08,-0.03 0.14,-0.02 0.06,0 0.1,0.02 0.14,0.02 0.17,0.04 0.28,0.14 0.3,0.31 0.03,0.18 -0.12,0.3 -0.25,0.34 0.01,0.04 0.1,0.21 0.13,0.27 0.04,0.08 0.08,0.17 0.13,0.26 0.01,0.03 0.06,0.11 0.06,0.13 0.02,0.07 -0.05,0.08 -0.11,0.08 -0.24,-0 -0.59,0.01 -0.81,-0 -0.07,-0 -0.11,-0.03 -0.07,-0.09 0.02,-0.04 0.04,-0.09 0.06,-0.13 0.07,-0.14 0.19,-0.4 0.25,-0.52 -0.08,-0.04 -0.11,-0.04 -0.17,-0.12 -0.21,-0.24 0.04,-0.5 0.2,-0.51zm2.36 -1.22c-0.02,0.2 -0.16,0.3 -0.32,0.37 -0.69,0.33 -2.4,0.3 -3.15,0.16 -0.18,-0.03 -0.39,-0.09 -0.54,-0.16 -0.08,-0.04 -0.15,-0.09 -0.2,-0.14 -0.04,-0.05 -0.08,-0.09 -0.1,-0.15 -0.01,-0.02 -0.01,-0.05 -0.02,-0.06 -0.01,0.03 -0.01,0.65 -0.01,0.66 -0,0.22 -0,0.45 -0.01,0.67 -0,0.44 -0.01,0.89 -0.01,1.33 -0,0.16 -0.03,0.15 0.09,0.25 0.05,0.04 0.15,0.1 0.22,0.13 0.17,0.07 0.35,0.12 0.55,0.16 0.83,0.17 1.78,0.17 2.62,-0 0.18,-0.04 0.39,-0.09 0.55,-0.16 0.09,-0.04 0.16,-0.08 0.23,-0.12 0.13,-0.1 0.1,-0.11 0.1,-0.24 0,-0.45 0,-0.9 0,-1.34 0,-0.02 0.01,-1.31 -0.01,-1.34z"/>
  <path class="fil1" d="M2.58 2.69c0.04,0.05 0.07,0.08 0.16,0.12 0.08,0.03 0.18,0.04 0.27,0.04 0.12,0 0.2,-0.04 0.29,-0.1l0.13 -0.1c0.04,0.03 0.05,0.07 0.12,0.09 -0.02,0.08 -0.15,0.15 -0.22,0.19 -0.2,0.1 -0.47,0.12 -0.68,0.03 -0.1,-0.05 -0.18,-0.1 -0.23,-0.18 0.02,-0.04 0.09,-0.09 0.13,-0.11l0.02 0.02zm-0.22 -0.88c0.12,-0.03 0.23,0.03 0.25,0.12 0.03,0.11 -0.05,0.21 -0.14,0.23 -0.25,0.07 -0.38,-0.29 -0.11,-0.35zm1.04 -0c0.12,-0.03 0.23,0.03 0.25,0.12 0.03,0.11 -0.05,0.21 -0.14,0.23 -0.25,0.07 -0.38,-0.29 -0.11,-0.35zm0.86 0.16c0.03,-0.24 0.16,-0.42 -0.18,-0.63 -0.1,-0.06 -0.15,-0.07 -0.22,-0.02 -0.07,0.05 -0.11,0.09 -0.18,0.13 -0.21,0.12 -0.44,0.22 -0.71,0.22 -0.4,0.01 -0.67,-0.2 -0.89,-0.35 -0.08,-0.06 -0.16,-0.03 -0.25,0.01 -0.08,0.03 -0.13,0.06 -0.15,0.15 -0.01,0.06 -0.05,0.19 -0.05,0.25 0.01,0.08 0.04,0.17 0.04,0.26 -0.05,0.02 -0.16,0.02 -0.22,0.03 -0.04,0.15 0.02,0.24 0.06,0.38 0.05,0.17 0.1,0.17 0.3,0.17 0.02,0.02 0.02,0.06 0.04,0.09 0.07,0.17 0.24,0.38 0.37,0.48 0.05,0.04 0.09,0.07 0.15,0.1 0.05,0.03 0.11,0.05 0.18,0.07 0.14,0.04 0.29,0.05 0.45,0.06 0.33,0.01 0.57,-0.1 0.76,-0.24 0.12,-0.08 0.11,-0.09 0.2,-0.18 0.17,-0.18 0.19,-0.35 0.22,-0.39 0.12,-0.01 0.19,0.03 0.26,-0.06 0.05,-0.06 0.04,-0.16 0.06,-0.23 0.02,-0.06 0.08,-0.18 0.02,-0.23 -0.02,-0.02 -0.2,-0.06 -0.24,-0.07z"/>
  <path class="fil2" d="M9.59 0.7c-0.03,0.16 -0.12,0.15 -0.22,0.29 -0.14,0.19 -0.23,0.49 -0.29,0.72 -0.02,0.06 -0.03,0.16 -0.08,0.18 -0.04,0.02 -0.07,-0.02 -0.08,-0.05 -0.01,-0.03 -0.01,-0.08 -0.01,-0.12 -0,-0.42 0.03,-0.88 0.39,-1.12 0.18,-0.12 0.32,-0.04 0.29,0.1zm-0.79 1.95l0 0.5c0.01,0.02 0,0.01 0.02,0.02 0.07,0.05 0.18,0.09 0.27,0.1 0.16,0.02 0.29,-0.03 0.41,-0.1 0.04,-0.02 0.03,-0.02 0.03,-0.07 0,-0.07 0,-0.13 0,-0.2 0,-0.12 -0,-0.27 0.01,-0.38 -0.01,-0.21 0.01,-0.64 0.01,-0.89 0,-0.12 0,-0.16 0.04,-0.27 0.19,-0.5 0.72,-0.74 1.21,-0.53 0.29,0.12 0.52,0.45 0.52,0.72 -0,0.2 0,0.41 0,0.61 0.09,0.04 0.2,0.08 0.33,0.08 0.11,0 0.27,-0.03 0.33,-0.08 0,-0.16 0.01,-0.32 0.01,-0.47 0,-0.35 -0.18,-0.82 -0.41,-1.06 -0.11,-0.12 -0.14,-0.14 -0.26,-0.24 -0.09,-0.07 -0.2,-0.13 -0.31,-0.19 -0.41,-0.19 -0.83,-0.19 -1.26,-0.03 -0.11,0.04 -0.24,0.1 -0.32,0.18 -0.11,0.1 -0.15,0.11 -0.25,0.25 -0.05,0.06 -0.06,0.07 -0.11,0.14 -0.03,0.05 -0.06,0.1 -0.09,0.16 -0.12,0.23 -0.18,0.5 -0.18,0.79 0,0.32 0.01,0.65 0,0.97z"/>
  <path class="fil0" d="M5.45 3.14c0.2,-0.02 0.35,0.11 0.38,0.27 0.03,0.19 -0.13,0.34 -0.3,0.36 -0.2,0.02 -0.37,-0.12 -0.39,-0.28 -0.02,-0.19 0.13,-0.33 0.31,-0.35zm-0.57 -0.27c0.11,-0.01 0.19,0.06 0.21,0.14 0.02,0.1 -0.06,0.18 -0.15,0.19 -0.25,0.04 -0.29,-0.3 -0.06,-0.33zm0.1 -0.04c-0.04,0.02 -0.11,0.03 -0.15,0.04 -0.05,0.02 -0.1,0.04 -0.15,0.05 -0.09,0.05 -0.14,0.06 -0.2,0.13 0.01,0.03 0.03,0.04 0.05,0.06 0.02,0.02 0.04,0.04 0.06,0.05 -0.02,0.03 -0.07,0.07 -0.1,0.1 -0.02,0.02 -0.03,0.03 -0.05,0.05 -0.16,0.19 -0.24,0.43 -0.18,0.68 0.01,0.03 0.04,0.13 0.05,0.15 0.02,0.03 0.07,0.08 0.08,0.13 -0.06,0.06 -0.13,0.12 -0.2,0.17l-0.19 0.18c-0.04,0.03 -0.07,0.06 -0.1,0.09 -0.03,0.03 -0.07,0.06 -0.1,0.09l-0.49 0.44c-0.03,0.04 -0.06,0.06 -0.1,0.09 -0.12,0.11 -0.23,0.21 -0.34,0.31 -0.02,0.02 -0.03,0.02 -0.05,0.05 0.06,0.07 0.27,0.16 0.41,0.12 0.02,-0 0.13,-0.11 0.14,-0.13 0.03,-0.04 0.02,-0.03 0.08,-0.05l0.29 -0.11c0.16,-0.06 0.14,-0.03 0.16,-0.1 0.04,-0.12 0.1,-0.26 0.14,-0.38l0.41 -0.03c0.06,-0 0.1,0 0.12,-0.02l0.2 -0.23c0.02,-0.02 0.05,-0.06 0.07,-0.07 0.29,0.13 0.6,0.14 0.9,0.01 0.1,-0.05 0.22,-0.16 0.29,-0.24 0.2,-0.23 0.25,-0.53 0.2,-0.82 -0.02,-0.1 -0.13,-0.28 -0.19,-0.34 -0.07,-0.09 -0.19,-0.18 -0.31,-0.23 -0.2,-0.09 -0.3,-0.06 -0.46,-0.09 -0.02,-0.07 0,-0.08 0.01,-0.15l-0.03 -0.01c-0.05,0 -0.09,0 -0.14,0.01 -0.04,0 -0.08,0.01 -0.13,0.02z"/>
  <path class="fil3" d="M4.27 1.97c0.04,0.01 0.22,0.05 0.24,0.07 0.06,0.05 0,0.17 -0.02,0.23 -0.03,0.08 -0.02,0.17 -0.06,0.23 -0.07,0.09 -0.14,0.05 -0.26,0.06 -0.02,0.04 -0.05,0.21 -0.22,0.39 -0.08,0.09 -0.08,0.09 -0.2,0.18 -0.2,0.14 -0.43,0.25 -0.76,0.24 -0.15,-0 -0.31,-0.01 -0.45,-0.06 -0.07,-0.02 -0.12,-0.04 -0.18,-0.07 -0.06,-0.03 -0.1,-0.07 -0.15,-0.1 -0.13,-0.11 -0.31,-0.32 -0.37,-0.48 -0.01,-0.03 -0.02,-0.07 -0.04,-0.09 -0.2,-0.01 -0.25,-0 -0.3,-0.17 -0.04,-0.13 -0.1,-0.23 -0.06,-0.38 0.06,-0.01 0.17,-0.01 0.22,-0.03 0.01,-0.08 -0.03,-0.17 -0.04,-0.26 -0,-0.06 0.03,-0.18 0.05,-0.25 0.02,-0.09 0.07,-0.12 0.15,-0.15 0.09,-0.03 0.17,-0.06 0.25,-0.01 0.22,0.15 0.49,0.36 0.89,0.35 0.26,-0 0.5,-0.1 0.71,-0.22 0.07,-0.04 0.12,-0.08 0.18,-0.13 0.07,-0.05 0.12,-0.04 0.22,0.02 0.34,0.21 0.21,0.4 0.18,0.63zm-1.83 -1.89c0.01,0.04 0.04,0.14 0.06,0.16 0.41,-0.15 1.02,-0.07 1.33,0.23 0.08,0.08 0.05,0.01 0.2,0.18 0.03,0.03 0.05,0.07 0.08,0.11 0.08,0.12 0.2,0.35 0.21,0.53 -0.09,-0.04 -0.19,-0.12 -0.31,-0.16 -0.11,-0.04 -0.17,-0 -0.25,0.06 -0.03,0.02 -0.04,0.03 -0.07,0.05 -0.06,0.05 -0.21,0.13 -0.3,0.17 -0.38,0.16 -0.69,0.11 -1.02,-0.1l-0.21 -0.14c-0.07,-0.04 -0.08,-0.06 -0.18,-0.05 -0.07,0.01 -0.13,0.02 -0.19,0.05 -0.04,0.02 -0.13,0.07 -0.17,0.08 0.01,-0.27 0.23,-0.48 0.24,-0.54 -0.04,-0.03 -0.09,-0.08 -0.16,-0.09l-0.15 0.24c-0.12,0.22 -0.12,0.4 -0.12,0.65 -0,0.13 0.03,0.23 0.03,0.35 -0.11,0.02 -0.16,0.05 -0.19,0.15 -0.03,0.1 -0.02,0.2 0,0.29 0.05,0.2 0.09,0.35 0.24,0.42 0.11,0.05 0.15,0.02 0.21,0.13 0.05,0.1 0.07,0.16 0.16,0.25 0.09,0.1 0.09,0.11 0.21,0.21 0.04,0.04 0.08,0.05 0.1,0.06 0,0.09 0,0.19 0,0.28 -0,0.1 0.02,0.19 -0.09,0.2 -0.19,0.02 -0.35,0.05 -0.53,0.08 -0.28,0.05 -0.77,0.11 -1.01,0.21 -0.23,0.09 -0.38,0.22 -0.48,0.41 -0.15,0.28 -0.11,0.4 -0.11,0.76 0,0.09 -0.01,0.52 0,0.57 0.03,0 0.08,0 0.12,0 0.05,-0 0.07,-0.01 0.07,-0.05 0.01,-0.04 -0,-0.62 -0,-0.69 0,-0.36 0.01,-0.54 0.24,-0.72 0.1,-0.08 0.18,-0.12 0.32,-0.17 0.24,-0.08 0.57,-0.11 0.83,-0.16 0.13,-0.02 0.3,-0.06 0.44,-0.06 0,0.13 0.04,0.24 0.1,0.33 0.18,0.28 0.52,0.45 0.88,0.45 0.05,-0.33 -0.05,-0.05 -0.49,-0.31 -0.13,-0.08 -0.33,-0.27 -0.31,-0.5 0.08,-0.06 0.18,-0.05 0.19,-0.18 0.01,-0.11 -0,-0.26 -0,-0.37 0.04,0.01 0.09,0.04 0.13,0.05 0.05,0.02 0.09,0.03 0.14,0.04 0.11,0.02 0.22,0.03 0.33,0.03 0.5,-0.02 1.01,-0.28 1.24,-0.7 0.02,-0.04 0.03,-0.09 0.05,-0.12 0.33,-0.01 0.33,-0.25 0.37,-0.41 0.02,-0.08 0.09,-0.16 0.04,-0.3 -0.05,-0.15 -0.17,-0.16 -0.21,-0.18 -0.02,-0.33 0.09,-0.46 -0.07,-0.87 -0.12,-0.31 -0.27,-0.51 -0.55,-0.7 -0.05,-0.03 -0.1,-0.07 -0.16,-0.1 -0.11,-0.06 -0.23,-0.11 -0.37,-0.15 -0.2,-0.05 -0.5,-0.05 -0.71,-0.02 -0.08,0.01 -0.14,0.04 -0.2,0.05z"/>
  <path class="fil4" d="M11.49 2.81c0.16,-0.02 0.33,0.02 0.4,0.11 0.06,0.07 0,0.13 -0.05,0.17 -0.25,0.18 -0.84,-0.01 -0.56,-0.21 0.05,-0.04 0.12,-0.06 0.2,-0.07zm-1.96 -0.3c-0.01,0.12 -0.01,0.26 -0.01,0.38 -0,0.07 -0,0.13 -0,0.2 -0,0.05 0.01,0.05 -0.03,0.07 -0.12,0.07 -0.25,0.12 -0.41,0.1 -0.08,-0.01 -0.2,-0.05 -0.27,-0.1 -0.02,-0.01 -0.01,-0.01 -0.02,-0.02l-0 -0.5c-0.12,0.02 -0.4,0.11 -0.51,0.16 -0.11,0.06 -0.08,0.06 -0.12,0.1 0.01,0.02 0.01,0.04 0.02,0.06 0.02,0.07 0.05,0.11 0.1,0.15 0.05,0.06 0.12,0.1 0.2,0.14 0.15,0.08 0.35,0.13 0.54,0.16 0.75,0.14 2.46,0.17 3.15,-0.16 0.16,-0.07 0.3,-0.17 0.32,-0.37 -0.01,-0.03 -0.02,-0.05 -0.05,-0.06 -0.02,-0.01 -0.04,-0.03 -0.07,-0.04 -0.05,-0.02 -0.1,-0.04 -0.15,-0.06 -0.48,-0.18 -1.37,-0.31 -1.88,-0.3 -0.29,0 -0.53,0.03 -0.81,0.07z"/>
  <path class="fil3" d="M4.48 3.05c-0.03,0.01 -0.06,0.04 -0.08,0.06 -0.19,0.16 -0.3,0.45 -0.32,0.69 -0.01,0.09 -0.01,0.18 0.02,0.27 0.04,0.15 0.07,0.15 0.02,0.2 -0.11,0.1 -0.18,0.18 -0.3,0.28l-0.3 0.29c-0.06,0.06 -0.88,0.82 -0.9,0.85 0.06,0.03 0.09,0.06 0.14,0.1 0.15,0.12 0.39,0.18 0.58,0.11 0.11,-0.04 0.16,-0.16 0.28,-0.21l0.39 -0.11c0.01,-0.01 -0,0.01 0.01,-0.01 0,-0.01 0,0 0,-0.01 0.03,-0.11 0.11,-0.29 0.15,-0.41 0.14,0 0.36,0.01 0.47,-0.05 0.05,-0.03 0.09,-0.08 0.13,-0.13 0.04,-0.05 0.1,-0.09 0.11,-0.13 0.21,0.06 0.29,0.08 0.54,0.05 0.16,-0.02 0.34,-0.08 0.45,-0.16 0.12,-0.09 0.22,-0.17 0.3,-0.29 0.08,-0.12 0.14,-0.24 0.18,-0.41 0.04,-0.18 0.02,-0.35 -0.03,-0.52 -0.05,-0.16 -0.13,-0.27 -0.22,-0.37l-0.16 -0.14c-0.15,-0.11 -0.35,-0.19 -0.55,-0.21 -0.02,-0 -0.12,-0.01 -0.14,-0l0.03 0.01c-0,0.07 -0.03,0.09 -0.01,0.15 0.16,0.03 0.26,-0 0.46,0.09 0.11,0.05 0.23,0.14 0.31,0.23 0.05,0.07 0.17,0.24 0.19,0.34 0.05,0.29 -0,0.59 -0.2,0.82 -0.07,0.08 -0.19,0.2 -0.29,0.24 -0.3,0.13 -0.61,0.12 -0.9,-0.01 -0.02,0.01 -0.05,0.05 -0.07,0.07l-0.2 0.23c-0.03,0.02 -0.06,0.02 -0.12,0.02l-0.41 0.03c-0.03,0.12 -0.09,0.26 -0.14,0.38 -0.02,0.07 -0,0.04 -0.16,0.1l-0.29 0.11c-0.06,0.02 -0.05,0.01 -0.08,0.05 -0.01,0.01 -0.12,0.12 -0.14,0.13 -0.14,0.04 -0.35,-0.05 -0.41,-0.12 0.01,-0.02 0.02,-0.03 0.05,-0.05 0.12,-0.1 0.22,-0.2 0.34,-0.31 0.04,-0.03 0.07,-0.05 0.1,-0.09l0.49 -0.44c0.03,-0.03 0.07,-0.06 0.1,-0.09 0.04,-0.03 0.07,-0.06 0.1,-0.09l0.19 -0.18c0.07,-0.06 0.13,-0.11 0.2,-0.17 -0.01,-0.05 -0.06,-0.09 -0.08,-0.13 -0.01,-0.02 -0.04,-0.12 -0.05,-0.15 -0.07,-0.25 0.02,-0.49 0.18,-0.68 0.02,-0.02 0.03,-0.04 0.05,-0.05 0.03,-0.04 0.07,-0.07 0.1,-0.1 -0.02,-0.02 -0.03,-0.03 -0.06,-0.05 -0.02,-0.02 -0.04,-0.03 -0.05,-0.06z"/>
  <path class="fil5" d="M10.14 4.12l-0.01 0.01c-0.04,0.04 -0.17,0.08 -0.16,0.28 0,0.12 0.09,0.24 0.18,0.27 -0.03,0.12 -0.24,0.55 -0.24,0.63 0.03,0.05 0.11,0.03 0.17,0.03l0.42 -0c0.18,0 0.17,-0.01 0.08,-0.21l-0.12 -0.29c-0.02,-0.04 -0.05,-0.11 -0.06,-0.15 0.07,-0.05 0.19,-0.09 0.19,-0.28 -0,-0.13 -0.06,-0.21 -0.16,-0.27 -0,-0 -0,-0 -0,-0l-0.02 -0.01c-0.04,-0 -0.08,-0.02 -0.14,-0.02 -0.06,-0 -0.09,0.01 -0.14,0.02z"/>
  <path class="fil6" d="M9.59 0.7c0.03,-0.15 -0.11,-0.22 -0.29,-0.1 -0.36,0.24 -0.39,0.7 -0.39,1.12 0,0.04 -0,0.08 0.01,0.12 0.01,0.03 0.03,0.07 0.08,0.05 0.05,-0.02 0.07,-0.11 0.08,-0.18 0.06,-0.23 0.15,-0.53 0.29,-0.72 0.1,-0.14 0.19,-0.13 0.22,-0.29z"/>
  <path class="fil7" d="M10.42 4.12l0.02 0.01c0,0 0,0 0,0 0.1,0.06 0.16,0.15 0.16,0.27 0.01,0.19 -0.12,0.23 -0.19,0.28 0.01,0.04 0.04,0.11 0.06,0.15l0.12 0.29c0.08,0.2 0.1,0.21 -0.08,0.21l-0.42 0c-0.07,0 -0.14,0.01 -0.17,-0.03 -0.01,-0.07 0.21,-0.51 0.24,-0.63 -0.09,-0.03 -0.18,-0.15 -0.18,-0.27 -0.01,-0.2 0.12,-0.24 0.16,-0.28l0.01 -0.01 -0.01 0.01c-0.16,0.01 -0.4,0.27 -0.2,0.51 0.07,0.08 0.09,0.08 0.17,0.12 -0.06,0.12 -0.18,0.38 -0.25,0.52 -0.02,0.04 -0.04,0.08 -0.06,0.13 -0.03,0.07 0,0.09 0.07,0.09 0.22,0.01 0.57,-0 0.81,0 0.07,0 0.13,-0.01 0.11,-0.08 -0.01,-0.03 -0.05,-0.11 -0.06,-0.13 -0.04,-0.08 -0.09,-0.17 -0.13,-0.26 -0.02,-0.05 -0.12,-0.23 -0.13,-0.27 0.14,-0.05 0.28,-0.16 0.25,-0.34 -0.02,-0.17 -0.13,-0.27 -0.3,-0.31z"/>
  <path class="fil1" d="M5.45 3.19c-0.4,0.06 -0.29,0.58 0.09,0.53 0.14,-0.02 0.27,-0.15 0.24,-0.31 -0.02,-0.13 -0.16,-0.24 -0.33,-0.21z"/>
  <path class="fil3" d="M2.56 2.67c-0.04,0.03 -0.11,0.08 -0.13,0.11 0.05,0.07 0.13,0.13 0.23,0.18 0.21,0.1 0.48,0.08 0.68,-0.03 0.07,-0.04 0.2,-0.11 0.22,-0.19 -0.07,-0.02 -0.08,-0.06 -0.12,-0.09l-0.13 0.1c-0.09,0.06 -0.17,0.1 -0.29,0.1 -0.1,-0 -0.19,-0.01 -0.27,-0.04 -0.09,-0.03 -0.11,-0.07 -0.16,-0.12l-0.02 -0.02z"/>
  <path class="fil7" d="M11.49 2.81c-0.08,0.01 -0.15,0.03 -0.2,0.07 -0.28,0.2 0.31,0.39 0.56,0.21 0.05,-0.03 0.1,-0.1 0.05,-0.17 -0.07,-0.09 -0.24,-0.13 -0.4,-0.11z"/>
  <polygon class="fil3" points="0.81,5.87 0.98,5.87 0.98,5.17 0.81,5.17 "/>
  <path class="fil5" d="M2.36 1.81c-0.26,0.06 -0.14,0.41 0.11,0.35 0.09,-0.02 0.17,-0.12 0.14,-0.23 -0.02,-0.09 -0.13,-0.14 -0.25,-0.12z"/>
  <polygon class="fil3" points="5.77,5.85 5.94,5.85 5.94,5.18 5.77,5.18 "/>
  <path class="fil5" d="M3.41 1.81c-0.26,0.06 -0.14,0.41 0.11,0.35 0.09,-0.02 0.16,-0.12 0.14,-0.23 -0.02,-0.09 -0.13,-0.14 -0.25,-0.12z"/>
  <path class="fil3" d="M5.45 3.19c0.17,-0.03 0.3,0.09 0.33,0.21 0.03,0.16 -0.1,0.29 -0.24,0.31 -0.38,0.05 -0.49,-0.46 -0.09,-0.53zm0 -0.05c-0.18,0.02 -0.33,0.16 -0.31,0.35 0.02,0.16 0.19,0.3 0.39,0.28 0.17,-0.02 0.33,-0.17 0.3,-0.36 -0.02,-0.16 -0.18,-0.29 -0.38,-0.27z"/>
  <path class="fil5" d="M4.88 2.86c-0.23,0.03 -0.18,0.37 0.06,0.33 0.09,-0.02 0.17,-0.09 0.15,-0.19 -0.02,-0.08 -0.1,-0.15 -0.21,-0.14z"/>
  <path class="fil3" d="M2.11 0.24c-0.24,0.03 -0.18,0.35 0.07,0.31 0.22,-0.04 0.18,-0.34 -0.07,-0.31z"/>
  <path class="fil3" d="M4.68 2.92c0.04,-0.01 0.1,-0.04 0.15,-0.05 0.04,-0.01 0.11,-0.02 0.15,-0.04 -0.09,-0.08 -0.28,-0.02 -0.3,0.09z"/>
 </g>
</svg>
