<?xml version="1.0" encoding="UTF-8"?>
<!DOCTYPE svg PUBLIC "-//W3C//DTD SVG 1.1//EN" "http://www.w3.org/Graphics/SVG/1.1/DTD/svg11.dtd">
<!-- Creator: CorelDRAW 2021 (64 Bit) -->
<svg xmlns="http://www.w3.org/2000/svg" xml:space="preserve" width="63.4999mm" height="63.5mm" version="1.1" style="shape-rendering:geometricPrecision; text-rendering:geometricPrecision; image-rendering:optimizeQuality; fill-rule:evenodd; clip-rule:evenodd"
viewBox="0 0 215.26 215.26"
 xmlns:xlink="http://www.w3.org/1999/xlink"
 xmlns:xodm="http://www.corel.com/coreldraw/odm/2003">
 <defs>
  <style type="text/css">
   <![CDATA[
    .str0 {stroke:#B8B4B6;stroke-width:14.35;stroke-miterlimit:22.9256}
    .fil2 {fill:#020202}
    .fil1 {fill:#FE0404}
    .fil0 {fill:white}
   ]]>
  </style>
 </defs>
 <g id="Camada_x0020_1">
  <metadata id="CorelCorpID_0Corel-Layer"/>
  <g id="_2465121161440">
   <path class="fil0 str0" d="M16.2 7.18l183.08 0c4.86,-0 8.81,4.51 8.81,10.06l0 180.78c0,5.56 -3.94,10.06 -8.81,10.06l-183.08 0c-4.86,-0 -8.81,-4.51 -8.81,-10.06 0,-21.72 -0.32,-175.09 -0.18,-182.96 0.08,-4.35 5.35,-7.88 8.99,-7.88z"/>
   <g id="_2171371350208">
    <path class="fil1" d="M146.01 66.93c-2.05,3.15 -10.32,9.67 -13.83,10.98 -1.95,2.93 -11.3,10.54 -14.51,12.5 -3.12,3.37 -3.02,4.02 -7.89,6.3 -2.34,3.48 -9.25,8.48 -12.95,10.87 -2.83,3.7 -2.43,3.8 -6.72,5.87 -5.45,5.22 -10.32,7.61 -15.39,14.02l-5.55 3.48 -5.94 4.78c-2.82,3.04 -2.14,3.26 -6.72,5.32 -3.51,4.24 -18.9,16.74 -23.77,19.67 2.34,3.8 4.87,7.28 7.01,10.98l29.22 -23.47c2.43,-3.26 10.71,-10 14.22,-11.95 4.09,-4.13 9.93,-8.8 14.71,-11.52 2.24,-3.15 3.12,-4.78 7.69,-6.41 2.63,-4.02 8.38,-8.37 12.76,-10.76 2.82,-4.56 2.63,-5.22 8.18,-6.3 2.73,-4.24 9.93,-9.45 14.22,-12.39l6.82 -5.65 4.19 -3.8 7.01 -5.87c4.58,-4.13 19.38,-17.71 23.77,-19.13 -1.17,-4.67 -3.41,-7.28 -5.55,-10.87 -6.72,1.74 -21.72,16.95 -30.97,23.37l0 0z"/>
    <path class="fil2" d="M147.56 83.23l-6.82 5.65c8.77,21.41 2.73,37.49 -10.32,49.56 -12.56,11.52 -37.01,9.67 -47.24,-2.17 -3.51,1.96 -11.79,8.69 -14.22,11.95 12.08,6.74 32.92,12.28 53.08,9.02 21.92,-3.59 45.29,-19.02 60.88,-35.21 14.8,-15.32 21.23,-11.41 -24.16,-48.47l-7.01 5.87c9.84,5.98 27.76,20 33.6,29.78l-21.23 18.47c-10.13,8.59 -13.83,9.24 -23.18,14.67 -0.29,0.22 -0.68,0.54 -0.88,0.65 -0.19,0.11 -0.68,0.33 -0.88,0.54 -3.41,-2.72 -1.36,-0.43 3.12,-5.87 16.95,-20.32 8.47,-41.62 5.26,-54.45l0 -0z"/>
    <path class="fil2" d="M56.49 141.05c4.58,-2.06 3.9,-2.28 6.72,-5.32 -3.21,-2.83 -4.68,-3.37 -8.38,-5.98 -10.23,-7.17 -21.23,-19.45 -24.93,-22.17 6.33,-10.54 34.87,-32.6 47.63,-35.86 -6.53,10.76 -24.25,27.49 -8.38,59.23l5.55 -3.48c-1.56,-10.54 -10.91,-33.58 9.93,-50.97 7.5,-6.19 10.81,-8.15 23.67,-8.04 10.03,0 19.87,3.37 23.86,9.46 3.51,-1.3 11.79,-7.82 13.83,-10.98l-1.75 -1.09c-28.25,-17.06 -66.91,-8.69 -93.02,10.87 -6.92,5.11 -11.2,8.91 -17.73,14.56 -3.6,3.15 -5.16,4.46 -8.28,8.04 -12.27,14.13 16.95,29.12 31.27,41.73l-0 0z"/>
    <path class="fil2" d="M118.34 107.58c-1.07,8.37 -4.68,10.98 -12.76,10.76 -4.58,1.63 -5.45,3.26 -7.69,6.41 8.47,1.09 12.08,5.65 20.55,-1.2 6.82,-5.43 8.08,-9.78 8.08,-22.28 -5.55,1.09 -5.36,1.74 -8.18,6.3z"/>
    <path class="fil2" d="M90.1 113.44c4.29,-2.07 3.9,-2.17 6.72,-5.87 0.78,-5.11 1.36,-7.28 4.48,-9.45 3.21,-2.28 5.84,-2.61 8.47,-1.41 4.87,-2.28 4.77,-2.93 7.89,-6.3 -6.43,-4.67 -14.9,-4.56 -20.94,1.09 -2.63,2.5 -4.77,5 -6.04,9.02 -2.24,6.41 -0.68,6.09 -0.58,12.93l0 0z"/>
    <path class="fil2" d="M104.12 173.22l0 17.17c0,0.65 1.07,3.26 2.53,4.67l3.31 0c1.46,-2.07 2.53,-7.82 2.53,-20.32 0,-6.63 -8.38,-9.35 -8.38,-1.52l0 -0z"/>
    <path class="fil2" d="M136.36 163.87c0,18.69 25.71,35.21 10.03,5.87 -3.41,-6.41 -1.95,-7.28 -8.67,-9.02 0,0 -1.36,2.93 -1.36,3.15l0 -0z"/>
    <path class="fil2" d="M77.53 57.59l2.53 -3.37c-0.97,-5.54 -2.92,-7.17 -5.36,-12.28 -2.34,-5 -2.82,-7.61 -8.38,-9.35 -3.99,6.63 -2.63,6.19 1.66,13.8 3.12,5.65 3.31,9.35 9.55,11.19z"/>
    <path class="fil2" d="M64.97 181.04c0,4.35 4.19,8.48 8.96,0.65 0.88,-1.52 2.05,-4.02 3.02,-5.98 3.51,-6.52 4.58,-7.17 3.41,-13.48 -7.11,0.22 -6.33,1.2 -12.18,13.04 -1.07,2.17 -3.21,5.11 -3.21,5.76z"/>
    <path class="fil2" d="M134.9 51.39c0,18.91 25.52,-22.93 10.32,-18.37 -4.38,1.2 -10.32,18.37 -10.32,18.37z"/>
    <path class="fil2" d="M106.95 49.76l2.82 0c1.75,-3.59 3.51,-26.52 -1.46,-26.52 -6.72,0 -4.97,6.19 -4.48,11.08 0.58,5.22 -1.07,15.43 3.12,15.43l-0 0z"/>
   </g>
  </g>
 </g>
</svg>
