<?xml version="1.0" encoding="UTF-8"?>
<!DOCTYPE svg PUBLIC "-//W3C//DTD SVG 1.1//EN" "http://www.w3.org/Graphics/SVG/1.1/DTD/svg11.dtd">
<!-- Creator: CorelDRAW 2021 (64 Bit) -->
<svg xmlns="http://www.w3.org/2000/svg" xml:space="preserve" width="134.874mm" height="134.874mm" version="1.1" style="shape-rendering:geometricPrecision; text-rendering:geometricPrecision; image-rendering:optimizeQuality; fill-rule:evenodd; clip-rule:evenodd"
viewBox="0 0 861.05 861.05"
 xmlns:xlink="http://www.w3.org/1999/xlink"
 xmlns:xodm="http://www.corel.com/coreldraw/odm/2003">
 <defs>
  <style type="text/css">
   <![CDATA[
    .str0 {stroke:#E3FFFF;stroke-width:37.83;stroke-miterlimit:22.9256}
    .fil0 {fill:none}
    .fil1 {fill:#1C8BD3}
    .fil2 {fill:#FEFEFE;fill-rule:nonzero}
   ]]>
  </style>
 </defs>
 <g id="Camada_x0020_1">
  <metadata id="CorelCorpID_0Corel-Layer"/>
  <rect class="fil0" width="861.05" height="861.05"/>
  <g id="_2278639485232">
   <circle class="fil1 str0" cx="430.53" cy="430.53" r="354.06"/>
   <path class="fil2" d="M666.89 456.75c0,-14.46 -30.05,-68.08 -44.89,-93.58 1.52,-7.61 3.81,-24.34 3.81,-49.45 0,-43.74 -57.45,-153.29 -194,-153.29 -133.89,0 -193.99,101.58 -193.99,173.83 0,50.99 30.05,103.09 54.01,144.93 14.07,24.73 27.4,47.55 27.4,59.33 0,25.88 -42.22,77.6 -58.58,95.11 -2.67,3.04 -3.42,7.21 -1.52,11.02 1.52,3.81 4.94,6.1 9.11,6.1l224.82 0c5.71,0 9.88,-2.67 9.88,-8.38 3.81,-7.21 39.95,-26.99 73.43,-32.32 25.47,-4.19 59.72,-9.9 59.72,-41.09 0,-13.3 -4.58,-20.15 -7.61,-24.73 -2.29,-3.04 -2.65,-3.81 -3.81,-5.71 5.71,0.77 10.65,-3.42 11.42,-9.11 0.36,-1.9 0,-4.19 -1.15,-6.1l8.38 -8.36c2.65,-2.67 3.79,-6.84 2.65,-10.27l-6.85 -20.55c11.79,-4.17 27.76,-12.55 27.76,-27.38l0.02 0z"/>
  </g>
 </g>
</svg>
