<?xml version="1.0" encoding="UTF-8"?>
<!DOCTYPE svg PUBLIC "-//W3C//DTD SVG 1.1//EN" "http://www.w3.org/Graphics/SVG/1.1/DTD/svg11.dtd">
<!-- Creator: CorelDRAW 2021 (64 Bit) -->
<svg xmlns="http://www.w3.org/2000/svg" xml:space="preserve" width="134.874mm" height="134.874mm" version="1.1" style="shape-rendering:geometricPrecision; text-rendering:geometricPrecision; image-rendering:optimizeQuality; fill-rule:evenodd; clip-rule:evenodd"
viewBox="0 0 1144.03 1144.03"
 xmlns:xlink="http://www.w3.org/1999/xlink"
 xmlns:xodm="http://www.corel.com/coreldraw/odm/2003">
 <defs>
  <style type="text/css">
   <![CDATA[
    .str0 {stroke:#E3FFFF;stroke-width:50.27;stroke-miterlimit:22.9256}
    .str1 {stroke:red;stroke-width:3.59;stroke-miterlimit:22.9256}
    .fil0 {fill:none}
    .fil1 {fill:#1C8BD3}
    .fil3 {fill:red}
    .fil2 {fill:#FEFEFE;fill-rule:nonzero}
   ]]>
  </style>
 </defs>
 <g id="Camada_x0020_1">
  <metadata id="CorelCorpID_0Corel-Layer"/>
  <g id="_2278923572480">
   <g>
    <rect class="fil0" width="1144.03" height="1144.03"/>
    <g>
     <circle class="fil1 str0" cx="572.01" cy="572.01" r="470.42"/>
     <path class="fil2" d="M886.05 606.85c0,-19.21 -39.93,-90.45 -59.65,-124.33 2.02,-10.12 5.06,-32.34 5.06,-65.7 0,-58.11 -76.33,-203.67 -257.75,-203.67 -177.9,0 -257.75,134.96 -257.75,230.95 0,67.75 39.93,136.97 71.75,192.56 18.7,32.85 36.4,63.17 36.4,78.83 0,34.39 -56.1,103.1 -77.84,126.37 -3.55,4.04 -4.55,9.58 -2.02,14.64 2.02,5.06 6.57,8.1 12.11,8.1l298.7 0c7.59,0 13.13,-3.55 13.13,-11.14 5.06,-9.58 53.08,-35.86 97.56,-42.94 33.85,-5.57 79.34,-13.16 79.34,-54.59 0,-17.68 -6.08,-26.77 -10.12,-32.85 -3.04,-4.03 -3.52,-5.06 -5.06,-7.59 7.59,1.02 14.15,-4.55 15.18,-12.11 0.48,-2.53 0,-5.57 -1.53,-8.1l11.14 -11.11c3.52,-3.55 5.03,-9.09 3.52,-13.64l-9.09 -27.31c15.66,-5.54 36.89,-16.68 36.89,-36.38l0.03 0z"/>
    </g>
   </g>
   <rect class="fil3 str1" transform="matrix(0.630658 -0.630658 0.652223 0.652223 292.715 338.419)" width="72.47" height="856.45"/>
   <rect class="fil3 str1" transform="matrix(-0.630658 -0.630658 -0.652223 0.652223 897.015 338.419)" width="72.47" height="856.45"/>
  </g>
 </g>
</svg>
