<?xml version="1.0" encoding="UTF-8"?>
<!DOCTYPE svg PUBLIC "-//W3C//DTD SVG 1.1//EN" "http://www.w3.org/Graphics/SVG/1.1/DTD/svg11.dtd">
<!-- Creator: CorelDRAW 2021 (64 Bit) -->
<svg xmlns="http://www.w3.org/2000/svg" xml:space="preserve" width="540px" height="532px" version="1.1" style="shape-rendering:geometricPrecision; text-rendering:geometricPrecision; image-rendering:optimizeQuality; fill-rule:evenodd; clip-rule:evenodd"
viewBox="0 0 50.9 50.18"
 xmlns:xlink="http://www.w3.org/1999/xlink"
 xmlns:xodm="http://www.corel.com/coreldraw/odm/2003">
 <defs>
  <style type="text/css">
   <![CDATA[
    .str2 {stroke:#04FF00;stroke-width:1.89;stroke-miterlimit:22.9256}
    .str3 {stroke:#9E9E9E;stroke-width:0.28;stroke-miterlimit:22.9256}
    .str0 {stroke:#C4C4C4;stroke-width:2.83;stroke-linejoin:round;stroke-miterlimit:22.9256}
    .str1 {stroke:#9E9E9E;stroke-width:0.28;stroke-miterlimit:22.9256}
    .fil1 {fill:none}
    .fil0 {fill:#FEFEFE}
    .fil2 {fill:red}
   ]]>
  </style>
 </defs>
 <g id="Camada_x0020_1">
  <metadata id="CorelCorpID_0Corel-Layer"/>
  <rect class="fil0 str0" x="1.41" y="1.41" width="48.07" height="47.35" rx="3" ry="3"/>
 </g>
 <g id="Camada_x0020_1_0">
  <metadata id="CorelCorpID_1Corel-Layer"/>
  <g id="_1982542142832">
   <line class="fil1 str1" x1="25.45" y1="1.41" x2="25.45" y2= "1.41" />
  </g>
  <g id="_1982542146672">
   <line class="fil1 str1" x1="25.45" y1="1.41" x2="25.45" y2= "1.41" />
  </g>
  <g id="_1982542149936">
   <path class="fil1 str2" d="M9.79 9.38c6,-0.2 12.8,-1.6 16.19,-4m14.2 4l0 17.59c-0.2,2.4 -0.8,4.6 -1.6,6.6m-5.2 0.8l7.4 7.39m-18.33 -20.87l-2.63 3.51 4.77 5.17 6.79 -6.6 -2.4 -2.19 -3.51 2.96 -3.02 -2.85 0 0zm2.53 -5.71c5,0 9.2,3.8 9.2,8.59 0,4.8 -4.2,8.6 -9.2,8.6 -5.19,0 -9.19,-3.8 -9.19,-8.6 0,-4.79 4,-8.59 9.19,-8.59zm15.8 -5.8c-5.8,0 -11.2,-1.2 -14.8,-4m-16.19 4l0 17.59c0.6,8.2 4.8,13.79 13.6,15.99 2.79,-0.4 6.19,-1.6 7.99,-4"/>
   <polygon class="fil2 str3" points="24.58,28.19 21,24.28 22.57,22.29 25.38,24.99 28.93,21.99 29.9,22.96 "/>
  </g>
 </g>
</svg>
