<?xml version="1.0" encoding="UTF-8"?>
<!DOCTYPE svg PUBLIC "-//W3C//DTD SVG 1.1//EN" "http://www.w3.org/Graphics/SVG/1.1/DTD/svg11.dtd">
<!-- Creator: CorelDRAW 2021 (64 Bit) -->
<svg xmlns="http://www.w3.org/2000/svg" xml:space="preserve" width="752px" height="752px" version="1.1" style="shape-rendering:geometricPrecision; text-rendering:geometricPrecision; image-rendering:optimizeQuality; fill-rule:evenodd; clip-rule:evenodd"
viewBox="0 0 33.1 33.07"
 xmlns:xlink="http://www.w3.org/1999/xlink"
 xmlns:xodm="http://www.corel.com/coreldraw/odm/2003">
 <defs>
  <style type="text/css">
   <![CDATA[
    .str1 {stroke:#AEA19E;stroke-width:0.7;stroke-miterlimit:22.9256;stroke-opacity:0.949020}
    .str3 {stroke:#B8B4B6;stroke-width:2.2;stroke-miterlimit:22.9256}
    .str0 {stroke:white;stroke-width:0.09;stroke-miterlimit:22.9256}
    .str2 {stroke:black;stroke-width:0.53;stroke-miterlimit:22.9256}
    .fil9 {fill:none}
    .fil0 {fill:#FEFEFE}
    .fil6 {fill:#E6E7E8}
    .fil4 {fill:#FFF212}
    .fil5 {fill:aqua}
    .fil3 {fill:red}
    .fil1 {fill:#373435;fill-rule:nonzero}
    .fil2 {fill:black;fill-rule:nonzero}
    .fil7 {fill:#333333;fill-rule:nonzero}
    .fil8 {fill:#FEFEFE;fill-rule:nonzero;fill-opacity:0.949020}
   ]]>
  </style>
 </defs>
 <g id="Camada_x0020_1">
  <metadata id="CorelCorpID_0Corel-Layer"/>
  <rect class="fil0" x="1.05" y="1.09" width="30.99" height="30.89"/>
  <path class="fil1" d="M16.72 16.53c-0.05,-0.03 -0.1,-0.06 -0.14,-0.1 -0.09,-0.08 -0.13,-0.19 -0.13,-0.31 -0.01,-0.36 -0.24,-0.58 -0.46,-0.67 -0.22,-0.09 -0.54,-0.1 -0.8,0.16 -0.17,0.17 -0.45,0.17 -0.62,0l-0.76 -0.76c-0.09,-0.08 -0.13,-0.19 -0.13,-0.31 0,-0.11 0.04,-0.23 0.12,-0.31 0.26,-0.25 0.25,-0.58 0.16,-0.8 -0.09,-0.22 -0.32,-0.45 -0.68,-0.45 -0.24,0 -0.44,-0.19 -0.44,-0.43l-0.01 -1.08c0,-0.12 0.05,-0.23 0.13,-0.31 0.08,-0.09 0.19,-0.13 0.31,-0.13 0.36,0 0.59,-0.24 0.68,-0.46 0.09,-0.22 0.09,-0.54 -0.17,-0.79 -0.08,-0.09 -0.13,-0.2 -0.13,-0.32 0,-0.11 0.05,-0.22 0.13,-0.31l0.76 -0.76c0.17,-0.17 0.45,-0.17 0.62,0 0.26,0.25 0.58,0.24 0.8,0.15 0.22,-0.09 0.45,-0.32 0.45,-0.68 0,-0.24 0.19,-0.44 0.44,-0.44l1.07 0c0.12,-0.01 0.23,0.04 0.31,0.12 0.09,0.09 0.13,0.2 0.13,0.31 0.01,0.36 0.24,0.59 0.46,0.68 0,0 0,0 0,0 0.22,0.09 0.54,0.09 0.8,-0.16 0.08,-0.09 0.19,-0.13 0.31,-0.13 0.11,0 0.22,0.04 0.31,0.12l0.76 0.76c0.09,0.08 0.13,0.19 0.13,0.31 0,0.12 -0.04,0.23 -0.12,0.31 -0.26,0.26 -0.25,0.58 -0.16,0.8 0.09,0.22 0.32,0.45 0.68,0.45 0.24,0 0.44,0.2 0.44,0.44l0.01 1.07c0,0.12 -0.05,0.23 -0.13,0.32 -0.08,0.08 -0.19,0.13 -0.31,0.13 -0.36,0 -0.59,0.23 -0.68,0.45 -0.09,0.22 -0.09,0.54 0.17,0.8l0 0c0.08,0.08 0.13,0.19 0.13,0.31 0,0.12 -0.05,0.23 -0.13,0.31l-0.76 0.76c-0.08,0.09 -0.19,0.13 -0.31,0.14 -0.12,0 -0.23,-0.05 -0.31,-0.13 -0.26,-0.26 -0.58,-0.25 -0.8,-0.16 -0.22,0.09 -0.45,0.32 -0.45,0.68 0,0.24 -0.19,0.44 -0.44,0.44l-1.07 0.01c-0.06,0 -0.12,-0.01 -0.17,-0.03zm-0.56 -1.49c0.45,0.18 0.73,0.59 0.73,1.08l1.07 -0.01c0,-0.48 0.27,-0.9 0.72,-1.09 0.45,-0.18 0.94,-0.09 1.28,0.25l0.75 -0.76c-0.34,-0.34 -0.44,-0.83 -0.26,-1.28 0.19,-0.45 0.6,-0.73 1.09,-0.73l-0.01 -1.07c-0.48,0 -0.9,-0.27 -1.09,-0.72 -0.19,-0.44 -0.09,-0.94 0.25,-1.28l-0.76 -0.75c-0.34,0.34 -0.83,0.44 -1.28,0.26 0,0 0,0 0,0 -0.45,-0.19 -0.73,-0.6 -0.73,-1.08l-1.07 0c0,0.48 -0.27,0.9 -0.72,1.09 -0.45,0.19 -0.94,0.09 -1.28,-0.25l-0.76 0.76c0.35,0.34 0.45,0.83 0.27,1.28 -0.19,0.45 -0.6,0.73 -1.09,0.73l0.01 1.07c0.48,0 0.9,0.27 1.09,0.72 0.19,0.45 0.09,0.94 -0.25,1.28l0.76 0.76c0.34,-0.35 0.83,-0.45 1.28,-0.26z"/>
  <path class="fil1" d="M16.92 15.21c-0.04,-0.02 -0.07,-0.04 -0.1,-0.07 -0.06,-0.06 -0.1,-0.14 -0.1,-0.22 0,-0.26 -0.16,-0.42 -0.32,-0.48 -0.15,-0.06 -0.38,-0.07 -0.56,0.12 -0.13,0.12 -0.32,0.12 -0.45,0l-0.54 -0.54c-0.06,-0.06 -0.09,-0.14 -0.09,-0.22 0,-0.08 0.03,-0.16 0.09,-0.22 0.18,-0.18 0.17,-0.41 0.11,-0.57 -0.07,-0.15 -0.23,-0.32 -0.48,-0.32 -0.17,0 -0.32,-0.13 -0.32,-0.31l0 -0.76c0,-0.08 0.03,-0.16 0.09,-0.22 0.06,-0.06 0.14,-0.09 0.22,-0.09 0.26,0 0.42,-0.17 0.48,-0.33 0.06,-0.15 0.07,-0.38 -0.12,-0.56 -0.05,-0.06 -0.09,-0.14 -0.09,-0.22 0,-0.09 0.03,-0.16 0.09,-0.22l0.54 -0.55c0.12,-0.12 0.32,-0.12 0.44,0 0.18,0.18 0.41,0.18 0.57,0.11 0.15,-0.06 0.32,-0.22 0.32,-0.48 0,-0.17 0.14,-0.31 0.31,-0.31l0.76 -0.01c0.08,0 0.16,0.03 0.22,0.09 0.06,0.06 0.09,0.14 0.09,0.22 0.01,0.26 0.17,0.42 0.33,0.48 0,0 0,0 0,0 0.15,0.07 0.38,0.07 0.56,-0.11 0.06,-0.06 0.14,-0.09 0.22,-0.1 0.09,0 0.17,0.04 0.23,0.1l0.54 0.53c0.06,0.06 0.09,0.14 0.09,0.22 0,0.09 -0.03,0.16 -0.09,0.22 -0.18,0.19 -0.18,0.42 -0.11,0.57 0.06,0.16 0.23,0.32 0.48,0.32 0.17,0 0.31,0.14 0.31,0.31l0.01 0.76c0,0.09 -0.03,0.17 -0.09,0.22 -0.06,0.06 -0.14,0.1 -0.22,0.1 -0.26,0 -0.42,0.16 -0.48,0.32 -0.06,0.16 -0.07,0.39 0.11,0.57l0 0c0.06,0.06 0.1,0.13 0.1,0.22 0,0.08 -0.04,0.16 -0.09,0.22l-0.54 0.54c-0.06,0.06 -0.14,0.09 -0.22,0.09 -0.09,0 -0.16,-0.03 -0.22,-0.09 -0.18,-0.18 -0.41,-0.17 -0.57,-0.11 -0.15,0.07 -0.32,0.23 -0.32,0.48 0,0.18 -0.14,0.32 -0.31,0.32l-0.76 0c-0.04,0 -0.08,-0.01 -0.12,-0.02zm-0.4 -1.06c0.32,0.13 0.52,0.42 0.52,0.77l0.76 -0.01c0,-0.34 0.19,-0.64 0.51,-0.77 0.32,-0.13 0.66,-0.06 0.91,0.18l0.53 -0.54c-0.24,-0.24 -0.31,-0.59 -0.18,-0.91 0.13,-0.32 0.42,-0.52 0.77,-0.52l-0.01 -0.76c-0.34,0.01 -0.64,-0.19 -0.77,-0.51 -0.13,-0.31 -0.07,-0.66 0.18,-0.91l-0.55 -0.53c-0.23,0.24 -0.58,0.31 -0.9,0.18 0,0 0,0 0,0 -0.32,-0.13 -0.52,-0.42 -0.52,-0.76l-0.76 0c0,0.34 -0.19,0.64 -0.51,0.77 -0.32,0.14 -0.67,0.07 -0.91,-0.17l-0.53 0.54c0.24,0.24 0.31,0.58 0.18,0.9 -0.13,0.32 -0.42,0.52 -0.77,0.52l0.01 0.76c0.34,0 0.64,0.19 0.77,0.51 0.13,0.32 0.06,0.67 -0.18,0.91l0.54 0.53c0.24,-0.24 0.59,-0.31 0.91,-0.18z"/>
  <path class="fil1" d="M11.32 12.47c0.04,-0.04 0.07,-0.09 0.09,-0.15 0.05,-0.11 0.05,-0.23 0,-0.33 -0.14,-0.34 -0.01,-0.64 0.16,-0.8 0.17,-0.17 0.46,-0.3 0.8,-0.16 0.22,0.09 0.48,-0.02 0.57,-0.24l0.41 -0.99c0.05,-0.11 0.05,-0.23 0,-0.34 -0.04,-0.11 -0.13,-0.2 -0.24,-0.24 -0.33,-0.14 -0.45,-0.44 -0.45,-0.68 0,-0.23 0.12,-0.53 0.45,-0.67 0.23,-0.1 0.33,-0.35 0.24,-0.58l-0.41 -0.99c-0.05,-0.11 -0.13,-0.19 -0.24,-0.24 -0.11,-0.04 -0.23,-0.04 -0.34,0 -0.33,0.14 -0.63,0.01 -0.8,-0.16 -0.16,-0.16 -0.29,-0.46 -0.16,-0.8 0.05,-0.1 0.05,-0.22 0,-0.33 -0.04,-0.11 -0.13,-0.19 -0.24,-0.24l-0.99 -0.41c-0.22,-0.09 -0.48,0.01 -0.57,0.24 -0.14,0.33 -0.44,0.45 -0.68,0.45 -0.24,0 -0.54,-0.12 -0.68,-0.45 -0.09,-0.22 -0.35,-0.33 -0.57,-0.24l-1 0.41c-0.1,0.05 -0.19,0.13 -0.23,0.24 -0.05,0.11 -0.05,0.23 0,0.34 0.13,0.33 0.01,0.63 -0.16,0.8 0,0 0,0 0,0 -0.17,0.17 -0.47,0.3 -0.8,0.16 -0.11,-0.05 -0.23,-0.05 -0.34,0 -0.11,0.04 -0.19,0.13 -0.23,0.24l-0.42 0.99c-0.04,0.11 -0.04,0.23 0.01,0.34 0.04,0.11 0.12,0.19 0.23,0.24 0.34,0.13 0.46,0.44 0.46,0.67 0,0.24 -0.12,0.54 -0.46,0.68 -0.22,0.09 -0.33,0.35 -0.23,0.57l0.41 1c0.04,0.11 0.13,0.19 0.24,0.24 0.11,0.04 0.23,0.04 0.34,0 0.33,-0.14 0.63,-0.01 0.79,0.15 0.17,0.17 0.3,0.47 0.16,0.8l0 0c-0.04,0.11 -0.04,0.23 0,0.34 0.05,0.11 0.13,0.19 0.24,0.24l1 0.41c0.1,0.04 0.22,0.04 0.33,0 0.11,-0.05 0.2,-0.13 0.24,-0.24 0.14,-0.34 0.44,-0.45 0.68,-0.46 0.23,0 0.54,0.12 0.67,0.46 0.1,0.22 0.36,0.33 0.58,0.23l0.99 -0.41c0.06,-0.02 0.11,-0.05 0.15,-0.09zm-0.07 -1.6c-0.34,0.35 -0.43,0.84 -0.25,1.29l-0.99 0.4c-0.18,-0.44 -0.6,-0.72 -1.08,-0.72 -0.49,0 -0.9,0.28 -1.09,0.73l-0.99 -0.41c0.19,-0.45 0.09,-0.94 -0.25,-1.28 -0.35,-0.34 -0.84,-0.44 -1.28,-0.25l-0.41 -1c0.44,-0.18 0.72,-0.59 0.72,-1.08 0,-0.48 -0.28,-0.9 -0.73,-1.08l0.42 -0.99c0.44,0.18 0.93,0.08 1.27,-0.26 0,0 0,0 0,0 0.34,-0.34 0.44,-0.83 0.26,-1.28l0.99 -0.41c0.18,0.45 0.6,0.72 1.08,0.72 0.48,0 0.9,-0.27 1.09,-0.72l0.99 0.41c-0.19,0.44 -0.09,0.93 0.25,1.28 0.34,0.34 0.83,0.44 1.28,0.25l0.41 0.99c-0.45,0.18 -0.72,0.6 -0.72,1.08 0,0.49 0.28,0.9 0.72,1.09l-0.41 0.99c-0.44,-0.19 -0.93,-0.09 -1.28,0.25z"/>
  <path class="fil1" d="M10.62 11.33c0.03,-0.03 0.05,-0.06 0.07,-0.1 0.03,-0.08 0.03,-0.17 0,-0.24 -0.1,-0.24 -0.01,-0.45 0.11,-0.57 0.12,-0.12 0.33,-0.21 0.57,-0.11 0.16,0.06 0.34,-0.01 0.4,-0.17l0.3 -0.71c0.03,-0.07 0.03,-0.16 0,-0.24 -0.04,-0.07 -0.1,-0.13 -0.17,-0.16 -0.24,-0.1 -0.33,-0.32 -0.33,-0.48 0,-0.17 0.09,-0.39 0.33,-0.49 0.15,-0.06 0.23,-0.24 0.16,-0.4l-0.29 -0.71c-0.03,-0.07 -0.09,-0.13 -0.17,-0.17 -0.08,-0.03 -0.16,-0.03 -0.24,0 -0.23,0.1 -0.44,0.01 -0.56,-0.11 -0.12,-0.12 -0.21,-0.33 -0.12,-0.56 0.03,-0.08 0.03,-0.17 0,-0.24 -0.03,-0.08 -0.09,-0.14 -0.17,-0.17l-0.7 -0.29c-0.16,-0.07 -0.34,0.01 -0.41,0.17 -0.1,0.23 -0.31,0.32 -0.48,0.32 -0.17,0 -0.38,-0.09 -0.48,-0.32 -0.07,-0.16 -0.25,-0.24 -0.41,-0.17l-0.7 0.29c-0.08,0.03 -0.14,0.09 -0.17,0.17 -0.03,0.08 -0.03,0.16 0,0.24 0.1,0.24 0.01,0.45 -0.11,0.57 0,0 0,0 0,0 -0.12,0.11 -0.33,0.21 -0.57,0.11 -0.08,-0.03 -0.16,-0.03 -0.24,0 -0.08,0.03 -0.14,0.09 -0.17,0.17l-0.29 0.7c-0.03,0.08 -0.03,0.17 0,0.24 0.03,0.08 0.09,0.14 0.17,0.17 0.24,0.1 0.32,0.31 0.32,0.48 0,0.17 -0.08,0.38 -0.32,0.48 -0.16,0.07 -0.23,0.25 -0.17,0.41l0.3 0.7c0.03,0.08 0.09,0.14 0.16,0.17 0.08,0.03 0.17,0.03 0.24,0 0.24,-0.1 0.45,0 0.57,0.12 0.12,0.11 0.21,0.32 0.11,0.56l0 0c-0.03,0.08 -0.03,0.16 0,0.24 0.04,0.08 0.1,0.14 0.17,0.17l0.71 0.29c0.08,0.03 0.16,0.03 0.24,0 0.07,-0.03 0.13,-0.09 0.17,-0.17 0.09,-0.24 0.31,-0.32 0.48,-0.32 0.16,0 0.38,0.08 0.48,0.32 0.06,0.16 0.25,0.23 0.4,0.17l0.71 -0.29c0.04,-0.02 0.07,-0.04 0.1,-0.07zm-0.04 -1.13c-0.25,0.24 -0.31,0.59 -0.18,0.91l-0.71 0.29c-0.12,-0.32 -0.42,-0.52 -0.76,-0.52 -0.35,0.01 -0.64,0.2 -0.77,0.52l-0.7 -0.29c0.13,-0.32 0.06,-0.67 -0.19,-0.91 -0.24,-0.24 -0.59,-0.31 -0.91,-0.18l-0.29 -0.7c0.32,-0.13 0.52,-0.43 0.52,-0.77 0,-0.34 -0.2,-0.64 -0.52,-0.77l0.29 -0.7c0.32,0.13 0.67,0.06 0.91,-0.18 0,0 0,0 0,0 0.24,-0.25 0.31,-0.59 0.18,-0.91l0.7 -0.29c0.13,0.31 0.43,0.51 0.77,0.51 0.34,0 0.64,-0.2 0.77,-0.51l0.7 0.29c-0.13,0.31 -0.06,0.66 0.18,0.9 0.25,0.25 0.6,0.32 0.91,0.18l0.29 0.71c-0.31,0.13 -0.51,0.42 -0.51,0.77 0,0.34 0.2,0.63 0.52,0.77l-0.3 0.7c-0.31,-0.13 -0.66,-0.06 -0.9,0.18z"/>
  <g id="_2201628904080">
   <path class="fil2" d="M10.1 9.72c0.65,-0.65 0.65,-1.7 0,-2.35 -0.65,-0.65 -1.71,-0.64 -2.35,0 -0.65,0.65 -0.65,1.71 0,2.35 0.65,0.65 1.7,0.65 2.35,0zm-2.04 -2.03c0.48,-0.48 1.25,-0.48 1.72,0 0.48,0.47 0.48,1.24 0.01,1.72 -0.48,0.47 -1.25,0.48 -1.73,0 -0.47,-0.47 -0.47,-1.25 0,-1.72z"/>
   <circle class="fil3" cx="8.92" cy="8.55" r="1.21"/>
  </g>
  <g id="_2201628903360">
   <path class="fil1" d="M23.46 12.4c-0.04,-0.04 -0.07,-0.08 -0.09,-0.14 -0.05,-0.11 -0.05,-0.23 0,-0.34 0.13,-0.33 0.01,-0.63 -0.16,-0.79 -0.17,-0.17 -0.47,-0.3 -0.8,-0.16 -0.22,0.09 -0.48,-0.02 -0.57,-0.24l-0.42 -1c-0.04,-0.11 -0.04,-0.23 0,-0.33 0.05,-0.11 0.13,-0.2 0.24,-0.24 0.34,-0.14 0.46,-0.44 0.46,-0.68 0,-0.23 -0.12,-0.54 -0.46,-0.68 -0.22,-0.09 -0.33,-0.35 -0.23,-0.57l0.41 -0.99c0.04,-0.11 0.13,-0.2 0.24,-0.24 0.11,-0.05 0.23,-0.05 0.33,0 0.34,0.14 0.64,0.01 0.8,-0.16 0.17,-0.17 0.3,-0.46 0.16,-0.8 -0.04,-0.11 -0.04,-0.23 0,-0.33 0.05,-0.11 0.13,-0.2 0.24,-0.24l1 -0.41c0.22,-0.09 0.48,0.01 0.57,0.24 0.14,0.33 0.44,0.45 0.68,0.45 0.23,0 0.54,-0.12 0.67,-0.45 0.1,-0.23 0.36,-0.33 0.58,-0.24l0.99 0.41c0.11,0.05 0.2,0.13 0.24,0.24 0.05,0.11 0.05,0.23 0,0.34 -0.14,0.33 -0.01,0.63 0.16,0.8 0,0 0,0 0,0 0.16,0.16 0.46,0.29 0.8,0.16 0.1,-0.05 0.22,-0.05 0.33,0 0.11,0.04 0.2,0.13 0.24,0.24l0.41 0.99c0.05,0.11 0.05,0.23 0,0.34 -0.04,0.1 -0.13,0.19 -0.24,0.23 -0.33,0.14 -0.45,0.44 -0.45,0.68 0,0.24 0.12,0.54 0.45,0.68 0.23,0.09 0.33,0.35 0.24,0.57l-0.41 1c-0.05,0.1 -0.13,0.19 -0.24,0.23 -0.11,0.05 -0.23,0.05 -0.34,0 -0.33,-0.14 -0.63,-0.01 -0.8,0.16 -0.16,0.17 -0.29,0.47 -0.16,0.8l0 0c0.05,0.11 0.05,0.23 0,0.34 -0.04,0.1 -0.13,0.19 -0.24,0.23l-0.99 0.41c-0.11,0.05 -0.23,0.05 -0.34,0 -0.11,-0.04 -0.19,-0.13 -0.23,-0.23 -0.14,-0.34 -0.44,-0.46 -0.68,-0.46 -0.24,0 -0.54,0.12 -0.68,0.45 -0.09,0.23 -0.35,0.34 -0.57,0.24l-1 -0.41c-0.05,-0.02 -0.1,-0.06 -0.14,-0.1zm0.06 -1.59c0.34,0.35 0.44,0.84 0.26,1.28l0.99 0.41c0.18,-0.44 0.6,-0.72 1.08,-0.72 0.48,0 0.9,0.28 1.09,0.73l0.98 -0.41c-0.18,-0.45 -0.08,-0.94 0.26,-1.28 0.34,-0.35 0.83,-0.44 1.28,-0.26l0.41 -0.99c-0.45,-0.18 -0.72,-0.6 -0.72,-1.08 0,-0.49 0.28,-0.9 0.72,-1.09l-0.41 -0.99c-0.44,0.19 -0.93,0.09 -1.28,-0.25 0,0 0,0 0,0 -0.34,-0.34 -0.44,-0.83 -0.25,-1.28l-0.99 -0.41c-0.18,0.45 -0.6,0.72 -1.08,0.72 -0.49,0 -0.9,-0.28 -1.09,-0.72l-0.99 0.41c0.19,0.44 0.09,0.93 -0.25,1.27 -0.35,0.35 -0.84,0.44 -1.28,0.26l-0.41 0.99c0.44,0.18 0.72,0.6 0.72,1.08 0,0.49 -0.28,0.9 -0.73,1.09l0.42 0.99c0.44,-0.19 0.93,-0.09 1.27,0.25z"/>
   <path class="fil1" d="M24.16 11.27c-0.03,-0.03 -0.06,-0.07 -0.07,-0.11 -0.03,-0.07 -0.03,-0.16 0,-0.23 0.1,-0.24 0,-0.45 -0.11,-0.57 -0.12,-0.12 -0.33,-0.21 -0.57,-0.11 -0.16,0.06 -0.34,-0.01 -0.41,-0.17l-0.29 -0.71c-0.03,-0.08 -0.03,-0.16 0,-0.24 0.03,-0.08 0.09,-0.14 0.17,-0.17 0.24,-0.09 0.32,-0.31 0.32,-0.48 0,-0.16 -0.08,-0.38 -0.32,-0.48 -0.16,-0.06 -0.23,-0.25 -0.17,-0.41l0.3 -0.7c0.03,-0.08 0.09,-0.14 0.16,-0.17 0.08,-0.03 0.17,-0.03 0.24,0 0.24,0.1 0.45,0.01 0.57,-0.11 0.12,-0.12 0.21,-0.33 0.11,-0.57 -0.03,-0.07 -0.03,-0.16 0,-0.24 0.04,-0.07 0.1,-0.13 0.17,-0.16l0.71 -0.3c0.16,-0.06 0.34,0.01 0.41,0.17 0.09,0.24 0.31,0.32 0.48,0.32 0.16,0 0.38,-0.08 0.48,-0.32 0.06,-0.15 0.25,-0.23 0.4,-0.16l0.71 0.29c0.08,0.03 0.14,0.09 0.17,0.17 0.03,0.07 0.03,0.16 0,0.24 -0.1,0.23 -0.01,0.44 0.11,0.56 0,0 0,0 0,0 0.12,0.12 0.33,0.21 0.57,0.12 0.07,-0.04 0.16,-0.04 0.24,0 0.07,0.03 0.13,0.09 0.16,0.17l0.3 0.7c0.03,0.08 0.03,0.16 0,0.24 -0.04,0.08 -0.1,0.14 -0.17,0.17 -0.24,0.1 -0.33,0.31 -0.33,0.48 0,0.17 0.09,0.38 0.33,0.48 0.15,0.07 0.23,0.25 0.16,0.41l-0.29 0.7c-0.03,0.08 -0.09,0.14 -0.17,0.17 -0.08,0.03 -0.16,0.03 -0.24,0 -0.23,-0.1 -0.45,-0.01 -0.56,0.11 -0.12,0.12 -0.21,0.33 -0.12,0.57l0 0c0.03,0.08 0.03,0.16 0,0.24 -0.03,0.08 -0.09,0.14 -0.17,0.17l-0.7 0.29c-0.08,0.03 -0.16,0.03 -0.24,0 -0.08,-0.03 -0.14,-0.09 -0.17,-0.17 -0.1,-0.24 -0.31,-0.32 -0.48,-0.32 -0.17,0 -0.38,0.08 -0.48,0.32 -0.07,0.16 -0.25,0.23 -0.41,0.17l-0.7 -0.3c-0.04,-0.01 -0.08,-0.04 -0.1,-0.06zm0.04 -1.13c0.24,0.24 0.31,0.59 0.18,0.91l0.7 0.29c0.13,-0.32 0.43,-0.52 0.77,-0.52 0.34,0 0.64,0.2 0.77,0.52l0.7 -0.29c-0.13,-0.32 -0.06,-0.67 0.18,-0.91 0.25,-0.24 0.6,-0.31 0.91,-0.18l0.29 -0.7c-0.31,-0.13 -0.51,-0.43 -0.51,-0.77 0,-0.35 0.2,-0.64 0.52,-0.77l-0.3 -0.7c-0.31,0.13 -0.66,0.06 -0.9,-0.18 0,0 0,0 0,0 -0.25,-0.25 -0.31,-0.6 -0.18,-0.91l-0.71 -0.29c-0.13,0.31 -0.42,0.51 -0.76,0.51 -0.35,0 -0.64,-0.2 -0.77,-0.52l-0.71 0.3c0.14,0.31 0.07,0.66 -0.18,0.9 -0.24,0.24 -0.59,0.31 -0.91,0.18l-0.29 0.71c0.32,0.12 0.52,0.42 0.52,0.76 0,0.35 -0.2,0.64 -0.52,0.77l0.29 0.71c0.32,-0.14 0.67,-0.07 0.91,0.18z"/>
   <path class="fil2" d="M27.03 9.66c0.65,-0.65 0.65,-1.7 0,-2.35 -0.65,-0.65 -1.71,-0.65 -2.35,0 -0.65,0.65 -0.65,1.71 0,2.35 0.65,0.65 1.7,0.65 2.35,0zm-2.04 -2.03c0.48,-0.48 1.25,-0.48 1.72,-0.01 0.48,0.48 0.48,1.25 0.01,1.73 -0.48,0.47 -1.25,0.47 -1.73,0 -0.47,-0.48 -0.47,-1.25 0,-1.72z"/>
   <circle class="fil4" cx="25.85" cy="8.49" r="1.21"/>
  </g>
  <path class="fil2" d="M18.58 13.16c0.65,-0.65 0.65,-1.7 0,-2.35 -0.65,-0.65 -1.7,-0.65 -2.35,0 -0.65,0.65 -0.65,1.71 0,2.35 0.65,0.65 1.7,0.65 2.35,0zm-2.04 -2.03c0.48,-0.48 1.25,-0.48 1.73,-0.01 0.47,0.48 0.47,1.25 0,1.73 -0.48,0.47 -1.25,0.47 -1.73,0 -0.47,-0.48 -0.47,-1.25 0,-1.72z"/>
  <circle class="fil5" cx="17.4" cy="11.99" r="1.21"/>
  <g id="_2201628914448">
   <rect class="fil6 str0" x="5.92" y="18.09" width="4.13" height="9.49"/>
   <path class="fil7" d="M16.89 28.19c-0.79,0 -1.57,-0.29 -2.33,-0.58 -0.84,-0.31 -1.7,-0.63 -2.55,-0.55l-2.11 0.19 0 -8.18 1.15 -0.1c0.71,-0.06 1.31,0.22 1.89,0.48 0.54,0.26 1.05,0.5 1.64,0.45l3.77 -0.69c1.36,-0.23 2.1,0.55 2.55,1.27l4.13 -1.92c1.55,-0.7 3.3,0 4.35,1.74 0.27,0.46 0.12,1.07 -0.35,1.35 -0.53,0.34 -1.06,0.67 -1.59,1 -4.6,2.89 -8.58,5.38 -10.28,5.53 -0.09,0 -0.18,0.01 -0.27,0.01zm-4.62 -1.71c0.87,0 1.69,0.31 2.49,0.6 0.82,0.31 1.6,0.6 2.35,0.53 1.57,-0.13 5.68,-2.71 10.03,-5.44 0.53,-0.33 1.06,-0.66 1.6,-1 0.2,-0.12 0.27,-0.38 0.15,-0.58 -0.89,-1.48 -2.35,-2.09 -3.63,-1.52l-4.58 2.13c-0.01,-0.29 -0.24,-0.64 -0.37,-0.79 -0.42,-0.5 -1.24,-0.75 -1.86,-0.64l-3.8 0.69c-0.76,0.06 -1.37,-0.22 -1.95,-0.49 -0.54,-0.25 -1.04,-0.49 -1.6,-0.44l-0.63 0.06 0 7.04 1.49 -0.13c0.1,-0.01 0.21,-0.02 0.31,-0.02z"/>
   <path class="fil8 str1" d="M9.51 28.19l-3.23 0c-0.53,0 -0.96,-0.43 -0.96,-0.96l0 -8.67c0,-0.53 0.43,-0.96 0.96,-0.96l3.23 0c0.53,0 0.96,0.43 0.96,0.96l0 8.67c0,0.53 -0.43,0.96 -0.96,0.96zm-3.23 -10.03c-0.22,0 -0.39,0.18 -0.39,0.4l0 8.67c0,0.22 0.17,0.39 0.39,0.39l3.23 0c0.21,0 0.39,-0.17 0.39,-0.39l0 -8.67c0,-0.22 -0.18,-0.4 -0.39,-0.4l-3.23 0z"/>
   <path class="fil9 str2" d="M20.9 21.06c0.07,0.13 0.07,0.36 -0.08,0.61 -0.25,0.39 -0.81,0.7 -2.16,0.54 -1.01,-0.12 -2.21,0.11 -3.26,0.23"/>
  </g>
  <g id="_2201372582960">
   <path class="fil2" d="M10.1 9.72c0.65,-0.65 0.65,-1.7 0,-2.35 -0.65,-0.65 -1.71,-0.64 -2.35,0 -0.65,0.65 -0.65,1.71 0,2.35 0.65,0.65 1.7,0.65 2.35,0zm-2.04 -2.03c0.48,-0.48 1.25,-0.48 1.72,0 0.48,0.47 0.48,1.24 0.01,1.72 -0.48,0.47 -1.25,0.48 -1.73,0 -0.47,-0.47 -0.47,-1.25 0,-1.72z"/>
   <circle class="fil3" cx="8.92" cy="8.55" r="1.21"/>
  </g>
  <g id="_2201372587472">
   <path class="fil1" d="M23.46 12.4c-0.04,-0.04 -0.07,-0.08 -0.09,-0.14 -0.05,-0.11 -0.05,-0.23 0,-0.34 0.13,-0.33 0.01,-0.63 -0.16,-0.79 -0.17,-0.17 -0.47,-0.3 -0.8,-0.16 -0.22,0.09 -0.48,-0.02 -0.57,-0.24l-0.42 -1c-0.04,-0.11 -0.04,-0.23 0,-0.33 0.05,-0.11 0.13,-0.2 0.24,-0.24 0.34,-0.14 0.46,-0.44 0.46,-0.68 0,-0.23 -0.12,-0.54 -0.46,-0.68 -0.22,-0.09 -0.33,-0.35 -0.23,-0.57l0.41 -0.99c0.04,-0.11 0.13,-0.2 0.24,-0.24 0.11,-0.05 0.23,-0.05 0.33,0 0.34,0.14 0.64,0.01 0.8,-0.16 0.17,-0.17 0.3,-0.46 0.16,-0.8 -0.04,-0.11 -0.04,-0.23 0,-0.33 0.05,-0.11 0.13,-0.2 0.24,-0.24l1 -0.41c0.22,-0.09 0.48,0.01 0.57,0.24 0.14,0.33 0.44,0.45 0.68,0.45 0.23,0 0.54,-0.12 0.67,-0.45 0.1,-0.23 0.36,-0.33 0.58,-0.24l0.99 0.41c0.11,0.05 0.2,0.13 0.24,0.24 0.05,0.11 0.05,0.23 0,0.34 -0.14,0.33 -0.01,0.63 0.16,0.8 0,0 0,0 0,0 0.16,0.16 0.46,0.29 0.8,0.16 0.1,-0.05 0.22,-0.05 0.33,0 0.11,0.04 0.2,0.13 0.24,0.24l0.41 0.99c0.05,0.11 0.05,0.23 0,0.34 -0.04,0.1 -0.13,0.19 -0.24,0.23 -0.33,0.14 -0.45,0.44 -0.45,0.68 0,0.24 0.12,0.54 0.45,0.68 0.23,0.09 0.33,0.35 0.24,0.57l-0.41 1c-0.05,0.1 -0.13,0.19 -0.24,0.23 -0.11,0.05 -0.23,0.05 -0.34,0 -0.33,-0.14 -0.63,-0.01 -0.8,0.16 -0.16,0.17 -0.29,0.47 -0.16,0.8l0 0c0.05,0.11 0.05,0.23 0,0.34 -0.04,0.1 -0.13,0.19 -0.24,0.23l-0.99 0.41c-0.11,0.05 -0.23,0.05 -0.34,0 -0.11,-0.04 -0.19,-0.13 -0.23,-0.23 -0.14,-0.34 -0.44,-0.46 -0.68,-0.46 -0.24,0 -0.54,0.12 -0.68,0.45 -0.09,0.23 -0.35,0.34 -0.57,0.24l-1 -0.41c-0.05,-0.02 -0.1,-0.06 -0.14,-0.1zm0.06 -1.59c0.34,0.35 0.44,0.84 0.26,1.28l0.99 0.41c0.18,-0.44 0.6,-0.72 1.08,-0.72 0.48,0 0.9,0.28 1.09,0.73l0.98 -0.41c-0.18,-0.45 -0.08,-0.94 0.26,-1.28 0.34,-0.35 0.83,-0.44 1.28,-0.26l0.41 -0.99c-0.45,-0.18 -0.72,-0.6 -0.72,-1.08 0,-0.49 0.28,-0.9 0.72,-1.09l-0.41 -0.99c-0.44,0.19 -0.93,0.09 -1.28,-0.25 0,0 0,0 0,0 -0.34,-0.34 -0.44,-0.83 -0.25,-1.28l-0.99 -0.41c-0.18,0.45 -0.6,0.72 -1.08,0.72 -0.49,0 -0.9,-0.28 -1.09,-0.72l-0.99 0.41c0.19,0.44 0.09,0.93 -0.25,1.27 -0.35,0.35 -0.84,0.44 -1.28,0.26l-0.41 0.99c0.44,0.18 0.72,0.6 0.72,1.08 0,0.49 -0.28,0.9 -0.73,1.09l0.42 0.99c0.44,-0.19 0.93,-0.09 1.27,0.25z"/>
   <path class="fil1" d="M24.16 11.27c-0.03,-0.03 -0.06,-0.07 -0.07,-0.11 -0.03,-0.07 -0.03,-0.16 0,-0.23 0.1,-0.24 0,-0.45 -0.11,-0.57 -0.12,-0.12 -0.33,-0.21 -0.57,-0.11 -0.16,0.06 -0.34,-0.01 -0.41,-0.17l-0.29 -0.71c-0.03,-0.08 -0.03,-0.16 0,-0.24 0.03,-0.08 0.09,-0.14 0.17,-0.17 0.24,-0.09 0.32,-0.31 0.32,-0.48 0,-0.16 -0.08,-0.38 -0.32,-0.48 -0.16,-0.06 -0.23,-0.25 -0.17,-0.41l0.3 -0.7c0.03,-0.08 0.09,-0.14 0.16,-0.17 0.08,-0.03 0.17,-0.03 0.24,0 0.24,0.1 0.45,0.01 0.57,-0.11 0.12,-0.12 0.21,-0.33 0.11,-0.57 -0.03,-0.07 -0.03,-0.16 0,-0.24 0.04,-0.07 0.1,-0.13 0.17,-0.16l0.71 -0.3c0.16,-0.06 0.34,0.01 0.41,0.17 0.09,0.24 0.31,0.32 0.48,0.32 0.16,0 0.38,-0.08 0.48,-0.32 0.06,-0.15 0.25,-0.23 0.4,-0.16l0.71 0.29c0.08,0.03 0.14,0.09 0.17,0.17 0.03,0.07 0.03,0.16 0,0.24 -0.1,0.23 -0.01,0.44 0.11,0.56 0,0 0,0 0,0 0.12,0.12 0.33,0.21 0.57,0.12 0.07,-0.04 0.16,-0.04 0.24,0 0.07,0.03 0.13,0.09 0.16,0.17l0.3 0.7c0.03,0.08 0.03,0.16 0,0.24 -0.04,0.08 -0.1,0.14 -0.17,0.17 -0.24,0.1 -0.33,0.31 -0.33,0.48 0,0.17 0.09,0.38 0.33,0.48 0.15,0.07 0.23,0.25 0.16,0.41l-0.29 0.7c-0.03,0.08 -0.09,0.14 -0.17,0.17 -0.08,0.03 -0.16,0.03 -0.24,0 -0.23,-0.1 -0.45,-0.01 -0.56,0.11 -0.12,0.12 -0.21,0.33 -0.12,0.57l0 0c0.03,0.08 0.03,0.16 0,0.24 -0.03,0.08 -0.09,0.14 -0.17,0.17l-0.7 0.29c-0.08,0.03 -0.16,0.03 -0.24,0 -0.08,-0.03 -0.14,-0.09 -0.17,-0.17 -0.1,-0.24 -0.31,-0.32 -0.48,-0.32 -0.17,0 -0.38,0.08 -0.48,0.32 -0.07,0.16 -0.25,0.23 -0.41,0.17l-0.7 -0.3c-0.04,-0.01 -0.08,-0.04 -0.1,-0.06zm0.04 -1.13c0.24,0.24 0.31,0.59 0.18,0.91l0.7 0.29c0.13,-0.32 0.43,-0.52 0.77,-0.52 0.34,0 0.64,0.2 0.77,0.52l0.7 -0.29c-0.13,-0.32 -0.06,-0.67 0.18,-0.91 0.25,-0.24 0.6,-0.31 0.91,-0.18l0.29 -0.7c-0.31,-0.13 -0.51,-0.43 -0.51,-0.77 0,-0.35 0.2,-0.64 0.52,-0.77l-0.3 -0.7c-0.31,0.13 -0.66,0.06 -0.9,-0.18 0,0 0,0 0,0 -0.25,-0.25 -0.31,-0.6 -0.18,-0.91l-0.71 -0.29c-0.13,0.31 -0.42,0.51 -0.76,0.51 -0.35,0 -0.64,-0.2 -0.77,-0.52l-0.71 0.3c0.14,0.31 0.07,0.66 -0.18,0.9 -0.24,0.24 -0.59,0.31 -0.91,0.18l-0.29 0.71c0.32,0.12 0.52,0.42 0.52,0.76 0,0.35 -0.2,0.64 -0.52,0.77l0.29 0.71c0.32,-0.14 0.67,-0.07 0.91,0.18z"/>
   <path class="fil2" d="M27.03 9.66c0.65,-0.65 0.65,-1.7 0,-2.35 -0.65,-0.65 -1.71,-0.65 -2.35,0 -0.65,0.65 -0.65,1.71 0,2.35 0.65,0.65 1.7,0.65 2.35,0zm-2.04 -2.03c0.48,-0.48 1.25,-0.48 1.72,-0.01 0.48,0.48 0.48,1.25 0.01,1.73 -0.48,0.47 -1.25,0.47 -1.73,0 -0.47,-0.48 -0.47,-1.25 0,-1.72z"/>
   <circle class="fil4" cx="25.85" cy="8.49" r="1.21"/>
  </g>
  <circle class="fil5" cx="17.4" cy="11.99" r="1.21"/>
  <path class="fil9 str3" d="M2.49 1.1l28.16 0c0.74,0 1.35,0.69 1.35,1.55l0 27.77c0,0.85 -0.61,1.55 -1.35,1.55l-28.16 0c-0.75,0 -1.36,-0.7 -1.36,-1.55 0,-3.34 -0.05,-26.9 -0.02,-28.11 0.01,-0.67 0.82,-1.21 1.38,-1.21z"/>
 </g>
</svg>
