<?xml version="1.0" encoding="UTF-8"?>
<!DOCTYPE svg PUBLIC "-//W3C//DTD SVG 1.1//EN" "http://www.w3.org/Graphics/SVG/1.1/DTD/svg11.dtd">
<!-- Creator: CorelDRAW 2021 (64 Bit) -->
<svg xmlns="http://www.w3.org/2000/svg" xml:space="preserve" width="752px" height="752px" version="1.1" style="shape-rendering:geometricPrecision; text-rendering:geometricPrecision; image-rendering:optimizeQuality; fill-rule:evenodd; clip-rule:evenodd"
viewBox="0 0 24.1 24.08"
 xmlns:xlink="http://www.w3.org/1999/xlink"
 xmlns:xodm="http://www.corel.com/coreldraw/odm/2003">
 <defs>
  <style type="text/css">
   <![CDATA[
    .str0 {stroke:#B8B4B6;stroke-width:1.6;stroke-miterlimit:22.9256}
    .str2 {stroke:black;stroke-width:0.16;stroke-miterlimit:22.9256}
    .str1 {stroke:#A3A3A3;stroke-width:1.12;stroke-miterlimit:22.9256}
    .fil1 {fill:none}
    .fil2 {fill:black}
    .fil0 {fill:snow}
   ]]>
  </style>
 </defs>
 <g id="Camada_x0020_1">
  <metadata id="CorelCorpID_0Corel-Layer"/>
  <g id="_2237749081440">
   <path class="fil0 str0" d="M1.81 0.8l20.5 0c0.55,0 0.99,0.51 0.99,1.13l0 20.22c0,0.62 -0.44,1.13 -0.99,1.13l-20.5 0c-0.54,0 -0.99,-0.51 -0.99,-1.13 0,-2.43 -0.03,-19.59 -0.02,-20.47 0.01,-0.48 0.6,-0.88 1.01,-0.88z"/>
   <circle class="fil1 str1" cx="12.05" cy="12.04" r="8.01"/>
   <g>
    <rect class="fil2 str2" x="7.17" y="7.22" width="9.7" height="1.22" rx="1.19" ry="1.19"/>
    <rect class="fil2 str2" x="7.17" y="10.05" width="9.7" height="1.22" rx="1.19" ry="1.19"/>
    <rect class="fil2 str2" x="7.17" y="12.88" width="9.7" height="1.22" rx="1.19" ry="1.19"/>
    <rect class="fil2 str2" x="7.17" y="15.7" width="9.7" height="1.22" rx="1.19" ry="1.19"/>
   </g>
  </g>
 </g>
</svg>
