<?xml version="1.0" encoding="UTF-8"?>
<!DOCTYPE svg PUBLIC "-//W3C//DTD SVG 1.1//EN" "http://www.w3.org/Graphics/SVG/1.1/DTD/svg11.dtd">
<!-- Creator: CorelDRAW 2021 (64 Bit) -->
<svg xmlns="http://www.w3.org/2000/svg" xml:space="preserve" width="63.6986mm" height="63.6356mm" version="1.1" style="shape-rendering:geometricPrecision; text-rendering:geometricPrecision; image-rendering:optimizeQuality; fill-rule:evenodd; clip-rule:evenodd"
viewBox="0 0 425.56 425.14"
 xmlns:xlink="http://www.w3.org/1999/xlink"
 xmlns:xodm="http://www.corel.com/coreldraw/odm/2003">
 <defs>
  <style type="text/css">
   <![CDATA[
    .str5 {stroke:#0D00FF;stroke-width:11.31;stroke-miterlimit:22.9256}
    .str2 {stroke:red;stroke-width:22.63;stroke-miterlimit:22.9256}
    .str1 {stroke:red;stroke-width:22.63;stroke-miterlimit:22.9256}
    .str0 {stroke:#B8B4B6;stroke-width:28.28;stroke-miterlimit:22.9256}
    .str4 {stroke:#00FF32;stroke-width:2.83;stroke-miterlimit:22.9256}
    .str3 {stroke:#373435;stroke-width:0.51;stroke-miterlimit:22.9256}
    .fil2 {fill:none}
    .fil3 {fill:#373435}
    .fil1 {fill:#FFF212}
    .fil4 {fill:#00FF32}
    .fil0 {fill:snow}
   ]]>
  </style>
 </defs>
 <g id="Camada_x0020_1">
  <metadata id="CorelCorpID_0Corel-Layer"/>
  <path class="fil0 str0" d="M31.98 14.14l362.03 0c9.62,-0 17.42,8.9 17.42,19.88l0 357.1c0,10.98 -7.8,19.88 -17.42,19.88l-362.03 0c-9.62,-0 -17.41,-8.9 -17.41,-19.88 0,-42.9 -0.63,-345.86 -0.35,-361.41 0.15,-8.59 10.59,-15.57 17.77,-15.57z"/>
  <g id="_1324617961808">
   <g>
    <ellipse class="fil1 str1" cx="212.78" cy="212.57" rx="165.48" ry="162.03"/>
    <line class="fil2 str2" x1="99.52" y1="336.62" x2="318.96" y2= "94.13" />
    <line class="fil2 str2" x1="343.29" y1="309.03" x2="75.19" y2= "121.72" />
   </g>
   <g>
    <g>
     <g>
      <path class="fil3 str3" d="M78.05 265.48c5.88,-6.23 8.65,-7.77 17.38,-11.08 13.74,-5.2 41.48,-12.3 48.52,3.64 1.17,2.66 1.16,6.05 1.57,9.47 7.38,-3.86 17.67,-12.05 26.65,-10.67 5.94,0.91 10.26,5.09 10.63,9.99 0.07,0.97 -0.54,8.45 -0.94,11.1 4.58,-0.07 13.36,-2.66 15.55,-3.71 9.6,-4.64 18.13,-14.48 31.9,-14.36 4.17,0.04 3.42,0.23 7.02,2.11 -5.54,3.01 -0.82,0.64 -5.8,2.71 -8.9,3.69 -13.14,9.89 -19.4,15.73 -7.52,7.03 -22.87,14.46 -35.02,12.91 -8.36,-1.06 -12.19,-4.97 -14.05,-9.85 -6.88,4.32 -14.69,7.87 -22.43,7.94 -12.54,0.1 -18.47,-7.92 -21.63,-16.58 -4.11,1.34 -8.26,3.07 -11.42,5.09 -0.06,0.07 -0.13,0.14 -0.19,0.22 0.03,-0.04 0.05,-0.09 0.09,-0.15 -0.27,0.17 -0.53,0.35 -0.78,0.52 0.28,-0.08 0.42,-0.12 0.51,-0.17 -4.97,5.28 -14.09,6.97 -21.49,3.68 -8.16,-3.63 -11.14,-11.92 -6.66,-18.53zm62.82 3.86c-0.39,0.01 -0.8,0.04 -1.25,0.11 0.39,0.01 0.81,-0.03 1.25,-0.11zm39.99 8.58c-0.35,-0.19 -0.73,-0.32 -1.08,-0.23 0.29,0.11 0.65,0.19 1.08,0.23zm-65.6 -13.48c-0.04,-0.19 -0.07,-0.39 -0.11,-0.58 0.03,0.2 0.07,0.39 0.11,0.58zm-9.06 15.9c0.08,-0.04 0.12,-0.1 0.18,-0.2 -0.06,0.07 -0.12,0.13 -0.18,0.2z"/>
     </g>
     <path class="fil2" d="M92.82 272.05c3.5,-5.17 36.46,-16.41 37.22,-9.23 2.62,24.51 12.4,20.53 35.47,5.25 17.03,-11.28 -13,31.22 33.02,13.02 9.94,-3.93 19.72,-20.36 37.81,-19.1"/>
    </g>
    <g>
     <rect class="fil4 str4" transform="matrix(0.719585 0.668102 -0.668102 0.719585 323.289 141.518)" width="14.88" height="106.89"/>
     <g>
      <polyline class="fil2 str5" points="238.6,254.32 261.3,226.37 271.28,227.11 327.55,166.8 337.54,148.42 325.74,141.8 304.86,154.3 248.59,216.81 261.3,226.37 "/>
      <polyline class="fil2 str5" points="254.94,221.59 245.06,233.31 230.43,250.65 228.96,258.17 238.6,254.32 "/>
     </g>
    </g>
   </g>
  </g>
 </g>
</svg>
