<?xml version="1.0" encoding="UTF-8"?>
<!DOCTYPE svg PUBLIC "-//W3C//DTD SVG 1.1//EN" "http://www.w3.org/Graphics/SVG/1.1/DTD/svg11.dtd">
<!-- Creator: CorelDRAW 2021 (64 Bit) -->
<svg xmlns="http://www.w3.org/2000/svg" xml:space="preserve" width="752px" height="752px" version="1.1" style="shape-rendering:geometricPrecision; text-rendering:geometricPrecision; image-rendering:optimizeQuality; fill-rule:evenodd; clip-rule:evenodd"
viewBox="0 0 46.76 46.71"
 xmlns:xlink="http://www.w3.org/1999/xlink"
 xmlns:xodm="http://www.corel.com/coreldraw/odm/2003">
 <defs>
  <style type="text/css">
   <![CDATA[
    .str3 {stroke:black;stroke-width:0.62;stroke-miterlimit:22.9256}
    .str0 {stroke:#B8B4B6;stroke-width:3.11;stroke-miterlimit:22.9256}
    .str2 {stroke:red;stroke-width:2.8;stroke-miterlimit:22.9256}
    .str1 {stroke:red;stroke-width:2.8;stroke-miterlimit:22.9256}
    .fil2 {fill:none}
    .fil3 {fill:black}
    .fil4 {fill:red}
    .fil0 {fill:white}
    .fil1 {fill:white}
   ]]>
  </style>
 </defs>
 <g id="Camada_x0020_1_0">
  <metadata id="CorelCorpID_0Corel-Layer"/>
  <g id="_2525842818656">
   <path class="fil0 str0" d="M3.51 1.55l39.78 0c1.06,0 1.91,0.98 1.91,2.19l0 39.23c0,1.21 -0.85,2.19 -1.91,2.19l-39.78 0c-1.05,0 -1.91,-0.98 -1.91,-2.19 0,-4.71 -0.07,-38 -0.04,-39.71 0.02,-0.94 1.16,-1.71 1.95,-1.71z"/>
   <g>
    <g>
     <ellipse class="fil1 str1" cx="23.38" cy="23.36" rx="17.65" ry="17.28"/>
     <line class="fil2 str2" x1="11.95" y1="36.53" x2="35.36" y2= "10.66" />
    </g>
    <g>
     <path class="fil3 str3" d="M27.61 23.85c0.1,-0.09 1.22,-0.54 1.38,-0.57 0.18,0.53 0.76,1.01 1.52,0.99 1.05,-0.01 1.27,-0.72 1.5,-0.99 0.14,0.03 1.29,0.51 1.35,0.57 -0.22,0.79 -0.1,1.3 0.38,1.77 0.19,0.19 0.42,0.35 0.77,0.43 0.43,0.11 0.62,0.02 1.01,-0.07l0.56 1.38c-1.51,0.6 -1.15,2.66 0.01,3l-0.59 1.38c-0.41,-0.09 -0.6,-0.19 -1.06,-0.06 -0.3,0.09 -0.59,0.28 -0.74,0.45 -0.14,0.15 -0.34,0.46 -0.41,0.76 -0.1,0.45 0,0.63 0.08,1l-1.36 0.55c-0.1,-0.14 -0.14,-0.26 -0.25,-0.39 -0.62,-0.8 -2,-0.79 -2.57,0.05 -0.07,0.11 -0.16,0.28 -0.23,0.36l-1.35 -0.56c0.21,-0.81 0.11,-1.32 -0.37,-1.79 -0.18,-0.17 -0.42,-0.35 -0.74,-0.43 -0.46,-0.12 -0.65,-0.02 -1.04,0.07l-0.56 -1.36c0.19,-0.17 0.99,-0.44 1,-1.52 0,-0.38 -0.12,-0.72 -0.31,-0.96 -0.11,-0.15 -0.18,-0.21 -0.31,-0.32 -0.13,-0.11 -0.27,-0.15 -0.39,-0.25l0.57 -1.36c1.07,0.32 1.96,-0.16 2.21,-1.09 0.11,-0.43 0.03,-0.66 -0.06,-1.04zm1.24 -1.18c-0.38,0.1 -0.95,0.37 -1.33,0.54 -0.25,0.1 -0.42,0.17 -0.51,0.42 -0.11,0.33 0.09,0.5 0.09,0.82 0.01,0.53 -0.4,0.95 -0.85,1.02 -0.4,0.07 -0.53,-0.12 -0.82,-0.1 -0.3,0.01 -0.46,0.18 -0.56,0.41 -0.18,0.44 -0.35,0.86 -0.54,1.3 -0.29,0.73 0.5,0.88 0.69,1.09 0.33,0.37 0.35,0.95 0.02,1.37 -0.21,0.26 -0.98,0.37 -0.72,1.07 0.16,0.43 0.36,0.89 0.54,1.31 0.35,0.79 0.86,0.31 1.29,0.33 0.49,0.03 0.9,0.42 0.95,0.89 0.05,0.37 -0.12,0.5 -0.11,0.79 0.01,0.3 0.19,0.45 0.4,0.54 0.43,0.19 0.87,0.37 1.31,0.54 0.25,0.1 0.55,0.06 0.71,-0.09 0.11,-0.09 0.21,-0.41 0.38,-0.57 0.35,-0.33 0.99,-0.38 1.38,-0.03 0.25,0.24 0.41,0.96 1.08,0.71 0.42,-0.16 0.87,-0.36 1.3,-0.54 0.77,-0.33 0.3,-0.89 0.32,-1.29 0.03,-0.5 0.43,-0.9 0.91,-0.95 0.41,-0.05 1,0.42 1.32,-0.3 0.19,-0.42 0.37,-0.87 0.54,-1.31 0.29,-0.72 -0.49,-0.88 -0.66,-1.06 -0.33,-0.34 -0.37,-0.92 -0.07,-1.35 0.22,-0.33 0.98,-0.39 0.75,-1.09l-0.54 -1.3c-0.33,-0.81 -0.84,-0.36 -1.25,-0.36 -0.52,-0.01 -0.92,-0.4 -0.99,-0.86 -0.08,-0.46 0.42,-1.04 -0.27,-1.35 -0.43,-0.2 -0.87,-0.37 -1.31,-0.54 -0.75,-0.32 -0.89,0.42 -1.08,0.61 -0.46,0.46 -1.21,0.41 -1.58,-0.11 -0.1,-0.16 -0.26,-0.69 -0.79,-0.56z"/>
     <path class="fil4" d="M28.12 29.19c0.18,1.2 1.25,2.24 2.69,2.04 1.19,-0.16 2.24,-1.27 2.05,-2.7 -0.17,-1.19 -1.28,-2.23 -2.69,-2.03 -1.19,0.16 -2.26,1.28 -2.05,2.69z"/>
     <path class="fil3 str3" d="M28.12 29.19c-0.21,-1.41 0.86,-2.53 2.05,-2.69 1.41,-0.2 2.52,0.84 2.69,2.03 0.19,1.43 -0.86,2.54 -2.05,2.7 -1.44,0.2 -2.51,-0.84 -2.69,-2.04zm2.05 -3.57c-1.83,0.2 -3.12,1.79 -2.92,3.6 0.17,1.68 1.68,3.1 3.61,2.88 1.66,-0.18 3.08,-1.67 2.87,-3.58 -0.18,-1.67 -1.65,-3.1 -3.56,-2.9z"/>
    </g>
    <g>
     <path class="fil3 str3" d="M14.3 12.07c0.11,-0.09 1.23,-0.54 1.38,-0.58 0.19,0.53 0.77,1.02 1.53,1 1.05,-0.02 1.27,-0.72 1.5,-1 0.14,0.04 1.29,0.52 1.35,0.58 -0.22,0.79 -0.1,1.3 0.38,1.77 0.19,0.18 0.42,0.35 0.77,0.43 0.43,0.11 0.62,0.02 1.01,-0.07l0.55 1.38c-1.5,0.6 -1.14,2.66 0.02,3l-0.59 1.37c-0.41,-0.08 -0.6,-0.18 -1.06,-0.05 -0.3,0.09 -0.59,0.28 -0.74,0.44 -0.14,0.16 -0.34,0.47 -0.41,0.77 -0.1,0.45 -0.01,0.63 0.08,1l-1.36 0.55c-0.1,-0.15 -0.14,-0.26 -0.25,-0.4 -0.62,-0.79 -2,-0.78 -2.57,0.06 -0.07,0.1 -0.17,0.28 -0.23,0.35l-1.35 -0.55c0.21,-0.81 0.11,-1.32 -0.37,-1.79 -0.18,-0.17 -0.42,-0.35 -0.74,-0.43 -0.46,-0.12 -0.65,-0.02 -1.05,0.07l-0.55 -1.36c0.18,-0.17 0.99,-0.44 1,-1.52 0,-0.38 -0.13,-0.72 -0.31,-0.96 -0.12,-0.15 -0.18,-0.21 -0.31,-0.32 -0.13,-0.11 -0.27,-0.15 -0.39,-0.25l0.56 -1.36c1.08,0.31 1.97,-0.16 2.22,-1.1 0.11,-0.42 0.03,-0.65 -0.07,-1.03zm1.25 -1.18c-0.38,0.1 -0.95,0.37 -1.34,0.53 -0.24,0.11 -0.41,0.18 -0.5,0.42 -0.12,0.34 0.09,0.5 0.09,0.83 0.01,0.53 -0.4,0.95 -0.85,1.02 -0.4,0.07 -0.53,-0.12 -0.83,-0.11 -0.29,0.02 -0.45,0.19 -0.55,0.42 -0.18,0.44 -0.36,0.86 -0.54,1.3 -0.29,0.73 0.5,0.88 0.69,1.09 0.33,0.37 0.35,0.95 0.02,1.37 -0.21,0.26 -0.98,0.37 -0.72,1.07 0.15,0.43 0.36,0.89 0.54,1.31 0.34,0.78 0.86,0.31 1.29,0.33 0.49,0.03 0.9,0.42 0.95,0.89 0.05,0.37 -0.13,0.5 -0.11,0.79 0.01,0.3 0.19,0.45 0.4,0.54 0.43,0.19 0.87,0.36 1.31,0.54 0.25,0.1 0.54,0.06 0.71,-0.09 0.11,-0.09 0.21,-0.41 0.38,-0.57 0.35,-0.33 0.99,-0.38 1.37,-0.03 0.26,0.24 0.42,0.96 1.08,0.71 0.43,-0.16 0.88,-0.36 1.31,-0.55 0.76,-0.32 0.3,-0.88 0.32,-1.29 0.03,-0.49 0.43,-0.89 0.9,-0.95 0.42,-0.04 1.01,0.43 1.33,-0.29 0.19,-0.42 0.37,-0.87 0.54,-1.31 0.29,-0.72 -0.49,-0.88 -0.67,-1.06 -0.33,-0.35 -0.36,-0.92 -0.07,-1.36 0.23,-0.32 0.99,-0.38 0.76,-1.08l-0.54 -1.31c-0.33,-0.8 -0.84,-0.35 -1.25,-0.35 -0.52,-0.01 -0.92,-0.4 -1,-0.86 -0.07,-0.46 0.43,-1.04 -0.26,-1.36 -0.43,-0.19 -0.87,-0.36 -1.31,-0.54 -0.76,-0.31 -0.89,0.43 -1.09,0.62 -0.45,0.46 -1.2,0.41 -1.57,-0.12 -0.11,-0.15 -0.26,-0.68 -0.79,-0.55z"/>
     <path class="fil4" d="M14.82 17.41c0.18,1.19 1.25,2.24 2.69,2.04 1.19,-0.16 2.24,-1.27 2.05,-2.7 -0.17,-1.19 -1.28,-2.23 -2.7,-2.04 -1.18,0.17 -2.26,1.29 -2.04,2.7z"/>
     <path class="fil3 str3" d="M14.82 17.41c-0.22,-1.41 0.86,-2.53 2.04,-2.7 1.42,-0.19 2.53,0.85 2.7,2.04 0.19,1.43 -0.86,2.54 -2.05,2.7 -1.44,0.2 -2.51,-0.85 -2.69,-2.04zm2.05 -3.57c-1.83,0.2 -3.12,1.79 -2.93,3.6 0.18,1.68 1.69,3.1 3.62,2.88 1.65,-0.18 3.07,-1.68 2.87,-3.58 -0.18,-1.67 -1.65,-3.1 -3.56,-2.9z"/>
    </g>
   </g>
  </g>
 </g>
</svg>
