<?xml version="1.0" encoding="UTF-8"?>
<!DOCTYPE svg PUBLIC "-//W3C//DTD SVG 1.1//EN" "http://www.w3.org/Graphics/SVG/1.1/DTD/svg11.dtd">
<!-- Creator: CorelDRAW 2021 (64 Bit) -->
<svg xmlns="http://www.w3.org/2000/svg" xml:space="preserve" width="139.107mm" height="139.107mm" version="1.1" style="shape-rendering:geometricPrecision; text-rendering:geometricPrecision; image-rendering:optimizeQuality; fill-rule:evenodd; clip-rule:evenodd"
viewBox="0 0 992.77 992.77"
 xmlns:xlink="http://www.w3.org/1999/xlink"
 xmlns:xodm="http://www.corel.com/coreldraw/odm/2003">
 <defs>
  <style type="text/css">
   <![CDATA[
    .str2 {stroke:#00FF48;stroke-width:12.08;stroke-miterlimit:22.9256}
    .str4 {stroke:red;stroke-width:12.08;stroke-miterlimit:22.9256}
    .str0 {stroke:#91D8F7;stroke-width:30.21;stroke-miterlimit:22.9256}
    .str1 {stroke:#06FCEC;stroke-width:30.21;stroke-miterlimit:22.9256}
    .str3 {stroke:white;stroke-width:3.02;stroke-miterlimit:22.9256}
    .fil2 {fill:none}
    .fil3 {fill:#0040FF}
    .fil4 {fill:#00FFEE}
    .fil0 {fill:#1C8BD3}
    .fil5 {fill:yellow}
    .fil1 {fill:white}
   ]]>
  </style>
 </defs>
 <g id="Camada_x0020_1">
  <metadata id="CorelCorpID_0Corel-Layer"/>
  <g id="_1388657587232">
   <circle class="fil0 str0" cx="496.39" cy="496.39" r="481.28"/>
   <g>
    <path class="fil1 str1" d="M229.21 550.78l503.99 -1.04c162.27,-41.89 126.22,-262.63 -49.35,-256.12 18.18,-216.71 -236.3,-260.55 -319.87,-89.25 -71.31,-40.97 -142.11,17.99 -125.13,91.01 -161.16,53.19 -137.68,227.66 -9.63,255.4z"/>
    <path class="fil2 str1" d="M491.27 393.62c14.68,-72.42 81.45,-103.72 192.58,-99.99"/>
   </g>
   <g>
    <g>
     <path class="fil2 str2" d="M347.48 641.72l0 -39.77 116.58 0.05c0.46,14.21 12.63,28.54 28.72,28.75 14.43,-0.27 27.69,-10.9 27.62,-28.73l113.51 0.05 1.02 41.72"/>
     <path class="fil2 str2" d="M464.05 602c0.65,-37.32 54.9,-36.44 56.34,0.03"/>
     <line class="fil2 str2" x1="491.27" y1="550.73" x2="491.44" y2= "574.34" />
    </g>
    <g>
     <g>
      <path class="fil3" d="M588.49 383.16c-25.13,47.38 -166.68,55.04 -198.75,1.6l0.39 83.79c36.29,46.61 175.05,44.51 200.29,-0.83l-1.94 -84.55z"/>
      <path class="fil1 str3" d="M584.04 473.38c-23.33,26.53 -154.77,30.82 -184.55,0.89l0.37 46.92c32.48,34.62 161.49,32.34 185.98,-0.46l-1.8 -47.35z"/>
     </g>
     <g>
      <ellipse class="fil1 str3" cx="489.3" cy="376.15" rx="95.48" ry="45.66"/>
      <g>
       <path class="fil2 str4" d="M390.92 371.52l0.65 137.82c19.16,51.71 179.45,52.14 200.59,-2.2l-0.55 -133.05c-17.4,-55.28 -172.01,-60.03 -200.69,-2.57z"/>
       <path class="fil2 str4" d="M390.04 380.02c16.79,55.13 185.06,56.55 200.16,-0.7"/>
      </g>
     </g>
    </g>
    <g>
     <g>
      <path class="fil4" d="M447.23 688.36c-25.16,47.38 -166.93,55.04 -199.05,1.6l0.4 83.79c36.34,46.61 175.31,44.51 200.6,-0.83l-1.94 -84.55z"/>
      <path class="fil1 str3" d="M442.77 778.58c-23.37,26.53 -155.01,30.82 -184.83,0.89l0.37 46.92c32.53,34.62 161.73,32.34 186.27,-0.46l-1.8 -47.35z"/>
      <path class="fil1 str3" d="M442.77 778.58c-23.37,26.53 -155.01,30.82 -184.83,0.89l0.37 46.92c32.53,34.62 161.73,32.34 186.27,-0.46l-1.8 -47.35z"/>
     </g>
     <g>
      <ellipse class="fil1 str3" cx="346.43" cy="684.99" rx="95.63" ry="45.66"/>
      <g>
       <path class="fil2 str4" d="M247.9 680.36l0.65 137.82c19.19,51.71 179.73,52.14 200.89,-2.2l-0.55 -133.05c-17.43,-55.28 -172.27,-60.03 -200.99,-2.57z"/>
       <path class="fil2 str4" d="M247.02 688.86c16.81,55.13 185.34,56.55 200.46,-0.7"/>
      </g>
     </g>
    </g>
    <g>
     <g>
      <path class="fil5" d="M736.57 687.33c-25.16,47.38 -166.93,55.04 -199.05,1.6l0.39 83.79c36.34,46.61 175.31,44.51 200.6,-0.83l-1.94 -84.55z"/>
      <path class="fil1 str3" d="M732.11 777.56c-23.37,26.53 -155.01,30.82 -184.84,0.89l0.37 46.92c32.53,34.62 161.73,32.34 186.27,-0.46l-1.8 -47.35z"/>
      <path class="fil1 str3" d="M732.11 777.56c-23.37,26.53 -155.01,30.82 -184.84,0.89l0.37 46.92c32.53,34.62 161.73,32.34 186.27,-0.46l-1.8 -47.35z"/>
     </g>
     <g>
      <ellipse class="fil1 str3" cx="635.77" cy="683.96" rx="95.63" ry="45.66"/>
      <g>
       <path class="fil2 str4" d="M537.24 679.34l0.65 137.82c19.19,51.71 179.73,52.14 200.89,-2.2l-0.55 -133.05c-17.43,-55.28 -172.27,-60.03 -200.99,-2.57z"/>
       <path class="fil2 str4" d="M536.36 687.83c16.81,55.13 185.34,56.55 200.46,-0.7"/>
      </g>
     </g>
    </g>
   </g>
  </g>
 </g>
</svg>
