<?xml version="1.0" encoding="UTF-8"?>
<!DOCTYPE svg PUBLIC "-//W3C//DTD SVG 1.1//EN" "http://www.w3.org/Graphics/SVG/1.1/DTD/svg11.dtd">
<!-- Creator: CorelDRAW 2021 (64 Bit) -->
<svg xmlns="http://www.w3.org/2000/svg" xml:space="preserve" width="63.5mm" height="63.5mm" version="1.1" style="shape-rendering:geometricPrecision; text-rendering:geometricPrecision; image-rendering:optimizeQuality; fill-rule:evenodd; clip-rule:evenodd"
viewBox="0 0 236.4 236.4"
 xmlns:xlink="http://www.w3.org/1999/xlink"
 xmlns:xodm="http://www.corel.com/coreldraw/odm/2003">
 <defs>
  <style type="text/css">
   <![CDATA[
    .str0 {stroke:#B8B4B6;stroke-width:15.76;stroke-miterlimit:22.9256}
    .str1 {stroke:red;stroke-width:15.76;stroke-miterlimit:22.9256}
    .fil2 {fill:none}
    .fil1 {fill:black}
    .fil0 {fill:white}
   ]]>
  </style>
 </defs>
 <g id="Camada_x0020_1">
  <metadata id="CorelCorpID_0Corel-Layer"/>
  <g id="_2465268850992">
   <path class="fil0 str0" d="M17.79 7.88l201.06 0c5.34,-0 9.67,4.95 9.67,11.05l0 198.54c0,6.1 -4.33,11.05 -9.67,11.05l-201.06 0c-5.34,-0 -9.67,-4.95 -9.67,-11.05 0,-23.85 -0.35,-192.29 -0.2,-200.93 0.09,-4.78 5.88,-8.65 9.87,-8.65z"/>
   <g id="_2171365958832">
    <path class="fil1" d="M34.06 118.11c6.1,-10.12 25.49,-24.53 36.2,-31.2l14.24 -7.98c5.03,4.05 -2.25,-0.6 -9.75,16.44 -10.82,24.53 -2.57,50.97 9.75,60.14l-1.29 2.02c-0.43,0 -0.96,-1.31 -1.07,-1.07l-4.71 -3.22c-13.92,-8.22 -35.02,-21.32 -43.37,-35.13l0 0zm88.78 42.52l-9.21 0c-16.92,0 -35.23,-17.98 -35.23,-42.52 0,-53 74.96,-58.83 80.53,-2.74 2.25,22.27 -17.03,45.26 -36.09,45.26zm32.13 -78.25c12.21,3.1 41.23,27.04 47.44,37.4 -6.21,10.24 -37.59,34.06 -50.55,37.4 7.5,-12.39 15.31,-13.58 15.31,-40.85 0,-15.72 -6.53,-24.53 -12.21,-33.94l-0 0zm-36.73 91.82c40.05,0 61.15,-21.56 85.67,-42.52 3.96,-3.33 6.32,-5.48 9.21,-10.24 -4.39,-10.12 -4.71,-11.2 -16.17,-21.08 -7.5,-6.55 -12.85,-11.79 -21.2,-17.39 -46.48,-31.08 -96.06,-23.7 -136,15.96 -10.39,10.36 -16.38,11.67 -14.89,19.65 0,0.24 0.11,0.71 0.21,0.95 0,0.24 0.11,0.71 0.21,0.95 0.86,2.98 -0.11,0.71 0.96,2.98 3.86,7.62 29.45,27.27 35.77,31.56 14.46,9.53 33.95,19.17 56.22,19.17z"/>
    <path class="fil1" d="M121.23 130.02c-7.71,0 -13.71,0.48 -13.71,-11.91 0,-18.46 22.92,-13.58 22.92,0 0,4.76 -4.82,11.91 -9.21,11.91zm-22.92 -10.24c0,27.51 39.73,25.84 39.73,1.67 0,-7.62 1.07,-13.82 -7.5,-20.48 -14.56,-11.55 -32.23,0.36 -32.23,18.82z"/>
    <path class="fil1" d="M113.63 32.96c0,15.6 -1.93,22.15 4.6,22.15 6.21,0 4.6,-5.36 4.6,-18.7 0,-6.31 -1.5,-7.74 -4.6,-10.24 -2.46,1.79 -4.6,2.26 -4.6,6.79z"/>
    <path class="fil1" d="M72.29 199.82c0,7.03 4.5,9.17 11.78,-5.72 4.71,-9.88 4.93,-6.55 5.03,-14.77 -7.5,-1.91 -6.32,-2.02 -10.28,5.6 -1.82,3.57 -6.53,10.96 -6.53,14.89l-0 0z"/>
    <path class="fil1" d="M151.86 63.57c4.71,-3.45 19.28,-27.15 9.21,-27.15 -4.5,0 -5.25,4.41 -9.75,12.98 -3.86,7.62 -6,9.29 0.54,14.17z"/>
    <path class="fil1" d="M148.86 181c0,3.69 4.39,10.12 6,13.7 3.11,6.79 2.25,8.22 10.82,8.46 0,-18.46 -16.81,-33.11 -16.81,-22.15l0 0z"/>
    <path class="fil1" d="M70.79 41.53c0,10.96 16.81,30.37 16.81,18.7 0,-4.41 -9,-20.37 -10.28,-21.2 -3.21,-2.14 -6.53,-0.48 -6.53,2.5l-0 0z"/>
    <path class="fil1" d="M119.73 184.45c-7.71,4.53 -6,3.69 -4.71,22.27 0,0 -1.18,11.08 5.35,7.38 3.96,-2.26 4.07,-21.79 -0.64,-29.66z"/>
   </g>
   <line class="fil2 str1" x1="53.57" y1="176.82" x2="184.17" y2= "61.1" />
  </g>
 </g>
</svg>
