<?xml version="1.0" encoding="UTF-8"?>
<!DOCTYPE svg PUBLIC "-//W3C//DTD SVG 1.1//EN" "http://www.w3.org/Graphics/SVG/1.1/DTD/svg11.dtd">
<!-- Creator: CorelDRAW 2021 (64 Bit) -->
<svg xmlns="http://www.w3.org/2000/svg" xml:space="preserve" width="535px" height="535px" version="1.1" style="shape-rendering:geometricPrecision; text-rendering:geometricPrecision; image-rendering:optimizeQuality; fill-rule:evenodd; clip-rule:evenodd"
viewBox="0 0 14.24 14.24"
 xmlns:xlink="http://www.w3.org/1999/xlink"
 xmlns:xodm="http://www.corel.com/coreldraw/odm/2003">
 <defs>
  <style type="text/css">
   <![CDATA[
    .str0 {stroke:#B8B4B6;stroke-width:1.33;stroke-miterlimit:22.9256}
    .fil2 {fill:#020202}
    .fil1 {fill:#FE0404}
    .fil0 {fill:white}
   ]]>
  </style>
 </defs>
 <g id="Camada_x0020_1">
  <metadata id="CorelCorpID_0Corel-Layer"/>
  <path class="fil0 str0" d="M1.25 0.67l11.76 0c0.31,0 0.56,0.29 0.56,0.64l0 11.62c0,0.36 -0.25,0.64 -0.56,0.64l-11.76 0c-0.32,0 -0.57,-0.28 -0.57,-0.64 0,-1.4 -0.02,-11.25 -0.01,-11.76 0,-0.28 0.34,-0.5 0.58,-0.5z"/>
 </g>
 <g id="Camada_x0020_1_0">
  <metadata id="CorelCorpID_1Corel-Layer"/>
  <g id="_2171371350208">
   <path class="fil1" d="M9.55 4.82c-0.13,0.19 -0.62,0.58 -0.83,0.65 -0.11,0.18 -0.67,0.63 -0.87,0.75 -0.18,0.2 -0.18,0.24 -0.47,0.38 -0.14,0.2 -0.55,0.5 -0.77,0.64 -0.17,0.22 -0.15,0.23 -0.4,0.35 -0.33,0.32 -0.62,0.46 -0.92,0.84l-0.33 0.21 -0.36 0.28c-0.16,0.18 -0.12,0.2 -0.4,0.32 -0.21,0.25 -1.13,1 -1.42,1.17 0.14,0.23 0.29,0.44 0.42,0.66l1.75 -1.4c0.14,-0.2 0.64,-0.6 0.85,-0.71 0.24,-0.25 0.59,-0.53 0.87,-0.69 0.14,-0.19 0.19,-0.29 0.46,-0.38 0.16,-0.24 0.5,-0.5 0.77,-0.65 0.16,-0.27 0.15,-0.31 0.48,-0.37 0.17,-0.25 0.6,-0.57 0.85,-0.74l0.41 -0.34 0.25 -0.22 0.42 -0.35c0.27,-0.25 1.16,-1.06 1.42,-1.15 -0.07,-0.27 -0.21,-0.43 -0.33,-0.64 -0.4,0.1 -1.3,1.01 -1.85,1.39l0 0z"/>
   <path class="fil2" d="M9.64 5.79l-0.41 0.34c0.53,1.28 0.17,2.24 -0.61,2.95 -0.75,0.69 -2.21,0.58 -2.82,-0.12 -0.21,0.11 -0.71,0.51 -0.85,0.71 0.72,0.4 1.96,0.73 3.17,0.54 1.3,-0.22 2.7,-1.14 3.63,-2.1 0.89,-0.92 1.27,-0.68 -1.44,-2.89l-0.42 0.35c0.59,0.35 1.66,1.19 2.01,1.77l-1.27 1.1c-0.61,0.52 -0.83,0.55 -1.39,0.88 -0.01,0.01 -0.04,0.03 -0.05,0.04 -0.01,0 -0.04,0.02 -0.05,0.03 -0.2,-0.16 -0.08,-0.03 0.19,-0.35 1.01,-1.21 0.5,-2.48 0.31,-3.25l0 0z"/>
   <path class="fil2" d="M4.2 9.24c0.28,-0.12 0.24,-0.14 0.4,-0.32 -0.19,-0.17 -0.28,-0.2 -0.5,-0.35 -0.61,-0.43 -1.26,-1.16 -1.48,-1.33 0.37,-0.62 2.08,-1.94 2.84,-2.13 -0.39,0.64 -1.45,1.64 -0.5,3.53l0.33 -0.21c-0.09,-0.63 -0.65,-2 0.59,-3.04 0.45,-0.37 0.65,-0.49 1.42,-0.48 0.6,0 1.18,0.2 1.42,0.56 0.21,-0.07 0.71,-0.46 0.83,-0.65l-0.11 -0.06c-1.68,-1.02 -3.99,-0.52 -5.55,0.64 -0.41,0.31 -0.67,0.53 -1.06,0.87 -0.21,0.19 -0.31,0.27 -0.49,0.48 -0.74,0.84 1.01,1.74 1.86,2.49l0 0z"/>
   <path class="fil2" d="M7.9 7.24c-0.07,0.5 -0.28,0.66 -0.77,0.65 -0.27,0.09 -0.32,0.19 -0.46,0.38 0.51,0.06 0.73,0.34 1.23,-0.07 0.41,-0.33 0.48,-0.59 0.48,-1.33 -0.33,0.06 -0.32,0.1 -0.48,0.37z"/>
   <path class="fil2" d="M6.21 7.59c0.25,-0.12 0.23,-0.13 0.4,-0.35 0.05,-0.3 0.08,-0.43 0.27,-0.56 0.19,-0.14 0.35,-0.16 0.5,-0.08 0.29,-0.14 0.29,-0.18 0.47,-0.38 -0.38,-0.28 -0.88,-0.27 -1.25,0.06 -0.15,0.15 -0.28,0.3 -0.36,0.54 -0.13,0.39 -0.04,0.37 -0.03,0.77l0 0z"/>
   <path class="fil2" d="M7.05 11.16l0 1.02c0,0.04 0.06,0.2 0.15,0.28l0.2 0c0.08,-0.12 0.15,-0.46 0.15,-1.21 0,-0.4 -0.5,-0.56 -0.5,-0.09l0 0z"/>
   <path class="fil2" d="M8.97 10.6c0,1.12 1.54,2.1 0.6,0.35 -0.2,-0.38 -0.12,-0.43 -0.52,-0.54 0,0 -0.08,0.18 -0.08,0.19l0 0z"/>
   <path class="fil2" d="M5.46 4.26l0.15 -0.2c-0.06,-0.33 -0.17,-0.43 -0.32,-0.73 -0.14,-0.3 -0.17,-0.45 -0.5,-0.56 -0.24,0.4 -0.16,0.37 0.1,0.82 0.18,0.34 0.2,0.56 0.57,0.67z"/>
   <path class="fil2" d="M4.71 11.63c0,0.26 0.25,0.5 0.53,0.03 0.06,-0.09 0.13,-0.24 0.18,-0.35 0.21,-0.39 0.28,-0.43 0.21,-0.81 -0.43,0.02 -0.38,0.08 -0.73,0.78 -0.06,0.13 -0.19,0.31 -0.19,0.35z"/>
   <path class="fil2" d="M8.88 3.89c0,1.13 1.53,-1.36 0.62,-1.09 -0.26,0.07 -0.62,1.09 -0.62,1.09z"/>
   <path class="fil2" d="M7.22 3.8l0.16 0c0.11,-0.22 0.21,-1.59 -0.08,-1.59 -0.4,0 -0.3,0.37 -0.27,0.67 0.03,0.31 -0.06,0.92 0.19,0.92l0 0z"/>
  </g>
 </g>
</svg>
