<?xml version="1.0" encoding="UTF-8"?>
<!DOCTYPE svg PUBLIC "-//W3C//DTD SVG 1.1//EN" "http://www.w3.org/Graphics/SVG/1.1/DTD/svg11.dtd">
<!-- Creator: CorelDRAW 2021 (64 Bit) -->
<svg xmlns="http://www.w3.org/2000/svg" xml:space="preserve" width="535px" height="535px" version="1.1" style="shape-rendering:geometricPrecision; text-rendering:geometricPrecision; image-rendering:optimizeQuality; fill-rule:evenodd; clip-rule:evenodd"
viewBox="0 0 14.11 14.11"
 xmlns:xlink="http://www.w3.org/1999/xlink"
 xmlns:xodm="http://www.corel.com/coreldraw/odm/2003">
 <defs>
  <style type="text/css">
   <![CDATA[
    .str0 {stroke:#B8B4B6;stroke-width:1.32;stroke-miterlimit:22.9256}
    .fil1 {fill:black}
    .fil0 {fill:white}
   ]]>
  </style>
 </defs>
 <g id="Camada_x0020_1">
  <metadata id="CorelCorpID_0Corel-Layer"/>
  <path class="fil0 str0" d="M1.23 0.66l11.66 0c0.31,0 0.56,0.29 0.56,0.64l0 11.51c0,0.35 -0.25,0.64 -0.56,0.64l-11.66 0c-0.31,0 -0.56,-0.29 -0.56,-0.64 0,-1.39 -0.02,-11.15 -0.01,-11.65 0.01,-0.28 0.34,-0.5 0.57,-0.5z"/>
  <g id="_2171365958832">
   <path class="fil1" d="M2.52 7.05c0.33,-0.55 1.37,-1.32 1.95,-1.68l0.77 -0.43c0.27,0.22 -0.12,-0.03 -0.53,0.88 -0.58,1.32 -0.14,2.75 0.53,3.24l-0.07 0.11c-0.02,0 -0.05,-0.07 -0.06,-0.06l-0.25 -0.17c-0.75,-0.44 -1.89,-1.15 -2.34,-1.89l0 0zm4.78 2.29l-0.49 0c-0.91,0 -1.9,-0.97 -1.9,-2.29 0,-2.85 4.04,-3.17 4.34,-0.15 0.12,1.2 -0.92,2.44 -1.95,2.44zm1.73 -4.21c0.66,0.16 2.22,1.45 2.56,2.01 -0.34,0.55 -2.03,1.83 -2.72,2.01 0.4,-0.67 0.82,-0.73 0.82,-2.2 0,-0.84 -0.35,-1.32 -0.66,-1.82l0 0zm-1.98 4.94c2.16,0 3.3,-1.16 4.62,-2.29 0.21,-0.18 0.34,-0.3 0.49,-0.55 -0.23,-0.55 -0.25,-0.6 -0.87,-1.14 -0.4,-0.35 -0.69,-0.63 -1.14,-0.93 -2.5,-1.67 -5.17,-1.28 -7.32,0.86 -0.56,0.55 -0.89,0.62 -0.8,1.05 0,0.02 0,0.04 0.01,0.06 0,0.01 0,0.03 0.01,0.05 0.04,0.16 -0.01,0.04 0.05,0.16 0.21,0.41 1.59,1.46 1.93,1.69 0.78,0.52 1.83,1.04 3.02,1.04z"/>
   <path class="fil1" d="M7.22 7.69c-0.42,0 -0.74,0.02 -0.74,-0.64 0,-0.99 1.23,-0.73 1.23,0 0,0.25 -0.26,0.64 -0.49,0.64zm-1.24 -0.55c0,1.48 2.14,1.39 2.14,0.09 0,-0.41 0.06,-0.75 -0.4,-1.1 -0.79,-0.63 -1.74,0.02 -1.74,1.01z"/>
   <path class="fil1" d="M6.81 2.47c0,0.84 -0.11,1.19 0.24,1.19 0.34,0 0.25,-0.29 0.25,-1.01 0,-0.34 -0.08,-0.41 -0.25,-0.55 -0.13,0.1 -0.24,0.12 -0.24,0.37z"/>
   <path class="fil1" d="M4.58 11.44c0,0.38 0.24,0.5 0.64,-0.3 0.25,-0.54 0.26,-0.36 0.27,-0.8 -0.41,-0.1 -0.34,-0.11 -0.56,0.3 -0.1,0.2 -0.35,0.59 -0.35,0.8l0 0z"/>
   <path class="fil1" d="M8.87 4.11c0.25,-0.18 1.03,-1.46 0.49,-1.46 -0.24,0 -0.28,0.24 -0.52,0.7 -0.21,0.41 -0.33,0.5 0.03,0.76z"/>
   <path class="fil1" d="M8.7 10.43c0,0.2 0.24,0.55 0.33,0.74 0.16,0.36 0.12,0.44 0.58,0.45 0,-0.99 -0.91,-1.78 -0.91,-1.19l0 0z"/>
   <path class="fil1" d="M4.5 2.93c0,0.59 0.91,1.63 0.91,1 0,-0.23 -0.49,-1.09 -0.56,-1.14 -0.17,-0.11 -0.35,-0.02 -0.35,0.14l0 0z"/>
   <path class="fil1" d="M7.14 10.62c-0.42,0.24 -0.33,0.2 -0.26,1.2 0,0 -0.06,0.59 0.29,0.39 0.21,-0.12 0.22,-1.17 -0.03,-1.59z"/>
  </g>
 </g>
</svg>
