<?xml version="1.0" encoding="UTF-8"?>
<!DOCTYPE svg PUBLIC "-//W3C//DTD SVG 1.1//EN" "http://www.w3.org/Graphics/SVG/1.1/DTD/svg11.dtd">
<!-- Creator: CorelDRAW 2021 (64 Bit) -->
<svg xmlns="http://www.w3.org/2000/svg" xml:space="preserve" width="63.4999mm" height="63.5mm" version="1.1" style="shape-rendering:geometricPrecision; text-rendering:geometricPrecision; image-rendering:optimizeQuality; fill-rule:evenodd; clip-rule:evenodd"
viewBox="0 0 232.68 232.68"
 xmlns:xlink="http://www.w3.org/1999/xlink"
 xmlns:xodm="http://www.corel.com/coreldraw/odm/2003">
 <defs>
  <style type="text/css">
   <![CDATA[
    .str0 {stroke:#B8B4B6;stroke-width:15.51;stroke-miterlimit:22.9256}
    .fil1 {fill:black}
    .fil0 {fill:white}
   ]]>
  </style>
 </defs>
 <g id="Camada_x0020_1">
  <metadata id="CorelCorpID_0Corel-Layer"/>
  <g id="_2465268854928">
   <path class="fil0 str0" d="M17.51 7.76l197.9 0c5.26,-0 9.52,4.87 9.52,10.88l0 195.41c0,6.01 -4.26,10.88 -9.52,10.88l-197.9 0c-5.26,-0 -9.52,-4.87 -9.52,-10.88 0,-23.47 -0.35,-189.26 -0.19,-197.77 0.08,-4.7 5.79,-8.52 9.71,-8.52z"/>
   <g id="_2171365958832">
    <path class="fil1" d="M32.76 115.15c6.01,-9.96 25.09,-24.15 35.63,-30.71l14.02 -7.85c4.95,3.99 -2.21,-0.59 -9.59,16.18 -10.65,24.15 -2.53,50.17 9.59,59.2l-1.26 1.99c-0.42,0 -0.95,-1.29 -1.05,-1.05l-4.64 -3.17c-13.7,-8.09 -34.47,-20.98 -42.69,-34.58l0 0zm87.38 41.85l-9.06 0c-16.65,0 -34.68,-17.7 -34.68,-41.85 0,-52.16 73.78,-57.91 79.26,-2.7 2.21,21.92 -16.76,44.54 -35.52,44.54zm31.62 -77.01c12.02,3.05 40.58,26.61 46.69,36.81 -6.11,10.08 -37,33.53 -49.75,36.81 7.38,-12.19 15.07,-13.36 15.07,-40.21 0,-15.47 -6.43,-24.15 -12.02,-33.41l-0 0zm-36.15 90.38c39.42,0 60.18,-21.22 84.32,-41.85 3.9,-3.28 6.22,-5.39 9.06,-10.08 -4.32,-9.96 -4.64,-11.02 -15.92,-20.75 -7.38,-6.45 -12.65,-11.6 -20.87,-17.11 -45.74,-30.59 -94.55,-23.33 -133.86,15.71 -10.22,10.2 -16.13,11.49 -14.65,19.34 0,0.23 0.11,0.7 0.21,0.94 0,0.23 0.11,0.7 0.21,0.94 0.84,2.93 -0.11,0.7 0.95,2.93 3.79,7.5 28.99,26.84 35.2,31.06 14.23,9.38 33.41,18.87 55.34,18.87z"/>
    <path class="fil1" d="M118.56 126.87c-7.59,0 -13.49,0.47 -13.49,-11.72 0,-18.17 22.56,-13.36 22.56,0 0,4.69 -4.74,11.72 -9.06,11.72zm-22.56 -10.08c0,27.08 39.1,25.44 39.1,1.64 0,-7.5 1.05,-13.6 -7.38,-20.16 -14.33,-11.37 -31.73,0.35 -31.73,18.52z"/>
    <path class="fil1" d="M111.08 31.33c0,15.36 -1.9,21.8 4.53,21.8 6.11,0 4.53,-5.28 4.53,-18.4 0,-6.21 -1.48,-7.62 -4.53,-10.08 -2.42,1.76 -4.53,2.23 -4.53,6.68z"/>
    <path class="fil1" d="M70.39 195.56c0,6.92 4.43,9.03 11.59,-5.63 4.64,-9.73 4.85,-6.45 4.95,-14.54 -7.38,-1.88 -6.22,-1.99 -10.12,5.51 -1.79,3.52 -6.43,10.78 -6.43,14.65l-0 0z"/>
    <path class="fil1" d="M148.71 61.46c4.64,-3.4 18.97,-26.73 9.06,-26.73 -4.43,0 -5.16,4.34 -9.59,12.78 -3.79,7.5 -5.9,9.14 0.53,13.95z"/>
    <path class="fil1" d="M145.75 177.04c0,3.63 4.32,9.96 5.9,13.48 3.06,6.68 2.21,8.09 10.65,8.32 0,-18.17 -16.55,-32.59 -16.55,-21.8l0 0z"/>
    <path class="fil1" d="M68.92 39.77c0,10.78 16.55,29.89 16.55,18.4 0,-4.34 -8.85,-20.04 -10.12,-20.87 -3.16,-2.11 -6.43,-0.47 -6.43,2.46l-0 0z"/>
    <path class="fil1" d="M117.09 180.44c-7.59,4.45 -5.9,3.63 -4.64,21.92 0,0 -1.16,10.9 5.27,7.27 3.9,-2.23 4.01,-21.45 -0.63,-29.19z"/>
   </g>
  </g>
 </g>
</svg>
