<?xml version="1.0" encoding="UTF-8"?>
<!DOCTYPE svg PUBLIC "-//W3C//DTD SVG 1.1//EN" "http://www.w3.org/Graphics/SVG/1.1/DTD/svg11.dtd">
<!-- Creator: CorelDRAW 2021 (64 Bit) -->
<svg xmlns="http://www.w3.org/2000/svg" xml:space="preserve" width="32.5462mm" height="29.2954mm" version="1.1" style="shape-rendering:geometricPrecision; text-rendering:geometricPrecision; image-rendering:optimizeQuality; fill-rule:evenodd; clip-rule:evenodd"
viewBox="0 0 43.8 39.42"
 xmlns:xlink="http://www.w3.org/1999/xlink"
 xmlns:xodm="http://www.corel.com/coreldraw/odm/2003">
 <defs>
  <style type="text/css">
   <![CDATA[
    .str0 {stroke:red;stroke-width:2.85;stroke-miterlimit:22.9256}
    .fil1 {fill:none}
    .fil0 {fill:black}
   ]]>
  </style>
 </defs>
 <g id="Camada_x0020_1">
  <metadata id="CorelCorpID_0Corel-Layer"/>
  <g id="_2171365958832">
   <path class="fil0" d="M2.19 19.21c1.42,-2.12 5.92,-5.13 8.41,-6.52l3.31 -1.67c1.17,0.85 -0.52,-0.12 -2.26,3.43 -2.51,5.13 -0.6,10.65 2.26,12.57l-0.3 0.42c-0.1,0 -0.22,-0.27 -0.25,-0.22l-1.09 -0.67c-3.23,-1.72 -8.14,-4.45 -10.08,-7.34l0 0zm20.63 8.88l-2.14 0c-3.93,0 -8.19,-3.76 -8.19,-8.88 0,-11.07 17.42,-12.29 18.71,-0.57 0.52,4.65 -3.96,9.46 -8.39,9.46zm7.46 -16.35c2.84,0.65 9.58,5.65 11.02,7.81 -1.44,2.14 -8.73,7.12 -11.74,7.81 1.74,-2.59 3.56,-2.84 3.56,-8.53 0,-3.28 -1.52,-5.13 -2.84,-7.09l-0 0zm-8.53 19.18c9.31,0 14.21,-4.5 19.91,-8.88 0.92,-0.7 1.47,-1.14 2.14,-2.14 -1.02,-2.12 -1.09,-2.34 -3.76,-4.4 -1.74,-1.37 -2.99,-2.46 -4.93,-3.63 -10.8,-6.49 -22.32,-4.95 -31.6,3.33 -2.41,2.16 -3.81,2.44 -3.46,4.11 0,0.05 0.02,0.15 0.05,0.2 0,0.05 0.02,0.15 0.05,0.2 0.2,0.62 -0.02,0.15 0.22,0.62 0.9,1.59 6.84,5.7 8.31,6.59 3.36,1.99 7.89,4.01 13.06,4.01z"/>
   <path class="fil0" d="M22.45 21.7c-1.79,0 -3.18,0.1 -3.18,-2.49 0,-3.86 5.32,-2.84 5.32,0 0,1 -1.12,2.49 -2.14,2.49zm-5.32 -2.14c0,5.75 9.23,5.4 9.23,0.35 0,-1.59 0.25,-2.89 -1.74,-4.28 -3.38,-2.41 -7.49,0.07 -7.49,3.93z"/>
   <path class="fil0" d="M20.68 1.42c0,3.26 -0.45,4.63 1.07,4.63 1.44,0 1.07,-1.12 1.07,-3.91 0,-1.32 -0.35,-1.62 -1.07,-2.14 -0.57,0.37 -1.07,0.47 -1.07,1.42z"/>
   <path class="fil0" d="M11.08 36.28c0,1.47 1.05,1.92 2.74,-1.19 1.09,-2.07 1.14,-1.37 1.17,-3.09 -1.74,-0.4 -1.47,-0.42 -2.39,1.17 -0.42,0.75 -1.52,2.29 -1.52,3.11l-0 0z"/>
   <path class="fil0" d="M29.56 7.81c1.09,-0.72 4.48,-5.67 2.14,-5.67 -1.05,0 -1.22,0.92 -2.26,2.71 -0.9,1.59 -1.39,1.94 0.12,2.96z"/>
   <path class="fil0" d="M28.87 32.35c0,0.77 1.02,2.12 1.39,2.86 0.72,1.42 0.52,1.72 2.51,1.77 0,-3.86 -3.91,-6.92 -3.91,-4.63l0 0z"/>
   <path class="fil0" d="M10.73 3.21c0,2.29 3.91,6.35 3.91,3.91 0,-0.92 -2.09,-4.25 -2.39,-4.43 -0.75,-0.45 -1.52,-0.1 -1.52,0.52l-0 0z"/>
   <path class="fil0" d="M22.1 33.07c-1.79,0.95 -1.39,0.77 -1.09,4.65 0,0 -0.27,2.31 1.24,1.54 0.92,-0.47 0.95,-4.55 -0.15,-6.2z"/>
  </g>
  <line class="fil1 str0" x1="1.88" y1="37.12" x2="41.91" y2= "1.65" />
 </g>
</svg>
