<?xml version="1.0" encoding="UTF-8"?>
<!DOCTYPE svg PUBLIC "-//W3C//DTD SVG 1.1//EN" "http://www.w3.org/Graphics/SVG/1.1/DTD/svg11.dtd">
<!-- Creator: CorelDRAW 2021 (64 Bit) -->
<svg xmlns="http://www.w3.org/2000/svg" xml:space="preserve" width="752px" height="752px" version="1.1" style="shape-rendering:geometricPrecision; text-rendering:geometricPrecision; image-rendering:optimizeQuality; fill-rule:evenodd; clip-rule:evenodd"
viewBox="0 0 21.73 21.71"
 xmlns:xlink="http://www.w3.org/1999/xlink"
 xmlns:xodm="http://www.corel.com/coreldraw/odm/2003">
 <defs>
  <style type="text/css">
   <![CDATA[
    .str0 {stroke:#B8B4B6;stroke-width:1.44;stroke-miterlimit:22.9256}
    .str3 {stroke:blue;stroke-width:0.06;stroke-miterlimit:22.9256}
    .str2 {stroke:lime;stroke-width:0.06;stroke-miterlimit:22.9256}
    .str1 {stroke:red;stroke-width:0.06;stroke-miterlimit:22.9256}
    .fil4 {fill:blue}
    .fil3 {fill:lime}
    .fil2 {fill:red}
    .fil0 {fill:#FFFCFC}
    .fil5 {fill:yellow}
    .fil1 {fill:black;fill-rule:nonzero}
    .fil6 {fill:black;fill-rule:nonzero}
   ]]>
  </style>
 </defs>
 <g id="Camada_x0020_1">
  <metadata id="CorelCorpID_0Corel-Layer"/>
  <path class="fil0 str0" d="M1.63 0.72l18.49 0c0.49,0 0.89,0.46 0.89,1.02l0 18.23c0,0.56 -0.4,1.02 -0.89,1.02l-18.49 0c-0.49,0 -0.89,-0.46 -0.89,-1.02 0,-2.19 -0.03,-17.66 -0.01,-18.45 0,-0.44 0.54,-0.8 0.9,-0.8z"/>
  <g id="_2262092107328">
   <path class="fil1" d="M15.3 11.2l-2.31 0c-0.19,0 -0.33,-0.15 -0.33,-0.33 0,-0.18 0.14,-0.33 0.33,-0.33l2.31 0c0.18,0 0.33,0.15 0.33,0.33 0,0.18 -0.15,0.33 -0.33,0.33z"/>
   <g>
    <g>
     <path class="fil1" d="M12.92 11.19l-7.66 0c-0.2,0 -0.36,-0.15 -0.36,-0.33 0,-0.19 0.16,-0.33 0.36,-0.33l7.66 0c0.2,0 0.36,0.14 0.36,0.33 0,0.18 -0.16,0.33 -0.36,0.33z"/>
     <path class="fil1" d="M15.44 18.08l-2.52 0c-0.2,0 -0.36,-0.15 -0.36,-0.33l0 -13.61c0,-0.19 0.16,-0.33 0.36,-0.33l2.52 0c0.2,0 0.36,0.14 0.36,0.33 0,0.18 -0.16,0.32 -0.36,0.32l-2.16 0 0 12.96 2.16 0c0.2,0 0.36,0.15 0.36,0.33 0,0.18 -0.16,0.33 -0.36,0.33z"/>
     <ellipse class="fil2 str1" cx="16.82" cy="4.07" rx="2.14" ry="1.96"/>
     <ellipse class="fil3 str2" cx="16.82" cy="10.85" rx="2.14" ry="1.96"/>
     <ellipse class="fil4 str3" cx="16.78" cy="17.68" rx="2.14" ry="1.96"/>
    </g>
    <g>
     <circle class="fil5" cx="5.42" cy="10.81" r="1.16"/>
     <path class="fil6" d="M6.3 14.42c-0.05,0 -0.1,-0.01 -0.14,-0.03 -0.09,-0.03 -0.16,-0.1 -0.19,-0.19 -0.11,-0.27 -0.36,-0.36 -0.55,-0.36 -0.19,0 -0.44,0.09 -0.55,0.36 -0.07,0.18 -0.28,0.27 -0.46,0.19l-0.81 -0.33c-0.08,-0.04 -0.15,-0.1 -0.19,-0.19 -0.03,-0.09 -0.03,-0.19 0,-0.27 0.11,-0.27 0.01,-0.51 -0.13,-0.65 -0.13,-0.13 -0.37,-0.24 -0.64,-0.13 -0.18,0.08 -0.39,-0.01 -0.47,-0.19l-0.33 -0.8c-0.04,-0.09 -0.04,-0.19 0,-0.28 0.04,-0.08 0.11,-0.15 0.19,-0.19 0.27,-0.11 0.37,-0.35 0.37,-0.55 0,-0.19 -0.1,-0.43 -0.37,-0.54 -0.08,-0.04 -0.15,-0.11 -0.19,-0.2 -0.04,-0.08 -0.04,-0.18 0,-0.27l0.33 -0.8c0.08,-0.18 0.29,-0.27 0.47,-0.19 0.27,0.11 0.51,0 0.64,-0.13 0.14,-0.14 0.24,-0.38 0.13,-0.65 -0.07,-0.18 0.01,-0.39 0.19,-0.46l0.81 -0.34c0.09,-0.03 0.18,-0.03 0.27,0 0.09,0.04 0.16,0.11 0.19,0.2 0.12,0.27 0.36,0.36 0.55,0.36 0,0 0,0 0,0 0.19,0 0.44,-0.09 0.55,-0.36 0.03,-0.09 0.1,-0.16 0.19,-0.2 0.09,-0.03 0.18,-0.03 0.27,0l0.81 0.34c0.08,0.03 0.15,0.1 0.19,0.19 0.04,0.09 0.04,0.18 0,0.27 -0.11,0.27 -0.01,0.51 0.13,0.65 0.13,0.13 0.37,0.24 0.64,0.13 0.18,-0.08 0.39,0.01 0.47,0.19l0.33 0.8c0.04,0.09 0.04,0.19 0,0.27 -0.04,0.09 -0.1,0.16 -0.19,0.2 -0.27,0.11 -0.37,0.35 -0.37,0.54 0,0.2 0.1,0.44 0.37,0.55l0 0c0.09,0.04 0.15,0.11 0.19,0.19 0.04,0.09 0.04,0.19 0,0.28l-0.33 0.8c-0.04,0.09 -0.11,0.16 -0.2,0.19 -0.08,0.04 -0.18,0.04 -0.27,0 -0.27,-0.11 -0.51,0 -0.64,0.13 -0.14,0.14 -0.24,0.38 -0.13,0.65 0.07,0.18 -0.01,0.39 -0.19,0.46l-0.81 0.33c-0.04,0.02 -0.09,0.03 -0.13,0.03zm-0.88 -0.94c0.39,0 0.73,0.22 0.88,0.58l0.8 -0.33c-0.15,-0.36 -0.07,-0.76 0.2,-1.03 0.28,-0.28 0.68,-0.36 1.04,-0.21l0.33 -0.8c-0.36,-0.15 -0.59,-0.48 -0.59,-0.88 0,-0.39 0.23,-0.72 0.59,-0.87l-0.33 -0.8c-0.36,0.15 -0.76,0.07 -1.04,-0.21 -0.27,-0.28 -0.35,-0.67 -0.2,-1.04l-0.8 -0.32c-0.15,0.36 -0.49,0.58 -0.88,0.58 0,0 0,0 0,0 -0.39,0 -0.73,-0.22 -0.88,-0.59l-0.8 0.34c0.15,0.36 0.07,0.75 -0.2,1.03 -0.28,0.28 -0.68,0.36 -1.04,0.21l-0.33 0.8c0.36,0.15 0.59,0.48 0.59,0.87 0,0.4 -0.23,0.73 -0.59,0.88l0.33 0.8c0.36,-0.15 0.76,-0.07 1.04,0.21 0.27,0.27 0.35,0.67 0.2,1.03l0.81 0.33c0.14,-0.36 0.48,-0.58 0.87,-0.58z"/>
     <path class="fil1" d="M5.42 12.16c-0.74,0 -1.34,-0.6 -1.34,-1.35 0,-0.74 0.6,-1.34 1.34,-1.34 0.74,0 1.34,0.6 1.34,1.34 0,0.75 -0.6,1.35 -1.34,1.35zm0 -2.33c-0.54,0 -0.98,0.44 -0.98,0.98 0,0.55 0.44,0.99 0.98,0.99 0.54,0 0.99,-0.44 0.99,-0.99 0,-0.54 -0.45,-0.98 -0.99,-0.98z"/>
     <path class="fil6" d="M6.04 13.37c-0.03,0 -0.06,0 -0.09,-0.02 -0.07,-0.02 -0.12,-0.07 -0.14,-0.13 -0.08,-0.19 -0.25,-0.26 -0.39,-0.26 -0.14,0 -0.31,0.07 -0.39,0.26 -0.05,0.13 -0.2,0.19 -0.33,0.13l-0.57 -0.23c-0.06,-0.03 -0.11,-0.08 -0.13,-0.14 -0.03,-0.06 -0.03,-0.13 0,-0.19 0.07,-0.19 0,-0.36 -0.1,-0.46 -0.09,-0.1 -0.26,-0.17 -0.45,-0.09 -0.13,0.05 -0.28,-0.01 -0.33,-0.14l-0.24 -0.57c-0.03,-0.06 -0.03,-0.13 0,-0.19 0.03,-0.06 0.07,-0.11 0.14,-0.14 0.19,-0.08 0.26,-0.25 0.26,-0.39 0,-0.13 -0.07,-0.3 -0.26,-0.38 -0.07,-0.03 -0.11,-0.08 -0.14,-0.14 -0.03,-0.06 -0.03,-0.13 0,-0.19l0.24 -0.57c0.05,-0.13 0.2,-0.19 0.33,-0.14 0.19,0.08 0.36,0 0.45,-0.09 0.1,-0.1 0.17,-0.27 0.1,-0.46 -0.06,-0.13 0,-0.28 0.13,-0.33l0.57 -0.24c0.06,-0.02 0.13,-0.02 0.2,0 0.06,0.03 0.11,0.08 0.13,0.14 0.08,0.19 0.25,0.26 0.39,0.26 0,0 0,0 0,0 0.14,0 0.31,-0.07 0.39,-0.26 0.02,-0.06 0.07,-0.11 0.14,-0.14 0.06,-0.02 0.13,-0.02 0.19,0l0.57 0.24c0.06,0.03 0.11,0.07 0.14,0.14 0.02,0.06 0.02,0.13 0,0.19 -0.08,0.19 -0.01,0.36 0.09,0.46 0.09,0.09 0.26,0.17 0.45,0.09 0.13,-0.05 0.28,0.01 0.33,0.14l0.24 0.57c0.03,0.06 0.03,0.13 0,0.19 -0.03,0.06 -0.07,0.11 -0.14,0.14 -0.19,0.08 -0.26,0.25 -0.26,0.38 0,0.14 0.07,0.31 0.26,0.39l0 0c0.07,0.03 0.11,0.08 0.14,0.14 0.03,0.06 0.03,0.13 0,0.19l-0.24 0.57c-0.02,0.06 -0.07,0.11 -0.13,0.14 -0.06,0.03 -0.13,0.03 -0.2,0 -0.19,-0.08 -0.36,-0.01 -0.45,0.09 -0.1,0.1 -0.17,0.27 -0.09,0.46 0.05,0.13 -0.01,0.28 -0.14,0.33l-0.57 0.23c-0.03,0.02 -0.07,0.02 -0.1,0.02zm-0.62 -0.67c0.28,0 0.52,0.16 0.62,0.42l0.57 -0.24c-0.11,-0.25 -0.05,-0.53 0.15,-0.73 0.19,-0.2 0.47,-0.25 0.73,-0.15l0.23 -0.56c-0.25,-0.11 -0.41,-0.35 -0.41,-0.63 0,-0.27 0.16,-0.51 0.42,-0.62l-0.24 -0.57c-0.26,0.11 -0.54,0.05 -0.73,-0.14 -0.2,-0.2 -0.26,-0.48 -0.15,-0.74l-0.57 -0.23c-0.1,0.25 -0.34,0.41 -0.62,0.41 0,0 0,0 0,0 -0.28,0 -0.52,-0.16 -0.62,-0.41l-0.57 0.24c0.11,0.25 0.05,0.53 -0.15,0.73 -0.19,0.19 -0.47,0.25 -0.73,0.14l-0.23 0.57c0.25,0.11 0.41,0.35 0.41,0.62 0,0.28 -0.16,0.52 -0.42,0.63l0.24 0.56c0.26,-0.1 0.54,-0.05 0.73,0.15 0.2,0.2 0.26,0.48 0.15,0.74l0.57 0.23c0.1,-0.26 0.34,-0.42 0.62,-0.42z"/>
    </g>
   </g>
  </g>
 </g>
</svg>
