<?xml version="1.0" encoding="UTF-8"?>
<!DOCTYPE svg PUBLIC "-//W3C//DTD SVG 1.1//EN" "http://www.w3.org/Graphics/SVG/1.1/DTD/svg11.dtd">
<!-- Creator: CorelDRAW 2021 (64 Bit) -->
<svg xmlns="http://www.w3.org/2000/svg" xml:space="preserve" width="540px" height="532px" version="1.1" style="shape-rendering:geometricPrecision; text-rendering:geometricPrecision; image-rendering:optimizeQuality; fill-rule:evenodd; clip-rule:evenodd"
viewBox="0 0 104.38 102.91"
 xmlns:xlink="http://www.w3.org/1999/xlink"
 xmlns:xodm="http://www.corel.com/coreldraw/odm/2003">
 <defs>
  <style type="text/css">
   <![CDATA[
    .str1 {stroke:#18A8A8;stroke-width:3.87;stroke-miterlimit:22.9256}
    .str0 {stroke:#C4C4C4;stroke-width:5.8;stroke-linejoin:round;stroke-miterlimit:22.9256}
    .fil28 {fill:none}
    .fil0 {fill:#FEFEFE}
    .fil12 {fill:#0D4F8F}
    .fil21 {fill:#30B1F4}
    .fil3 {fill:#47C796}
    .fil23 {fill:#4C75AE}
    .fil16 {fill:#53B1CD}
    .fil20 {fill:#5B616A}
    .fil25 {fill:#72875A}
    .fil7 {fill:#77E5B5}
    .fil5 {fill:#8785E8}
    .fil11 {fill:#87E7E6}
    .fil22 {fill:#924A74}
    .fil18 {fill:#9C6798}
    .fil14 {fill:#A3A994}
    .fil4 {fill:#A7E9C8}
    .fil27 {fill:#ABA04C}
    .fil9 {fill:#B8B6FA}
    .fil1 {fill:#C9FBF9}
    .fil19 {fill:#CFB1D0}
    .fil24 {fill:#D08FB0}
    .fil15 {fill:#D39070}
    .fil8 {fill:#ED7191}
    .fil6 {fill:#EFC970}
    .fil10 {fill:#F0B0B0}
    .fil13 {fill:#F18A4C}
    .fil26 {fill:#FAE892}
    .fil17 {fill:#FDD7DA}
    .fil2 {fill:#FEFFFF}
   ]]>
  </style>
 </defs>
 <g id="Camada_x0020_1">
  <metadata id="CorelCorpID_0Corel-Layer"/>
  <rect class="fil0 str0" x="2.9" y="2.9" width="98.58" height="97.11" rx="6.16" ry="6.16"/>
  <g id="_1983019613760">
   <g>
    <path class="fil1" d="M59.18 78.53c-0.37,-4.67 -0.06,-1.38 0.88,-2.71 0.25,0.17 1.99,-0.12 1.3,1.64 -0.99,2.52 -0.69,0.43 -2.18,1.07zm-33.6 -4.99l-0.86 -0.25c0.03,-2.37 0.24,-2.01 1.74,-3.4l-0.43 -4.38c-2.04,-1.35 -2,-0.62 -1.19,-3.59 2.45,0.63 1.13,-0.37 1.92,1.6 1.65,-1.26 1.64,-1.32 3.7,-2.41 1.05,0.84 1.97,1.74 2.87,2.42 2.15,-1.46 2.4,-1.83 4.9,-0.23l2.48 3.01c0.75,-1.42 0.7,-2.29 3.05,-1.9 3.36,0.55 -0.2,2.86 3.71,0.57l-2.39 -1.51c0.06,-0.01 0.31,-0.06 0.39,-0.07l7.05 0.45c0.57,1.11 0.65,1.47 1.2,2.66l0.98 2.57c0.3,1.34 0.07,-0.78 0.19,1.43l-3.36 2.59c-0.2,0.16 -1.05,0.97 -1.25,1.14 0.36,2.83 1.3,3.18 -0.89,6 -2.59,-0.33 -2.36,-0.63 -3.13,-2.81 -4.04,0.69 -3.19,0.1 -5.86,-2.15 -2.41,1.99 -5.07,2.43 -6.1,-1.38 -4.17,2.13 -2.85,1.38 -6.6,0.14l-2.12 -0.5zm19.32 2.74c-3.16,-0.4 -0.47,0.64 -3.11,-1.32 0.12,0.2 0.38,0.87 0.43,0.98 0.03,0.08 0.17,0.4 0.21,0.48 0.03,0.09 0.12,0.32 0.2,0.48 3.99,0.33 1.18,0.02 2.27,-0.62zm8.35 -5.93c-2.9,1.53 -2.14,1.67 -4.14,3.3l-0.07 1.43 0.14 0.65 0.15 1.95c0.66,-3.58 0.24,-0.81 -0.15,-1.95 0.31,-1.95 0.75,-2.24 1.75,-3.3 1.3,-1.37 1.29,-0.97 2.32,-2.08zm-25.53 1.72c0.94,0.74 1.51,2.05 2.87,2.45 3.47,-0.25 0.38,0.1 1.71,-0.91l-2.41 0.15c-0.58,-0.96 -0.63,-1.41 -1.74,-2.07l-0.43 0.38 -0.72 0.61 -0.43 0.6 0.43 -0.6 0.72 -0.61zm12.08 2l-0.53 0c-1.46,3.64 1.44,-1.11 -0.38,1.86l-2.78 0.07c0.23,-0.91 0.37,-0.65 -0.6,-0.65 -0.3,1.17 -0.54,0.99 0.6,0.65l1.14 0.59c1.69,0.07 1.98,0.52 2.55,-2.52zm-5.94 -31.74l-0.58 0c-0.23,0.82 -0.31,1.22 -0.62,1.89 -0.56,1.21 -0.34,0.75 -0.97,1.52l0.15 -2.8 -1.26 0.45c-0.05,5.08 -0.14,4.79 -2,5.58 -1.12,-1.95 -0.55,-3.33 -0.37,-6.07l-3.02 -0.06c-0.27,2.57 -0.65,4.64 -0.29,6.19l1.42 -0.16 0.85 1.37c1.44,1.37 1.71,0.42 -0.19,5.64l-5.35 -0.1c-1.08,-3.16 -0.55,-1.62 -0.48,-4.75 0.05,-2.43 -0.64,-1.38 -1.67,-3.28 1.73,0.38 0.63,0.05 2.05,0.66 0.31,0.13 0.77,0.51 0.78,0.49 0.05,-0.1 0.16,0.18 0.26,0.26l0.01 -0.28 0.29 -6.2 -0.11 -0.75 -2.1 -0.29c-1.32,2.61 -0.32,0.83 -1.77,2.08l0.09 -2.37 -0.2 0c-0.49,1.99 -1,3.92 0.07,4.94 -1.16,1.09 -1.67,2.21 -1.87,0.02 -0.01,-0.07 -0.06,-0.17 0,-0.2 -0.15,7.58 -0.09,14.22 3.25,19.81l3.05 5.66c0.05,0.06 0.18,0.19 0.23,0.24 0.05,0.06 0.19,0.2 0.23,0.25 0.05,0.06 0.2,0.22 0.24,0.27 0.09,0.1 0.61,0.76 0.74,0.95 6.15,7.73 15.94,13.47 26.61,13.39 17.78,-0.15 19.41,-6.07 26.93,-10.94 0.08,-0.06 0.36,-0.05 0.43,-0.26 0.06,-0.21 0.3,-0.16 0.43,-0.25 1.31,0.45 1.14,0.72 0.72,-0.6 1.16,0.42 0.79,0.52 0.72,-0.79l-1.11 0 0.39 0.79c-1.22,-0.35 -1.05,-0.62 -0.72,0.6l-9.75 -1.66c-2.26,-0.49 -2.88,-0.22 -4.44,-1.67l-1.71 0.17 -0.56 -0.42 -0.52 -2.2 0.41 -2.58 -0.41 2.58c-1.04,-0.64 -1.48,1.63 -1.05,-3.16 0.24,-2.67 0.48,-0.63 0.9,-3.43 -2.84,-1.51 -4.24,0.6 -5.65,-3.09 -0.74,-1.92 -0.69,-5.21 -0.11,-7.57l1.07 2.68 -0.26 -2.74 -0.82 -2.56c-0.21,-1 -0.04,-0.56 -0.1,-1.37 0.29,3.56 0.84,2.01 -0.81,4.37 -0.26,-3.59 -0.98,-2.99 0.86,-5.64l-0.74 -3.72 0 4.14c-0.12,-0.12 -0.23,-0.32 -0.28,-0.42l-1.2 -8.1c1.67,-8.52 7.38,-7.57 13.28,-8.38 2.88,-0.39 9.81,-2.32 11.31,1.21 0.32,0.76 0.35,0.89 0.48,1.72 0.18,1.1 0.13,2.21 0,3.31 -0.3,2.64 -0.85,2.71 -0.76,6.01 0.16,5.59 2.64,6.71 2.05,10.6l0.4 1.06c0.68,2.49 0.05,2.3 0.96,4.99 1.1,-0.24 0.79,-0.39 0.55,0.78 1.6,1.07 2.31,0.74 2.95,3.25 3.59,-6.6 2.48,-17.52 -0.18,-24.86 -7.08,-19.59 -34.28,-30.89 -55.43,-14.22 2.24,0.56 0.33,-0.11 2.16,1.25l1.39 1.13c-4.1,1.67 -1.58,-1.42 -2.02,0.04l1.13 1.3c3.14,-1.45 -0.27,-1.22 3.05,1.77 1.67,-1.25 2.83,-1.42 5.09,-2.24 5.72,-2.06 5.18,0.11 5.44,0.4 0.92,-0.11 1.15,-0.31 2.23,-0.12 3.19,0.57 1.2,0.41 1.84,1.04 2.33,-0.43 0.82,-0.54 1.47,0.87 0.92,1.3 0.6,0.86 0.05,2.73 -0.19,3.62 0.69,8.35 -0.72,11.52l0.01 1.23 -0.41 4.1c1.75,1.29 1,-1.11 1.15,2.63 0.17,4.16 -3.1,10.61 -11.2,4.69 -4.47,-3.27 -5.53,-3.24 -4.29,-4.85 -1.77,-2.45 -1.73,-0.17 -2.12,-3.51 -0.92,1.58 -1.31,-2.02 -0.68,1.93 2.31,0.56 1.37,0.13 2.33,1.78l-0.9 -0.49c-3.27,-1.85 -1.95,-1.2 -6.54,-1.32 5.47,-2.54 4.36,-1.66 5.84,-7.86zm22.89 -18.11c0.04,-0.1 0.19,0.31 0.28,0.46 -0.9,1.18 -0.78,0.88 -1.26,2.53l-3.03 -2.53 2.79 -2.82c0.47,1.11 0.25,0.6 0.69,1.44 0.09,0.16 0.04,2.1 0.53,0.92z"/>
    <path class="fil2" d="M71.02 58.04c-1.08,1.27 -0.1,0.29 -1.59,0.9l-1.1 -2.14c-0.11,-0.13 -0.25,-0.53 -0.3,-0.41 -0.4,0.83 -0.53,-0.64 -0.66,-0.75 -3.49,-2.94 -4.1,3.04 -4.51,4.22 -1.58,1.56 0.6,0.45 -1.56,0.92 -1.23,0.26 -1.38,0.09 -2.63,-0.06 -1.24,-1.93 -1.02,-3.4 -1.37,-5.84l-1.07 -2.68c-0.58,2.36 -0.63,5.65 0.11,7.57 1.41,3.69 2.81,1.58 5.65,3.09 -0.42,2.8 -0.66,0.76 -0.9,3.43 -0.43,4.79 0.01,2.52 1.05,3.16l0.41 -2.58 0.24 -2c0.07,-0.04 0.22,-0.09 0.24,-0.01 0.02,0.07 0.21,-0.01 0.23,-0.01 0.6,-0.09 0.33,0.98 1.05,-0.55 0.46,-0.96 0.34,-0.69 0.07,-1.39 -0.01,-0.05 -0.12,-0.22 -0.15,-0.26 -0.03,-0.04 -0.18,-0.16 -0.21,-0.2l0.04 -1.68c0.5,-5.57 1.15,-4.23 2.02,-4.81l1.61 3.42c2.19,1.21 2.61,1.17 4.23,-0.56l-0.74 0.49 -0.45 -0.56 0.29 -0.71zm-14.9 -9.83l0.05 -1.27c-1.84,2.65 -1.12,2.05 -0.86,5.64 1.65,-2.36 1.1,-0.81 0.81,-4.37zm-0.69 -4.99l-0.19 -2.58c0.29,-2.06 0.74,-3.21 1.74,-4.93 1.31,-2.24 1.51,-2.53 4.8,-2.63 2.43,-1 4.3,-0.94 7.47,-1.26 2.68,-0.26 4.64,-0.44 7.7,-0.3l0.57 5.08 -0.7 2.3 0.03 1.08 0.06 8.12 2.62 5.3 0.78 -0.09 -0.18 2.85c-1.96,2.28 -1.24,2.58 1.54,3.2l-0.25 0.89 0.8 -0.11 0.19 1.13 0.77 0.57 0.6 0.89 0.65 3.02 -2.99 5.46c-0.93,1.77 -0.6,0.3 -0.88,2.63 0.07,1.31 0.44,1.21 -0.72,0.79 0.42,1.32 0.59,1.05 -0.72,0.6 -0.13,0.09 -0.37,0.04 -0.43,0.25 -0.07,0.21 -0.35,0.2 -0.43,0.26 -7.52,4.87 -9.15,10.79 -26.93,10.94 -10.67,0.08 -20.46,-5.66 -26.61,-13.39 -0.13,-0.19 -0.65,-0.85 -0.74,-0.95 -0.04,-0.05 -0.19,-0.21 -0.24,-0.27 -0.04,-0.05 -0.18,-0.19 -0.23,-0.25 -0.05,-0.05 -0.18,-0.18 -0.23,-0.24l-3.05 -5.66c-3.34,-5.59 -3.4,-12.23 -3.25,-19.81 -0.06,0.03 -0.01,0.13 0,0.2 0.2,2.19 0.71,1.07 1.87,-0.02 -1.07,-1.02 -0.56,-2.95 -0.07,-4.94l0.94 -3.85c0.18,2.36 0.18,2.31 -0.74,3.85l-0.09 2.37c1.45,-1.25 0.45,0.53 1.77,-2.08 -0.06,-1.26 -0.62,-3 0.59,-3.04l0.08 -0.86c-1.82,-0.71 -0.61,0.36 -1.58,-0.99l1.25 -2.25c1.1,-3.83 5.62,-9.68 10.09,-7.77 0.44,-1.46 -2.08,1.63 2.02,-0.04l-1.39 -1.13c-1.83,-1.36 0.08,-0.69 -2.16,-1.25 21.15,-16.67 48.35,-5.37 55.43,14.22 2.66,7.34 3.77,18.26 0.18,24.86 -0.64,-2.51 -1.35,-2.18 -2.95,-3.25 0.24,-1.17 0.55,-1.02 -0.55,-0.78 -0.91,-2.69 -0.28,-2.5 -0.96,-4.99l-0.4 -1.06c0.59,-3.89 -1.89,-5.01 -2.05,-10.6 -0.09,-3.3 0.46,-3.37 0.76,-6.01 0.13,-1.1 0.18,-2.21 0,-3.31 -0.13,-0.83 -0.16,-0.96 -0.48,-1.72 -1.5,-3.53 -8.43,-1.6 -11.31,-1.21 -5.9,0.81 -11.61,-0.14 -13.28,8.38l1.2 8.1c0.05,0.1 0.16,0.3 0.28,0.42l0 -4.14zm-21.17 -6.8l-0.4 5.91c-1.48,6.2 -0.37,5.32 -5.84,7.86 4.59,0.12 3.27,-0.53 6.54,1.32l0.9 0.49c-0.96,-1.65 -0.02,-1.22 -2.33,-1.78 -0.63,-3.95 -0.24,-0.35 0.68,-1.93l0.24 -0.27c0.87,-1.22 -0.89,-1.17 1.07,-0.99 1.79,1.64 2.74,1.52 4.83,0.23 -2.89,-0.59 -3.09,-0.71 -4.03,-2.51l0.01 -3.23 -0.72 -1.62c0.02,-1.1 -0.13,-3 -0.1,-3.86 0.07,-1.46 -0.03,-0.68 0.29,-1.85 0.92,-3.34 -1.31,0.57 0.67,-0.98l6.12 -2.24c0.73,-0.71 -0.89,-0.75 0.75,-0.58 -1.62,0.16 -2.97,0.57 -4.33,1.11 -1.78,0.7 -0.22,0.42 -1.85,0.81 -2.7,0.63 -0.34,0.41 -1.59,-0.26 1.57,-2.44 7.29,-3.75 10.63,-4.09 -0.26,-0.29 0.28,-2.46 -5.44,-0.4 -2.26,0.82 -3.42,0.99 -5.09,2.24 -3.32,-2.99 0.09,-3.22 -3.05,-1.77 1.5,2.64 1.92,4.85 2.04,8.39zm16.01 12.91l-0.02 -0.08 0.05 0.48c-0.2,3.59 -0.57,5 -2.25,7.36 -2.13,2.01 -3.98,0.42 -6.09,-0.93 -2.18,-1.4 -3.97,-2.64 -6.03,-4.36 -1.24,1.61 -0.18,1.58 4.29,4.85 8.1,5.92 11.37,-0.53 11.2,-4.69 -0.15,-3.74 0.6,-1.34 -1.15,-2.63zm-23.21 1.19l-0.9 3.25c-0.09,0.13 -0.2,0.3 -0.3,0.4 -0.11,0.11 -0.26,0.25 -0.39,0.32 -0.12,0.08 -0.31,0.19 -0.45,0.23 -3.59,1.24 -2.59,-3.49 -2.45,-5.56 -0.1,-0.08 -0.21,-0.36 -0.26,-0.26 -0.01,0.02 -0.47,-0.36 -0.78,-0.49 -1.42,-0.61 -0.32,-0.28 -2.05,-0.66 1.03,1.9 1.72,0.85 1.67,3.28 -0.07,3.13 -0.6,1.59 0.48,4.75l5.35 0.1c1.9,-5.22 1.63,-4.27 0.19,-5.64l-0.11 0.28zm6.22 -8.19l-0.68 -0.85 -0.76 1.46 -0.15 2.8c0.63,-0.77 0.41,-0.31 0.97,-1.52 0.31,-0.67 0.39,-1.07 0.62,-1.89zm-7.38 -19.31c-4.87,6.81 -7.77,7.85 -10.85,19.08 -1.35,7.6 -1.68,14.12 1.07,21.91 4.27,12.13 13.72,20.51 25.88,24.16 8.13,2.44 14.72,1.26 22.55,-0.89 3.41,0.18 11.75,-6.3 14.54,-8.73 0.1,-0.1 0.25,-0.22 0.35,-0.32 0.15,-0.14 0.54,-0.55 0.67,-0.71 0.09,-0.11 0.2,-0.27 0.3,-0.39l2.14 -3.15c6.02,-8.1 6.48,-12.48 7.41,-23.98 0.28,-22.79 -22.56,-40.65 -45.81,-35.86 -3.55,0.73 -7.11,2.01 -10.3,3.75 -3.01,1.64 -5.74,4.26 -7.95,5.13z"/>
    <path class="fil3" d="M27.23 20.31c0,1.27 0.36,1.09 -0.77,0.87 0.14,1.1 0.37,0.88 -0.73,0.64 0.22,1.13 0.45,0.9 -0.69,0.69 0.25,1.1 0.47,0.89 -0.64,0.65 0.21,1.15 0.43,0.91 -0.71,0.64 0.26,1.18 0.48,0.95 -0.69,0.66l-0.22 1.39c0.69,-1.45 -0.06,-0.79 1.07,-1.85 1.12,-1.06 0.36,-0.39 2.05,-0.98 2.21,-0.87 4.94,-3.49 7.95,-5.13 3.19,-1.74 6.75,-3.02 10.3,-3.75 23.25,-4.79 46.09,13.07 45.81,35.86l0.53 6.64c0.09,-0.21 0.31,-0.7 0.4,-0.58l1.29 -1.75c0.36,-32.47 -27.74,-50.31 -54.63,-40.06 -0.16,0.06 -0.33,0.12 -0.49,0.18 -0.21,0.07 -0.8,0.24 -1,0.32 -2.69,0.94 -7.68,3.82 -8.83,5.56z"/>
    <path class="fil4" d="M12.39 58.25c0.68,6.57 3.84,12.37 6.92,16.55 6.47,8.8 16.74,15.96 28.87,16.77 4.78,0.32 13.19,0.11 17.59,-2.15 2.34,-1.21 0.94,-0.51 1.78,-1.28l-3 -0.86c-7.83,2.15 -14.42,3.33 -22.55,0.89 -12.16,-3.65 -21.61,-12.03 -25.88,-24.16 -2.75,-7.79 -2.42,-14.31 -1.07,-21.91l-1.22 2.08c-0.84,2.26 -0.09,9.98 -0.71,12.6 -0.33,1.43 -0.16,0.68 -0.73,1.47z"/>
    <path class="fil5" d="M60.73 56.28c-0.16,-0.1 -0.35,-0.34 -0.38,-0.43 -0.02,-0.07 -0.14,-0.38 -0.16,-0.45 -0.85,-3.51 -0.6,0.74 0.54,-1.02 1.91,3.73 0.54,1.13 0,1.9zm-1.72 -11.14c2.04,0.62 1.59,0.58 0.78,2.03 -1.56,-1.19 -0.96,0.26 -0.78,-2.03zm-3.77 -4.5l1.95 0.22c-1.01,1.11 -0.44,0.25 -1.33,2.11 2.04,-1.1 0.17,-1.68 2.11,0.47l0.08 6.99c-1.52,0.08 -0.92,-0.24 -1.01,1.71l0.26 2.74c0.35,2.44 0.13,3.91 1.37,5.84 1.25,0.15 1.4,0.32 2.63,0.06 2.16,-0.47 -0.02,0.64 1.56,-0.92l2.2 -5.88 -0.44 -0.92 -1.03 -3.21c-1.21,-1.82 -0.89,-4.99 -1.2,-7.09l-0.05 -1.05 0.8 -2.91 0.03 -1.13c-0.01,-0.15 -0.17,-2.17 -0.18,-2.23 -0.64,-2.51 -0.16,-1.03 -1.21,-2.36 -3.29,0.1 -3.49,0.39 -4.8,2.63 -1,1.72 -1.45,2.87 -1.74,4.93z"/>
    <path class="fil6" d="M44.21 35.01l3.08 -0.77 2.75 4.51c0.18,2.17 0.63,1.59 -0.42,2.9 0.17,1.06 0.36,0.73 -0.78,0.81l-0.37 0.21c-2.12,3.92 -5.61,-0.35 -6.41,-1.34l1.46 -3.7c2.26,-0.27 0.89,0.13 1.7,-2.22 -0.24,0.17 -0.51,0.34 -0.71,0.49l-1.56 1.17c-0.06,-0.1 -0.22,0.19 -0.32,0.29l-2.74 0.07c-0.59,-0.91 -0.54,-0.91 -1.07,-2.15 -0.16,0.11 -1.39,0.86 -1.41,0.87 -1.23,0.58 -0.71,0.24 -1.48,0.34l0.14 -3.28c-1.98,1.55 0.25,-2.36 -0.67,0.98 -0.32,1.17 -0.22,0.39 -0.29,1.85 -0.03,0.86 0.12,2.76 0.1,3.86 3.83,0.54 3.65,0.81 4.63,1.49l1.08 0.5 0.44 0.94 -0.1 0.25c1.03,1.82 0.64,1.74 0.21,3.7 0.1,-0.09 0.28,-0.34 0.33,-0.23l1.47 -0.59c2.21,-0.73 1.76,-1.06 2.38,-0.21l0.99 1.12c2.56,-1.64 0.23,-1.36 4.03,-2.87 1.41,-3.17 0.53,-7.9 0.72,-11.52 -3.11,0.46 -4.12,-0.47 -6.92,1.19l-0.26 1.34zm-4.26 12.25c-2.09,1.29 -3.04,1.41 -4.83,-0.23 -1.96,-0.18 -0.2,-0.23 -1.07,0.99 2.79,1.2 2.64,1.67 4.62,3.18l3.6 -2.32 -2.32 -1.62z"/>
    <path class="fil7" d="M64.55 87.28l3 0.86c4.71,-0.69 13.26,-7.4 16.51,-12 3.89,-5.5 7.49,-12.49 8.12,-21.83l-1.29 1.75c-0.09,-0.12 -0.31,0.37 -0.4,0.58l-0.53 -6.64c-0.93,11.5 -1.39,15.88 -7.41,23.98l-2.14 3.15c-0.1,0.12 -0.21,0.28 -0.3,0.39 -0.13,0.16 -0.52,0.57 -0.67,0.71 -0.1,0.1 -0.25,0.22 -0.35,0.32 -2.79,2.43 -11.13,8.91 -14.54,8.73z"/>
    <path class="fil5" d="M28.42 63.44c-0.23,-1.23 -0.39,-0.79 1.07,-0.74l0.28 -0.08c3.3,0.75 0.89,0.54 3.6,1.61 0.19,-0.11 0.7,-0.16 1.2,-0.4 2.85,0.54 2.88,0.47 2.6,3.55l-0.4 0.97c-1.17,1.96 -2.92,3.13 -5.51,4.01 -1.51,-0.9 -2.53,-1.87 -3.44,-4.24 -0.95,-2.48 -1.01,-3.83 0.6,-4.68zm-1.66 0.08l-0.73 1.99 0.43 4.38c1.48,-0.14 1.28,-0.59 1.28,0.54l0.41 1.26c1.11,0.66 1.16,1.11 1.74,2.07l2.41 -0.15c2.64,-2.01 4.1,-2.84 6.32,-4.72l1.54 3.35c-0.19,0.11 -0.77,0.58 -0.86,0.65 -0.06,0.04 -0.32,0.24 -0.39,0.29 -0.06,0.04 -0.23,0.18 -0.36,0.27l-0.67 0.73 -0.58 0.05 -0.53 -1.46 -0.96 -0.04 0 1.49 0 -1.49 0.96 0.04 0.53 1.46c0.45,0.83 0.06,0.78 0.58,-0.05 0.99,0.11 0.73,0.31 0.67,-0.73 0.98,-0.09 0.77,-0.33 0.72,0.62l0.53 0 0.86 -1.64 1.13 2.53c2.64,1.96 -0.05,0.92 3.11,1.32l1.18 -0.45 0.56 -1.79 -2.61 0.95c-2.2,-2.46 -4.48,-5.1 -3.12,-9.26 3.82,-1.54 3.02,-0.54 5.08,1.28 0.43,-0.19 4.02,-2.24 4.56,1.28 0.28,1.81 -1.09,3.1 -1.85,4 -0.91,1.08 -0.18,0.09 -0.99,1.22l1.4 0.14c2,-1.63 1.24,-1.77 4.14,-3.3 -0.24,-3.75 -1.9,-5.78 -5.78,-5.37 -3.91,2.29 -0.35,-0.02 -3.71,-0.57 -2.35,-0.39 -2.3,0.48 -3.05,1.9l-2.48 -3.01c-2.5,-1.6 -2.75,-1.23 -4.9,0.23 -0.9,-0.68 -1.82,-1.58 -2.87,-2.42 -2.06,1.09 -2.05,1.15 -3.7,2.41z"/>
    <path class="fil6" d="M24.14 34.34c0.12,-2.01 0.39,-1.16 1.88,-1.29l-1.88 1.29zm5.78 -3.12c0.61,1 0.87,-1.36 0.66,2.15 -0.31,-0.08 -0.64,-0.4 -0.77,-0.59 -2.52,-3.54 -0.5,-0.87 0.11,-1.56zm-8.92 3.28l2.46 0.89 2.75 0.23 2.92 0.29 2.92 0.11 2.21 0.4c-0.12,-3.54 -0.54,-5.75 -2.04,-8.39l-1.13 -1.3c-4.47,-1.91 -8.99,3.94 -10.09,7.77z"/>
    <path class="fil2" d="M35.81 72.73l0.96 0.04 0.53 1.46 0.58 -0.05 0.67 -0.73c0.13,-0.09 0.3,-0.23 0.36,-0.27 0.07,-0.05 0.33,-0.25 0.39,-0.29 0.09,-0.07 0.67,-0.54 0.86,-0.65l-1.54 -3.35c-2.22,1.88 -3.68,2.71 -6.32,4.72 -1.33,1.01 1.76,0.66 -1.71,0.91 -1.36,-0.4 -1.93,-1.71 -2.87,-2.45l-0.72 0.61 -0.43 0.6 -0.99 0.26 2.12 0.5c3.75,1.24 2.43,1.99 6.6,-0.14 1.03,3.81 3.69,3.37 6.1,1.38 2.67,2.25 1.82,2.84 5.86,2.15 0.77,2.18 0.54,2.48 3.13,2.81 2.19,-2.82 1.25,-3.17 0.89,-6 0.2,-0.17 1.05,-0.98 1.25,-1.14l3.36 -2.59c-0.12,-2.21 0.11,-0.09 -0.19,-1.43l-0.98 -2.57c-0.55,-1.19 -0.63,-1.55 -1.2,-2.66l-7.05 -0.45c-0.08,0.01 -0.33,0.06 -0.39,0.07l2.39 1.51c3.88,-0.41 5.54,1.62 5.78,5.37 -1.03,1.11 -1.02,0.71 -2.32,2.08 -1,1.06 -1.44,1.35 -1.75,3.3 0.39,1.14 0.81,-1.63 0.15,1.95 -1.06,1.39 1.03,1.13 -1.28,1.15l-0.94 -2.08c-1.06,-0.8 -0.21,0.67 -1.03,-0.92l-1.18 0.45c-1.09,0.64 1.72,0.95 -2.27,0.62 -0.08,-0.16 -0.17,-0.39 -0.2,-0.48 -0.04,-0.08 -0.18,-0.4 -0.21,-0.48 -0.05,-0.11 -0.31,-0.78 -0.43,-0.98l-1.13 -2.53 -0.86 1.64c-0.57,3.04 -0.86,2.59 -2.55,2.52l-1.14 -0.59c-1.14,0.34 -0.9,0.52 -0.6,-0.65l0.3 -1.13 0 -1.49z"/>
    <path class="fil8" d="M64.49 36.19c1.94,-0.73 1.21,-0.53 1.38,1.07l-1.38 -1.07zm8.29 -4.05l1.27 0.48c-0.84,3.47 -0.3,-0.22 -2.05,2.08 -0.79,1.04 -0.46,2.8 -2.95,1.43 0.89,-1.57 0.09,0.27 1.76,-1.31 1.6,-1.51 0.18,-1.03 1.97,-2.68zm1.13 3.43c1.16,-2.27 0.43,-0.87 1.69,-0.54l-1.69 0.54zm-8.64 -1.51c0.89,-0.69 -1.26,-1.01 1.51,-0.75 2.9,0.26 1.06,0.48 1.4,0.75 -0.92,0.61 1.47,0.79 -1.45,0.74 -1.15,-0.02 -1.3,1.47 -1.46,-0.74zm-3.49 -0.98c1.05,1.33 0.57,-0.15 1.21,2.36 0.01,0.06 0.17,2.08 0.18,2.23l8.95 -0.55 2.89 0.27 2.51 -0.79 -0.57 -5.08c-3.06,-0.14 -5.02,0.04 -7.7,0.3 -3.17,0.32 -5.04,0.26 -7.47,1.26z"/>
    <path class="fil9" d="M67.38 63.53c0.83,-1.53 0.44,-1.24 2.05,-1.74 1.89,1.58 1.45,0.24 1.31,3.04 -1.94,-2.27 -2.1,-0.59 -3.36,-1.3zm0.31 -4.15c-0.8,0.86 -0.3,0.85 -1.82,1.37 -0.45,0.16 -1.29,0.04 -1.81,0.02l-0.04 1.68c0.03,0.04 0.18,0.16 0.21,0.2 0.03,0.04 0.14,0.21 0.15,0.26 0.27,0.7 0.39,0.43 -0.07,1.39 -0.72,1.53 -0.45,0.46 -1.05,0.55 -0.02,0 -0.21,0.08 -0.23,0.01 -0.02,-0.08 -0.17,-0.03 -0.24,0.01l-0.24 2 8.62 0.12 0.41 -1.99 1.32 0.95c-0.32,-3.08 -0.09,-1.08 0.5,-1.79l0.51 -0.89c1.17,-1.67 0.97,-0.74 1.24,-2.86 -1.26,-1.18 -0.72,-0.67 -2.29,-1.65l-0.94 0.06c-1.62,1.73 -2.04,1.77 -4.23,0.56z"/>
    <path class="fil7" d="M25.73 21.82c-1.16,-0.24 -0.93,-0.47 -0.69,0.69 -1.07,-0.22 -0.85,-0.43 -0.64,0.65 -1.16,-0.22 -0.98,-0.49 -0.71,0.64 -1.19,-0.26 -1,-0.52 -0.69,0.66 -0.98,0.47 -0.35,-0.16 -1.62,1.04 -8.74,8.31 -9.13,21.27 -8.99,32.75 0.57,-0.79 0.4,-0.04 0.73,-1.47 0.62,-2.62 -0.13,-10.34 0.71,-12.6l1.22 -2.08c3.08,-11.23 5.98,-12.27 10.85,-19.08 -1.69,0.59 -0.93,-0.08 -2.05,0.98 -1.13,1.06 -0.38,0.4 -1.07,1.85l0.22 -1.39c1.17,0.29 0.95,0.52 0.69,-0.66 1.14,0.27 0.92,0.51 0.71,-0.64 1.11,0.24 0.89,0.45 0.64,-0.65 1.14,0.21 0.91,0.44 0.69,-0.69 1.1,0.24 0.87,0.46 0.73,-0.64 1.13,0.22 0.77,0.4 0.77,-0.87 -1.11,0.18 -0.93,-0.16 -0.77,0.87 -1.14,-0.2 -0.95,-0.47 -0.73,0.64z"/>
    <path class="fil10" d="M62.14 69.45l0.52 2.2 0.56 0.42 -0.56 -0.42c-0.52,-2.96 -0.4,-0.78 0.74,-1.46l2.63 0.67 2.27 0.18c-0.16,-0.1 -0.36,-0.23 -0.49,-0.29l-1.56 -0.74c-1.34,-0.63 -1.49,-0.35 -1.92,-1.39 1.02,0.38 0.29,0.07 1.65,0.32l6.41 0.98c-0.9,0.87 -0.46,1.36 -3.74,1.06l0 0.88c2.21,-0.18 8.89,0.46 10.8,1.98l1.11 0c0.28,-2.33 -0.05,-0.86 0.88,-2.63 -1.51,0.41 -1.32,0.88 -1.24,-0.46 -1.1,-0.12 -0.32,0.07 -1.42,-0.34 -0.11,-0.04 -0.4,-0.07 -0.48,-0.29 -0.08,-0.24 -0.32,-0.24 -0.48,-0.35 -0.95,0.67 -0.44,0.63 -0.88,-0.61l-3.15 -0.14c-1.42,-1.19 -0.65,-0.94 -1.2,-1.67l-1.42 -0.36 -8.62 -0.12 -0.41 2.58z"/>
    <path class="fil10" d="M72.78 57.69l0.08 1.07c1.57,0.98 1.03,0.47 2.29,1.65 -0.27,2.12 -0.07,1.19 -1.24,2.86l-0.51 0.89c-0.59,0.71 -0.82,-1.29 -0.5,1.79l0.45 -0.36 0.05 -1.43 0.51 -0.89c1.02,-1.13 1.06,-0.98 1.8,-2.27 1.1,0.72 0.87,0.05 2.25,1.38 1.37,1.34 0.62,0.04 1.06,1.94l-0.43 1.62 -0.67 0.03 -0.17 -0.03 0.17 0.03 0.15 0.61 0.47 0.02 0.05 -0.66 0.45 -0.06 2.44 -0.88 0.87 1.04 2.08 -0.29 -0.65 -3.02c-0.95,-0.14 -0.71,0.13 -0.6,-0.89l-0.77 -0.57 -0.99 -1.02c-1.12,-1.37 -1.8,-2.06 -2.61,-3.46l-2.25 -0.32 -0.28 1.56c-0.86,-0.57 -0.13,-0.37 -1.68,-0.6 -0.71,-0.1 -0.69,0.06 -1.82,0.26z"/>
    <path class="fil11" d="M33.48 65.96c0.38,2.13 0.59,1.24 -0.21,3.07l-1.34 -2.1c-2.25,0.83 -0.06,-0.01 -1.36,0.64l-1.53 0.78c0.66,-3.15 1.18,-3.15 4.44,-2.39zm3.29 2.39l0.4 -0.97 -0.4 0.97 -1.37 -0.16c0.45,-2.97 0.09,-1.75 -0.83,-4.36 -0.5,0.24 -1.01,0.29 -1.2,0.4 -2.71,-1.07 -0.3,-0.86 -3.6,-1.61 1,2.47 0.9,1.04 0.15,2.47 -1.56,-0.5 -0.9,0.29 -1.5,-1.65 1.35,0.18 1.07,0.52 1.07,-0.74 -1.46,-0.05 -1.3,-0.49 -1.07,0.74 -1.61,0.85 -1.55,2.2 -0.6,4.68 0.91,2.37 1.93,3.34 3.44,4.24 2.59,-0.88 4.34,-2.05 5.51,-4.01z"/>
    <path class="fil12" d="M67.02 44.93c0.57,0.14 1.18,0.19 1.63,0.61 1.02,0.97 0.48,0.09 0.6,1.51 -1.97,-1.25 -1.38,-0.14 -2.23,-2.12zm2.48 -0.97c3.05,1.84 2.12,1.52 2.57,3.01 -4.07,-2.18 -3.24,-1.88 -4.08,-3.84l1.51 0.83zm3.56 1.31c-2.5,-1.06 -1.87,-0.42 -2.37,-2.39 0.33,0.17 0.96,0.43 1.28,0.72 1.63,1.49 -0.35,-0.98 1.09,1.67zm-8.66 -2.15l-0.06 3.33c-0.14,2.19 0.46,2.02 1.51,1.37 1.06,-1.1 0.25,-0.86 1.65,-0.51 0.19,0.29 1.03,0.75 1.26,1.02l4.14 -0.35c0.97,-0.95 0.05,0.11 1.1,-1.14l1.46 -0.54 0.08 -3.43 -0.26 -1.2 -10.88 1.45z"/>
    <path class="fil13" d="M42.19 30.97l-6.12 2.24 -0.14 3.28c0.77,-0.1 0.25,0.24 1.48,-0.34 0.02,-0.01 1.25,-0.76 1.41,-0.87 1.69,-1.21 3.19,-2.09 5.65,-1.61 2.8,-1.66 3.81,-0.73 6.92,-1.19 0.55,-1.87 0.87,-1.43 -0.05,-2.73l-1.47 -0.87c-0.04,0.66 0.16,0.19 0,0.79 -0.35,1.3 0.33,-0.16 -0.62,1.11l-0.25 0.02 -1.14 -0.34 0.31 -0.92c-0.66,-0.62 1.45,-1.63 -2.85,-0.79 -0.03,0.09 -0.02,0.24 -0.02,0.28 -0.01,0.04 0,0.25 -0.01,0.3 -0.01,0.06 0.01,0.27 -0.01,0.34 -0.6,1.95 2,-1.64 -0.21,0.7 -0.85,0.9 -1.48,0.69 -2.88,0.6z"/>
    <path class="fil11" d="M43.01 71.3l-1.06 0.26c0.06,-1.82 -0.52,-1.61 0.74,-1.61l1.29 -1.03c0.6,-0.77 0.47,-1.35 2.08,-0.2 1.31,-0.24 1.15,-0.6 0.89,0.63l0.56 0.38c1,-1.5 0.25,-2.37 0.55,-3.32l1.59 1c0.1,1.6 -0.25,1.76 -1.35,3.05 0.4,-1.13 0.18,-0.17 -0.61,-0.78 -0.31,2.41 0.64,0.98 -1.03,2.88 -1.96,-1.27 -1.01,1.33 -1.17,-2.43l-1.15 0.04 -0.48 0.28c0.18,1.42 0.5,1.16 -0.89,0.85l1.98 1.38c0.07,-0.12 0.28,0.15 0.43,0.22 -0.13,0.11 1.23,2.46 -1.63,0.47 -0.32,-0.22 -0.62,-1.58 -0.74,-2.07zm3.63 2.74l1.07 -0.53c0.81,-1.13 0.08,-0.14 0.99,-1.22 0.76,-0.9 2.13,-2.19 1.85,-4 -0.54,-3.52 -4.13,-1.47 -4.56,-1.28 -2.06,-1.82 -1.26,-2.82 -5.08,-1.28 -1.36,4.16 0.92,6.8 3.12,9.26l2.61 -0.95z"/>
    <path class="fil10" d="M74.48 49.58c-2.96,-1.91 3.38,1.71 -1.66,-0.54l-5.51 0.64 -0.94 -0.4 -2.78 0.57 1.03 3.21c2.41,-0.38 4.57,-0.56 6.83,-0.83 1.14,-0.13 3.11,-0.52 4.04,-0.56 0.52,-0.02 1.5,-0.01 1.99,0.13 2,0.59 1.18,0.62 1.64,1.01 0.19,4.85 0.42,1.26 -1.11,2.88l-1.49 -0.57 -0.59 -0.82 -0.3 -0.81 0.3 0.81 0.59 0.82 1.49 0.57 1.79 1.14 -0.27 -3.43 -2.62 -5.3 -0.79 -0.06 -0.76 0.16c0.61,2.39 0.89,1.69 -0.22,2.81 -0.84,-0.89 -0.1,-0.23 -0.66,-1.43z"/>
    <path class="fil8" d="M64.62 53.06l0.44 0.92 6.35 -0.27 -3.69 1.59 0.61 1.5 1.1 2.14c1.49,-0.61 0.51,0.37 1.59,-0.9 0.15,-3.39 1.5,-4.24 4.61,-4.55l0.3 0.81 0.59 0.82 1.49 0.57c1.53,-1.62 1.3,1.97 1.11,-2.88 -0.46,-0.39 0.36,-0.42 -1.64,-1.01 -0.49,-0.14 -1.47,-0.15 -1.99,-0.13 -0.93,0.04 -2.9,0.43 -4.04,0.56 -2.26,0.27 -4.42,0.45 -6.83,0.83z"/>
    <path class="fil12" d="M63.14 38.8l-0.8 2.91 12.52 -1.14 1.99 -0.59 -0.03 -1.08 -0.05 -1.45 -1.76 -0.06 -2.89 -0.27c-0.14,0.12 -0.34,0.26 -0.44,0.33 -0.09,0.07 -0.31,0.24 -0.43,0.32 -2.7,1.93 -1.07,1.4 -3.17,1.7 -1.23,0.18 -3.78,-0.48 -4.94,-0.67z"/>
    <path class="fil6" d="M48.31 53.37c-3.32,-0.87 -1.28,0.57 -1.87,-2.24 2.58,1.43 0.92,-0.86 1.87,2.24zm-4.66 -3.26c0.57,2.01 0.38,3.31 -0.11,5.08l4.51 1.9c1.68,-2.36 2.05,-3.77 2.25,-7.36l-3.88 -0.46c-0.31,1 0.29,0.76 -0.47,1.39l-2.3 -0.55z"/>
    <path class="fil8" d="M32.73 38.75c-3.16,1.64 -2.46,0.24 -2.82,0 2,-1.7 1.62,-0.85 2.82,0zm-8.92 -1.71c1,0.54 3.41,2.56 -0.29,1.78l-0.76 3.11 2.65 -0.41 0.41 -0.5 0.5 0.19 -0.5 -0.19c-0.3,-2.71 -0.34,-1.16 0.67,-1.46 2.03,0.2 0.78,-0.05 1.63,1.36l0.86 2 1.56 -0.01c0.56,-1.18 0.59,-1.18 0.68,-2.82 0.07,-0.04 0.22,-0.14 0.24,-0.07 0.03,0.09 0.23,-0.06 0.28,-0.07l1.58 -0.53 -1.27 -3.4 -2.92 -0.11 -0.61 3.12 -2.03 0.53c-0.92,-1.58 -0.29,-2.01 -0.28,-3.94l-2.75 -0.23 0.35 1.65z"/>
    <path class="fil14" d="M43.38 54.17c-1.21,-0.44 -0.4,-0.02 -1.47,-0.71l-2.37 -2.4c0.33,-0.72 2.79,-0.87 3.23,-0.89 1.4,2.59 0.86,2.63 0.61,4zm-2.12 -11.09l-0.29 2.59c-1,0.54 1.26,0.45 -1.7,0.67 -2.04,0.15 -2.53,-0.87 -3.35,-1.59 0.94,1.8 1.14,1.92 4.03,2.51l2.32 1.62 -3.6 2.32 1.64 1.93c0.1,0.1 0.23,0.23 0.33,0.33 0.11,0.09 0.22,0.24 0.33,0.33 0.12,0.1 0.24,0.24 0.37,0.34l2.2 1.06c0.49,-1.77 0.68,-3.07 0.11,-5.08 0.25,-0.15 0.6,-0.64 0.91,-0.98 -1.83,-0.44 -1.35,0.23 -2.13,-0.54 0.6,-3.12 -0.5,-0.76 0.84,-2.63l2.38 -0.21 0.99 1.12 -0.22 2.4 3.88 0.46 -0.05 -0.48c-2.28,-1.03 -1.55,0.22 -1.63,-3.35 1.28,-0.83 -0.07,-0.22 2.06,-0.67l-0.01 -1.23c-3.8,1.51 -1.47,1.23 -4.03,2.87l-0.99 -1.12c-0.62,-0.85 -0.17,-0.52 -2.38,0.21l-1.47 0.59c-0.05,-0.11 -0.23,0.14 -0.33,0.23 0.43,-1.96 0.82,-1.88 -0.21,-3.7z"/>
    <path class="fil13" d="M33.81 48.29c0.39,3.34 0.35,1.06 2.12,3.51 2.06,1.72 3.85,2.96 6.03,4.36 2.11,1.35 3.96,2.94 6.09,0.93l-4.51 -1.9 -2.2 -1.06c-0.13,-0.1 -0.25,-0.24 -0.37,-0.34 -0.11,-0.09 -0.22,-0.24 -0.33,-0.33 -0.1,-0.1 -0.23,-0.23 -0.33,-0.33l-1.64 -1.93c-1.98,-1.51 -1.83,-1.98 -4.62,-3.18l-0.24 0.27z"/>
    <path class="fil6" d="M73.91 63.27l-0.51 0.89 -0.05 1.43c0.91,1.02 1.03,-1.35 0.7,1.29l-1.46 0.47c0.55,0.73 -0.22,0.48 1.2,1.67l3.15 0.14c0.07,-0.18 0.16,-0.64 0.2,-0.54 0.04,0.1 0.16,-0.42 0.21,-0.53 0.15,-0.34 0.58,-1.25 0.72,-1.51l-0.15 -0.61 -0.17 -0.03 -2.24 -1.07c1.32,-1.42 1.73,-1.22 3.51,-0.55 -0.44,-1.9 0.31,-0.6 -1.06,-1.94 -1.38,-1.33 -1.15,-0.66 -2.25,-1.38 -0.74,1.29 -0.78,1.14 -1.8,2.27z"/>
    <path class="fil15" d="M51.34 29.75c-0.65,-1.41 0.86,-1.3 -1.47,-0.87 -0.64,-0.63 1.35,-0.47 -1.84,-1.04 -1.08,-0.19 -1.31,0.01 -2.23,0.12 -3.34,0.34 -9.06,1.65 -10.63,4.09 1.25,0.67 -1.11,0.89 1.59,0.26 1.63,-0.39 0.07,-0.11 1.85,-0.81 1.36,-0.54 2.71,-0.95 4.33,-1.11 -1.64,-0.17 -0.02,-0.13 -0.75,0.58 1.4,0.09 2.03,0.3 2.88,-0.6 2.21,-2.34 -0.39,1.25 0.21,-0.7 0.02,-0.07 0,-0.28 0.01,-0.34 0.01,-0.05 0,-0.26 0.01,-0.3 0,-0.04 -0.01,-0.19 0.02,-0.28 4.3,-0.84 2.19,0.17 2.85,0.79l-0.31 0.92 0.31 -0.92 1.48 -0.4 -0.4 1.64 -0.25 0.02 0.25 -0.02c0.95,-1.27 0.27,0.19 0.62,-1.11 0.16,-0.6 -0.04,-0.13 0,-0.79l1.47 0.87z"/>
    <path class="fil12" d="M35.93 41.52l-0.01 3.23c0.82,0.72 1.31,1.74 3.35,1.59 2.96,-0.22 0.7,-0.13 1.7,-0.67l0.29 -2.59 0.1 -0.25c-1.14,0 -0.85,0.21 -0.44,-0.94 -1.23,0.24 -0.98,0.57 -1.08,-0.5 -2.73,0.16 -1.52,-0.78 -3.91,0.13z"/>
    <path class="fil12" d="M69.37 73.57l9.75 1.66c-0.33,-1.22 -0.5,-0.95 0.72,-0.6l-0.39 -0.79c-1.91,-1.52 -8.59,-2.16 -10.8,-1.98 -0.94,1.31 -1.59,0.3 0.72,1.71z"/>
    <path class="fil16" d="M62.34 41.71l0.05 1.05 2.01 0.36c-0.22,0.15 -0.97,-0.8 -0.94,1.65 0.03,2.66 0.41,1.25 0.88,1.68l0.06 -3.33 10.88 -1.45 0.26 1.2 -0.08 3.43c0.79,-1.94 0.31,-1.68 0.08,-3.43 0.57,-1.61 1.22,-1.66 -0.26,-1.2l-0.42 -1.1 -12.52 1.14z"/>
    <path class="fil9" d="M79.04 65.88c0.18,0.94 0.41,0.75 -0.5,0.72l-0.72 3.17 2.34 -0.03 0.04 1.01 1.24 0.46 2.99 -5.46 -2.08 0.29 -3.31 -0.16z"/>
    <path class="fil9" d="M55.43 43.22l0.74 3.72 -0.05 1.27c0.06,0.81 -0.11,0.37 0.1,1.37l0.82 2.56c0.09,-1.95 -0.51,-1.63 1.01,-1.71l-0.08 -6.99c-1.94,-2.15 -0.07,-1.57 -2.11,-0.47 0.89,-1.86 0.32,-1 1.33,-2.11l-1.95 -0.22 0.19 2.58z"/>
    <path class="fil17" d="M71.02 58.04l-0.29 0.71 0.45 0.56 0.74 -0.49 0.94 -0.06 -0.08 -1.07c-0.07,-1.34 -0.1,-1.36 1.08,-2.53 2,0.05 0.82,0.49 2.7,1.31l2.25 0.32c0.81,1.4 1.49,2.09 2.61,3.46l0.99 1.02 0.77 0.57c-0.11,1.02 -0.35,0.75 0.6,0.89l-0.6 -0.89 -0.77 -0.57 -0.19 -1.13 -0.8 0.11 0.25 -0.89c-2.78,-0.62 -3.5,-0.92 -1.54,-3.2l0.18 -2.85 -0.78 0.09 0.27 3.43 -1.79 -1.14 -1.49 -0.57 -0.59 -0.82 -0.3 -0.81c-3.11,0.31 -4.46,1.16 -4.61,4.55z"/>
    <path class="fil12" d="M45.02 40.57c0.21,1.93 0.68,2.15 3.45,2.1l0.37 -0.21c0,-1.01 -0.25,-0.73 0.78,-0.81l0.03 -1.75 -0.28 -1.19 -4.2 -0.8 -0.15 2.66z"/>
    <path class="fil2" d="M48.47 42.67c-2.77,0.05 -3.24,-0.17 -3.45,-2.1 -0.65,-0.74 -0.79,1.06 -0.74,-2.38l-0.76 -0.56 -1.46 3.7c0.8,0.99 4.29,5.26 6.41,1.34z"/>
    <path class="fil14" d="M43.52 37.63l0.76 0.56 0.74 -0.43c3.06,-1.55 3.67,-0.91 4.35,0.95l0.28 1.19 -0.03 1.75c-1.03,0.08 -0.78,-0.2 -0.78,0.81 1.14,-0.08 0.95,0.25 0.78,-0.81 1.05,-1.31 0.6,-0.73 0.42,-2.9l-2.75 -4.51 -3.08 0.77c-1.38,0.38 -0.88,0.55 -1.58,2.35 0.1,-0.1 0.26,-0.39 0.32,-0.29l1.56 -1.17c0.2,-0.15 0.47,-0.32 0.71,-0.49 -0.81,2.35 0.56,1.95 -1.7,2.22z"/>
    <path class="fil18" d="M63.17 37.67l-0.03 1.13c1.16,0.19 3.71,0.85 4.94,0.67 2.1,-0.3 0.47,0.23 3.17,-1.7 0.12,-0.08 0.34,-0.25 0.43,-0.32 0.1,-0.07 0.3,-0.21 0.44,-0.33l-8.95 0.55z"/>
    <path class="fil5" d="M30.58 43.39l-0.04 -0.48 -1.56 0.01 -0.77 -0.02c-0.18,2.74 -0.75,4.12 0.37,6.07 1.86,-0.79 1.95,-0.5 2,-5.58z"/>
    <path class="fil5" d="M22.58 48.88l0.18 -0.09 2.14 0.24c-0.36,-1.55 0.02,-3.62 0.29,-6.19l-2.32 -0.16 -0.29 6.2z"/>
    <path class="fil10" d="M30.54 42.91l0.04 0.48 1.26 -0.45 0.76 -1.46 0.68 0.85 0.58 0 0.4 -5.91 -2.21 -0.4 1.27 3.4 -1.58 0.53c-0.05,0.01 -0.25,0.16 -0.28,0.07 -0.02,-0.07 -0.17,0.03 -0.24,0.07 -0.09,1.64 -0.12,1.64 -0.68,2.82z"/>
    <path class="fil12" d="M43.27 45.96c-1.34,1.87 -0.24,-0.49 -0.84,2.63 0.78,0.77 0.3,0.1 2.13,0.54l1.86 0.14 0.22 -2.4 -0.99 -1.12 -2.38 0.21z"/>
    <path class="fil11" d="M64.06 60.77c0.52,0.02 1.36,0.14 1.81,-0.02 1.52,-0.52 1.02,-0.51 1.82,-1.37l-1.61 -3.42c-0.87,0.58 -1.52,-0.76 -2.02,4.81z"/>
    <path class="fil15" d="M23.89 54.14c-1.49,-2.02 -0.55,-2.3 -0.31,-3l1.54 0.33c0.01,0.02 2.73,1.07 -1.23,2.67zm3.17 -3.62l0.11 -0.28 -0.85 -1.37c1.65,-0.25 0.31,-0.17 0.74,1.65 -2.32,-0.16 -3.62,0.42 -4.3,-1.73l-0.18 0.09 -0.01 0.28c-0.14,2.07 -1.14,6.8 2.45,5.56 0.14,-0.04 0.33,-0.15 0.45,-0.23 0.13,-0.07 0.28,-0.21 0.39,-0.32 0.1,-0.1 0.21,-0.27 0.3,-0.4l0.9 -3.25z"/>
    <path class="fil16" d="M46.06 68.72l0.89 0.63 -0.27 2.4c-1.03,-2.9 -0.6,-0.86 -1.19,-1.62l-1.15 0.04 1.15 -0.04c0.16,3.76 -0.79,1.16 1.17,2.43 1.67,-1.9 0.72,-0.47 1.03,-2.88l-0.18 0.05 -0.56 -0.38c0.26,-1.23 0.42,-0.87 -0.89,-0.63 -1.61,-1.15 -1.48,-0.57 -2.08,0.2l2.08 -0.2zm-3.09 2.58c1.39,0.31 1.07,0.57 0.89,-0.85 -1.07,0 -0.75,-0.25 -0.89,0.85l0.04 0 -0.32 -1.35c-1.26,0 -0.68,-0.21 -0.74,1.61l1.06 -0.26c0.12,0.49 0.42,1.85 0.74,2.07 2.86,1.99 1.5,-0.36 1.63,-0.47 -0.15,-0.07 -0.36,-0.34 -0.43,-0.22l-1.98 -1.38z"/>
    <path class="fil11" d="M63.59 49.85l2.78 -0.57 -0.52 -1.46c-1.05,0.65 -1.65,0.82 -1.51,-1.37 -0.47,-0.43 -0.85,0.98 -0.88,-1.68 -0.03,-2.45 0.72,-1.5 0.94,-1.65l-2.01 -0.36c0.31,2.1 -0.01,5.27 1.2,7.09z"/>
    <path class="fil9" d="M52.74 24.68l3.03 2.53c0.48,-1.65 0.36,-1.35 1.26,-2.53 -0.09,-0.15 -0.24,-0.56 -0.28,-0.46 -0.49,1.18 -0.44,-0.76 -0.53,-0.92 -0.44,-0.84 -0.22,-0.33 -0.69,-1.44l-2.79 2.82z"/>
    <path class="fil10" d="M21.33 37.74c1.04,-0.59 1.09,-0.63 2.48,-0.7l-0.35 -1.65 -2.46 -0.89 -1.25 2.25c0.97,1.35 -0.24,0.28 1.58,0.99zm-2.55 3.61l0.2 0c0.92,-1.54 0.92,-1.49 0.74,-3.85l-0.94 3.85z"/>
    <path class="fil19" d="M67.5 47.31l-0.19 2.37 5.51 -0.64c5.04,2.25 -1.3,-1.37 1.66,0.54l-0.22 -0.74 -0.26 -2c-1.05,1.25 -0.13,0.19 -1.1,1.14l-4.14 0.35c-0.23,-0.27 -1.07,-0.73 -1.26,-1.02z"/>
    <path class="fil11" d="M74.86 40.57l0.42 1.1c1.48,-0.46 0.83,-0.41 0.26,1.2 0.23,1.75 0.71,1.49 -0.08,3.43l0.66 1.74 0.79 0.06 -0.06 -8.12 -1.99 0.59z"/>
    <path class="fil10" d="M26.49 39.56l2.03 -0.53 0.61 -3.12 -2.92 -0.29c-0.01,1.93 -0.64,2.36 0.28,3.94z"/>
    <path class="fil17" d="M68.3 71.04l0.35 -0.06c3.28,0.3 2.84,-0.19 3.74,-1.06l-6.41 -0.98c-1.36,-0.25 -0.63,0.06 -1.65,-0.32 0.43,1.04 0.58,0.76 1.92,1.39l1.56 0.74c0.13,0.06 0.33,0.19 0.49,0.29z"/>
    <path class="fil12" d="M29.04 68.35l1.53 -0.78c1.3,-0.65 -0.89,0.19 1.36,-0.64l1.34 2.1c0.8,-1.83 0.59,-0.94 0.21,-3.07 -3.26,-0.76 -3.78,-0.76 -4.44,2.39z"/>
    <path class="fil8" d="M24.72 73.29l0.86 0.25 0.99 -0.26 0.43 -0.6 0.72 -0.61 0.43 -0.38 -0.41 -1.26c0,-1.13 0.2,-0.68 -1.28,-0.54 -1.5,1.39 -1.71,1.03 -1.74,3.4z"/>
    <path class="fil10" d="M21.25 38.6c-1.21,0.04 -0.65,1.78 -0.59,3.04l2.1 0.29 0.76 -3.11c-1.08,-0.86 0.19,-0.38 -2.27,-0.22z"/>
    <path class="fil20" d="M35.81 74.22l-0.3 1.13c0.97,0 0.83,-0.26 0.6,0.65l2.78 -0.07c1.82,-2.97 -1.08,1.78 0.38,-1.86 0.05,-0.95 0.26,-0.71 -0.72,-0.62 0.06,1.04 0.32,0.84 -0.67,0.73 -0.52,0.83 -0.13,0.88 -0.58,0.05l-0.53 -1.46 -0.96 -0.04 0 1.49z"/>
    <path class="fil1" d="M36.77 68.35l0.4 -0.97c0.28,-3.08 0.25,-3.01 -2.6,-3.55 0.92,2.61 1.28,1.39 0.83,4.36l1.37 0.16z"/>
    <path class="fil7" d="M39.35 36.01c1.2,-1.75 1.91,-1.78 4.08,-2.14 -0.82,3.18 -1.27,3.57 -4.08,2.14zm-0.53 -0.73c0.53,1.24 0.48,1.24 1.07,2.15l2.74 -0.07c0.7,-1.8 0.2,-1.97 1.58,-2.35l0.26 -1.34c-2.46,-0.48 -3.96,0.4 -5.65,1.61z"/>
    <path class="fil21" d="M39.35 36.01c2.81,1.43 3.26,1.04 4.08,-2.14 -2.17,0.36 -2.88,0.39 -4.08,2.14z"/>
    <path class="fil22" d="M70.81 34.82c-1.67,1.58 -0.87,-0.26 -1.76,1.31 2.49,1.37 2.16,-0.39 2.95,-1.43 1.75,-2.3 1.21,1.39 2.05,-2.08l-1.27 -0.48c-1.79,1.65 -0.37,1.17 -1.97,2.68z"/>
    <path class="fil6" d="M72.78 57.69c1.13,-0.2 1.11,-0.36 1.82,-0.26 1.55,0.23 0.82,0.03 1.68,0.6l0.28 -1.56c-1.88,-0.82 -0.7,-1.26 -2.7,-1.31 -1.18,1.17 -1.15,1.19 -1.08,2.53z"/>
    <path class="fil19" d="M79.04 65.88l-0.45 0.06 -0.05 0.66 -0.47 -0.02c-0.14,0.26 -0.57,1.17 -0.72,1.51 -0.05,0.11 -0.17,0.63 -0.21,0.53 -0.04,-0.1 -0.13,0.36 -0.2,0.54 0.44,1.24 -0.07,1.28 0.88,0.61 0.16,0.11 0.4,0.11 0.48,0.35 0.08,0.22 0.37,0.25 0.48,0.29 1.1,0.41 0.32,0.22 1.42,0.34 -0.08,1.34 -0.27,0.87 1.24,0.46l-1.24 -0.46 -0.04 -1.01 -2.34 0.03 0.72 -3.17c0.91,0.03 0.68,0.22 0.5,-0.72l3.31 0.16 -0.87 -1.04 -2.44 0.88z"/>
    <path class="fil21" d="M50.25 49.25l0.02 0.08 0.41 -4.1c-2.13,0.45 -0.78,-0.16 -2.06,0.67 0.08,3.57 -0.65,2.32 1.63,3.35z"/>
    <path class="fil23" d="M64.93 71.9c1.56,1.45 2.18,1.18 4.44,1.67 -2.31,-1.41 -1.66,-0.4 -0.72,-1.71l0 -0.88 -0.35 0.06 -2.27 -0.18 -1.1 1.04z"/>
    <path class="fil8" d="M47.11 76.75l0.94 2.08c2.31,-0.02 0.22,0.24 1.28,-1.15l-0.15 -1.95 -0.14 -0.65 -1.42 -0.06 -0.51 1.73z"/>
    <path class="fil20" d="M44.28 38.19c-0.05,3.44 0.09,1.64 0.74,2.38l0.15 -2.66 4.2 0.8 0.28 1.19 -0.28 -1.19c-0.68,-1.86 -1.29,-2.5 -4.35,-0.95l-0.74 0.43z"/>
    <path class="fil13" d="M23.89 54.14c3.96,-1.6 1.24,-2.65 1.23,-2.67l-1.54 -0.33c-0.24,0.7 -1.18,0.98 0.31,3z"/>
    <path class="fil24" d="M26.03 65.51l0.73 -1.99c-0.79,-1.97 0.53,-0.97 -1.92,-1.6 -0.81,2.97 -0.85,2.24 1.19,3.59z"/>
    <path class="fil20" d="M27.06 50.52c-0.43,-1.82 0.91,-1.9 -0.74,-1.65l-1.42 0.16 -2.14 -0.24c0.68,2.15 1.98,1.57 4.3,1.73z"/>
    <path class="fil12" d="M42.69 69.95l0.32 1.35 -0.04 0c0.14,-1.1 -0.18,-0.85 0.89,-0.85l0.48 -0.28 1.15 -0.04c0.59,0.76 0.16,-1.28 1.19,1.62l0.27 -2.4 -0.89 -0.63 -2.08 0.2 -1.29 1.03z"/>
    <polygon class="fil10" points="25.19,42.84 28.21,42.9 28.98,42.92 28.12,40.92 26.32,41.21 25.82,41.02 25.41,41.52 "/>
    <path class="fil10" d="M65.06 53.98l-2.2 5.88c0.41,-1.18 1.02,-7.16 4.51,-4.22 0.13,0.11 0.26,1.58 0.66,0.75 0.05,-0.12 0.19,0.28 0.3,0.41l-0.61 -1.5 3.69 -1.59 -6.35 0.27z"/>
    <path class="fil19" d="M61.36 77.46c0.69,-1.76 -1.05,-1.47 -1.3,-1.64 -0.94,1.33 -1.25,-1.96 -0.88,2.71 1.49,-0.64 1.19,1.45 2.18,-1.07z"/>
    <path class="fil22" d="M21.33 37.74l-0.08 0.86c2.46,-0.16 1.19,-0.64 2.27,0.22 3.7,0.78 1.29,-1.24 0.29,-1.78 -1.39,0.07 -1.44,0.11 -2.48,0.7z"/>
    <path class="fil23" d="M70.74 64.83c0.14,-2.8 0.58,-1.46 -1.31,-3.04 -1.61,0.5 -1.22,0.21 -2.05,1.74 1.26,0.71 1.42,-0.97 3.36,1.3z"/>
    <path class="fil24" d="M46.08 75.83c0.82,1.59 -0.03,0.12 1.03,0.92l0.51 -1.73 1.42 0.06 0.07 -1.43 -1.4 -0.14 -1.07 0.53 -0.56 1.79z"/>
    <path class="fil16" d="M72.07 46.97c-0.45,-1.49 0.48,-1.17 -2.57,-3.01l-1.51 -0.83c0.84,1.96 0.01,1.66 4.08,3.84z"/>
    <path class="fil21" d="M40.04 51.29c1.95,3.11 -0.49,1.95 2.6,1.87l0.17 -1.59c-0.27,-0.05 -0.36,-1.77 -2.77,-0.28z"/>
    <path class="fil25" d="M77.75 65.94l0.17 0.03 0.67 -0.03 0.43 -1.62c-1.78,-0.67 -2.19,-0.87 -3.51,0.55l2.24 1.07z"/>
    <path class="fil1" d="M47.51 69.73l0.18 -0.05c0.79,0.61 1.01,-0.35 0.61,0.78 1.1,-1.29 1.45,-1.45 1.35,-3.05l-1.59 -1c-0.3,0.95 0.45,1.82 -0.55,3.32z"/>
    <path class="fil12" d="M62.66 71.65l0.56 0.42 1.71 -0.17 1.1 -1.04 -2.63 -0.67c-1.14,0.68 -1.26,-1.5 -0.74,1.46z"/>
    <path class="fil14" d="M35.93 41.52c2.39,-0.91 1.18,0.03 3.91,-0.13 0.1,1.07 -0.15,0.74 1.08,0.5 -0.41,1.15 -0.7,0.94 0.44,0.94l-0.44 -0.94 -1.08 -0.5c-0.98,-0.68 -0.8,-0.95 -4.63,-1.49l0.72 1.62z"/>
    <path class="fil16" d="M42.64 53.16c-3.09,0.08 -0.65,1.24 -2.6,-1.87 2.41,-1.49 2.5,0.23 2.77,0.28l-0.17 1.59zm-3.1 -2.1l2.37 2.4c1.07,0.69 0.26,0.27 1.47,0.71 0.25,-1.37 0.79,-1.41 -0.61,-4 -0.44,0.02 -2.9,0.17 -3.23,0.89z"/>
    <path class="fil22" d="M66.78 33.31c-2.77,-0.26 -0.62,0.06 -1.51,0.75 0.16,2.21 0.31,0.72 1.46,0.74 2.92,0.05 0.53,-0.13 1.45,-0.74 -0.34,-0.27 1.5,-0.49 -1.4,-0.75z"/>
    <path class="fil20" d="M71.17 66.99l1.42 0.36 1.46 -0.47c0.33,-2.64 0.21,-0.27 -0.7,-1.29l-0.45 0.36 -1.32 -0.95 -0.41 1.99z"/>
    <polygon class="fil6" points="74.26,48.84 75.36,48.2 76.12,48.04 75.46,46.3 74,46.84 "/>
    <path class="fil22" d="M25.82 41.02l0.5 0.19 1.8 -0.29c-0.85,-1.41 0.4,-1.16 -1.63,-1.36 -1.01,0.3 -0.97,-1.25 -0.67,1.46z"/>
    <path class="fil20" d="M29.91 38.75c0.36,0.24 -0.34,1.64 2.82,0 -1.2,-0.85 -0.82,-1.7 -2.82,0z"/>
    <path class="fil6" d="M65.85 47.82l0.52 1.46 0.94 0.4 0.19 -2.37c-1.4,-0.35 -0.59,-0.59 -1.65,0.51z"/>
    <path class="fil8" d="M43.65 50.11l2.3 0.55c0.76,-0.63 0.16,-0.39 0.47,-1.39l-1.86 -0.14c-0.31,0.34 -0.66,0.83 -0.91,0.98z"/>
    <path class="fil16" d="M28.42 63.44c0.6,1.94 -0.06,1.15 1.5,1.65 0.75,-1.43 0.85,0 -0.15,-2.47l-0.28 0.08c0,1.26 0.28,0.92 -1.07,0.74z"/>
    <path class="fil18" d="M74.26 48.84l0.22 0.74c0.56,1.2 -0.18,0.54 0.66,1.43 1.11,-1.12 0.83,-0.42 0.22,-2.81l-1.1 0.64z"/>
    <path class="fil26" d="M48.31 53.37c-0.95,-3.1 0.71,-0.81 -1.87,-2.24 0.59,2.81 -1.45,1.37 1.87,2.24z"/>
    <polygon class="fil24" points="22.87,42.68 25.19,42.84 25.41,41.52 22.76,41.93 "/>
    <path class="fil27" d="M30.58 33.37c0.21,-3.51 -0.05,-1.15 -0.66,-2.15 -0.61,0.69 -2.63,-1.98 -0.11,1.56 0.13,0.19 0.46,0.51 0.77,0.59z"/>
    <path class="fil5" d="M73.06 45.27c-1.44,-2.65 0.54,-0.18 -1.09,-1.67 -0.32,-0.29 -0.95,-0.55 -1.28,-0.72 0.5,1.97 -0.13,1.33 2.37,2.39z"/>
    <path class="fil5" d="M67.02 44.93c0.85,1.98 0.26,0.87 2.23,2.12 -0.12,-1.42 0.42,-0.54 -0.6,-1.51 -0.45,-0.42 -1.06,-0.47 -1.63,-0.61z"/>
    <path class="fil23" d="M59.79 47.17c0.81,-1.45 1.26,-1.41 -0.78,-2.03 -0.18,2.29 -0.78,0.84 0.78,2.03z"/>
    <polygon class="fil10" points="47.86,30.46 49,30.8 49.25,30.78 49.65,29.14 48.17,29.54 "/>
    <path class="fil9" d="M60.73 56.28c0.54,-0.77 1.91,1.83 0,-1.9 -1.14,1.76 -1.39,-2.49 -0.54,1.02 0.02,0.07 0.14,0.38 0.16,0.45 0.03,0.09 0.22,0.33 0.38,0.43z"/>
    <polygon class="fil18" points="76.82,38.9 77.52,36.6 75.01,37.39 76.77,37.45 "/>
    <path class="fil27" d="M24.14 34.34l1.88 -1.29c-1.49,0.13 -1.76,-0.72 -1.88,1.29z"/>
    <path class="fil10" d="M64.49 36.19l1.38 1.07c-0.17,-1.6 0.56,-1.8 -1.38,-1.07z"/>
    <path class="fil10" d="M75.6 35.03c-1.26,-0.33 -0.53,-1.73 -1.69,0.54l1.69 -0.54z"/>
   </g>
   <circle class="fil28 str1" cx="52.19" cy="51.46" r="38.66"/>
  </g>
 </g>
</svg>
