<?xml version="1.0" encoding="UTF-8"?>
<!DOCTYPE svg PUBLIC "-//W3C//DTD SVG 1.1//EN" "http://www.w3.org/Graphics/SVG/1.1/DTD/svg11.dtd">
<!-- Creator: CorelDRAW 2021 (64 Bit) -->
<svg xmlns="http://www.w3.org/2000/svg" xml:space="preserve" width="63.6986mm" height="63.6356mm" version="1.1" style="shape-rendering:geometricPrecision; text-rendering:geometricPrecision; image-rendering:optimizeQuality; fill-rule:evenodd; clip-rule:evenodd"
viewBox="0 0 243.71 243.47"
 xmlns:xlink="http://www.w3.org/1999/xlink"
 xmlns:xodm="http://www.corel.com/coreldraw/odm/2003">
 <defs>
  <style type="text/css">
   <![CDATA[
    .str0 {stroke:#B8B4B6;stroke-width:16.2;stroke-miterlimit:22.9256}
    .str2 {stroke:#AFB3B0;stroke-width:25.91;stroke-miterlimit:22.9256}
    .str5 {stroke:#919191;stroke-width:0.97;stroke-miterlimit:22.9256}
    .str1 {stroke:black;stroke-width:0.29;stroke-miterlimit:22.9256}
    .str6 {stroke:#C7C5C5;stroke-width:0.29;stroke-miterlimit:22.9256}
    .str8 {stroke:#5E5E5E;stroke-width:6.48;stroke-linecap:round;stroke-miterlimit:22.9256}
    .str4 {stroke:black;stroke-width:16.2;stroke-linecap:round;stroke-miterlimit:22.9256}
    .str7 {stroke:black;stroke-width:8.1;stroke-linecap:round;stroke-miterlimit:22.9256}
    .str3 {stroke:black;stroke-width:16.2;stroke-linecap:square;stroke-miterlimit:22.9256}
    .fil0 {fill:none}
    .fil2 {fill:#E6E7E8}
    .fil1 {fill:#99FFFF}
   ]]>
  </style>
 </defs>
 <g id="Camada_x0020_1">
  <metadata id="CorelCorpID_0Corel-Layer"/>
  <path class="fil0 str0" d="M18.31 8.1l207.32 0c5.51,-0 9.97,5.1 9.97,11.38l0 204.5c0,6.29 -4.47,11.38 -9.97,11.38l-207.32 0c-5.51,-0 -9.97,-5.1 -9.97,-11.38 0,-24.57 -0.36,-198.07 -0.2,-206.97 0.09,-4.92 6.06,-8.91 10.18,-8.91z"/>
 </g>
 <g id="Camada_x0020_1_0">
  <metadata id="CorelCorpID_1Corel-Layer"/>
  <g id="_2490857529920">
   <polygon class="fil1 str1" points="110.92,175.84 77.4,175.77 77.4,67.62 166.31,67.62 110.4,95.93 "/>
   <polyline class="fil0 str2" points="70.4,176.02 70.37,61.1 173.43,61.1 "/>
   <polyline class="fil0 str3" points="76.45,172.12 76.45,65.87 169.56,65.87 "/>
   <polygon class="fil0 str4" points="169.56,69.27 112.31,97.17 112.31,203.17 169.62,166.28 "/>
   <polygon class="fil2 str5" points="166.19,163.92 165.85,74.99 116.48,99.33 116.48,195.03 "/>
   <line class="fil0 str6" x1="116.05" y1="107.2" x2="165.87" y2= "81.46" />
   <line class="fil0 str6" x1="116.05" y1="184.96" x2="166.15" y2= "155.69" />
   <line class="fil0 str6" x1="116.05" y1="177.18" x2="166.12" y2= "147.93" />
   <line class="fil0 str6" x1="116.05" y1="169.41" x2="166.09" y2= "139.83" />
   <line class="fil0 str6" x1="116.05" y1="161.63" x2="166.07" y2= "132.25" />
   <line class="fil0 str6" x1="116.05" y1="153.86" x2="166.04" y2= "124.43" />
   <line class="fil0 str6" x1="116.05" y1="146.08" x2="166.01" y2= "116.74" />
   <line class="fil0 str6" x1="116.05" y1="138.3" x2="165.98" y2= "109.81" />
   <line class="fil0 str6" x1="116.05" y1="130.53" x2="165.95" y2= "102.26" />
   <line class="fil0 str6" x1="116.05" y1="122.75" x2="165.93" y2= "95.42" />
   <line class="fil0 str6" x1="116.05" y1="114.98" x2="165.9" y2= "88.32" />
   <line class="fil0 str7" x1="121.39" y1="154.29" x2="121.17" y2= "143.07" />
   <line class="fil0 str8" x1="121.28" y1="148.68" x2="129.57" y2= "144.56" />
  </g>
 </g>
</svg>
