<?xml version="1.0" encoding="UTF-8"?>
<!DOCTYPE svg PUBLIC "-//W3C//DTD SVG 1.1//EN" "http://www.w3.org/Graphics/SVG/1.1/DTD/svg11.dtd">
<!-- Creator: CorelDRAW 2021 (64 Bit) -->
<svg xmlns="http://www.w3.org/2000/svg" xml:space="preserve" width="59.2667mm" height="59.2667mm" version="1.1" style="shape-rendering:geometricPrecision; text-rendering:geometricPrecision; image-rendering:optimizeQuality; fill-rule:evenodd; clip-rule:evenodd"
viewBox="0 0 283.28 283.28"
 xmlns:xlink="http://www.w3.org/1999/xlink"
 xmlns:xodm="http://www.corel.com/coreldraw/odm/2003">
 <defs>
  <style type="text/css">
   <![CDATA[
    .str0 {stroke:#A9ABAE;stroke-width:2.53;stroke-miterlimit:22.9256}
    .str1 {stroke:red;stroke-width:2.53;stroke-miterlimit:22.9256}
    .fil5 {fill:#53331D}
    .fil7 {fill:#727376}
    .fil3 {fill:#86B0C0}
    .fil2 {fill:#9D720B}
    .fil4 {fill:#B8E3E9}
    .fil6 {fill:#E2A610}
    .fil8 {fill:#ED3237}
    .fil1 {fill:#FCD532}
    .fil0 {fill:yellow;fill-opacity:0.800000}
   ]]>
  </style>
 </defs>
 <g id="Camada_x0020_1">
  <metadata id="CorelCorpID_0Corel-Layer"/>
  <polygon class="fil0" points="-0,0 283.28,0 283.28,283.28 -0,283.28 "/>
  <g id="_2242111438064">
   <path class="fil1" d="M191.09 134.65c6.83,-0.77 14.04,0.75 17.1,4.14 2.34,2.59 0.09,4.99 -1.93,6.28 -10.52,6.7 -35.48,-0.31 -23.75,-7.94 2.21,-1.44 5.29,-2.11 8.59,-2.48l0 0zm-83.08 -11.22c-5.47,0.77 -10.86,1.14 -16.38,2.05 -7.45,1.14 -16.66,3.09 -22.25,4.57 -4.85,1.06 -9.79,2.68 -14.43,4.78 -4.62,2.09 -3.41,2.16 -5.07,3.85 0.58,0.65 0.61,1.67 0.86,2.46 0.77,2.47 2.28,4.13 4.04,5.86 2.14,2.1 4.97,3.76 8.56,5.42 6.18,2.85 15.06,4.83 22.76,6.15 31.79,5.41 104.29,6.46 133.73,-5.94 6.62,-2.79 12.56,-6.45 13.55,-14 -0.44,-1.27 -0.95,-1.82 -1.93,-2.4 -0.78,-0.45 -1.76,-1.01 -2.77,-1.49 -2.01,-0.93 -4.21,-1.67 -6.46,-2.43 -20.22,-6.75 -58.03,-11.71 -79.9,-11.39 -12.23,0.18 -22.59,1.22 -34.32,2.52l0 0z"/>
   <path class="fil2" d="M191.09 134.65c-3.3,0.37 -6.38,1.04 -8.59,2.48 -11.74,7.63 13.23,14.64 23.75,7.94 2.02,-1.29 4.28,-3.69 1.93,-6.28 -3.05,-3.39 -10.26,-4.91 -17.09,-4.14z"/>
   <path class="fil2" d="M88.24 134.65c-3.29,0.37 -6.38,1.04 -8.58,2.48 -11.74,7.63 13.23,14.64 23.74,7.94 2.03,-1.29 4.28,-3.69 1.93,-6.28 -3.05,-3.39 -10.27,-4.91 -17.1,-4.14z"/>
   <path class="fil3" d="M110.32 54.87c-1.27,5.9 -5.12,5.62 -9.48,10.91 -5.87,7.13 -9.85,18.47 -12.34,27.13 -0.67,2.35 -1.19,5.92 -3.46,6.63 -1.86,0.6 -2.82,-0.84 -3.19,-1.88 -0.46,-1.29 -0.36,-3.04 -0.37,-4.43 -0.15,-15.76 1.33,-33.2 16.61,-42.3 7.52,-4.48 13.42,-1.59 12.23,3.93zm-33.73 42.7l0.1 18.77c0.29,0.71 0.08,0.39 0.88,0.91 2.82,1.83 7.84,3.42 11.38,3.77 6.87,0.69 12.24,-1.29 17.37,-3.9 1.55,-0.78 1.21,-0.86 1.22,-2.67 0.02,-2.52 0.09,-5.06 0.14,-7.58 0.09,-4.56 -0.15,-10.14 0.33,-14.57 -0.44,-8.04 0.4,6.91 0.58,-2.61 0.09,-4.64 0.01,-5.95 1.78,-10.06 8.14,-18.88 30.64,-28.04 51.56,-20 12.13,4.66 22.25,16.87 22.23,27.45 -0.02,7.68 0,15.36 0,23.04 3.89,1.64 8.69,2.98 13.89,3.03 4.5,0.04 11.28,-1.33 14.08,-3.16 0.03,-6 0.41,-11.94 0.47,-17.93 0.12,-13.12 -7.79,-31.07 -17.44,-40.23 -4.67,-4.43 -5.76,-5.43 -11.04,-9.04 -3.66,-2.49 -8.45,-5.07 -13.33,-7.12 -17.22,-7.22 -35.36,-7.34 -53.62,-1.06 -4.86,1.67 -10,3.71 -13.76,6.77 -4.49,3.65 -6.26,4.31 -10.69,9.33 -1.92,2.17 -2.6,2.76 -4.47,5.28 -1.44,1.95 -2.65,3.73 -3.95,5.95 -5.12,8.8 -7.85,18.95 -7.8,30.12 0.06,12.05 0.52,-6.47 0.11,5.51l0 0z"/>
   <path class="fil4" d="M110.32 54.87c1.2,-5.53 -4.71,-8.42 -12.23,-3.93 -15.28,9.1 -16.76,26.54 -16.61,42.3 0.01,1.39 -0.09,3.14 0.37,4.43 0.37,1.04 1.33,2.48 3.19,1.88 2.27,-0.72 2.78,-4.29 3.46,-6.63 2.49,-8.66 6.47,-20 12.34,-27.13 4.36,-5.29 8.2,-5.01 9.48,-10.91z"/>
   <path class="fil5" d="M133.86 184.64l-0.62 0.25c-1.83,1.69 -7.19,3.21 -6.88,10.66 0.19,4.5 3.83,9.1 7.73,10.1 -1.22,4.41 -10.31,21.03 -9.99,23.76 1.32,1.79 4.52,1.29 7.42,1.27l17.9 -0.03c7.74,0.09 7.05,-0.43 3.51,-7.96l-5 -10.99c-0.67,-1.47 -2.05,-4.09 -2.41,-5.5 2.81,-2.01 8.12,-3.45 7.89,-10.67 -0.16,-4.88 -2.38,-7.97 -6.79,-10.42 -0.05,-0.03 -0.12,-0.07 -0.18,-0.09l-0.67 -0.47c-1.86,-0.14 -3.6,-0.83 -6,-0.85 -2.52,-0.03 -3.81,0.51 -5.91,0.94l0 0z"/>
   <path class="fil2" d="M145.77 184.55l0.67 0.47c0.05,0.03 0.12,0.07 0.18,0.09 4.41,2.45 6.63,5.54 6.79,10.42 0.24,7.22 -5.07,8.66 -7.89,10.67 0.37,1.41 1.74,4.03 2.41,5.5l5 10.99c3.54,7.53 4.23,8.05 -3.51,7.96l-17.9 0.03c-2.9,0.02 -6.1,0.52 -7.42,-1.27 -0.32,-2.73 8.77,-19.36 9.99,-23.76 -3.9,-1 -7.54,-5.6 -7.73,-10.1 -0.32,-7.45 5.05,-8.97 6.88,-10.66l0.62 -0.25 -0.62 0.25c-6.78,0.41 -17.13,10.38 -8.34,19.5 2.9,3.01 3.97,3.03 7.38,4.49 -2.75,4.51 -7.78,14.44 -10.64,19.64 -0.91,1.66 -1.79,3.21 -2.67,4.88 -1.37,2.56 0.16,3.5 3.17,3.6 9.38,0.32 24.02,-0.09 34.41,0.02 2.77,0.02 5.5,-0.24 4.68,-2.97 -0.31,-1.03 -2.14,-4 -2.76,-5.05 -1.83,-3.12 -3.66,-6.52 -5.37,-9.73 -1.06,-1.99 -4.92,-8.67 -5.39,-10.06 5.74,-1.72 11.82,-5.92 10.76,-12.92 -0.98,-6.45 -5.67,-10.29 -12.69,-11.73l0 -0z"/>
   <path class="fil6" d="M133.24 184.9l0.62 -0.25c2.1,-0.43 3.39,-0.97 5.91,-0.94 2.4,0.03 4.15,0.72 6,0.86 7.02,1.44 11.71,5.28 12.69,11.73 1.07,7 -5.02,11.21 -10.76,12.92 0.47,1.39 4.33,8.07 5.39,10.06 1.71,3.21 3.54,6.61 5.37,9.72 0.62,1.06 2.45,4.03 2.76,5.06 0.82,2.73 -1.91,3 -4.68,2.97 -10.39,-0.11 -25.03,0.3 -34.41,-0.02 -3,-0.1 -4.53,-1.04 -3.17,-3.6 0.88,-1.66 1.76,-3.22 2.67,-4.88 2.85,-5.2 7.89,-15.13 10.64,-19.64 -3.41,-1.46 -4.48,-1.48 -7.38,-4.49 -8.78,-9.12 1.56,-19.08 8.34,-19.5l0 0zm100.15 -46.28c-0.99,7.55 -6.94,11.21 -13.55,14 -29.44,12.4 -101.94,11.35 -133.73,5.93 -7.7,-1.31 -16.58,-3.29 -22.76,-6.14 -3.59,-1.66 -6.43,-3.32 -8.56,-5.42 -1.76,-1.73 -3.27,-3.39 -4.04,-5.86 -0.25,-0.78 -0.28,-1.8 -0.86,-2.46 -0.57,0.95 -0.51,24.44 -0.52,25.14 -0.09,8.45 -0.19,16.89 -0.29,25.34 -0.19,16.82 -0.38,33.63 -0.57,50.45 -0.07,6.21 -1.35,5.56 3.88,9.57 2.06,1.58 6.27,3.65 9.5,4.88 7.14,2.71 14.94,4.65 23.25,6.19 35.38,6.51 75.68,6.33 111.07,-0.15 7.78,-1.42 16.7,-3.42 23.38,-6.07 3.68,-1.46 6.89,-2.88 9.68,-4.73 5.67,-3.74 4.37,-3.99 4.37,-8.98 0,-16.98 0,-33.95 0,-50.92 0,-0.74 0.42,-49.6 -0.27,-50.78l0 -0z"/>
   <polygon class="fil7 str0" points="112.32,137.73 138.03,154.2 162.71,138.61 153.84,164.3 179.61,180.7 148.42,180.09 139.67,205.82 129.26,179.76 98.08,179.26 122.83,163.76 "/>
   <polygon class="fil8 str1" points="138.47,116.9 142.3,163.68 192.72,152.5 144.65,170.24 172,210.11 138.47,174.3 104.95,210.11 132.29,170.24 84.23,152.5 134.65,163.68 "/>
  </g>
 </g>
</svg>
