<?xml version="1.0" encoding="UTF-8"?>
<!DOCTYPE svg PUBLIC "-//W3C//DTD SVG 1.1//EN" "http://www.w3.org/Graphics/SVG/1.1/DTD/svg11.dtd">
<!-- Creator: CorelDRAW 2021 (64 Bit) -->
<svg xmlns="http://www.w3.org/2000/svg" xml:space="preserve" width="133.773mm" height="74.5067mm" version="1.1" style="shape-rendering:geometricPrecision; text-rendering:geometricPrecision; image-rendering:optimizeQuality; fill-rule:evenodd; clip-rule:evenodd"
viewBox="0 0 3694.97 2057.96"
 xmlns:xlink="http://www.w3.org/1999/xlink"
 xmlns:xodm="http://www.corel.com/coreldraw/odm/2003">
 <defs>
  <style type="text/css">
   <![CDATA[
    .str3 {stroke:black;stroke-width:11.69;stroke-miterlimit:22.9256}
    .str0 {stroke:silver;stroke-width:187.09;stroke-miterlimit:22.9256}
    .str1 {stroke:#A9ABAE;stroke-width:4.68;stroke-miterlimit:22.9256}
    .str2 {stroke:red;stroke-width:4.68;stroke-miterlimit:22.9256}
    .fil7 {fill:#727376}
    .fil8 {fill:#ED3237}
    .fil9 {fill:black}
    .fil10 {fill:#00FF95}
    .fil5 {fill:#53331D}
    .fil3 {fill:#86B0C0}
    .fil2 {fill:#9D720B}
    .fil4 {fill:#B8E3E9}
    .fil6 {fill:#E2A610}
    .fil1 {fill:#FCD532}
    .fil11 {fill:red}
    .fil0 {fill:white}
   ]]>
  </style>
 </defs>
 <g id="Camada_x0020_1">
  <metadata id="CorelCorpID_0Corel-Layer"/>
  <g id="_2412566809824">
   <rect class="fil0 str0" x="93.54" y="93.54" width="3507.89" height="1870.87" rx="170.26" ry="173.17"/>
   <path class="fil1" d="M3148.35 932.51c37.27,-4.91 76.64,4.75 93.31,26.28 12.78,16.51 0.49,31.71 -10.56,39.9 -57.41,42.55 -193.64,-1.93 -129.6,-50.42 12.05,-9.13 28.86,-13.39 46.85,-15.76zm-453.45 -71.3c-29.82,4.89 -59.25,7.28 -89.36,13.05 -40.69,7.23 -90.93,19.62 -121.43,29.04 -26.47,6.74 -53.43,17.02 -78.73,30.35 -25.23,13.29 -18.61,13.69 -27.65,24.41 3.15,4.15 3.31,10.64 4.66,15.62 4.23,15.66 12.44,26.22 22.06,37.22 11.65,13.32 27.12,23.89 46.75,34.43 33.72,18.11 82.17,30.67 124.2,39 173.5,34.39 569.19,41.08 729.86,-37.72 36.12,-17.71 68.56,-40.94 73.98,-88.92 -2.42,-8.07 -5.17,-11.57 -10.54,-15.24 -4.23,-2.89 -9.57,-6.46 -15.11,-9.44 -10.94,-5.9 -22.95,-10.66 -35.29,-15.45 -110.35,-42.84 -316.7,-74.39 -436.04,-72.35 -66.77,1.14 -123.32,7.74 -187.35,16.01z"/>
   <path class="fil2" d="M3148.35 932.51c-17.99,2.37 -34.79,6.63 -46.85,15.76 -64.04,48.5 72.19,92.97 129.6,50.42 11.05,-8.19 23.34,-23.39 10.56,-39.9 -16.67,-21.53 -56.04,-31.19 -93.31,-26.28z"/>
   <path class="fil2" d="M2587.07 932.51c-17.99,2.37 -34.79,6.63 -46.85,15.76 -64.04,48.5 72.19,92.97 129.6,50.42 11.05,-8.19 23.34,-23.39 10.56,-39.9 -16.67,-21.53 -56.04,-31.19 -93.31,-26.28z"/>
   <path class="fil3" d="M2707.57 425.73c-6.97,37.49 -27.95,35.7 -51.73,69.32 -32.02,45.27 -53.75,117.31 -67.32,172.35 -3.67,14.89 -6.49,37.56 -18.88,42.15 -10.18,3.76 -15.39,-5.31 -17.42,-11.95 -2.49,-8.18 -1.94,-19.3 -2.02,-28.16 -0.84,-100.12 7.25,-210.9 90.63,-268.7 41.04,-28.46 73.26,-10.08 66.74,24.99zm-184.08 271.23l0.52 119.2c1.6,4.55 0.48,2.47 4.83,5.76 15.41,11.66 42.81,21.75 62.07,23.99 37.5,4.36 66.81,-8.2 94.8,-24.81 8.42,-5 6.62,-5.47 6.67,-16.92 0.07,-16.04 0.49,-32.15 0.74,-48.2 0.46,-28.98 -0.83,-64.42 1.78,-92.57 -2.36,-51.03 2.2,43.91 3.17,-16.54 0.48,-29.46 0.01,-37.81 9.69,-63.91 44.45,-119.94 167.19,-178.13 281.38,-127.04 66.15,29.59 121.43,107.13 121.32,174.41 -0.07,48.76 0,97.53 0,146.3 21.23,10.42 47.44,18.94 75.83,19.25 24.58,0.27 61.58,-8.39 76.88,-20.05 0.15,-38.12 2.22,-75.86 2.52,-113.9 0.66,-83.31 -42.52,-197.33 -95.17,-255.5 -25.49,-28.16 -31.41,-34.5 -60.25,-57.43 -19.96,-15.87 -46.12,-32.23 -72.76,-45.25 -93.97,-45.92 -192.94,-46.62 -292.65,-6.73 -26.5,10.61 -54.55,23.57 -75.11,43.02 -24.52,23.19 -34.16,27.39 -58.36,59.26 -10.47,13.79 -14.18,17.52 -24.39,33.53 -7.88,12.36 -14.49,23.66 -21.56,37.79 -27.99,55.94 -42.85,120.35 -42.58,191.3 0.3,76.56 2.83,-41.1 0.61,35.03z"/>
   <path class="fil4" d="M2707.57 425.73c6.52,-35.07 -25.7,-53.44 -66.74,-24.99 -83.38,57.8 -91.46,168.58 -90.63,268.7 0.07,8.86 -0.48,19.98 2.02,28.16 2.02,6.64 7.24,15.71 17.42,11.95 12.39,-4.58 15.21,-27.26 18.88,-42.15 13.57,-55.05 35.31,-127.08 67.32,-172.35 23.78,-33.63 44.77,-31.83 51.73,-69.32z"/>
   <path class="fil5" d="M2836.07 1250.07l-3.4 1.6c-9.99,10.75 -39.27,20.4 -37.52,67.74 1.06,28.57 20.88,57.79 42.17,64.13 -6.65,27.98 -56.24,133.58 -54.51,150.94 7.19,11.35 24.68,8.14 40.48,8.06l97.73 -0.22c42.25,0.61 38.48,-2.72 19.15,-50.54l-27.31 -69.78c-3.68,-9.35 -11.16,-26 -13.15,-34.96 15.36,-12.75 44.31,-21.9 43.03,-67.75 -0.86,-30.97 -13.01,-50.64 -37.08,-66.19 -0.29,-0.19 -0.68,-0.41 -0.96,-0.61l-3.64 -2.99c-10.15,-0.87 -19.66,-5.24 -32.77,-5.41 -13.76,-0.18 -20.78,3.24 -32.23,5.98z"/>
   <path class="fil2" d="M2901.07 1249.51l3.64 2.99c0.28,0.2 0.67,0.42 0.96,0.61 24.07,15.56 36.21,35.23 37.08,66.19 1.28,45.86 -27.67,55 -43.03,67.75 1.99,8.95 9.47,25.61 13.15,34.96l27.31 69.78c19.33,47.81 23.09,51.15 -19.15,50.54l-97.73 0.22c-15.8,0.09 -33.29,3.3 -40.48,-8.06 -1.73,-17.37 47.86,-122.96 54.51,-150.94 -21.3,-6.34 -41.11,-35.55 -42.17,-64.13 -1.76,-47.33 27.53,-56.99 37.52,-67.74l3.4 -1.6 -3.4 1.6c-37,2.64 -93.48,65.94 -45.55,123.85 15.83,19.12 21.67,19.25 40.27,28.51 -15.03,28.61 -42.48,91.72 -58.08,124.75 -4.97,10.52 -9.73,20.43 -14.57,30.99 -7.45,16.26 0.9,22.2 17.29,22.85 51.19,2.06 131.11,-0.53 187.79,0.12 15.13,0.17 30.04,-1.52 25.56,-18.88 -1.68,-6.5 -11.67,-25.43 -15.04,-32.11 -9.99,-19.81 -20.01,-41.37 -29.33,-61.8 -5.76,-12.63 -26.89,-55.07 -29.44,-63.87 31.34,-10.91 64.53,-37.61 58.72,-82.08 -5.35,-40.98 -30.94,-65.36 -69.24,-74.51z"/>
   <path class="fil6" d="M2832.67 1251.68l3.4 -1.6c11.46,-2.74 18.48,-6.16 32.23,-5.98 13.11,0.17 22.62,4.54 32.77,5.41 38.3,9.15 63.89,33.53 69.24,74.51 5.81,44.46 -27.38,71.17 -58.72,82.08 2.54,8.8 23.67,51.24 29.44,63.87 9.32,20.42 19.34,41.99 29.33,61.8 3.37,6.68 13.36,25.6 15.04,32.11 4.48,17.36 -10.43,19.05 -25.56,18.88 -56.68,-0.65 -136.6,1.94 -187.79,-0.12 -16.38,-0.65 -24.74,-6.6 -17.29,-22.85 4.84,-10.56 9.6,-20.47 14.57,-30.99 15.59,-33.03 43.05,-96.14 58.08,-124.75 -18.6,-9.26 -24.44,-9.39 -40.27,-28.51 -47.93,-57.9 8.55,-121.2 45.55,-123.85zm546.57 -293.99c-5.41,47.98 -37.86,71.22 -73.98,88.92 -160.67,78.8 -556.36,72.1 -729.86,37.72 -42.03,-8.33 -90.48,-20.89 -124.2,-39 -19.63,-10.54 -35.1,-21.11 -46.75,-34.43 -9.62,-11 -17.83,-21.56 -22.06,-37.22 -1.35,-4.98 -1.51,-11.47 -4.66,-15.62 -3.09,6.09 -2.78,155.26 -2.82,159.71 -0.51,53.64 -1.06,107.29 -1.57,160.97 -1.03,106.82 -2.09,213.62 -3.13,320.44 -0.38,39.43 -7.37,35.3 21.18,60.8 11.23,10.03 34.23,23.17 51.87,30.96 38.95,17.2 81.52,29.57 126.89,39.29 193.1,41.39 413.05,40.26 606.21,-0.91 42.48,-9.05 91.12,-21.72 127.64,-38.56 20.08,-9.25 37.63,-18.32 52.84,-30.02 30.92,-23.76 23.85,-25.34 23.85,-57.05 0,-107.82 0,-215.63 0,-323.45 0,-4.68 2.26,-315.05 -1.45,-322.56z"/>
   <polygon class="fil7 str1" points="2718.49,952.07 2858.77,1056.74 2993.49,957.69 2945.06,1120.87 3085.72,1225.01 2915.51,1221.19 2867.71,1384.6 2810.94,1219.06 2640.76,1215.91 2775.88,1117.42 "/>
   <polygon class="fil8 str2" points="2861.23,819.76 2882.08,1116.88 3157.27,1045.92 2894.97,1158.58 3044.2,1411.84 2861.23,1184.35 2678.26,1411.84 2827.49,1158.58 2565.19,1045.92 2840.38,1116.88 "/>
   <polygon class="fil9" points="543.26,1683.68 582.81,1683.65 582.85,1515.53 542.5,1515.52 "/>
   <polygon class="fil9" points="1358.53,1687.12 1398.72,1686.71 1398.31,1526.8 1358.41,1526.75 "/>
   <path class="fil9" d="M881.41 1007.74c-9.44,-6.52 -25.7,-18.59 -30.9,-27.14 11.07,-17.58 29.4,-31.27 52.32,-42.41 48.34,-23.49 110.5,-18.49 157.18,6.06 17.24,9.07 45.78,26.66 51.54,45.57 -16.33,4.88 -18.7,14.58 -28.88,22.12l-29.8 -23.06c-20.01,-13.78 -38.83,-23.61 -67.52,-23.42 -22.23,0.15 -44.36,1.98 -63.16,9.58 -19.72,7.97 -26.02,16.53 -36.02,28.23l-4.76 4.47z"/>
   <path class="fil9" d="M835.49 720.86c-61.06,14.07 -33.06,99.14 25.98,83.17 20.72,-5.6 38.26,-28.04 31.7,-55.18 -5.11,-21.16 -30.08,-34.35 -57.68,-27.99z"/>
   <path class="fil9" d="M1077.46 720.83c-61.35,13.99 -32.76,99.11 25.99,83.17 20.17,-5.47 38.1,-28.4 31.6,-55.13 -5.13,-21.07 -29.85,-34.37 -57.59,-28.04z"/>
   <path class="fil9" d="M751.26 325.05c-55.97,8.04 -42.34,84.78 15.69,74.63 51.66,-9.04 41.6,-82.86 -15.69,-74.63z"/>
   <path class="fil9" d="M1269.84 746.78c8.99,2.03 50,12.74 55.33,17.57 14.54,13.17 0.48,40.43 -4.57,55.85 -5.99,18.31 -3.54,41.82 -14.65,56.47 -15.79,20.83 -31.62,12.05 -59.94,14.3 -5.68,9.81 -11.45,50.57 -50.55,93.67 -19.35,21.33 -18.86,22.69 -45.64,42.99 -45.22,34.3 -99.93,59.7 -176.84,58.29 -35.78,-0.65 -71.25,-3.49 -103.34,-13.74 -15.22,-4.86 -28.18,-10.66 -40.71,-17.69 -14.44,-8.1 -23.94,-16.05 -34.7,-25 -30.61,-25.45 -70.88,-75.85 -86.14,-116.55 -2.58,-6.87 -4.35,-16.79 -8.14,-22.26 -46.88,-1.79 -58.22,-0.2 -70.12,-41.8 -9.28,-32.45 -23.11,-54.93 -12.87,-91.27 13.82,-2.6 40.41,-2.88 51.45,-8.28 1.74,-20.3 -7.07,-41.41 -8.5,-61.71 -1.01,-14.38 7.47,-44.37 10.92,-59.89 4.83,-21.68 15.77,-28.6 35.21,-36.48 20.83,-8.44 38.95,-14.84 57.68,-1.52 52.02,36.99 113.3,86.61 206.16,85.26 61.13,-0.89 116.45,-24.09 164.17,-53.78 16.23,-10.1 26.99,-20.08 42.61,-30.91 16.81,-11.66 28.7,-10.68 51.84,4.53 78.28,51.49 49.09,95.23 41.33,151.97zm-423.37 -455.31c1.86,8.86 9.01,33.56 13.28,39.13 94.95,-35.56 237.33,-16.46 309.24,54.17 19.66,19.31 11.82,3.46 45.64,42.97 6.36,7.44 12.5,16.6 18.61,25.58 19.48,28.64 45.59,84.82 48.29,127.67 -21.51,-10.75 -43.32,-29.92 -70.91,-39.55 -25.64,-8.94 -39.02,-0.19 -58.92,15.61 -6.06,4.81 -9.52,6.91 -15.53,11.98 -14.14,11.92 -47.62,32.07 -68.9,41.5 -87.39,38.71 -160.59,27.08 -236.04,-24.56l-49.53 -34.75c-15.2,-9.8 -19.47,-13.91 -42.66,-11.94 -16.37,1.39 -30.03,5.07 -43.91,11.23 -10.07,4.46 -30.33,16.69 -38.3,18.69 2.3,-66.13 52.34,-114.76 55.78,-130.21 -8.25,-7.07 -20.1,-18.29 -36.85,-21.37l-34.48 56.6c-28.03,52.28 -28.64,97.32 -28.86,156.27 -0.12,31.4 7.14,55.1 7.97,83.79 -26.01,5.33 -36.52,12.63 -43.75,35.82 -7.34,23.54 -4.75,47.27 0.5,70.26 10.75,47.09 21.03,83.57 56.63,101.52 25.54,12.87 35.48,4.84 48.6,31.1 12.33,24.69 16.95,38.31 38.15,60.78 21.75,23.06 21.88,25.52 49.04,50.23 10.05,9.14 18.93,11.43 24.3,15.24 0.16,22.43 0.59,44.84 0.56,67.27 -0.03,23.8 5.21,46.12 -20.32,48.85 -43.17,4.6 -81.45,12.16 -123.36,19.24 -64.64,10.91 -177.59,26.68 -233.55,50.32 -53.37,22.55 -87.56,52.6 -111.1,98.43 -35.15,68.45 -24.35,96.23 -24.35,183.35 0,21.85 -1.25,124.91 0.41,137.4 7.76,0.91 18.98,0.85 26.95,0.67 11.74,-0.27 15.16,-1.23 17.06,-11.57 1.77,-9.65 -0.05,-148.17 -0.05,-165.62 0,-85.53 3.47,-129.74 55.14,-172.23 24.27,-19.96 41.69,-29.29 73.46,-40.03 56.05,-18.95 133.17,-27.4 193.15,-38.19 30.92,-5.56 69.66,-14.85 101.62,-14.44 0.53,30.52 9.1,56.76 22.95,78.77 41.72,66.3 121.47,108.06 203.21,108.75 11.45,-80.29 -11.87,-12.58 -112.6,-74.8 -29.43,-18.18 -75.89,-65.36 -72.92,-120.13 17.85,-13.5 41.27,-12.21 44.65,-43.68 2.77,-25.75 -0.45,-62.01 -0.6,-89.05 9.51,2.82 20.18,8.53 30.44,12.18 10.6,3.77 21.27,6.65 32.56,8.97 25.13,5.17 50.81,7.13 77.4,6.1 116.88,-4.52 233.15,-67.49 287.66,-167.62 4.8,-8.83 8.05,-21.15 12.26,-28.57 76.19,-1.93 75.61,-59.52 86.46,-98.41 5.18,-18.54 21.45,-37.84 9.85,-72.96 -11.57,-35.05 -38.86,-38.42 -48.49,-44.48 -4.87,-78.71 20.88,-109.56 -15.26,-209.62 -26.81,-74.22 -62.53,-122.81 -126.46,-167.72 -11.45,-8.05 -23.17,-15.99 -36.44,-23.33 -25.52,-14.12 -53.57,-26.67 -84.9,-34.97 -46.16,-12.22 -116.3,-12.02 -165.56,-3.74 -19.25,3.24 -31.74,9.32 -47.22,13.12z"/>
   <path class="fil9" d="M1143.75 1069.99c-0.16,22.43 -0.55,52 -0.52,74.43 0.03,23.8 -5.21,46.12 20.32,48.85 43.17,4.6 81.45,12.16 123.36,19.24 64.64,10.91 177.59,26.68 233.55,50.32 53.37,22.55 87.56,52.6 111.1,98.43 35.15,68.45 24.35,96.23 24.35,183.35 0,21.85 1.25,124.91 -0.41,137.4 -7.76,0.91 -18.98,0.85 -26.95,0.67 -11.74,-0.27 -15.16,-1.23 -17.06,-11.57 -1.77,-9.65 0.05,-148.17 0.05,-165.62 0,-85.53 -3.47,-129.74 -55.14,-172.23 -24.27,-19.96 -41.69,-29.29 -73.46,-40.03 -56.05,-18.95 -133.17,-27.4 -193.15,-38.19 -30.92,-5.56 -69.66,-14.85 -101.62,-14.44 -0.53,30.52 -9.1,56.76 -22.95,78.77 -41.72,66.3 -121.47,108.06 -203.21,108.75 -11.45,-80.29 11.87,-12.58 112.6,-74.8 29.43,-18.18 75.89,-65.36 72.92,-120.13 -17.85,-13.5 -41.27,-12.21 -44.65,-43.68 -2.77,-25.75 0.45,-62.01 0.6,-89.05 0,-6.68 0.01,-6.65 0.04,-9.03 0.01,-0.75 0.08,-0.8 0.99,-1.16 4.2,-1.67 31.13,-17.2 38.24,-20.35 0.54,-0.23 0.81,-0.78 1.02,0.09z"/>
   <g>
    <path class="fil10" d="M1934.63 389.41c-189.35,77.92 -245.16,168.22 -254,334.87 5.08,156.92 84.58,245.13 218.86,306.29l48.72 640.68c78.57,-12.93 135.41,-41.53 148.74,-101.5l7.87 -75.24 49.46 -139.79 -68.69 -122.26 82.51 -122.55 -28.38 -120.42c148.72,-89.03 199.68,-219.26 158.69,-388.23 -60.28,-157.63 -178.47,-236.29 -363.78,-211.85z"/>
    <g>
     <path class="fil9 str3" d="M1895.26 535.62c26.15,-43.24 78.63,-51.46 113.03,-32.04 44.45,25.1 49.72,79.48 27.29,115.89 -58.96,95.69 -201.86,17.89 -140.32,-83.85zm-11.05 -11.19c-29.87,43.89 -24.7,106.29 23.31,138.59 41.49,27.91 106.05,17.34 138.81,-32.08 28.59,-43.11 23.13,-108.28 -26.38,-138.64 -41.71,-25.59 -102.76,-16.33 -135.74,32.13z"/>
     <path class="fil9" d="M1686.54 597.41c-36.95,58.47 51.93,115.21 88.96,51.02 13.08,-22.66 10.1,-55.68 -17.01,-71.01 -22.27,-12.59 -55.11,-6.67 -71.95,19.98z"/>
    </g>
    <path class="fil9" d="M1668.57 734.03c-1.89,9.27 -1.07,22.6 -1.14,31.91 -0.5,76.05 48.11,159.1 101.94,212.04 19.79,19.46 41.51,37.92 65.44,50.28 41.62,21.51 50.58,13.96 51.86,36.62 2.66,47.11 6.42,78.15 7.92,126.05l9.39 127.3c1.96,26.55 25.68,368.86 28.67,377.47 18.8,-5.78 32.61,-8.28 51.68,-11.95 57.87,-11.13 117.74,-52.98 137.29,-110.11 11.96,-34.93 -9.08,-68.84 4.24,-106.13l48.42 -110.35c-0.95,-3.27 1.46,1.79 -1.84,-4.41 -1.73,-3.26 0.12,-0.09 -2.58,-4.04 -20.26,-29.65 -47.87,-83.65 -67.52,-117.85 26.68,-32.23 72.59,-80.82 77.34,-118.38 2.19,-17.29 -2.76,-35.99 -6.02,-54.43 -3.19,-18.03 -3.91,-41.31 -8.36,-52.31 52.07,-36.02 74.14,-49.73 113.9,-113.54 25.83,-41.45 45.16,-94.95 48.1,-134.54 3.37,-45.37 3.15,-84.42 -10.69,-128.6 -13.48,-43 -29.29,-81.43 -62.27,-123.32 -34.88,-44.3 -77.51,-76.25 -126.54,-97.08 -48.21,-20.48 -87.83,-23.52 -128.62,-23.62l-62.85 7.91c-54.68,11.91 -111.25,42.88 -153.08,84.47 -4.88,4.85 -25.21,24.6 -26.2,31.21l7.54 -4.91c15.54,14.93 15.37,23.8 35.08,32.43 38.77,-30.87 48.28,-59.8 108.62,-87.41 34.19,-15.64 77.26,-24.75 113,-23.33 25.5,1.01 88.38,9.15 116.28,25.97 76.78,46.27 138.1,119.81 152.85,211.37 5.31,32.94 10.28,84.09 1.27,116.93 -26.02,94.87 -86.77,164.49 -173.65,205.62 -0.91,7.89 1.66,21.54 3.3,30.17l15.03 91.46c0.54,10.91 -7.98,18.57 -17.99,32.86l-70.54 101.66c21,31.11 42.14,73.56 62.79,107.73 11.16,18.47 9.34,9.51 -6.94,57.23l-30.09 89.04c-5.91,16.92 -5.97,13.63 -2.14,28.41 1.43,5.49 5,53.13 3.15,57.52 -17.18,40.74 -78.62,70.36 -105.24,70.25 -2.74,-6.94 -1.7,-10.78 -1.93,-19.93 -1.16,-47.81 -5.58,-91.9 -6.84,-141.66 -0.35,-14.1 0.63,-26.61 -1.86,-40.68l-10.59 -201.88c-1.55,-11.75 -0.94,-28.13 -1.25,-40.75 -0.36,-14.24 -0.57,-26.59 -1.03,-40.8l-5.35 -81.16c-0.58,-27.76 -0.99,-53.94 -2.91,-81.04 -13.16,-7.37 -32.58,-5.17 -44.49,-7.66 -6.33,-1.33 -36.32,-16.15 -44.14,-20 -70.66,-34.75 -109.81,-103.24 -125.09,-177.82 -1.64,-8.03 -1.97,-14.71 -3.68,-22.15 -3.29,-14.31 -2.32,-31.49 -5.55,-43.99 -7.37,1.36 -13.61,1.41 -22.67,2.82 -7.8,1.22 -14.79,4.46 -23.41,-0.89z"/>
   </g>
   <polygon class="fil11 str2" points="1095.46,1382.13 1752.91,1096.92 1446.79,1427.12 3037.54,395.28 2202.54,819.58 2561.98,500.35 "/>
  </g>
 </g>
</svg>
