<?xml version="1.0" encoding="UTF-8"?>
<!DOCTYPE svg PUBLIC "-//W3C//DTD SVG 1.1//EN" "http://www.w3.org/Graphics/SVG/1.1/DTD/svg11.dtd">
<!-- Creator: CorelDRAW 2021 (64 Bit) -->
<svg xmlns="http://www.w3.org/2000/svg" xml:space="preserve" width="59.2667mm" height="66.04mm" version="1.1" style="shape-rendering:geometricPrecision; text-rendering:geometricPrecision; image-rendering:optimizeQuality; fill-rule:evenodd; clip-rule:evenodd"
viewBox="0 0 488.52 544.36"
 xmlns:xlink="http://www.w3.org/1999/xlink"
 xmlns:xodm="http://www.corel.com/coreldraw/odm/2003">
 <defs>
  <style type="text/css">
   <![CDATA[
    .str0 {stroke:black;stroke-width:6.98;stroke-miterlimit:22.9256}
    .fil1 {fill:#00FF95}
    .fil2 {fill:red}
    .fil0 {fill:white}
   ]]>
  </style>
 </defs>
 <g id="Camada_x0020_1">
  <metadata id="CorelCorpID_0Corel-Layer"/>
  <g id="_2075573402288">
   <rect class="fil0" x="-0" y="-0" width="488.52" height="544.36"/>
   <path class="fil1" d="M223.64 74.83c-61.35,23.25 -79.43,50.2 -82.29,99.93 1.64,46.83 27.4,73.15 70.91,91.4l15.78 191.2c25.45,-3.86 43.87,-12.39 48.19,-30.29l2.55 -22.45 16.02 -41.72 -22.26 -36.49 26.73 -36.57 -9.19 -35.94c48.18,-26.57 64.69,-65.43 51.41,-115.86 -19.53,-47.04 -57.82,-70.51 -117.86,-63.22z"/>
   <path class="fil1 str0" d="M143.26 136.9c-11.97,17.45 16.83,34.38 28.82,15.23 4.24,-6.76 3.27,-16.62 -5.51,-21.19 -7.21,-3.76 -17.85,-1.99 -23.31,5.96z"/>
   <path class="fil1 str0" d="M137.44 177.67c-0.32,2.87 -0.38,6.67 -0.37,9.52 -0.16,22.7 15.59,47.48 33.03,63.28 6.41,5.81 13.45,11.32 21.2,15.01 13.49,6.42 16.39,4.17 16.8,10.93 0.86,14.06 2.08,23.32 2.57,37.62l3.04 37.99c0.63,7.92 8.32,110.08 9.29,112.65 6.09,-1.73 10.56,-2.47 16.74,-3.57 18.75,-3.32 38.14,-15.81 44.48,-32.86 3.87,-10.42 -2.94,-20.54 1.37,-31.67l15.69 -32.93c-0.31,-0.98 0.47,0.53 -0.6,-1.31 -0.56,-0.97 0.04,-0.03 -0.83,-1.21 -6.56,-8.85 -15.51,-24.96 -21.88,-35.17 8.64,-9.62 23.52,-24.12 25.06,-35.33 0.71,-5.16 -0.89,-10.74 -1.95,-16.24 -1.03,-5.38 -1.27,-12.33 -2.71,-15.61 16.87,-10.75 24.02,-14.84 36.9,-33.88 8.37,-12.37 14.63,-28.34 15.58,-40.15 1.09,-13.54 1.02,-25.19 -3.46,-38.38 -4.37,-12.83 -9.49,-24.3 -20.18,-36.8 -11.3,-13.22 -25.11,-22.76 -41,-28.97 -15.62,-6.11 -28.45,-7.02 -41.67,-7.05l-20.36 2.36c-17.71,3.55 -36.04,12.8 -49.59,25.21 -1.58,1.45 -5.75,4.94 -6.91,6.82l0.86 1.03c4.74,4.49 6.61,6.31 11.36,9.68 12.56,-9.21 15.64,-17.85 35.19,-26.08 11.08,-4.67 25.03,-7.39 36.61,-6.96 8.26,0.3 28.63,2.73 37.67,7.75 24.88,13.81 44.74,35.75 49.52,63.08 1.72,9.83 3.33,25.1 0.41,34.89 -8.43,28.31 -28.11,49.09 -56.26,61.36 -0.3,2.35 0.54,6.43 1.07,9l4.87 27.29c0.18,3.26 -2.58,5.54 -5.83,9.81l-22.86 30.34c6.8,9.28 13.65,21.95 20.34,32.15 3.62,5.51 3.03,2.84 -2.25,17.08l-9.75 26.57c-1.92,5.05 -1.93,4.07 -0.69,8.48 0.46,1.64 1.62,15.86 1.02,17.17 -5.57,12.16 -25.47,21 -34.1,20.97 -0.89,-2.07 -0.55,-3.22 -0.62,-5.95 -0.38,-14.27 -1.81,-27.42 -2.22,-42.27 -0.11,-4.21 0.2,-7.94 -0.6,-12.14l-3.43 -60.25c-0.5,-3.51 -0.3,-8.39 -0.41,-12.16 -0.12,-4.25 -0.19,-7.93 -0.33,-12.17l-1.73 -24.22c-0.19,-8.28 -0.32,-16.1 -0.94,-24.19 -4.26,-2.2 -10.56,-1.54 -14.41,-2.29 -2.05,-0.4 -11.77,-4.82 -14.3,-5.97 -22.89,-10.37 -35.58,-30.81 -40.53,-53.07 -0.53,-2.4 -1.28,-7.43 -1.75,-9.76 -0.38,-2.67 -0.69,-6.05 -1.24,-9.97 -2.39,0.4 -4.26,0.49 -7.35,0.84 -2.64,0.15 -4.22,0.11 -7.58,-0.26z"/>
   <ellipse class="fil1 str0" cx="218.82" cy="129.28" rx="22.73" ry="20.94"/>
   <polygon class="fil2 str0" points="70.97,365.44 179.39,302.23 141.02,358.08 413.38,156.27 272.65,239.09 346.09,156.13 "/>
  </g>
 </g>
</svg>
