<?xml version="1.0" encoding="UTF-8"?>
<!DOCTYPE svg PUBLIC "-//W3C//DTD SVG 1.1//EN" "http://www.w3.org/Graphics/SVG/1.1/DTD/svg11.dtd">
<!-- Creator: CorelDRAW 2021 (64 Bit) -->
<svg xmlns="http://www.w3.org/2000/svg" xml:space="preserve" width="59.2667mm" height="59.2667mm" version="1.1" style="shape-rendering:geometricPrecision; text-rendering:geometricPrecision; image-rendering:optimizeQuality; fill-rule:evenodd; clip-rule:evenodd"
viewBox="0 0 283.35 283.35"
 xmlns:xlink="http://www.w3.org/1999/xlink"
 xmlns:xodm="http://www.corel.com/coreldraw/odm/2003">
 <defs>
  <style type="text/css">
   <![CDATA[
    .str0 {stroke:#A9ABAE;stroke-width:2.53;stroke-miterlimit:22.9256}
    .str1 {stroke:red;stroke-width:2.53;stroke-miterlimit:22.9256}
    .fil5 {fill:#53331D}
    .fil7 {fill:#727376}
    .fil3 {fill:#86B0C0}
    .fil2 {fill:#9D720B}
    .fil4 {fill:#B8E3E9}
    .fil6 {fill:#E2A610}
    .fil8 {fill:#ED3237}
    .fil1 {fill:#FCD532}
    .fil0 {fill:red;fill-opacity:0.800000}
   ]]>
  </style>
 </defs>
 <g id="Camada_x0020_1">
  <metadata id="CorelCorpID_0Corel-Layer"/>
  <polygon class="fil0" points="-0,0 283.35,0 283.35,283.35 -0,283.35 "/>
 </g>
 <g id="Camada_x0020_1_0">
  <metadata id="CorelCorpID_1Corel-Layer"/>
  <g id="_2242115743168">
   <path class="fil1" d="M185.61 125.75c6.83,-0.77 14.05,0.75 17.1,4.14 2.34,2.6 0.09,4.99 -1.93,6.28 -10.52,6.7 -35.49,-0.31 -23.76,-7.94 2.21,-1.44 5.29,-2.11 8.59,-2.48l0 0zm-83.11 -11.23c-5.47,0.77 -10.86,1.14 -16.38,2.05 -7.46,1.14 -16.66,3.09 -22.25,4.57 -4.86,1.06 -9.79,2.68 -14.43,4.78 -4.63,2.09 -3.41,2.16 -5.07,3.85 0.58,0.65 0.61,1.68 0.86,2.46 0.77,2.47 2.28,4.13 4.04,5.86 2.14,2.1 4.97,3.76 8.57,5.42 6.18,2.86 15.06,4.83 22.76,6.15 31.8,5.41 104.32,6.47 133.77,-5.94 6.62,-2.79 12.57,-6.45 13.56,-14 -0.44,-1.27 -0.95,-1.82 -1.93,-2.4 -0.78,-0.45 -1.76,-1.01 -2.77,-1.49 -2.01,-0.93 -4.21,-1.68 -6.47,-2.43 -20.23,-6.75 -58.05,-11.72 -79.92,-11.4 -12.23,0.18 -22.6,1.22 -34.33,2.52l0 0z"/>
   <path class="fil2" d="M185.61 125.75c-3.3,0.37 -6.38,1.04 -8.59,2.48 -11.74,7.63 13.23,14.64 23.76,7.94 2.02,-1.29 4.28,-3.69 1.93,-6.28 -3.05,-3.39 -10.26,-4.91 -17.1,-4.14z"/>
   <path class="fil2" d="M82.74 125.75c-3.29,0.37 -6.38,1.04 -8.58,2.48 -11.74,7.63 13.23,14.64 23.75,7.94 2.03,-1.29 4.28,-3.69 1.93,-6.28 -3.06,-3.39 -10.27,-4.91 -17.1,-4.14z"/>
   <path class="fil3" d="M104.82 45.95c-1.27,5.9 -5.12,5.62 -9.48,10.91 -5.87,7.13 -9.85,18.48 -12.34,27.14 -0.67,2.35 -1.19,5.92 -3.46,6.64 -1.86,0.6 -2.82,-0.84 -3.19,-1.88 -0.46,-1.29 -0.36,-3.04 -0.37,-4.43 -0.15,-15.77 1.33,-33.21 16.61,-42.31 7.52,-4.48 13.43,-1.59 12.23,3.93zm-33.74 42.71l0.1 18.77c0.29,0.71 0.08,0.39 0.88,0.91 2.83,1.83 7.85,3.42 11.38,3.78 6.87,0.69 12.24,-1.29 17.37,-3.91 1.55,-0.78 1.22,-0.86 1.22,-2.67 0.02,-2.52 0.09,-5.06 0.14,-7.59 0.09,-4.57 -0.15,-10.15 0.33,-14.58 -0.44,-8.04 0.4,6.91 0.58,-2.61 0.09,-4.64 0.01,-5.95 1.78,-10.06 8.15,-18.89 30.65,-28.05 51.57,-20 12.13,4.66 22.26,16.87 22.24,27.46 -0.02,7.68 0,15.36 0,23.04 3.89,1.64 8.7,2.98 13.9,3.03 4.5,0.04 11.28,-1.33 14.09,-3.16 0.03,-6 0.41,-11.95 0.47,-17.93 0.12,-13.12 -7.79,-31.08 -17.44,-40.24 -4.67,-4.43 -5.76,-5.43 -11.04,-9.04 -3.66,-2.5 -8.45,-5.07 -13.33,-7.13 -17.23,-7.23 -35.36,-7.34 -53.63,-1.06 -4.86,1.67 -10,3.71 -13.77,6.77 -4.5,3.65 -6.26,4.31 -10.69,9.33 -1.92,2.17 -2.6,2.76 -4.47,5.28 -1.45,1.95 -2.65,3.73 -3.95,5.95 -5.13,8.81 -7.85,18.95 -7.8,30.13 0.06,12.06 0.52,-6.47 0.11,5.52l0 0z"/>
   <path class="fil4" d="M104.82 45.95c1.2,-5.53 -4.71,-8.42 -12.23,-3.93 -15.28,9.1 -16.77,26.55 -16.61,42.31 0.01,1.39 -0.09,3.14 0.37,4.43 0.37,1.04 1.33,2.48 3.19,1.88 2.27,-0.72 2.78,-4.29 3.46,-6.64 2.49,-8.67 6.47,-20.01 12.34,-27.14 4.36,-5.29 8.21,-5.01 9.48,-10.91z"/>
   <path class="fil5" d="M128.37 175.76l-0.62 0.25c-1.83,1.69 -7.2,3.21 -6.88,10.67 0.19,4.5 3.83,9.1 7.73,10.1 -1.22,4.41 -10.31,21.04 -9.99,23.77 1.32,1.79 4.52,1.29 7.42,1.27l17.91 -0.03c7.75,0.09 7.06,-0.43 3.51,-7.96l-5 -10.99c-0.67,-1.47 -2.05,-4.09 -2.41,-5.5 2.81,-2.01 8.12,-3.45 7.89,-10.67 -0.16,-4.88 -2.38,-7.98 -6.8,-10.42 -0.05,-0.03 -0.12,-0.07 -0.18,-0.09l-0.67 -0.47c-1.86,-0.14 -3.6,-0.83 -6.01,-0.85 -2.52,-0.03 -3.81,0.51 -5.91,0.94l0 0z"/>
   <path class="fil2" d="M140.29 175.67l0.67 0.47c0.05,0.03 0.12,0.07 0.18,0.09 4.41,2.45 6.64,5.54 6.8,10.42 0.24,7.22 -5.07,8.66 -7.89,10.67 0.37,1.41 1.74,4.03 2.41,5.5l5 10.99c3.55,7.53 4.24,8.05 -3.51,7.96l-17.91 0.03c-2.9,0.02 -6.11,0.52 -7.42,-1.27 -0.32,-2.73 8.77,-19.36 9.99,-23.77 -3.91,-1 -7.54,-5.6 -7.73,-10.1 -0.32,-7.46 5.05,-8.97 6.88,-10.67l0.62 -0.25 -0.62 0.25c-6.78,0.41 -17.13,10.38 -8.35,19.5 2.9,3.01 3.97,3.03 7.38,4.49 -2.75,4.51 -7.79,14.45 -10.64,19.64 -0.91,1.66 -1.79,3.22 -2.67,4.88 -1.37,2.56 0.16,3.5 3.17,3.6 9.39,0.32 24.03,-0.09 34.42,0.02 2.77,0.02 5.5,-0.24 4.68,-2.97 -0.31,-1.03 -2.14,-4.01 -2.76,-5.06 -1.83,-3.12 -3.66,-6.52 -5.37,-9.73 -1.06,-1.99 -4.93,-8.67 -5.39,-10.06 5.74,-1.72 11.83,-5.92 10.76,-12.92 -0.98,-6.45 -5.67,-10.29 -12.69,-11.73l0 -0z"/>
   <path class="fil6" d="M127.75 176.01l0.62 -0.25c2.1,-0.43 3.39,-0.97 5.91,-0.94 2.4,0.03 4.15,0.72 6.01,0.86 7.02,1.44 11.71,5.28 12.69,11.73 1.07,7 -5.02,11.21 -10.76,12.92 0.47,1.39 4.34,8.07 5.39,10.06 1.71,3.21 3.55,6.61 5.37,9.73 0.62,1.06 2.45,4.04 2.76,5.06 0.82,2.73 -1.91,3 -4.68,2.97 -10.39,-0.11 -25.04,0.3 -34.42,-0.02 -3,-0.1 -4.54,-1.04 -3.17,-3.6 0.88,-1.66 1.76,-3.22 2.67,-4.88 2.86,-5.2 7.89,-15.14 10.64,-19.64 -3.41,-1.46 -4.48,-1.48 -7.38,-4.49 -8.78,-9.12 1.56,-19.09 8.35,-19.5l0 0zm100.17 -46.3c-0.99,7.56 -6.94,11.21 -13.56,14 -29.45,12.41 -101.97,11.35 -133.77,5.93 -7.7,-1.31 -16.58,-3.29 -22.76,-6.14 -3.59,-1.66 -6.43,-3.32 -8.57,-5.42 -1.76,-1.73 -3.27,-3.39 -4.04,-5.86 -0.25,-0.78 -0.28,-1.81 -0.86,-2.46 -0.57,0.96 -0.51,24.45 -0.52,25.15 -0.09,8.45 -0.19,16.89 -0.29,25.35 -0.19,16.82 -0.38,33.64 -0.57,50.46 -0.07,6.21 -1.35,5.56 3.88,9.57 2.06,1.58 6.27,3.65 9.5,4.88 7.14,2.71 14.94,4.65 23.26,6.19 35.39,6.51 75.7,6.34 111.1,-0.15 7.79,-1.42 16.7,-3.42 23.39,-6.07 3.68,-1.46 6.9,-2.88 9.69,-4.73 5.67,-3.74 4.37,-3.99 4.37,-8.98 0,-16.98 0,-33.96 0,-50.94 0,-0.74 0.42,-49.61 -0.27,-50.79l0 -0z"/>
   <polygon class="fil7 str0" points="106.82,128.83 132.54,145.31 157.22,129.71 148.35,155.41 174.13,171.81 142.93,171.21 134.18,196.94 123.77,170.87 92.58,170.38 117.34,154.87 "/>
   <polygon class="fil8 str1" points="132.98,107.99 136.81,154.78 187.24,143.61 139.17,161.35 166.52,201.23 132.98,165.41 99.45,201.23 126.8,161.35 78.73,143.61 129.16,154.78 "/>
  </g>
 </g>
</svg>
