<?xml version="1.0" encoding="UTF-8"?>
<!DOCTYPE svg PUBLIC "-//W3C//DTD SVG 1.1//EN" "http://www.w3.org/Graphics/SVG/1.1/DTD/svg11.dtd">
<!-- Creator: CorelDRAW 2021 (64 Bit) -->
<svg xmlns="http://www.w3.org/2000/svg" xml:space="preserve" width="118.055mm" height="49.0613mm" version="1.1" style="shape-rendering:geometricPrecision; text-rendering:geometricPrecision; image-rendering:optimizeQuality; fill-rule:evenodd; clip-rule:evenodd"
viewBox="0 0 12901.49 5361.61"
 xmlns:xlink="http://www.w3.org/1999/xlink"
 xmlns:xodm="http://www.corel.com/coreldraw/odm/2003">
 <defs>
  <style type="text/css">
   <![CDATA[
    .str3 {stroke:black;stroke-width:46.26;stroke-miterlimit:22.9256}
    .str1 {stroke:#A9ABAE;stroke-width:18.5;stroke-miterlimit:22.9256}
    .str2 {stroke:red;stroke-width:18.5;stroke-miterlimit:22.9256}
    .str0 {stroke:white;stroke-width:18.5;stroke-miterlimit:22.9256}
    .fil0 {fill:#FEFEFE}
    .fil7 {fill:#727376}
    .fil8 {fill:#ED3237}
    .fil9 {fill:black}
    .fil10 {fill:#00FF95}
    .fil5 {fill:#53331D}
    .fil3 {fill:#86B0C0}
    .fil2 {fill:#9D720B}
    .fil4 {fill:#B8E3E9}
    .fil6 {fill:#E2A610}
    .fil1 {fill:#FCD532}
    .fil11 {fill:red}
   ]]>
  </style>
 </defs>
 <g id="Camada_x0020_1">
  <metadata id="CorelCorpID_0Corel-Layer"/>
  <rect class="fil0 str0" x="9.27" y="9.25" width="12882.98" height="5343.1"/>
  <path class="fil1" d="M11687.21 2372.9c147.92,-16.73 304.13,16.21 370.28,89.6 50.72,56.31 1.93,108.11 -41.91,136.04 -227.79,145.09 -768.38,-6.56 -514.25,-171.91 47.81,-31.11 114.52,-45.65 185.88,-53.72zm-1799.35 -243.09c-118.33,16.68 -235.1,24.8 -354.6,44.47 -161.48,24.65 -360.81,66.91 -481.85,99.02 -105.02,22.99 -212,58.03 -312.39,103.47 -100.1,45.32 -73.84,46.66 -109.71,83.22 12.48,14.15 13.15,36.27 18.49,53.25 16.79,53.39 49.36,89.38 87.53,126.89 46.23,45.43 107.63,81.46 185.51,117.39 133.8,61.75 326.06,104.58 492.84,132.98 688.48,117.24 2258.65,140.06 2896.2,-128.59 143.33,-60.38 272.07,-139.6 293.56,-303.19 -9.62,-27.53 -20.53,-39.46 -41.83,-51.96 -16.8,-9.85 -37.99,-22 -59.98,-32.18 -43.4,-20.11 -91.06,-36.34 -140.04,-52.67 -437.9,-146.06 -1256.7,-253.62 -1730.28,-246.69 -264.95,3.88 -489.34,26.38 -743.44,54.6z"/>
  <path class="fil2" d="M11687.22 2372.9c-71.38,8.08 -138.08,22.61 -185.89,53.72 -254.13,165.36 286.44,317 514.26,171.91 43.84,-27.91 92.62,-79.73 41.89,-136.04 -66.14,-73.41 -222.35,-106.33 -370.25,-89.6z"/>
  <path class="fil2" d="M9459.97 2372.9c-71.38,8.08 -138.07,22.61 -185.88,53.72 -254.14,165.36 286.43,317 514.25,171.91 43.84,-27.91 92.62,-79.73 41.9,-136.04 -66.15,-73.41 -222.36,-106.33 -370.26,-89.6z"/>
  <path class="fil3" d="M9938.16 645.04c-27.64,127.82 -110.9,121.71 -205.28,236.36 -127.04,154.34 -213.3,399.95 -267.16,587.63 -14.56,50.76 -25.76,128.08 -74.93,143.71 -40.38,12.82 -61.08,-18.12 -69.1,-40.74 -9.9,-27.9 -7.7,-65.8 -8,-96.02 -3.32,-341.36 28.75,-719.07 359.62,-916.14 162.84,-97.02 290.7,-34.38 264.84,85.2zm-730.45 924.74l2.08 406.43c6.37,15.5 1.9,8.44 19.15,19.64 61.13,39.77 169.87,74.16 246.29,81.8 148.79,14.88 265.1,-27.94 376.17,-84.59 33.41,-17.04 26.26,-18.64 26.48,-57.69 0.28,-54.69 1.92,-109.62 2.92,-164.33 1.84,-98.79 -3.27,-219.63 7.08,-315.61 -9.35,-173.99 8.75,149.7 12.59,-56.38 1.89,-100.43 0.07,-128.9 38.46,-217.9 176.4,-408.93 663.43,-607.35 1116.56,-433.15 262.5,100.89 481.83,365.26 481.44,594.62 -0.3,166.25 0,332.53 0,498.79 84.25,35.53 188.23,64.58 300.9,65.62 97.54,0.91 244.34,-28.62 305.08,-68.36 0.62,-129.96 8.82,-258.65 10.02,-388.34 2.63,-284.06 -168.73,-672.8 -377.63,-871.11 -101.13,-96.01 -124.63,-117.63 -239.07,-195.81 -79.21,-54.11 -182.98,-109.88 -288.71,-154.28 -372.89,-156.55 -765.63,-158.96 -1161.27,-22.94 -105.17,36.16 -216.45,80.35 -298.06,146.68 -97.27,79.08 -135.57,93.38 -231.58,202.05 -41.56,47.01 -56.28,59.75 -96.78,114.32 -31.26,42.14 -57.49,80.66 -85.56,128.83 -111.08,190.71 -170.05,410.34 -168.96,652.25 1.17,261.04 11.25,-140.13 2.42,119.44z"/>
  <path class="fil4" d="M9938.15 645.04c25.86,-119.58 -101.97,-182.21 -264.83,-85.2 -330.87,197.08 -362.94,574.78 -359.62,916.14 0.3,30.22 -1.9,68.12 8,96.02 8.02,22.62 28.72,53.56 69.1,40.73 49.17,-15.62 60.37,-92.94 74.93,-143.7 53.86,-187.67 140.11,-433.29 267.16,-587.63 94.38,-114.65 177.64,-108.54 205.27,-236.36z"/>
  <path class="fil5" d="M10448.04 3455.62l-13.49 5.46c-39.64,36.65 -155.84,69.56 -148.87,230.95 4.21,97.43 82.84,197.03 167.35,218.64 -26.39,95.4 -223.15,455.43 -216.29,514.64 28.51,38.71 97.92,27.76 160.64,27.47l387.82 -0.73c167.64,2.08 152.7,-9.29 76.01,-172.31l-108.35 -237.92c-14.6,-31.87 -44.29,-88.65 -52.19,-119.19 60.94,-43.46 175.8,-74.65 170.72,-230.99 -3.43,-105.59 -51.6,-172.66 -147.12,-225.69 -1.15,-0.63 -2.69,-1.41 -3.81,-2.08l-14.46 -10.19c-40.27,-2.97 -78,-17.86 -130.04,-18.46 -54.59,-0.61 -82.44,11.05 -127.91,20.38z"/>
  <path class="fil2" d="M10705.99 3453.7l14.46 10.19c1.13,0.67 2.67,1.44 3.81,2.08 95.51,53.04 143.69,120.1 147.12,225.69 5.08,156.34 -109.79,187.53 -170.72,230.99 7.9,30.53 37.59,87.32 52.19,119.19l108.35 237.92c76.7,163.02 91.63,174.38 -76.01,172.31l-387.82 0.73c-62.72,0.28 -132.12,11.23 -160.64,-27.47 -6.85,-59.21 189.9,-419.23 216.29,-514.64 -84.51,-21.62 -163.14,-121.22 -167.35,-218.64 -6.97,-161.39 109.23,-194.3 148.87,-230.95l13.49 -5.46 -13.49 5.46c-146.82,9.02 -370.94,224.83 -180.74,422.25 62.83,65.21 85.98,65.65 159.81,97.22 -59.63,97.55 -168.58,312.73 -230.46,425.33 -19.7,35.87 -38.6,69.65 -57.81,105.66 -29.57,55.44 3.58,75.69 68.61,77.93 203.13,6.99 520.25,-1.81 745.19,0.39 60.04,0.59 119.22,-5.18 101.42,-64.37 -6.67,-22.17 -46.29,-86.69 -59.67,-109.48 -39.63,-67.54 -79.41,-141.05 -116.37,-210.69 -22.86,-43.07 -106.72,-187.75 -116.81,-217.77 124.37,-37.19 256.07,-128.24 233.03,-279.84 -21.23,-139.72 -122.77,-222.84 -274.75,-254.02z"/>
  <path class="fil6" d="M10434.56 3461.09l13.49 -5.46c45.46,-9.33 73.32,-20.99 127.91,-20.38 52.04,0.6 89.77,15.49 130.04,18.46 151.98,31.18 253.52,114.3 274.75,254.02 23.05,151.6 -108.66,242.65 -233.03,279.84 10.1,30.02 93.95,174.7 116.81,217.77 36.96,69.64 76.74,143.15 116.37,210.69 13.38,22.79 53,87.31 59.67,109.48 17.8,59.19 -41.37,64.96 -101.42,64.37 -224.94,-2.21 -542.06,6.6 -745.19,-0.39 -65.02,-2.24 -98.18,-22.49 -68.61,-77.93 19.21,-36.01 38.11,-69.79 57.81,-105.66 61.88,-112.61 170.83,-327.79 230.46,-425.33 -73.82,-31.57 -96.98,-32.01 -159.81,-97.22 -190.2,-197.42 33.92,-413.24 180.74,-422.25zm2168.87 -1002.37c-21.49,163.6 -150.24,242.81 -293.56,303.2 -637.55,268.65 -2207.72,245.83 -2896.2,128.59 -166.78,-28.39 -359.03,-71.23 -492.83,-132.97 -77.89,-35.94 -139.3,-71.97 -185.52,-117.4 -38.16,-37.52 -70.74,-73.49 -87.53,-126.89 -5.34,-16.99 -6.01,-39.1 -18.49,-53.25 -12.25,20.76 -11.03,529.37 -11.2,544.52 -2.01,182.89 -4.19,365.82 -6.24,548.83 -4.08,364.2 -8.31,728.34 -12.43,1092.53 -1.52,134.44 -29.26,120.35 84.03,207.29 44.58,34.21 135.85,79.01 205.84,105.57 154.57,58.65 323.5,100.81 503.54,133.97 766.24,141.12 1639.06,137.27 2405.52,-3.1 168.56,-30.86 361.58,-74.06 506.49,-131.48 79.66,-31.56 149.3,-62.47 209.69,-102.34 122.69,-81.01 94.64,-86.4 94.64,-194.51 0,-367.6 0,-735.2 0,-1102.79 0,-15.97 8.99,-1074.15 -5.76,-1099.76z"/>
  <polygon class="fil7 str1" points="9981.47,2439.58 10538.11,2796.43 11072.7,2458.75 10880.54,3015.11 11438.67,3370.15 10763.26,3357.16 10573.6,3914.29 10348.34,3349.88 9673.01,3339.16 10209.18,3003.33 "/>
  <polygon class="fil8 str2" points="10547.88,1988.46 10630.62,3001.5 11722.62,2759.55 10681.76,3143.68 11273.91,4007.18 10547.88,3231.55 9821.85,4007.18 10414,3143.67 9373.15,2759.55 10465.15,3001.5 "/>
  <polygon class="fil9" points="1349.85,4933.99 1506.84,4933.88 1506.98,4360.7 1346.86,4360.65 "/>
  <polygon class="fil9" points="4584.95,4945.73 4744.46,4944.33 4742.84,4399.11 4584.51,4398.94 "/>
  <path class="fil9" d="M2691.71 2629.4c-37.47,-22.22 -101.99,-63.38 -122.61,-92.53 43.93,-59.94 116.66,-106.62 207.61,-144.59 191.82,-80.11 438.47,-63.05 623.72,20.67 68.42,30.92 181.67,90.9 204.52,155.37 -64.79,16.63 -74.18,49.72 -114.6,75.39l-118.27 -78.62c-79.42,-46.99 -154.07,-80.5 -267.93,-79.84 -88.21,0.5 -176.02,6.73 -250.62,32.64 -78.25,27.17 -103.24,56.36 -142.95,96.26l-18.87 15.26z"/>
  <path class="fil9" d="M2509.48 1651.26c-242.32,47.96 -131.16,338 103.1,283.58 82.21,-19.11 151.81,-95.59 125.77,-188.14 -20.29,-72.13 -119.37,-117.11 -228.87,-95.44z"/>
  <path class="fil9" d="M3469.64 1651.19c-243.44,47.69 -130,337.91 103.14,283.57 80.05,-18.67 151.17,-96.83 125.38,-187.96 -20.34,-71.83 -118.45,-117.19 -228.52,-95.61z"/>
  <path class="fil9" d="M2175.25 301.78c-222.08,27.4 -168,289.07 62.24,254.45 205.02,-30.83 165.08,-282.5 -62.24,-254.45z"/>
  <path class="fil9" d="M4233.02 1739.65c35.69,6.92 198.42,43.44 219.57,59.91 57.7,44.89 1.89,137.83 -18.13,190.41 -23.76,62.41 -14.03,142.59 -58.12,192.54 -62.67,71 -125.47,41.1 -237.82,48.76 -22.55,33.45 -45.44,172.42 -200.61,319.37 -76.76,72.72 -74.84,77.35 -181.09,146.57 -179.46,116.93 -396.51,203.55 -701.72,198.75 -141.97,-2.24 -282.73,-11.92 -410.06,-46.85 -60.41,-16.57 -111.84,-36.35 -161.54,-60.3 -57.32,-27.64 -95,-54.74 -137.7,-85.25 -121.47,-86.78 -281.25,-258.6 -341.83,-397.38 -10.23,-23.43 -17.27,-57.23 -32.29,-75.9 -186.01,-6.1 -231.03,-0.7 -278.24,-142.54 -36.82,-110.63 -91.71,-187.29 -51.08,-311.19 54.86,-8.9 160.35,-9.82 204.16,-28.24 6.9,-69.21 -28.09,-141.18 -33.76,-210.4 -4.02,-49.04 29.65,-151.28 43.35,-204.21 19.15,-73.93 62.59,-97.51 139.73,-124.37 82.65,-28.76 154.55,-50.6 228.86,-5.2 206.44,126.11 449.57,295.29 818.08,290.67 242.56,-3.03 462.07,-82.13 651.45,-183.37 64.41,-34.44 107.09,-68.46 169.07,-105.37 66.72,-39.75 113.9,-36.44 205.69,15.45 310.65,175.56 194.81,324.69 164.01,518.13zm-1680 -1552.37c7.39,30.21 35.74,114.41 52.71,133.4 376.76,-121.24 941.75,-56.14 1227.09,184.68 78.01,65.83 46.92,11.78 181.08,146.5 25.24,25.34 49.59,56.6 73.83,87.21 77.33,97.67 180.9,289.21 191.64,435.29 -85.35,-36.65 -171.9,-102.03 -281.4,-134.83 -101.73,-30.49 -154.84,-0.64 -233.81,53.24 -24.05,16.4 -37.76,23.57 -61.6,40.84 -56.11,40.62 -188.97,109.35 -273.42,141.49 -346.77,132 -637.26,92.34 -936.66,-83.74l-196.55 -118.49c-60.32,-33.4 -77.26,-47.43 -169.29,-40.7 -64.95,4.75 -119.14,17.3 -174.25,38.27 -39.94,15.21 -120.32,56.93 -151.96,63.71 9.11,-225.49 207.69,-391.26 221.34,-443.94 -32.72,-24.11 -79.77,-62.35 -146.22,-72.87l-136.82 192.96c-111.22,178.24 -113.64,331.81 -114.52,532.8 -0.46,107.04 28.33,187.87 31.62,285.67 -103.2,18.17 -144.92,43.05 -173.6,122.11 -29.11,80.28 -18.84,161.15 1.99,239.56 42.65,160.56 83.44,284.95 224.71,346.13 101.37,43.89 140.81,16.49 192.88,106.05 48.94,84.17 67.28,130.62 151.37,207.21 86.33,78.64 86.82,87.02 194.58,171.27 39.87,31.17 75.12,38.96 96.42,51.96 0.64,76.47 2.36,152.9 2.24,229.38 -0.13,81.13 20.67,157.26 -80.61,166.53 -171.3,15.69 -323.21,41.47 -489.52,65.59 -256.49,37.2 -704.7,90.98 -926.76,171.56 -211.79,76.87 -347.47,179.35 -440.85,335.58 -139.48,233.39 -96.63,328.11 -96.63,625.13 0,74.48 -4.96,425.89 1.65,468.48 30.77,3.09 75.31,2.9 106.95,2.28 46.59,-0.9 60.16,-4.2 67.7,-39.46 7.02,-32.88 -0.21,-505.16 -0.21,-564.66 0,-291.61 13.76,-442.36 218.81,-587.23 96.31,-68.05 165.41,-99.85 291.5,-136.48 222.43,-64.6 528.43,-93.42 766.46,-130.21 122.73,-18.97 276.41,-50.65 403.24,-49.23 2.12,104.04 36.12,193.53 91.07,268.55 165.53,226.05 482.01,368.45 806.37,370.8 45.42,-273.76 -47.09,-42.9 -446.8,-255.02 -116.8,-61.99 -301.15,-222.85 -289.36,-409.57 70.83,-46.04 163.76,-41.64 177.18,-148.92 10.98,-87.78 -1.8,-211.42 -2.39,-303.62 37.74,9.63 80.08,29.1 120.77,41.54 42.07,12.85 84.39,22.65 129.22,30.59 99.71,17.63 201.64,24.29 307.15,20.79 463.77,-15.42 925.18,-230.09 1141.46,-571.5 19.06,-30.1 31.93,-72.11 48.63,-97.39 302.36,-6.59 300.04,-202.94 343.1,-335.51 20.55,-63.21 85.12,-129 39.1,-248.77 -45.91,-119.51 -154.2,-131 -192.43,-151.66 -19.34,-268.37 82.87,-373.55 -60.58,-714.68 -106.41,-253.07 -248.15,-418.71 -501.82,-571.85 -45.45,-27.43 -91.93,-54.51 -144.58,-79.54 -101.27,-48.14 -212.57,-90.95 -336.88,-119.22 -183.16,-41.66 -461.52,-40.97 -656.96,-12.76 -76.4,11.04 -125.96,31.78 -187.39,44.73z"/>
  <path class="fil9" d="M3732.69 2841.61c-0.64,76.47 -2.2,177.29 -2.08,253.77 0.12,81.14 -20.67,157.26 80.61,166.54 171.3,15.69 323.21,41.47 489.52,65.59 256.49,37.2 704.7,90.98 926.76,171.55 211.79,76.87 347.46,179.35 440.86,335.59 139.47,233.39 96.61,328.1 96.61,625.11 0,74.49 4.97,425.89 -1.64,468.48 -30.77,3.1 -75.31,2.91 -106.93,2.28 -46.59,-0.9 -60.18,-4.2 -67.71,-39.45 -7.03,-32.89 0.21,-505.16 0.21,-564.67 0,-291.6 -13.75,-442.36 -218.8,-587.22 -96.32,-68.05 -165.42,-99.86 -291.53,-136.48 -222.41,-64.6 -528.42,-93.42 -766.46,-130.22 -122.7,-18.96 -276.4,-50.64 -403.22,-49.22 -2.12,104.04 -36.12,193.53 -91.06,268.55 -165.55,226.05 -482.02,368.44 -806.38,370.79 -45.42,-273.76 47.08,-42.9 446.8,-255.01 116.8,-61.99 301.16,-222.86 289.36,-409.57 -70.83,-46.04 -163.76,-41.64 -177.18,-148.93 -10.98,-87.78 1.8,-211.41 2.39,-303.61 0,-22.79 0.04,-22.68 0.15,-30.8 0.03,-2.55 0.32,-2.73 3.95,-3.96 16.65,-5.68 123.51,-58.65 151.73,-69.41 2.12,-0.8 3.19,-2.68 4.05,0.3z"/>
  <path class="fil10" d="M6871.03 521.2c-751.36,265.65 -972.82,573.52 -1007.91,1141.71 20.14,535.03 335.61,835.78 868.47,1044.3l193.32 2184.4c311.77,-44.09 537.32,-141.61 590.23,-346.07l31.24 -256.52 196.24 -476.62 -272.58 -416.85 327.4 -417.83 -112.63 -410.57c590.14,-303.57 792.34,-747.57 629.72,-1323.66 -239.2,-537.45 -708.17,-805.62 -1443.51,-722.29z"/>
  <path class="fil9 str3" d="M6714.8 1019.7c103.77,-147.41 311.99,-175.46 448.52,-109.23 176.41,85.57 197.31,270.97 108.28,395.12 -233.98,326.27 -801,60.99 -556.8,-285.89zm-43.84 -38.17c-118.54,149.64 -98.01,362.41 92.49,472.51 164.65,95.15 420.81,59.13 550.82,-109.36 113.45,-147 91.78,-369.17 -104.66,-472.71 -165.52,-87.23 -407.77,-55.67 -538.65,109.56z"/>
  <path class="fil9" d="M5886.56 1230.39c-146.63,199.37 206.08,392.79 352.99,173.96 51.89,-77.27 40.07,-189.83 -67.48,-242.09 -88.36,-42.94 -218.68,-22.74 -285.5,68.13z"/>
  <path class="fil9" d="M5815.27 1696.2c-7.5,31.6 -4.26,77.06 -4.5,108.81 -1.99,259.29 190.89,542.44 404.48,722.92 78.52,66.36 164.73,129.3 259.67,171.46 165.16,73.32 200.72,47.57 205.79,124.85 10.55,160.61 25.5,266.45 31.44,429.77l37.28 434.02c7.77,90.51 101.9,1257.6 113.78,1286.98 74.61,-19.73 129.39,-28.24 205.09,-40.74 229.64,-37.94 467.19,-180.62 544.79,-375.41 47.45,-119.1 -36.02,-234.72 16.82,-361.85l192.14 -376.25c-3.77,-11.15 5.78,6.11 -7.3,-15.03 -6.88,-11.13 0.48,-0.3 -10.23,-13.76 -80.39,-101.09 -189.96,-285.19 -267.93,-401.8 105.87,-109.88 288.04,-275.56 306.9,-403.62 8.69,-58.93 -10.93,-122.7 -23.89,-185.59 -12.67,-61.47 -15.5,-140.85 -33.17,-178.33 206.63,-122.8 294.2,-169.56 451.99,-387.13 102.51,-141.33 179.19,-323.74 190.88,-458.72 13.39,-154.68 12.51,-287.81 -42.43,-438.46 -53.48,-146.62 -116.25,-277.64 -247.11,-420.46 -138.42,-151.05 -307.59,-259.96 -502.15,-331 -191.29,-69.83 -348.5,-80.19 -510.38,-80.54l-249.4 26.98c-216.96,40.6 -441.44,146.2 -607.42,288.01 -19.35,16.53 -100.04,83.86 -103.97,106.4l29.94 -16.74c61.67,50.89 60.97,81.15 139.18,110.57 153.86,-105.25 191.6,-203.89 431.02,-298.02 135.65,-53.32 306.56,-84.39 448.37,-79.54 101.2,3.46 350.71,31.21 461.41,88.53 304.69,157.77 547.99,408.48 606.54,720.66 21.06,112.29 40.77,286.71 5.04,398.67 -103.26,323.47 -344.31,560.82 -689.07,701.07 -3.61,26.89 6.59,73.44 13.08,102.85l59.64 311.83c2.14,37.19 -31.66,63.31 -71.4,112.03l-279.92 346.6c83.31,106.07 167.22,250.8 249.15,367.3 44.28,62.98 37.08,32.4 -27.53,195.12l-119.43 303.56c-23.44,57.71 -23.68,46.49 -8.47,96.85 5.65,18.73 19.82,181.16 12.48,196.13 -68.18,138.89 -311.99,239.91 -417.63,239.53 -10.88,-23.65 -6.74,-36.73 -7.64,-67.95 -4.61,-163.02 -22.16,-313.32 -27.15,-482.97 -1.41,-48.1 2.5,-90.73 -7.39,-138.71l-42.03 -688.3c-6.15,-40.07 -3.7,-95.91 -4.97,-138.93 -1.42,-48.57 -2.28,-90.65 -4.1,-139.1l-21.23 -276.71c-2.31,-94.65 -3.95,-183.89 -11.53,-276.32 -52.23,-25.11 -129.28,-17.61 -176.54,-26.13 -25.09,-4.54 -144.13,-55.07 -175.16,-68.18 -280.4,-118.47 -435.74,-352 -496.36,-606.29 -6.52,-27.38 -7.82,-50.14 -14.62,-75.5 -13.06,-48.78 -9.21,-107.37 -22.01,-149.99 -29.23,4.62 -54.03,4.8 -89.97,9.61 -30.96,4.13 -58.69,15.2 -92.87,-3.03z"/>
  <polygon class="fil11 str2" points="3541.09,3905.86 6149.92,2933.44 4935.18,4059.25 11247.49,541.21 7934.11,1987.85 9360.41,899.45 "/>
 </g>
</svg>
