<?xml version="1.0" encoding="UTF-8"?>
<!DOCTYPE svg PUBLIC "-//W3C//DTD SVG 1.1//EN" "http://www.w3.org/Graphics/SVG/1.1/DTD/svg11.dtd">
<!-- Creator: CorelDRAW 2021 (64 Bit) -->
<svg xmlns="http://www.w3.org/2000/svg" xml:space="preserve" width="118.055mm" height="49.0613mm" version="1.1" style="shape-rendering:geometricPrecision; text-rendering:geometricPrecision; image-rendering:optimizeQuality; fill-rule:evenodd; clip-rule:evenodd"
viewBox="0 0 13923.32 5786.26"
 xmlns:xlink="http://www.w3.org/1999/xlink"
 xmlns:xodm="http://www.corel.com/coreldraw/odm/2003">
 <defs>
  <style type="text/css">
   <![CDATA[
    .str3 {stroke:black;stroke-width:49.92;stroke-miterlimit:22.9256}
    .str1 {stroke:#A9ABAE;stroke-width:19.97;stroke-miterlimit:22.9256}
    .str2 {stroke:red;stroke-width:19.97;stroke-miterlimit:22.9256}
    .str0 {stroke:white;stroke-width:19.97;stroke-miterlimit:22.9256}
    .fil0 {fill:#FEFEFE}
    .fil7 {fill:#727376}
    .fil8 {fill:#ED3237}
    .fil9 {fill:black}
    .fil5 {fill:#53331D}
    .fil3 {fill:#86B0C0}
    .fil2 {fill:#9D720B}
    .fil4 {fill:#B8E3E9}
    .fil6 {fill:#E2A610}
    .fil1 {fill:#FCD532}
    .fil11 {fill:red}
    .fil10 {fill:yellow}
   ]]>
  </style>
 </defs>
 <g id="Camada_x0020_1">
  <metadata id="CorelCorpID_0Corel-Layer"/>
  <rect class="fil0 str0" x="10" y="9.98" width="13903.34" height="5766.28"/>
  <path class="fil1" d="M12612.87 2560.84c159.63,-18.06 328.21,17.49 399.6,96.7 54.74,60.77 2.09,116.68 -45.23,146.81 -245.83,156.58 -829.23,-7.08 -554.98,-185.53 51.6,-33.58 123.59,-49.26 200.6,-57.98zm-1941.86 -262.34c-127.7,18 -253.72,26.76 -382.69,47.99 -174.27,26.61 -389.39,72.21 -520.02,106.86 -113.34,24.81 -228.79,62.63 -337.13,111.67 -108.03,48.91 -79.69,50.36 -118.4,89.81 13.47,15.27 14.19,39.14 19.96,57.47 18.12,57.61 53.27,96.46 94.46,136.94 49.89,49.03 116.16,87.91 200.2,126.69 144.39,66.64 351.88,112.87 531.87,143.51 743.01,126.53 2437.54,151.15 3125.58,-138.78 154.68,-65.16 293.62,-150.66 316.81,-327.2 -10.38,-29.71 -22.16,-42.59 -45.15,-56.08 -18.13,-10.63 -41,-23.74 -64.73,-34.73 -46.83,-21.7 -98.27,-39.21 -151.13,-56.85 -472.58,-157.63 -1356.23,-273.7 -1867.32,-266.22 -285.93,4.19 -528.1,28.47 -802.32,58.92z"/>
  <path class="fil2" d="M12612.88 2560.84c-77.04,8.72 -149.02,24.4 -200.62,57.98 -274.26,178.45 309.13,342.11 554.99,185.53 47.32,-30.12 99.95,-86.05 45.21,-146.81 -71.38,-79.22 -239.96,-114.76 -399.58,-96.7z"/>
  <path class="fil2" d="M10209.23 2560.84c-77.04,8.72 -149,24.4 -200.6,57.98 -274.27,178.45 309.12,342.11 554.98,185.53 47.32,-30.12 99.95,-86.05 45.22,-146.81 -71.39,-79.22 -239.97,-114.76 -399.59,-96.7z"/>
  <path class="fil3" d="M10725.28 696.13c-29.83,137.94 -119.68,131.35 -221.54,255.08 -137.1,166.57 -230.19,431.62 -288.31,634.17 -15.71,54.78 -27.8,138.23 -80.86,155.09 -43.58,13.83 -65.92,-19.55 -74.57,-43.97 -10.69,-30.11 -8.31,-71.01 -8.63,-103.62 -3.59,-368.4 31.03,-776.02 388.1,-988.7 175.74,-104.71 313.72,-37.1 285.81,91.95zm-788.31 997.98l2.24 438.62c6.88,16.72 2.05,9.1 20.66,21.19 65.98,42.92 183.33,80.03 265.8,88.28 160.57,16.06 286.1,-30.16 405.96,-91.29 36.05,-18.39 28.34,-20.12 28.58,-62.26 0.31,-59.02 2.08,-118.31 3.15,-177.35 1.98,-106.62 -3.53,-237.02 7.64,-340.61 -10.1,-187.77 9.45,161.55 13.59,-60.84 2.04,-108.39 0.07,-139.11 41.5,-235.16 190.37,-441.32 715.98,-655.45 1205,-467.45 283.29,108.88 520,394.19 519.57,641.72 -0.32,179.42 0,358.87 0,538.3 90.92,38.34 203.14,69.69 324.73,70.82 105.26,0.98 263.69,-30.89 329.24,-73.77 0.67,-140.25 9.52,-279.14 10.82,-419.1 2.84,-306.56 -182.1,-726.08 -407.54,-940.11 -109.14,-103.61 -134.5,-126.95 -258,-211.32 -85.48,-58.39 -197.48,-118.59 -311.57,-166.5 -402.42,-168.95 -826.27,-171.55 -1253.25,-24.76 -113.5,39.03 -233.59,86.71 -321.67,158.3 -104.98,85.34 -146.3,100.78 -249.93,218.06 -44.85,50.74 -60.74,64.48 -104.45,123.38 -33.73,45.48 -62.05,87.05 -92.33,139.04 -119.87,205.82 -183.51,442.84 -182.35,703.91 1.26,281.71 12.14,-151.23 2.61,128.9z"/>
  <path class="fil4" d="M10725.27 696.13c27.9,-129.05 -110.05,-196.64 -285.8,-91.95 -357.07,212.69 -391.69,620.3 -388.1,988.7 0.32,32.61 -2.05,73.51 8.63,103.62 8.66,24.41 30.99,57.8 74.57,43.96 53.06,-16.85 65.15,-100.3 80.86,-155.08 58.12,-202.54 151.21,-467.61 288.31,-634.17 101.85,-123.73 191.71,-117.14 221.53,-255.08z"/>
  <path class="fil5" d="M11275.55 3729.32l-14.55 5.9c-42.78,39.56 -168.18,75.07 -160.66,249.24 4.54,105.14 89.4,212.63 180.6,235.96 -28.48,102.96 -240.82,491.5 -233.43,555.4 30.77,41.77 105.67,29.96 173.36,29.65l418.53 -0.79c180.92,2.24 164.8,-10.02 82.03,-185.96l-116.94 -256.77c-15.76,-34.39 -47.8,-95.67 -56.33,-128.62 65.76,-46.9 189.73,-80.56 184.25,-249.29 -3.7,-113.95 -55.69,-186.33 -158.77,-243.57 -1.24,-0.68 -2.9,-1.52 -4.12,-2.24l-15.6 -10.99c-43.46,-3.21 -84.17,-19.27 -140.34,-19.92 -58.91,-0.66 -88.97,11.92 -138.04,22z"/>
  <path class="fil2" d="M11553.93 3727.24l15.6 10.99c1.21,0.72 2.88,1.56 4.12,2.24 103.08,57.24 155.07,129.62 158.77,243.57 5.48,168.72 -118.48,202.38 -184.25,249.29 8.53,32.95 40.57,94.23 56.33,128.62l116.94 256.77c82.77,175.93 98.89,188.2 -82.03,185.96l-418.53 0.79c-67.69,0.31 -142.59,12.12 -173.36,-29.65 -7.39,-63.9 204.94,-452.44 233.43,-555.4 -91.2,-23.33 -176.06,-130.82 -180.6,-235.96 -7.52,-174.17 117.88,-209.68 160.66,-249.24l14.55 -5.9 -14.55 5.9c-158.45,9.73 -400.32,242.64 -195.06,455.69 67.8,70.37 92.79,70.85 172.46,104.92 -64.35,105.27 -181.93,337.5 -248.71,459.02 -21.26,38.71 -41.66,75.16 -62.39,114.02 -31.91,59.83 3.87,81.68 74.04,84.1 219.21,7.55 561.45,-1.96 804.21,0.42 64.8,0.64 128.66,-5.59 109.45,-69.47 -7.19,-23.93 -49.96,-93.56 -64.39,-118.15 -42.76,-72.89 -85.69,-152.22 -125.58,-227.38 -24.67,-46.48 -115.17,-202.62 -126.07,-235.02 134.22,-40.13 276.36,-138.4 251.48,-302.01 -22.92,-150.79 -132.49,-240.49 -296.51,-274.14z"/>
  <path class="fil6" d="M11261 3735.21l14.55 -5.9c49.06,-10.07 79.13,-22.66 138.04,-22 56.16,0.65 96.88,16.71 140.34,19.92 164.02,33.65 273.6,123.35 296.51,274.14 24.87,163.61 -117.27,261.87 -251.48,302.01 10.9,32.4 101.39,188.54 126.07,235.02 39.89,75.15 82.82,154.49 125.58,227.38 14.44,24.59 57.2,94.22 64.39,118.15 19.21,63.88 -44.65,70.1 -109.45,69.47 -242.75,-2.38 -584.99,7.12 -804.21,-0.42 -70.17,-2.42 -105.96,-24.27 -74.04,-84.1 20.73,-38.86 41.13,-75.32 62.39,-114.02 66.78,-121.52 184.36,-353.75 248.71,-459.02 -79.67,-34.07 -104.66,-34.54 -172.46,-104.92 -205.26,-213.06 36.61,-445.96 195.06,-455.69zm2340.65 -1081.76c-23.19,176.56 -162.14,262.04 -316.81,327.21 -688.05,289.93 -2382.58,265.3 -3125.58,138.78 -179.99,-30.64 -387.47,-76.87 -531.86,-143.5 -84.06,-38.79 -150.34,-77.67 -200.21,-126.7 -41.18,-40.49 -76.34,-79.31 -94.46,-136.94 -5.77,-18.34 -6.49,-42.2 -19.96,-57.47 -13.22,22.41 -11.9,571.3 -12.09,587.65 -2.17,197.37 -4.52,394.79 -6.73,592.3 -4.4,393.05 -8.96,786.03 -13.41,1179.06 -1.64,145.09 -31.57,129.89 90.68,223.71 48.11,36.92 146.61,85.27 222.14,113.93 166.81,63.3 349.12,108.8 543.42,144.58 826.93,152.3 1768.88,148.14 2596.05,-3.35 181.91,-33.31 390.21,-79.93 546.6,-141.89 85.97,-34.06 161.13,-67.41 226.3,-110.45 132.41,-87.43 102.14,-93.24 102.14,-209.92 0,-396.71 0,-793.43 0,-1190.14 0,-17.23 9.71,-1159.23 -6.22,-1186.86z"/>
  <polygon class="fil7 str1" points="10772.02,2632.8 11372.76,3017.92 11949.68,2653.48 11742.31,3253.91 12344.64,3637.08 11615.74,3623.05 11411.06,4224.31 11167.96,3615.2 10439.14,3603.63 11017.77,3241.2 "/>
  <polygon class="fil8 str2" points="11383.3,2145.96 11472.6,3239.23 12651.08,2978.11 11527.78,3392.67 12166.83,4324.56 11383.3,3487.49 10599.76,4324.56 11238.82,3392.66 10115.53,2978.11 11294.01,3239.23 "/>
  <polygon class="fil9" points="1456.76,5324.78 1626.18,5324.66 1626.34,4706.08 1453.53,4706.02 "/>
  <polygon class="fil9" points="4948.09,5337.44 5120.24,5335.93 5118.49,4747.53 4947.62,4747.35 "/>
  <path class="fil9" d="M2904.9 2837.66c-40.44,-23.98 -110.07,-68.4 -132.32,-99.86 47.41,-64.69 125.9,-115.06 224.05,-156.05 207.01,-86.45 473.2,-68.04 673.12,22.3 73.84,33.37 196.06,98.1 220.72,167.67 -69.93,17.95 -80.06,53.66 -123.67,81.37l-127.63 -84.85c-85.71,-50.71 -166.27,-86.87 -289.15,-86.17 -95.2,0.54 -189.97,7.27 -270.47,35.23 -84.44,29.32 -111.42,60.82 -154.28,103.88l-20.37 16.46z"/>
  <path class="fil9" d="M2708.23 1782.04c-261.51,51.76 -141.55,364.77 111.26,306.04 88.73,-20.63 163.83,-103.16 135.74,-203.04 -21.9,-77.84 -128.83,-126.38 -247,-103z"/>
  <path class="fil9" d="M3744.45 1781.97c-262.72,51.47 -140.3,364.67 111.31,306.03 86.39,-20.14 163.15,-104.49 135.31,-202.84 -21.95,-77.52 -127.83,-126.47 -246.62,-103.19z"/>
  <path class="fil9" d="M2347.54 325.68c-239.66,29.57 -181.31,311.96 67.17,274.6 221.25,-33.27 178.16,-304.87 -67.17,-274.6z"/>
  <path class="fil9" d="M4568.29 1877.43c38.52,7.47 214.13,46.88 236.96,64.65 62.27,48.45 2.04,148.75 -19.57,205.49 -25.64,67.36 -15.14,153.89 -62.72,207.79 -67.64,76.63 -135.41,44.36 -256.66,52.62 -24.33,36.1 -49.04,186.07 -216.5,344.67 -82.84,78.48 -80.76,83.48 -195.44,158.18 -193.67,126.2 -427.92,219.67 -757.3,214.5 -153.22,-2.42 -305.12,-12.87 -442.53,-50.56 -65.2,-17.88 -120.7,-39.23 -174.34,-65.08 -61.86,-29.83 -102.52,-59.08 -148.6,-92 -131.09,-93.66 -303.53,-279.08 -368.9,-428.85 -11.04,-25.29 -18.63,-61.76 -34.85,-81.91 -200.74,-6.58 -249.32,-0.75 -300.27,-153.83 -39.73,-119.39 -98.97,-202.12 -55.12,-335.83 59.21,-9.6 173.05,-10.6 220.33,-30.48 7.44,-74.69 -30.31,-152.37 -36.43,-227.07 -4.34,-52.92 32,-163.26 46.79,-220.38 20.66,-79.79 67.54,-105.24 150.8,-134.22 89.2,-31.04 166.79,-54.61 246.99,-5.61 222.79,136.1 485.18,318.67 882.87,313.7 261.77,-3.27 498.67,-88.63 703.05,-197.89 69.51,-37.16 115.57,-73.88 182.46,-113.72 72,-42.89 122.92,-39.32 221.99,16.68 335.25,189.47 210.24,350.41 177,559.16zm-1813.06 -1675.32c7.97,32.6 38.57,123.47 56.88,143.97 406.6,-130.84 1016.34,-60.59 1324.28,199.31 84.19,71.05 50.63,12.71 195.43,158.1 27.24,27.35 53.52,61.08 79.68,94.12 83.45,105.4 195.23,312.11 206.82,469.76 -92.11,-39.56 -185.52,-110.11 -303.68,-145.51 -109.79,-32.91 -167.11,-0.7 -252.33,57.46 -25.96,17.7 -40.75,25.44 -66.48,44.07 -60.55,43.84 -203.94,118.01 -295.07,152.7 -374.23,142.46 -687.73,99.66 -1010.85,-90.38l-212.11 -127.87c-65.1,-36.04 -83.38,-51.19 -182.7,-43.92 -70.09,5.13 -128.58,18.67 -188.05,41.3 -43.11,16.42 -129.85,61.43 -163.99,68.76 9.84,-243.34 224.14,-422.25 238.87,-479.11 -35.31,-26.02 -86.08,-67.28 -157.8,-78.64l-147.66 208.25c-120.03,192.36 -122.65,358.09 -123.59,575 -0.5,115.52 30.57,202.75 34.12,308.29 -111.37,19.61 -156.4,46.46 -187.35,131.79 -31.42,86.64 -20.33,173.91 2.15,258.54 46.03,173.28 90.05,307.52 242.51,373.55 109.4,47.36 151.96,17.8 208.15,114.45 52.81,90.84 72.6,140.96 163.36,223.63 93.17,84.87 93.69,93.92 209.99,184.83 43.02,33.64 81.07,42.05 104.06,56.08 0.7,82.52 2.55,165.01 2.42,247.54 -0.14,87.56 22.3,169.71 -86.99,179.72 -184.87,16.94 -348.81,44.76 -528.29,70.79 -276.8,40.15 -760.51,98.18 -1000.16,185.15 -228.57,82.96 -374.99,193.55 -475.77,362.16 -150.53,251.87 -104.28,354.1 -104.28,674.64 0,80.38 -5.35,459.62 1.78,505.58 33.21,3.34 81.27,3.13 115.42,2.46 50.28,-0.97 64.93,-4.53 73.06,-42.59 7.57,-35.49 -0.22,-545.18 -0.22,-609.38 0,-314.71 14.85,-477.4 236.14,-633.74 103.94,-73.44 178.51,-107.76 314.59,-147.29 240.04,-69.71 570.28,-100.81 827.17,-140.52 132.45,-20.47 298.3,-54.66 435.17,-53.13 2.29,112.28 38.98,208.86 98.28,289.82 178.64,243.96 520.18,397.63 870.24,400.17 49.02,-295.44 -50.82,-46.3 -482.18,-275.22 -126.05,-66.9 -325.01,-240.5 -312.28,-442.01 76.44,-49.69 176.73,-44.93 191.22,-160.72 11.85,-94.73 -1.95,-228.17 -2.58,-327.67 40.72,10.39 86.43,31.41 130.33,44.83 45.41,13.87 91.07,24.45 139.45,33.01 107.61,19.02 217.61,26.22 331.48,22.43 500.5,-16.64 998.45,-248.31 1231.87,-616.76 20.57,-32.48 34.46,-77.82 52.48,-105.11 326.3,-7.11 323.8,-219.01 370.27,-362.09 22.17,-68.22 91.86,-139.22 42.2,-268.48 -49.55,-128.98 -166.41,-141.37 -207.67,-163.68 -20.88,-289.62 89.43,-403.14 -65.37,-771.29 -114.84,-273.11 -267.81,-451.87 -541.57,-617.14 -49.05,-29.6 -99.21,-58.83 -156.03,-85.84 -109.29,-51.95 -229.4,-98.15 -363.56,-128.66 -197.67,-44.96 -498.07,-44.22 -708.99,-13.78 -82.45,11.91 -135.94,34.3 -202.23,48.27z"/>
  <path class="fil9" d="M4028.33 3066.67c-0.7,82.52 -2.37,191.33 -2.24,273.87 0.13,87.57 -22.3,169.71 86.99,179.73 184.87,16.94 348.81,44.76 528.29,70.79 276.8,40.15 760.51,98.18 1000.16,185.14 228.57,82.96 374.98,193.55 475.78,362.17 150.51,251.87 104.26,354.09 104.26,674.63 0,80.39 5.37,459.62 -1.77,505.58 -33.21,3.35 -81.27,3.14 -115.4,2.46 -50.28,-0.97 -64.95,-4.53 -73.08,-42.58 -7.58,-35.5 0.22,-545.18 0.22,-609.39 0,-314.7 -14.84,-477.4 -236.13,-633.72 -103.95,-73.44 -178.52,-107.77 -314.62,-147.29 -240.03,-69.71 -570.27,-100.81 -827.17,-140.54 -132.42,-20.46 -298.29,-54.65 -435.16,-53.12 -2.29,112.28 -38.98,208.86 -98.27,289.82 -178.67,243.96 -520.2,397.62 -870.25,400.16 -49.02,-295.44 50.81,-46.3 482.18,-275.21 126.05,-66.9 325.02,-240.51 312.28,-442.01 -76.44,-49.69 -176.73,-44.93 -191.22,-160.73 -11.85,-94.73 1.95,-228.15 2.58,-327.66 0,-24.59 0.05,-24.47 0.17,-33.24 0.04,-2.75 0.34,-2.95 4.26,-4.27 17.97,-6.13 133.3,-63.3 163.75,-74.9 2.29,-0.86 3.44,-2.89 4.38,0.32z"/>
  <path class="fil10" d="M7415.23 562.48c-810.87,286.69 -1049.87,618.95 -1087.74,1232.14 21.74,577.41 362.19,901.98 937.25,1127.01l208.63 2357.41c336.46,-47.58 579.87,-152.83 636.98,-373.48l33.72 -276.84 211.78 -514.37 -294.16 -449.87 353.33 -450.92 -121.55 -443.09c636.88,-327.61 855.1,-806.78 679.59,-1428.49 -258.15,-580.01 -764.26,-869.43 -1557.84,-779.5z"/>
  <path class="fil9 str3" d="M7246.62 1100.46c111.98,-159.09 336.71,-189.35 484.05,-117.88 190.38,92.35 212.94,292.43 116.85,426.41 -252.51,352.11 -864.44,65.82 -600.9,-308.53zm-47.32 -41.2c-127.93,161.49 -105.77,391.11 99.81,509.93 177.69,102.69 454.14,63.82 594.45,-118.02 122.43,-158.64 99.05,-398.41 -112.95,-510.15 -178.63,-94.14 -440.07,-60.08 -581.31,118.23z"/>
  <path class="fil9" d="M6352.79 1327.84c-158.24,215.16 222.4,423.9 380.94,187.74 56,-83.39 43.25,-204.86 -72.83,-261.26 -95.35,-46.34 -236,-24.54 -308.12,73.52z"/>
  <path class="fil9" d="M6275.85 1830.54c-8.09,34.11 -4.6,83.16 -4.86,117.43 -2.15,279.82 206,585.4 436.52,780.18 84.74,71.61 177.78,139.55 280.24,185.04 178.24,79.13 216.62,51.34 222.09,134.73 11.38,173.34 27.52,287.55 33.93,463.81l40.23 468.4c8.39,97.68 109.97,1357.2 122.79,1388.91 80.52,-21.29 139.64,-30.48 221.34,-43.97 247.83,-40.95 504.19,-194.93 587.94,-405.15 51.21,-128.53 -38.87,-253.31 18.15,-390.51l207.36 -406.05c-4.07,-12.03 6.24,6.59 -7.88,-16.22 -7.43,-12.01 0.52,-0.32 -11.04,-14.85 -86.76,-109.09 -205,-307.77 -289.15,-433.63 114.26,-118.59 310.85,-297.38 331.21,-435.59 9.38,-63.59 -11.79,-132.42 -25.78,-200.28 -13.67,-66.34 -16.72,-152 -35.79,-192.45 223,-132.53 317.5,-182.99 487.79,-417.79 110.63,-152.52 193.39,-349.38 205.99,-495.05 14.45,-166.93 13.5,-310.61 -45.8,-473.18 -57.72,-158.23 -125.45,-299.63 -266.68,-453.76 -149.38,-163.02 -331.95,-280.55 -541.92,-357.22 -206.44,-75.36 -376.1,-86.54 -550.8,-86.92l-269.15 29.12c-234.15,43.81 -476.4,157.78 -655.53,310.82 -20.89,17.84 -107.96,90.51 -112.21,114.83l32.32 -18.07c66.55,54.92 65.8,87.58 150.21,119.33 166.05,-113.59 206.77,-220.04 465.15,-321.62 146.4,-57.54 330.84,-91.07 483.88,-85.84 109.21,3.74 378.49,33.68 497.95,95.54 328.83,170.27 591.4,440.83 654.58,777.74 22.73,121.18 44,309.41 5.44,430.24 -111.44,349.09 -371.58,605.24 -743.64,756.59 -3.89,29.02 7.11,79.26 14.12,110.99l64.36 336.53c2.31,40.13 -34.17,68.32 -77.05,120.9l-302.09 374.06c89.91,114.47 180.46,270.66 268.88,396.39 47.79,67.97 40.02,34.97 -29.71,210.57l-128.88 327.6c-25.3,62.28 -25.56,50.17 -9.14,104.52 6.1,20.21 21.39,195.51 13.47,211.67 -73.58,149.89 -336.71,258.91 -450.71,258.5 -11.75,-25.52 -7.28,-39.64 -8.24,-73.33 -4.98,-175.93 -23.92,-338.13 -29.3,-521.22 -1.52,-51.91 2.7,-97.91 -7.97,-149.7l-45.36 -742.82c-6.64,-43.25 -4,-103.5 -5.37,-149.94 -1.53,-52.41 -2.46,-97.83 -4.42,-150.11l-22.92 -298.62c-2.49,-102.15 -4.26,-198.46 -12.44,-298.21 -56.36,-27.1 -139.52,-19 -190.52,-28.2 -27.08,-4.89 -155.55,-59.43 -189.03,-73.58 -302.61,-127.86 -470.25,-379.88 -535.67,-654.3 -7.04,-29.54 -8.44,-54.11 -15.78,-81.48 -14.09,-52.65 -9.94,-115.88 -23.75,-161.87 -31.55,4.99 -58.31,5.18 -97.1,10.37 -33.41,4.46 -63.33,16.41 -100.22,-3.27z"/>
  <polygon class="fil11 str2" points="3821.56,4215.22 6637.01,3165.78 5326.06,4380.75 12138.32,584.07 8562.51,2145.3 10101.77,970.69 "/>
 </g>
</svg>
