<?xml version="1.0" encoding="UTF-8"?>
<!DOCTYPE svg PUBLIC "-//W3C//DTD SVG 1.1//EN" "http://www.w3.org/Graphics/SVG/1.1/DTD/svg11.dtd">
<!-- Creator: CorelDRAW 2020 (64 Bit) -->
<svg xmlns="http://www.w3.org/2000/svg" xml:space="preserve" width="1394px" height="579px" version="1.1" style="shape-rendering:geometricPrecision; text-rendering:geometricPrecision; image-rendering:optimizeQuality; fill-rule:evenodd; clip-rule:evenodd"
viewBox="0 0 3591.02 1492.36"
 xmlns:xlink="http://www.w3.org/1999/xlink"
 xmlns:xodm="http://www.corel.com/coreldraw/odm/2003">
 <defs>
  <style type="text/css">
   <![CDATA[
    .str3 {stroke:black;stroke-width:12.88;stroke-miterlimit:22.9256}
    .str2 {stroke:black;stroke-width:5.15;stroke-miterlimit:22.9256}
    .str1 {stroke:#A9ABAE;stroke-width:5.15;stroke-miterlimit:22.9256}
    .str4 {stroke:red;stroke-width:5.15;stroke-miterlimit:22.9256}
    .str0 {stroke:white;stroke-width:5.15;stroke-miterlimit:22.9256}
    .fil9 {fill:black}
    .fil5 {fill:#53331D}
    .fil3 {fill:#86B0C0}
    .fil2 {fill:#9D720B}
    .fil4 {fill:#B8E3E9}
    .fil7 {fill:#CFCFCF}
    .fil6 {fill:#E2A610}
    .fil10 {fill:#FAFAFA}
    .fil1 {fill:#FCD532}
    .fil8 {fill:#FCFCFC}
    .fil0 {fill:#FEFEFE}
    .fil11 {fill:red}
   ]]>
  </style>
 </defs>
 <g id="Camada_x0020_1">
  <metadata id="CorelCorpID_0Corel-Layer"/>
  <rect class="fil0 str0" x="2.57" y="2.58" width="3585.87" height="1487.2"/>
  <path class="fil1" d="M3253.03 660.48c41.17,-4.65 84.65,4.51 103.07,24.94 14.11,15.68 0.54,30.1 -11.67,37.87 -63.4,40.38 -213.87,-1.83 -143.13,-47.85 13.3,-8.66 31.87,-12.71 51.73,-14.96zm-500.83 -67.66c-32.94,4.64 -65.44,6.9 -98.7,12.38 -44.95,6.86 -100.43,18.62 -134.12,27.56 -29.23,6.4 -59.01,16.15 -86.95,28.8 -27.86,12.61 -20.55,12.99 -30.54,23.16 3.48,3.94 3.66,10.1 5.15,14.83 4.67,14.86 13.74,24.88 24.36,35.31 12.87,12.65 29.96,22.68 51.64,32.68 37.24,17.19 90.75,29.11 137.17,37.01 191.63,32.64 628.68,38.99 806.13,-35.79 39.9,-16.81 75.73,-38.86 81.71,-84.39 -2.67,-7.66 -5.71,-10.98 -11.64,-14.46 -4.68,-2.74 -10.57,-6.13 -16.69,-8.96 -12.08,-5.6 -25.35,-10.12 -38.98,-14.66 -121.89,-40.66 -349.79,-70.59 -481.61,-68.67 -73.75,1.08 -136.2,7.35 -206.93,15.2z"/>
  <path class="fil2" d="M3253.03 660.48c-19.87,2.25 -38.43,6.3 -51.74,14.96 -70.73,46.02 79.73,88.23 143.14,47.85 12.21,-7.77 25.78,-22.2 11.66,-37.87 -18.41,-20.43 -61.89,-29.59 -103.06,-24.94z"/>
  <path class="fil2" d="M2633.1 660.48c-19.87,2.25 -38.43,6.3 -51.74,14.96 -70.74,46.02 79.73,88.23 143.14,47.85 12.2,-7.77 25.78,-22.2 11.66,-37.87 -18.41,-20.43 -61.89,-29.59 -103.06,-24.94z"/>
  <path class="fil3" d="M2766.2 179.55c-7.7,35.57 -30.87,33.87 -57.14,65.79 -35.36,42.95 -59.37,111.32 -74.36,163.56 -4.05,14.13 -7.17,35.65 -20.86,40 -11.24,3.56 -17,-5.05 -19.23,-11.34 -2.76,-7.77 -2.14,-18.32 -2.23,-26.73 -0.92,-95.01 8.01,-200.14 100.1,-255 45.33,-27 80.91,-9.57 73.72,23.72zm-203.32 257.39l0.58 113.12c1.77,4.32 0.53,2.35 5.33,5.47 17.01,11.07 47.28,20.64 68.55,22.77 41.42,4.14 73.79,-7.78 104.7,-23.54 9.3,-4.75 7.31,-5.19 7.37,-16.06 0.08,-15.22 0.54,-30.52 0.82,-45.74 0.51,-27.5 -0.91,-61.13 1.97,-87.85 -2.61,-48.43 2.43,41.67 3.5,-15.69 0.53,-27.96 0.02,-35.88 10.71,-60.65 49.09,-113.83 184.66,-169.05 310.78,-120.57 73.07,28.09 134.12,101.67 134.01,165.51 -0.09,46.28 0,92.56 0,138.84 23.45,9.89 52.39,17.97 83.75,18.26 27.15,0.26 68.01,-7.96 84.92,-19.02 0.17,-36.18 2.45,-72 2.78,-108.09 0.74,-79.07 -46.96,-187.27 -105.11,-242.47 -28.14,-26.72 -34.68,-32.74 -66.54,-54.5 -22.05,-15.06 -50.93,-30.59 -80.36,-42.95 -103.79,-43.57 -213.1,-44.24 -323.23,-6.38 -29.27,10.06 -60.24,22.36 -82.96,40.83 -27.07,22.01 -37.73,25.99 -64.46,56.24 -11.57,13.08 -15.66,16.63 -26.94,31.82 -8.7,11.73 -16,22.45 -23.81,35.86 -30.92,53.08 -47.33,114.21 -47.03,181.55 0.32,72.65 3.13,-39.01 0.67,33.24z"/>
  <path class="fil4" d="M2766.19 179.55c7.2,-33.29 -28.38,-50.72 -73.71,-23.72 -92.09,54.86 -101.02,159.99 -100.1,255 0.09,8.41 -0.53,18.96 2.23,26.73 2.23,6.29 7.99,14.9 19.23,11.33 13.69,-4.34 16.81,-25.86 20.86,-39.99 14.99,-52.24 39,-120.61 74.36,-163.56 26.27,-31.92 49.44,-30.22 57.13,-65.79z"/>
  <path class="fil5" d="M2908.12 961.85l-3.76 1.52c-11.03,10.2 -43.37,19.36 -41.43,64.28 1.17,27.12 23.06,54.84 46.58,60.86 -7.35,26.55 -62.11,126.76 -60.21,143.25 7.94,10.77 27.26,7.72 44.72,7.64l107.94 -0.2c46.66,0.58 42.51,-2.59 21.16,-47.96l-30.16 -66.23c-4.07,-8.87 -12.33,-24.67 -14.53,-33.17 16.96,-12.1 48.93,-20.78 47.52,-64.29 -0.96,-29.39 -14.36,-48.06 -40.95,-62.82 -0.32,-0.18 -0.75,-0.4 -1.06,-0.58l-4.03 -2.84c-11.2,-0.82 -21.7,-4.97 -36.19,-5.13 -15.19,-0.17 -22.95,3.07 -35.6,5.67z"/>
  <path class="fil2" d="M2979.91 961.31l4.03 2.84c0.31,0.18 0.74,0.4 1.06,0.58 26.59,14.76 39.99,33.43 40.95,62.82 1.41,43.51 -30.56,52.19 -47.52,64.29 2.2,8.5 10.46,24.3 14.53,33.17l30.16 66.23c21.35,45.37 25.5,48.54 -21.16,47.96l-107.94 0.2c-17.46,0.08 -36.78,3.13 -44.72,-7.64 -1.9,-16.49 52.86,-116.7 60.21,-143.25 -23.52,-6.02 -45.41,-33.74 -46.58,-60.86 -1.94,-44.92 30.4,-54.08 41.43,-64.28l3.76 -1.52 -3.76 1.52c-40.86,2.51 -103.24,62.58 -50.3,117.53 17.48,18.15 23.93,18.27 44.48,27.06 -16.6,27.15 -46.93,87.04 -64.15,118.39 -5.48,9.98 -10.74,19.38 -16.09,29.41 -8.23,15.43 1,21.06 19.1,21.69 56.53,1.94 144.8,-0.51 207.41,0.11 16.71,0.16 33.19,-1.45 28.23,-17.92 -1.86,-6.17 -12.89,-24.13 -16.61,-30.47 -11.03,-18.8 -22.1,-39.26 -32.39,-58.65 -6.36,-11.98 -29.7,-52.26 -32.51,-60.61 34.61,-10.35 71.27,-35.7 64.86,-77.89 -5.91,-38.89 -34.17,-62.03 -76.48,-70.71z"/>
  <path class="fil6" d="M2904.36 963.37l3.76 -1.52c12.65,-2.6 20.41,-5.85 35.6,-5.68 14.49,0.17 24.99,4.31 36.19,5.14 42.31,8.68 70.57,31.81 76.48,70.7 6.41,42.2 -30.25,67.54 -64.86,77.9 2.81,8.35 26.15,48.62 32.51,60.61 10.29,19.38 21.36,39.85 32.39,58.64 3.72,6.35 14.75,24.3 16.61,30.48 4.96,16.47 -11.52,18.08 -28.23,17.91 -62.61,-0.61 -150.88,1.84 -207.41,-0.11 -18.1,-0.62 -27.33,-6.26 -19.1,-21.69 5.35,-10.02 10.61,-19.42 16.09,-29.41 17.22,-31.34 47.55,-91.23 64.15,-118.38 -20.55,-8.79 -27,-8.91 -44.48,-27.06 -52.94,-54.95 9.44,-115.02 50.3,-117.53zm603.69 -279.01c-5.98,45.54 -41.82,67.59 -81.71,84.4 -177.46,74.77 -614.5,68.42 -806.13,35.79 -46.42,-7.9 -99.93,-19.83 -137.17,-37.01 -21.68,-10 -38.78,-20.03 -51.64,-32.68 -10.62,-10.44 -19.69,-20.45 -24.36,-35.32 -1.49,-4.73 -1.68,-10.88 -5.15,-14.82 -3.41,5.78 -3.07,147.35 -3.12,151.56 -0.56,50.91 -1.16,101.82 -1.74,152.77 -1.13,101.37 -2.31,202.72 -3.45,304.09 -0.43,37.42 -8.15,33.5 23.38,57.7 12.41,9.52 37.82,21.99 57.3,29.38 43.02,16.33 90.04,28.06 140.15,37.29 213.28,39.28 456.22,38.21 669.56,-0.86 46.92,-8.59 100.64,-20.62 140.98,-36.6 22.17,-8.78 41.55,-17.38 58.36,-28.48 34.15,-22.55 26.34,-24.05 26.34,-54.14 0,-102.32 0,-204.64 0,-306.96 0,-4.44 2.51,-298.98 -1.6,-306.11z"/>
  <polygon class="fil7 str1" points="2778.25,679.04 2933.19,778.37 3081.99,684.38 3028.5,839.24 3183.85,938.06 2995.86,934.44 2943.07,1089.51 2880.37,932.41 2692.4,929.43 2841.63,835.96 "/>
  <polygon class="fil8 str2" points="2935.91,553.48 2982.28,808.08 3262.89,768.1 3011,885.48 3137.99,1115.37 2934.3,930.87 2733.82,1115.37 2857.6,886.28 2608.93,768.1 2890.35,808.08 "/>
  <polygon class="fil9" points="375.72,1373.34 419.41,1373.31 419.45,1213.77 374.88,1213.75 "/>
  <polygon class="fil9" points="1276.18,1376.61 1320.58,1376.21 1320.13,1224.46 1276.06,1224.41 "/>
  <path class="fil9" d="M749.21 731.88c-10.43,-6.19 -28.39,-17.65 -34.13,-25.76 12.23,-16.68 32.48,-29.67 57.79,-40.24 53.39,-22.3 122.04,-17.55 173.61,5.75 19.04,8.6 50.56,25.3 56.92,43.24 -18.03,4.63 -20.65,13.84 -31.89,20.99l-32.92 -21.88c-22.11,-13.08 -42.89,-22.41 -74.58,-22.23 -24.55,0.14 -48.99,1.88 -69.76,9.09 -21.78,7.56 -28.73,15.69 -39.79,26.79l-5.25 4.25z"/>
  <path class="fil9" d="M698.49 459.62c-67.45,13.35 -36.51,94.08 28.69,78.93 22.89,-5.32 42.26,-26.61 35.01,-52.37 -5.65,-20.07 -33.22,-32.59 -63.7,-26.56z"/>
  <path class="fil9" d="M965.74 459.6c-67.76,13.28 -36.18,94.05 28.71,78.93 22.28,-5.2 42.08,-26.95 34.9,-52.32 -5.66,-19.99 -32.97,-32.61 -63.61,-26.61z"/>
  <path class="fil9" d="M605.46 84c-61.81,7.63 -46.76,80.46 17.32,70.83 57.07,-8.59 45.95,-78.64 -17.32,-70.83z"/>
  <path class="fil9" d="M1178.22 484.22c9.94,1.92 55.23,12.09 61.12,16.67 16.06,12.5 0.52,38.37 -5.05,53 -6.61,17.37 -3.9,39.69 -16.17,53.59 -17.45,19.76 -34.93,11.44 -66.2,13.57 -6.28,9.32 -12.65,48 -55.84,88.9 -21.36,20.24 -20.83,21.53 -50.41,40.8 -49.94,32.54 -110.36,56.65 -195.31,55.32 -39.52,-0.63 -78.7,-3.32 -114.14,-13.04 -16.81,-4.61 -31.13,-10.12 -44.96,-16.79 -15.96,-7.69 -26.45,-15.23 -38.33,-23.73 -33.81,-24.15 -78.28,-71.98 -95.15,-110.6 -2.84,-6.53 -4.8,-15.93 -8.98,-21.13 -51.78,-1.7 -64.31,-0.19 -77.45,-39.67 -10.25,-30.8 -25.53,-52.13 -14.22,-86.62 15.27,-2.48 44.64,-2.73 56.83,-7.86 1.92,-19.26 -7.82,-39.3 -9.39,-58.56 -1.12,-13.65 8.25,-42.11 12.06,-56.84 5.33,-20.58 17.42,-27.15 38.89,-34.62 23.01,-8.01 43.02,-14.08 63.71,-1.45 57.46,35.11 125.13,82.19 227.7,80.91 67.51,-0.84 128.62,-22.86 181.33,-51.04 17.93,-9.58 29.8,-19.05 47.06,-29.33 18.57,-11.06 31.7,-10.14 57.25,4.3 86.47,48.87 54.22,90.38 45.65,144.22zm-467.61 -432.09c2.06,8.41 9.95,31.85 14.67,37.13 104.87,-33.74 262.13,-15.62 341.55,51.41 21.71,18.32 13.06,3.28 50.4,40.77 7.03,7.06 13.81,15.76 20.55,24.28 21.53,27.18 50.36,80.49 53.35,121.15 -23.76,-10.2 -47.85,-28.39 -78.33,-37.53 -28.31,-8.48 -43.1,-0.18 -65.08,14.82 -6.69,4.57 -10.51,6.57 -17.14,11.37 -15.62,11.31 -52.6,30.44 -76.11,39.38 -96.52,36.75 -177.37,25.71 -260.71,-23.31l-54.71 -32.98c-16.79,-9.29 -21.5,-13.2 -47.12,-11.32 -18.08,1.32 -33.16,4.81 -48.5,10.65 -11.12,4.23 -33.49,15.84 -42.3,17.73 2.54,-62.76 57.81,-108.9 61.61,-123.56 -9.1,-6.71 -22.2,-17.36 -40.7,-20.29l-38.08 53.71c-30.96,49.61 -31.63,92.36 -31.88,148.3 -0.12,29.8 7.89,52.29 8.8,79.52 -28.72,5.05 -40.33,11.98 -48.31,33.99 -8.11,22.34 -5.25,44.85 0.55,66.68 11.87,44.69 23.22,79.31 62.54,96.34 28.22,12.21 39.2,4.59 53.69,29.52 13.62,23.42 18.73,36.35 42.13,57.67 24.03,21.89 24.17,24.22 54.16,47.67 11.1,8.68 20.91,10.85 26.84,14.47 0.18,21.28 0.66,42.56 0.62,63.84 -0.03,22.59 5.76,43.77 -22.43,46.35 -47.68,4.37 -89.96,11.55 -136.26,18.26 -71.39,10.36 -196.14,25.32 -257.95,47.75 -58.95,21.4 -96.72,49.92 -122.71,93.41 -38.82,64.96 -26.89,91.33 -26.89,174 0,20.73 -1.38,118.54 0.46,130.39 8.56,0.87 20.96,0.81 29.76,0.64 12.97,-0.25 16.75,-1.17 18.85,-10.98 1.95,-9.16 -0.06,-140.61 -0.06,-157.17 0,-81.17 3.83,-123.13 60.9,-163.45 26.81,-18.94 46.04,-27.79 81.14,-37.99 61.91,-17.98 147.08,-26 213.34,-36.24 34.16,-5.28 76.93,-14.1 112.24,-13.71 0.59,28.96 10.05,53.87 25.34,74.75 46.08,62.92 134.17,102.56 224.45,103.21 12.64,-76.2 -13.11,-11.94 -124.36,-70.98 -32.51,-17.25 -83.83,-62.03 -80.54,-114 19.71,-12.82 45.58,-11.59 49.31,-41.45 3.06,-24.44 -0.5,-58.85 -0.66,-84.51 10.5,2.67 22.29,8.1 33.61,11.56 11.71,3.57 23.49,6.3 35.97,8.51 27.75,4.91 56.12,6.76 85.49,5.79 129.09,-4.3 257.52,-64.05 317.72,-159.08 5.3,-8.37 8.89,-20.07 13.53,-27.1 84.16,-1.84 83.52,-56.49 95.5,-93.39 5.72,-17.6 23.69,-35.91 10.89,-69.25 -12.78,-33.26 -42.92,-36.46 -53.56,-42.21 -5.39,-74.7 23.06,-103.98 -16.87,-198.93 -29.61,-70.44 -69.07,-116.54 -139.67,-159.16 -12.65,-7.64 -25.59,-15.18 -40.25,-22.14 -28.19,-13.4 -59.16,-25.32 -93.76,-33.19 -50.98,-11.59 -128.46,-11.4 -182.86,-3.55 -21.27,3.07 -35.06,8.85 -52.16,12.45z"/>
  <path class="fil9" d="M1038.96 790.94c-0.18,21.29 -0.61,49.35 -0.58,70.64 0.03,22.58 -5.75,43.77 22.44,46.35 47.68,4.37 89.96,11.55 136.25,18.26 71.39,10.35 196.15,25.32 257.96,47.75 58.95,21.4 96.71,49.92 122.71,93.41 38.81,64.96 26.88,91.32 26.88,173.99 0,20.74 1.39,118.55 -0.45,130.4 -8.57,0.86 -20.96,0.81 -29.77,0.64 -12.96,-0.25 -16.75,-1.17 -18.84,-10.99 -1.96,-9.15 0.06,-140.6 0.06,-157.17 0,-81.16 -3.83,-123.12 -60.91,-163.44 -26.81,-18.94 -46.04,-27.8 -81.14,-37.99 -61.91,-17.98 -147.08,-26 -213.34,-36.25 -34.15,-5.28 -76.93,-14.09 -112.23,-13.7 -0.59,28.96 -10.05,53.87 -25.35,74.75 -46.08,62.92 -134.16,102.55 -224.45,103.21 -12.64,-76.2 13.11,-11.94 124.37,-70.98 32.51,-17.26 83.82,-62.04 80.54,-114.01 -19.72,-12.81 -45.58,-11.58 -49.32,-41.45 -3.06,-24.43 0.5,-58.84 0.67,-84.51 0,-6.34 0.01,-6.31 0.04,-8.57 0.01,-0.71 0.09,-0.76 1.1,-1.1 4.63,-1.58 34.38,-16.33 42.23,-19.32 0.59,-0.22 0.89,-0.74 1.13,0.08z"/>
  <path class="fil10" d="M1912.49 145.07c-209.14,73.94 -270.78,159.64 -280.55,317.79 5.61,148.92 93.42,232.63 241.73,290.67l53.81 608.01c86.78,-12.27 149.56,-39.42 164.29,-96.33l8.7 -71.4 54.62 -132.66 -75.87 -116.03 91.13 -116.3 -31.35 -114.27c164.26,-84.5 220.54,-208.08 175.28,-368.43 -66.58,-149.6 -197.12,-224.24 -401.79,-201.05z"/>
  <path class="fil9 str3" d="M1869 283.83c28.88,-41.03 86.84,-48.84 124.84,-30.4 49.11,23.81 54.92,75.42 30.14,109.97 -65.12,90.82 -222.95,16.98 -154.98,-79.57zm-12.2 -10.63c-33,41.66 -27.28,100.88 25.74,131.52 45.83,26.49 117.13,16.46 153.32,-30.44 31.58,-40.91 25.54,-102.75 -29.13,-131.57 -46.08,-24.28 -113.5,-15.5 -149.93,30.49z"/>
  <path class="fil9" d="M1638.47 342.47c-40.81,55.49 57.36,109.33 98.25,48.42 14.44,-21.51 11.15,-52.83 -18.78,-67.38 -24.6,-11.95 -60.87,-6.33 -79.47,18.96z"/>
  <path class="fil9" d="M1618.63 472.13c-2.09,8.79 -1.19,21.45 -1.26,30.28 -0.55,72.17 53.13,150.99 112.59,201.22 21.85,18.47 45.85,36 72.27,47.73 45.97,20.4 55.87,13.24 57.28,34.75 2.94,44.7 7.1,74.16 8.76,119.62l10.37 120.81c2.16,25.19 28.36,350.04 31.67,358.22 20.77,-5.49 36.01,-7.86 57.09,-11.34 63.91,-10.57 130.03,-50.28 151.63,-104.5 13.21,-33.15 -10.02,-65.33 4.68,-100.71l53.49 -104.73c-1.05,-3.1 1.61,1.7 -2.04,-4.18 -1.91,-3.1 0.14,-0.09 -2.84,-3.83 -22.38,-28.14 -52.88,-79.38 -74.58,-111.84 29.47,-30.59 80.17,-76.7 85.42,-112.35 2.42,-16.4 -3.04,-34.15 -6.65,-51.65 -3.52,-17.11 -4.31,-39.2 -9.23,-49.64 57.52,-34.18 81.89,-47.2 125.81,-107.75 28.53,-39.34 49.88,-90.11 53.13,-127.68 3.72,-43.06 3.48,-80.11 -11.81,-122.04 -14.89,-40.81 -32.36,-77.28 -68.79,-117.03 -38.52,-42.05 -85.61,-72.36 -139.76,-92.14 -53.25,-19.43 -97,-22.32 -142.06,-22.41l-69.42 7.51c-60.39,11.3 -122.87,40.69 -169.07,80.16 -5.39,4.6 -27.85,23.34 -28.94,29.62l8.33 -4.66c17.17,14.16 16.97,22.58 38.74,30.77 42.83,-29.29 53.33,-56.75 119.97,-82.95 37.76,-14.84 85.33,-23.49 124.8,-22.14 28.17,0.97 97.62,8.69 128.43,24.65 84.81,43.91 152.53,113.69 168.83,200.59 5.86,31.25 11.35,79.8 1.4,110.96 -28.74,90.04 -95.84,156.1 -191.8,195.14 -1,7.48 1.84,20.44 3.64,28.62l16.6 86.8c0.6,10.35 -8.81,17.62 -19.87,31.18l-77.91 96.48c23.19,29.52 46.54,69.8 69.35,102.23 12.32,17.53 10.32,9.02 -7.67,54.31l-33.24 84.49c-6.52,16.07 -6.59,12.94 -2.36,26.96 1.58,5.21 5.52,50.42 3.48,54.59 -18.98,38.66 -86.84,66.78 -116.24,66.67 -3.03,-6.58 -1.88,-10.22 -2.13,-18.91 -1.28,-45.38 -6.17,-87.21 -7.56,-134.43 -0.39,-13.39 0.7,-25.26 -2.05,-38.61l-11.7 -191.59c-1.71,-11.15 -1.03,-26.69 -1.39,-38.67 -0.39,-13.51 -0.63,-25.23 -1.14,-38.71l-5.91 -77.02c-0.64,-26.35 -1.1,-51.19 -3.21,-76.91 -14.53,-6.99 -35.98,-4.9 -49.13,-7.28 -6.99,-1.26 -40.12,-15.32 -48.76,-18.97 -78.05,-32.98 -121.28,-97.98 -138.15,-168.76 -1.82,-7.62 -2.18,-13.95 -4.07,-21.01 -3.64,-13.58 -2.57,-29.89 -6.13,-41.75 -8.14,1.28 -15.04,1.33 -25.04,2.67 -8.62,1.15 -16.34,4.23 -25.85,-0.84z"/>
  <polygon class="fil11 str4" points="985.63,1087.17 1711.77,816.5 1373.66,1129.86 3130.64,150.65 2208.39,553.31 2605.38,250.36 "/>
 </g>
</svg>
