<?xml version="1.0" encoding="UTF-8"?>
<!DOCTYPE svg PUBLIC "-//W3C//DTD SVG 1.1//EN" "http://www.w3.org/Graphics/SVG/1.1/DTD/svg11.dtd">
<!-- Creator: CorelDRAW 2020 (64 Bit) -->
<svg xmlns="http://www.w3.org/2000/svg" xml:space="preserve" width="434px" height="550px" version="1.1" style="shape-rendering:geometricPrecision; text-rendering:geometricPrecision; image-rendering:optimizeQuality; fill-rule:evenodd; clip-rule:evenodd"
viewBox="0 0 314.48 398.44"
 xmlns:xlink="http://www.w3.org/1999/xlink"
 xmlns:xodm="http://www.corel.com/coreldraw/odm/2003">
 <defs>
  <style type="text/css">
   <![CDATA[
    .str0 {stroke:#A9ABAE;stroke-width:1.45;stroke-miterlimit:22.9256}
    .str1 {stroke:red;stroke-width:1.45;stroke-miterlimit:22.9256}
    .fil4 {fill:#53331D}
    .fil6 {fill:#727376}
    .fil2 {fill:#86B0C0}
    .fil1 {fill:#9D720B}
    .fil3 {fill:#B8E3E9}
    .fil5 {fill:#E2A610}
    .fil7 {fill:#ED3237}
    .fil0 {fill:#FCD532}
   ]]>
  </style>
 </defs>
 <g id="Camada_x0020_1">
  <metadata id="CorelCorpID_0Corel-Layer"/>
  <path class="fil0" d="M242.08 177.35c11.58,-1.31 23.81,1.27 28.99,7.02 3.97,4.4 0.15,8.46 -3.28,10.65 -17.84,11.36 -60.16,-0.52 -40.27,-13.46 3.75,-2.44 8.97,-3.58 14.56,-4.21zm-140.88 -19.03c-9.27,1.3 -18.41,1.94 -27.77,3.48 -12.64,1.93 -28.25,5.24 -37.72,7.75 -8.23,1.8 -16.6,4.55 -24.46,8.1 -7.84,3.55 -5.78,3.66 -8.59,6.52 0.98,1.11 1.03,2.84 1.45,4.17 1.31,4.18 3.86,7 6.85,9.93 3.62,3.56 8.43,6.38 14.52,9.19 10.48,4.84 25.53,8.19 38.59,10.42 53.9,9.17 176.84,10.96 226.76,-10.07 11.22,-4.73 21.3,-10.93 22.98,-23.74 -0.75,-2.16 -1.61,-3.09 -3.27,-4.07 -1.32,-0.77 -2.98,-1.72 -4.7,-2.52 -3.4,-1.57 -7.13,-2.84 -10.96,-4.12 -34.29,-11.44 -98.4,-19.86 -135.48,-19.32 -20.74,0.31 -38.31,2.07 -58.2,4.28z"/>
  <path class="fil1" d="M242.08 177.35c-5.59,0.63 -10.81,1.77 -14.56,4.21 -19.9,12.94 22.43,24.82 40.27,13.46 3.43,-2.19 7.25,-6.25 3.27,-10.65 -5.17,-5.75 -17.4,-8.33 -28.98,-7.02z"/>
  <path class="fil1" d="M67.69 177.35c-5.58,0.63 -10.81,1.77 -14.55,4.21 -19.9,12.94 22.43,24.82 40.26,13.46 3.44,-2.19 7.26,-6.25 3.28,-10.65 -5.18,-5.75 -17.41,-8.33 -28.99,-7.02z"/>
  <path class="fil2" d="M105.13 42.07c-2.16,10 -8.68,9.53 -16.07,18.5 -9.95,12.09 -16.7,31.32 -20.92,46.01 -1.14,3.98 -2.01,10.03 -5.86,11.25 -3.16,1.01 -4.78,-1.42 -5.41,-3.19 -0.78,-2.18 -0.61,-5.15 -0.63,-7.51 -0.26,-26.73 2.25,-56.3 28.16,-71.73 12.75,-7.6 22.76,-2.7 20.73,6.67zm-57.19 72.4l0.17 31.82c0.49,1.21 0.14,0.66 1.49,1.54 4.79,3.11 13.3,5.8 19.29,6.4 11.65,1.17 20.75,-2.19 29.45,-6.62 2.62,-1.33 2.06,-1.46 2.07,-4.52 0.03,-4.28 0.15,-8.58 0.23,-12.86 0.15,-7.74 -0.25,-17.2 0.56,-24.71 -0.74,-13.63 0.68,11.72 0.98,-4.42 0.15,-7.86 0.01,-10.09 3.01,-17.06 13.81,-32.02 51.95,-47.55 87.42,-33.91 20.56,7.9 37.73,28.6 37.7,46.55 -0.03,13.02 0,26.04 0,39.06 6.59,2.78 14.74,5.05 23.56,5.14 7.63,0.07 19.13,-2.25 23.88,-5.36 0.05,-10.17 0.69,-20.25 0.79,-30.4 0.2,-22.24 -13.21,-52.68 -29.57,-68.21 -7.92,-7.51 -9.76,-9.21 -18.72,-15.33 -6.2,-4.23 -14.32,-8.6 -22.6,-12.08 -29.2,-12.25 -59.95,-12.44 -90.92,-1.79 -8.24,2.83 -16.95,6.29 -23.34,11.48 -7.62,6.19 -10.61,7.31 -18.13,15.82 -3.25,3.68 -4.41,4.68 -7.58,8.95 -2.45,3.3 -4.5,6.32 -6.7,10.09 -8.69,14.93 -13.31,32.13 -13.23,51.07 0.1,20.44 0.88,-10.97 0.19,9.35z"/>
  <path class="fil3" d="M105.13 42.07c2.03,-9.37 -7.98,-14.27 -20.73,-6.67 -25.91,15.43 -28.42,45 -28.16,71.73 0.02,2.36 -0.15,5.33 0.63,7.51 0.63,1.77 2.25,4.2 5.41,3.19 3.85,-1.22 4.72,-7.27 5.86,-11.25 4.22,-14.69 10.97,-33.92 20.92,-46.01 7.39,-8.97 13.91,-8.5 16.07,-18.5z"/>
  <path class="fil4" d="M145.05 262.12l-1.05 0.43c-3.1,2.87 -12.2,5.44 -11.66,18.08 0.33,7.63 6.49,15.43 13.11,17.12 -2.07,7.47 -17.48,35.66 -16.94,40.29 2.23,3.03 7.67,2.18 12.58,2.15l30.36 -0.05c13.13,0.16 11.96,-0.73 5.95,-13.49l-8.48 -18.63c-1.14,-2.5 -3.47,-6.94 -4.09,-9.33 4.77,-3.41 13.77,-5.85 13.37,-18.09 -0.27,-8.27 -4.04,-13.52 -11.52,-17.67 -0.09,-0.05 -0.21,-0.11 -0.3,-0.16l-1.13 -0.8c-3.15,-0.23 -6.11,-1.4 -10.18,-1.44 -4.27,-0.05 -6.46,0.86 -10.02,1.59z"/>
  <path class="fil1" d="M165.25 261.97l1.13 0.8c0.09,0.05 0.21,0.11 0.3,0.16 7.48,4.15 11.25,9.4 11.52,17.67 0.4,12.24 -8.6,14.68 -13.37,18.09 0.62,2.39 2.95,6.83 4.09,9.33l8.48 18.63c6.01,12.76 7.18,13.65 -5.95,13.49l-30.36 0.05c-4.91,0.03 -10.35,0.88 -12.58,-2.15 -0.54,-4.63 14.87,-32.82 16.94,-40.29 -6.62,-1.69 -12.78,-9.49 -13.11,-17.12 -0.54,-12.64 8.56,-15.21 11.66,-18.08l1.05 -0.43 -1.05 0.43c-11.5,0.7 -29.04,17.6 -14.15,33.06 4.92,5.1 6.73,5.14 12.51,7.61 -4.67,7.64 -13.2,24.49 -18.04,33.3 -1.55,2.81 -3.03,5.45 -4.53,8.27 -2.32,4.34 0.28,5.93 5.37,6.11 15.91,0.54 40.73,-0.15 58.35,0.03 4.7,0.04 9.33,-0.41 7.94,-5.04 -0.53,-1.74 -3.63,-6.79 -4.68,-8.57 -3.1,-5.29 -6.21,-11.05 -9.11,-16.5 -1.79,-3.37 -8.35,-14.7 -9.14,-17.05 9.73,-2.91 20.05,-10.04 18.24,-21.91 -1.66,-10.94 -9.61,-17.45 -21.51,-19.89z"/>
  <path class="fil5" d="M144 262.55l1.05 -0.43c3.56,-0.73 5.75,-1.64 10.02,-1.6 4.07,0.05 7.03,1.22 10.18,1.45 11.9,2.44 19.85,8.95 21.51,19.89 1.81,11.87 -8.51,19 -18.24,21.91 0.79,2.35 7.35,13.68 9.14,17.05 2.9,5.45 6.01,11.21 9.11,16.49 1.05,1.79 4.15,6.84 4.68,8.58 1.39,4.63 -3.24,5.08 -7.94,5.04 -17.62,-0.18 -42.44,0.51 -58.35,-0.04 -5.09,-0.17 -7.69,-1.76 -5.37,-6.1 1.5,-2.82 2.98,-5.46 4.53,-8.27 4.84,-8.82 13.37,-25.66 18.04,-33.3 -5.78,-2.47 -7.59,-2.51 -12.51,-7.61 -14.89,-15.46 2.65,-32.36 14.15,-33.06zm169.81 -78.48c-1.68,12.81 -11.76,19.01 -22.98,23.74 -49.92,21.03 -172.86,19.24 -226.76,10.06 -13.06,-2.22 -28.11,-5.57 -38.59,-10.41 -6.09,-2.81 -10.9,-5.63 -14.52,-9.19 -2.99,-2.94 -5.54,-5.75 -6.85,-9.93 -0.42,-1.33 -0.48,-3.06 -1.45,-4.17 -0.96,1.62 -0.87,41.44 -0.88,42.63 -0.16,14.32 -0.33,28.64 -0.49,42.97 -0.32,28.52 -0.65,57.03 -0.97,85.54 -0.12,10.53 -2.29,9.42 6.58,16.23 3.49,2.68 10.63,6.19 16.11,8.27 12.11,4.59 25.33,7.89 39.43,10.49 59.99,11.04 128.33,10.74 188.34,-0.25 13.2,-2.41 28.31,-5.8 39.65,-10.29 6.24,-2.47 11.69,-4.89 16.42,-8.02 9.61,-6.34 7.41,-6.76 7.41,-15.22 0,-28.79 0,-57.57 0,-86.35 0,-1.25 0.71,-84.1 -0.45,-86.1z"/>
  <polygon class="fil6 str0" points="108.52,182.57 152.11,210.51 193.96,184.07 178.92,227.63 222.62,255.43 169.73,254.41 154.89,298.03 137.25,253.84 84.37,253 126.35,226.71 "/>
  <polygon class="fil7 str1" points="152.87,147.25 159.35,226.57 244.85,207.62 163.35,237.7 209.72,305.3 152.87,244.58 96.03,305.3 142.39,237.7 60.9,207.62 146.39,226.57 "/>
 </g>
</svg>
