<?xml version="1.0" encoding="UTF-8"?>
<!DOCTYPE svg PUBLIC "-//W3C//DTD SVG 1.1//EN" "http://www.w3.org/Graphics/SVG/1.1/DTD/svg11.dtd">
<!-- Creator: CorelDRAW 2021 (64 Bit) -->
<svg xmlns="http://www.w3.org/2000/svg" xml:space="preserve" width="59.2667mm" height="66.04mm" version="1.1" style="shape-rendering:geometricPrecision; text-rendering:geometricPrecision; image-rendering:optimizeQuality; fill-rule:evenodd; clip-rule:evenodd"
viewBox="0 0 484.76 540.16"
 xmlns:xlink="http://www.w3.org/1999/xlink"
 xmlns:xodm="http://www.corel.com/coreldraw/odm/2003">
 <defs>
  <style type="text/css">
   <![CDATA[
    .str0 {stroke:black;stroke-width:6.93;stroke-miterlimit:22.9256}
    .fil2 {fill:red}
    .fil1 {fill:#FFAE00}
    .fil0 {fill:white}
   ]]>
  </style>
 </defs>
 <g id="Camada_x0020_1">
  <metadata id="CorelCorpID_0Corel-Layer"/>
  <g id="_1791056680560">
   <rect class="fil0" x="-0" y="-0" width="484.76" height="540.16"/>
   <path class="fil1" d="M204.63 88.99c-60.87,23.07 -78.82,49.81 -81.66,99.16 1.63,46.47 27.19,72.59 70.36,90.7l15.66 189.72c25.26,-3.83 43.53,-12.3 47.82,-30.06l2.53 -22.28 15.9 -41.4 -22.08 -36.2 26.53 -36.29 -9.12 -35.66c47.81,-26.37 64.19,-64.93 51.02,-114.96 -19.38,-46.68 -57.37,-69.97 -116.95,-62.73z"/>
   <path class="fil1 str0" d="M124.87 150.58c-11.88,17.32 16.7,34.11 28.6,15.11 4.2,-6.71 3.25,-16.49 -5.47,-21.03 -7.16,-3.73 -17.72,-1.97 -23.13,5.92z"/>
   <path class="fil1 str0" d="M119.09 191.04c-0.32,2.85 -0.38,6.62 -0.37,9.45 -0.16,22.52 15.47,47.11 32.77,62.79 6.36,5.76 13.35,11.23 21.04,14.89 13.38,6.37 16.26,4.13 16.67,10.84 0.85,13.95 2.07,23.14 2.55,37.33l3.02 37.7c0.63,7.86 8.26,109.23 9.22,111.78 6.04,-1.71 10.48,-2.45 16.62,-3.54 18.6,-3.3 37.85,-15.69 44.14,-32.61 3.84,-10.34 -2.92,-20.39 1.36,-31.43l15.57 -32.68c-0.3,-0.97 0.47,0.53 -0.59,-1.3 -0.56,-0.97 0.04,-0.03 -0.83,-1.2 -6.51,-8.78 -15.39,-24.77 -21.71,-34.9 8.58,-9.54 23.34,-23.93 24.86,-35.05 0.7,-5.12 -0.89,-10.66 -1.94,-16.12 -1.03,-5.34 -1.26,-12.23 -2.69,-15.49 16.74,-10.66 23.84,-14.73 36.62,-33.62 8.3,-12.27 14.52,-28.12 15.46,-39.84 1.08,-13.43 1.01,-25 -3.44,-38.08 -4.33,-12.73 -9.42,-24.11 -20.02,-36.52 -11.21,-13.12 -24.92,-22.58 -40.68,-28.75 -15.5,-6.06 -28.23,-6.96 -41.35,-7l-20.21 2.34c-17.58,3.53 -35.76,12.7 -49.21,25.01 -1.57,1.44 -5.71,4.9 -6.86,6.77l0.86 1.02c4.7,4.46 6.56,6.26 11.28,9.6 12.47,-9.14 15.52,-17.71 34.92,-25.88 10.99,-4.63 24.84,-7.33 36.33,-6.91 8.2,0.3 28.41,2.71 37.38,7.69 24.69,13.7 44.4,35.48 49.14,62.59 1.71,9.75 3.3,24.9 0.41,34.63 -8.37,28.09 -27.89,48.71 -55.83,60.89 -0.29,2.34 0.53,6.38 1.06,8.93l4.83 27.08c0.17,3.23 -2.56,5.5 -5.78,9.73l-22.68 30.1c6.75,9.21 13.55,21.78 20.19,31.9 3.59,5.47 3,2.82 -2.23,16.95l-9.67 26.37c-1.9,5.01 -1.92,4.04 -0.69,8.41 0.46,1.63 1.61,15.73 1.01,17.03 -5.52,12.06 -25.28,20.84 -33.84,20.8 -0.88,-2.05 -0.55,-3.19 -0.62,-5.9 -0.37,-14.16 -1.8,-27.21 -2.2,-41.95 -0.11,-4.18 0.2,-7.88 -0.6,-12.05l-3.4 -59.78c-0.5,-3.48 -0.3,-8.33 -0.4,-12.07 -0.12,-4.22 -0.18,-7.87 -0.33,-12.08l-1.72 -24.03c-0.19,-8.22 -0.32,-15.97 -0.93,-24 -4.23,-2.18 -10.48,-1.53 -14.3,-2.27 -2.03,-0.39 -11.68,-4.78 -14.19,-5.92 -22.72,-10.29 -35.3,-30.57 -40.21,-52.66 -0.53,-2.38 -1.27,-7.37 -1.74,-9.69 -0.38,-2.65 -0.68,-6.01 -1.23,-9.9 -2.37,0.4 -4.23,0.48 -7.29,0.83 -2.62,0.15 -4.18,0.11 -7.52,-0.26z"/>
   <ellipse class="fil1 str0" cx="199.84" cy="143.02" rx="22.55" ry="20.78"/>
   <polygon class="fil2 str0" points="73.03,377.36 180.61,314.64 142.54,370.06 412.8,169.8 273.15,251.98 346.03,169.66 "/>
  </g>
 </g>
</svg>
