<?xml version="1.0" encoding="UTF-8"?>
<!DOCTYPE svg PUBLIC "-//W3C//DTD SVG 1.1//EN" "http://www.w3.org/Graphics/SVG/1.1/DTD/svg11.dtd">
<!-- Creator: CorelDRAW 2021 (64 Bit) -->
<svg xmlns="http://www.w3.org/2000/svg" xml:space="preserve" width="59.2667mm" height="66.04mm" version="1.1" style="shape-rendering:geometricPrecision; text-rendering:geometricPrecision; image-rendering:optimizeQuality; fill-rule:evenodd; clip-rule:evenodd"
viewBox="0 0 486.02 541.56"
 xmlns:xlink="http://www.w3.org/1999/xlink"
 xmlns:xodm="http://www.corel.com/coreldraw/odm/2003">
 <defs>
  <style type="text/css">
   <![CDATA[
    .str0 {stroke:black;stroke-width:6.94;stroke-miterlimit:22.9256}
    .fil1 {fill:#00FF95}
    .fil2 {fill:red}
    .fil0 {fill:white}
   ]]>
  </style>
 </defs>
 <g id="Camada_x0020_1">
  <metadata id="CorelCorpID_0Corel-Layer"/>
  <g id="_1350297154960">
   <rect class="fil0" x="-0" y="-0" width="486.02" height="541.56"/>
   <path class="fil1" d="M222.49 74.44c-61.03,23.13 -79.02,49.94 -81.87,99.42 1.64,46.59 27.26,72.78 70.54,90.93l15.7 190.21c25.32,-3.84 43.64,-12.33 47.94,-30.13l2.54 -22.34 15.94 -41.5 -22.14 -36.3 26.59 -36.38 -9.15 -35.75c47.94,-26.43 64.36,-65.1 51.15,-115.26 -19.43,-46.8 -57.52,-70.15 -117.25,-62.9z"/>
   <path class="fil1 str0" d="M142.53 136.2c-11.91,17.36 16.74,34.2 28.67,15.15 4.21,-6.73 3.25,-16.53 -5.48,-21.08 -7.18,-3.74 -17.76,-1.98 -23.19,5.93z"/>
   <path class="fil1 str0" d="M136.74 176.76c-0.32,2.85 -0.38,6.64 -0.37,9.47 -0.16,22.58 15.51,47.24 32.86,62.95 6.38,5.78 13.38,11.26 21.09,14.93 13.42,6.39 16.3,4.14 16.72,10.87 0.86,13.99 2.07,23.2 2.55,37.42l3.03 37.79c0.63,7.88 8.28,109.51 9.24,112.07 6.06,-1.72 10.51,-2.46 16.66,-3.55 18.65,-3.3 37.95,-15.73 44.25,-32.69 3.85,-10.37 -2.93,-20.44 1.37,-31.51l15.61 -32.76c-0.31,-0.97 0.47,0.53 -0.59,-1.31 -0.56,-0.97 0.04,-0.03 -0.83,-1.2 -6.53,-8.8 -15.43,-24.83 -21.76,-34.99 8.6,-9.57 23.4,-23.99 24.93,-35.15 0.71,-5.13 -0.89,-10.69 -1.94,-16.16 -1.03,-5.35 -1.26,-12.26 -2.69,-15.53 16.78,-10.69 23.9,-14.76 36.71,-33.71 8.33,-12.31 14.56,-28.19 15.5,-39.94 1.09,-13.47 1.02,-25.06 -3.45,-38.18 -4.34,-12.77 -9.44,-24.18 -20.07,-36.61 -11.24,-13.15 -24.98,-22.64 -40.79,-28.82 -15.54,-6.08 -28.31,-6.98 -41.46,-7.01l-20.26 2.35c-17.62,3.54 -35.86,12.73 -49.34,25.08 -1.57,1.44 -5.72,4.92 -6.87,6.78l0.86 1.02c4.72,4.47 6.57,6.28 11.31,9.63 12.5,-9.17 15.56,-17.75 35.01,-25.95 11.02,-4.64 24.9,-7.35 36.42,-6.93 8.22,0.3 28.49,2.72 37.48,7.71 24.75,13.74 44.51,35.57 49.27,62.75 1.71,9.78 3.31,24.97 0.41,34.72 -8.39,28.17 -27.97,48.84 -55.97,61.05 -0.29,2.34 0.53,6.4 1.06,8.96l4.84 27.15c0.17,3.24 -2.57,5.51 -5.8,9.76l-22.74 30.18c6.77,9.24 13.58,21.84 20.24,31.98 3.6,5.48 3.01,2.82 -2.24,16.99l-9.7 26.43c-1.91,5.02 -1.92,4.05 -0.69,8.43 0.46,1.63 1.61,15.77 1.01,17.08 -5.54,12.09 -25.34,20.89 -33.92,20.86 -0.88,-2.06 -0.55,-3.2 -0.62,-5.92 -0.37,-14.2 -1.8,-27.28 -2.21,-42.06 -0.11,-4.19 0.2,-7.9 -0.6,-12.08l-3.41 -59.94c-0.5,-3.49 -0.3,-8.35 -0.4,-12.1 -0.12,-4.23 -0.19,-7.89 -0.33,-12.11l-1.72 -24.09c-0.19,-8.24 -0.32,-16.01 -0.94,-24.06 -4.24,-2.19 -10.5,-1.53 -14.34,-2.28 -2.04,-0.39 -11.71,-4.8 -14.23,-5.94 -22.78,-10.32 -35.39,-30.65 -40.32,-52.79 -0.53,-2.38 -1.28,-7.39 -1.75,-9.71 -0.38,-2.65 -0.68,-6.02 -1.23,-9.92 -2.37,0.4 -4.24,0.48 -7.31,0.84 -2.62,0.15 -4.19,0.11 -7.54,-0.26z"/>
   <ellipse class="fil1 str0" cx="217.69" cy="128.62" rx="22.61" ry="20.83"/>
   <polygon class="fil2 str0" points="70.6,363.56 178.47,300.68 140.29,356.25 411.26,155.47 271.25,237.86 344.31,155.33 "/>
  </g>
 </g>
</svg>
