<?xml version="1.0" encoding="UTF-8"?>
<!DOCTYPE svg PUBLIC "-//W3C//DTD SVG 1.1//EN" "http://www.w3.org/Graphics/SVG/1.1/DTD/svg11.dtd">
<!-- Creator: CorelDRAW 2021 (64 Bit) -->
<svg xmlns="http://www.w3.org/2000/svg" xml:space="preserve" width="118.055mm" height="49.0613mm" version="1.1" style="shape-rendering:geometricPrecision; text-rendering:geometricPrecision; image-rendering:optimizeQuality; fill-rule:evenodd; clip-rule:evenodd"
viewBox="0 0 14700.97 6109.44"
 xmlns:xlink="http://www.w3.org/1999/xlink"
 xmlns:xodm="http://www.corel.com/coreldraw/odm/2003">
 <defs>
  <style type="text/css">
   <![CDATA[
    .str3 {stroke:black;stroke-width:52.71;stroke-miterlimit:22.9256}
    .str1 {stroke:#A9ABAE;stroke-width:21.08;stroke-miterlimit:22.9256}
    .str2 {stroke:red;stroke-width:21.08;stroke-miterlimit:22.9256}
    .str0 {stroke:white;stroke-width:21.08;stroke-miterlimit:22.9256}
    .fil0 {fill:#FEFEFE}
    .fil7 {fill:#727376}
    .fil8 {fill:#ED3237}
    .fil9 {fill:black}
    .fil10 {fill:#00FF95}
    .fil5 {fill:#53331D}
    .fil3 {fill:#86B0C0}
    .fil2 {fill:#9D720B}
    .fil4 {fill:#B8E3E9}
    .fil6 {fill:#E2A610}
    .fil1 {fill:#FCD532}
    .fil11 {fill:red}
   ]]>
  </style>
 </defs>
 <g id="Camada_x0020_1">
  <metadata id="CorelCorpID_0Corel-Layer"/>
  <g id="_2412512978896">
   <rect class="fil0 str0" x="10.56" y="10.54" width="14679.88" height="6088.35"/>
   <g>
    <path class="fil1" d="M13317.33 2703.87c168.55,-19.07 346.55,18.47 421.92,102.1 57.79,64.17 2.2,123.19 -47.76,155.01 -259.56,165.32 -875.55,-7.47 -585.97,-195.89 54.48,-35.45 130.49,-52.01 211.81,-61.22zm-2050.32 -277c-134.84,19 -267.89,28.26 -404.06,50.67 -184,28.09 -411.14,76.25 -549.06,112.83 -119.67,26.2 -241.57,66.12 -355.96,117.9 -114.07,51.64 -84.14,53.17 -125.01,94.83 14.22,16.13 14.98,41.33 21.07,60.68 19.13,60.83 56.25,101.85 99.73,144.59 52.67,51.77 122.65,92.82 211.38,133.77 152.46,70.36 371.54,119.17 561.58,151.52 784.51,133.59 2573.68,159.59 3300.16,-146.53 163.32,-68.8 310.02,-159.07 334.5,-345.47 -10.96,-31.37 -23.4,-44.97 -47.67,-59.21 -19.14,-11.22 -43.29,-25.07 -68.34,-36.67 -49.45,-22.91 -103.76,-41.41 -159.57,-60.02 -498.98,-166.43 -1431.98,-288.99 -1971.62,-281.09 -301.9,4.42 -557.59,30.06 -847.13,62.21z"/>
    <path class="fil2" d="M13317.35 2703.87c-81.34,9.2 -157.34,25.76 -211.82,61.22 -289.57,188.42 326.4,361.21 585.99,195.89 49.96,-31.8 105.54,-90.85 47.73,-155.01 -75.36,-83.64 -253.36,-121.16 -421.9,-102.1z"/>
    <path class="fil2" d="M10779.44 2703.87c-81.34,9.2 -157.33,25.76 -211.81,61.22 -289.59,188.42 326.38,361.21 585.97,195.89 49.96,-31.8 105.54,-90.85 47.74,-155.01 -75.38,-83.64 -253.37,-121.16 -421.91,-102.1z"/>
    <path class="fil3" d="M11324.32 735.01c-31.49,145.65 -126.37,138.69 -233.91,269.33 -144.76,175.87 -243.05,455.73 -304.42,669.59 -16.59,57.84 -29.35,145.95 -85.38,163.75 -46.01,14.61 -69.6,-20.65 -78.74,-46.42 -11.28,-31.79 -8.78,-74.98 -9.12,-109.41 -3.79,-388.97 32.76,-819.36 409.78,-1043.92 185.56,-110.55 331.24,-39.18 301.78,97.08zm-832.34 1053.72l2.37 463.11c7.26,17.66 2.17,9.61 21.82,22.38 69.66,45.32 193.56,84.5 280.65,93.21 169.54,16.96 302.08,-31.84 428.63,-96.38 38.07,-19.41 29.92,-21.24 30.17,-65.74 0.32,-62.31 2.19,-124.91 3.32,-187.25 2.09,-112.57 -3.72,-250.26 8.07,-359.63 -10.66,-198.26 9.97,170.58 14.35,-64.24 2.15,-114.44 0.07,-146.88 43.82,-248.29 201,-465.97 755.96,-692.06 1272.3,-493.56 299.11,114.96 549.04,416.21 548.59,677.56 -0.34,189.44 0,378.91 0,568.36 96,40.48 214.48,73.58 342.87,74.78 111.14,1.03 278.42,-32.61 347.63,-77.89 0.71,-148.09 10.05,-294.73 11.42,-442.51 3,-323.68 -192.27,-766.64 -430.3,-992.61 -115.24,-109.4 -142.01,-134.04 -272.41,-223.13 -90.26,-61.65 -208.51,-125.21 -328.97,-175.79 -424.9,-178.38 -872.42,-181.14 -1323.25,-26.14 -119.84,41.21 -246.64,91.55 -339.63,167.14 -110.84,90.11 -154.48,106.41 -263.88,230.24 -47.36,53.57 -64.13,68.08 -110.28,130.27 -35.61,48.02 -65.51,91.91 -97.49,146.8 -126.57,217.31 -193.76,467.57 -192.53,743.23 1.33,297.44 12.81,-159.68 2.75,136.1z"/>
    <path class="fil4" d="M11324.31 735.01c29.46,-136.26 -116.2,-207.62 -301.77,-97.08 -377.02,224.57 -413.57,654.95 -409.78,1043.92 0.34,34.43 -2.17,77.62 9.12,109.41 9.14,25.78 32.73,61.03 78.74,46.41 56.02,-17.79 68.79,-105.9 85.38,-163.74 61.37,-213.85 159.66,-493.72 304.42,-669.59 107.54,-130.64 202.42,-123.68 233.9,-269.33z"/>
    <path class="fil5" d="M11905.33 3937.61l-15.37 6.23c-45.17,41.77 -177.58,79.26 -169.63,263.16 4.79,111.02 94.39,224.51 190.69,249.14 -30.07,108.71 -254.27,518.95 -246.46,586.42 32.49,44.11 111.58,31.63 183.04,31.31l441.91 -0.83c191.02,2.37 174,-10.58 86.61,-196.34l-123.47 -271.11c-16.64,-36.31 -50.47,-101.02 -59.47,-135.81 69.44,-49.52 200.33,-85.06 194.54,-263.21 -3.91,-120.32 -58.8,-196.74 -167.64,-257.17 -1.31,-0.72 -3.06,-1.61 -4.35,-2.37l-16.47 -11.61c-45.89,-3.39 -88.87,-20.35 -148.17,-21.03 -62.2,-0.7 -93.94,12.59 -145.75,23.22z"/>
    <path class="fil2" d="M12199.25 3935.42l16.47 11.61c1.28,0.76 3.04,1.64 4.35,2.37 108.84,60.43 163.73,136.85 167.64,257.17 5.79,178.15 -125.1,213.69 -194.54,263.21 9,34.79 42.84,99.5 59.47,135.81l123.47 271.11c87.39,185.76 104.42,198.71 -86.61,196.34l-441.91 0.83c-71.47,0.32 -150.55,12.8 -183.04,-31.31 -7.81,-67.47 216.39,-477.71 246.46,-586.42 -96.3,-24.63 -185.89,-138.13 -190.69,-249.14 -7.94,-183.9 124.46,-221.4 169.63,-263.16l15.37 -6.23 -15.37 6.23c-167.3,10.27 -422.68,256.19 -205.95,481.15 71.59,74.31 97.98,74.8 182.1,110.78 -67.94,111.15 -192.09,356.35 -262.6,484.66 -22.45,40.87 -43.98,79.36 -65.87,120.39 -33.7,63.17 4.08,86.25 78.18,88.8 231.46,7.97 592.81,-2.07 849.12,0.45 68.41,0.67 135.85,-5.9 115.56,-73.35 -7.6,-25.27 -52.75,-98.79 -67.99,-124.75 -45.15,-76.96 -90.48,-160.73 -132.6,-240.08 -26.05,-49.08 -121.6,-213.94 -133.11,-248.14 141.71,-42.38 291.79,-146.13 265.53,-318.88 -24.2,-159.21 -139.89,-253.92 -313.07,-289.45z"/>
    <path class="fil6" d="M11889.96 3943.84l15.37 -6.23c51.8,-10.63 83.54,-23.92 145.75,-23.22 59.3,0.68 102.29,17.65 148.17,21.03 173.18,35.53 288.88,130.24 313.07,289.45 26.26,172.74 -123.82,276.5 -265.53,318.88 11.51,34.21 107.06,199.07 133.11,248.14 42.11,79.35 87.44,163.12 132.6,240.08 15.24,25.96 60.4,99.48 67.99,124.75 20.29,67.44 -47.15,74.02 -115.56,73.35 -256.31,-2.52 -617.66,7.52 -849.12,-0.45 -74.09,-2.55 -111.87,-25.63 -78.18,-88.8 21.89,-41.03 43.42,-79.52 65.87,-120.39 70.51,-128.31 194.66,-373.51 262.6,-484.66 -84.12,-35.98 -110.5,-36.47 -182.1,-110.78 -216.73,-224.96 38.65,-470.87 205.95,-481.15zm2471.38 -1142.18c-24.48,186.42 -171.2,276.67 -334.5,345.49 -726.48,306.12 -2515.65,280.12 -3300.16,146.53 -190.04,-32.35 -409.11,-81.17 -561.57,-151.51 -88.75,-40.96 -158.73,-82.01 -211.4,-133.78 -43.48,-42.75 -80.61,-83.74 -99.73,-144.59 -6.09,-19.36 -6.85,-44.56 -21.07,-60.68 -13.96,23.66 -12.56,603.21 -12.76,620.47 -2.29,208.4 -4.77,416.84 -7.11,625.39 -4.64,415 -9.46,829.93 -14.16,1244.92 -1.73,153.19 -33.34,137.14 95.75,236.2 50.79,38.98 154.8,90.03 234.55,120.29 176.13,66.83 368.62,114.88 573.77,152.66 873.12,160.8 1867.68,156.42 2741.04,-3.54 192.07,-35.17 412.01,-84.39 577.13,-149.82 90.77,-35.96 170.13,-71.18 238.94,-116.62 139.81,-92.31 107.84,-98.45 107.84,-221.65 0,-418.87 0,-837.74 0,-1256.61 0,-18.19 10.25,-1223.97 -6.56,-1253.15z"/>
    <polygon class="fil7 str1" points="11373.67,2779.85 12007.96,3186.48 12617.11,2801.69 12398.15,3435.65 13034.12,3840.22 12264.51,3825.41 12048.39,4460.25 11791.72,3817.12 11022.19,3804.9 11633.15,3422.23 "/>
    <polygon class="fil8 str2" points="12019.09,2265.81 12113.37,3420.15 13357.68,3144.45 12171.64,3582.16 12846.39,4566.1 12019.09,3682.28 11191.79,4566.1 11866.54,3582.15 10680.51,3144.45 11924.81,3420.15 "/>
    <polygon class="fil9" points="1538.13,5622.18 1717.01,5622.06 1717.17,4968.93 1534.72,4968.86 "/>
    <polygon class="fil9" points="5224.46,5635.56 5406.21,5633.96 5404.37,5012.7 5223.96,5012.5 "/>
    <path class="fil9" d="M3067.14 2996.15c-42.7,-25.32 -116.22,-72.23 -139.71,-105.44 50.06,-68.3 132.93,-121.49 236.56,-164.76 218.57,-91.28 499.63,-71.84 710.71,23.55 77.97,35.23 207.01,103.58 233.05,177.04 -73.83,18.95 -84.53,56.66 -130.58,85.91l-134.76 -89.58c-90.49,-53.55 -175.56,-91.73 -305.3,-90.98 -100.52,0.57 -200.58,7.67 -285.58,37.2 -89.16,30.96 -117.64,64.22 -162.89,109.68l-21.51 17.38z"/>
    <path class="fil9" d="M2859.49 1881.57c-276.11,54.65 -149.46,385.15 117.48,323.13 93.68,-21.78 172.98,-108.92 143.32,-214.39 -23.12,-82.19 -136.02,-133.44 -260.8,-108.75z"/>
    <path class="fil9" d="M3953.59 1881.5c-277.4,54.34 -148.14,385.04 117.53,323.12 91.22,-21.27 172.26,-110.33 142.87,-214.17 -23.17,-81.85 -134.97,-133.53 -260.4,-108.95z"/>
    <path class="fil9" d="M2478.65 343.87c-253.05,31.22 -191.43,329.39 70.92,289.94 233.61,-35.13 188.11,-321.9 -70.92,-289.94z"/>
    <path class="fil9" d="M4823.44 1982.29c40.67,7.88 226.09,49.5 250.2,68.27 65.75,51.16 2.15,157.05 -20.66,216.96 -27.07,71.12 -15.99,162.48 -66.22,219.39 -71.42,80.9 -142.97,46.83 -271,55.56 -25.69,38.12 -51.78,196.47 -228.59,363.92 -87.47,82.86 -85.28,88.14 -206.35,167.02 -204.49,133.24 -451.82,231.94 -799.6,226.48 -161.77,-2.55 -322.16,-13.59 -467.25,-53.38 -68.84,-18.88 -127.44,-41.42 -184.08,-68.71 -65.31,-31.49 -108.25,-62.38 -156.9,-97.14 -138.41,-98.89 -320.48,-294.67 -389.51,-452.8 -11.66,-26.7 -19.68,-65.21 -36.8,-86.48 -211.96,-6.95 -263.25,-0.8 -317.04,-162.42 -41.95,-126.06 -104.5,-213.41 -58.2,-354.59 62.51,-10.14 182.72,-11.19 232.64,-32.18 7.86,-78.86 -32,-160.88 -38.47,-239.75 -4.58,-55.88 33.78,-172.38 49.4,-232.69 21.82,-84.24 71.32,-111.12 159.22,-141.71 94.18,-32.78 176.11,-57.66 260.78,-5.93 235.23,143.7 512.28,336.47 932.18,331.22 276.39,-3.45 526.52,-93.58 742.32,-208.94 73.4,-39.24 122.02,-78 192.66,-120.07 76.02,-45.29 129.78,-41.52 234.38,17.61 353.98,200.05 221.98,369.98 186.89,590.39zm-1914.32 -1768.89c8.42,34.42 40.72,130.37 60.06,152.01 429.31,-138.15 1073.11,-63.97 1398.25,210.44 88.89,75.01 53.46,13.42 206.34,166.93 28.77,28.88 56.51,64.49 84.13,99.37 88.12,111.29 206.13,329.55 218.37,496 -97.26,-41.77 -195.88,-116.26 -320.64,-153.64 -115.92,-34.74 -176.44,-0.73 -266.42,60.67 -27.41,18.69 -43.02,26.86 -70.2,46.54 -63.93,46.29 -215.33,124.6 -311.55,161.22 -395.14,150.42 -726.14,105.23 -1067.31,-95.42l-223.96 -135.01c-68.74,-38.06 -88.04,-54.04 -192.9,-46.37 -74.01,5.42 -135.76,19.71 -198.56,43.61 -45.51,17.33 -137.1,64.87 -173.15,72.6 10.39,-256.94 236.66,-445.83 252.22,-505.86 -37.28,-27.47 -90.89,-71.04 -166.62,-83.03l-155.91 219.88c-126.73,203.1 -129.5,378.09 -130.49,607.12 -0.52,121.97 32.28,214.07 36.03,325.51 -117.59,20.71 -165.13,49.05 -197.81,139.15 -33.17,91.48 -21.47,183.63 2.27,272.97 48.6,182.95 95.08,324.69 256.05,394.41 115.51,50.01 160.45,18.79 219.78,120.84 55.76,95.91 76.66,148.83 172.48,236.12 98.38,89.61 98.92,99.16 221.72,195.16 45.43,35.52 85.6,44.39 109.87,59.21 0.73,87.13 2.69,174.23 2.55,261.37 -0.15,92.45 23.55,179.19 -91.85,189.75 -195.2,17.88 -368.29,47.26 -557.79,74.74 -292.26,42.39 -802.99,103.67 -1056.02,195.49 -241.33,87.59 -395.93,204.36 -502.34,382.38 -158.93,265.94 -110.11,373.88 -110.11,712.32 0,84.86 -5.65,485.29 1.88,533.82 35.07,3.52 85.81,3.3 121.86,2.6 53.09,-1.02 68.55,-4.78 77.14,-44.97 7.99,-37.47 -0.24,-575.62 -0.24,-643.42 0,-332.29 15.68,-504.06 249.33,-669.13 109.75,-77.54 188.48,-113.78 332.16,-155.52 253.45,-73.61 602.14,-106.45 873.37,-148.37 139.84,-21.62 314.97,-57.72 459.48,-56.1 2.42,118.55 41.16,220.52 103.77,306.01 188.62,257.58 549.24,419.84 918.85,422.52 51.75,-311.94 -53.66,-48.89 -509.11,-290.6 -133.09,-70.63 -343.16,-253.93 -329.72,-466.7 80.71,-52.46 186.6,-47.44 201.9,-169.69 12.51,-100.02 -2.05,-240.91 -2.73,-345.97 43,10.97 91.25,33.16 137.61,47.33 47.94,14.64 96.16,25.81 147.24,34.86 113.62,20.09 229.76,27.68 349.99,23.68 528.45,-17.57 1054.22,-262.18 1300.67,-651.21 21.72,-34.29 36.39,-82.16 55.41,-110.98 344.53,-7.51 341.89,-231.25 390.95,-382.31 23.41,-72.03 96.99,-146.99 44.56,-283.47 -52.31,-136.18 -175.71,-149.27 -219.27,-172.82 -22.04,-305.8 94.43,-425.66 -69.03,-814.37 -121.25,-288.37 -282.76,-477.11 -571.81,-651.61 -51.79,-31.26 -104.75,-62.11 -164.75,-90.63 -115.4,-54.85 -242.22,-103.63 -383.87,-135.85 -208.71,-47.47 -525.89,-46.69 -748.59,-14.54 -87.06,12.58 -143.53,36.21 -213.53,50.97z"/>
    <path class="fil9" d="M4253.32 3237.96c-0.73,87.13 -2.5,202.02 -2.37,289.16 0.14,92.46 -23.55,179.19 91.85,189.77 195.2,17.88 368.29,47.26 557.79,74.74 292.26,42.39 802.99,103.67 1056.02,195.48 241.33,87.59 395.92,204.36 502.35,382.4 158.92,265.94 110.08,373.87 110.08,712.31 0,84.88 5.67,485.29 -1.87,533.82 -35.07,3.54 -85.81,3.31 -121.85,2.6 -53.09,-1.02 -68.58,-4.78 -77.16,-44.95 -8.01,-37.48 0.24,-575.62 0.24,-643.43 0,-332.27 -15.67,-504.06 -249.31,-669.12 -109.76,-77.54 -188.5,-113.79 -332.19,-155.52 -253.44,-73.61 -602.12,-106.45 -873.37,-148.39 -139.82,-21.61 -314.95,-57.71 -459.47,-56.09 -2.42,118.55 -41.16,220.52 -103.76,306.01 -188.65,257.58 -549.25,419.83 -918.86,422.51 -51.75,-311.94 53.65,-48.89 509.11,-290.58 133.09,-70.63 343.17,-253.95 329.72,-466.7 -80.71,-52.46 -186.6,-47.44 -201.9,-169.7 -12.51,-100.02 2.05,-240.9 2.73,-345.96 0,-25.96 0.05,-25.84 0.17,-35.09 0.04,-2.9 0.36,-3.11 4.5,-4.51 18.98,-6.48 140.74,-66.83 172.89,-79.09 2.42,-0.91 3.64,-3.05 4.62,0.34z"/>
    <g>
     <path class="fil10" d="M7829.39 593.89c-856.16,302.7 -1108.51,653.52 -1148.5,1300.96 22.95,609.66 382.42,952.36 989.6,1189.95l220.29 2489.08c355.25,-50.23 612.26,-161.36 672.56,-394.34l35.6 -292.3 223.61 -543.1 -310.59 -474.99 373.07 -476.1 -128.34 -467.83c672.46,-345.91 902.86,-851.84 717.55,-1508.28 -272.56,-612.41 -806.95,-917.99 -1644.85,-823.03z"/>
     <g>
      <path class="fil9 str3" d="M7651.37 1161.92c118.24,-167.97 355.51,-199.93 511.08,-124.46 201.01,97.5 224.83,308.76 123.38,450.23 -266.61,371.77 -912.72,69.5 -634.46,-325.76zm-49.96 -43.5c-135.07,170.51 -111.68,412.96 105.39,538.42 187.61,108.43 479.5,67.38 627.65,-124.61 129.27,-167.5 104.58,-420.66 -119.26,-538.64 -188.61,-99.4 -464.65,-63.43 -613.78,124.84z"/>
      <path class="fil9" d="M6707.61 1402.01c-167.08,227.17 234.82,447.57 402.22,198.22 59.13,-88.05 45.66,-216.3 -76.9,-275.85 -100.68,-48.93 -249.18,-25.91 -325.33,77.63z"/>
     </g>
     <path class="fil9" d="M6626.38 1932.78c-8.54,36.01 -4.86,87.8 -5.13,123.99 -2.27,295.45 217.51,618.1 460.9,823.76 89.47,75.61 187.71,147.34 295.89,195.37 188.2,83.54 228.72,54.21 234.5,142.26 12.02,183.02 29.05,303.61 35.83,489.71l42.48 494.56c8.85,103.13 116.11,1433 129.64,1466.49 85.01,-22.48 147.44,-32.18 233.7,-46.42 261.67,-43.24 532.35,-205.82 620.78,-427.77 54.07,-135.71 -41.04,-267.46 19.16,-412.32l218.94 -428.73c-4.3,-12.7 6.59,6.96 -8.32,-17.12 -7.85,-12.68 0.55,-0.34 -11.66,-15.68 -91.6,-115.19 -216.45,-324.96 -305.3,-457.85 120.64,-125.21 328.22,-313.99 349.71,-459.91 9.9,-67.14 -12.45,-139.82 -27.22,-211.47 -14.43,-70.05 -17.66,-160.49 -37.79,-203.2 235.46,-139.93 335.24,-193.22 515.03,-441.12 116.81,-161.04 204.19,-368.9 217.5,-522.7 15.25,-176.26 14.26,-327.95 -48.35,-499.61 -60.94,-167.07 -132.46,-316.36 -281.58,-479.1 -157.73,-172.12 -350.49,-296.22 -572.19,-377.17 -217.97,-79.57 -397.1,-91.38 -581.56,-91.78l-284.18 30.75c-247.22,46.26 -503.01,166.59 -692.14,328.18 -22.05,18.84 -113.99,95.56 -118.47,121.24l34.12 -19.08c70.27,57.99 69.47,92.47 158.6,126 175.32,-119.93 218.32,-232.33 491.13,-339.58 154.57,-60.76 349.32,-96.16 510.91,-90.63 115.31,3.95 399.63,35.56 525.76,100.88 347.19,179.78 624.43,465.46 691.14,821.18 24,127.95 46.46,326.7 5.74,454.27 -117.67,368.59 -392.33,639.05 -785.18,798.85 -4.11,30.65 7.51,83.68 14.91,117.19l67.95 355.32c2.44,42.38 -36.08,72.14 -81.35,127.65l-318.96 394.95c94.93,120.87 190.54,285.78 283.9,418.53 50.46,71.76 42.25,36.92 -31.37,222.33l-136.08 345.9c-26.71,65.76 -26.98,52.97 -9.65,110.36 6.44,21.34 22.59,206.43 14.22,223.49 -77.69,158.26 -355.51,273.37 -475.88,272.94 -12.4,-26.95 -7.68,-41.85 -8.7,-77.43 -5.26,-185.76 -25.25,-357.02 -30.93,-550.33 -1.61,-54.8 2.85,-103.38 -8.42,-158.06l-47.89 -784.31c-7.01,-45.66 -4.22,-109.28 -5.67,-158.31 -1.62,-55.34 -2.6,-103.29 -4.67,-158.5l-24.2 -315.3c-2.63,-107.85 -4.5,-209.54 -13.14,-314.87 -59.51,-28.62 -147.32,-20.06 -201.16,-29.77 -28.59,-5.17 -164.24,-62.75 -199.59,-77.69 -319.51,-135 -496.51,-401.1 -565.59,-690.85 -7.43,-31.19 -8.92,-57.13 -16.66,-86.04 -14.88,-55.59 -10.5,-122.35 -25.08,-170.91 -33.31,5.27 -61.57,5.47 -102.52,10.95 -35.28,4.71 -66.87,17.32 -105.82,-3.45z"/>
    </g>
    <polygon class="fil11 str2" points="4035,4450.65 7007.7,3342.6 5623.54,4625.43 12816.28,616.69 9040.75,2265.12 10665.99,1024.9 "/>
   </g>
  </g>
 </g>
</svg>
