<?xml version="1.0" encoding="UTF-8"?>
<!DOCTYPE svg PUBLIC "-//W3C//DTD SVG 1.1//EN" "http://www.w3.org/Graphics/SVG/1.1/DTD/svg11.dtd">
<!-- Creator: CorelDRAW 2021 (64 Bit) -->
<svg xmlns="http://www.w3.org/2000/svg" xml:space="preserve" width="59.2667mm" height="59.2667mm" version="1.1" style="shape-rendering:geometricPrecision; text-rendering:geometricPrecision; image-rendering:optimizeQuality; fill-rule:evenodd; clip-rule:evenodd"
viewBox="0 0 284.26 284.26"
 xmlns:xlink="http://www.w3.org/1999/xlink"
 xmlns:xodm="http://www.corel.com/coreldraw/odm/2003">
 <defs>
  <style type="text/css">
   <![CDATA[
    .str0 {stroke:#A9ABAE;stroke-width:2.54;stroke-miterlimit:22.9256}
    .str1 {stroke:red;stroke-width:2.54;stroke-miterlimit:22.9256}
    .fil5 {fill:#53331D}
    .fil7 {fill:#727376}
    .fil3 {fill:#86B0C0}
    .fil2 {fill:#9D720B}
    .fil4 {fill:#B8E3E9}
    .fil6 {fill:#E2A610}
    .fil8 {fill:#ED3237}
    .fil1 {fill:#FCD532}
    .fil0 {fill:#FF6600;fill-opacity:0.800000}
   ]]>
  </style>
 </defs>
 <g id="Camada_x0020_1">
  <metadata id="CorelCorpID_0Corel-Layer"/>
  <polygon class="fil0" points="-0,0 284.26,0 284.26,284.26 -0,284.26 "/>
  <g id="_2242001629568">
   <path class="fil1" d="M192.04 124.61c6.85,-0.78 14.09,0.75 17.16,4.15 2.35,2.6 0.09,5.01 -1.94,6.3 -10.56,6.72 -35.6,-0.31 -23.83,-7.97 2.22,-1.44 5.31,-2.12 8.62,-2.49l0 0zm-83.37 -11.26c-5.49,0.77 -10.89,1.15 -16.43,2.06 -7.48,1.14 -16.72,3.1 -22.32,4.59 -4.87,1.07 -9.82,2.69 -14.48,4.79 -4.64,2.1 -3.42,2.17 -5.08,3.86 0.58,0.66 0.61,1.68 0.86,2.47 0.78,2.47 2.28,4.14 4.05,5.88 2.14,2.11 4.99,3.78 8.59,5.44 6.2,2.86 15.11,4.85 22.84,6.17 31.9,5.43 104.66,6.49 134.2,-5.96 6.64,-2.8 12.61,-6.47 13.6,-14.05 -0.44,-1.28 -0.95,-1.83 -1.94,-2.41 -0.78,-0.46 -1.76,-1.02 -2.78,-1.49 -2.01,-0.93 -4.22,-1.68 -6.49,-2.44 -20.29,-6.77 -58.23,-11.75 -80.18,-11.43 -12.27,0.18 -22.67,1.22 -34.44,2.53l0 0z"/>
   <path class="fil2" d="M192.04 124.61c-3.31,0.37 -6.4,1.05 -8.62,2.49 -11.78,7.66 13.27,14.69 23.83,7.97 2.03,-1.3 4.29,-3.7 1.94,-6.3 -3.06,-3.4 -10.3,-4.93 -17.15,-4.15z"/>
   <path class="fil2" d="M88.84 124.61c-3.3,0.37 -6.4,1.05 -8.61,2.49 -11.78,7.66 13.27,14.69 23.83,7.97 2.04,-1.3 4.3,-3.7 1.94,-6.3 -3.07,-3.4 -10.3,-4.93 -17.16,-4.15z"/>
   <path class="fil3" d="M110.99 44.56c-1.28,5.92 -5.14,5.64 -9.51,10.95 -5.89,7.16 -9.88,18.54 -12.38,27.23 -0.67,2.36 -1.19,5.94 -3.47,6.66 -1.87,0.6 -2.83,-0.84 -3.2,-1.89 -0.46,-1.29 -0.36,-3.05 -0.37,-4.44 -0.15,-15.82 1.33,-33.32 16.67,-42.45 7.55,-4.5 13.47,-1.6 12.27,3.95zm-33.85 42.85l0.1 18.83c0.29,0.72 0.08,0.39 0.88,0.91 2.83,1.84 7.87,3.43 11.42,3.79 6.89,0.69 12.28,-1.3 17.43,-3.92 1.55,-0.79 1.22,-0.86 1.22,-2.67 0.02,-2.53 0.09,-5.08 0.14,-7.61 0.09,-4.58 -0.15,-10.18 0.33,-14.62 -0.44,-8.07 0.4,6.94 0.58,-2.62 0.09,-4.65 0.01,-5.97 1.78,-10.1 8.17,-18.95 30.74,-28.14 51.74,-20.07 12.17,4.67 22.33,16.93 22.31,27.55 -0.02,7.71 0,15.41 0,23.12 3.9,1.65 8.72,2.99 13.94,3.04 4.52,0.04 11.32,-1.33 14.13,-3.17 0.03,-6.02 0.41,-11.98 0.47,-17.99 0.12,-13.16 -7.82,-31.18 -17.5,-40.37 -4.69,-4.44 -5.78,-5.45 -11.08,-9.07 -3.67,-2.5 -8.47,-5.09 -13.38,-7.15 -17.28,-7.25 -35.48,-7.36 -53.81,-1.06 -4.88,1.67 -10.03,3.72 -13.81,6.79 -4.51,3.66 -6.28,4.33 -10.73,9.36 -1.92,2.18 -2.61,2.77 -4.49,5.3 -1.45,1.95 -2.66,3.74 -3.97,5.97 -5.14,8.84 -7.88,19.01 -7.83,30.22 0.06,12.1 0.52,-6.49 0.11,5.53l0 0z"/>
   <path class="fil4" d="M110.99 44.56c1.2,-5.55 -4.72,-8.44 -12.27,-3.95 -15.33,9.13 -16.82,26.63 -16.67,42.45 0.01,1.4 -0.09,3.15 0.37,4.44 0.37,1.05 1.33,2.49 3.2,1.89 2.28,-0.72 2.79,-4.3 3.47,-6.66 2.5,-8.69 6.49,-20.07 12.38,-27.23 4.37,-5.31 8.23,-5.03 9.51,-10.95z"/>
   <path class="fil5" d="M134.62 174.78l-0.62 0.25c-1.83,1.7 -7.22,3.22 -6.9,10.7 0.2,4.52 3.84,9.13 7.76,10.13 -1.22,4.42 -10.34,21.1 -10.03,23.84 1.32,1.79 4.54,1.29 7.45,1.27l17.97 -0.03c7.77,0.09 7.08,-0.43 3.52,-7.98l-5.02 -11.03c-0.67,-1.48 -2.05,-4.11 -2.42,-5.52 2.82,-2.02 8.15,-3.46 7.91,-10.71 -0.16,-4.89 -2.39,-8 -6.82,-10.46 -0.05,-0.03 -0.12,-0.07 -0.18,-0.09l-0.67 -0.47c-1.86,-0.14 -3.62,-0.83 -6.02,-0.85 -2.53,-0.03 -3.82,0.51 -5.93,0.94l0 0z"/>
   <path class="fil2" d="M146.57 174.69l0.67 0.47c0.05,0.03 0.12,0.07 0.18,0.09 4.43,2.46 6.66,5.56 6.82,10.46 0.24,7.24 -5.09,8.69 -7.91,10.71 0.37,1.41 1.75,4.04 2.42,5.52l5.02 11.03c3.56,7.55 4.25,8.08 -3.52,7.98l-17.97 0.03c-2.91,0.02 -6.13,0.52 -7.45,-1.27 -0.32,-2.74 8.8,-19.42 10.03,-23.84 -3.92,-1 -7.56,-5.62 -7.76,-10.13 -0.32,-7.48 5.07,-9 6.9,-10.7l0.62 -0.25 -0.62 0.25c-6.81,0.41 -17.19,10.42 -8.37,19.57 2.91,3.02 3.98,3.04 7.4,4.5 -2.76,4.52 -7.81,14.49 -10.68,19.71 -0.92,1.66 -1.79,3.23 -2.68,4.89 -1.37,2.57 0.17,3.51 3.18,3.62 9.42,0.32 24.1,-0.09 34.53,0.02 2.78,0.02 5.52,-0.24 4.7,-2.98 -0.31,-1.03 -2.15,-4.02 -2.77,-5.07 -1.83,-3.13 -3.68,-6.54 -5.39,-9.76 -1.06,-1.99 -4.94,-8.7 -5.41,-10.09 5.76,-1.72 11.87,-5.94 10.79,-12.97 -0.98,-6.47 -5.69,-10.33 -12.73,-11.77l0 -0z"/>
   <path class="fil6" d="M134 175.04l0.62 -0.25c2.11,-0.43 3.4,-0.97 5.93,-0.95 2.41,0.03 4.16,0.72 6.02,0.86 7.04,1.44 11.75,5.3 12.73,11.77 1.07,7.02 -5.04,11.24 -10.79,12.97 0.47,1.39 4.35,8.1 5.41,10.09 1.72,3.23 3.56,6.63 5.39,9.76 0.62,1.06 2.46,4.05 2.77,5.08 0.82,2.74 -1.92,3.01 -4.7,2.98 -10.43,-0.11 -25.12,0.3 -34.53,-0.02 -3.01,-0.1 -4.55,-1.04 -3.18,-3.61 0.89,-1.67 1.76,-3.23 2.68,-4.89 2.86,-5.22 7.91,-15.19 10.68,-19.71 -3.42,-1.46 -4.49,-1.49 -7.4,-4.5 -8.81,-9.15 1.57,-19.15 8.37,-19.57l0 0zm100.5 -46.44c-0.99,7.58 -6.96,11.25 -13.6,14.05 -29.54,12.45 -102.3,11.39 -134.2,5.95 -7.73,-1.31 -16.64,-3.3 -22.84,-6.16 -3.6,-1.66 -6.45,-3.33 -8.59,-5.44 -1.77,-1.74 -3.28,-3.4 -4.05,-5.88 -0.25,-0.79 -0.28,-1.81 -0.86,-2.47 -0.57,0.96 -0.52,24.52 -0.52,25.23 -0.09,8.47 -0.2,16.95 -0.29,25.43 -0.19,16.88 -0.38,33.75 -0.57,50.62 -0.07,6.23 -1.36,5.57 3.89,9.61 2.07,1.59 6.29,3.66 9.53,4.89 7.17,2.72 14.99,4.67 23.34,6.21 35.5,6.53 75.95,6.36 111.46,-0.15 7.81,-1.43 16.75,-3.43 23.47,-6.09 3.69,-1.46 6.92,-2.89 9.72,-4.75 5.69,-3.75 4.39,-4 4.39,-9.01 0,-17.04 0,-34.07 0,-51.1 0,-0.74 0.42,-49.77 -0.27,-50.95l0 -0z"/>
   <polygon class="fil7 str0" points="113,127.7 138.8,144.24 163.56,128.59 154.66,154.37 180.52,170.82 149.22,170.22 140.44,196.03 130,169.88 98.71,169.39 123.55,153.83 "/>
   <polygon class="fil8 str1" points="139.25,106.8 143.08,153.74 193.68,142.53 145.45,160.33 172.89,200.34 139.25,164.4 105.61,200.34 133.04,160.33 84.82,142.53 135.41,153.74 "/>
  </g>
 </g>
</svg>
