<?xml version="1.0" encoding="UTF-8"?>
<!DOCTYPE svg PUBLIC "-//W3C//DTD SVG 1.1//EN" "http://www.w3.org/Graphics/SVG/1.1/DTD/svg11.dtd">
<!-- Creator: CorelDRAW 2021 (64 Bit) -->
<svg xmlns="http://www.w3.org/2000/svg" xml:space="preserve" width="59.2667mm" height="66.04mm" version="1.1" style="shape-rendering:geometricPrecision; text-rendering:geometricPrecision; image-rendering:optimizeQuality; fill-rule:evenodd; clip-rule:evenodd"
viewBox="0 0 488.66 544.5"
 xmlns:xlink="http://www.w3.org/1999/xlink"
 xmlns:xodm="http://www.corel.com/coreldraw/odm/2003">
 <defs>
  <style type="text/css">
   <![CDATA[
    .str1 {stroke:black;stroke-width:6.98;stroke-miterlimit:22.9256}
    .str0 {stroke:yellow;stroke-width:6.98;stroke-miterlimit:22.9256}
    .fil2 {fill:red}
    .fil1 {fill:yellow}
    .fil0 {fill:white}
   ]]>
  </style>
 </defs>
 <g id="Camada_x0020_1">
  <metadata id="CorelCorpID_0Corel-Layer"/>
  <g id="_1791055284048">
   <rect class="fil0" x="-0" y="-0" width="488.66" height="544.5"/>
   <path class="fil1 str0" d="M215.03 74.85c-61.36,23.26 -79.45,50.21 -82.31,99.96 1.64,46.84 27.41,73.17 70.93,91.43l15.79 191.25c25.46,-3.86 43.88,-12.4 48.2,-30.3l2.55 -22.46 16.03 -41.73 -22.26 -36.5 26.74 -36.58 -9.2 -35.95c48.2,-26.58 64.71,-65.45 51.43,-115.89 -19.53,-47.05 -57.84,-70.53 -117.89,-63.24z"/>
   <path class="fil1 str1" d="M134.63 136.94c-11.97,17.45 16.83,34.39 28.83,15.23 4.24,-6.77 3.27,-16.62 -5.51,-21.2 -7.22,-3.76 -17.86,-1.99 -23.32,5.97z"/>
   <path class="fil1 str1" d="M128.81 177.72c-0.32,2.87 -0.38,6.67 -0.37,9.53 -0.16,22.7 15.59,47.49 33.03,63.29 6.41,5.81 13.45,11.32 21.21,15.01 13.49,6.42 16.39,4.17 16.81,10.93 0.86,14.06 2.08,23.33 2.57,37.63l3.04 38c0.63,7.93 8.32,110.11 9.29,112.68 6.09,-1.73 10.57,-2.47 16.75,-3.57 18.75,-3.32 38.15,-15.81 44.49,-32.87 3.87,-10.43 -2.94,-20.55 1.37,-31.68l15.69 -32.94c-0.31,-0.98 0.47,0.53 -0.6,-1.32 -0.56,-0.97 0.04,-0.03 -0.84,-1.21 -6.57,-8.85 -15.51,-24.97 -21.88,-35.18 8.65,-9.62 23.52,-24.12 25.06,-35.34 0.71,-5.16 -0.89,-10.74 -1.95,-16.25 -1.03,-5.38 -1.27,-12.33 -2.71,-15.61 16.88,-10.75 24.03,-14.84 36.91,-33.89 8.37,-12.37 14.63,-28.34 15.59,-40.16 1.09,-13.54 1.02,-25.2 -3.47,-38.39 -4.37,-12.84 -9.49,-24.31 -20.18,-36.81 -11.3,-13.23 -25.12,-22.76 -41.01,-28.98 -15.62,-6.11 -28.46,-7.02 -41.68,-7.05l-20.37 2.36c-17.72,3.56 -36.05,12.8 -49.61,25.22 -1.58,1.45 -5.75,4.94 -6.91,6.82l0.86 1.03c4.74,4.49 6.61,6.31 11.37,9.68 12.57,-9.22 15.65,-17.85 35.2,-26.09 11.08,-4.67 25.04,-7.39 36.62,-6.96 8.26,0.3 28.64,2.73 37.68,7.75 24.88,13.81 44.75,35.76 49.53,63.09 1.72,9.83 3.33,25.1 0.41,34.9 -8.43,28.32 -28.12,49.1 -56.27,61.38 -0.3,2.36 0.54,6.43 1.07,9.01l4.87 27.3c0.18,3.26 -2.58,5.54 -5.83,9.81l-22.86 30.35c6.8,9.29 13.66,21.96 20.35,32.16 3.62,5.51 3.03,2.84 -2.25,17.08l-9.75 26.58c-1.92,5.05 -1.93,4.07 -0.69,8.48 0.46,1.64 1.62,15.86 1.02,17.17 -5.57,12.16 -25.48,21 -34.11,20.97 -0.89,-2.07 -0.55,-3.22 -0.62,-5.95 -0.38,-14.27 -1.81,-27.43 -2.22,-42.29 -0.11,-4.21 0.2,-7.94 -0.6,-12.14l-3.43 -60.26c-0.5,-3.51 -0.3,-8.4 -0.41,-12.16 -0.12,-4.25 -0.19,-7.94 -0.33,-12.18l-1.73 -24.23c-0.19,-8.29 -0.32,-16.1 -0.94,-24.19 -4.27,-2.2 -10.56,-1.54 -14.42,-2.29 -2.05,-0.4 -11.77,-4.82 -14.31,-5.97 -22.9,-10.37 -35.59,-30.82 -40.54,-53.08 -0.53,-2.4 -1.28,-7.43 -1.76,-9.77 -0.38,-2.67 -0.69,-6.05 -1.24,-9.98 -2.39,0.4 -4.26,0.49 -7.35,0.84 -2.64,0.16 -4.22,0.11 -7.58,-0.26z"/>
   <ellipse class="fil1 str1" cx="210.21" cy="129.32" rx="22.74" ry="20.94"/>
   <polygon class="fil2 str1" points="70.99,365.53 179.44,302.31 141.06,358.18 413.49,156.31 272.72,239.15 346.18,156.17 "/>
  </g>
 </g>
</svg>
