<?xml version="1.0" encoding="UTF-8"?>
<!DOCTYPE svg PUBLIC "-//W3C//DTD SVG 1.1//EN" "http://www.w3.org/Graphics/SVG/1.1/DTD/svg11.dtd">
<!-- Creator: CorelDRAW 2021 (64 Bit) -->
<svg xmlns="http://www.w3.org/2000/svg" xml:space="preserve" width="59.2667mm" height="66.04mm" version="1.1" style="shape-rendering:geometricPrecision; text-rendering:geometricPrecision; image-rendering:optimizeQuality; fill-rule:evenodd; clip-rule:evenodd"
viewBox="0 0 484.24 539.58"
 xmlns:xlink="http://www.w3.org/1999/xlink"
 xmlns:xodm="http://www.corel.com/coreldraw/odm/2003">
 <defs>
  <style type="text/css">
   <![CDATA[
    .str1 {stroke:black;stroke-width:6.92;stroke-miterlimit:22.9256}
    .str0 {stroke:yellow;stroke-width:6.92;stroke-miterlimit:22.9256}
    .fil2 {fill:red}
    .fil1 {fill:yellow}
    .fil0 {fill:white}
   ]]>
  </style>
 </defs>
 <g id="Camada_x0020_1">
  <metadata id="CorelCorpID_0Corel-Layer"/>
  <g id="_1350001339136">
   <rect class="fil0" x="-0" y="-0" width="484.24" height="539.58"/>
   <path class="fil1 str0" d="M213.09 74.17c-60.81,23.05 -78.73,49.76 -81.57,99.06 1.63,46.42 27.16,72.51 70.29,90.6l15.65 189.52c25.23,-3.82 43.49,-12.29 47.77,-30.02l2.53 -22.26 15.88 -41.35 -22.06 -36.17 26.5 -36.25 -9.11 -35.62c47.76,-26.34 64.13,-64.86 50.96,-114.84 -19.36,-46.63 -57.31,-69.9 -116.83,-62.67z"/>
   <path class="fil1 str1" d="M133.42 135.7c-11.87,17.3 16.68,34.08 28.57,15.09 4.2,-6.7 3.24,-16.47 -5.46,-21 -7.15,-3.72 -17.7,-1.97 -23.11,5.91z"/>
   <path class="fil1 str1" d="M127.65 176.12c-0.32,2.84 -0.38,6.61 -0.37,9.44 -0.16,22.5 15.45,47.06 32.74,62.72 6.35,5.76 13.33,11.22 21.01,14.87 13.37,6.36 16.24,4.13 16.66,10.83 0.85,13.93 2.06,23.12 2.54,37.29l3.02 37.66c0.63,7.85 8.25,109.11 9.21,111.66 6.04,-1.71 10.47,-2.45 16.6,-3.53 18.58,-3.29 37.81,-15.67 44.09,-32.57 3.84,-10.33 -2.92,-20.36 1.36,-31.39l15.55 -32.64c-0.3,-0.97 0.47,0.53 -0.59,-1.3 -0.56,-0.97 0.04,-0.03 -0.83,-1.19 -6.51,-8.77 -15.37,-24.74 -21.68,-34.86 8.57,-9.53 23.31,-23.91 24.84,-35.02 0.7,-5.11 -0.89,-10.65 -1.93,-16.1 -1.02,-5.33 -1.25,-12.22 -2.68,-15.47 16.72,-10.65 23.81,-14.71 36.58,-33.59 8.3,-12.26 14.5,-28.09 15.45,-39.8 1.08,-13.42 1.01,-24.97 -3.43,-38.04 -4.33,-12.72 -9.41,-24.09 -20,-36.48 -11.2,-13.11 -24.89,-22.56 -40.64,-28.72 -15.48,-6.06 -28.2,-6.96 -41.3,-6.99l-20.18 2.34c-17.56,3.52 -35.73,12.68 -49.16,24.99 -1.57,1.43 -5.7,4.9 -6.85,6.76l0.86 1.02c4.7,4.45 6.55,6.25 11.26,9.59 12.45,-9.13 15.51,-17.69 34.88,-25.86 10.98,-4.63 24.81,-7.32 36.29,-6.9 8.19,0.3 28.38,2.71 37.34,7.68 24.66,13.69 44.35,35.44 49.09,62.52 1.7,9.74 3.3,24.88 0.41,34.59 -8.36,28.06 -27.86,48.66 -55.77,60.82 -0.29,2.33 0.53,6.37 1.06,8.92l4.83 27.05c0.17,3.23 -2.56,5.49 -5.78,9.72l-22.66 30.07c6.74,9.2 13.53,21.76 20.16,31.87 3.58,5.46 3,2.81 -2.23,16.93l-9.66 26.34c-1.9,5.01 -1.92,4.03 -0.69,8.4 0.46,1.63 1.6,15.72 1.01,17.02 -5.52,12.05 -25.25,20.81 -33.8,20.78 -0.88,-2.05 -0.54,-3.19 -0.62,-5.9 -0.37,-14.14 -1.79,-27.18 -2.2,-41.9 -0.11,-4.17 0.2,-7.87 -0.6,-12.03l-3.4 -59.72c-0.5,-3.48 -0.3,-8.32 -0.4,-12.05 -0.12,-4.21 -0.18,-7.86 -0.33,-12.07l-1.72 -24.01c-0.19,-8.21 -0.32,-15.95 -0.93,-23.97 -4.23,-2.18 -10.46,-1.53 -14.29,-2.27 -2.03,-0.39 -11.67,-4.78 -14.18,-5.92 -22.69,-10.28 -35.26,-30.54 -40.17,-52.6 -0.53,-2.38 -1.27,-7.36 -1.74,-9.68 -0.38,-2.64 -0.68,-6 -1.22,-9.89 -2.37,0.4 -4.22,0.48 -7.28,0.83 -2.61,0.15 -4.18,0.11 -7.52,-0.26z"/>
   <ellipse class="fil1 str1" cx="208.31" cy="128.15" rx="22.53" ry="20.75"/>
   <polygon class="fil2 str1" points="70.35,362.23 177.81,299.58 139.78,354.95 409.76,154.9 270.26,236.99 343.05,154.76 "/>
  </g>
 </g>
</svg>
