<?xml version="1.0" encoding="UTF-8"?>
<!DOCTYPE svg PUBLIC "-//W3C//DTD SVG 1.1//EN" "http://www.w3.org/Graphics/SVG/1.1/DTD/svg11.dtd">
<!-- Creator: CorelDRAW 2021 (64 Bit) -->
<svg xmlns="http://www.w3.org/2000/svg" xml:space="preserve" width="59.2667mm" height="73.3615mm" version="1.1" style="shape-rendering:geometricPrecision; text-rendering:geometricPrecision; image-rendering:optimizeQuality; fill-rule:evenodd; clip-rule:evenodd"
viewBox="0 0 282.37 349.52"
 xmlns:xlink="http://www.w3.org/1999/xlink"
 xmlns:xodm="http://www.corel.com/coreldraw/odm/2003">
 <defs>
  <style type="text/css">
   <![CDATA[
    .str0 {stroke:#A9ABAE;stroke-width:2.52;stroke-miterlimit:22.9256}
    .str1 {stroke:red;stroke-width:2.52;stroke-miterlimit:22.9256}
    .fil6 {fill:#53331D}
    .fil8 {fill:#727376}
    .fil4 {fill:#86B0C0}
    .fil3 {fill:#9D720B}
    .fil5 {fill:#B8E3E9}
    .fil7 {fill:#E2A610}
    .fil9 {fill:#ED3237}
    .fil2 {fill:#FCD532}
    .fil0 {fill:#373435;fill-rule:nonzero}
    .fil1 {fill:lime;fill-opacity:0.800000}
   ]]>
  </style>
 </defs>
 <g id="Camada_x0020_1">
  <metadata id="CorelCorpID_0Corel-Layer"/>
  <path class="fil0" d="M140.33 345.41l0 4.12 -3.79 0 0 -3.27c0,-1.75 0.21,-3.02 0.63,-3.8 0.56,-1.05 1.43,-1.84 2.64,-2.37l0.85 1.38c-0.73,0.3 -1.26,0.75 -1.6,1.34 -0.34,0.6 -0.53,1.47 -0.57,2.6l1.85 0z"/>
 </g>
 <g id="Camada_x0020_1_0">
  <metadata id="CorelCorpID_1Corel-Layer"/>
  <polygon class="fil1" points="-0,0 282.37,0 282.37,282.37 -0,282.37 "/>
  <g id="_2241995808944">
   <path class="fil2" d="M191.3 130.42c6.81,-0.77 14,0.75 17.04,4.13 2.33,2.59 0.09,4.97 -1.93,6.26 -10.49,6.68 -35.37,-0.31 -23.67,-7.91 2.2,-1.43 5.27,-2.1 8.56,-2.48l0 0zm-82.82 -11.19c-5.45,0.76 -10.82,1.14 -16.32,2.05 -7.43,1.13 -16.61,3.08 -22.17,4.56 -4.84,1.06 -9.76,2.67 -14.38,4.76 -4.61,2.09 -3.4,2.15 -5.05,3.83 0.58,0.65 0.61,1.67 0.85,2.45 0.77,2.46 2.27,4.12 4.03,5.84 2.13,2.09 4.96,3.75 8.54,5.4 6.16,2.85 15.01,4.81 22.69,6.13 31.69,5.39 103.96,6.44 133.3,-5.92 6.6,-2.78 12.52,-6.43 13.51,-13.96 -0.44,-1.27 -0.95,-1.82 -1.92,-2.39 -0.78,-0.45 -1.75,-1.01 -2.76,-1.48 -2,-0.92 -4.19,-1.67 -6.44,-2.42 -20.16,-6.73 -57.85,-11.68 -79.64,-11.36 -12.19,0.18 -22.52,1.22 -34.21,2.52l0 0z"/>
   <path class="fil3" d="M191.3 130.42c-3.29,0.37 -6.35,1.04 -8.56,2.48 -11.7,7.61 13.19,14.59 23.67,7.91 2.02,-1.29 4.26,-3.67 1.92,-6.26 -3.04,-3.38 -10.23,-4.9 -17.04,-4.13z"/>
   <path class="fil3" d="M88.79 130.42c-3.28,0.37 -6.36,1.04 -8.55,2.48 -11.7,7.61 13.19,14.59 23.67,7.91 2.02,-1.29 4.27,-3.67 1.93,-6.26 -3.04,-3.38 -10.23,-4.9 -17.04,-4.13z"/>
   <path class="fil4" d="M110.79 50.89c-1.27,5.88 -5.1,5.6 -9.45,10.88 -5.85,7.11 -9.82,18.41 -12.3,27.05 -0.67,2.34 -1.18,5.9 -3.44,6.61 -1.86,0.59 -2.81,-0.83 -3.18,-1.88 -0.46,-1.28 -0.36,-3.03 -0.37,-4.42 -0.15,-15.71 1.32,-33.1 16.55,-42.17 7.5,-4.47 13.38,-1.59 12.19,3.92zm-33.62 42.56l0.1 18.71c0.29,0.71 0.08,0.39 0.88,0.91 2.82,1.83 7.82,3.41 11.34,3.76 6.85,0.69 12.2,-1.29 17.31,-3.89 1.54,-0.78 1.21,-0.86 1.22,-2.66 0.02,-2.52 0.09,-5.04 0.14,-7.56 0.09,-4.55 -0.15,-10.11 0.33,-14.53 -0.43,-8.01 0.4,6.89 0.58,-2.6 0.09,-4.62 0.01,-5.93 1.77,-10.03 8.12,-18.82 30.54,-27.95 51.39,-19.93 12.09,4.64 22.18,16.81 22.16,27.36 -0.02,7.65 0,15.31 0,22.96 3.87,1.63 8.67,2.97 13.85,3.02 4.49,0.04 11.25,-1.32 14.04,-3.15 0.03,-5.98 0.41,-11.9 0.46,-17.87 0.12,-13.07 -7.77,-30.97 -17.38,-40.1 -4.66,-4.41 -5.74,-5.41 -11,-9.01 -3.64,-2.49 -8.42,-5.06 -13.29,-7.1 -17.17,-7.2 -35.24,-7.31 -53.45,-1.05 -4.84,1.66 -9.96,3.7 -13.72,6.75 -4.48,3.64 -6.24,4.3 -10.66,9.3 -1.91,2.16 -2.59,2.75 -4.46,5.26 -1.44,1.94 -2.65,3.72 -3.94,5.93 -5.11,8.78 -7.82,18.89 -7.78,30.02 0.06,12.02 0.52,-6.45 0.11,5.5l0 0z"/>
   <path class="fil5" d="M110.79 50.89c1.19,-5.51 -4.69,-8.39 -12.19,-3.92 -15.23,9.07 -16.71,26.45 -16.55,42.17 0.01,1.39 -0.09,3.13 0.37,4.42 0.37,1.04 1.32,2.47 3.18,1.88 2.26,-0.72 2.77,-4.27 3.44,-6.61 2.48,-8.64 6.45,-19.94 12.3,-27.05 4.34,-5.27 8.18,-5 9.45,-10.88z"/>
   <path class="fil6" d="M134.26 180.25l-0.62 0.25c-1.82,1.69 -7.17,3.2 -6.85,10.63 0.19,4.49 3.82,9.07 7.71,10.06 -1.22,4.39 -10.28,20.96 -9.96,23.69 1.31,1.78 4.51,1.28 7.4,1.26l17.85 -0.03c7.72,0.09 7.03,-0.43 3.5,-7.93l-4.99 -10.95c-0.67,-1.47 -2.04,-4.08 -2.4,-5.48 2.8,-2 8.09,-3.44 7.86,-10.63 -0.16,-4.86 -2.38,-7.95 -6.77,-10.39 -0.05,-0.03 -0.12,-0.06 -0.18,-0.09l-0.66 -0.47c-1.85,-0.14 -3.59,-0.82 -5.98,-0.85 -2.51,-0.03 -3.8,0.51 -5.89,0.93l0 0z"/>
   <path class="fil3" d="M146.14 180.16l0.66 0.47c0.05,0.03 0.12,0.06 0.18,0.09 4.4,2.44 6.61,5.53 6.77,10.39 0.23,7.2 -5.06,8.63 -7.86,10.63 0.36,1.41 1.73,4.01 2.4,5.48l4.99 10.95c3.53,7.5 4.22,8.02 -3.5,7.93l-17.85 0.03c-2.89,0.02 -6.08,0.52 -7.4,-1.26 -0.32,-2.72 8.74,-19.29 9.96,-23.69 -3.89,-0.99 -7.51,-5.58 -7.71,-10.06 -0.32,-7.43 5.03,-8.94 6.85,-10.63l0.62 -0.25 -0.62 0.25c-6.76,0.41 -17.07,10.35 -8.32,19.43 2.89,3 3.96,3.02 7.35,4.47 -2.75,4.49 -7.76,14.4 -10.61,19.58 -0.91,1.65 -1.78,3.2 -2.66,4.86 -1.36,2.55 0.16,3.49 3.16,3.59 9.35,0.32 23.94,-0.09 34.3,0.02 2.76,0.02 5.48,-0.24 4.67,-2.96 -0.31,-1.02 -2.13,-3.99 -2.75,-5.04 -1.82,-3.11 -3.65,-6.5 -5.36,-9.7 -1.05,-1.98 -4.91,-8.64 -5.37,-10.02 5.72,-1.71 11.79,-5.9 10.72,-12.88 -0.98,-6.43 -5.65,-10.26 -12.65,-11.69l0 -0z"/>
   <path class="fil7" d="M133.65 180.5l0.62 -0.25c2.09,-0.43 3.38,-0.96 5.89,-0.94 2.39,0.03 4.13,0.72 5.98,0.85 7,1.43 11.67,5.26 12.65,11.69 1.06,6.98 -5,11.17 -10.72,12.88 0.46,1.38 4.32,8.04 5.37,10.02 1.7,3.2 3.53,6.59 5.36,9.69 0.62,1.05 2.44,4.02 2.75,5.04 0.82,2.72 -1.9,2.99 -4.67,2.96 -10.36,-0.11 -24.95,0.3 -34.3,-0.02 -2.99,-0.1 -4.52,-1.03 -3.16,-3.59 0.88,-1.66 1.75,-3.21 2.66,-4.86 2.85,-5.18 7.86,-15.08 10.61,-19.58 -3.4,-1.45 -4.46,-1.48 -7.35,-4.47 -8.75,-9.09 1.56,-19.02 8.32,-19.43l0 0zm99.83 -46.14c-0.99,7.53 -6.91,11.18 -13.51,13.96 -29.35,12.36 -101.62,11.31 -133.3,5.91 -7.68,-1.31 -16.52,-3.27 -22.69,-6.12 -3.58,-1.65 -6.41,-3.31 -8.54,-5.4 -1.76,-1.73 -3.26,-3.38 -4.03,-5.84 -0.25,-0.78 -0.28,-1.8 -0.85,-2.45 -0.56,0.95 -0.51,24.36 -0.52,25.06 -0.09,8.42 -0.19,16.84 -0.29,25.26 -0.19,16.77 -0.38,33.53 -0.57,50.29 -0.07,6.19 -1.35,5.54 3.87,9.54 2.05,1.58 6.25,3.64 9.47,4.86 7.12,2.7 14.89,4.64 23.18,6.17 35.27,6.49 75.44,6.31 110.72,-0.15 7.76,-1.42 16.64,-3.41 23.31,-6.05 3.67,-1.45 6.87,-2.87 9.65,-4.71 5.65,-3.73 4.36,-3.97 4.36,-8.95 0,-16.92 0,-33.84 0,-50.76 0,-0.74 0.42,-49.44 -0.26,-50.62l0 -0z"/>
   <polygon class="fil8 str0" points="112.79,133.49 138.41,149.91 163.02,134.37 154.17,159.97 179.86,176.32 148.77,175.72 140.05,201.36 129.68,175.38 98.59,174.89 123.27,159.43 "/>
   <polygon class="fil9 str1" points="138.86,112.72 142.67,159.35 192.93,148.21 145.02,165.89 172.28,205.63 138.86,169.94 105.45,205.63 132.7,165.89 84.79,148.21 135.05,159.35 "/>
  </g>
 </g>
</svg>
