<?xml version="1.0" encoding="UTF-8"?>
<!DOCTYPE svg PUBLIC "-//W3C//DTD SVG 1.1//EN" "http://www.w3.org/Graphics/SVG/1.1/DTD/svg11.dtd">
<!-- Creator: CorelDRAW 2021 (64 Bit) -->
<svg xmlns="http://www.w3.org/2000/svg" xml:space="preserve" width="53.9625mm" height="48.3882mm" version="1.1" style="shape-rendering:geometricPrecision; text-rendering:geometricPrecision; image-rendering:optimizeQuality; fill-rule:evenodd; clip-rule:evenodd"
viewBox="0 0 397.96 356.85"
 xmlns:xlink="http://www.w3.org/1999/xlink"
 xmlns:xodm="http://www.corel.com/coreldraw/odm/2003">
 <defs>
  <style type="text/css">
   <![CDATA[
    .str0 {stroke:black;stroke-width:6.24;stroke-miterlimit:22.9256}
    .fil2 {fill:black}
    .fil0 {fill:#FAFAFA}
    .fil3 {fill:red}
    .fil1 {fill:white}
   ]]>
  </style>
 </defs>
 <g id="Camada_x0020_1">
  <metadata id="CorelCorpID_0Corel-Layer"/>
  <path class="fil0" d="M167.11 4.29c-54.89,20.8 -71.06,44.91 -73.63,89.41 1.47,41.9 24.52,65.45 63.44,81.78l14.12 171.06c22.77,-3.45 39.25,-11.09 43.12,-27.1l2.28 -20.09 14.33 -37.32 -19.91 -32.64 23.92 -32.72 -8.23 -32.15c43.11,-23.77 57.88,-58.54 46,-103.66 -17.47,-42.09 -51.73,-63.09 -105.45,-56.56z"/>
  <path class="fil1 str0" d="M95.2 59.82c-10.71,15.61 15.05,30.76 25.79,13.62 3.79,-6.05 2.93,-14.87 -4.93,-18.96 -6.45,-3.36 -15.97,-1.78 -20.86,5.34z"/>
  <path class="fil2 str0" d="M89.99 96.3c-0.29,2.57 -0.34,5.97 -0.33,8.52 -0.14,20.31 13.94,42.48 29.55,56.61 5.73,5.2 12.03,10.13 18.97,13.43 12.07,5.74 14.66,3.73 15.03,9.78 0.77,12.58 1.86,20.87 2.3,33.66l2.72 33.99c0.57,7.09 7.44,98.48 8.31,100.78 5.45,-1.54 9.45,-2.21 14.98,-3.19 16.77,-2.97 34.13,-14.14 39.8,-29.4 3.47,-9.33 -2.63,-18.38 1.23,-28.34l14.03 -29.46c-0.27,-0.87 0.42,0.48 -0.53,-1.18 -0.5,-0.87 0.03,-0.02 -0.75,-1.08 -5.87,-7.92 -13.88,-22.33 -19.57,-31.47 7.73,-8.6 21.04,-21.58 22.42,-31.61 0.63,-4.62 -0.8,-9.61 -1.75,-14.53 -0.92,-4.81 -1.13,-11.03 -2.42,-13.97 15.09,-9.62 21.49,-13.28 33.02,-30.32 7.49,-11.07 13.09,-25.35 13.94,-35.92 0.98,-12.11 0.91,-22.54 -3.1,-34.34 -3.91,-11.48 -8.49,-21.74 -18.05,-32.93 -10.11,-11.83 -22.47,-20.36 -36.68,-25.92 -13.97,-5.47 -25.46,-6.28 -37.28,-6.31l-18.22 2.11c-15.85,3.18 -32.25,11.45 -44.37,22.55 -1.41,1.29 -5.15,4.42 -6.18,6.1l0.77 0.92c4.24,4.02 5.91,5.64 10.17,8.66 11.24,-8.24 14,-15.97 31.48,-23.34 9.91,-4.18 22.39,-6.61 32.75,-6.23 7.39,0.27 25.62,2.44 33.71,6.93 22.26,12.35 40.03,31.99 44.31,56.43 1.54,8.79 2.98,22.45 0.37,31.22 -7.54,25.33 -25.15,43.92 -50.33,54.9 -0.26,2.11 0.48,5.75 0.96,8.05l4.36 24.42c0.16,2.91 -2.31,4.96 -5.21,8.77l-20.45 27.14c6.09,8.31 12.21,19.64 18.2,28.76 3.23,4.93 2.71,2.54 -2.01,15.28l-8.72 23.77c-1.71,4.52 -1.73,3.64 -0.62,7.58 0.41,1.47 1.45,14.19 0.91,15.36 -4.98,10.88 -22.79,18.79 -30.51,18.76 -0.79,-1.85 -0.49,-2.88 -0.56,-5.32 -0.34,-12.77 -1.62,-24.54 -1.98,-37.82 -0.1,-3.77 0.18,-7.1 -0.54,-10.86l-3.07 -53.9c-0.45,-3.14 -0.27,-7.51 -0.36,-10.88 -0.1,-3.8 -0.17,-7.1 -0.3,-10.89l-1.55 -21.67c-0.17,-7.41 -0.29,-14.4 -0.84,-21.64 -3.81,-1.97 -9.44,-1.38 -12.9,-2.05 -1.83,-0.35 -10.53,-4.31 -12.8,-5.34 -20.48,-9.28 -31.83,-27.56 -36.26,-47.48 -0.48,-2.14 -1.15,-6.65 -1.57,-8.74 -0.34,-2.39 -0.62,-5.41 -1.11,-8.92 -2.13,0.36 -3.81,0.44 -6.57,0.75 -2.36,0.14 -3.77,0.1 -6.78,-0.24z"/>
  <ellipse class="fil1 str0" cx="162.79" cy="53" rx="20.34" ry="18.73"/>
  <polygon class="fil3 str0" points="42.38,240.39 139.38,183.84 105.05,233.81 348.73,53.26 222.82,127.35 288.53,53.13 "/>
 </g>
</svg>
