<?xml version="1.0" encoding="UTF-8"?>
<!DOCTYPE svg PUBLIC "-//W3C//DTD SVG 1.1//EN" "http://www.w3.org/Graphics/SVG/1.1/DTD/svg11.dtd">
<!-- Creator: CorelDRAW 2021 (64 Bit) -->
<svg xmlns="http://www.w3.org/2000/svg" xml:space="preserve" width="59.2667mm" height="66.04mm" version="1.1" style="shape-rendering:geometricPrecision; text-rendering:geometricPrecision; image-rendering:optimizeQuality; fill-rule:evenodd; clip-rule:evenodd"
viewBox="0 0 482.58 537.73"
 xmlns:xlink="http://www.w3.org/1999/xlink"
 xmlns:xodm="http://www.corel.com/coreldraw/odm/2003">
 <defs>
  <style type="text/css">
   <![CDATA[
    .str0 {stroke:black;stroke-width:6.89;stroke-miterlimit:22.9256}
    .fil2 {fill:red}
    .fil1 {fill:#FFAE00}
    .fil0 {fill:white}
   ]]>
  </style>
 </defs>
 <g id="Camada_x0020_1">
  <metadata id="CorelCorpID_0Corel-Layer"/>
  <g id="_1350003898368">
   <rect class="fil0" x="-0" y="-0" width="482.58" height="537.73"/>
   <path class="fil1" d="M203.7 88.59c-60.6,22.97 -78.46,49.59 -81.29,98.72 1.62,46.26 27.07,72.26 70.04,90.29l15.59 188.87c25.14,-3.81 43.34,-12.24 47.6,-29.92l2.52 -22.18 15.83 -41.21 -21.98 -36.04 26.41 -36.13 -9.08 -35.5c47.6,-26.25 63.9,-64.64 50.79,-114.45 -19.29,-46.47 -57.12,-69.66 -116.42,-62.45z"/>
   <path class="fil1 str0" d="M124.3 149.91c-11.83,17.24 16.62,33.96 28.47,15.04 4.18,-6.68 3.23,-16.41 -5.44,-20.93 -7.13,-3.71 -17.64,-1.97 -23.03,5.89z"/>
   <path class="fil1 str0" d="M118.56 190.18c-0.32,2.83 -0.38,6.59 -0.36,9.41 -0.16,22.42 15.4,46.9 32.62,62.51 6.33,5.74 13.29,11.18 20.94,14.82 13.32,6.34 16.19,4.11 16.6,10.79 0.85,13.89 2.06,23.04 2.53,37.16l3.01 37.53c0.63,7.83 8.22,108.74 9.18,111.28 6.02,-1.71 10.44,-2.44 16.54,-3.52 18.52,-3.28 37.68,-15.62 43.94,-32.46 3.83,-10.3 -2.91,-20.29 1.36,-31.29l15.5 -32.53c-0.3,-0.96 0.47,0.53 -0.59,-1.3 -0.56,-0.96 0.04,-0.03 -0.82,-1.19 -6.48,-8.74 -15.32,-24.66 -21.61,-34.74 8.54,-9.5 23.23,-23.82 24.75,-34.9 0.7,-5.1 -0.88,-10.61 -1.93,-16.05 -1.02,-5.32 -1.25,-12.18 -2.67,-15.42 16.67,-10.62 23.73,-14.66 36.45,-33.47 8.27,-12.22 14.45,-27.99 15.39,-39.66 1.08,-13.37 1.01,-24.89 -3.42,-37.91 -4.31,-12.68 -9.38,-24 -19.93,-36.35 -11.16,-13.06 -24.81,-22.48 -40.5,-28.62 -15.43,-6.04 -28.11,-6.93 -41.16,-6.96l-20.12 2.33c-17.5,3.51 -35.6,12.64 -48.99,24.9 -1.56,1.43 -5.68,4.88 -6.82,6.74l0.85 1.02c4.68,4.44 6.53,6.23 11.23,9.56 12.41,-9.1 15.45,-17.63 34.76,-25.77 10.94,-4.61 24.73,-7.3 36.16,-6.88 8.16,0.3 28.29,2.7 37.21,7.65 24.57,13.64 44.2,35.32 48.92,62.31 1.7,9.71 3.29,24.79 0.41,34.47 -8.33,27.97 -27.77,48.49 -55.57,60.62 -0.29,2.33 0.53,6.35 1.06,8.89l4.81 26.96c0.17,3.22 -2.55,5.47 -5.76,9.69l-22.58 29.97c6.72,9.17 13.49,21.68 20.09,31.76 3.57,5.45 2.99,2.8 -2.22,16.87l-9.63 26.25c-1.89,4.99 -1.91,4.02 -0.68,8.37 0.46,1.62 1.6,15.66 1.01,16.96 -5.5,12.01 -25.16,20.74 -33.68,20.71 -0.88,-2.05 -0.54,-3.18 -0.62,-5.88 -0.37,-14.1 -1.79,-27.09 -2.19,-41.76 -0.11,-4.16 0.2,-7.84 -0.6,-11.99l-3.39 -59.51c-0.5,-3.46 -0.3,-8.29 -0.4,-12.01 -0.11,-4.2 -0.18,-7.84 -0.33,-12.03l-1.71 -23.92c-0.19,-8.18 -0.32,-15.9 -0.93,-23.89 -4.21,-2.17 -10.43,-1.52 -14.24,-2.26 -2.02,-0.39 -11.63,-4.76 -14.13,-5.9 -22.62,-10.24 -35.14,-30.43 -40.03,-52.42 -0.53,-2.37 -1.27,-7.34 -1.73,-9.64 -0.38,-2.64 -0.68,-5.98 -1.22,-9.85 -2.36,0.4 -4.21,0.48 -7.26,0.83 -2.6,0.15 -4.16,0.11 -7.49,-0.26z"/>
   <ellipse class="fil1 str0" cx="198.94" cy="142.38" rx="22.45" ry="20.68"/>
   <polygon class="fil2 str0" points="72.7,375.66 179.8,313.22 141.9,368.39 410.94,169.04 271.92,250.85 344.47,168.9 "/>
  </g>
 </g>
</svg>
