<?xml version="1.0" encoding="UTF-8"?>
<!DOCTYPE svg PUBLIC "-//W3C//DTD SVG 1.1//EN" "http://www.w3.org/Graphics/SVG/1.1/DTD/svg11.dtd">
<!-- Creator: CorelDRAW 2021 (64 Bit) -->
<svg xmlns="http://www.w3.org/2000/svg" xml:space="preserve" width="59.2667mm" height="59.2667mm" version="1.1" style="shape-rendering:geometricPrecision; text-rendering:geometricPrecision; image-rendering:optimizeQuality; fill-rule:evenodd; clip-rule:evenodd"
viewBox="0 0 284.93 284.93"
 xmlns:xlink="http://www.w3.org/1999/xlink"
 xmlns:xodm="http://www.corel.com/coreldraw/odm/2003">
 <defs>
  <style type="text/css">
   <![CDATA[
    .str0 {stroke:#A9ABAE;stroke-width:2.55;stroke-miterlimit:22.9256}
    .str1 {stroke:red;stroke-width:2.55;stroke-miterlimit:22.9256}
    .fil5 {fill:#53331D}
    .fil7 {fill:#727376}
    .fil3 {fill:#86B0C0}
    .fil2 {fill:#9D720B}
    .fil4 {fill:#B8E3E9}
    .fil6 {fill:#E2A610}
    .fil8 {fill:#ED3237}
    .fil1 {fill:#FCD532}
    .fil0 {fill:white}
   ]]>
  </style>
 </defs>
 <g id="Camada_x0020_1">
  <metadata id="CorelCorpID_0Corel-Layer"/>
  <g id="_2242184692352">
   <rect class="fil0" x="-0" y="-0" width="284.93" height="284.93"/>
   <g>
    <path class="fil1" d="M195.55 133.4c6.87,-0.78 14.12,0.75 17.2,4.16 2.36,2.61 0.09,5.02 -1.95,6.32 -10.58,6.74 -35.69,-0.31 -23.89,-7.98 2.22,-1.45 5.32,-2.12 8.64,-2.5l0 0zm-83.57 -11.29c-5.5,0.77 -10.92,1.15 -16.47,2.06 -7.5,1.14 -16.76,3.11 -22.38,4.6 -4.88,1.07 -9.85,2.7 -14.51,4.8 -4.65,2.11 -3.43,2.17 -5.1,3.87 0.58,0.66 0.61,1.68 0.86,2.47 0.78,2.48 2.29,4.15 4.06,5.89 2.15,2.11 5,3.78 8.61,5.45 6.22,2.87 15.14,4.86 22.89,6.18 31.97,5.44 104.9,6.5 134.51,-5.97 6.66,-2.81 12.64,-6.48 13.63,-14.08 -0.45,-1.28 -0.96,-1.83 -1.94,-2.41 -0.78,-0.46 -1.77,-1.02 -2.79,-1.5 -2.02,-0.93 -4.23,-1.68 -6.5,-2.44 -20.34,-6.79 -58.37,-11.78 -80.36,-11.46 -12.3,0.18 -22.73,1.23 -34.52,2.54l0 0z"/>
    <path class="fil2" d="M195.55 133.4c-3.32,0.37 -6.41,1.05 -8.64,2.5 -11.8,7.68 13.31,14.72 23.89,7.98 2.03,-1.3 4.3,-3.71 1.94,-6.32 -3.07,-3.41 -10.32,-4.94 -17.19,-4.16z"/>
    <path class="fil2" d="M92.1 133.4c-3.31,0.37 -6.41,1.05 -8.63,2.5 -11.8,7.68 13.31,14.72 23.88,7.98 2.04,-1.3 4.31,-3.71 1.95,-6.32 -3.07,-3.41 -10.33,-4.94 -17.2,-4.16z"/>
    <path class="fil3" d="M114.31 53.15c-1.28,5.93 -5.15,5.65 -9.53,10.97 -5.9,7.17 -9.91,18.58 -12.41,27.29 -0.68,2.36 -1.19,5.95 -3.48,6.67 -1.87,0.6 -2.84,-0.84 -3.21,-1.89 -0.46,-1.29 -0.36,-3.06 -0.37,-4.46 -0.15,-15.86 1.34,-33.4 16.7,-42.55 7.56,-4.51 13.5,-1.6 12.3,3.96zm-33.92 42.95l0.1 18.87c0.29,0.72 0.08,0.39 0.88,0.91 2.84,1.85 7.89,3.44 11.44,3.8 6.91,0.69 12.31,-1.3 17.47,-3.93 1.55,-0.79 1.22,-0.87 1.23,-2.68 0.02,-2.54 0.09,-5.09 0.14,-7.63 0.09,-4.59 -0.15,-10.2 0.33,-14.66 -0.44,-8.09 0.4,6.95 0.58,-2.62 0.09,-4.66 0.01,-5.99 1.79,-10.12 8.19,-18.99 30.82,-28.21 51.86,-20.11 12.2,4.69 22.38,16.96 22.36,27.61 -0.02,7.72 0,15.45 0,23.17 3.91,1.65 8.74,3 13.98,3.05 4.53,0.04 11.35,-1.33 14.17,-3.18 0.03,-6.03 0.41,-12.01 0.47,-18.03 0.12,-13.19 -7.84,-31.25 -17.54,-40.46 -4.7,-4.45 -5.79,-5.46 -11.1,-9.09 -3.68,-2.51 -8.49,-5.1 -13.41,-7.17 -17.32,-7.27 -35.56,-7.38 -53.93,-1.06 -4.89,1.68 -10.05,3.73 -13.85,6.81 -4.52,3.67 -6.29,4.34 -10.75,9.38 -1.93,2.18 -2.62,2.78 -4.5,5.31 -1.45,1.96 -2.67,3.75 -3.97,5.99 -5.15,8.86 -7.89,19.06 -7.85,30.29 0.06,12.12 0.52,-6.51 0.11,5.55l0 0z"/>
    <path class="fil4" d="M114.31 53.15c1.2,-5.56 -4.73,-8.46 -12.3,-3.96 -15.37,9.15 -16.86,26.69 -16.7,42.55 0.01,1.4 -0.09,3.16 0.37,4.46 0.37,1.05 1.33,2.49 3.21,1.89 2.28,-0.72 2.8,-4.31 3.48,-6.67 2.5,-8.71 6.51,-20.12 12.41,-27.29 4.38,-5.32 8.25,-5.04 9.53,-10.97z"/>
    <path class="fil5" d="M137.99 183.68l-0.62 0.25c-1.84,1.7 -7.24,3.23 -6.92,10.72 0.2,4.53 3.85,9.15 7.78,10.16 -1.23,4.43 -10.37,21.15 -10.05,23.9 1.32,1.8 4.55,1.29 7.46,1.28l18.01 -0.03c7.79,0.09 7.09,-0.43 3.53,-8l-5.03 -11.05c-0.68,-1.48 -2.06,-4.12 -2.43,-5.53 2.83,-2.02 8.17,-3.47 7.93,-10.73 -0.16,-4.91 -2.4,-8.02 -6.83,-10.48 -0.05,-0.03 -0.12,-0.07 -0.18,-0.1l-0.67 -0.47c-1.87,-0.14 -3.62,-0.83 -6.04,-0.85 -2.53,-0.03 -3.83,0.51 -5.94,0.94l0 0z"/>
    <path class="fil2" d="M149.97 183.59l0.67 0.47c0.05,0.03 0.12,0.07 0.18,0.1 4.44,2.46 6.67,5.58 6.83,10.48 0.24,7.26 -5.1,8.71 -7.93,10.73 0.37,1.42 1.75,4.05 2.43,5.53l5.03 11.05c3.56,7.57 4.26,8.1 -3.53,8l-18.01 0.03c-2.91,0.02 -6.14,0.52 -7.46,-1.28 -0.32,-2.75 8.82,-19.47 10.05,-23.9 -3.93,-1 -7.58,-5.63 -7.78,-10.16 -0.32,-7.5 5.08,-9.02 6.92,-10.72l0.62 -0.25 -0.62 0.25c-6.82,0.42 -17.23,10.44 -8.39,19.61 2.92,3.02 3.99,3.05 7.42,4.51 -2.77,4.53 -7.83,14.53 -10.7,19.75 -0.92,1.67 -1.8,3.23 -2.69,4.91 -1.38,2.57 0.17,3.52 3.19,3.62 9.44,0.32 24.16,-0.09 34.61,0.02 2.79,0.02 5.53,-0.24 4.71,-2.99 -0.31,-1.03 -2.15,-4.03 -2.78,-5.08 -1.84,-3.14 -3.68,-6.55 -5.4,-9.79 -1.06,-2 -4.95,-8.72 -5.42,-10.11 5.77,-1.73 11.89,-5.96 10.82,-13 -0.98,-6.49 -5.7,-10.35 -12.76,-11.8l0 -0z"/>
    <path class="fil6" d="M137.37 183.94l0.62 -0.25c2.11,-0.43 3.41,-0.97 5.94,-0.95 2.41,0.03 4.17,0.72 6.04,0.86 7.06,1.45 11.77,5.31 12.76,11.8 1.07,7.04 -5.05,11.27 -10.82,13 0.47,1.39 4.36,8.12 5.42,10.11 1.72,3.23 3.56,6.65 5.4,9.78 0.62,1.06 2.46,4.06 2.78,5.09 0.82,2.75 -1.92,3.01 -4.71,2.99 -10.45,-0.11 -25.18,0.3 -34.61,-0.02 -3.02,-0.1 -4.56,-1.04 -3.19,-3.62 0.89,-1.67 1.77,-3.24 2.69,-4.91 2.87,-5.23 7.93,-15.22 10.7,-19.75 -3.43,-1.46 -4.5,-1.49 -7.42,-4.51 -8.83,-9.17 1.57,-19.2 8.39,-19.61l0 0zm100.73 -46.55c-1,7.6 -6.98,11.28 -13.63,14.08 -29.61,12.47 -102.54,11.41 -134.51,5.97 -7.75,-1.32 -16.67,-3.3 -22.89,-6.18 -3.61,-1.67 -6.47,-3.34 -8.61,-5.45 -1.77,-1.74 -3.29,-3.41 -4.06,-5.89 -0.25,-0.79 -0.28,-1.82 -0.86,-2.47 -0.57,0.96 -0.52,24.58 -0.52,25.29 -0.09,8.49 -0.2,16.99 -0.29,25.49 -0.19,16.92 -0.39,33.83 -0.58,50.74 -0.07,6.25 -1.36,5.59 3.9,9.63 2.07,1.59 6.31,3.67 9.56,4.91 7.18,2.72 15.03,4.68 23.39,6.22 35.59,6.55 76.12,6.37 111.72,-0.15 7.83,-1.43 16.79,-3.44 23.52,-6.1 3.7,-1.47 6.93,-2.9 9.74,-4.76 5.7,-3.76 4.4,-4.01 4.4,-9.03 0,-17.08 0,-34.15 0,-51.22 0,-0.74 0.42,-49.89 -0.27,-51.07l0 -0z"/>
    <polygon class="fil7 str0" points="116.32,136.49 142.18,153.07 167,137.38 158.08,163.22 184,179.71 152.63,179.11 143.83,204.98 133.36,178.77 101.99,178.27 126.9,162.68 "/>
    <polygon class="fil8 str1" points="142.63,115.54 146.47,162.6 197.19,151.35 148.85,169.2 176.35,209.3 142.63,173.28 108.91,209.3 136.41,169.2 88.07,151.35 138.78,162.6 "/>
   </g>
  </g>
 </g>
</svg>
