<?xml version="1.0" encoding="UTF-8"?>
<!DOCTYPE svg PUBLIC "-//W3C//DTD SVG 1.1//EN" "http://www.w3.org/Graphics/SVG/1.1/DTD/svg11.dtd">
<!-- Creator: CorelDRAW 2021 (64 Bit) -->
<svg xmlns="http://www.w3.org/2000/svg" xml:space="preserve" width="139.107mm" height="139.107mm" version="1.1" style="shape-rendering:geometricPrecision; text-rendering:geometricPrecision; image-rendering:optimizeQuality; fill-rule:evenodd; clip-rule:evenodd"
viewBox="0 0 3148.49 3148.49"
 xmlns:xlink="http://www.w3.org/1999/xlink"
 xmlns:xodm="http://www.corel.com/coreldraw/odm/2003">
 <defs>
  <style type="text/css">
   <![CDATA[
    .str2 {stroke:#0080FF;stroke-width:19.16;stroke-miterlimit:22.9256}
    .str1 {stroke:#0281FE;stroke-width:19.16;stroke-miterlimit:22.9256}
    .str5 {stroke:#05B6FC;stroke-width:19.16;stroke-miterlimit:22.9256}
    .str0 {stroke:#91D8F7;stroke-width:95.81;stroke-miterlimit:22.9256}
    .str3 {stroke:black;stroke-width:5.75;stroke-miterlimit:22.9256}
    .str4 {stroke:#9E9E9E;stroke-width:5.75;stroke-miterlimit:22.9256}
    .fil3 {fill:#FEFEFE}
    .fil2 {fill:black}
    .fil0 {fill:#1C8BD3}
    .fil4 {fill:white}
    .fil1 {fill:white}
   ]]>
  </style>
 </defs>
 <g id="Camada_x0020_1">
  <metadata id="CorelCorpID_0Corel-Layer"/>
  <g id="_2052110875488">
   <circle class="fil0 str0" cx="1574.24" cy="1574.24" r="1526.33"/>
   <g>
    <path class="fil1 str1" d="M1260.02 990.39l-310.87 313.3c-94.28,-98.2 -122.08,-219.02 -12.15,-325.44 100.06,-88.26 217.79,-84.65 323.02,12.14z"/>
    <path class="fil1 str2" d="M1881.57 2135.73c-87.97,-40.44 -104.12,-167.29 -61.59,-223.13 2.35,-1.38 -50.47,-45.18 -92.07,-81.88 -1.6,-1.41 -1.15,-3.9 -2.75,-2.19 -54.8,58.67 -60.88,66.56 -119.28,129.2 -2.91,3.12 -7.42,-2.64 -13.99,-8.43 -116.23,-102.43 -162.37,-172.58 -273.57,-281.67 -1.07,-1.05 -9.68,-10.42 -14.2,-5.78 -37.17,38.22 -48.55,48.74 -96.66,97.92 -4.63,4.73 -7.52,0.86 -9.77,-1.01 -20,-16.57 -53.65,-49.32 -104.53,-102.45 -1.57,-1.64 -1.77,-6.91 -0.05,-8.6 41.19,-40.62 45.64,-44.93 80.05,-77.11 2.83,-2.65 8.96,-8.54 1.04,-16.44 -78.01,-77.79 -147.42,-153.65 -173.12,-185.7 -1.77,-2.2 13.71,-14.52 15.69,-16.69 52.46,-57.55 184.12,-195.63 294.02,-300.47 7.13,-6.8 1.62,-6.48 8.08,-0.57 64.15,58.69 119.38,113.83 191.15,179.1 1.43,1.3 3.17,5.17 4.63,3.74 36.78,-35.83 50.13,-49.99 90.53,-88.16 2.35,-2.21 7.3,-1.78 9.73,0.39 44.56,39.85 55.01,49.22 104.18,106.3 1.17,1.36 2.5,4.1 1.53,4.98 -41.66,38.07 -89.57,79.35 -102.44,91.72 0,0 2.68,3.25 5.81,6.79 12.19,13.75 292.91,291.38 293.19,291.09 1.33,-1.4 -108,95.65 -116.47,104.69 -18.95,20.24 -22.21,15.28 -12.91,25.06 37.53,39.43 81.44,87.35 83.61,86.32 108.04,-51.62 220.21,-9.92 241.01,96.36 9.74,142.22 -84.27,237.09 -230.87,176.6z"/>
    <polygon class="fil2 str3" points="2490.19,786.92 1874.63,1408.13 1448.25,981.75 2072.28,357.72 "/>
    <polygon class="fil3 str4" points="2405.48,778.45 1874.63,1298.01 1544.25,973.28 2069.46,445.25 "/>
    <polygon class="fil2 str3" points="2257.22,631.44 2202.89,578.06 1674.14,1106.3 1728.71,1159.44 "/>
    <rect class="fil2 str3" transform="matrix(1.03284 1.01409 -1.01409 1.03284 1675.23 807.511)" width="359.9" height="46.13"/>
    <rect class="fil2 str3" transform="matrix(1.04191 1.00476 -1.00476 1.04191 1943.03 537.16)" width="359.9" height="46.13"/>
    <rect class="fil2 str3" transform="matrix(1.03284 1.01409 -1.01409 1.03284 1806.74 676.617)" width="359.9" height="46.13"/>
    <polygon class="fil2 str3" points="1366.92,1916.64 751.36,2537.85 324.98,2111.48 949.02,1487.44 "/>
    <polygon class="fil3 str4" points="1282.21,1908.17 751.36,2427.73 420.99,2103 946.2,1574.97 "/>
    <polygon class="fil2 str3" points="1133.96,1761.16 1079.62,1707.79 550.88,2236.03 605.45,2289.16 "/>
    <rect class="fil2 str3" transform="matrix(1.03284 1.01409 -1.01409 1.03284 551.964 1937.23)" width="359.9" height="46.13"/>
    <rect class="fil2 str3" transform="matrix(1.04191 1.00476 -1.00476 1.04191 819.766 1666.88)" width="359.9" height="46.13"/>
    <rect class="fil2 str3" transform="matrix(1.03284 1.01409 -1.01409 1.03284 683.478 1806.34)" width="359.9" height="46.13"/>
    <path class="fil4 str5" d="M2577.02 2146.51c-81.11,265.71 -246.93,397.84 -456.79,460.5l18.57 72.42c283.05,-77.31 452.28,-250.73 512.49,-516.21l-74.27 -16.71z"/>
    <path class="fil4 str5" d="M2396.87 2114.39c-81.82,161.09 -184.51,238.57 -309.43,304.49l18.58 71.14c183.52,-77.02 302.17,-198.29 358.92,-361.53l-68.07 -14.11z"/>
    <path class="fil4 str5" d="M2202.73 2075.69c-41.58,90.26 -62.61,105.57 -161.64,151.55l19.66 72.77c104.22,-43.74 171.61,-112.61 203.84,-205.32l-61.86 -19z"/>
   </g>
  </g>
 </g>
</svg>
