<?xml version="1.0" encoding="UTF-8"?>
<!DOCTYPE svg PUBLIC "-//W3C//DTD SVG 1.1//EN" "http://www.w3.org/Graphics/SVG/1.1/DTD/svg11.dtd">
<!-- Creator: CorelDRAW 2021 (64 Bit) -->
<svg xmlns="http://www.w3.org/2000/svg" xml:space="preserve" width="139.107mm" height="139.107mm" version="1.1" style="shape-rendering:geometricPrecision; text-rendering:geometricPrecision; image-rendering:optimizeQuality; fill-rule:evenodd; clip-rule:evenodd"
viewBox="0 0 694.62 694.62"
 xmlns:xlink="http://www.w3.org/1999/xlink"
 xmlns:xodm="http://www.corel.com/coreldraw/odm/2003">
 <defs>
  <style type="text/css">
   <![CDATA[
    .str7 {stroke:#0080FF;stroke-width:4.23;stroke-miterlimit:22.9256}
    .str6 {stroke:#0281FE;stroke-width:4.23;stroke-miterlimit:22.9256}
    .str10 {stroke:#06FCEC;stroke-width:4.23;stroke-miterlimit:22.9256}
    .str5 {stroke:#05FF7A;stroke-width:12.68;stroke-miterlimit:22.9256}
    .str4 {stroke:#BDBDBD;stroke-width:12.68;stroke-miterlimit:22.9256}
    .str1 {stroke:#FAFAFA;stroke-width:12.68;stroke-miterlimit:22.9256}
    .str2 {stroke:white;stroke-width:12.68;stroke-miterlimit:22.9256}
    .str0 {stroke:#91D8F7;stroke-width:21.14;stroke-miterlimit:22.9256}
    .str3 {stroke:#FAFAFA;stroke-width:2.11;stroke-miterlimit:22.9256}
    .str8 {stroke:black;stroke-width:1.27;stroke-miterlimit:22.9256}
    .str9 {stroke:#9E9E9E;stroke-width:1.27;stroke-miterlimit:22.9256}
    .fil1 {fill:none}
    .fil5 {fill:#FEFEFE}
    .fil4 {fill:black}
    .fil6 {fill:#06FCEC}
    .fil0 {fill:#1C8BD3}
    .fil3 {fill:white}
    .fil2 {fill:white;fill-rule:nonzero}
   ]]>
  </style>
 </defs>
 <g id="Camada_x0020_1">
  <metadata id="CorelCorpID_0Corel-Layer"/>
  <g id="_1389178907744">
   <circle class="fil0 str0" cx="347.31" cy="347.31" r="336.74"/>
   <line class="fil1 str1" x1="115.54" y1="519.63" x2="328.07" y2= "370.69" />
   <line class="fil1 str2" x1="59.15" y1="441.81" x2="162.03" y2= "583.79" />
   <path class="fil2 str3" d="M56.37 255.09c0,0 9.61,-0.96 9.61,-0.96 35.76,0.47 48.42,-0.97 90.32,2.2 67.87,10.62 129.71,46.74 169.44,105.83l0.18 0.26c39.58,59.04 49.59,129.75 33.78,196.37 -9.05,36.98 -17.69,53.37 -40.65,84.98 -22.32,-7.28 -36.26,-11.34 -48.8,-15.18 -0.33,-20.18 0.38,-6.43 0.38,-6.43 -2.01,-26.01 -4.98,-35 -14.35,-69.15 -43.21,6.87 -67.73,12.84 -99.82,34.43 -7.04,-10.5 -0.48,0.25 -7.52,-10.25 33.22,-22.36 59.35,-29.16 103.66,-36.42 -11.68,-36.84 -28.07,-70.24 -48.87,-100.42 -18.11,-26.27 -39.58,-50.13 -64.21,-71.71 -23.75,39.19 -45.28,65.07 -79.19,87.71 -7.04,-10.5 -0.44,0.31 -7.48,-10.2 32.83,-21.92 53.88,-47.38 76.88,-85.82 -36.72,-27.79 -54.24,-39.47 -84.92,-56.33 11.2,-48.01 0.39,0.59 11.55,-48.92zm98 13.73c-33.97,-1.74 -52.47,-1.85 -81.59,-0.6 0,0 -7.18,32.16 -7.18,32.16 25.75,15.11 45.84,29.07 70.53,48.83 12.72,-23.06 24.89,-52.54 34.34,-81.07l12.47 3.1c-10,30.18 -23.32,61.97 -36.94,86.27 26.18,22.68 48.96,47.84 68.13,75.65 21.89,31.76 39.05,66.94 51.14,105.75 26.72,-3.44 55.35,-4.26 85.9,-2.47 9,-57.45 -2.06,-116.73 -35.76,-167l-0.18 -0.26c-37.67,-56.03 -96.39,-90.29 -160.87,-100.38zm192.99 287.05c0.54,-2.28 1.05,-4.57 1.53,-6.86 -28.41,-1.58 -55.07,-0.85 -79.97,2.22 10.35,37.1 13.81,52.32 16.24,70.91 3.5,0.6 26.59,7.85 26.59,7.85 1.05,-1.26 26.02,-33.7 35.61,-74.12z"/>
   <g>
    <path class="fil1 str4" d="M85.38 181.2c119.89,-115.16 310.06,-112.61 426.82,5.72 117.87,119.46 116.58,311.86 -2.88,429.73"/>
    <g>
     <path class="fil1 str5" d="M172.58 123.6c21.32,-9.21 43.26,-15.81 65.73,-19.96"/>
     <path class="fil1 str5" d="M86.23 179.79c17.02,-15.79 35.51,-29.33 55.31,-40.74"/>
     <path class="fil1 str5" d="M278.33 98.16c23.19,-1.14 46.05,0.37 68.55,4.38"/>
     <path class="fil1 str5" d="M557.6 562.25c-12.17,19.77 -26.35,37.78 -42.37,54.07"/>
     <path class="fil1 str5" d="M597.52 459.05c-4.18,22.84 -10.88,44.75 -19.91,65.75"/>
     <path class="fil1 str5" d="M597.41 345.59c4.41,22.8 6.14,45.64 5.36,68.48"/>
     <path class="fil1 str5" d="M386.7 111.53c22.26,6.6 43.34,15.59 63.25,26.81"/>
     <path class="fil1 str5" d="M465.24 148.89c19.47,12.65 37.13,27.25 53.03,43.67"/>
     <path class="fil1 str5" d="M555.2 238.08c12.39,19.64 22.31,40.29 29.88,61.85"/>
    </g>
   </g>
   <path class="fil3 str6" d="M583.86 249.97l-34.99 -56.91c17.81,-10.36 36.57,-10.14 48.3,9.83 9.41,17.87 4.68,35.05 -13.31,47.08z"/>
   <path class="fil3 str7" d="M393.22 300.52c9.09,-11.5 28.32,-9.35 35.02,-1.1 0.12,0.39 8.45,-5.81 15.33,-10.62 0.26,-0.19 0.61,-0.03 0.42,-0.33 -6.67,-10.15 -7.62,-11.33 -14.75,-22.16 -0.36,-0.54 0.65,-1 1.74,-1.76 19.21,-13.44 31.18,-17.72 51.19,-30.19 0.19,-0.12 1.88,-1.05 1.36,-1.88 -4.3,-6.83 -5.44,-8.88 -10.95,-17.71 -0.53,-0.85 0.14,-1.14 0.5,-1.4 3.15,-2.35 9.17,-6.13 18.8,-11.72 0.3,-0.17 1.08,-0.01 1.27,0.3 4.5,7.51 4.98,8.32 8.49,14.53 0.29,0.51 0.94,1.62 2.38,0.74 14.23,-8.7 27.86,-16.2 33.49,-18.84 0.39,-0.18 1.65,2.53 1.89,2.9 6.59,9.77 22.2,34.06 33.7,53.97 0.75,1.29 0.9,0.47 -0.2,1.21 -10.92,7.34 -21,13.5 -33.16,21.72 -0.24,0.16 -0.87,0.28 -0.72,0.55 3.96,6.69 5.56,9.16 9.74,16.46 0.24,0.42 0,1.14 -0.4,1.42 -7.45,5.13 -9.2,6.34 -19.35,11.53 -0.24,0.12 -0.69,0.22 -0.79,0.05 -4.11,-7.49 -8.47,-16.01 -9.84,-18.34 0,0 -0.57,0.28 -1.21,0.61 -2.46,1.3 -53.31,32.69 -53.28,32.74 0.16,0.25 -10.21,-19.3 -11.24,-20.87 -2.3,-3.51 -1.46,-3.81 -3.23,-2.79 -7.14,4.11 -15.75,8.86 -15.68,9.22 3.74,17.73 -6.4,32.74 -22.77,32.01 -21.27,-3.64 -31.87,-20.86 -17.74,-40.26z"/>
   <polygon class="fil4 str8" points="569.89,438.17 500.49,325.46 578.42,277.96 647.94,392.02 "/>
   <polygon class="fil5 str9" points="574.16,426.02 516.68,329.39 576.24,292.39 635.16,388.48 "/>
   <polygon class="fil4 str8" points="601.08,409.45 610.86,403.37 552.04,306.75 542.27,312.88 "/>
   <rect class="fil4 str8" transform="matrix(-0.843148 0.524569 -0.524569 -0.843148 595.945 317.568)" width="79.4" height="10.18"/>
   <rect class="fil4 str8" transform="matrix(-0.838397 0.532128 -0.532128 -0.838397 626.154 366.606)" width="79.4" height="10.18"/>
   <rect class="fil4 str8" transform="matrix(-0.843148 0.524569 -0.524569 -0.843148 610.505 341.583)" width="79.4" height="10.18"/>
   <polygon class="fil4 str8" points="443.81,232.64 374.4,119.93 452.33,72.43 521.85,186.49 "/>
   <polygon class="fil5 str9" points="448.08,220.48 390.6,123.86 450.15,86.86 509.08,182.95 "/>
   <polygon class="fil4 str8" points="474.99,203.92 484.78,197.84 425.95,101.22 416.19,107.35 "/>
   <rect class="fil4 str8" transform="matrix(-0.843148 0.524569 -0.524569 -0.843148 469.86 112.037)" width="79.4" height="10.18"/>
   <rect class="fil4 str8" transform="matrix(-0.838397 0.532128 -0.532128 -0.838397 500.069 161.075)" width="79.4" height="10.18"/>
   <rect class="fil4 str8" transform="matrix(-0.843148 0.524569 -0.524569 -0.843148 484.42 136.052)" width="79.4" height="10.18"/>
   <path class="fil6 str10" d="M357.23 470.71c-76.86,-44.56 -105.57,-105.13 -109.24,-174.03l-24.03 0.31c2.7,92.39 44.05,157.07 122.42,195.22l10.85 -21.5z"/>
   <path class="fil6 str10" d="M380.92 417.95c-44.12,-37.01 -60.55,-74.2 -71.67,-117.33l-23.63 0.4c10.15,61.9 39.04,107.23 85.74,136.72l9.57 -19.79z"/>
   <path class="fil6 str10" d="M407.73 361.39c-25.05,-19.43 -28.24,-27.01 -35.1,-60.74l-24.22 0.62c5.77,35.15 22.17,60.9 48.69,77.65l10.62 -17.53z"/>
  </g>
 </g>
</svg>
