<?xml version="1.0" encoding="UTF-8"?>
<!DOCTYPE svg PUBLIC "-//W3C//DTD SVG 1.1//EN" "http://www.w3.org/Graphics/SVG/1.1/DTD/svg11.dtd">
<!-- Creator: CorelDRAW 2021 (64 Bit) -->
<svg xmlns="http://www.w3.org/2000/svg" xml:space="preserve" width="46.5266mm" height="46.5042mm" version="1.1" style="shape-rendering:geometricPrecision; text-rendering:geometricPrecision; image-rendering:optimizeQuality; fill-rule:evenodd; clip-rule:evenodd"
viewBox="0 0 235.55 235.44"
 xmlns:xlink="http://www.w3.org/1999/xlink"
 xmlns:xodm="http://www.corel.com/coreldraw/odm/2003">
 <defs>
  <style type="text/css">
   <![CDATA[
    .str0 {stroke:#B8B4B6;stroke-width:21.43;stroke-miterlimit:22.9256}
    .str1 {stroke:black;stroke-width:17.15;stroke-linecap:round;stroke-linejoin:round;stroke-miterlimit:22.9256}
    .fil1 {fill:none}
    .fil0 {fill:white}
   ]]>
  </style>
 </defs>
 <g id="Camada_x0020_1">
  <metadata id="CorelCorpID_0Corel-Layer"/>
  <g id="_1249918393328">
   <g>
    <path class="fil0" d="M19.85 223.17l193.99 0c5.15,0 9.33,-4.77 9.33,-10.66l0 -191.45c0,-5.88 -4.18,-10.66 -9.33,-10.66l-193.99 -0c-5.15,0 -9.33,4.77 -9.33,10.66l-0 191.45c0,5.88 4.18,10.66 9.33,10.66z"/>
    <path class="fil0 str0" d="M20.33 224.72l195.12 0c5.18,0 9.39,-4.8 9.39,-10.72l0 -192.56c0,-5.92 -4.2,-10.72 -9.39,-10.72l-195.12 -0c-5.18,0 -9.39,4.8 -9.39,10.72 0,23.13 -0.34,186.5 -0.19,194.89 0.08,4.63 5.71,8.39 9.58,8.39z"/>
   </g>
   <path class="fil1 str1" d="M72.73 77.73c14.75,26.66 29.49,53.31 44.24,79.97l45.84 -79.36"/>
  </g>
 </g>
</svg>
