<?xml version="1.0" encoding="UTF-8"?>
<!DOCTYPE svg PUBLIC "-//W3C//DTD SVG 1.1//EN" "http://www.w3.org/Graphics/SVG/1.1/DTD/svg11.dtd">
<!-- Creator: CorelDRAW 2021 (64 Bit) -->
<svg xmlns="http://www.w3.org/2000/svg" xml:space="preserve" width="266px" height="266px" version="1.1" style="shape-rendering:geometricPrecision; text-rendering:geometricPrecision; image-rendering:optimizeQuality; fill-rule:evenodd; clip-rule:evenodd"
viewBox="0 0 6.76 6.76"
 xmlns:xlink="http://www.w3.org/1999/xlink"
 xmlns:xodm="http://www.corel.com/coreldraw/odm/2003">
 <defs>
  <style type="text/css">
   <![CDATA[
    .str1 {stroke:white;stroke-width:0.02;stroke-miterlimit:22.9256;stroke-opacity:0.949020}
    .str3 {stroke:white;stroke-width:0.03;stroke-miterlimit:22.9256}
    .str0 {stroke:black;stroke-width:0.41;stroke-miterlimit:22.9256}
    .str2 {stroke:#FCFCFC;stroke-width:0.02;stroke-miterlimit:22.9256}
    .fil0 {fill:none}
    .fil3 {fill:#373435}
    .fil4 {fill:#2A282A}
    .fil2 {fill:#FEFEFE}
    .fil1 {fill:white;fill-opacity:0.949020}
   ]]>
  </style>
 </defs>
 <g id="Camada_x0020_1">
  <metadata id="CorelCorpID_0Corel-Layer"/>
  <g id="_2897031646272">
   <path class="fil0 str0" d="M6.08 5.06c-0.59,0.93 -1.6,1.5 -2.7,1.5 -1.75,0 -3.18,-1.42 -3.18,-3.18 0,-1.75 1.43,-3.18 3.18,-3.18 1.76,0 3.18,1.43 3.18,3.18 0,0.28 -0.04,0.55 -0.11,0.82"/>
   <g>
    <path class="fil1 str1" d="M3.38 0.33c1.69,0 3.05,1.37 3.05,3.05 0,1.69 -1.36,3.05 -3.05,3.05 -1.68,0 -3.05,-1.36 -3.05,-3.05 0,-1.68 1.37,-3.05 3.05,-3.05z"/>
    <path class="fil2 str2" d="M5.96 5.01l0.37 -0.84 0.31 0.08c-0.09,0.34 -0.22,0.65 -0.41,0.93l-0.27 -0.17z"/>
   </g>
   <circle class="fil3 str3" cx="6.3" cy="4.67" r="0.38"/>
   <g>
    <path class="fil4" d="M2.22 1.67l0 0.18c0,0.18 0.3,-0.04 0.3,0.15l0 2.42c0,0.38 -0.81,0.54 -0.92,0.08 0.51,-0.02 0.59,-0.44 0.39,-0.67 -0.34,-0.36 -1.23,0.06 -0.82,0.84 0.18,0.35 0.66,0.56 1.03,0.53 0.35,-0.03 0.56,-0.12 0.76,-0.29 0.18,-0.16 0.3,-0.48 0.3,-0.75l0 -2.21 0.36 -0.01c0.99,-0.03 0.67,0.92 0.56,1.08 -0.07,0.1 -0.16,0.15 -0.27,0.21 -0.14,0.07 -0.24,0.07 -0.37,0.12 -0.08,0.03 -0.1,0.05 -0.13,0.13 -0.05,0.18 0,0.15 0.23,0.15 0.4,0 0.72,-0.06 0.98,-0.21 0.74,-0.45 0.58,-1.83 -0.57,-1.83l-1.76 0c-0.06,0 -0.07,0.02 -0.07,0.08z"/>
    <path class="fil4" d="M4.58 5.08l0.87 0 0 -0.3c-0.29,0 -0.42,-0.06 -0.58,-0.26 -0.12,-0.15 -0.24,-0.28 -0.36,-0.44 -0.42,-0.57 -0.37,-0.43 -1.12,-0.43 0.02,0.09 0.06,0.12 0.11,0.19l0.7 0.97c0.09,0.12 0.17,0.27 0.38,0.27z"/>
   </g>
  </g>
 </g>
</svg>
